<?xml version="1.0" encoding="UTF-8" standalone="no"?>
<!-- Created with Inkscape (http://www.inkscape.org/) -->

<svg
   width="225.20364mm"
   height="192.47795mm"
   viewBox="0 0 225.20364 192.47795"
   version="1.1"
   id="svg1"
   xml:space="preserve"
   inkscape:version="1.3 (0e150ed6c4, 2023-07-21)"
   sodipodi:docname="namesti-slepa.svg"
   xmlns:inkscape="http://www.inkscape.org/namespaces/inkscape"
   xmlns:sodipodi="http://sodipodi.sourceforge.net/DTD/sodipodi-0.dtd"
   xmlns="http://www.w3.org/2000/svg"
   xmlns:svg="http://www.w3.org/2000/svg"><sodipodi:namedview
     id="namedview1"
     pagecolor="#ffffff"
     bordercolor="#000000"
     borderopacity="0.25"
     inkscape:showpageshadow="2"
     inkscape:pageopacity="0.0"
     inkscape:pagecheckerboard="0"
     inkscape:deskcolor="#d1d1d1"
     inkscape:document-units="mm"
     inkscape:zoom="0.72832161"
     inkscape:cx="571.17624"
     inkscape:cy="331.58428"
     inkscape:window-width="1920"
     inkscape:window-height="1025"
     inkscape:window-x="0"
     inkscape:window-y="33"
     inkscape:window-maximized="1"
     inkscape:current-layer="layer2"
     showgrid="false" /><defs
     id="defs1"><rect
       x="377.38892"
       y="521.83691"
       width="75.034309"
       height="39.093536"
       id="rect194" /><rect
       x="377.38892"
       y="521.83691"
       width="73.868805"
       height="40.253681"
       id="rect194-0" /><rect
       x="377.38892"
       y="521.83691"
       width="75.034309"
       height="39.093536"
       id="rect194-9" /><rect
       x="377.38892"
       y="521.83691"
       width="76.813805"
       height="50.44009"
       id="rect194-9-0" /><rect
       x="377.38892"
       y="521.83691"
       width="95.250748"
       height="31.738239"
       id="rect194-0-4" /><rect
       x="377.38892"
       y="521.83691"
       width="95.250748"
       height="31.738239"
       id="rect194-0-4-9" /><rect
       x="377.38892"
       y="521.83691"
       width="95.250748"
       height="31.738239"
       id="rect194-0-4-9-0" /><rect
       x="377.38892"
       y="521.83691"
       width="95.250748"
       height="31.738239"
       id="rect194-0-4-9-6" /><rect
       x="377.38892"
       y="521.83691"
       width="95.250748"
       height="31.738239"
       id="rect194-0-4-9-2" /><rect
       x="377.38892"
       y="521.83691"
       width="95.250748"
       height="31.738239"
       id="rect194-0-4-9-2-6" /></defs><g
     inkscape:groupmode="layer"
     id="layer2"
     inkscape:label="obrysy"
     style="display:inline;fill:none;stroke:#323232;stroke-linecap:round;stroke-linejoin:round;stroke-opacity:1"
     transform="translate(6.8968263,-5.6073722)"><path
       style="fill:none;stroke:#000000;stroke-width:1.2;stroke-linecap:round;stroke-linejoin:round;stroke-dasharray:none;stroke-opacity:1"
       d="m -2.8783991,101.56563 c 3.22639497,-0.40546 6.8856159,0.2145 9.8771372,-0.60584"
       id="path14" /><path
       style="fill:none;stroke:#000000;stroke-width:1.2;stroke-linecap:round;stroke-linejoin:round;stroke-dasharray:none;stroke-opacity:1"
       d="m 16.628603,101.40491 c 8.724194,1.39138 18.286353,-0.86836 26.48557,-0.0123"
       id="path15" /><path
       style="fill:none;stroke:#000000;stroke-width:1.2;stroke-linecap:round;stroke-linejoin:round;stroke-dasharray:none;stroke-opacity:1"
       d="m 53.430905,101.59036 c 14.989851,1.43503 29.86927,-2.595162 44.847827,-1.16164 4.769408,-0.464933 1.64319,-12.018968 2.280368,-15.936048"
       id="path16" /><path
       style="fill:none;stroke:#000000;stroke-width:1.2;stroke-linecap:round;stroke-linejoin:round;stroke-dasharray:none;stroke-opacity:1"
       d="m 100.3995,73.763883 c 0.34163,-6.123133 0.25601,-12.328065 1.12663,-18.421027 9.02233,-6.22e-4 18.06734,-0.439224 27.1219,0.25236 11.30939,2.008817 11.98387,-4.017666 11.98826,-13.406705 1.25799,-11.63059 -1.52666,-23.279217 -0.0238,-34.8849079 l -0.0824,0.2843492"
       id="path17" /><path
       style="fill:none;stroke:#000000;stroke-width:1.2;stroke-linecap:round;stroke-linejoin:round;stroke-dasharray:none;stroke-opacity:1"
       d="m 178.06264,7.3779572 c -0.16913,3.8319178 0.0963,8.0794978 0.35725,11.6955018"
       id="path23" /><path
       style="fill:none;stroke:#000000;stroke-width:1.2;stroke-linecap:round;stroke-linejoin:round;stroke-dasharray:none;stroke-opacity:1"
       d="m 178.65334,29.001032 c -0.96806,8.564218 -0.27909,17.160245 -0.27471,25.715261"
       id="path24" /><path
       style="fill:none;stroke:#000000;stroke-width:1.2;stroke-linecap:round;stroke-linejoin:round;stroke-dasharray:none;stroke-opacity:1"
       d="m 178.33072,34.422461 c 8.66152,0.110945 17.63493,0.598881 26.13386,-0.432712"
       id="path25" /><path
       style="fill:none;stroke:#000000;stroke-width:1.2;stroke-linecap:round;stroke-linejoin:round;stroke-dasharray:none;stroke-opacity:1"
       d="m 179.0228,75.718156 c -0.41863,14.159971 4.58093,18.215255 11.7594,18.285841 3.14821,0.03788 16.8554,0.577237 19.52023,-0.412855"
       id="path26"
       sodipodi:nodetypes="ccc" /><path
       style="fill:none;stroke:#000000;stroke-width:1.2;stroke-linecap:round;stroke-linejoin:round;stroke-dasharray:none;stroke-opacity:1"
       d="m 112.5868,132.09912 c 3.88321,0.68857 19.53952,-0.94208 27.57674,-7e-5 0.62978,8.37966 2.5412,16.96491 1.02486,25.50509 0.31958,5.83454 0.4798,12.19378 0.45082,17.62225"
       id="path27" /><path
       style="fill:none;stroke:#000000;stroke-width:1.2;stroke-linecap:round;stroke-linejoin:round;stroke-dasharray:none;stroke-opacity:1"
       d="m 101.17518,131.8147 c -4.412098,0.58222 -8.852224,0.36313 -13.311459,0.3585"
       id="path28" /><path
       style="fill:none;stroke:#000000;stroke-width:1.2;stroke-linecap:round;stroke-linejoin:round;stroke-dasharray:none;stroke-opacity:1"
       d="m 92.598523,132.35868 c -1.632237,7.95855 -0.04114,17.03835 -1.906951,24.31822 9.814688,1.07507 20.961308,-1.29792 31.320978,-0.5398 6.20506,0.37498 12.96119,0.35604 18.86306,0.0248"
       id="path29" /><path
       style="fill:none;stroke:#000000;stroke-width:1.2;stroke-linecap:round;stroke-linejoin:round;stroke-dasharray:none;stroke-opacity:1"
       d="m 79.320041,132.01251 c -13.832821,-0.21057 -27.742773,0.22767 -41.541676,0.61815 -2.243903,0.1374 -4.329735,-0.91318 -6.58018,-0.54392"
       id="path30" /><path
       style="fill:none;stroke:#000000;stroke-width:1.2;stroke-linecap:round;stroke-linejoin:round;stroke-dasharray:none;stroke-opacity:1"
       d="m 52.271245,131.78997 c -0.685935,10.75264 -1.07244,21.54796 -1.283122,32.32689 10.177025,-3.46176 20.780796,0.6833 31.238685,-0.56881 5.680122,0.12152 11.459814,1.78221 8.66829,-6.26804"
       id="path31" /><path
       style="fill:none;stroke:#000000;stroke-width:1.2;stroke-linecap:round;stroke-linejoin:round;stroke-dasharray:none;stroke-opacity:1"
       d="m 22.117812,131.80234 c -7.649142,0.74057 -16.4575987,0.17555 -23.1579365,0.20814"
       id="path32" /><path
       style="fill:none;stroke:#000000;stroke-width:1.2;stroke-linecap:round;stroke-linejoin:round;stroke-dasharray:none;stroke-opacity:1"
       d="m 19.662032,132.03517 c -0.510963,8.43392 -1.285762,15.56439 -1.092402,23.70365 -0.170442,6.83042 14.052511,1.54452 19.800988,3.07172 4.10315,-0.30888 8.211305,-0.72651 12.330621,-0.79691"
       id="path34" /><path
       style="fill:none;stroke:#000000;stroke-width:1.2;stroke-linecap:round;stroke-linejoin:round;stroke-dasharray:none;stroke-opacity:1"
       d="m -1.2359065,152.22582 c 10.6176206,-1.21957 9.3482287,0.84636 19.9967845,0.12937"
       id="path35"
       sodipodi:nodetypes="cc" /><path
       style="fill:none;stroke:#000000;stroke-width:1.2;stroke-linecap:round;stroke-linejoin:round;stroke-dasharray:none;stroke-opacity:1"
       d="M 55.471842,101.7347 C 55.910577,93.088071 54.534894,84.289501 56.59831,75.772176 57.118219,64.440308 56.121129,53.120779 55.522672,41.813127 c 1.478712,-4.885793 -0.442554,-10.096102 0.995857,-14.964716 1.499872,-3.638415 5.762112,-1.486411 8.486267,-1.47832 4.517227,-0.294125 9.038045,-0.648785 13.556993,-0.702999 2.493658,-0.212076 4.897323,0.564669 7.386195,0.395601 l 0.329229,-0.09706"
       id="path36" /><path
       style="fill:none;stroke:#000000;stroke-width:1.2;stroke-linecap:round;stroke-linejoin:round;stroke-dasharray:none;stroke-opacity:1"
       d="m 86.651453,25.234201 c 11.684969,2.793072 5.64772,-12.341069 7.006051,-19.0268288"
       id="path37" /><path
       style="fill:none;stroke:#000000;stroke-width:1.2;stroke-linecap:round;stroke-linejoin:round;stroke-dasharray:none;stroke-opacity:1"
       d="m 92.998101,24.789127 c 11.053949,1.128452 22.253579,1.609099 33.351719,0.959946 4.7984,-0.98824 9.68587,0.449824 14.46891,-0.507696"
       id="path38" /><path
       style="fill:none;stroke:#000000;stroke-width:1.2;stroke-linecap:round;stroke-linejoin:round;stroke-dasharray:none;stroke-opacity:1"
       d="m 27.400837,101.62817 c -1.506563,-11.894493 0.173246,-23.864708 0.288483,-35.741743 9.377261,2.573311 19.479233,-1.324354 28.848385,0.531625"
       id="path41" /><path
       style="fill:none;stroke:#000000;stroke-width:1.2;stroke-linecap:round;stroke-linejoin:round;stroke-dasharray:none;stroke-opacity:1"
       d="M 27.785483,66.047151 C 32.700835,53.569862 15.87777,59.569434 8.8279723,58.060581 3.8711914,58.843828 -1.3027441,59.209852 -6.2968263,58.518029"
       id="path42" /><path
       style="fill:none;stroke:#000000;stroke-width:1.2;stroke-linecap:round;stroke-linejoin:round;stroke-dasharray:none;stroke-opacity:1"
       d="m 116.75855,156.23673 c 0.0162,10.60506 0.2024,21.31643 -0.79,31.80498 7.36773,0.10453 20.72131,0.7569 25.69397,-1.39786 l -0.21102,-0.73676 0.23252,-0.69689"
       id="path140" /><path
       style="fill:none;stroke:#000000;stroke-width:1.2;stroke-linecap:round;stroke-linejoin:round;stroke-dasharray:none;stroke-opacity:1"
       d="m 141.64572,188.14755 c 0.5845,3.14376 -0.67889,6.22884 0.24659,9.33778"
       id="path141" /><path
       style="fill:none;stroke:#000000;stroke-width:0.8;stroke-linecap:round;stroke-linejoin:round;stroke-dasharray:none;stroke-opacity:1"
       d="m 194.93763,178.04321 c 3.18917,-0.16141 15.42228,0.52025 19.86152,-0.48856 0.78078,-6.82581 -0.29797,-14.51211 -0.55939,-19.40267 -4.80704,-0.36019 -16.41095,0.84375 -20.14389,0.26367 0.95314,4.84206 -1.47098,15.32567 0.84176,19.62756 z"
       id="path142-9"
       sodipodi:nodetypes="ccccc" /><path
       style="fill:none;stroke:#000000;stroke-width:1.2;stroke-linecap:round;stroke-linejoin:round;stroke-dasharray:none;stroke-opacity:1"
       d="m 216.65735,155.90027 c -3.97608,0.20299 -19.22772,-0.65423 -24.76233,0.61438 -0.97344,8.58371 0.37149,18.24952 0.69741,24.39958 5.99317,0.45296 20.46034,-1.06104 25.11439,-0.33158 -0.50732,-6.23584 0.26998,-19.28422 -1.04947,-24.68238 z"
       id="path142-9-4"
       sodipodi:nodetypes="ccccc" /><path
       style="fill:none;stroke:#000000;stroke-width:0.8;stroke-linecap:round;stroke-linejoin:round;stroke-dasharray:none;stroke-opacity:1"
       d="m 206.80033,167.05243 c 1.095,-0.54365 0.83744,1.41294 -0.11005,1.01014"
       id="path143" /><path
       style="fill:none;stroke:#000000;stroke-width:0.8;stroke-linecap:round;stroke-linejoin:round;stroke-dasharray:none;stroke-opacity:1"
       d="m 203.91476,165.45647 c -0.78656,-1.3344 2.02528,-1.08927 1.46134,0.0735"
       id="path144" /><path
       style="fill:none;stroke:#000000;stroke-width:0.8;stroke-linecap:round;stroke-linejoin:round;stroke-dasharray:none;stroke-opacity:1"
       d="m 202.18262,166.89758 c -1.7509,-0.88819 -1.15877,2.16942 0.18517,1.29312"
       id="path145" /><path
       style="fill:none;stroke:#000000;stroke-width:0.8;stroke-linecap:round;stroke-linejoin:round;stroke-dasharray:none;stroke-opacity:1"
       d="m 203.46161,169.59259 c -0.75666,1.69119 2.19297,1.71235 1.49396,0.15367"
       id="path146" /><path
       style="fill:none;stroke:#000000;stroke-width:0.8;stroke-linecap:round;stroke-linejoin:round;stroke-dasharray:none;stroke-opacity:1"
       d="m 202.57619,165.81235 c 0.009,0.50331 -0.0383,1.00646 -0.0202,1.50934 -0.0595,0.6336 0.11499,1.26799 -0.003,1.89937 0.37101,-0.14532 0.73239,0.11118 1.10635,0.11212 0.60203,0.0568 1.20681,0.0882 1.81168,0.0964 0.26283,-0.0625 0.82009,0.10767 0.83316,-0.22472 0.0261,-0.50076 -0.0801,-0.9985 -0.0628,-1.50158 -0.0165,-0.44899 -0.0445,-0.90181 -0.0239,-1.35209 0.0448,-0.21984 0.10045,-0.72024 -0.24905,-0.51161 -0.39014,-0.004 -0.75993,-0.18132 -1.15582,-0.15185 -0.53657,-0.005 -1.05494,0.1488 -1.58903,0.17516 -0.22147,0.0342 -0.43465,0.0234 -0.64743,-0.0506 z"
       id="path193" /><path
       style="display:inline;fill:none;stroke:#343434;stroke-width:0.6;stroke-linecap:round;stroke-linejoin:round;stroke-dasharray:none;stroke-opacity:1"
       d="m 205.3125,167.68136 c 0.16477,-0.95518 -1.3769,-1.1294 -1.71075,-0.34545 -0.37923,0.81816 0.72027,1.60916 1.42304,1.11008 0.26202,-0.14439 0.44738,-0.47825 0.28771,-0.76463 z"
       id="path192" /></g><g
     inkscape:groupmode="layer"
     id="layer6"
     inkscape:label="voda"
     style="display:inline;stroke:#989898;stroke-opacity:1"
     transform="translate(6.8968263,-5.6073722)"><path
       style="fill:none;stroke:#989898;stroke-width:0.3;stroke-linecap:round;stroke-linejoin:round;stroke-dasharray:none;stroke-opacity:1"
       d="m 203.86115,171.44357 c 0.0182,1.08453 -0.71202,1.98319 -1.40432,2.7394"
       id="path147" /><path
       style="fill:none;stroke:#989898;stroke-width:0.3;stroke-linecap:round;stroke-linejoin:round;stroke-dasharray:none;stroke-opacity:1"
       d="m 204.08824,171.44732 c 0.2938,1.48219 -0.87401,2.64985 -1.43974,3.89433"
       id="path148" /><path
       style="fill:none;stroke:#989898;stroke-width:0.3;stroke-linecap:round;stroke-linejoin:round;stroke-dasharray:none;stroke-opacity:1"
       d="m 204.382,171.45857 c 0.19622,1.19219 0.19398,2.42352 -0.0686,3.60558"
       id="path149" /><path
       style="fill:none;stroke:#989898;stroke-width:0.3;stroke-linecap:round;stroke-linejoin:round;stroke-dasharray:none;stroke-opacity:1"
       d="m 204.62783,171.45857 c 0.36699,1.11378 0.50243,2.35626 1.28329,3.28496"
       id="path150" /><path
       style="fill:none;stroke:#989898;stroke-width:0.3;stroke-linecap:round;stroke-linejoin:round;stroke-dasharray:none;stroke-opacity:1"
       d="m 204.78826,171.4642 c 0.63985,0.70981 1.22175,1.51318 2.07715,1.98186"
       id="path151" /><path
       style="fill:none;stroke:#989898;stroke-width:0.3;stroke-linecap:round;stroke-linejoin:round;stroke-dasharray:none;stroke-opacity:1"
       d="m 208.02877,167.94884 c 1.39381,-0.0516 2.56658,0.65075 3.55532,1.31957"
       id="path147-5" /><path
       style="fill:none;stroke:#989898;stroke-width:0.3;stroke-linecap:round;stroke-linejoin:round;stroke-dasharray:none;stroke-opacity:1"
       d="m 208.02816,167.7217 c 1.89842,-0.33935 3.4275,0.79217 5.0409,1.31942"
       id="path148-0" /><path
       style="fill:none;stroke:#989898;stroke-width:0.3;stroke-linecap:round;stroke-linejoin:round;stroke-dasharray:none;stroke-opacity:1"
       d="m 208.03559,167.42768 c 1.52794,-0.23287 3.11096,-0.26855 4.63687,-0.0424"
       id="path149-3" /><path
       style="fill:none;stroke:#989898;stroke-width:0.3;stroke-linecap:round;stroke-linejoin:round;stroke-dasharray:none;stroke-opacity:1"
       d="m 208.0297,167.18192 c 1.42306,-0.40118 3.0171,-0.57484 4.19232,-1.38407"
       id="path150-6" /><path
       style="fill:none;stroke:#989898;stroke-width:0.3;stroke-linecap:round;stroke-linejoin:round;stroke-dasharray:none;stroke-opacity:1"
       d="m 208.0331,167.02136 c 0.89718,-0.66152 1.91604,-1.26799 2.49808,-2.13757"
       id="path151-1" /><path
       style="fill:none;stroke:#989898;stroke-width:0.3;stroke-linecap:round;stroke-linejoin:round;stroke-dasharray:none;stroke-opacity:1"
       d="m 204.92176,164.09388 c -0.0169,-1.07775 0.65953,-1.97079 1.30079,-2.72227"
       id="path147-2" /><path
       style="fill:none;stroke:#989898;stroke-width:0.3;stroke-linecap:round;stroke-linejoin:round;stroke-dasharray:none;stroke-opacity:1"
       d="m 204.71141,164.09015 c -0.27214,-1.47292 0.80958,-2.63328 1.3336,-3.86997"
       id="path148-06" /><path
       style="fill:none;stroke:#989898;stroke-width:0.3;stroke-linecap:round;stroke-linejoin:round;stroke-dasharray:none;stroke-opacity:1"
       d="m 204.43931,164.07897 c -0.18176,-1.18473 -0.17968,-2.40836 0.0635,-3.58303"
       id="path149-1" /><path
       style="fill:none;stroke:#989898;stroke-width:0.3;stroke-linecap:round;stroke-linejoin:round;stroke-dasharray:none;stroke-opacity:1"
       d="m 204.2116,164.07897 c -0.33993,-1.10681 -0.46539,-2.34152 -1.18868,-3.26441"
       id="path150-5" /><path
       style="fill:none;stroke:#989898;stroke-width:0.3;stroke-linecap:round;stroke-linejoin:round;stroke-dasharray:none;stroke-opacity:1"
       d="m 204.063,164.07338 c -0.59268,-0.70537 -1.13168,-1.50372 -1.92402,-1.96947"
       id="path151-5" /><path
       style="fill:none;stroke:#989898;stroke-width:0.3;stroke-linecap:round;stroke-linejoin:round;stroke-dasharray:none;stroke-opacity:1"
       d="m 200.57545,167.95438 c -1.2825,0.10028 -2.284,0.85494 -3.12037,1.56009"
       id="path147-56" /><path
       style="fill:none;stroke:#989898;stroke-width:0.3;stroke-linecap:round;stroke-linejoin:round;stroke-dasharray:none;stroke-opacity:1"
       d="m 200.55237,167.75017 c -1.77481,-0.10521 -3.05813,1.07265 -4.4816,1.7163"
       id="path148-9" /><path
       style="fill:none;stroke:#989898;stroke-width:0.3;stroke-linecap:round;stroke-linejoin:round;stroke-dasharray:none;stroke-opacity:1"
       d="m 200.51496,167.48671 c -1.42425,-0.0485 -2.87846,0.086 -4.25308,0.44985"
       id="path149-37" /><path
       style="fill:none;stroke:#989898;stroke-width:0.3;stroke-linecap:round;stroke-linejoin:round;stroke-dasharray:none;stroke-opacity:1"
       d="m 200.49478,167.26521 c -1.34566,-0.2108 -2.82434,-0.19912 -3.98537,-0.80274"
       id="path150-4" /><path
       style="fill:none;stroke:#989898;stroke-width:0.3;stroke-linecap:round;stroke-linejoin:round;stroke-dasharray:none;stroke-opacity:1"
       d="m 200.47497,167.12127 c -0.89092,-0.50012 -1.88759,-0.93796 -2.51139,-1.65824"
       id="path151-52" /><path
       style="fill:none;stroke:#989898;stroke-width:0.3;stroke-linecap:round;stroke-linejoin:round;stroke-dasharray:none;stroke-opacity:1"
       d="m 196.40294,159.28564 c -0.36669,-0.1994 -0.94188,-0.17261 -1.09909,0.28158 -0.1884,0.35209 -0.40168,0.85413 -0.0779,1.19461 0.0982,0.14839 0.48946,0.22953 0.10306,0.28623 -0.36959,0.1472 -0.44494,0.65323 -0.26466,0.97361 0.14113,0.13045 0.65966,0.17435 0.23243,0.22952 -0.29752,0.24681 -0.24947,0.73127 -0.0806,1.04067 0.10178,0.23792 0.35211,0.34116 0.50023,0.52878"
       id="path159" /><path
       style="fill:none;stroke:#989898;stroke-width:0.3;stroke-linecap:round;stroke-linejoin:round;stroke-dasharray:none;stroke-opacity:1"
       d="m 195.52422,164.57286 c -0.19962,0.11212 -0.40679,0.27685 -0.4325,0.52118 -0.0313,0.16922 -0.0586,0.33941 -0.0908,0.5083 7.7e-4,0.17413 0.10386,0.32844 0.18773,0.47426 0.0713,0.13732 0.24386,0.1518 0.34762,0.22665 -0.13154,0.007 -0.25576,0.0757 -0.32278,0.20297 -0.17188,0.27843 -0.27334,0.6094 -0.25897,0.93823 0.0185,0.16716 0.13838,0.30927 0.2924,0.37095 0.0378,0.0232 0.0751,0.0602 0.0727,0.10823"
       id="path160" /><path
       style="fill:none;stroke:#989898;stroke-width:0.3;stroke-linecap:round;stroke-linejoin:round;stroke-dasharray:none;stroke-opacity:1"
       d="m 195.183,168.55139 c -0.17919,0.24307 -0.371,0.51844 -0.33656,0.83699 0.0154,0.27541 0.15156,0.57976 0.42217,0.68542 0.0988,0.003 0.42522,-0.0169 0.21488,0.11572 -0.14292,0.19986 -0.11278,0.46807 0.0299,0.65966 0.12434,0.25039 0.45382,0.35913 0.70391,0.23605 0.0244,-0.004 0.16784,-0.0694 0.11827,0.008"
       id="path161" /><path
       style="fill:none;stroke:#989898;stroke-width:0.3;stroke-linecap:round;stroke-linejoin:round;stroke-dasharray:none;stroke-opacity:1"
       d="m 195.47114,172.10681 c -0.57186,0.12516 -0.74213,0.79236 -0.71975,1.30073 -0.0516,0.31999 0.61774,0.40686 0.18316,0.55457 -0.26498,0.31139 -0.32256,0.89482 0.0355,1.1583 0.06,0.11639 -0.20859,0.51549 0.003,0.7554 0.0572,0.4013 0.60918,0.41118 0.74595,0.58653 -0.16886,0.40624 0.25754,0.75505 0.64034,0.73966 0.4881,0.0566 0.85648,-0.34528 1.31847,-0.38266"
       id="path162" /><path
       style="fill:none;stroke:#989898;stroke-width:0.3;stroke-linecap:round;stroke-linejoin:round;stroke-dasharray:none;stroke-opacity:1"
       d="m 199.00093,176.47432 c 0.0467,0.40132 0.37454,0.77072 0.80275,0.6051 0.4648,0.057 0.85997,-0.4875 0.81555,-0.79187 -0.13273,0.51661 0.4438,0.85534 0.89168,0.8561 0.36244,0.0633 0.73437,-0.22132 0.76425,-0.58888 0.076,0.58737 0.81976,1.00326 1.33291,0.64381 0.27765,-0.0666 0.33353,-0.64708 0.56833,-0.23184 0.55722,0.34768 1.36934,-0.19176 1.23712,-0.8444 -0.0377,-0.15004 -0.15074,-0.26498 -0.20252,-0.40895"
       id="path163" /><path
       style="fill:none;stroke:#989898;stroke-width:0.3;stroke-linecap:round;stroke-linejoin:round;stroke-dasharray:none;stroke-opacity:1"
       d="m 205.924,175.65882 c 0.0256,0.39899 0.19697,0.80998 0.54888,1.02619 0.20888,0.14128 0.43502,0.25897 0.66509,0.36006 0.23252,0.0369 0.47119,-0.0205 0.70181,-0.0435 0.19672,-0.0915 0.37898,-0.23945 0.50706,-0.41284 -0.13108,0.10016 -0.0224,0.34835 0.0997,0.44255 0.18559,0.11937 0.42675,0.0739 0.63018,0.0326 0.18434,-0.0268 0.42197,-0.29903 0.42265,-0.36437"
       id="path164" /><path
       style="fill:none;stroke:#989898;stroke-width:0.3;stroke-linecap:round;stroke-linejoin:round;stroke-dasharray:none;stroke-opacity:1"
       d="m 210.59879,176.60057 c 0.13002,0.3963 0.51758,0.65995 0.93121,0.65499 0.41974,0.0872 0.8258,-0.17313 1.06484,-0.49768 0.0257,-0.34212 0.1566,0.26452 0.43105,0.18049 0.37396,0.11312 0.77433,-0.0534 0.99296,-0.36925 0.30035,-0.2363 0.32356,-0.82653 -0.006,-1.05612 -0.12983,-0.13064 -0.32943,-0.20829 -0.0366,-0.22452 0.2908,-0.24752 0.39397,-0.71888 0.26168,-1.0842 -0.18107,-0.37493 -0.56919,-0.58066 -0.88242,-0.831 l -0.0497,-0.0243"
       id="path165" /><path
       style="fill:none;stroke:#989898;stroke-width:0.3;stroke-linecap:round;stroke-linejoin:round;stroke-dasharray:none;stroke-opacity:1"
       d="m 213.48024,172.26035 c 0.23625,0.0291 0.52005,-0.0941 0.58074,-0.34107 0.0138,-0.13048 0.0182,-0.26157 0.0388,-0.39143 0.0147,-0.13409 -0.016,-0.27394 -0.10351,-0.37917 -0.11897,-0.16724 -0.25021,-0.3306 -0.40974,-0.46043 -0.0536,-0.0301 -0.14749,-0.12128 -0.19476,-0.0885 l 0.0119,0.0229"
       id="path166" /><path
       style="fill:none;stroke:#989898;stroke-width:0.3;stroke-linecap:round;stroke-linejoin:round;stroke-dasharray:none;stroke-opacity:1"
       d="m 213.49541,169.55455 c 0.31712,0.0265 0.59918,-0.22782 0.64348,-0.53565 0.0896,-0.21577 0.0976,-0.43622 -0.008,-0.64434 -0.0257,-0.30494 -0.27954,-0.52573 -0.55514,-0.61825 -0.18641,-0.0676 0.36453,-0.17973 0.29538,-0.41939 1.8e-4,-0.22099 0.0434,-0.44492 0.0183,-0.66579 -0.0713,-0.19716 -0.44927,-0.2457 -0.48142,-0.37832 0.20971,-0.10343 0.50597,-0.20196 0.46512,-0.49688 0.0197,-0.2707 -0.0306,-0.56301 -0.25428,-0.74334 -0.19029,-0.20928 -0.5447,-0.34414 -0.74544,-0.34003"
       id="path167" /><path
       style="fill:none;stroke:#989898;stroke-width:0.3;stroke-linecap:round;stroke-linejoin:round;stroke-dasharray:none;stroke-opacity:1"
       d="m 211.2964,159.79931 c 0.28699,-0.41712 0.74528,-0.69094 1.25658,-0.61037 0.42952,-0.11499 0.79382,0.16472 0.9176,0.56512 0.31067,0.27015 -0.0179,0.82543 -0.0993,0.88235 0.28333,-0.20116 0.67264,-0.009 0.71106,0.50583 0.0402,0.58835 -0.26427,0.74972 -0.68212,0.92306 0.18886,0.24896 0.58872,0.65832 0.34534,1.05116 -0.31516,0.27078 -0.74068,0.47278 -1.16877,0.38879 -0.13339,0.008 -0.29729,-0.0357 -0.41537,0.04"
       id="path168"
       sodipodi:nodetypes="ccccccccc" /><path
       style="fill:none;stroke:#989898;stroke-width:0.3;stroke-linecap:round;stroke-linejoin:round;stroke-dasharray:none;stroke-opacity:1"
       d="m 207.47747,159.73556 c -0.0986,0.0462 0.27615,-0.18982 0.36417,-0.2723 0.2927,-0.2365 0.67931,-0.28246 1.04014,-0.26666 0.34461,0.10923 0.6287,0.36247 0.91508,0.57374 0.13075,0.13569 0.23076,0.29795 0.31186,0.46724"
       id="path169" /><path
       style="fill:none;stroke:#989898;stroke-width:0.3;stroke-linecap:round;stroke-linejoin:round;stroke-dasharray:none;stroke-opacity:1"
       d="m 201.47291,160.67281 c 0.0116,-0.31938 0.16506,-0.61984 0.36285,-0.86333 0.16856,-0.10853 0.35936,-0.1788 0.51084,-0.31577 0.23578,-0.15147 0.51618,-0.29089 0.80336,-0.25082 0.29785,0.0907 0.48631,0.37336 0.63998,0.626 0.0638,0.11079 0.0918,0.13715 0.065,-1.3e-4 0.0191,-0.27876 0.33784,-0.38407 0.57326,-0.40943 0.22446,-0.0123 0.47332,0.0117 0.66269,0.13839 0.0524,0.04 0.0755,0.14551 0.14718,0.15028"
       id="path170" /><path
       style="fill:none;stroke:#989898;stroke-width:0.3;stroke-linecap:round;stroke-linejoin:round;stroke-dasharray:none;stroke-opacity:1"
       d="m 197.45404,159.34891 c 0.23591,-0.0665 0.42945,-0.24674 0.68238,-0.25224 0.2933,-0.0119 0.60433,-0.0996 0.88716,0.0112 -0.0626,0.0201 0.24029,0.0615 0.31005,0.0817 0.24902,0.0586 0.40449,0.2722 0.52568,0.48028 0.0452,0.0359 0.18519,0.29031 0.18416,0.2184"
       id="path171" /><path
       style="fill:none;stroke:#989898;stroke-width:0.3;stroke-linecap:round;stroke-linejoin:round;stroke-dasharray:none;stroke-opacity:1"
       d="m 196.68818,162.1912 c -0.12107,-0.14112 -0.1425,-0.33341 -0.10806,-0.51042 0.031,-0.18859 0.0672,-0.45297 0.28495,-0.51011 0.16134,-0.0545 0.32974,-0.10648 0.50062,-0.0582 0.29698,0.0473 0.63145,0.14046 0.90651,-0.0339 0.29378,-0.1601 0.55054,-0.42919 0.62228,-0.76397"
       id="path172" /><path
       style="fill:none;stroke:#989898;stroke-width:0.3;stroke-linecap:round;stroke-linejoin:round;stroke-dasharray:none;stroke-opacity:1"
       d="m 197.28722,164.03716 c 0.14242,-0.24157 0.26224,-0.52638 0.51652,-0.67103 0.2214,-0.0811 0.46013,-0.002 0.68941,-0.0272 0.21886,-0.0176 0.40084,0.11092 0.58825,0.20059 0.20599,0.1204 0.40986,-0.0433 0.53359,-0.20176 0.12521,-0.13522 0.23618,-0.28477 0.37549,-0.40629"
       id="path173" /><path
       style="fill:none;stroke:#989898;stroke-width:0.3;stroke-linecap:round;stroke-linejoin:round;stroke-dasharray:none;stroke-opacity:1"
       d="m 200.9952,164.35448 c 0.12433,-0.23196 0.24549,-0.50402 0.50633,-0.60919 0.19548,-0.0774 0.4087,-0.0866 0.61382,-0.12258 0.13162,-0.0243 0.247,0.0473 0.36587,0.0884 0.0563,0.0166 0.12119,0.0165 0.17081,-0.0186"
       id="path174" /><path
       style="fill:none;stroke:#989898;stroke-width:0.3;stroke-linecap:round;stroke-linejoin:round;stroke-dasharray:none;stroke-opacity:1"
       d="m 206.57612,163.0647 c 0.3023,-0.30291 0.64804,-0.59223 0.81074,-0.9998 0.0771,-0.1832 0.0173,-0.37804 -0.0569,-0.55049 -0.045,-0.14709 -0.13511,-0.26891 -0.22868,-0.38756 -0.0832,-0.12635 -0.13669,-0.27453 -0.13845,-0.42674"
       id="path175" /><path
       style="fill:none;stroke:#989898;stroke-width:0.3;stroke-linecap:round;stroke-linejoin:round;stroke-dasharray:none;stroke-opacity:1"
       d="m 208.66897,162.32769 c 0.0497,-0.32176 0.33555,-0.62676 0.67948,-0.58542 0.23808,0.0714 0.48407,0.0824 0.729,0.11363 0.175,0.0817 0.29323,0.2693 0.4913,0.32345 0.19392,0.10244 0.40488,0.25492 0.63415,0.16262 0.1856,-0.0247 0.25694,-0.21732 0.41956,-0.27002"
       id="path176" /><path
       style="fill:none;stroke:#989898;stroke-width:0.3;stroke-linecap:round;stroke-linejoin:round;stroke-dasharray:none;stroke-opacity:1"
       d="m 207.92206,164.24871 c 0.38774,-0.15436 0.76463,-0.35432 1.1777,-0.4315 0.31215,-0.0448 0.56546,0.27021 0.87933,0.1698 0.25929,-0.0867 0.46685,-0.29036 0.74054,-0.33991 0.0277,-0.01 0.0549,-0.0213 0.0801,-0.0366"
       id="path177" /><path
       style="fill:none;stroke:#989898;stroke-width:0.3;stroke-linecap:round;stroke-linejoin:round;stroke-dasharray:none;stroke-opacity:1"
       d="m 207.58084,171.81337 c -0.29991,-0.15737 -0.53921,-0.55139 -0.33282,-0.87243 0.19498,-0.31671 0.56579,-0.46498 0.92587,-0.47199 0.28661,-0.0787 0.58895,-0.0528 0.8724,-0.1298 0.36837,-0.27732 0.58517,-0.74851 0.5914,-1.20804 -0.023,-0.12998 -0.12656,-0.22117 -0.19518,-0.32731"
       id="path178" /><path
       style="fill:none;stroke:#989898;stroke-width:0.3;stroke-linecap:round;stroke-linejoin:round;stroke-dasharray:none;stroke-opacity:1"
       d="m 210.64807,170.27109 c 0.006,0.28812 0.0199,0.69822 0.35065,0.80073 0.2415,0.0194 0.44618,0.19361 0.69342,0.1489 0.25863,-0.0318 0.51853,-0.11864 0.78005,-0.0908 0.2689,0.0827 0.25743,0.40484 0.2729,0.6323 0.0322,0.24491 -0.0571,0.47425 -0.10714,0.70681 -0.0289,0.21466 -0.0296,0.43166 -0.0336,0.64783"
       id="path179" /><path
       style="fill:none;stroke:#989898;stroke-width:0.3;stroke-linecap:round;stroke-linejoin:round;stroke-dasharray:none;stroke-opacity:1"
       d="m 207.3799,175.40291 c 0.26569,-0.1533 0.48797,-0.39011 0.57333,-0.68936 0.11742,-0.27188 0.21725,-0.58479 0.092,-0.87311 -0.0694,-0.23348 -0.18491,-0.47467 -0.14094,-0.72269 0.13437,-0.26495 0.46,-0.32613 0.70217,-0.45345 0.26703,-0.12139 0.3706,-0.41903 0.58644,-0.59948 l 0.006,-0.0111 0.005,-0.008"
       id="path180" /><path
       style="fill:none;stroke:#989898;stroke-width:0.3;stroke-linecap:round;stroke-linejoin:round;stroke-dasharray:none;stroke-opacity:1"
       d="m 210.0642,174.95934 c 0.1047,-0.40846 0.23044,-0.85343 0.56886,-1.13239 0.18887,-0.13575 0.4743,-0.17478 0.56644,-0.41586 0.0316,-0.2329 0.0332,-0.48184 0.0105,-0.71244 -0.0889,-0.16183 -0.20001,-0.31219 -0.25287,-0.49217 -0.0225,-0.0564 -0.0467,-0.11223 -0.0778,-0.1645"
       id="path181" /><path
       style="fill:none;stroke:#989898;stroke-width:0.3;stroke-linecap:round;stroke-linejoin:round;stroke-dasharray:none;stroke-opacity:1"
       d="m 197.37063,171.17189 c 0.47406,-0.0756 0.99199,-0.08 1.4097,-0.33825 0.23423,-0.29196 0.23931,-0.69739 0.43711,-1.01343 0.10878,-0.29935 0.42247,-0.41958 0.70051,-0.50575 0.36967,-0.0207 0.7143,0.19418 1.06586,0.294 0.21873,0.0718 0.3237,0.29988 0.53462,0.37594"
       id="path182" /><path
       style="fill:none;stroke:#989898;stroke-width:0.3;stroke-linecap:round;stroke-linejoin:round;stroke-dasharray:none;stroke-opacity:1"
       d="m 200.7753,171.29814 c 0.21675,0.16681 0.51569,0.21776 0.67407,0.46077 0.26342,0.28695 0.18765,0.72024 0.007,1.02828 -0.17192,0.28707 -0.33681,0.58708 -0.3841,0.92313 -0.10434,0.26369 -0.041,0.55425 0.057,0.80851 0.19288,0.35449 0.52389,0.59744 0.7801,0.90114"
       id="path183" /><path
       style="fill:none;stroke:#989898;stroke-width:0.3;stroke-linecap:round;stroke-linejoin:round;stroke-dasharray:none;stroke-opacity:1"
       d="m 197.71944,172.49238 c -0.44254,0.34711 -0.84518,0.94013 -0.63586,1.51929 0.29097,0.51089 0.94959,0.71888 1.50271,0.56096 0.4485,-0.22021 1.01727,-0.0264 1.22079,0.43501 0.0438,0.14126 0.19907,0.20836 0.25545,0.34412"
       id="path184" /><path
       style="fill:none;stroke:#989898;stroke-width:0.3;stroke-linecap:round;stroke-linejoin:round;stroke-dasharray:none;stroke-opacity:1"
       d="m 199.34215,171.99762 c -0.1658,0.24551 -0.39776,0.49339 -0.38532,0.80928 0.0446,0.28325 0.29664,0.47018 0.52465,0.61175 0.15539,0.0909 0.32781,0.16033 0.509,0.17243"
       id="path185" /><path
       style="fill:none;stroke:#989898;stroke-width:0.3;stroke-linecap:round;stroke-linejoin:round;stroke-dasharray:none;stroke-opacity:1"
       d="m 199.23599,162.3038 c 0.0717,-0.23697 0.14433,-0.50586 0.36054,-0.65301 0.22698,-0.13177 0.49945,-0.072 0.74658,-0.056 0.25507,0.0309 0.56862,0.0608 0.71275,0.3063"
       id="path186" /><path
       style="fill:none;stroke:#989898;stroke-width:0.3;stroke-linecap:round;stroke-linejoin:round;stroke-dasharray:none;stroke-opacity:1"
       d="m 207.05005,163.87679 c -0.12023,0.14057 -0.29036,0.26486 -0.312,0.46244 -0.0537,0.20888 -0.0389,0.43567 0.0651,0.6274 0.1211,0.23015 0.31027,0.43587 0.5487,0.54557 0.14073,0.061 0.2923,0.0941 0.42991,0.16277"
       id="path187" /><path
       style="fill:none;stroke:#989898;stroke-width:0.3;stroke-linecap:round;stroke-linejoin:round;stroke-dasharray:none;stroke-opacity:1"
       d="m 211.3874,160.91848 c 0.1968,-0.13412 0.42389,-0.29384 0.6754,-0.23842 0.16384,0.0402 0.30621,0.14467 0.42277,0.26298 0.12055,0.16079 0.0947,0.3883 0.23259,0.54044 0.0658,0.088 0.14598,0.17669 0.15546,0.29144"
       id="path188" /><path
       style="fill:none;stroke:#989898;stroke-width:0.3;stroke-linecap:round;stroke-linejoin:round;stroke-dasharray:none;stroke-opacity:1"
       d="m 208.23296,168.81753 c -0.0691,0.19681 0.0496,0.42677 -0.0812,0.60748 -0.14459,0.21988 -0.39815,0.32312 -0.60504,0.47075"
       id="path189" /><path
       style="fill:none;stroke:#989898;stroke-width:0.3;stroke-linecap:round;stroke-linejoin:round;stroke-dasharray:none;stroke-opacity:1"
       d="m 209.19597,174.06195 c -0.20978,0.22668 -0.34263,0.58086 -0.17603,0.8692 0.0893,0.28248 0.23306,0.57274 0.52209,0.69491 0.24781,0.16475 0.55008,0.0922 0.81674,0.18919 0.22491,0.0786 0.4393,-0.0773 0.66768,-0.0232 0.0772,0.001 0.16046,-0.007 0.22442,-0.0547"
       id="path190" /><path
       style="fill:none;stroke:#989898;stroke-width:0.3;stroke-linecap:round;stroke-linejoin:round;stroke-dasharray:none;stroke-opacity:1"
       d="m 196.57444,174.26668 c -0.0959,0.16208 -0.14296,0.3602 -0.0408,0.53194 0.0717,0.22051 0.20639,0.42882 0.42695,0.5226 0.37849,0.19961 0.79822,0.31937 1.2201,0.3827 0.1201,0.0137 0.24085,0.0203 0.36151,0.0269"
       id="path191" /></g><g
     inkscape:groupmode="layer"
     id="layer3"
     inkscape:label="dvere"
     transform="translate(6.8968263,-5.6073722)"
     style="display:inline"><path
       style="fill:none;stroke:#1a1a1a;stroke-width:0.8;stroke-linecap:round;stroke-linejoin:round;stroke-dasharray:none;stroke-opacity:1"
       d="m 98.848628,74.290612 c -0.292884,1.6329 -0.10186,3.295694 -0.171574,4.941392 -0.0395,0.662571 -0.253825,1.308569 -0.190803,1.976883 -0.04346,0.981873 -0.580906,1.903545 -0.457092,2.902048 0.364262,0.198963 0.847759,0.0017 1.255408,-0.0053 0.689305,-0.097 1.376223,0.09734 2.065303,0.119007 0.34183,0.05642 0.82627,0.109922 0.65702,-0.390361 -0.0412,-0.930434 -0.21501,-1.854871 -0.14383,-2.78899 0.0641,-1.105424 0.13608,-2.213713 0.047,-3.3202 -0.0588,-0.979435 -0.13349,-1.962595 -0.029,-2.941937 -0.0225,-0.393836 0.27915,-1.238382 -0.41264,-1.003189 -0.55504,0.0568 -1.03761,0.58445 -1.612109,0.37251 -0.335572,-0.07398 -0.676768,0.09383 -1.007773,0.138122 z"
       id="path1" /><path
       style="fill:none;stroke:#1a1a1a;stroke-width:0.799999;stroke-linecap:round;stroke-linejoin:round;stroke-dasharray:none;stroke-opacity:1"
       d="m 43.185586,100.22625 c -0.03451,0.70197 0.07898,1.40023 0.223939,2.08443 -0.05354,0.3144 -0.494481,0.73909 -0.286642,1.01107 0.35305,-0.199 0.768953,-0.25951 1.160866,-0.35175 0.883513,-0.18723 1.75016,0.22166 2.636527,0.14952 1.322623,-0.022 2.645986,-0.0936 3.968314,-0.0217 0.743178,-0.0138 1.497563,0.005 2.227933,-0.14902 0.149489,-0.16862 -0.324338,-0.4508 -0.201918,-0.7384 0.0043,-0.63844 0.13516,-1.27355 0.108264,-1.91178 -1.294263,0.0709 -2.560852,0.40492 -3.856258,0.47951 -1.011661,0.0689 -2.032193,0.0891 -3.04173,-0.0141 -0.492819,-0.12352 -0.992172,-0.24645 -1.505108,-0.20084 -0.484974,0.0501 -0.987125,-0.0289 -1.394911,-0.3129 l -0.03928,-0.0241 z"
       id="path2" /><path
       style="fill:none;stroke:#1a1a1a;stroke-width:0.8;stroke-linecap:round;stroke-linejoin:round;stroke-dasharray:none;stroke-opacity:1"
       d="m 7.2819416,99.77028 c 0.00808,0.78814 -0.2607672,1.54092 -0.2048338,2.3315 -0.010034,0.23317 -0.3437701,0.9286 0.077824,0.66043 0.3923154,-0.11905 0.8136731,-0.0189 1.2079013,-0.16696 0.8483707,-0.231 1.7138809,0.16585 2.5633309,-0.0634 0.474947,-0.0522 0.948733,0.0932 1.425597,0.0738 0.553435,0.0457 1.131475,-0.0562 1.657681,0.20948 0.362953,-0.0134 0.720342,0.0386 1.083425,0.0985 0.406838,0.0215 0.829067,0.011 1.2218,-0.1223 -0.118483,-0.61404 -0.01053,-1.25393 0.04165,-1.87314 0.01086,-0.3705 0.285392,-1.168899 -0.264735,-0.87411 -0.459584,0.0682 -0.928314,0.0439 -1.378688,0.22892 -0.841638,0.23803 -1.727084,0.33916 -2.569404,0.0484 -0.615178,-0.20004 -1.237556,-0.357736 -1.868504,-0.453926 C 9.7367804,99.743816 9.178577,99.648218 8.6407848,99.832774 8.1860452,99.980186 7.7401735,99.717005 7.2819416,99.77028 Z"
       id="path3" /><path
       style="fill:none;stroke:#1a1a1a;stroke-width:0.799999;stroke-linecap:round;stroke-linejoin:round;stroke-dasharray:none;stroke-opacity:1"
       d="m 101.72021,130.95195 c -0.13997,0.37922 -0.11963,0.78876 -0.005,1.17148 0.095,0.29373 0.0924,0.60232 0.0979,0.90335 0.4664,-0.0137 0.93059,-0.19261 1.40857,-0.14794 0.53837,4.1e-4 1.05127,0.23588 1.59388,0.17761 0.16713,-0.0203 0.69955,0.075 0.38358,0.0722 1.18796,0.18955 2.392,0.23189 3.5931,0.21273 0.66437,-0.025 1.35832,0.0695 1.99627,-0.15657 0.27733,-0.29692 0.13516,-0.82029 0.25014,-1.20732 0.0142,-0.33748 0.13639,-1.13486 -0.42969,-0.96437 -0.51964,0.0146 -1.03454,-0.133 -1.55535,-0.15673 -0.98452,-0.0877 -1.97384,-0.10207 -2.96107,-0.14067 -1.46221,-0.0105 -2.90746,0.36203 -4.37209,0.23625 z"
       id="path4" /><path
       style="fill:none;stroke:#1a1a1a;stroke-width:0.799999;stroke-linecap:round;stroke-linejoin:round;stroke-dasharray:none;stroke-opacity:1"
       d="m 79.801071,131.3273 c 0.0707,0.29166 -0.29585,0.50896 -0.22777,0.84136 -0.0327,0.35477 -0.10924,0.71856 -0.0864,1.07065 0.40911,0.10115 0.84215,0.047 1.25946,0.10629 0.66606,0.0571 1.34452,0.0208 2.00129,0.15427 0.43096,0.16065 0.88405,-0.0362 1.32616,0.0432 0.67195,0.0639 1.34743,0.12574 2.02188,0.0552 0.46167,-0.0495 0.92814,0.12605 1.38365,0.0119 0.2447,-0.25784 -0.0691,-0.65157 -0.0598,-0.96249 -0.0486,-0.29984 0.0944,-0.6895 -0.10548,-0.93332 -0.49887,-0.216 -1.05932,-0.20431 -1.59288,-0.24857 -0.6048,-0.009 -1.20461,-0.0843 -1.79682,-0.2051 -0.36406,-0.0441 -0.72337,-0.11805 -1.08559,-0.16453 -0.62073,-0.0268 -1.24588,0.10328 -1.86289,0.0192 -0.36236,-0.14681 -0.78661,-0.22157 -1.06329,0.12894 l -0.0555,0.0419 -0.0561,0.041 z"
       id="path5" /><path
       style="fill:none;stroke:#1a1a1a;stroke-width:0.799999;stroke-linecap:round;stroke-linejoin:round;stroke-dasharray:none;stroke-opacity:1"
       d="m 22.239071,131.08706 c -0.125552,0.40452 -0.285434,0.83719 -0.132653,1.25887 0.120991,0.32888 -0.08116,0.6792 0.03997,1.00363 0.333687,0.10459 0.695044,-0.0558 1.04197,-0.0371 1.246106,-0.0862 2.495984,-0.0409 3.740209,0.051 0.746266,0.031 1.495814,0.0438 2.238559,-0.0463 0.398766,0.0321 0.796187,-0.0657 1.193441,-0.0217 0.280353,0.10685 0.687667,0.14016 0.588416,-0.28789 0.0308,-0.75353 0.05432,-1.51344 -0.0095,-2.26453 -0.349711,0.0619 -0.641041,0.3622 -1.029996,0.25259 -0.463061,0.0414 -0.861247,0.38164 -1.342398,0.32069 -0.655789,-0.0543 -1.257464,-0.37605 -1.917979,-0.41352 -0.727692,-0.0888 -1.461185,0.002 -2.189829,-0.0664 -0.384076,-0.007 -0.763883,0.15743 -1.146811,0.047 -0.37977,-0.12088 -0.749498,1.6e-4 -1.073447,0.20361 z"
       id="path6" /><path
       style="fill:none;stroke:#1a1a1a;stroke-width:0.799999;stroke-linecap:round;stroke-linejoin:round;stroke-dasharray:none;stroke-opacity:1"
       d="m 23.907332,130.743 c 0.07132,-0.14845 0.0083,-0.31778 -0.0205,-0.46945 -0.04473,-0.21288 -0.131912,-0.42913 -0.09529,-0.64951 0.01861,-0.15991 0.191214,-0.10106 0.300862,-0.10367 0.50673,0.0216 1.013627,0.0428 1.520402,0.0605 0.126107,0.009 0.251448,0.0335 0.377987,0.0334 l 0.0019,-0.008"
       id="path7" /><path
       style="fill:none;stroke:#1a1a1a;stroke-width:0.799999;stroke-linecap:round;stroke-linejoin:round;stroke-dasharray:none;stroke-opacity:1"
       d="m 81.301021,130.9841 c 0.04,-0.10357 0.005,-0.22459 0.006,-0.33445 -0.009,-0.20286 -0.0418,-0.41128 0.007,-0.61131 0.0549,-0.13622 0.24079,-0.0152 0.35174,-0.0319 0.35515,0.0388 0.70929,0.0953 1.06633,0.11178 0.26229,-0.0214 0.51897,-0.10168 0.78329,-0.0973 0.0203,0.003 0.0456,0.004 0.0567,0.0248"
       id="path8" /><path
       style="fill:none;stroke:#1a1a1a;stroke-width:0.799999;stroke-linecap:round;stroke-linejoin:round;stroke-dasharray:none;stroke-opacity:1"
       d="m 103.09273,130.86942 c -0.0383,-0.26546 -0.002,-0.53617 0.012,-0.80274 0.0181,-0.18661 0.0272,-0.37577 0.071,-0.55854 0.15952,-0.056 0.34241,0.0674 0.49492,0.12639 0.16977,0.0866 0.35056,0.15543 0.54331,0.16077 0.56688,0.0567 1.13719,0.0211 1.70553,0.0211"
       id="path9" /><path
       style="fill:none;stroke:#1a1a1a;stroke-width:0.799999;stroke-linecap:round;stroke-linejoin:round;stroke-dasharray:none;stroke-opacity:1"
       d="m 143.12035,175.69788 c -0.37922,-0.13997 -0.78876,-0.11963 -1.17148,-0.005 -0.29373,0.095 -0.60232,0.0924 -0.90335,0.0979 0.0137,0.4664 0.19261,0.93059 0.14794,1.40857 -4.1e-4,0.53837 -0.23588,1.05127 -0.17761,1.59388 0.0203,0.16713 -0.075,0.69955 -0.0722,0.38358 -0.18955,1.18796 -0.23189,2.392 -0.21273,3.5931 0.025,0.66437 -0.0695,1.35832 0.15657,1.99627 0.29692,0.27733 0.82029,0.13516 1.20732,0.25014 0.33748,0.0142 1.13486,0.13639 0.96437,-0.42969 -0.0146,-0.51964 0.133,-1.03454 0.15673,-1.55535 0.0877,-0.98452 0.10207,-1.97384 0.14067,-2.96107 0.0105,-1.46221 -0.36203,-2.90746 -0.23625,-4.37209 z"
       id="path4-7" /><path
       style="fill:none;stroke:#1a1a1a;stroke-width:0.799999;stroke-linecap:round;stroke-linejoin:round;stroke-dasharray:none;stroke-opacity:1"
       d="m 143.20288,177.0704 c 0.26546,-0.0383 0.53617,-0.002 0.80274,0.012 0.18661,0.0181 0.37577,0.0272 0.55854,0.071 0.056,0.15952 -0.0674,0.34241 -0.12639,0.49492 -0.0866,0.16977 -0.15543,0.35056 -0.16077,0.54331 -0.0567,0.56688 -0.0211,1.13719 -0.0211,1.70553"
       id="path9-3" /><path
       style="fill:none;stroke:#1a1a1a;stroke-width:0.799999;stroke-linecap:round;stroke-linejoin:round;stroke-dasharray:none;stroke-opacity:1"
       d="m 102.10446,82.657356 c 0.0768,-0.123708 0.2579,-0.108053 0.38578,-0.136974 0.35765,-0.04547 0.72132,-0.03274 1.07667,-0.09559 0.15824,-0.03663 -0.0245,-0.20811 -0.0207,-0.307123 -0.0285,-0.234599 -0.007,-0.472218 0.0149,-0.706359 0.0409,-0.247142 0.19116,-0.489695 0.13057,-0.745363"
       id="path10" /><path
       style="fill:none;stroke:#1a1a1a;stroke-width:0.799999;stroke-linecap:round;stroke-linejoin:round;stroke-dasharray:none;stroke-opacity:1"
       d="m 51.176726,103.27467 c -0.09121,0.2494 -0.189237,0.49595 -0.311553,0.73167 -0.08069,0.19417 -0.299305,0.0762 -0.452605,0.10315 -0.178638,-0.006 -0.279646,0.17652 -0.45113,0.19414 -0.422024,0.0902 -0.828449,-0.11887 -1.248938,-0.11529 -0.283798,-0.0194 -0.57358,-0.0219 -0.853453,-0.056 0.03611,-0.003 0.07238,-0.002 0.108584,-0.003"
       id="path12" /><path
       style="fill:none;stroke:#1a1a1a;stroke-width:0.799999;stroke-linecap:round;stroke-linejoin:round;stroke-dasharray:none;stroke-opacity:1"
       d="m 13.84931,102.85762 c 0.08432,0.32629 -0.163178,0.61126 -0.161416,0.93172 -0.01225,0.12269 -0.003,0.28049 -0.117982,0.35697 -0.234393,0.039 -0.474361,-0.001 -0.709934,-0.0133 -0.406188,-0.0296 -0.812002,-0.10692 -1.220282,-0.0615 -0.237286,0.0212 -0.475284,0.0321 -0.713521,0.027 l 0.02684,-1.4e-4"
       id="path13" /><path
       style="fill:none;stroke:#1a1a1a;stroke-width:0.799999;stroke-linecap:round;stroke-linejoin:round;stroke-dasharray:none;stroke-opacity:1"
       d="m 177.3563,19.960408 c -0.1576,-0.299999 -0.4794,-0.35394 -0.079,-0.03053 0.1435,0.616143 -0.35963,1.204952 -0.11083,1.841547 0.0443,2.045317 -0.0876,4.090429 -0.15954,6.134326 0.0242,0.495141 -0.51213,1.777981 0.45096,1.473251 0.64873,-0.516088 1.65947,-0.25441 2.27604,-0.635063 -0.0359,-0.723051 -0.13751,-1.443117 -0.106,-2.185495 -0.15958,-0.939809 0.0592,-1.877337 -0.0843,-2.822183 0.0327,-1.030606 -0.21837,-2.064943 -0.044,-3.088955 0.23013,-0.546433 0.20056,-1.633306 -0.66082,-1.173984 -0.51162,0.08672 -1.10659,0.06357 -1.48253,0.487082 z"
       id="path18" /><path
       style="fill:none;stroke:#1a1a1a;stroke-width:0.799999;stroke-linecap:round;stroke-linejoin:round;stroke-dasharray:none;stroke-opacity:1"
       d="m 176.35348,26.834293 c -0.34335,0.009 -0.68682,0.01518 -1.0303,0.01236 0.0237,-0.124444 0.0979,-0.238827 0.0707,-0.370786 -0.002,-0.484081 -0.0962,-0.980247 0.0387,-1.454957 0.004,-0.0138 0.009,-0.02749 0.0143,-0.04108"
       id="path19" /><path
       style="fill:none;stroke:#1a1a1a;stroke-width:0.799999;stroke-linecap:round;stroke-linejoin:round;stroke-dasharray:none;stroke-opacity:1"
       d="m 177.75127,55.267621 c -0.26992,1.535894 0.13727,3.080235 0.0673,4.622746 0.0274,0.85701 0.17744,1.709029 0.11578,2.568673 -0.0224,0.80894 0.053,1.621121 -0.0319,2.427077 0.0441,0.160978 -0.0365,0.382682 0.0137,0.0989 0.48492,-0.216872 1.03801,-0.202474 1.55806,-0.265806 0.45056,0.0015 -0.13616,-0.525749 0.0119,-0.795469 -0.0435,-1.69072 0.073,-3.380083 0.0848,-5.070635 0.001,-1.144596 0.15876,-2.300941 -0.0416,-3.436653 -0.0475,-0.432334 -0.56749,-0.413255 -0.89002,-0.36496 -0.30216,0.04121 -0.60029,0.115583 -0.8879,0.216123 z"
       id="path20" /><path
       style="fill:none;stroke:#1a1a1a;stroke-width:0.799999;stroke-linecap:round;stroke-linejoin:round;stroke-dasharray:none;stroke-opacity:1"
       d="m 179.74669,75.310028 c 0.26992,-1.535894 -0.13727,-3.080235 -0.0673,-4.622746 -0.0274,-0.85701 -0.17744,-1.709029 -0.11578,-2.568673 0.0224,-0.80894 -0.053,-1.621121 0.0319,-2.427077 -0.0441,-0.160978 0.0365,-0.382682 -0.0137,-0.0989 -0.48492,0.216872 -1.03801,0.202474 -1.55806,0.265806 -0.45056,-0.0015 0.13616,0.525749 -0.0119,0.795469 0.0435,1.69072 -0.073,3.380083 -0.0848,5.070635 -0.001,1.144596 -0.15876,2.300941 0.0416,3.436653 0.0475,0.432334 0.56749,0.413255 0.89002,0.36496 0.30216,-0.04121 0.60029,-0.115583 0.8879,-0.216123 z"
       id="path20-6" /><path
       style="fill:none;stroke:#1a1a1a;stroke-width:0.799999;stroke-linecap:round;stroke-linejoin:round;stroke-dasharray:none;stroke-opacity:1"
       d="m 177.66885,63.37782 c -0.0685,-0.12176 -0.2433,-0.08953 -0.36298,-0.101561 -0.26473,-0.0061 -0.53255,0.04079 -0.79523,-0.0046 -0.13189,-0.04293 -0.0179,-0.229951 -0.0345,-0.337488 0.0504,-0.520449 0.11021,-1.043458 0.0846,-1.567051 -0.004,-0.05118 -0.009,-0.102323 -0.0183,-0.152826"
       id="path21" /><path
       style="fill:none;stroke:#1a1a1a;stroke-width:0.799999;stroke-linecap:round;stroke-linejoin:round;stroke-dasharray:none;stroke-opacity:1"
       d="m 177.86117,67.605999 c -0.17537,-0.06451 -0.33708,-0.163533 -0.51581,-0.21791 -0.24823,-0.05603 -0.50467,-0.05748 -0.75716,-0.0821 -0.111,-0.0039 -0.22419,-0.02295 -0.3343,-0.0091 0.0303,0.169239 0.16673,0.319397 0.13228,0.500027 -0.0335,0.260457 -0.18118,0.50444 -0.14601,0.773373 0.01,0.121669 -0.0321,0.247571 -0.005,0.366245 0.0181,0.0043 0.0224,-0.02612 0.032,-0.03244"
       id="path22" /></g><g
     inkscape:groupmode="layer"
     id="layer4"
     inkscape:label="lipa"
     style="display:inline;stroke:#989898;stroke-width:0.938709;stroke-opacity:1"
     transform="matrix(1.0588251,0,0,1.0717993,-0.06866011,-10.275905)"><path
       style="fill:none;stroke:#323232;stroke-width:0.750967;stroke-linecap:round;stroke-linejoin:round;stroke-dasharray:none;stroke-opacity:1"
       d="m 130.36286,68.020815 c -1.36301,-1.419098 -4.5454,-0.76283 -4.66992,1.380835 0.46044,1.003141 0.53477,2.240894 -1.0102,2.009851 -2.26129,-0.350802 -3.80271,2.390621 -2.47833,4.182142 0.12221,1.29252 -2.50277,0.696768 -2.54674,2.496838 -1.10443,1.290407 0.55574,3.422013 1.19695,2.613449 -2.20594,0.181557 -2.94267,3.088775 -2.1054,4.835171 0.24045,0.947839 2.67121,1.35715 0.68597,1.923147 -1.17047,1.973531 0.5735,4.652891 2.71977,4.907191 0.70819,1.780302 1.13017,4.25585 3.26984,4.836268 1.63215,1.112369 2.99926,-2.59388 3.94298,-0.439517 1.07775,1.067542 2.93032,1.011294 4.39272,0.97839 1.5241,-0.105621 2.79829,-0.893071 4.02084,0.325326 2.37288,0.74081 5.28728,-0.834577 5.87607,-3.264389 0.87312,-1.732777 3.68052,-0.99047 4.36688,-2.929761 -0.0303,-1.878205 1.93107,-2.617458 2.80695,-4.009433 0.49642,-1.240857 -0.35747,-2.463065 0.84874,-3.519813 1.146,-1.215767 0.54468,-3.137114 -0.0476,-4.00579 1.53177,-1.445084 2.96919,-3.936241 1.66007,-5.959607 -0.26709,-1.603828 -3.43393,-0.593289 -2.28417,-2.374241 -0.19381,-2.417068 -2.95616,-3.549775 -5.09437,-3.313139 -0.48939,-2.307529 -3.5213,-3.013379 -5.4558,-2.170982 -1.9473,0.663099 -3.23335,-2.037299 -5.21065,-1.407535 -1.44977,0.282568 -2.61974,3.091808 -4.10434,1.364414 -0.67468,0.124329 -0.93861,0.946609 -0.78029,1.541185 z"
       id="path50" /><path
       style="fill:none;stroke:#666666;stroke-width:0.750967;stroke-linecap:round;stroke-linejoin:round;stroke-dasharray:none;stroke-opacity:1"
       d="m 133.12363,79.068797 c -1.78852,0.345757 -3.01444,-1.44444 -2.66508,-3.085618 -0.14092,-1.399023 2.27759,-0.632498 0.89333,-1.829173 -0.52642,-1.559441 1.19605,-3.470901 2.78277,-2.884015 0.53773,-1.360302 2.31432,-2.170286 3.89057,-1.959868 1.07738,-0.06062 1.43835,1.962917 2.51012,0.64119 1.85137,-0.953791 3.21019,1.643146 1.9434,2.787591"
       id="path51" /><path
       style="fill:none;stroke:#666666;stroke-width:0.750967;stroke-linecap:round;stroke-linejoin:round;stroke-dasharray:none;stroke-opacity:1"
       d="m 141.53088,75.656579 c 1.58588,-0.349521 3.15462,2.180142 1.6061,3.203665 2.0357,0.202538 1.98472,3.237534 -0.24502,3.365411 -0.48228,-0.009 0.39082,1.613517 -0.80067,1.959731 -0.7449,0.607763 -2.10125,1.148535 -2.93701,0.459152"
       id="path52" /><path
       style="fill:none;stroke:#666666;stroke-width:0.750967;stroke-linecap:round;stroke-linejoin:round;stroke-dasharray:none;stroke-opacity:1"
       d="m 127.35396,82.122485 c -1.78061,0.274284 -2.44713,2.54264 -1.1887,3.750601 0.69363,0.419061 1.19003,0.438663 0.12718,0.665964 -1.8951,1.043017 -1.29806,4.169551 1.08635,3.865647 1.34023,-0.544836 -0.47129,0.954002 0.70934,1.584012 0.95942,0.644883 2.09973,1.126411 3.26326,0.766038"
       id="path53" /><path
       style="fill:none;stroke:#666666;stroke-width:0.750967;stroke-linecap:round;stroke-linejoin:round;stroke-dasharray:none;stroke-opacity:1"
       d="m 134.44241,94.337234 c 1.4967,0.665424 3.78769,0.988914 4.74328,-0.685986 0.53012,-0.784729 -0.74818,-2.178891 0.86144,-1.523169 1.77532,0.268267 3.69458,-2.148916 2.16401,-3.503614 0.75401,-1.010209 0.86377,-2.15451 0.19899,-3.275203"
       id="path54" /><path
       style="fill:none;stroke:#666666;stroke-width:0.750967;stroke-linecap:round;stroke-linejoin:round;stroke-dasharray:none;stroke-opacity:1"
       d="m 129.83372,68.742422 c -1.60423,-0.941598 -3.13936,0.516786 -2.71987,2.207365 -0.0356,0.02209 0.0155,0.222705 0.0632,0.06994"
       id="path55" /><path
       style="fill:none;stroke:#666666;stroke-width:0.750967;stroke-linecap:round;stroke-linejoin:round;stroke-dasharray:none;stroke-opacity:1"
       d="m 125.70052,72.636998 c -1.67492,-0.483343 -2.6582,1.72322 -1.62697,2.854317"
       id="path56" /><path
       style="fill:none;stroke:#666666;stroke-width:0.750967;stroke-linecap:round;stroke-linejoin:round;stroke-dasharray:none;stroke-opacity:1"
       d="m 121.94615,77.370812 c -0.89139,0.152944 -1.19422,1.492599 -0.84498,2.124312"
       id="path57" /><path
       style="fill:none;stroke:#666666;stroke-width:0.750967;stroke-linecap:round;stroke-linejoin:round;stroke-dasharray:none;stroke-opacity:1"
       d="m 121.45561,81.938526 c -1.7059,0.265386 -1.83173,2.79057 -0.46624,3.667279"
       id="path58" /><path
       style="fill:none;stroke:#666666;stroke-width:0.750967;stroke-linecap:round;stroke-linejoin:round;stroke-dasharray:none;stroke-opacity:1"
       d="m 121.13088,87.941488 c -0.5683,0.635886 -0.65914,2.17326 0.33024,2.487109"
       id="path59" /><path
       style="fill:none;stroke:#666666;stroke-width:0.750967;stroke-linecap:round;stroke-linejoin:round;stroke-dasharray:none;stroke-opacity:1"
       d="m 122.53937,91.171672 c 1.17533,0.403693 1.11142,1.202726 1.65618,2.176803"
       id="path60" /><path
       style="fill:none;stroke:#666666;stroke-width:0.750967;stroke-linecap:round;stroke-linejoin:round;stroke-dasharray:none;stroke-opacity:1"
       d="m 125.12323,94.292578 c 0.54096,1.124462 2.57967,0.495347 3.2104,-0.153002"
       id="path61" /><path
       style="fill:none;stroke:#666666;stroke-width:0.750967;stroke-linecap:round;stroke-linejoin:round;stroke-dasharray:none;stroke-opacity:1"
       d="m 122.35481,83.024093 c 0.28314,-0.510677 -1.07547,1.188954 -0.0826,1.473033"
       id="path62" /><path
       style="fill:none;stroke:#666666;stroke-width:0.750967;stroke-linecap:round;stroke-linejoin:round;stroke-dasharray:none;stroke-opacity:1"
       d="m 124.53555,77.398593 c -1.12395,0.408803 -1.63152,2.086481 -1.06854,3.094681"
       id="path63" /><path
       style="fill:none;stroke:#666666;stroke-width:0.750967;stroke-linecap:round;stroke-linejoin:round;stroke-dasharray:none;stroke-opacity:1"
       d="m 126.38302,73.750455 c -0.62756,-0.104976 -1.01687,0.798682 -0.78202,1.280707"
       id="path64" /><path
       style="fill:none;stroke:#666666;stroke-width:0.750967;stroke-linecap:round;stroke-linejoin:round;stroke-dasharray:none;stroke-opacity:1"
       d="m 129.43799,69.925815 c -0.48126,-0.199783 -0.9305,0.732012 -0.69456,1.097125"
       id="path65" /><path
       style="fill:none;stroke:#666666;stroke-width:0.750967;stroke-linecap:round;stroke-linejoin:round;stroke-dasharray:none;stroke-opacity:1"
       d="m 133.7849,68.365361 c 0.85505,-1.174535 2.77323,-1.933648 3.96922,-0.78923 l 0.0182,-0.0063"
       id="path66" /><path
       style="fill:none;stroke:#666666;stroke-width:0.750967;stroke-linecap:round;stroke-linejoin:round;stroke-dasharray:none;stroke-opacity:1"
       d="m 140.36597,68.10747 c 1.33479,-0.554232 3.42832,-0.09474 3.93793,1.36473 0.0616,0.831985 0.85449,-0.125415 1.27264,0.327831"
       id="path67" /><path
       style="fill:none;stroke:#666666;stroke-width:0.750967;stroke-linecap:round;stroke-linejoin:round;stroke-dasharray:none;stroke-opacity:1"
       d="m 146.6702,69.820908 c 1.47663,0.221608 2.93728,1.082206 3.11809,2.657581"
       id="path68" /><path
       style="fill:none;stroke:#666666;stroke-width:0.750967;stroke-linecap:round;stroke-linejoin:round;stroke-dasharray:none;stroke-opacity:1"
       d="m 146.32051,71.19341 c 0.72074,0.165406 1.20713,0.674501 1.61734,1.245741"
       id="path69" /><path
       style="fill:none;stroke:#666666;stroke-width:0.750967;stroke-linecap:round;stroke-linejoin:round;stroke-dasharray:none;stroke-opacity:1"
       d="m 150.6237,74.205041 c 2.4568,0.400505 1.43566,3.2837 0.1846,4.489037 -0.17753,0.246099 -0.35884,0.495803 -0.46626,0.782413"
       id="path70" /><path
       style="fill:none;stroke:#666666;stroke-width:0.750967;stroke-linecap:round;stroke-linejoin:round;stroke-dasharray:none;stroke-opacity:1"
       d="m 149.81746,75.468265 c 0.5274,0.648706 0.38574,1.565328 -0.17483,2.041263"
       id="path71" /><path
       style="fill:none;stroke:#666666;stroke-width:0.750967;stroke-linecap:round;stroke-linejoin:round;stroke-dasharray:none;stroke-opacity:1"
       d="m 148.12241,76.045239 c 0.1847,0.340324 -6.9e-4,0.69069 -0.14087,1.000964"
       id="path72" /><path
       style="fill:none;stroke:#666666;stroke-width:0.750967;stroke-linecap:round;stroke-linejoin:round;stroke-dasharray:none;stroke-opacity:1"
       d="m 149.66101,81.15315 c 0.74178,0.983575 0.25973,2.316603 -0.63154,3.016004"
       id="path73" /><path
       style="fill:none;stroke:#666666;stroke-width:0.750967;stroke-linecap:round;stroke-linejoin:round;stroke-dasharray:none;stroke-opacity:1"
       d="m 148.84991,85.830139 c 0.0955,1.938319 -2.04828,2.702064 -2.01172,4.394328 -0.59674,0.73761 -1.4076,1.191411 -2.17972,1.711986"
       id="path74" /><path
       style="fill:none;stroke:#666666;stroke-width:0.750967;stroke-linecap:round;stroke-linejoin:round;stroke-dasharray:none;stroke-opacity:1"
       d="m 142.01629,94.095736 c 0.0839,1.060942 -0.63366,1.871195 -1.45703,2.417175"
       id="path75" /><path
       style="fill:none;stroke:#666666;stroke-width:0.750967;stroke-linecap:round;stroke-linejoin:round;stroke-dasharray:none;stroke-opacity:1"
       d="m 139.1313,96.639667 c -0.6916,0.352805 -1.52415,-0.06634 -2.07389,-0.507033"
       id="path76" /><path
       style="fill:none;stroke:#666666;stroke-width:0.750967;stroke-linecap:round;stroke-linejoin:round;stroke-dasharray:none;stroke-opacity:1"
       d="m 130.9426,95.529431 c 0.84585,0.699817 1.92761,0.381243 2.88984,0.122388"
       id="path77" /><path
       style="fill:none;stroke:#666666;stroke-width:0.750967;stroke-linecap:round;stroke-linejoin:round;stroke-dasharray:none;stroke-opacity:1"
       d="m 135.66835,92.762574 c 0.89466,0.341042 1.87105,-0.01125 2.10304,-0.99659"
       id="path78" /><path
       style="fill:none;stroke:#666666;stroke-width:0.750967;stroke-linecap:round;stroke-linejoin:round;stroke-dasharray:none;stroke-opacity:1"
       d="m 139.28672,90.070029 c 1.83388,0.273909 2.27333,-2.531353 1.20946,-3.588608"
       id="path79" /><path
       style="fill:none;stroke:#666666;stroke-width:0.750967;stroke-linecap:round;stroke-linejoin:round;stroke-dasharray:none;stroke-opacity:1"
       d="m 128.92214,87.268205 c -1.13706,0.216766 -0.66482,1.738885 0.23799,1.993193"
       id="path80" /><path
       style="fill:none;stroke:#666666;stroke-width:0.750967;stroke-linecap:round;stroke-linejoin:round;stroke-dasharray:none;stroke-opacity:1"
       d="m 128.82015,83.255611 c -0.97561,0.415424 -0.71681,1.814936 0.0583,2.286042"
       id="path81" /><path
       style="fill:none;stroke:#666666;stroke-width:0.750967;stroke-linecap:round;stroke-linejoin:round;stroke-dasharray:none;stroke-opacity:1"
       d="m 134.64131,72.676776 c -1.31445,0.24827 -0.98897,2.201233 -0.66065,2.543968 -0.66261,0.360121 -0.58836,1.402123 0.0679,1.735293"
       id="path82" /><path
       style="fill:none;stroke:#666666;stroke-width:0.750967;stroke-linecap:round;stroke-linejoin:round;stroke-dasharray:none;stroke-opacity:1"
       d="m 136.27808,72.619951 c 0.18733,-1.23511 2.17019,-1.417497 2.48187,-0.493925 0.52633,-0.919658 1.93893,-0.63087 2.26323,0.305981"
       id="path83" /><path
       style="fill:none;stroke:#666666;stroke-width:0.750967;stroke-linecap:round;stroke-linejoin:round;stroke-dasharray:none;stroke-opacity:1"
       d="m 140.22673,77.554832 c 1.65426,-0.659562 2.83438,2.518251 0.93253,2.788711 0.82048,1.340389 -1.15972,2.393438 -2.2973,1.940732"
       id="path84" /><path
       style="fill:none;stroke:#666666;stroke-width:0.750967;stroke-linecap:round;stroke-linejoin:round;stroke-dasharray:none;stroke-opacity:1"
       d="m 129.21618,90.611065 c 0.23868,0.736254 1.33122,0.906269 1.9573,0.620678"
       id="path85" /><path
       style="fill:none;stroke:#666666;stroke-width:0.750967;stroke-linecap:round;stroke-linejoin:round;stroke-dasharray:none;stroke-opacity:1"
       d="m 130.3964,84.299313 c -0.34562,0.433769 -0.0672,0.86752 0.10685,1.29382"
       id="path86" /><path
       style="fill:none;stroke:#666666;stroke-width:0.750967;stroke-linecap:round;stroke-linejoin:round;stroke-dasharray:none;stroke-opacity:1"
       d="m 137.40002,74.162922 c 0.31196,-0.593962 0.81802,-0.737062 1.28222,-0.21418"
       id="path87" /><path
       style="fill:none;stroke:#666666;stroke-width:0.750967;stroke-linecap:round;stroke-linejoin:round;stroke-dasharray:none;stroke-opacity:1"
       d="m 139.10478,78.651959 c 0.71005,0.224149 0.48987,1.092786 0.0874,1.494885"
       id="path88" /><path
       style="fill:none;stroke:#666666;stroke-width:0.750967;stroke-linecap:round;stroke-linejoin:round;stroke-dasharray:none;stroke-opacity:1"
       d="m 137.45345,78.962299 c 0.22945,0.256659 0.47735,0.884804 0.0194,1.053415"
       id="path89" /><path
       style="fill:none;stroke:#666666;stroke-width:0.750967;stroke-linecap:round;stroke-linejoin:round;stroke-dasharray:none;stroke-opacity:1"
       d="m 146.50208,85.688058 c 0.0885,0.731905 -0.40829,1.628974 -0.99566,2.006298"
       id="path90" /><path
       style="fill:none;stroke:#666666;stroke-width:0.750967;stroke-linecap:round;stroke-linejoin:round;stroke-dasharray:none;stroke-opacity:1"
       d="m 144.50591,85.443281 c -0.0289,0.163552 0.023,0.386477 -0.12142,0.515782"
       id="path91" /><path
       style="fill:none;stroke:#666666;stroke-width:0.750967;stroke-linecap:round;stroke-linejoin:round;stroke-dasharray:none;stroke-opacity:1"
       d="m 135.39262,90.853764 c 0.39886,0.280762 1.25156,0.08405 1.39878,-0.358423"
       id="path92" /><path
       style="fill:none;stroke:#666666;stroke-width:0.750967;stroke-linecap:round;stroke-linejoin:round;stroke-dasharray:none;stroke-opacity:1"
       d="m 135.2712,89.249601 c 0.18338,-0.114892 0.46159,-0.162168 0.55854,-0.389022"
       id="path93" /><path
       style="fill:none;stroke:#666666;stroke-width:0.750967;stroke-linecap:round;stroke-linejoin:round;stroke-dasharray:none;stroke-opacity:1"
       d="m 139.03026,88.311761 c 0.40276,-0.272868 0.26571,-0.843243 0.21859,-1.24574"
       id="path94" /></g><g
     inkscape:groupmode="layer"
     id="layer5"
     inkscape:label="nabytek"
     transform="translate(6.8968263,-5.6073722)"
     style="display:inline"><path
       style="fill:none;stroke:#808080;stroke-width:0.799999;stroke-linecap:round;stroke-linejoin:round;stroke-dasharray:none;stroke-opacity:1"
       d="m 113.35096,60.700033 c -1.87063,-0.696587 -4.08078,0.604817 -4.31124,2.586328 -0.73131,1.834575 0.36656,4.003841 2.42746,4.111094 1.57242,0.0011 3.79037,0.0977 4.36293,-1.791185 0.54902,-1.497904 -0.003,-3.479704 -1.3828,-4.326904 -0.30245,-0.295614 -0.61326,-0.65748 -1.09635,-0.579333 z"
       id="path96" /><path
       style="fill:none;stroke:#808080;stroke-width:0.799999;stroke-linecap:round;stroke-linejoin:round;stroke-dasharray:none;stroke-opacity:1"
       d="m 107.88933,61.587133 c 0.30592,1.967628 0.18479,4.939057 -2.52214,3.887825 -1.12134,-1.18232 -0.41032,-3.823199 1.36893,-3.890568 0.38817,-0.04441 0.77957,-0.204226 1.15321,0.0027 z"
       id="path97" /><path
       style="fill:none;stroke:#808080;stroke-width:0.799999;stroke-linecap:round;stroke-linejoin:round;stroke-dasharray:none;stroke-opacity:1"
       d="m 111.32925,58.94393 c 1.23228,-0.756753 3.28318,0.311032 4.06357,-0.08147 0.28953,-2.362819 -3.04105,-3.165537 -3.77971,-0.855755 -0.13296,0.298743 -0.23984,0.6119 -0.28386,0.937228 z"
       id="path98" /><path
       style="fill:none;stroke:#808080;stroke-width:0.799999;stroke-linecap:round;stroke-linejoin:round;stroke-dasharray:none;stroke-opacity:1"
       d="m 118.09846,61.532819 c 0.54561,1.144535 2.03987,4.703266 3.14011,2.185978 1.16469,-1.890344 -1.86618,-3.84753 -3.14011,-2.185978 z"
       id="path99" /><path
       style="fill:none;stroke:#808080;stroke-width:0.799999;stroke-linecap:round;stroke-linejoin:round;stroke-dasharray:none;stroke-opacity:1"
       d="m 134.43306,64.574316 c -0.87408,-1.274013 -1.21326,-3.652824 0.53308,-4.363096 1.76936,-0.744449 4.30763,-0.951615 5.73871,0.571029 0.68099,1.509298 0.55222,3.600097 -0.40781,4.986939"
       id="path100" /><path
       style="fill:none;stroke:#808080;stroke-width:0.799999;stroke-linecap:round;stroke-linejoin:round;stroke-dasharray:none;stroke-opacity:1"
       d="m 135.29806,58.292182 c 1.14972,-0.653311 5.45715,0.782667 3.31081,-1.658891 -1.40628,-0.976553 -3.40721,-0.173752 -3.31081,1.658891 z"
       id="path101" /><path
       style="fill:none;stroke:#808080;stroke-width:0.799999;stroke-linecap:round;stroke-linejoin:round;stroke-dasharray:none;stroke-opacity:1"
       d="m 132.4717,59.821981 c -0.48123,1.282536 0.31872,5.150934 -1.81028,3.103678 -0.92472,-1.297767 0.11385,-3.45372 1.81034,-3.103677 z"
       id="path102" /><path
       style="fill:none;stroke:#808080;stroke-width:0.799999;stroke-linecap:round;stroke-linejoin:round;stroke-dasharray:none;stroke-opacity:1"
       d="m 142.65064,65.805398 c 0.0952,-1.224741 1.40697,-3.591317 2.00687,-1.283861 0.4376,0.552739 0.39266,1.466846 -0.0757,1.989923"
       id="path103" /><path
       style="fill:none;stroke:#808080;stroke-width:0.799999;stroke-linecap:round;stroke-linejoin:round;stroke-dasharray:none;stroke-opacity:1"
       d="m 118.41296,82.227964 c -1.74297,-0.520139 -3.46572,0.795434 -3.75483,2.502309 -0.38783,1.761365 -0.19848,3.993482 1.71775,4.76164 1.08028,0.492637 2.46388,0.880019 3.58606,0.348843"
       id="path104" /><path
       style="fill:none;stroke:#808080;stroke-width:0.799999;stroke-linecap:round;stroke-linejoin:round;stroke-dasharray:none;stroke-opacity:1"
       d="m 114.02757,82.47237 c 0.838,-1.25729 4.35598,-1.85243 2.09534,-3.40574 -1.98523,-1.734908 -4.05301,2.185734 -2.09534,3.40574 z"
       id="path105" /><path
       style="fill:none;stroke:#808080;stroke-width:0.799999;stroke-linecap:round;stroke-linejoin:round;stroke-dasharray:none;stroke-opacity:1"
       d="m 113.85658,89.062276 c 1.03758,0.750394 2.59862,2.020316 2.82295,3.075022 -1.48821,1.481185 -4.46204,0.516039 -3.88876,-1.812268 0.0918,-0.556609 0.42102,-1.241813 1.06581,-1.262754 z"
       id="path106" /></g></svg>
