<?xml version="1.0" encoding="UTF-8" standalone="no"?>
<!-- Created with Inkscape (http://www.inkscape.org/) -->

<svg
   id="svg5"
   version="1.1"
   viewBox="0 0 85 85"
   height="85mm"
   width="85mm"
   inkscape:version="1.2.2 (b0a8486541, 2022-12-01)"
   sodipodi:docname="2023-05-27-Opustena_magova_vez_-1.svg"
   inkscape:export-filename="2023-05-27-Opustena_magova_vez_-1.png"
   inkscape:export-xdpi="300"
   inkscape:export-ydpi="300"
   xmlns:inkscape="http://www.inkscape.org/namespaces/inkscape"
   xmlns:sodipodi="http://sodipodi.sourceforge.net/DTD/sodipodi-0.dtd"
   xmlns="http://www.w3.org/2000/svg"
   xmlns:svg="http://www.w3.org/2000/svg"
   xmlns:rdf="http://www.w3.org/1999/02/22-rdf-syntax-ns#"
   xmlns:cc="http://creativecommons.org/ns#">
  <sodipodi:namedview
     id="namedview7"
     pagecolor="#ffffff"
     bordercolor="#666666"
     borderopacity="1.0"
     inkscape:showpageshadow="2"
     inkscape:pageopacity="0.0"
     inkscape:pagecheckerboard="0"
     inkscape:deskcolor="#d1d1d1"
     inkscape:document-units="mm"
     showgrid="true"
     showguides="false"
     inkscape:zoom="2"
     inkscape:cx="215"
     inkscape:cy="173"
     inkscape:window-width="1920"
     inkscape:window-height="1151"
     inkscape:window-x="0"
     inkscape:window-y="27"
     inkscape:window-maximized="1"
     inkscape:current-layer="layer2">
    <inkscape:grid
       type="xygrid"
       id="grid261"
       visible="true"
       units="mm"
       spacingx="5"
       spacingy="5"
       dotted="true"
       originx="-20.687423"
       originy="-21.642162" />
  </sodipodi:namedview>
  <defs
     id="defs2" />
  <g
     inkscape:groupmode="layer"
     id="layer3"
     inkscape:label="mrizka">
    <path
       style="fill:none;stroke:#cccccc;stroke-width:0.102805;stroke-dasharray:none"
       d="M 0.49554606,4.8103377 C 14.518354,5.1909006 28.586344,4.8397177 42.577514,4.8012378 53.420203,4.9971662 63.560696,4.4807576 73.011547,4.9177834 c 3.947487,-0.06211 7.143982,0.07928 10.823272,0.1162357"
       id="path1008"
       sodipodi:nodetypes="cccc" />
    <path
       style="fill:none;stroke:#cccccc;stroke-width:0.102805;stroke-dasharray:none"
       d="M 0.30920567,14.615004 C 19.827902,14.562374 39.31222,14.739548 58.904797,14.74334 c 8.420729,-0.04854 16.76954,0.06369 25.264378,-0.140804"
       id="path1010"
       sodipodi:nodetypes="ccc" />
    <path
       style="fill:none;stroke:#cccccc;stroke-width:0.102805;stroke-dasharray:none"
       d="M 0.45057567,9.9786041 C 16.830538,10.013064 33.215769,10.23885 49.591428,9.8769204 62.239754,10.431891 73.045283,9.3896728 84.34652,9.6343371"
       id="path1012"
       sodipodi:nodetypes="ccc" />
    <path
       style="fill:none;stroke:#cccccc;stroke-width:0.102805;stroke-dasharray:none"
       d="M 0.74705508,19.969915 C 12.952388,19.766995 25.166501,20.102003 37.367052,19.726255 c 17.004381,0.03029 34.07131,-0.08513 47.462412,0.02617"
       id="path1014"
       sodipodi:nodetypes="ccc" />
    <path
       style="fill:none;stroke:#cccccc;stroke-width:0.102805;stroke-dasharray:none"
       d="m 0.55161702,24.773353 c 10.54136598,0.100864 21.07468398,-0.44976 31.51670498,-0.0013 8.334547,0.03493 16.414753,-0.121637 24.737152,-0.05719 10.032815,0.03534 18.398697,-0.410593 27.438233,-0.217286"
       id="path1016"
       sodipodi:nodetypes="cccc" />
    <path
       style="fill:none;stroke:#cccccc;stroke-width:0.102805;stroke-dasharray:none"
       d="M 0.37091507,29.43427 C 10.912282,29.535133 21.445602,28.984508 31.887621,29.43297 c 8.334548,0.03493 16.414754,-0.121638 24.737153,-0.05719 10.032815,0.03534 18.398691,-0.410595 27.438238,-0.217287"
       id="path1016-7"
       sodipodi:nodetypes="cccc" />
    <path
       style="fill:none;stroke:#cccccc;stroke-width:0.102805;stroke-dasharray:none"
       d="m 0.61531541,34.155863 c 14.02280759,0.380563 28.09079659,0.02938 42.08196859,-0.0091 10.842688,0.195928 20.98318,-0.320479 30.43404,0.116545 3.947475,-0.06211 7.143982,0.07928 10.823261,0.116235"
       id="path1008-3"
       sodipodi:nodetypes="cccc" />
    <path
       style="fill:none;stroke:#cccccc;stroke-width:0.102805;stroke-dasharray:none"
       d="M 0.69392122,39.214135 C 20.212617,39.161495 39.696935,39.338678 59.289512,39.34247 67.71024,39.29393 76.059054,39.40616 84.553891,39.201667"
       id="path1010-6"
       sodipodi:nodetypes="ccc" />
    <path
       style="fill:none;stroke:#cccccc;stroke-width:0.102805;stroke-dasharray:none"
       d="M 0.74141664,44.031291 C 17.12138,44.065751 33.50661,44.291537 49.882269,43.929608 62.530595,44.484577 73.336127,43.44236 84.637365,43.687025"
       id="path1012-7"
       sodipodi:nodetypes="ccc" />
    <path
       style="fill:none;stroke:#cccccc;stroke-width:0.102805;stroke-dasharray:none"
       d="M 0.80811656,49.3368 C 13.013451,49.13388 25.22756,49.46889 37.428114,49.093141 c 17.004382,0.03029 34.071313,-0.08513 47.462417,0.02617"
       id="path1014-5"
       sodipodi:nodetypes="ccc" />
    <path
       style="fill:none;stroke:#cccccc;stroke-width:0.102805;stroke-dasharray:none"
       d="m 0.60487126,54.611305 c 10.54136574,0.100864 21.07468474,-0.44976 31.51670374,-0.0013 8.334549,0.03493 16.414754,-0.121637 24.737154,-0.05719 10.032813,0.03534 18.398688,-0.410594 27.438245,-0.217286"
       id="path1016-3"
       sodipodi:nodetypes="cccc" />
    <path
       style="fill:none;stroke:#cccccc;stroke-width:0.102805;stroke-dasharray:none"
       d="m 0.66339105,59.505582 c 14.02280695,0.380564 28.09079495,0.02938 42.08196695,-0.0091 10.842689,0.195929 20.983181,-0.320479 30.434033,0.116546 3.947486,-0.06211 7.143981,0.07928 10.823272,0.116235"
       id="path1008-5"
       sodipodi:nodetypes="cccc" />
    <path
       style="fill:none;stroke:#cccccc;stroke-width:0.102805;stroke-dasharray:none"
       d="M 0.61056473,64.667716 C 20.12926,64.615086 39.613579,64.79226 59.206156,64.796052 c 8.420728,-0.04854 16.769541,0.06369 25.264379,-0.140804"
       id="path1010-62"
       sodipodi:nodetypes="ccc" />
    <path
       style="fill:none;stroke:#cccccc;stroke-width:0.102805;stroke-dasharray:none"
       d="M 0.60239083,70.014125 C 16.982352,70.048585 33.367584,70.274371 49.743244,69.912442 62.391568,70.467413 73.197095,69.425193 84.498331,69.669859"
       id="path1012-9"
       sodipodi:nodetypes="ccc" />
    <path
       style="fill:none;stroke:#cccccc;stroke-width:0.102805;stroke-dasharray:none"
       d="M 0.31661975,74.88201 C 12.521954,74.679091 24.736063,75.014099 36.936615,74.638351 c 17.004384,0.03029 34.071309,-0.08513 47.462411,0.02617"
       id="path1014-1"
       sodipodi:nodetypes="ccc" />
    <path
       style="fill:none;stroke:#cccccc;stroke-width:0.102805;stroke-dasharray:none"
       d="M 0.41372731,79.806782 C 10.955093,79.907645 21.488412,79.357021 31.930431,79.805482 c 8.334549,0.03493 16.414754,-0.121638 24.737153,-0.05719 10.032814,0.03534 18.398695,-0.410595 27.438231,-0.217288"
       id="path1016-2"
       sodipodi:nodetypes="cccc" />
    <path
       style="fill:none;stroke:#cccccc;stroke-width:0.103069;stroke-dasharray:none"
       d="M 4.7794578,84.523556 C 5.1600206,70.428555 4.8088367,56.28814 4.7703568,42.22494 4.9662852,31.326432 4.4498769,21.133732 4.8869025,11.634224 4.8247927,7.6664154 4.9661822,4.4534641 5.0031381,0.75523156"
       id="path1008-0"
       sodipodi:nodetypes="cccc" />
    <path
       style="fill:none;stroke:#cccccc;stroke-width:0.103069;stroke-dasharray:none"
       d="m 14.584121,84.710855 c -0.05263,-19.619183 0.124543,-39.20381 0.128335,-58.897254 -0.04854,-8.46408 0.06369,-16.8558755 -0.140803,-25.39444684"
       id="path1010-9"
       sodipodi:nodetypes="ccc" />
    <path
       style="fill:none;stroke:#cccccc;stroke-width:0.103069;stroke-dasharray:none"
       d="M 9.7963092,84.568757 C 9.8307692,68.104467 10.056555,51.634881 9.6946255,35.174917 10.249596,22.461474 9.2073782,11.600315 9.4520423,0.24089589"
       id="path1012-3"
       sodipodi:nodetypes="ccc" />
    <path
       style="fill:none;stroke:#cccccc;stroke-width:0.103069;stroke-dasharray:none"
       d="M 19.93903,84.270752 C 19.736109,72.002583 20.071119,59.72559 19.69537,47.462227 19.72566,30.370302 19.61024,13.21551 19.72154,-0.2445339"
       id="path1014-6"
       sodipodi:nodetypes="ccc" />
    <path
       style="fill:none;stroke:#cccccc;stroke-width:0.103069;stroke-dasharray:none"
       d="M 24.742467,84.467196 C 24.843331,73.871561 24.292707,63.284015 24.741167,52.788237 24.776097,44.410781 24.619529,36.288976 24.683977,27.923731 24.719317,17.839265 24.273384,9.4303224 24.466691,0.34423894"
       id="path1016-0"
       sodipodi:nodetypes="cccc" />
    <path
       style="fill:none;stroke:#cccccc;stroke-width:0.103069;stroke-dasharray:none"
       d="m 29.403381,84.648828 c 0.100864,-10.595636 -0.44976,-21.183183 -0.0013,-31.678961 0.03493,-8.377455 -0.121637,-16.49926 -0.05719,-24.864504 C 29.380232,18.020896 28.934298,9.6119486 29.127606,0.5258648"
       id="path1016-7-6"
       sodipodi:nodetypes="cccc" />
    <path
       style="fill:none;stroke:#cccccc;stroke-width:0.103069;stroke-dasharray:none"
       d="m 34.124974,84.40317 c 0.380563,-14.095 0.02938,-28.235414 -0.0091,-42.298615 C 34.311802,31.206045 33.795395,21.013348 34.23242,11.513831 34.17031,7.5460327 34.3117,4.3330706 34.348654,0.63484876"
       id="path1008-3-2"
       sodipodi:nodetypes="cccc" />
    <path
       style="fill:none;stroke:#cccccc;stroke-width:0.103069;stroke-dasharray:none"
       d="M 39.183244,84.32416 C 39.130604,64.704976 39.307788,45.120349 39.31158,25.426905 39.26304,16.962825 39.37527,8.5710285 39.170776,0.03245694"
       id="path1010-6-6"
       sodipodi:nodetypes="ccc" />
    <path
       style="fill:none;stroke:#cccccc;stroke-width:0.103069;stroke-dasharray:none"
       d="M 44.27794,84.513592 C 44.3124,68.049302 44.538185,51.579716 44.176257,35.119751 44.731226,22.406309 43.689009,11.545157 43.933674,0.18572718"
       id="path1012-7-1"
       sodipodi:nodetypes="ccc" />
    <path
       style="fill:none;stroke:#cccccc;stroke-width:0.103069;stroke-dasharray:none"
       d="m 49.305907,84.209376 c -0.202919,-12.26817 0.13209,-24.545161 -0.243659,-36.808525 0.03029,-17.091925 -0.08513,-34.24672 0.02617,-47.70676609"
       id="path1014-5-8"
       sodipodi:nodetypes="ccc" />
    <path
       style="fill:none;stroke:#cccccc;stroke-width:0.103069;stroke-dasharray:none"
       d="m 54.580411,84.413668 c 0.100863,-10.595635 -0.44976,-21.183181 -0.0013,-31.67896 0.03493,-8.377456 -0.121638,-16.49926 -0.05719,-24.864506 C 54.557261,17.785738 54.111328,9.3767918 54.304635,0.29069773"
       id="path1016-3-7"
       sodipodi:nodetypes="cccc" />
    <path
       style="fill:none;stroke:#cccccc;stroke-width:0.103069;stroke-dasharray:none"
       d="m 59.559688,84.354846 c 0.380565,-14.094998 0.02938,-28.235413 -0.0091,-42.298614 0.195929,-10.898509 -0.32048,-21.091207 0.116546,-30.590715 -0.06211,-3.9678094 0.07928,-7.1807609 0.116235,-10.87899344"
       id="path1008-5-9"
       sodipodi:nodetypes="cccc" />
    <path
       style="fill:none;stroke:#cccccc;stroke-width:0.103069;stroke-dasharray:none"
       d="M 64.63682,84.407945 C 64.58419,64.788763 64.761364,45.204135 64.765156,25.510691 64.716616,17.046611 64.828846,8.6548141 64.624352,0.11624257"
       id="path1010-62-2"
       sodipodi:nodetypes="ccc" />
    <path
       style="fill:none;stroke:#cccccc;stroke-width:0.103069;stroke-dasharray:none"
       d="M 69.826885,84.394145 C 69.861345,67.929855 70.08713,51.460268 69.725201,35.000303 70.280164,22.286863 69.237952,11.425701 69.482618,0.06628139"
       id="path1012-9-0"
       sodipodi:nodetypes="ccc" />
    <path
       style="fill:none;stroke:#cccccc;stroke-width:0.103069;stroke-dasharray:none"
       d="m 74.85111,84.703403 c -0.202919,-12.268168 0.132089,-24.545159 -0.243659,-36.808524 0.0303,-17.091925 -0.0851,-34.246715 0.0262,-47.70675946"
       id="path1014-1-2"
       sodipodi:nodetypes="ccc" />
    <path
       style="fill:none;stroke:#cccccc;stroke-width:0.103069;stroke-dasharray:none"
       d="m 79.775875,84.605796 c 0.100869,-10.595635 -0.449758,-21.183181 -0.001,-31.678959 0.0349,-8.377457 -0.12163,-16.499261 -0.0572,-24.864505 0.0353,-10.084466 -0.410588,-18.4934185 -0.217279,-27.57949139"
       id="path1016-2-3"
       sodipodi:nodetypes="cccc" />
  </g>
  <g
     inkscape:label="pudorys"
     inkscape:groupmode="layer"
     id="layer1"
     transform="translate(-20.687426,-21.642164)"
     style="stroke-width:0.365;stroke-dasharray:none">
    <path
       style="fill:none;fill-rule:evenodd;stroke:#000000;stroke-width:0.365;stroke-linecap:butt;stroke-linejoin:miter;stroke-dasharray:none;stroke-opacity:1"
       d="m 25.589239,26.549854 c 0.301857,2.871772 0.01274,5.746544 0.06266,8.634239 -0.08322,4.765182 -0.59983,9.527747 0.07146,14.272219 0.06372,6.979699 0.02985,13.962281 -0.113238,20.95384 -0.498741,4.269163 0.567154,8.604981 -0.334108,12.862626 0.03747,5.94171 1.2269,11.931451 0.37585,17.863602 0.71857,1.24071 3.432108,-0.78241 4.865441,0.12529 3.781588,0.58414 7.566946,0.17578 11.275875,-0.54327 3.198893,-0.57897 6.262184,0.49044 9.449227,0.2927 4.580407,0.29461 9.182256,-0.27055 13.750603,0.32365 6.622401,0.10136 13.267634,0.44942 19.868952,-0.35498 5.172498,0.6328 10.408731,0.47538 15.609079,0.71001 0.46822,-2.149491 -0.676686,-5.460374 -0.36545,-8.101782 -0.0564,-3.496816 0.40723,-6.948194 0.34243,-10.415295 0.74402,-3.039481 -0.757355,-5.95535 -0.0919,-8.99349 0.72779,-3.927355 0.0202,-7.932202 0.21797,-11.887391 -1.007233,-3.715973 0.25378,-7.423013 0.15407,-11.114024 0.0976,-3.623195 -0.0799,-7.323963 -0.0378,-10.98223 -0.11091,-3.451864 -0.29434,-6.99785 -0.11492,-10.482208 -0.31093,-2.351627 0.86281,-4.493946 -2.714618,-3.549746 -4.638994,0.125408 -9.279758,0.312938 -13.917663,0.27144 -4.658985,0.709505 -9.387896,-0.208013 -14.074269,0.261006 -4.199237,0.297242 -8.341199,-0.38883 -12.539674,-0.212339 -3.769399,-0.273111 -7.530254,-0.175618 -11.286317,0.04532 -4.298749,-0.442567 -8.621922,0.01053 -12.925782,-0.4176 -2.507443,0.142483 -5.020417,0.957938 -7.527876,0.43841 z"
       id="path688" />
    <path
       style="fill:none;fill-rule:evenodd;stroke:#000000;stroke-width:0.365;stroke-linecap:butt;stroke-linejoin:miter;stroke-dasharray:none;stroke-opacity:1"
       d="m 45.48153,56.241206 c 1.788296,0.0016 1.664983,0.115227 3.044192,0.10909 3.078316,0.18826 6.219942,-0.139385 9.375886,-0.375859 4.469993,-0.05502 8.726345,0.488145 13.168066,0.341128 2.744306,0.233352 5.46823,-0.144673 8.216954,0.12529 2.683248,-0.480657 0.238875,4.930067 1.378199,6.796722 0.07513,2.695028 -0.533848,5.410361 0.261863,7.73135 2.44695,0.324831 5.028037,-0.226016 7.517414,-0.250563 1.964833,-1.011657 6.843678,2.384164 6.870088,-0.386297 -0.204611,-3.282309 0.08165,-5.974361 0.06178,-9.266089 0.493354,-2.284875 0.443548,-4.736624 -0.167058,-6.995102 -0.429208,-5.544367 0.309699,-11.07881 0.459358,-16.621185 -0.198283,-2.07581 -4.110253,-0.745841 -5.648498,-1.200651 -1.973824,-0.745775 -4.199387,0.498635 -6.254066,0.428062 -2.896453,-0.889524 -4.029248,-0.117042 -3.226224,2.704073 -0.344688,2.497464 -0.07608,5.091033 -0.03134,7.631971 -0.469071,1.515836 1.589783,5.254662 -1.284229,4.760828 -2.682952,0.243352 -4.679099,-0.412542 -7.402567,-0.146176 -1.939963,-0.632518 -5.10075,0.245378 -6.421128,-0.615983 0.855001,-3.078745 -0.05093,-6.888691 0.135733,-9.605225 -0.265051,-2.432972 1.021171,-4.964775 0.354978,-7.496239 1.401418,-3.86158 -2.505147,-2.112991 -4.761025,-2.578788 -2.940619,-0.280291 -5.867955,0.04429 -8.770318,0.375849 -3.085646,-0.832405 -6.44319,-0.1009 -9.661913,-0.206123 -3.351571,0.564567 -6.648863,-0.195046 -9.987776,0.112181 -3.807817,-0.649361 -1.293719,4.562821 -2.244786,6.838491 0.01184,3.753194 0.0028,7.470074 0.177489,11.223477 -0.129533,3.979153 0.292353,7.831846 -0.116975,11.795435 1.273002,-0.180832 4.649783,0.08589 5.387272,-0.143307 -0.274936,-4.341393 -0.287866,-9.022434 -0.624101,-13.353904 -0.127133,-3.039054 3.836034,-0.997173 5.638058,-1.399005 4.932715,-0.539202 9.900875,-0.736796 14.846897,-0.438486 1.993961,0.394973 6.081224,-0.569027 4.907197,2.756259 1.495627,4.131789 -2.647589,2.05759 -5.034572,2.362958 -4.988049,-0.411643 -5.273337,0.357762 -10.271333,-0.117917"
       id="path690"
       sodipodi:nodetypes="ccccccccccccccccccccccccccccccccccc" />
    <path
       style="fill:none;fill-rule:evenodd;stroke:#000000;stroke-width:0.365;stroke-linecap:butt;stroke-linejoin:miter;stroke-dasharray:none;stroke-opacity:1"
       d="m 40.968027,86.469279 c -1.614453,-0.922093 -6.223824,2.123201 -5.325168,-2.147516 0.831245,-3.950357 -0.28579,-8.898226 -0.130821,-13.001592 -0.695731,-0.09005 -2.581753,0.354803 -5.253417,0.158621 -0.162055,2.290074 -0.17396,9.148557 0.268555,12.912848 0.409024,1.786035 -1.130442,6.963814 0.939692,7.08907 2.882756,-0.204746 7.131107,-0.258482 9.459413,0.365405 -0.0077,2.332619 -1.589974,5.956313 2.273338,4.824172 3.156598,0.371552 6.307433,-0.291274 9.451638,0.170171 1.984432,-0.625792 7.977355,1.27587 7.987361,-1.204467 -0.49888,-2.819583 0.267459,-5.699509 0.02087,-8.488082 -0.294104,-3.131841 0.135649,-6.302637 -0.08352,-9.417277 -0.835893,-2.745797 -6.229352,-0.08959 -8.718114,-1.002277 -3.238757,-0.264428 -6.45312,-0.18163 -9.689866,0.104405 -3.137313,-0.835451 -0.620767,2.945233 -1.085096,4.520705 0.111884,1.801909 -0.872513,3.3705 -0.114858,5.115814 z"
       id="path708"
       sodipodi:nodetypes="csccccscccsccsssc" />
    <path
       style="fill:none;fill-rule:evenodd;stroke:#000000;stroke-width:0.365;stroke-linecap:butt;stroke-linejoin:miter;stroke-dasharray:none;stroke-opacity:1"
       d="m 25.745265,61.61059 c 2.210249,0.440778 4.39725,-0.497899 6.609055,0.03132 2.094452,-0.11989 3.770348,-0.229787 5.794678,-0.34451 0.242122,-0.334784 4.97165,-0.08494 6.525537,0.240136 4.926048,-0.003 9.826994,-0.443916 14.752932,-0.05222"
       id="path806"
       sodipodi:nodetypes="ccscsccsccccccscscccccsccccccccssccscccscscccsccsccscsccscscscccccccscccssscc" />
    <path
       style="fill:none;fill-rule:evenodd;stroke:#000000;stroke-width:0.365;stroke-linecap:butt;stroke-linejoin:miter;stroke-dasharray:none;stroke-opacity:1"
       d="m 100.21177,91.561193 c -1.844928,-0.119306 -4.261684,0.60807 -5.732047,-0.689057 -1.985666,-1.357072 -2.820352,-3.718008 -4.781899,-5.011404 -2.073461,-1.362804 -2.863897,-3.701649 -4.750588,-5.230664 -2.04639,-2.297529 -4.238275,-4.435144 -6.619513,-6.35823 -1.370834,-1.300793 -2.431061,-2.702688 -3.748256,-3.894287 -1.253838,-1.394947 -2.601503,-2.664117 -4.103248,-3.779463 -1.930054,-2.142376 -4.49315,-3.82987 -7.245969,-4.760841 -1.349292,-0.07389 -2.853274,-0.46225 -4.113698,-0.20883"
       id="path808" />
    <path
       style="fill:none;fill-rule:evenodd;stroke:#000000;stroke-width:0.365;stroke-linecap:butt;stroke-linejoin:miter;stroke-dasharray:none;stroke-opacity:1"
       d="m 25.705815,71.379817 c 2.418769,-0.571509 5.047598,0.472544 7.569622,-0.03131 3.186982,-0.154187 6.359982,0.119504 9.542944,0.07309 3.284987,-0.394831 6.641075,0.203415 9.877054,-0.28195 3.487672,0.177357 4.950009,-0.409975 7.163908,0.25858 2.86614,1.365323 5.073769,4.110558 6.983454,6.642513 1.315046,1.775631 3.02034,2.923872 4.37472,4.719097 1.937136,1.761355 4.337185,3.171758 5.356153,5.69003 1.508959,1.364471 3.296747,2.450188 4.84456,3.758567 2.820148,2.243999 4.470256,5.710473 7.538311,7.694583 1.479729,1.480163 3.779283,0.742143 5.512777,1.639133"
       id="path810"
       sodipodi:nodetypes="ccccccccccc" />
    <path
       style="fill:none;fill-rule:evenodd;stroke:#000000;stroke-width:0.365;stroke-linecap:butt;stroke-linejoin:miter;stroke-dasharray:none;stroke-opacity:1"
       d="m 25.807044,61.531787 c -2.605228,-0.622261 -3.832766,2.897501 -3.36197,4.948777 0.292222,1.855014 1.768674,3.231209 2.777279,4.719062 l 0.25058,0.146166 0.01044,-0.05221"
       id="path812" />
    <path
       style="fill:none;fill-rule:evenodd;stroke:#000000;stroke-width:0.365;stroke-linecap:butt;stroke-linejoin:miter;stroke-dasharray:none;stroke-opacity:1"
       d="m 24.117779,69.615533 c 0.355391,0.155599 1.256593,0.616291 1.57442,0.571386"
       id="path814"
       sodipodi:nodetypes="cc" />
    <path
       style="fill:none;fill-rule:evenodd;stroke:#000000;stroke-width:0.365;stroke-linecap:butt;stroke-linejoin:miter;stroke-dasharray:none;stroke-opacity:1"
       d="m 23.024143,67.874898 c 0.497427,0.657386 2.002871,0.69508 2.626292,0.82947"
       id="path816"
       sodipodi:nodetypes="cc" />
    <path
       style="fill:none;fill-rule:evenodd;stroke:#000000;stroke-width:0.365;stroke-linecap:butt;stroke-linejoin:miter;stroke-dasharray:none;stroke-opacity:1"
       d="m 22.411008,66.223408 c 0.924678,0.325595 2.568262,0.884498 3.343829,1.008862"
       id="path818"
       sodipodi:nodetypes="cc" />
    <path
       style="fill:none;fill-rule:evenodd;stroke:#000000;stroke-width:0.365;stroke-linecap:butt;stroke-linejoin:miter;stroke-dasharray:none;stroke-opacity:1"
       d="m 22.486853,64.820526 c 1.131924,0.300149 2.186784,0.921777 3.361958,1.023161"
       id="path820" />
    <path
       style="fill:none;fill-rule:evenodd;stroke:#000000;stroke-width:0.365;stroke-linecap:butt;stroke-linejoin:miter;stroke-dasharray:none;stroke-opacity:1"
       d="m 22.896688,63.560917 c 0.899003,0.469903 2.015676,0.389413 2.899918,0.831554"
       id="path822"
       sodipodi:nodetypes="cc" />
    <path
       style="fill:none;fill-rule:evenodd;stroke:#000000;stroke-width:0.365;stroke-linecap:butt;stroke-linejoin:miter;stroke-dasharray:none;stroke-opacity:1"
       d="m 23.781517,62.095574 c 0.625998,0.214352 1.213245,0.494026 1.806269,0.78303"
       id="path824" />
    <path
       style="fill:none;fill-rule:evenodd;stroke:#000000;stroke-width:0.365;stroke-linecap:butt;stroke-linejoin:miter;stroke-dasharray:none;stroke-opacity:1"
       d="m 100.17531,93.480774 c 0.40851,-0.45295 1.10985,-1.230406 1.64964,-1.607821"
       id="path828" />
    <path
       style="fill:none;fill-rule:evenodd;stroke:#000000;stroke-width:0.365;stroke-linecap:butt;stroke-linejoin:miter;stroke-dasharray:none;stroke-opacity:1"
       d="m 100.09178,95.255652 c 0.8915,-0.659385 2.21216,-2.450888 2.82945,-2.7354"
       id="path830" />
    <path
       style="fill:none;fill-rule:evenodd;stroke:#000000;stroke-width:0.365;stroke-linecap:butt;stroke-linejoin:miter;stroke-dasharray:none;stroke-opacity:1"
       d="m 100.19409,96.874384 c 1.33751,-0.858633 3.03819,-2.544196 4.0114,-3.633745"
       id="path832"
       sodipodi:nodetypes="cc" />
    <path
       style="fill:none;fill-rule:evenodd;stroke:#000000;stroke-width:0.365;stroke-linecap:butt;stroke-linejoin:miter;stroke-dasharray:none;stroke-opacity:1"
       d="m 100.22751,98.721879 c 1.45184,-1.227864 3.42756,-2.954094 4.38512,-4.197083"
       id="path834" />
    <path
       style="fill:none;fill-rule:evenodd;stroke:#000000;stroke-width:0.365;stroke-linecap:butt;stroke-linejoin:miter;stroke-dasharray:none;stroke-opacity:1"
       d="m 100.51985,99.912091 c 1.20271,-1.223686 3.30806,-2.766064 4.08249,-3.904734"
       id="path836" />
    <path
       style="fill:none;fill-rule:evenodd;stroke:#000000;stroke-width:0.365;stroke-linecap:butt;stroke-linejoin:miter;stroke-dasharray:none;stroke-opacity:1"
       d="m 100.71823,100.79953 c 1.2051,-0.69045 2.35904,-1.551449 3.20537,-2.610113"
       id="path838" />
    <path
       style="fill:none;fill-rule:evenodd;stroke:#000000;stroke-width:0.365;stroke-linecap:butt;stroke-linejoin:miter;stroke-dasharray:none;stroke-opacity:1"
       d="m 100.21885,91.687185 c 2.16349,0.02783 4.7668,1.267746 4.62411,3.788459 -0.19135,2.560545 -2.08478,5.277476 -4.38441,6.217556"
       id="path826"
       sodipodi:nodetypes="ccc" />
    <path
       style="fill:none;fill-rule:evenodd;stroke:#000000;stroke-width:0.365;stroke-linecap:butt;stroke-linejoin:miter;stroke-dasharray:none;stroke-opacity:1"
       d="m 34.453853,72.132286 c -1.446384,-0.864402 -2.053854,1.178019 -0.321482,0.867317 0.619533,0.04865 1.155572,-0.955675 0.321482,-0.867317 z"
       id="path842" />
    <path
       style="fill:none;fill-rule:evenodd;stroke:#000000;stroke-width:0.365;stroke-linecap:butt;stroke-linejoin:miter;stroke-dasharray:none;stroke-opacity:1"
       d="m 34.702549,66.859252 c -1.58159,0.814801 0.480585,1.107576 0,0 z"
       id="path844" />
    <path
       style="fill:none;fill-rule:evenodd;stroke:#000000;stroke-width:0.365;stroke-linecap:butt;stroke-linejoin:miter;stroke-dasharray:none;stroke-opacity:1"
       d="m 34.920238,72.274351 c -0.567884,-1.795279 -0.91294,-3.724636 -1.330447,-5.517966 0.405452,0.02683 0.259499,0.621118 0.590491,0.748989"
       id="path846"
       sodipodi:nodetypes="csscscsccssssscccscsssccsscsscccscscscccsccsccsc" />
    <path
       style="fill:none;fill-rule:evenodd;stroke:#000000;stroke-width:0.365;stroke-linecap:butt;stroke-linejoin:miter;stroke-dasharray:none;stroke-opacity:1"
       d="m 34.771459,66.940466 c -1.592161,-1.410778 -1.384865,-3.852732 -1.925963,-5.776852 0.771344,-1.249674 -1.399521,-1.564831 -1.514729,-0.418604 0.09306,2.679839 1.048614,5.310135 1.12584,8.026023 0.578236,1.162278 0.277353,2.575364 0.651932,3.671183"
       id="path848"
       sodipodi:nodetypes="ccssssssscsccscscscccssssssscsscsccccscsccscssssscccccccccccccccsssscssscsscccsccscssssssscccccsccscssssssscscsccccssccccc" />
    <path
       id="path1485"
       style="fill:#ffffff;fill-opacity:1;fill-rule:evenodd;stroke:none;stroke-width:0.365;stroke-dasharray:none"
       d="m 31.658205,61.050775 c -0.532929,0.845523 1.485202,4.494684 0.879857,7.003269 0.378939,1.673965 0.472945,3.135443 0.64373,3.471153 0.521884,0.34052 0.858792,0.02156 1.337454,0.126146 -0.292392,-1.71202 -3.043395,-6.514929 -0.45473,-5.034528 -1.543581,-1.431893 -1.011682,-4.080144 -1.372856,-5.758161 -0.446635,-0.01247 -0.704126,-0.0761 -1.033455,0.192121 z"
       sodipodi:nodetypes="ccccccc" />
    <path
       style="fill:none;fill-rule:evenodd;stroke:#000000;stroke-width:0.365;stroke-linecap:butt;stroke-linejoin:miter;stroke-dasharray:none;stroke-opacity:1"
       d="m 83.472203,88.051141 c -2.404338,-0.821203 -1.188262,3.455942 0.57584,1.579839 0.374483,-0.602988 -0.155747,-1.16014 -0.57584,-1.579839 z"
       id="path1518" />
  </g>
  <g
     inkscape:groupmode="layer"
     id="layer6"
     inkscape:label="popisky"
     transform="translate(-20.687426,-21.642164)"
     style="display:inline">
    <path
       style="fill:none;fill-rule:evenodd;stroke:#808080;stroke-width:0.265;stroke-linecap:butt;stroke-linejoin:miter;stroke-dasharray:none;stroke-dashoffset:0;stroke-opacity:1"
       d="m 49.706133,86.442911 c 1.698012,-1.668644 0.732654,0.184317 0.751731,0.866554"
       id="path728-3" />
    <path
       style="fill:none;fill-rule:evenodd;stroke:#808080;stroke-width:0.265;stroke-linecap:butt;stroke-linejoin:miter;stroke-dasharray:none;stroke-dashoffset:0;stroke-opacity:1"
       d="m 51.293143,85.377987 c -1.382248,-1.383956 -3.623587,1.131916 -2.11949,2.349098 1.589923,1.124628 3.930148,-1.035486 2.119504,-2.349094 z"
       id="path730-6" />
    <path
       style="fill:none;fill-rule:evenodd;stroke:#808080;stroke-width:0.265;stroke-linecap:butt;stroke-linejoin:miter;stroke-dasharray:none;stroke-dashoffset:0;stroke-opacity:1"
       d="m 37.021422,67.199255 c 1.425306,-1.008439 0.52461,0.919319 0.595123,0.803914 1.379207,1.068669 -0.734233,1.471549 -1.158945,0.448944"
       id="path732-3" />
    <path
       style="fill:none;fill-rule:evenodd;stroke:#808080;stroke-width:0.265;stroke-linecap:butt;stroke-linejoin:miter;stroke-dasharray:none;stroke-dashoffset:0;stroke-opacity:1"
       d="m 38.11771,66.249178 c -2.440463,-1.316993 -3.634821,3.522152 -1.252891,3.789871 1.659067,0.218893 2.867136,-2.123487 1.691438,-3.278289 l -0.08353,-0.177485 -0.354988,-0.334095 z"
       id="path734-5" />
    <path
       style="fill:#ffffff;fill-opacity:1;fill-rule:evenodd;stroke:#808080;stroke-width:0.265;stroke-linecap:butt;stroke-linejoin:miter;stroke-dasharray:none;stroke-dashoffset:0;stroke-opacity:1"
       d="m 87.753483,88.424174 c -1.953336,-1.983746 -4.610887,2.451355 -1.90025,2.933758 1.466155,0.246177 2.704036,-1.725462 1.90025,-2.933758 z"
       id="path1296-7" />
    <path
       style="fill:none;fill-rule:evenodd;stroke:#808080;stroke-width:0.265;stroke-linecap:butt;stroke-linejoin:miter;stroke-dasharray:none;stroke-dashoffset:0;stroke-opacity:1"
       d="m 85.707073,89.342932 c 1.483399,-1.490673 1.236251,1.082188 0.01044,1.127562 0.06327,-0.105008 1.564972,0.275913 1.096296,1e-5"
       id="path1294-5" />
    <path
       style="fill:none;fill-rule:evenodd;stroke:#808080;stroke-width:0.265;stroke-linecap:butt;stroke-linejoin:miter;stroke-dasharray:none;stroke-dashoffset:0;stroke-opacity:1"
       d="m 88.030916,52.607125 c -0.921468,1.047076 -1.083572,1.746694 0.302791,1.49299"
       id="path1298-6" />
    <path
       style="fill:none;fill-rule:evenodd;stroke:#808080;stroke-width:0.265;stroke-linecap:butt;stroke-linejoin:miter;stroke-dasharray:none;stroke-dashoffset:0;stroke-opacity:1"
       d="m 88.020473,53.243993 c -0.185283,0.386798 -0.193765,1.162164 -0.417638,1.419899"
       id="path1300-2" />
    <path
       style="fill:none;fill-rule:evenodd;stroke:#808080;stroke-width:0.265;stroke-linecap:butt;stroke-linejoin:miter;stroke-dasharray:none;stroke-dashoffset:0;stroke-opacity:1"
       d="m 88.406791,52.241709 c -2.528948,-0.946965 -2.609582,4.195183 0.146179,2.50572 0.99122,-0.496956 0.71548,-2.021076 -0.146179,-2.50572 z"
       id="path1302-9" />
  </g>
  <g
     inkscape:groupmode="layer"
     id="layer2"
     inkscape:label="dekorace"
     transform="translate(3.6756005,2.2633842)">
    <path
       style="fill:none;fill-rule:evenodd;stroke:#818181;stroke-width:0.265;stroke-linecap:butt;stroke-linejoin:miter;stroke-dasharray:none;stroke-opacity:1"
       d="m 76.062228,65.623329 c 1.494129,-0.332917 1.645061,-0.218902 1.250006,2.186494"
       id="path1636"
       sodipodi:nodetypes="cc" />
    <path
       style="fill:none;fill-rule:evenodd;stroke:#818181;stroke-width:0.265;stroke-linecap:butt;stroke-linejoin:miter;stroke-dasharray:none;stroke-opacity:1"
       d="m 76.176271,63.037602 c 1.788169,-0.797937 1.352029,0.650447 1.216761,1.933329 0.0416,0.160586 -0.207684,0.365149 -0.180304,0.527736"
       id="path1638"
       sodipodi:nodetypes="ccc" />
    <path
       style="fill:none;fill-rule:evenodd;stroke:#818181;stroke-width:0.265;stroke-linecap:butt;stroke-linejoin:miter;stroke-dasharray:none;stroke-opacity:1"
       d="m 76.124458,60.585912 c 2.287036,-0.377796 0.979115,0.95575 1.315567,2.411721"
       id="path1640" />
    <path
       style="fill:none;fill-rule:evenodd;stroke:#818181;stroke-width:0.265;stroke-linecap:butt;stroke-linejoin:miter;stroke-dasharray:none;stroke-opacity:1"
       d="m 77.434789,64.208746 c 1.856037,-0.619727 1.071912,1.368364 1.226777,2.490076 -0.21101,0.06152 -1.156263,0.03942 -1.305107,-0.06782"
       id="path1642" />
    <path
       style="fill:none;fill-rule:evenodd;stroke:#818181;stroke-width:0.265;stroke-linecap:butt;stroke-linejoin:miter;stroke-dasharray:none;stroke-opacity:1"
       d="m 78.755557,66.698795 c 0.205015,1.052755 -0.172719,1.112432 0.173856,1.751835"
       id="path1644"
       sodipodi:nodetypes="cc" />
    <path
       style="fill:none;fill-rule:evenodd;stroke:#818181;stroke-width:0.265;stroke-linecap:butt;stroke-linejoin:miter;stroke-dasharray:none;stroke-opacity:1"
       d="m 78.724233,64.292272 c 0.08892,-1.170242 0.410491,-2.764827 -1.258145,-2.30209 l -0.04698,-0.01045"
       id="path1646" />
    <path
       style="fill:none;fill-rule:evenodd;stroke:#818181;stroke-width:0.265;stroke-linecap:butt;stroke-linejoin:miter;stroke-dasharray:none;stroke-opacity:1"
       d="m 78.922607,63.02898 c 1.711256,-0.570465 0.822908,1.452508 0.986653,2.416937 -0.36134,-0.147746 -0.779546,0.02227 -1.164158,-0.0313"
       id="path1648" />
    <path
       style="fill:none;fill-rule:evenodd;stroke:#818181;stroke-width:0.265;stroke-linecap:butt;stroke-linejoin:miter;stroke-dasharray:none;stroke-opacity:1"
       d="m 79.982358,65.404179 c -0.161975,1.038489 0.876988,3.045625 -1.002454,2.265633 h -0.05221 v 0.01566"
       id="path1650" />
    <path
       style="fill:none;fill-rule:evenodd;stroke:#818181;stroke-width:0.265;stroke-linecap:butt;stroke-linejoin:miter;stroke-dasharray:none;stroke-opacity:1"
       d="m 78.729453,62.047577 c -0.461598,-1.322341 0.02423,-1.66554 1.252898,-1.4617 -0.01884,0.663855 0.02923,1.686452 0.01562,2.490044"
       id="path1652" />
    <path
       style="fill:none;fill-rule:evenodd;stroke:#818181;stroke-width:0.265;stroke-linecap:butt;stroke-linejoin:miter;stroke-dasharray:none;stroke-opacity:1"
       d="m 76.025964,34.19572 c 2.068692,-0.95457 1.624326,1.780853 1.550453,2.85545 -0.193898,-0.01673 -1.633757,0.167566 -1.305103,-0.03131"
       id="path1654" />
    <path
       style="fill:none;fill-rule:evenodd;stroke:#818181;stroke-width:0.265;stroke-linecap:butt;stroke-linejoin:miter;stroke-dasharray:none;stroke-opacity:1"
       d="m 77.790468,37.072061 c -0.480847,1.521911 1.076809,3.302963 -1.378177,2.385613"
       id="path1656" />
    <path
       style="fill:none;fill-rule:evenodd;stroke:#818181;stroke-width:0.265;stroke-linecap:butt;stroke-linejoin:miter;stroke-dasharray:none;stroke-opacity:1"
       d="m 77.738263,35.490334 c 2.123077,-0.58234 1.055834,1.69319 1.174625,2.907634 -0.150115,-0.06463 -1.042725,0.07618 -0.929232,-0.05742"
       id="path1658" />
    <path
       style="fill:none;fill-rule:evenodd;stroke:#818181;stroke-width:0.265;stroke-linecap:butt;stroke-linejoin:miter;stroke-dasharray:none;stroke-opacity:1"
       d="m 79.184322,36.9781 c 1.483864,-0.519682 1.004544,2.833464 0.57948,2.933718 -1.286824,0.0056 -0.638036,-0.626262 -0.830006,-1.586944"
       id="path1660" />
    <path
       style="fill:none;fill-rule:evenodd;stroke:#818181;stroke-width:0.265;stroke-linecap:butt;stroke-linejoin:miter;stroke-dasharray:none;stroke-opacity:1"
       d="M 58.861581,2.4975135 C 59.648764,0.29084247 57.701147,1.3860852 56.522822,1.1872388 56.423171,1.6317665 56.411308,2.2795821 56.387102,2.7898464"
       id="path1662" />
    <path
       style="fill:none;fill-rule:evenodd;stroke:#818181;stroke-width:0.265;stroke-linecap:butt;stroke-linejoin:miter;stroke-dasharray:none;stroke-opacity:1"
       d="m 56.434079,1.1245962 c -1.237523,0.506903 -3.415753,-0.87116803 -2.683262,1.5034234 0.11394,0.041846 -0.09868,0.2729833 0.06268,0.2662311"
       id="path1664" />
    <path
       style="fill:none;fill-rule:evenodd;stroke:#818181;stroke-width:0.265;stroke-linecap:butt;stroke-linejoin:miter;stroke-dasharray:none;stroke-opacity:1"
       d="m 53.630711,1.1506968 c -0.841048,0.634114 -3.035347,-0.80118373 -2.662436,0.772593 0.25509,0.2007637 -0.209264,0.976174 0.0261,0.9500799"
       id="path1666" />
    <path
       style="fill:none;fill-rule:evenodd;stroke:#818181;stroke-width:0.265;stroke-linecap:butt;stroke-linejoin:miter;stroke-dasharray:none;stroke-opacity:1"
       d="m 52.476998,1.2394411 c -1.171337,-2.3513687 1.291884,-1.08566263 2.568485,-1.34681903 0.732347,-0.2323648 0.367781,1.06167186 0.417568,1.33637693"
       id="path1668" />
    <path
       style="fill:none;fill-rule:evenodd;stroke:#818181;stroke-width:0.265;stroke-linecap:butt;stroke-linejoin:miter;stroke-dasharray:none;stroke-opacity:1"
       d="m 57.848817,1.0254119 c -0.654161,-1.96018573 1.675431,-1.45315923 2.824265,-1.26329483 0.386394,2.04826813 -0.53197,1.36013363 -2.025438,1.25807413"
       id="path1670" />
    <path
       style="fill:none;fill-rule:evenodd;stroke:#818181;stroke-width:0.265;stroke-linecap:butt;stroke-linejoin:miter;stroke-dasharray:none;stroke-opacity:1"
       d="m 19.175396,2.339289 c -0.634621,-2.02381353 0.526782,-1.53476973 1.96817,-1.399019 1.366745,-0.16579123 0.843006,0.6328893 0.861373,1.7331142"
       id="path1672" />
    <path
       style="fill:none;fill-rule:evenodd;stroke:#818181;stroke-width:0.265;stroke-linecap:butt;stroke-linejoin:miter;stroke-dasharray:none;stroke-opacity:1"
       d="m 20.532708,0.84108557 c -0.720375,-2.51748167 1.752766,-0.9412994 3.069621,-1.2476342 1.059917,-0.061295 0.194927,2.66232963 -1.200694,1.43034133 L 22.119732,1.008132 21.83783,0.98203011"
       id="path1674" />
    <path
       style="fill:none;fill-rule:evenodd;stroke:#818181;stroke-width:0.265;stroke-linecap:butt;stroke-linejoin:miter;stroke-dasharray:none;stroke-opacity:1"
       d="m 0.12039246,46.654407 c 0.0448156,0.925955 -1.03203647,3.228413 0.83402756,2.446176"
       id="path1676"
       sodipodi:nodetypes="cc" />
    <path
       style="fill:none;fill-rule:evenodd;stroke:#818181;stroke-width:0.265;stroke-linecap:butt;stroke-linejoin:miter;stroke-dasharray:none;stroke-opacity:1"
       d="m 0.24568494,49.227974 c -0.24177578,1.21854 -1.09708601,3.21093 0.72875422,2.353842"
       id="path1678"
       sodipodi:nodetypes="cc" />
    <path
       style="fill:none;fill-rule:evenodd;stroke:#818181;stroke-width:0.265;stroke-linecap:butt;stroke-linejoin:miter;stroke-dasharray:none;stroke-opacity:1"
       d="m -0.10930497,47.567944 c -2.16073293,-0.64874 -0.98282013,1.697753 -1.14849443,2.829347 0.3932939,-0.160659 0.88985049,-0.115629 1.20069872,-0.06262"
       id="path1680" />
    <path
       style="fill:none;fill-rule:evenodd;stroke:#818181;stroke-width:0.265;stroke-linecap:butt;stroke-linejoin:miter;stroke-dasharray:none;stroke-opacity:1"
       d="m -1.2839016,47.447879 c -0.2985452,-0.746295 0.07695,-2.192603 -0.046983,-2.902443"
       id="path1682" />
    <path
       style="fill:none;fill-rule:evenodd;stroke:#818181;stroke-width:0.265;stroke-linecap:butt;stroke-linejoin:miter;stroke-dasharray:none;stroke-opacity:1"
       d="m -1.5397034,45.725206 c -2.347146,-0.704807 -1.0164929,2.20501 -1.3625339,3.50799 0.2247215,0.27844 1.2186536,-0.07448 1.618334,0.06267"
       id="path1684" />
    <path
       style="fill:none;fill-rule:evenodd;stroke:#818181;stroke-width:0.265;stroke-linecap:butt;stroke-linejoin:miter;stroke-dasharray:none;stroke-opacity:1"
       d="m -1.1501607,50.380523 c -0.137542,1.23729 0.82708524,3.285879 -1.4042955,2.81895 -0.6663529,-0.751801 0.024708,-2.864794 -0.3288914,-3.847296"
       id="path1686" />
    <path
       style="fill:none;fill-rule:evenodd;stroke:#818181;stroke-width:0.265;stroke-linecap:butt;stroke-linejoin:miter;stroke-dasharray:none;stroke-opacity:1"
       d="m 1.5926189,73.581134 c -1.34091672,-1.99107 -2.3690152,-0.145651 -2.7198447,1.331154 -0.012701,1.852902 1.38699633,1.056357 2.5058068,0.991877"
       id="path1688" />
    <path
       style="fill:none;fill-rule:evenodd;stroke:#818181;stroke-width:0.265;stroke-linecap:butt;stroke-linejoin:miter;stroke-dasharray:none;stroke-opacity:1"
       d="m 1.2063078,76.300871 c -0.83720425,0.458776 -1.9004264,-0.451538 -2.531908,0.198411 -0.1658832,0.982438 0.1411344,2.858626 1.52436336,2.02545 C 0.5556761,78.244368 1.1735823,78.0753 1.3472553,77.736512"
       id="path1690" />
    <path
       style="fill:none;fill-rule:evenodd;stroke:#818181;stroke-width:0.265;stroke-linecap:butt;stroke-linejoin:miter;stroke-dasharray:none;stroke-opacity:1"
       d="m -0.4642293,79.229417 c 1.4660257,-0.515798 2.9529917,-1.846975 4.6096377,-1.341484 0.8130737,0.714857 -0.028559,2.82774 -1.2998931,2.202914 -1.2359296,0.157927 -3.3142301,1.223274 -3.3097446,-0.86143 z"
       id="path1692" />
    <path
       style="fill:none;fill-rule:evenodd;stroke:#818181;stroke-width:0.265;stroke-linecap:butt;stroke-linejoin:miter;stroke-dasharray:none;stroke-opacity:1"
       d="M 5.0015599,77.652908 C 4.6885315,79.07017 4.7180698,80.325909 6.3640924,79.156326 8.5331831,78.492422 5.7213208,77.816793 5.0015599,77.652908 Z"
       id="path1694" />
    <path
       style="fill:none;fill-rule:evenodd;stroke:#818181;stroke-width:0.265;stroke-linecap:butt;stroke-linejoin:miter;stroke-dasharray:none;stroke-opacity:1"
       d="m 1.2428509,72.620612 c -1.28645355,-0.363219 -2.3751617,-1.029248 -0.97099882,-2.187233 0.57386868,-1.154203 1.27108062,-0.773308 0.99709962,0.4907 -0.05782,0.548872 0.2519046,1.21846 -0.026101,1.696533 z"
       id="path1696" />
    <path
       style="fill:none;fill-rule:evenodd;stroke:#818181;stroke-width:0.265;stroke-linecap:butt;stroke-linejoin:miter;stroke-dasharray:none;stroke-opacity:1"
       d="M 1.2354923,80.817041 C 2.5090827,80.517572 3.8799166,80.497657 5.0725074,80.143671 5.6814563,81.79055 3.2386457,81.716979 2.1803909,81.600114 1.8105872,81.57579 1.1749616,81.20828 1.2354923,80.817041 Z"
       id="path1698" />
    <path
       style="fill:none;fill-rule:evenodd;stroke:#818181;stroke-width:0.265;stroke-linecap:butt;stroke-linejoin:miter;stroke-dasharray:none;stroke-opacity:1"
       d="m 38.759892,77.420111 c -0.874674,2.469757 1.85436,0.715724 3.10614,1.268524 0.456125,0.171055 0.146617,-1.270299 0.109591,-1.284195"
       id="path1700" />
    <path
       style="fill:none;fill-rule:evenodd;stroke:#818181;stroke-width:0.265;stroke-linecap:butt;stroke-linejoin:miter;stroke-dasharray:none;stroke-opacity:1"
       d="m 42.116626,78.761708 c 0.983094,-0.621344 3.403706,0.972281 2.610242,-1.117135 -0.03608,-0.03618 0.03349,-0.128061 -0.06787,-0.10962"
       id="path1702" />
    <path
       style="fill:none;fill-rule:evenodd;stroke:#818181;stroke-width:0.265;stroke-linecap:butt;stroke-linejoin:miter;stroke-dasharray:none;stroke-opacity:1"
       d="m 40.555717,78.740829 c -1.012127,2.600721 1.419387,1.582899 2.787686,1.466928 0.0187,-0.509054 -0.109228,-1.007326 -0.12526,-1.513859"
       id="path1704" />
    <path
       style="fill:none;fill-rule:evenodd;stroke:#818181;stroke-width:0.265;stroke-linecap:butt;stroke-linejoin:miter;stroke-dasharray:none;stroke-opacity:1"
       d="m 43.416511,80.145068 c 1.616688,0.64974 4.533969,0.04829 2.657205,-1.571258 -0.454885,0.09737 -1.301914,-0.05371 -1.623561,0.2349"
       id="path1706" />
    <path
       style="fill:none;fill-rule:evenodd;stroke:#7f7f7f;stroke-width:0.264583px;stroke-linecap:butt;stroke-linejoin:miter;stroke-opacity:1"
       d="m 25.326016,-1.6570616 c -0.187334,-0.071502 -0.387447,0.012998 -0.580754,-0.00229 -0.175335,-0.015854 -0.350051,-3.599e-4 -0.52501,-0.00979 -0.234712,-0.023959 0.01747,0.225493 0.0824,0.3010136 0.16663,0.091443 0.164562,0.37308878 0.359954,0.40139307 0.133901,-0.11256987 0.195795,-0.29679397 0.331102,-0.41400867 0.08676,-0.1212174 0.237068,-0.1651895 0.33231,-0.2763125 z"
       id="path3082" />
    <path
       style="fill:none;fill-rule:evenodd;stroke:#7f7f7f;stroke-width:0.264583px;stroke-linecap:butt;stroke-linejoin:miter;stroke-opacity:1"
       d="m 25.081069,-1.243268 c 0.163061,0.096094 0.317121,0.2114293 0.486639,0.29281455 0.175585,0.0800644 0.300526,0.2317109 0.433022,0.36499581 0.05018,0.0642966 0.16408,0.24607346 0.16862,0.24038975 -0.01091,0.0176983 0.144835,0.19563669 0.158831,0.28981503 0.0441,0.18226667 0.178337,0.31256729 0.258653,0.47753418 0.11247,0.1554762 0.214738,0.3202865 0.277653,0.502592 l 0.0047,0.021421 0.003,0.021242"
       id="path3084" />
    <path
       style="fill:none;fill-rule:evenodd;stroke:#7f7f7f;stroke-width:0.264583px;stroke-linecap:butt;stroke-linejoin:miter;stroke-opacity:1"
       d="m 25.859497,-1.5468538 c -0.152517,0.070521 -0.189635,0.2642972 -0.332803,0.3530796 -0.149351,0.1785407 -0.2647,0.38712371 -0.308344,0.61744019 0.0093,0.0384455 -0.09262,0.18411063 -0.05658,0.17479439"
       id="path3100" />
    <path
       style="fill:none;fill-rule:evenodd;stroke:#7f7f7f;stroke-width:0.264583px;stroke-linecap:butt;stroke-linejoin:miter;stroke-opacity:1"
       d="m 26.372195,-1.3535872 c -0.201289,0.08207 -0.290655,0.2947419 -0.41558,0.45611582 -0.0872,0.18110568 -0.225066,0.32835621 -0.314812,0.50802497 -0.09571,0.14117893 -0.131307,0.30655738 -0.164298,0.47068324 -0.0087,0.0316219 -0.01934,0.06281 -0.0331,0.0926301"
       id="path3102" />
    <path
       style="fill:none;fill-rule:evenodd;stroke:#7f7f7f;stroke-width:0.264583px;stroke-linecap:butt;stroke-linejoin:miter;stroke-opacity:1"
       d="m 26.806545,-0.80523716 c -0.337208,0.0951935 -0.497432,0.43087359 -0.719773,0.66928344 -0.126616,0.14256997 -0.193771,0.32844741 -0.291874,0.49167574 0.0095,0.00382 0.01925,0.0041 0.02933,0.00339"
       id="path3104" />
    <path
       style="fill:none;fill-rule:evenodd;stroke:#7f7f7f;stroke-width:0.264583px;stroke-linecap:butt;stroke-linejoin:miter;stroke-opacity:1"
       d="m 26.95733,-0.11884576 c -0.241142,0.12320572 -0.471784,0.27959284 -0.654628,0.48051718 -0.03349,0.0616 -0.127863,0.1271142 -0.108514,0.2038811"
       id="path3106" />
    <path
       style="fill:none;fill-rule:evenodd;stroke:#7f7f7f;stroke-width:0.264583px;stroke-linecap:butt;stroke-linejoin:miter;stroke-opacity:1"
       d="m 26.783375,0.45183162 c 0.170027,0.1167587 0.385781,0.1154634 0.569737,0.1984794 0.01317,-0.02319 0.148012,0.070894 0.128697,0.027493"
       id="path3108" />
    <path
       style="fill:none;fill-rule:evenodd;stroke:#7f7f7f;stroke-width:0.264583px;stroke-linecap:butt;stroke-linejoin:miter;stroke-opacity:1"
       d="m 26.652431,0.55555322 c -0.164434,0.151336 -0.178473,0.3829238 -0.183697,0.58931968 -0.01365,0.083683 -0.02335,0.1687051 -0.05108,0.2492788"
       id="path3110" />
  </g>
  <g
     inkscape:groupmode="layer"
     id="layer4"
     inkscape:label="schody"
     transform="translate(-20.687426,-21.642164)">
    <path
       style="fill:none;fill-rule:evenodd;stroke:#000000;stroke-width:0.240727px;stroke-linecap:butt;stroke-linejoin:miter;stroke-opacity:1"
       d="m 45.797737,51.752173 c 0.385622,-0.03844 0.876355,-0.08885 1.199449,-0.03099 -0.09724,0.768994 0.07442,1.546651 0.08765,2.320024 -0.130652,0.563986 0.05071,1.293393 -0.213014,1.764492 -0.48012,0.02045 -0.929097,-0.253146 -1.417806,-0.199528 -0.104582,-0.01414 0.128026,0.0858 0.1203,0"
       id="path692" />
    <path
       style="fill:none;fill-rule:evenodd;stroke:#000000;stroke-width:0.240727px;stroke-linecap:butt;stroke-linejoin:miter;stroke-opacity:1"
       d="m 47.954522,52.256239 c 0.275715,-0.07718 0.883032,-0.113864 0.988167,-0.189026 -0.07563,0.709811 0.239294,1.340378 0.100907,2.054589 0.01411,0.489763 0.172339,1.698283 -0.530548,1.232366 -0.07837,-0.0012 -0.773542,-0.04666 -0.610081,0.02099"
       id="path694" />
    <path
       style="fill:none;fill-rule:evenodd;stroke:#000000;stroke-width:0.240727px;stroke-linecap:butt;stroke-linejoin:miter;stroke-opacity:1"
       d="m 49.862114,52.623785 c 0.418274,-0.0093 1.252521,-0.561259 1.091157,0.360468 0.140253,0.615632 0.190352,1.26844 0.16339,1.918343 0.06162,0.828202 -0.752101,0.20235 -1.151427,0.346529 -0.167389,-0.01571 -0.136378,-0.04898 0.0086,-0.01051"
       id="path696" />
    <path
       style="fill:none;fill-rule:evenodd;stroke:#000000;stroke-width:0.240727px;stroke-linecap:butt;stroke-linejoin:miter;stroke-opacity:1"
       d="m 51.984531,52.865316 c 0.378738,0.147552 0.861793,-0.311511 1.117298,-0.122554 -0.02672,0.614391 0.0073,1.226626 0.04424,1.836766 0.04626,0.105514 0.112073,0.936326 -0.252857,0.48321 -0.197074,-0.06575 -0.789774,-0.352196 -0.83134,-0.139186"
       id="path698" />
    <path
       style="fill:none;fill-rule:evenodd;stroke:#000000;stroke-width:0.240727px;stroke-linecap:butt;stroke-linejoin:miter;stroke-opacity:1"
       d="m 54.046794,52.949331 c 0.250992,0.159421 0.666981,0.106321 0.808318,0.07994 0.0041,0.645153 -0.05363,1.288389 -0.08655,1.925818 0.103518,0.107961 -0.64008,-0.176004 -0.696018,-0.042"
       id="path700" />
    <path
       style="fill:none;fill-rule:evenodd;stroke:#000000;stroke-width:0.240727px;stroke-linecap:butt;stroke-linejoin:miter;stroke-opacity:1"
       d="m 55.954386,53.327378 c 0.302272,0.114477 0.806036,-0.319543 0.628391,0.337962 -0.02164,0.539729 0.10627,1.255805 -0.523452,1.213104 -0.137011,0.04138 -0.28453,0.08019 -0.422877,0.02412"
       id="path702" />
    <path
       style="fill:none;fill-rule:evenodd;stroke:#000000;stroke-width:0.240727px;stroke-linecap:butt;stroke-linejoin:miter;stroke-opacity:1"
       d="m 57.432343,53.516403 c 0.31081,0.15461 0.980654,-0.371093 0.775986,0.32584 -0.0094,0.469876 0.0061,0.675952 -0.406678,0.552929 -0.100671,0.0095 -0.447795,-0.04064 -0.42088,0.02433"
       id="path704" />
  </g>
  <metadata
     id="metadata393">
    <rdf:RDF>
      <cc:Work
         rdf:about="">
        <cc:license
           rdf:resource="http://creativecommons.org/licenses/by/4.0/" />
      </cc:Work>
      <cc:License
         rdf:about="http://creativecommons.org/licenses/by/4.0/">
        <cc:permits
           rdf:resource="http://creativecommons.org/ns#Reproduction" />
        <cc:permits
           rdf:resource="http://creativecommons.org/ns#Distribution" />
        <cc:requires
           rdf:resource="http://creativecommons.org/ns#Notice" />
        <cc:requires
           rdf:resource="http://creativecommons.org/ns#Attribution" />
        <cc:permits
           rdf:resource="http://creativecommons.org/ns#DerivativeWorks" />
      </cc:License>
    </rdf:RDF>
  </metadata>
</svg>
