<?xml version="1.0" encoding="UTF-8" standalone="no"?>
<!-- Created with Inkscape (http://www.inkscape.org/) -->

<svg
   id="svg5"
   version="1.1"
   viewBox="0 0 55 55"
   height="55mm"
   width="55mm"
   inkscape:version="1.2.2 (b0a8486541, 2022-12-01)"
   sodipodi:docname="2023-05-27-Opustena_magova_vez_3.svg"
   inkscape:export-filename="2023-05-27-Opustena_magova_vez_3.png"
   inkscape:export-xdpi="300"
   inkscape:export-ydpi="300"
   xmlns:inkscape="http://www.inkscape.org/namespaces/inkscape"
   xmlns:sodipodi="http://sodipodi.sourceforge.net/DTD/sodipodi-0.dtd"
   xmlns="http://www.w3.org/2000/svg"
   xmlns:svg="http://www.w3.org/2000/svg"
   xmlns:rdf="http://www.w3.org/1999/02/22-rdf-syntax-ns#"
   xmlns:cc="http://creativecommons.org/ns#">
  <sodipodi:namedview
     id="namedview7"
     pagecolor="#ffffff"
     bordercolor="#666666"
     borderopacity="1.0"
     inkscape:showpageshadow="2"
     inkscape:pageopacity="0.0"
     inkscape:pagecheckerboard="0"
     inkscape:deskcolor="#d1d1d1"
     inkscape:document-units="mm"
     showgrid="true"
     showguides="true"
     inkscape:zoom="4.7146345"
     inkscape:cx="98.416962"
     inkscape:cy="99.265384"
     inkscape:window-width="1920"
     inkscape:window-height="1151"
     inkscape:window-x="0"
     inkscape:window-y="27"
     inkscape:window-maximized="1"
     inkscape:current-layer="layer3">
    <inkscape:grid
       type="xygrid"
       id="grid261"
       visible="true"
       units="mm"
       spacingx="5"
       spacingy="5"
       dotted="true"
       originx="-24.363046"
       originy="-23.905543" />
  </sodipodi:namedview>
  <defs
     id="defs2" />
  <g
     inkscape:groupmode="layer"
     id="layer2"
     inkscape:label="mrizka"
     style="display:inline"
     sodipodi:insensitive="true">
    <path
       style="display:inline;fill:none;stroke:#cccccc;stroke-width:0.0964239;stroke-dasharray:none"
       d="m 0.2640423,30.140759 c 6.9235723,0.100863 13.8418587,-0.449766 20.7001797,-0.0013 5.474132,0.03493 10.781214,-0.121639 16.247367,-0.05719 6.589555,0.03534 12.084265,-0.410598 18.021443,-0.217289"
       id="path1016-7"
       sodipodi:nodetypes="cccc" />
    <path
       style="display:inline;fill:none;stroke:#cccccc;stroke-width:0.0964239;stroke-dasharray:none"
       d="m 0.78636907,34.927166 c 9.21018273,0.380566 18.45004093,0.02938 27.63944693,-0.0091 7.121479,0.19593 13.781756,-0.320481 19.989083,0.116546 2.5927,-0.06211 4.69217,0.07928 7.108722,0.116236"
       id="path1008-3"
       sodipodi:nodetypes="cccc" />
    <path
       style="display:inline;fill:none;stroke:#cccccc;stroke-width:0.0964239;stroke-dasharray:none"
       d="M 0.28922372,39.961441 C 13.109108,39.908801 25.906412,40.085985 38.774821,40.089777 c 5.530736,-0.04854 11.01424,0.06369 16.593647,-0.140804"
       id="path1010-6"
       sodipodi:nodetypes="ccc" />
    <path
       style="display:inline;fill:none;stroke:#cccccc;stroke-width:0.0964239;stroke-dasharray:none"
       d="M 0.45441067,45.177191 C 11.212774,45.211651 21.974596,45.437439 32.730133,45.075508 c 8.307423,0.554973 15.404499,-0.487251 22.827156,-0.242585"
       id="path1012-7"
       sodipodi:nodetypes="ccc" />
    <path
       style="display:inline;fill:none;stroke:#cccccc;stroke-width:0.0964239;stroke-dasharray:none"
       d="M 0.60330765,50.187504 C 8.6197736,49.984583 16.642003,50.319595 24.655329,49.943843 c 11.168483,0.03029 22.378047,-0.08513 31.173331,0.02617"
       id="path1014-5"
       sodipodi:nodetypes="ccc" />
    <path
       style="display:inline;fill:none;stroke:#cccccc;stroke-width:0.103069;stroke-dasharray:none"
       d="M 5.2933095,54.21274 C 4.9657672,45.299645 5.2680227,36.357832 5.3011416,27.464844 5.1325107,20.573079 5.5769718,14.127636 5.2008339,8.1205402 5.2542906,5.6114617 5.1325993,3.5797242 5.1007921,1.2411152"
       id="path1008-0"
       sodipodi:nodetypes="cccc" />
    <path
       style="display:inline;fill:none;stroke:#cccccc;stroke-width:0.096843;stroke-dasharray:none"
       d="M 15.412806,54.279046 C 15.360016,41.675673 15.537734,29.094498 15.541538,16.443419 15.492848,11.006089 15.605428,5.6151957 15.400299,0.130013"
       id="path1010-9"
       sodipodi:nodetypes="ccc" />
    <path
       style="display:inline;fill:none;stroke:#cccccc;stroke-width:0.0966354;stroke-dasharray:none"
       d="M 10.572795,54.29373 C 10.607255,43.729656 10.833041,33.162182 10.471112,22.600882 11.026082,14.443484 9.983863,7.4745764 10.228528,0.18596782"
       id="path1012-3"
       sodipodi:nodetypes="ccc" />
    <path
       style="display:inline;fill:none;stroke:#cccccc;stroke-width:0.0966354;stroke-dasharray:none"
       d="M 20.643086,54.381704 C 20.440164,46.510008 20.775175,38.632651 20.399425,30.764039 20.429715,19.797251 20.314295,8.7901241 20.425595,0.1536799"
       id="path1014-6"
       sodipodi:nodetypes="ccc" />
    <path
       style="display:inline;fill:none;stroke:#cccccc;stroke-width:0.0966354;stroke-dasharray:none"
       d="M 25.704181,54.260131 C 25.805045,47.461595 25.25442,40.668247 25.702881,33.933782 25.737811,28.558507 25.581243,23.347268 25.645691,17.979828 25.681031,11.509275 25.235097,6.1137972 25.428404,0.28384216"
       id="path1016-0"
       sodipodi:nodetypes="cccc" />
    <path
       style="display:inline;fill:none;stroke:#cccccc;stroke-width:0.0966354;stroke-dasharray:none"
       d="M 30.74282,54.158143 C 30.843684,47.359607 30.293059,40.566259 30.74152,33.831794 30.77645,28.45652 30.619883,23.24528 30.68433,17.877841 30.71967,11.407288 30.273736,6.0118069 30.467044,0.18185126"
       id="path1016-7-6"
       sodipodi:nodetypes="cccc" />
    <path
       style="display:inline;fill:none;stroke:#cccccc;stroke-width:0.0966354;stroke-dasharray:none"
       d="m 35.550569,54.304382 c 0.380563,-9.043858 0.02938,-18.116852 -0.0091,-27.140304 0.195928,-6.992872 -0.32048,-13.532869 0.116546,-19.6280991 -0.06211,-2.5458806 0.07928,-4.6074315 0.116234,-6.98034273"
       id="path1008-3-2"
       sodipodi:nodetypes="cccc" />
    <path
       style="display:inline;fill:none;stroke:#cccccc;stroke-width:0.0966354;stroke-dasharray:none"
       d="M 40.606181,54.32877 C 40.553541,41.740399 40.730725,29.174204 40.734517,16.538187 40.685977,11.107332 40.798207,5.7228565 40.593713,0.24420407"
       id="path1010-6-6"
       sodipodi:nodetypes="ccc" />
    <path
       style="display:inline;fill:none;stroke:#cccccc;stroke-width:0.0966354;stroke-dasharray:none"
       d="M 45.843271,54.273938 C 45.877731,43.70986 46.103516,33.142386 45.741587,22.581086 46.296557,14.423688 45.254339,7.4547856 45.499004,0.16617069"
       id="path1012-7-1"
       sodipodi:nodetypes="ccc" />
    <path
       style="display:inline;fill:none;stroke:#cccccc;stroke-width:0.0966354;stroke-dasharray:none"
       d="m 50.874921,53.949252 c -0.202919,-7.871694 0.13209,-15.74905 -0.243659,-23.617661 0.03029,-10.966789 -0.08513,-21.9739175 0.02617,-30.61036311"
       id="path1014-5-8"
       sodipodi:nodetypes="ccc" />
    <path
       style="display:inline;fill:none;stroke:#cccccc;stroke-width:0.0904051;stroke-dasharray:none"
       d="M 0.25133456,4.8324214 C 9.4615257,5.1669608 18.701394,4.8582484 27.890807,4.8244214 35.012294,4.9966549 41.672578,4.5426988 47.879906,4.926872 50.472619,4.872273 52.572077,4.996565 54.988639,5.029051"
       id="path1008"
       sodipodi:nodetypes="cccc" />
    <path
       style="display:inline;fill:none;stroke:#cccccc;stroke-width:0.0904051;stroke-dasharray:none"
       d="M 0.36610955,14.881947 C 13.186007,14.835687 25.983322,14.99143 38.851745,14.994763 c 5.530741,-0.04267 11.014247,0.05599 16.593666,-0.123776"
       id="path1010"
       sodipodi:nodetypes="ccc" />
    <path
       style="display:inline;fill:none;stroke:#cccccc;stroke-width:0.0964239;stroke-dasharray:none"
       d="M 0.21412883,10.056089 C 10.972491,10.090549 21.734315,10.316337 32.489852,9.9544039 40.797275,10.509379 47.894349,9.4671541 55.317001,9.7118201"
       id="path1012"
       sodipodi:nodetypes="ccc" />
    <path
       style="display:inline;fill:none;stroke:#cccccc;stroke-width:0.0964239;stroke-dasharray:none"
       d="M 0.18669517,20.083702 C 8.2031602,19.88078 16.225392,20.215791 24.238717,19.84004 c 11.168481,0.03029 22.378044,-0.08513 31.173325,0.02617"
       id="path1014"
       sodipodi:nodetypes="ccc" />
    <path
       style="display:inline;fill:none;stroke:#cccccc;stroke-width:0.0964239;stroke-dasharray:none"
       d="m 0.30056049,25.123457 c 6.92357181,0.100865 13.84185651,-0.449763 20.70017851,-0.0013 5.474133,0.03493 10.781214,-0.121638 16.247367,-0.05719 6.589555,0.03534 12.084272,-0.410595 18.021436,-0.217286"
       id="path1016"
       sodipodi:nodetypes="cccc" />
  </g>
  <g
     inkscape:label="pudorys"
     inkscape:groupmode="layer"
     id="layer1"
     transform="translate(-24.363027,-23.905548)"
     style="display:inline"
     sodipodi:insensitive="true">
    <path
       style="fill:none;fill-rule:evenodd;stroke:#000000;stroke-width:0.365;stroke-linecap:butt;stroke-linejoin:miter;stroke-dasharray:none;stroke-opacity:1"
       d="m 29.55451,28.643496 c -0.485436,1.959581 0.179579,3.941585 -0.144128,5.90784 -0.260992,1.900069 0.0064,3.847348 8e-6,5.755047 -0.04646,1.828141 -0.295101,2.958128 -0.144124,4.420695 0.307722,2.18089 0.487102,3.666468 0.545585,5.805982 -0.126369,2.417046 0.04876,4.898242 -0.236763,7.333869 0.157932,2.48131 -0.04152,4.964296 0.06177,7.456102 -0.145982,2.192377 -0.269019,4.401312 -0.298534,6.620855 0.148309,1.110311 0.01611,2.238697 1.410273,1.527882 1.577071,1.053 3.314236,-0.13306 4.961733,0.427805 1.380608,-0.19156 2.730632,-0.617298 4.199969,-0.203706 2.527396,0.137082 5.061355,0.16471 7.586715,0.04074 2.002807,0.359856 3.971199,0.01255 6.001431,0.264828 1.925761,-0.158377 3.836475,-0.36944 5.764667,-0.26484 1.825555,-0.274122 3.594464,0.398579 5.424962,0.03055 2.334527,0.0888 4.205798,-0.178427 6.948486,-0.397259 1.554989,-0.522124 3.873558,1.502296 3.509168,-0.73367 -0.55852,-2.476443 0.649688,-4.955805 -0.101839,-7.415085 -0.0311,-1.914512 -0.12981,-3.40974 -0.216178,-5.367984 -0.07591,-2.785158 0.490765,-5.610473 -0.154421,-8.372837 0.406046,-2.230649 0.238354,-4.460601 0.226476,-6.692154 0.31321,-1.861664 0.172645,-3.629173 -0.07206,-5.072591 -0.03421,-2.010524 0.681173,-3.973645 0.401467,-5.999514 -0.303631,-1.688536 0.31487,-3.65187 -0.34998,-5.154079 -2.767575,-0.313009 -5.595088,0.02985 -8.348476,-0.509292 -2.117789,0.175665 -4.259879,0.158918 -6.350961,0.490055 -3.445486,0.699224 -6.916587,-0.171115 -10.376872,-0.225241 -2.170916,0.713715 -4.448332,-0.128396 -6.670542,0.213912 -3.114441,0.07465 -6.226436,0.105028 -9.337034,0.08347 -1.404361,0.170266 -2.850126,0.106426 -4.240798,0.02862 z"
       id="path504"
       sodipodi:nodetypes="cccccccccccccccccccccccccccccc" />
    <path
       style="fill:#ffffff;stroke:#000000;stroke-width:0.365;stroke-dasharray:none;stroke-opacity:1"
       d="m 60.081339,63.987237 c 1.380041,0.106265 2.778961,0.142543 4.075857,-0.377632 1.339342,0.216207 2.666215,0.898209 4.043657,0.429526 1.325507,-0.713751 2.170122,0.526464 1.704455,1.756729 -0.32472,1.182905 0.772321,3.802031 -1.207088,3.288158 -2.906386,0.438655 -5.820281,0.02018 -8.738655,0.08938"
       id="path998" />
  </g>
  <g
     inkscape:groupmode="layer"
     id="layer4"
     inkscape:label="schody"
     transform="translate(-24.363027,-23.905548)"
     style="display:inline"
     sodipodi:insensitive="true">
    <path
       style="fill:#ffffff;stroke:#000000;stroke-width:0.265;stroke-dasharray:none;stroke-opacity:1"
       d="m 61.033406,64.742024 c 0.508533,-0.114314 1.050071,-0.297939 1.555432,-0.07685 0.375826,0.671082 0.06066,1.572189 0.370273,2.308124 0.390727,0.483062 0.154047,1.437437 -0.582036,1.260656 -0.48165,0.138968 -1.027926,0.115645 -1.483657,0.241746 -0.04525,-0.05816 0.138264,-0.03721 0.117838,-0.05719"
       id="path1619" />
    <path
       style="fill:#ffffff;stroke:#000000;stroke-width:0.265;stroke-dasharray:none;stroke-opacity:1"
       d="m 63.735511,65.022559 c 0.441651,0.02029 1.084716,0.0093 1.395224,0.06664 -0.01027,0.526366 0.03895,1.046193 0.126344,1.562538 -0.157763,0.479118 0.415925,1.208094 -0.05285,1.487472 -0.331704,-0.07871 -0.673981,-0.187205 -1.018402,-0.141503"
       id="path1621" />
    <path
       style="fill:#ffffff;stroke:#000000;stroke-width:0.265;stroke-dasharray:none;stroke-opacity:1"
       d="m 65.918031,65.19743 c 0.575608,-0.04916 1.071521,-0.406867 1.317804,0.343942 0.279543,0.449838 1.137438,0.858312 0.801319,1.446606 -0.463923,0.02512 -0.761162,0.450966 -1.162375,0.581859"
       id="path1623" />
    <path
       style="fill:#ffffff;stroke:#000000;stroke-width:0.265;stroke-dasharray:none;stroke-opacity:1"
       d="m 67.216069,64.773538 c 0.305704,-0.613681 0.589371,-0.726225 1.255668,-0.817665 0.348119,0.278769 1.155494,0.133113 0.675512,0.705743 -0.120508,0.232993 -0.146604,0.529534 -0.287681,0.750291"
       id="path1625"
       sodipodi:nodetypes="cccc" />
  </g>
  <g
     inkscape:groupmode="layer"
     id="layer3"
     inkscape:label="nabytek">
    <path
       style="fill:none;stroke:#000000;stroke-width:0.264999"
       d="m 48.351429,7.1377056 c 0.409133,-0.8098121 0.915358,-1.4008637 1.284371,-1.4846154 0.369013,-0.083752 0.600814,0.3397967 0.4611,1.5591844 -0.306207,4.2181764 -0.552938,8.9768434 -0.529166,13.2023114 0.276094,5.231713 0.276241,7.710542 -0.817057,8.124037 m 1.056454,10.180685 c -1.009011,0.793109 -0.187413,3.910315 0.105231,6.679914 -2.046211,1.6337 -4.971325,0.162512 -7.431312,1.034327 -2.347192,-0.428045 -4.761858,0.09524 -7.143436,-0.103235 -2.895149,0.9399 -6.000969,0.334666 -8.965841,0.169019 -2.684448,-0.312556 -5.369445,-0.292213 -8.077181,-0.32984 -2.648551,-0.08461 -5.263427,0.220607 -7.917252,-0.03621 -2.6322921,-0.982049 -0.219929,-5.526756 -1.0205151,-7.90348 0.070337,-2.851329 0.1753134,-5.696842 0.075339,-8.559391 C 8.9639727,26.734745 9.9824933,23.766875 9.3902352,20.825337 9.4581505,19.634379 9.0930129,19.125012 8.3322593,18.645952 M 9.4412805,8.3838 C 8.1097998,4.2688927 12.310744,5.6771839 14.728025,5.6677359 c 2.71839,-0.6993957 5.413106,-0.080553 8.15431,0.092334 3.455847,0.4422289 6.977247,1.0616907 10.445409,0.2733667 3.158342,-0.669248 6.374191,-0.7067746 9.581465,-0.6604944 2.255203,-0.023497 4.793866,-0.9608885 6.878746,0.257343"
       id="path492"
       sodipodi:nodetypes="cscccccccccccccccccccc" />
    <path
       style="fill:none;stroke:#000000;stroke-width:0.264999"
       d="M 9.5958816,5.9801175 C 8.8012807,6.54944 8.3306796,7.5078728 7.5350951,8.0761426"
       id="path1111"
       sodipodi:nodetypes="cc" />
    <path
       style="fill:none;stroke:#000000;stroke-width:0.264999"
       d="M 9.37757,45.443401 C 8.8887839,46.263337 8.0313865,47.23878 7.5050183,48.031831"
       id="path1113"
       sodipodi:nodetypes="cc" />
    <path
       style="fill:none;stroke:#000000;stroke-width:0.264999"
       d="m 49.791598,45.494023 c -0.3407,0.706843 -0.857973,1.768973 -1.527353,2.207017"
       id="path1115"
       sodipodi:nodetypes="cc" />
    <path
       style="fill:none;stroke:#000000;stroke-width:0.264999"
       d="m 12.697662,48.021811 c 0.529515,-0.523565 0.868276,-1.22512 1.493636,-1.653961"
       id="path1117"
       sodipodi:nodetypes="cc" />
    <path
       style="fill:none;stroke:#000000;stroke-width:0.264999"
       d="m 17.830156,48.232313 c 0.623056,-0.612861 1.031601,-1.432547 1.764294,-1.93463"
       id="path1119"
       sodipodi:nodetypes="cc" />
    <path
       style="fill:none;stroke:#000000;stroke-width:0.264999"
       d="m 23.002745,47.931596 c 0.408243,-0.528859 0.872704,-1.010617 1.343272,-1.483553"
       id="path1121"
       sodipodi:nodetypes="cc" />
    <path
       style="fill:none;stroke:#000000;stroke-width:0.264999"
       d="m 27.824483,48.452846 c 0.358036,-0.622497 0.892332,-1.110631 1.373346,-1.633918"
       id="path1123"
       sodipodi:nodetypes="cc" />
    <path
       style="fill:none;stroke:#000000;stroke-width:0.264999"
       d="m 32.856736,48.182199 c 0.708124,-0.451231 1.124921,-1.235496 1.874562,-1.633916"
       id="path1125"
       sodipodi:nodetypes="cc" />
    <path
       style="fill:none;stroke:#000000;stroke-width:0.264999"
       d="m 37.969184,48.182199 c 0.704738,-0.535985 1.000498,-1.419291 1.674069,-1.984759"
       id="path1127"
       sodipodi:nodetypes="cc" />
    <path
       style="fill:none;stroke:#000000;stroke-width:0.264999"
       d="m 42.740796,48.202243 c 0.59392,-0.71648 1.469851,-1.131677 2.024925,-1.884515"
       id="path1129"
       sodipodi:nodetypes="cc" />
    <path
       style="fill:none;stroke:#000000;stroke-width:0.264999"
       d="m 48.234165,43.130094 c 0.388164,-0.443672 0.856524,-0.80779 1.233006,-1.263023"
       id="path1131"
       sodipodi:nodetypes="cc" />
    <path
       style="fill:none;stroke:#000000;stroke-width:0.264999"
       d="M 49.851373,36.851733 C 49.346998,36.350776 48.753946,35.910845 48.289254,35.373558"
       id="path1133"
       sodipodi:nodetypes="cc" />
    <path
       style="fill:none;stroke:#000000;stroke-width:0.264999"
       d="M 48.394127,34.59908 C 48.098726,34.308309 47.751389,34.052959 47.47923,33.7411"
       id="path1133-0"
       sodipodi:nodetypes="cc" />
    <path
       style="fill:none;stroke:#000000;stroke-width:0.264999"
       d="M 51.116514,30.98771 C 50.612139,30.486753 50.019087,30.046822 49.554395,29.509535"
       id="path1133-2"
       sodipodi:nodetypes="cc" />
    <path
       style="fill:none;stroke:#000000;stroke-width:0.264999"
       d="m 48.091014,33.632 c -0.02952,-0.568491 0.533938,-1.32976 0.557281,-1.720594"
       id="path1135"
       sodipodi:nodetypes="cc" />
    <path
       style="fill:none;stroke:#000000;stroke-width:0.264999"
       d="m 48.588537,37.862002 c -0.01663,-0.126157 0.30071,-0.295093 0.313856,-0.381825"
       id="path1135-3"
       sodipodi:nodetypes="cc" />
    <path
       style="fill:none;stroke:#000000;stroke-width:0.264999"
       d="m 48.314363,27.653027 c 0.714492,-0.48771 0.690711,-1.475593 1.333249,-2.02485"
       id="path1137"
       sodipodi:nodetypes="cc" />
    <path
       style="fill:none;stroke:#000000;stroke-width:0.264999"
       d="m 48.133923,22.75129 c 0.494405,-0.588269 1.008858,-1.164668 1.423452,-1.814346"
       id="path1139"
       sodipodi:nodetypes="cc" />
    <path
       style="fill:none;stroke:#000000;stroke-width:0.264999"
       d="m 48.304336,17.598949 c 0.545558,-0.412428 0.928113,-0.989477 1.433489,-1.443455"
       id="path1141"
       sodipodi:nodetypes="cc" />
    <path
       style="fill:none;stroke:#000000;stroke-width:0.264999"
       d="m 48.354461,12.677162 c 0.350515,-0.590944 0.995415,-0.953215 1.333251,-1.543699"
       id="path1143"
       sodipodi:nodetypes="cc" />
    <path
       style="fill:none;stroke:#000000;stroke-width:0.264999"
       d="M 43.081625,7.434605 C 43.627922,6.6892672 44.234197,5.9906563 44.785774,5.2493722"
       id="path1145"
       sodipodi:nodetypes="cc" />
    <path
       style="fill:none;stroke:#000000;stroke-width:0.264999"
       d="M 38.019302,7.2942703 C 38.32377,6.5042844 39.219937,6.176863 39.512943,5.3796845"
       id="path1147"
       sodipodi:nodetypes="cc" />
    <path
       style="fill:none;stroke:#000000;stroke-width:0.264999"
       d="M 33.077277,7.6050142 C 33.500903,7.0239439 33.935841,6.4512423 34.3604,5.8708601"
       id="path1149"
       sodipodi:nodetypes="cc" />
    <path
       style="fill:none;stroke:#000000;stroke-width:0.264999"
       d="m 28.335732,7.7954705 c 0.0763,-0.101789 0.915367,-1.7962402 0.852057,-1.1226887"
       id="path1151"
       sodipodi:nodetypes="cc" />
    <path
       style="fill:none;stroke:#000000;stroke-width:0.264999"
       d="M 22.9827,7.3443893 C 22.879028,6.6591826 23.776869,6.411961 23.965089,5.8508131"
       id="path1153"
       sodipodi:nodetypes="cc" />
    <path
       style="fill:none;stroke:#000000;stroke-width:0.264999"
       d="m 17.820129,7.2742207 c 0.435692,-0.7035671 1.171692,-1.155618 1.573835,-1.8845114"
       id="path1155"
       sodipodi:nodetypes="cc" />
    <path
       style="fill:none;stroke:#000000;stroke-width:0.264999"
       d="m 12.848026,7.3945109 c 0.450152,-0.5090818 0.972007,-0.997112 1.303173,-1.5938193"
       id="path1157"
       sodipodi:nodetypes="cc" />
    <path
       style="fill:none;stroke:#000000;stroke-width:0.264999"
       d="m 7.8885369,12.687184 c 0.175138,-0.06499 0.287908,0.127971 0.4889704,-0.01632"
       id="path1159"
       sodipodi:nodetypes="cc" />
    <path
       style="fill:none;stroke:#000000;stroke-width:0.264999"
       d="m 8.5583719,10.010891 c 0.2237011,0.307575 0.1570386,0.60925 0.47638,0.931599"
       id="path1159-3"
       sodipodi:nodetypes="cc" />
    <path
       style="fill:none;stroke:#000000;stroke-width:0.264999"
       d="M 7.5508615,18.217007 C 7.2753834,18.23424 7.1194684,18.012401 6.7968443,18.101311"
       id="path1159-3-7"
       sodipodi:nodetypes="cc" />
    <path
       style="fill:none;stroke:#000000;stroke-width:0.265"
       d="m 5.8938178,17.131227 c -0.017797,0.595937 -0.4832073,0.908179 -0.36891,1.613538"
       id="path1159-3-5"
       sodipodi:nodetypes="cc"
       inkscape:transform-center-x="-0.75040978"
       inkscape:transform-center-y="-0.73779911" />
    <path
       style="fill:none;stroke:#000000;stroke-width:0.264999"
       d="M 7.805752,17.548828 C 8.192453,17.385612 8.4303189,17.056676 8.7294017,16.785211 8.5671115,16.357094 8.2893899,16.128884 8.2893899,16.128884"
       id="path1161"
       sodipodi:nodetypes="ccc" />
    <path
       style="fill:none;stroke:#000000;stroke-width:0.264999"
       d="m 7.9160223,22.871578 c 0.5260708,-0.773886 0.8414857,-1.662974 1.333245,-2.45588"
       id="path1163"
       sodipodi:nodetypes="cc" />
    <path
       style="fill:none;stroke:#000000;stroke-width:0.264999"
       d="M 7.424825,27.90363 C 8.2422528,27.415059 8.5108837,26.346591 9.4297038,25.989045"
       id="path1165"
       sodipodi:nodetypes="cc" />
    <path
       style="fill:none;stroke:#000000;stroke-width:0.264999"
       d="M 7.6052661,32.795347 C 8.1253712,32.270681 8.7398877,31.853745 9.3495104,31.442104"
       id="path1167"
       sodipodi:nodetypes="cc" />
    <path
       style="fill:none;stroke:#000000;stroke-width:0.264999"
       d="M 7.8458511,37.857467 C 8.3647337,37.230731 8.8466966,36.56428 9.469803,36.033096"
       id="path1169"
       sodipodi:nodetypes="cc" />
    <path
       style="fill:none;stroke:#000000;stroke-width:0.264999"
       d="m 7.6954818,43.280454 c 0.765939,-0.326366 0.8109103,-1.384732 1.6440063,-1.623888"
       id="path1171"
       sodipodi:nodetypes="cc" />
    <path
       style="fill:none;stroke:#000000;stroke-width:0.264999"
       d="M 8.6679751,8.3262378 C 8.4496184,9.0496661 8.0166335,9.2538342 7.8527231,10.16199"
       id="path1159-6"
       sodipodi:nodetypes="cc" />
  </g>
  <metadata
     id="metadata393">
    <rdf:RDF>
      <cc:Work
         rdf:about="">
        <cc:license
           rdf:resource="http://creativecommons.org/licenses/by/4.0/" />
      </cc:Work>
      <cc:License
         rdf:about="http://creativecommons.org/licenses/by/4.0/">
        <cc:permits
           rdf:resource="http://creativecommons.org/ns#Reproduction" />
        <cc:permits
           rdf:resource="http://creativecommons.org/ns#Distribution" />
        <cc:requires
           rdf:resource="http://creativecommons.org/ns#Notice" />
        <cc:requires
           rdf:resource="http://creativecommons.org/ns#Attribution" />
        <cc:permits
           rdf:resource="http://creativecommons.org/ns#DerivativeWorks" />
      </cc:License>
    </rdf:RDF>
  </metadata>
</svg>
