<?xml version="1.0" encoding="UTF-8" standalone="no"?>
<!-- Created with Inkscape (http://www.inkscape.org/) -->

<svg
   id="svg5"
   version="1.1"
   viewBox="0 0 55 55"
   height="55mm"
   width="55mm"
   inkscape:version="1.2.2 (b0a8486541, 2022-12-01)"
   sodipodi:docname="2023-05-27-Opustena_magova_vez_2.svg"
   inkscape:export-filename="2023-05-27-Opustena_magova_vez_2.png"
   inkscape:export-xdpi="300"
   inkscape:export-ydpi="300"
   xmlns:inkscape="http://www.inkscape.org/namespaces/inkscape"
   xmlns:sodipodi="http://sodipodi.sourceforge.net/DTD/sodipodi-0.dtd"
   xmlns="http://www.w3.org/2000/svg"
   xmlns:svg="http://www.w3.org/2000/svg"
   xmlns:rdf="http://www.w3.org/1999/02/22-rdf-syntax-ns#"
   xmlns:cc="http://creativecommons.org/ns#">
  <sodipodi:namedview
     id="namedview7"
     pagecolor="#ffffff"
     bordercolor="#666666"
     borderopacity="1.0"
     inkscape:showpageshadow="2"
     inkscape:pageopacity="0.0"
     inkscape:pagecheckerboard="0"
     inkscape:deskcolor="#d1d1d1"
     inkscape:document-units="mm"
     showgrid="true"
     showguides="true"
     inkscape:zoom="4.7146345"
     inkscape:cx="95.65959"
     inkscape:cy="92.478007"
     inkscape:window-width="1920"
     inkscape:window-height="1151"
     inkscape:window-x="0"
     inkscape:window-y="27"
     inkscape:window-maximized="1"
     inkscape:current-layer="layer1">
    <inkscape:grid
       type="xygrid"
       id="grid261"
       visible="true"
       units="mm"
       spacingx="5"
       spacingy="5"
       dotted="true"
       originx="-24.363046"
       originy="-23.905543" />
  </sodipodi:namedview>
  <defs
     id="defs2" />
  <g
     inkscape:groupmode="layer"
     id="layer2"
     inkscape:label="mrizka"
     style="display:inline">
    <path
       style="display:inline;fill:none;stroke:#cccccc;stroke-width:0.0964239;stroke-dasharray:none"
       d="m 0.2640423,30.140759 c 6.9235723,0.100863 13.8418587,-0.449766 20.7001797,-0.0013 5.474132,0.03493 10.781214,-0.121639 16.247367,-0.05719 6.589555,0.03534 12.084265,-0.410598 18.021443,-0.217289"
       id="path1016-7"
       sodipodi:nodetypes="cccc" />
    <path
       style="display:inline;fill:none;stroke:#cccccc;stroke-width:0.0964239;stroke-dasharray:none"
       d="m 0.78636907,34.927166 c 9.21018273,0.380566 18.45004093,0.02938 27.63944693,-0.0091 7.121479,0.19593 13.781756,-0.320481 19.989083,0.116546 2.5927,-0.06211 4.69217,0.07928 7.108722,0.116236"
       id="path1008-3"
       sodipodi:nodetypes="cccc" />
    <path
       style="display:inline;fill:none;stroke:#cccccc;stroke-width:0.0964239;stroke-dasharray:none"
       d="M 0.28922372,39.961441 C 13.109108,39.908801 25.906412,40.085985 38.774821,40.089777 c 5.530736,-0.04854 11.01424,0.06369 16.593647,-0.140804"
       id="path1010-6"
       sodipodi:nodetypes="ccc" />
    <path
       style="display:inline;fill:none;stroke:#cccccc;stroke-width:0.0964239;stroke-dasharray:none"
       d="M 0.45441067,45.177191 C 11.212774,45.211651 21.974596,45.437439 32.730133,45.075508 c 8.307423,0.554973 15.404499,-0.487251 22.827156,-0.242585"
       id="path1012-7"
       sodipodi:nodetypes="ccc" />
    <path
       style="display:inline;fill:none;stroke:#cccccc;stroke-width:0.0964239;stroke-dasharray:none"
       d="M 0.60330765,50.187504 C 8.6197736,49.984583 16.642003,50.319595 24.655329,49.943843 c 11.168483,0.03029 22.378047,-0.08513 31.173331,0.02617"
       id="path1014-5"
       sodipodi:nodetypes="ccc" />
    <path
       style="display:inline;fill:none;stroke:#cccccc;stroke-width:0.103069;stroke-dasharray:none"
       d="M 5.2933095,54.21274 C 4.9657672,45.299645 5.2680227,36.357832 5.3011416,27.464844 5.1325107,20.573079 5.5769718,14.127636 5.2008339,8.1205402 5.2542906,5.6114617 5.1325993,3.5797242 5.1007921,1.2411152"
       id="path1008-0"
       sodipodi:nodetypes="cccc" />
    <path
       style="display:inline;fill:none;stroke:#cccccc;stroke-width:0.096843;stroke-dasharray:none"
       d="M 15.412806,54.279046 C 15.360016,41.675673 15.537734,29.094498 15.541538,16.443419 15.492848,11.006089 15.605428,5.6151957 15.400299,0.130013"
       id="path1010-9"
       sodipodi:nodetypes="ccc" />
    <path
       style="display:inline;fill:none;stroke:#cccccc;stroke-width:0.0966354;stroke-dasharray:none"
       d="M 10.572795,54.29373 C 10.607255,43.729656 10.833041,33.162182 10.471112,22.600882 11.026082,14.443484 9.983863,7.4745764 10.228528,0.18596782"
       id="path1012-3"
       sodipodi:nodetypes="ccc" />
    <path
       style="display:inline;fill:none;stroke:#cccccc;stroke-width:0.0966354;stroke-dasharray:none"
       d="M 20.643086,54.381704 C 20.440164,46.510008 20.775175,38.632651 20.399425,30.764039 20.429715,19.797251 20.314295,8.7901241 20.425595,0.1536799"
       id="path1014-6"
       sodipodi:nodetypes="ccc" />
    <path
       style="display:inline;fill:none;stroke:#cccccc;stroke-width:0.0966354;stroke-dasharray:none"
       d="M 25.704181,54.260131 C 25.805045,47.461595 25.25442,40.668247 25.702881,33.933782 25.737811,28.558507 25.581243,23.347268 25.645691,17.979828 25.681031,11.509275 25.235097,6.1137972 25.428404,0.28384216"
       id="path1016-0"
       sodipodi:nodetypes="cccc" />
    <path
       style="display:inline;fill:none;stroke:#cccccc;stroke-width:0.0966354;stroke-dasharray:none"
       d="M 30.74282,54.158143 C 30.843684,47.359607 30.293059,40.566259 30.74152,33.831794 30.77645,28.45652 30.619883,23.24528 30.68433,17.877841 30.71967,11.407288 30.273736,6.0118069 30.467044,0.18185126"
       id="path1016-7-6"
       sodipodi:nodetypes="cccc" />
    <path
       style="display:inline;fill:none;stroke:#cccccc;stroke-width:0.0966354;stroke-dasharray:none"
       d="m 35.550569,54.304382 c 0.380563,-9.043858 0.02938,-18.116852 -0.0091,-27.140304 0.195928,-6.992872 -0.32048,-13.532869 0.116546,-19.6280991 -0.06211,-2.5458806 0.07928,-4.6074315 0.116234,-6.98034273"
       id="path1008-3-2"
       sodipodi:nodetypes="cccc" />
    <path
       style="display:inline;fill:none;stroke:#cccccc;stroke-width:0.0966354;stroke-dasharray:none"
       d="M 40.606181,54.32877 C 40.553541,41.740399 40.730725,29.174204 40.734517,16.538187 40.685977,11.107332 40.798207,5.7228565 40.593713,0.24420407"
       id="path1010-6-6"
       sodipodi:nodetypes="ccc" />
    <path
       style="display:inline;fill:none;stroke:#cccccc;stroke-width:0.0966354;stroke-dasharray:none"
       d="M 45.843271,54.273938 C 45.877731,43.70986 46.103516,33.142386 45.741587,22.581086 46.296557,14.423688 45.254339,7.4547856 45.499004,0.16617069"
       id="path1012-7-1"
       sodipodi:nodetypes="ccc" />
    <path
       style="display:inline;fill:none;stroke:#cccccc;stroke-width:0.0966354;stroke-dasharray:none"
       d="m 50.874921,53.949252 c -0.202919,-7.871694 0.13209,-15.74905 -0.243659,-23.617661 0.03029,-10.966789 -0.08513,-21.9739175 0.02617,-30.61036311"
       id="path1014-5-8"
       sodipodi:nodetypes="ccc" />
    <path
       style="display:inline;fill:none;stroke:#cccccc;stroke-width:0.0904051;stroke-dasharray:none"
       d="M 0.25133456,4.8324214 C 9.4615257,5.1669608 18.701394,4.8582484 27.890807,4.8244214 35.012294,4.9966549 41.672578,4.5426988 47.879906,4.926872 50.472619,4.872273 52.572077,4.996565 54.988639,5.029051"
       id="path1008"
       sodipodi:nodetypes="cccc" />
    <path
       style="display:inline;fill:none;stroke:#cccccc;stroke-width:0.0904051;stroke-dasharray:none"
       d="M 0.36610955,14.881947 C 13.186007,14.835687 25.983322,14.99143 38.851745,14.994763 c 5.530741,-0.04267 11.014247,0.05599 16.593666,-0.123776"
       id="path1010"
       sodipodi:nodetypes="ccc" />
    <path
       style="display:inline;fill:none;stroke:#cccccc;stroke-width:0.0964239;stroke-dasharray:none"
       d="M 0.21412883,10.056089 C 10.972491,10.090549 21.734315,10.316337 32.489852,9.9544039 40.797275,10.509379 47.894349,9.4671541 55.317001,9.7118201"
       id="path1012"
       sodipodi:nodetypes="ccc" />
    <path
       style="display:inline;fill:none;stroke:#cccccc;stroke-width:0.0964239;stroke-dasharray:none"
       d="M 0.18669517,20.083702 C 8.2031602,19.88078 16.225392,20.215791 24.238717,19.84004 c 11.168481,0.03029 22.378044,-0.08513 31.173325,0.02617"
       id="path1014"
       sodipodi:nodetypes="ccc" />
    <path
       style="display:inline;fill:none;stroke:#cccccc;stroke-width:0.0964239;stroke-dasharray:none"
       d="m 0.30056049,25.123457 c 6.92357181,0.100865 13.84185651,-0.449763 20.70017851,-0.0013 5.474133,0.03493 10.781214,-0.121638 16.247367,-0.05719 6.589555,0.03534 12.084272,-0.410595 18.021436,-0.217286"
       id="path1016"
       sodipodi:nodetypes="cccc" />
  </g>
  <g
     inkscape:label="pudorys"
     inkscape:groupmode="layer"
     id="layer1"
     transform="translate(-24.363027,-23.905548)"
     style="display:inline">
    <path
       style="fill:none;fill-rule:evenodd;stroke:#000000;stroke-width:0.365;stroke-linecap:butt;stroke-linejoin:miter;stroke-dasharray:none;stroke-opacity:1"
       d="m 29.55451,28.643496 c -0.485436,1.959581 0.179579,3.941585 -0.144128,5.90784 -0.260992,1.900069 0.0064,3.847348 8e-6,5.755047 -0.04646,1.828141 -0.295101,2.958128 -0.144124,4.420695 0.307722,2.18089 0.487102,3.666468 0.545585,5.805982 -0.126369,2.417046 0.04876,4.898242 -0.236763,7.333869 0.157932,2.48131 -0.04152,4.964296 0.06177,7.456102 -0.145982,2.192377 -0.269019,4.401312 -0.298534,6.620855 0.148309,1.110311 0.01611,2.238697 1.410273,1.527882 1.577071,1.053 3.314236,-0.13306 4.961733,0.427805 1.380608,-0.19156 2.730632,-0.617298 4.199969,-0.203706 2.527396,0.137082 5.061355,0.16471 7.586715,0.04074 2.002807,0.359856 3.971199,0.01255 6.001431,0.264828 1.925761,-0.158377 3.836475,-0.36944 5.764667,-0.26484 1.825555,-0.274122 3.594464,0.398579 5.424962,0.03055 2.334527,0.0888 4.205798,-0.178427 6.948486,-0.397259 1.554989,-0.522124 3.873558,1.502296 3.509168,-0.73367 -0.55852,-2.476443 0.649688,-4.955805 -0.101839,-7.415085 -0.0311,-1.914512 -0.12981,-3.40974 -0.216178,-5.367984 -0.07591,-2.785158 0.490765,-5.610473 -0.154421,-8.372837 0.406046,-2.230649 0.238354,-4.460601 0.226476,-6.692154 0.31321,-1.861664 0.172645,-3.629173 -0.07206,-5.072591 -0.03421,-2.010524 0.681173,-3.973645 0.401467,-5.999514 -0.303631,-1.688536 0.31487,-3.65187 -0.34998,-5.154079 -2.767575,-0.313009 -5.595088,0.02985 -8.348476,-0.509292 -2.117789,0.175665 -4.259879,0.158918 -6.350961,0.490055 -3.445486,0.699224 -6.916587,-0.171115 -10.376872,-0.225241 -2.170916,0.713715 -4.448332,-0.128396 -6.670542,0.213912 -3.114441,0.07465 -6.226436,0.105028 -9.337034,0.08347 -1.404361,0.170266 -2.850126,0.106426 -4.240798,0.02862 z"
       id="path504"
       sodipodi:nodetypes="cccccccccccccccccccccccccccccc" />
    <path
       style="fill:none;fill-rule:evenodd;stroke:#000000;stroke-width:0.365;stroke-linecap:butt;stroke-linejoin:miter;stroke-dasharray:none;stroke-opacity:1"
       d="m 69.095186,68.802152 c 1.310379,-0.01087 2.131471,0.500019 1.547573,-1.814539 0.02026,-0.930345 -0.111325,-1.67031 -0.0089,-2.682639 0.08315,-2.202537 -0.202501,-4.500395 -0.07804,-6.842775 -0.269173,-2.103164 -0.346331,-4.328194 0.06137,-6.439 0.706014,-2.419291 -0.857797,-4.612039 -0.235806,-7.16955 0.250937,-2.399521 -0.466185,-4.965801 -0.190147,-7.696642 0.555262,-1.642278 0.683059,-2.604329 -0.818918,-2.095927 -2.127759,-0.213109 -4.405431,-0.252129 -6.450611,-0.440891 -1.54643,-0.05569 -3.50923,0.585628 -5.496543,0.04887 -2.087844,0.146038 -4.105611,0.142199 -6.089831,0.228406 -1.975048,-0.0039 -3.940081,0.381281 -5.938481,0.172042 -1.739189,-0.07792 -3.117459,-0.366193 -4.71638,-0.313351 -1.810414,-0.05453 -2.772231,0.445653 -4.559263,0.04955 -1.983868,-1.127067 -1.413149,2.264125 -1.29566,3.567084 0.188092,3.676827 -0.372578,7.364912 -0.157053,11.045344 -0.349165,2.813007 0.519145,5.649335 0.107975,8.418771 -0.526137,2.415647 -0.07665,4.891887 -0.127602,7.35209 0.587664,1.45414 -0.926054,4.51854 0.657656,4.863165 1.916158,-0.0026 2.338997,-0.172066 4.662274,-0.269541 2.490678,0.321806 5.748102,0.03166 8.477895,0.352266 0.44414,0.04717 5.615708,0.65442 6.676398,-0.319459 0.543825,-0.499316 -0.918875,-9.07088 -0.05666,-9.87573 0.73795,-0.688851 8.768436,0.767479 9.832563,-0.205018 0.844345,-0.771641 0.182687,4.125013 0.112964,5.367637 -1.200173,-0.0046 -3.382302,-0.392293 -4.797594,-0.05455 -0.425996,1.079682 -0.26234,3.851938 -0.01937,5.257971 1.317814,0.377702 8.135033,-0.246245 8.900191,-0.503581 h -10e-7 z"
       id="path507"
       sodipodi:nodetypes="cccccccccccccccccccccssscccccc" />
    <path
       style="fill:none;fill-rule:evenodd;stroke:#000000;stroke-width:0.365;stroke-linecap:butt;stroke-linejoin:miter;stroke-dasharray:none;stroke-opacity:1"
       d="m 49.193568,28.683354 c 1.689476,0.722834 2.940511,2.994807 1.358439,4.414744 -0.262332,0.601707 -0.950521,0.650286 -1.387967,1.063085"
       id="path527" />
    <path
       style="fill:none;fill-rule:evenodd;stroke:#000000;stroke-width:0.365;stroke-linecap:butt;stroke-linejoin:miter;stroke-dasharray:none;stroke-opacity:1"
       d="m 55.50386,28.644564 c -1.689476,0.632047 -2.96738,2.765217 -1.385308,4.006811 0.262332,0.526134 0.950521,0.568611 1.387967,0.929563"
       id="path527-5"
       sodipodi:nodetypes="ccc" />
    <path
       style="display:inline;fill:none;fill-rule:evenodd;stroke:#000000;stroke-width:0.365;stroke-linecap:butt;stroke-linejoin:miter;stroke-dasharray:none;stroke-opacity:1"
       d="m 49.048292,69.141687 c 1.689476,0.642891 2.940511,2.663591 1.358439,3.926488 -0.262332,0.53516 -0.950521,0.578367 -1.387967,0.945511"
       id="path527-9" />
    <path
       style="display:inline;fill:none;fill-rule:evenodd;stroke:#000000;stroke-width:0.365;stroke-linecap:butt;stroke-linejoin:miter;stroke-dasharray:none;stroke-opacity:1"
       d="m 55.367111,68.760881 c -1.689476,0.632047 -2.96738,2.765217 -1.385308,4.006811 0.262332,0.526134 0.950521,0.568611 1.387967,0.929563"
       id="path527-5-1"
       sodipodi:nodetypes="ccc" />
    <path
       style="display:inline;fill:none;fill-rule:evenodd;stroke:#000000;stroke-width:0.365;stroke-linecap:butt;stroke-linejoin:miter;stroke-dasharray:none;stroke-opacity:1"
       d="m 74.95886,48.238505 c -0.627563,1.643868 -1.676421,2.79554 -3.11035,1.72236 -0.53516,-0.262332 -0.703329,-1.012292 -1.070473,-1.449738"
       id="path527-9-2"
       sodipodi:nodetypes="ccc" />
    <path
       style="display:inline;fill:none;fill-rule:evenodd;stroke:#000000;stroke-width:0.365;stroke-linecap:butt;stroke-linejoin:miter;stroke-dasharray:none;stroke-opacity:1"
       d="m 75.070512,54.620452 c -0.632047,-1.689476 -2.496063,-3.030508 -3.737657,-1.448436 -0.526134,0.262332 -0.568611,0.950521 -0.929563,1.387967"
       id="path527-5-1-7"
       sodipodi:nodetypes="ccc" />
    <path
       style="display:inline;fill:none;fill-rule:evenodd;stroke:#000000;stroke-width:0.365001;stroke-linecap:butt;stroke-linejoin:miter;stroke-dasharray:none;stroke-opacity:1"
       d="m 34.51029,48.417845 c -0.709856,1.643868 -1.896251,2.79554 -3.518212,1.72236 -0.605336,-0.262332 -0.795557,-1.012292 -1.210845,-1.449738"
       id="path527-9-2-0"
       sodipodi:nodetypes="ccc" />
    <path
       style="display:inline;fill:none;fill-rule:evenodd;stroke:#000000;stroke-width:0.365001;stroke-linecap:butt;stroke-linejoin:miter;stroke-dasharray:none;stroke-opacity:1"
       d="m 34.636583,54.799792 c -1.024116,-1.858614 -3.003815,-3.129217 -4.227778,-1.448436 -0.595126,0.262332 -0.258929,0.320896 -0.667213,0.758342"
       id="path527-5-1-7-9"
       sodipodi:nodetypes="ccc" />
    <path
       style="fill:#ffffff;stroke:#000000;stroke-width:0.365;stroke-dasharray:none;stroke-opacity:1"
       d="m 59.901656,43.751078 c -1.380041,0.106265 -2.778961,0.142543 -4.075857,-0.377632 -1.339342,0.216207 -2.666215,0.898209 -4.043657,0.429526 -1.325507,-0.713751 -2.170122,0.526464 -1.704455,1.756729 0.32472,1.182905 -0.772321,3.802031 1.207088,3.288158 2.906386,0.438655 5.820281,0.02018 8.738655,0.08938"
       id="path998" />
  </g>
  <g
     inkscape:groupmode="layer"
     id="layer4"
     inkscape:label="schody"
     transform="translate(-24.363027,-23.905548)"
     style="display:inline">
    <path
       style="fill:none;fill-rule:evenodd;stroke:#000000;stroke-width:0.264583px;stroke-linecap:butt;stroke-linejoin:miter;stroke-opacity:1"
       d="m 58.850799,44.670346 c -0.507904,-0.0093 -1.538178,-0.435081 -1.491821,0.442118 -0.03046,0.601034 -0.184958,1.190946 -0.0338,1.776593 0.003,0.416445 -0.287044,1.303809 0.447055,1.153132 0.436637,-0.16068 1.018528,0.439598 1.341666,0.124351"
       id="path529"
       sodipodi:nodetypes="cccccc" />
    <path
       style="fill:none;fill-rule:evenodd;stroke:#000000;stroke-width:0.264583px;stroke-linecap:butt;stroke-linejoin:miter;stroke-opacity:1"
       d="m 55.754087,44.796965 c -0.529682,0.04518 -1.069426,-0.07667 -1.586257,0.07037 -0.254864,0.441897 -0.04401,0.677229 0.07122,1.387461 0.208303,0.821602 0.187826,1.409364 0.809545,1.170355 0.350309,-0.03179 0.974682,0.225695 1.167734,0.0187"
       id="path531"
       sodipodi:nodetypes="ccccc" />
    <path
       style="fill:none;fill-rule:evenodd;stroke:#000000;stroke-width:0.264583px;stroke-linecap:butt;stroke-linejoin:miter;stroke-opacity:1"
       d="m 52.475708,45.653746 c -0.43387,0.04304 -0.756887,0.417545 -0.873096,0.807881 -0.08156,0.295569 0.197324,0.448631 0.406969,0.580743 0.216555,0.169203 0.394895,0.379331 0.605698,0.554867 0.301477,0.06509 0.639122,0.262158 0.937421,0.149261 0.07372,-0.04687 0.132472,-0.113647 0.177734,-0.186934"
       id="path533"
       sodipodi:nodetypes="ccccccc" />
    <path
       style="fill:none;fill-rule:evenodd;stroke:#000000;stroke-width:0.264583px;stroke-linecap:butt;stroke-linejoin:miter;stroke-opacity:1"
       d="m 51.516572,47.859974 c -0.0183,0.287685 -0.109511,0.701838 -0.09128,0.983107 m 1.612522,0.106712 c 0.110183,-0.259693 0.04334,-0.258978 0.07025,-0.47527"
       id="path535"
       sodipodi:nodetypes="cccc" />
    <path
       style="fill:#ffffff;stroke:#000000;stroke-width:0.265;stroke-dasharray:none;stroke-opacity:1"
       d="m 61.033406,64.742024 c 0.508533,-0.114314 1.050071,-0.297939 1.555432,-0.07685 0.375826,0.671082 0.06066,1.572189 0.370273,2.308124 0.390727,0.483062 0.154047,1.437437 -0.582036,1.260656 -0.48165,0.138968 -1.027926,0.115645 -1.483657,0.241746 -0.04525,-0.05816 0.138264,-0.03721 0.117838,-0.05719"
       id="path1619" />
    <path
       style="fill:#ffffff;stroke:#000000;stroke-width:0.265;stroke-dasharray:none;stroke-opacity:1"
       d="m 63.735511,65.022559 c 0.441651,0.02029 1.084716,0.0093 1.395224,0.06664 -0.01027,0.526366 0.03895,1.046193 0.126344,1.562538 -0.157763,0.479118 0.415925,1.208094 -0.05285,1.487472 -0.331704,-0.07871 -0.673981,-0.187205 -1.018402,-0.141503"
       id="path1621" />
    <path
       style="fill:#ffffff;stroke:#000000;stroke-width:0.265;stroke-dasharray:none;stroke-opacity:1"
       d="m 65.918031,65.19743 c 0.575608,-0.04916 1.071521,-0.406867 1.317804,0.343942 0.279543,0.449838 1.137438,0.858312 0.801319,1.446606 -0.463923,0.02512 -0.761162,0.450966 -1.162375,0.581859"
       id="path1623" />
    <path
       style="fill:#ffffff;stroke:#000000;stroke-width:0.265;stroke-dasharray:none;stroke-opacity:1"
       d="m 67.275561,64.392587 c 0.147368,-0.627577 0.690421,-0.775162 1.196176,-0.436714 0.348119,0.278769 1.155494,0.133113 0.675512,0.705743 -0.120508,0.232993 -0.265613,0.451922 -0.40669,0.672679"
       id="path1625" />
    <path
       style="fill:#ffffff;stroke:#000000;stroke-width:0.265;stroke-dasharray:none;stroke-opacity:1"
       d="m 67.810816,62.756127 c -0.140686,-0.568165 0.0035,-1.184134 0.683863,-0.9317 0.410386,-9.72e-4 0.986989,-0.06814 0.754217,0.52547 -0.01121,0.158723 -0.02998,0.317273 -0.06487,0.472683"
       id="path1627" />
    <path
       style="fill:#ffffff;stroke:#000000;stroke-width:0.265;stroke-dasharray:none;stroke-opacity:1"
       d="m 68.098748,60.445405 c -0.416226,-0.760608 1.149718,-0.89211 0.758669,-0.01913 -0.01046,0.103664 0.0032,0.20936 0.03868,0.307035"
       id="path1629" />
  </g>
  <metadata
     id="metadata393">
    <rdf:RDF>
      <cc:Work
         rdf:about="">
        <cc:license
           rdf:resource="http://creativecommons.org/licenses/by/4.0/" />
      </cc:Work>
      <cc:License
         rdf:about="http://creativecommons.org/licenses/by/4.0/">
        <cc:permits
           rdf:resource="http://creativecommons.org/ns#Reproduction" />
        <cc:permits
           rdf:resource="http://creativecommons.org/ns#Distribution" />
        <cc:requires
           rdf:resource="http://creativecommons.org/ns#Notice" />
        <cc:requires
           rdf:resource="http://creativecommons.org/ns#Attribution" />
        <cc:permits
           rdf:resource="http://creativecommons.org/ns#DerivativeWorks" />
      </cc:License>
    </rdf:RDF>
  </metadata>
</svg>
