<?xml version="1.0" encoding="UTF-8" standalone="no"?>
<!-- Created with Inkscape (http://www.inkscape.org/) -->

<svg
   id="svg5"
   version="1.1"
   viewBox="0 0 75 75"
   height="75mm"
   width="75mm"
   inkscape:version="1.2.2 (b0a8486541, 2022-12-01)"
   sodipodi:docname="opustena_magova_vez_1.svg"
   inkscape:export-filename="2023-05-27-Opustena_magova_vez_1.png"
   inkscape:export-xdpi="300"
   inkscape:export-ydpi="300"
   xmlns:inkscape="http://www.inkscape.org/namespaces/inkscape"
   xmlns:sodipodi="http://sodipodi.sourceforge.net/DTD/sodipodi-0.dtd"
   xmlns="http://www.w3.org/2000/svg"
   xmlns:svg="http://www.w3.org/2000/svg"
   xmlns:rdf="http://www.w3.org/1999/02/22-rdf-syntax-ns#"
   xmlns:cc="http://creativecommons.org/ns#">
  <sodipodi:namedview
     id="namedview7"
     pagecolor="#ffffff"
     bordercolor="#666666"
     borderopacity="1.0"
     inkscape:showpageshadow="2"
     inkscape:pageopacity="0.0"
     inkscape:pagecheckerboard="0"
     inkscape:deskcolor="#d1d1d1"
     inkscape:document-units="mm"
     showgrid="true"
     showguides="true"
     inkscape:zoom="3.0779775"
     inkscape:cx="109.48748"
     inkscape:cy="159.52033"
     inkscape:window-width="1920"
     inkscape:window-height="1031"
     inkscape:window-x="0"
     inkscape:window-y="27"
     inkscape:window-maximized="1"
     inkscape:current-layer="layer2">
    <inkscape:grid
       type="xygrid"
       id="grid261"
       visible="true"
       units="mm"
       spacingx="5"
       spacingy="5"
       dotted="true"
       originx="-24.363026"
       originy="-23.905542" />
  </sodipodi:namedview>
  <defs
     id="defs2" />
  <g
     inkscape:groupmode="layer"
     id="layer2"
     inkscape:label="mrizka"
     style="display:inline">
    <path
       style="display:inline;fill:none;stroke:#cccccc;stroke-width:0.096424;stroke-dasharray:none"
       d="m 0.28898849,30.542613 c 9.27333241,0.100863 18.53958451,-0.449766 27.72552051,-0.0013 7.331974,0.03493 14.440202,-0.121639 21.761488,-0.05719 8.825955,0.03534 16.18549,-0.410598 24.137661,-0.217289"
       id="path1016-7"
       sodipodi:nodetypes="cccc" />
    <path
       style="display:inline;fill:none;stroke:#cccccc;stroke-width:0.096424;stroke-dasharray:none"
       d="m 0.98858541,34.907072 c 12.33598559,0.380566 24.71171759,0.02938 37.01987459,-0.0091 9.538406,0.19593 18.459085,-0.320481 26.773089,0.116546 3.472625,-0.06211 6.284624,0.07928 9.521318,0.116236"
       id="path1008-3"
       sodipodi:nodetypes="cccc" />
    <path
       style="display:inline;fill:none;stroke:#cccccc;stroke-width:0.096424;stroke-dasharray:none"
       d="M 0.32271612,39.957535 C 17.493483,39.904895 34.634007,40.082079 51.869768,40.085871 c 7.407788,-0.04854 14.752313,0.06369 22.22529,-0.140804"
       id="path1010-6"
       sodipodi:nodetypes="ccc" />
    <path
       style="display:inline;fill:none;stroke:#cccccc;stroke-width:0.096424;stroke-dasharray:none"
       d="M 0.54396514,45.130197 C 14.953561,45.164657 29.36779,45.390445 43.7736,45.028514 54.900443,45.583487 64.406163,44.541263 74.347962,44.785929"
       id="path1012-7"
       sodipodi:nodetypes="ccc" />
    <path
       style="display:inline;fill:none;stroke:#cccccc;stroke-width:0.096424;stroke-dasharray:none"
       d="M 0.74339558,50.131865 C 11.480534,49.928944 22.225392,50.263956 32.958325,49.888204 c 14.958904,0.03029 29.972832,-0.08513 41.753107,0.02617"
       id="path1014-5"
       sodipodi:nodetypes="ccc" />
    <path
       style="display:inline;fill:none;stroke:#cccccc;stroke-width:0.096424;stroke-dasharray:none"
       d="m 0.52228839,54.906999 c 9.27333181,0.100865 18.53958361,-0.449762 27.72551861,-0.0013 7.331976,0.03493 14.440202,-0.121638 21.76149,-0.05719 8.825953,0.03534 16.185485,-0.410597 24.137664,-0.217288"
       id="path1016-3"
       sodipodi:nodetypes="cccc" />
    <path
       style="display:inline;fill:none;stroke:#cccccc;stroke-width:0.096424;stroke-dasharray:none"
       d="m 0.62910581,59.677147 c 12.33598519,0.380566 24.71171719,0.02938 37.01987219,-0.0091 9.538408,0.195929 18.459088,-0.320482 26.773084,0.116547 3.472637,-0.06211 6.284626,0.07928 9.521329,0.116235"
       id="path1008-5"
       sodipodi:nodetypes="cccc" />
    <path
       style="display:inline;fill:none;stroke:#cccccc;stroke-width:0.096424;stroke-dasharray:none"
       d="m 0.3005566,65.047942 c 17.1707654,-0.05263 34.3112904,0.124545 51.5470514,0.128337 7.407788,-0.04854 14.75231,0.06369 22.225295,-0.140805"
       id="path1010-62"
       sodipodi:nodetypes="ccc" />
    <path
       style="display:inline;fill:none;stroke:#cccccc;stroke-width:0.096424;stroke-dasharray:none"
       d="M 0.55498986,70.510685 C 14.964584,70.545145 29.378815,70.770933 43.784625,70.409001 54.911466,70.963976 64.417183,69.921749 74.358983,70.166416"
       id="path1012-9"
       sodipodi:nodetypes="ccc" />
    <path
       style="display:inline;fill:none;stroke:#cccccc;stroke-width:0.103069;stroke-dasharray:none"
       d="M 4.780088,74.495655 C 5.160651,62.263978 4.809468,49.99289 4.770988,37.788809 4.966916,28.331055 4.450508,19.485804 4.887533,11.242107 4.825423,7.7988318 4.966813,5.0106246 5.003769,1.8012894"
       id="path1008-0"
       sodipodi:nodetypes="cccc" />
    <path
       style="display:inline;fill:none;stroke:#cccccc;stroke-width:0.0968427;stroke-dasharray:none"
       d="M 15.532168,74.465209 C 15.479378,57.198246 15.657096,39.961694 15.6609,22.629373 15.61221,15.180083 15.72479,7.7944129 15.519661,0.27956379"
       id="path1010-9"
       sodipodi:nodetypes="ccc" />
    <path
       style="display:inline;fill:none;stroke:#cccccc;stroke-width:0.0966356;stroke-dasharray:none"
       d="M 10.572795,74.485326 C 10.607255,60.012258 10.833041,45.534532 10.471112,31.065264 11.026082,19.889407 9.983863,10.341815 10.228528,0.35622342"
       id="path1012-3"
       sodipodi:nodetypes="ccc" />
    <path
       style="display:inline;fill:none;stroke:#cccccc;stroke-width:0.0966356;stroke-dasharray:none"
       d="M 20.633714,74.605852 C 20.430792,63.821415 20.765803,53.029223 20.390053,42.249011 20.420343,27.224213 20.304923,12.144151 20.416223,0.31198809"
       id="path1014-6"
       sodipodi:nodetypes="ccc" />
    <path
       style="display:inline;fill:none;stroke:#cccccc;stroke-width:0.0966356;stroke-dasharray:none"
       d="m 25.700913,74.439294 c 0.100864,-9.314179 -0.449761,-18.621249 -0.0013,-27.847649 0.03493,-7.364273 -0.121638,-14.503812 -0.05719,-21.85735 0.03534,-8.864834 -0.410594,-16.2567845 -0.217287,-24.24398108"
       id="path1016-0"
       sodipodi:nodetypes="cccc" />
    <path
       style="display:inline;fill:none;stroke:#cccccc;stroke-width:0.0966356;stroke-dasharray:none"
       d="M 30.48719,74.299568 C 30.588054,64.985389 30.037429,55.678318 30.48589,46.451918 30.52082,39.087647 30.364253,31.948107 30.4287,24.59457 30.46404,15.729736 30.018106,8.337781 30.211414,0.35058361"
       id="path1016-7-6"
       sodipodi:nodetypes="cccc" />
    <path
       style="display:inline;fill:none;stroke:#cccccc;stroke-width:0.0966356;stroke-dasharray:none"
       d="m 35.72866,74.499919 c 0.380563,-12.39033 0.02938,-24.820578 -0.0091,-37.182952 0.195928,-9.580425 -0.32048,-18.540399 0.116546,-26.891029 -0.06211,-3.4879254 0.07928,-6.3123062 0.116234,-9.56325891"
       id="path1008-3-2"
       sodipodi:nodetypes="cccc" />
    <path
       style="display:inline;fill:none;stroke:#cccccc;stroke-width:0.0966356;stroke-dasharray:none"
       d="M 41.020446,74.533332 C 40.967806,57.286922 41.14499,40.070893 41.148782,22.759208 41.100242,15.318789 41.212472,7.9419111 41.007978,0.43600866"
       id="path1010-6-6"
       sodipodi:nodetypes="ccc" />
    <path
       style="display:inline;fill:none;stroke:#cccccc;stroke-width:0.0966356;stroke-dasharray:none"
       d="M 45.726225,74.45821 C 45.760685,59.985137 45.98647,45.507411 45.624541,31.038143 46.179511,19.862287 45.137293,10.314701 45.381958,0.32910081"
       id="path1012-7-1"
       sodipodi:nodetypes="ccc" />
    <path
       style="display:inline;fill:none;stroke:#cccccc;stroke-width:0.0966356;stroke-dasharray:none"
       d="m 50.595041,74.013382 c -0.202919,-10.784435 0.13209,-21.576626 -0.243659,-32.356837 0.03029,-15.024799 -0.08513,-30.104863 0.02617,-41.9370279"
       id="path1014-5-8"
       sodipodi:nodetypes="ccc" />
    <path
       style="display:inline;fill:none;stroke:#cccccc;stroke-width:0.0966356;stroke-dasharray:none"
       d="M 55.5194,74.327294 C 55.620264,65.013117 55.06964,55.706047 55.5181,46.479646 55.55303,39.115373 55.396462,31.975835 55.46091,24.622296 55.49625,15.757465 55.050317,8.3655104 55.243624,0.37830424"
       id="path1016-3-7"
       sodipodi:nodetypes="cccc" />
    <path
       style="display:inline;fill:none;stroke:#cccccc;stroke-width:0.0966356;stroke-dasharray:none"
       d="m 60.1056,74.340532 c 0.380565,-12.390323 0.02938,-24.820571 -0.0091,-37.182945 0.195929,-9.580424 -0.320481,-18.5404 0.116546,-26.891022 -0.06211,-3.4879349 0.07928,-6.3123069 0.116235,-9.56326845"
       id="path1008-5-9"
       sodipodi:nodetypes="cccc" />
    <path
       style="display:inline;fill:none;stroke:#cccccc;stroke-width:0.0966356;stroke-dasharray:none"
       d="M 65.233162,74.118533 C 65.180532,56.87213 65.357706,39.6561 65.361498,22.344415 65.312958,14.903995 65.425188,7.5271168 65.220694,0.02121517"
       id="path1010-62-2"
       sodipodi:nodetypes="ccc" />
    <path
       style="display:inline;fill:none;stroke:#cccccc;stroke-width:0.0966356;stroke-dasharray:none"
       d="M 71.036468,74.37508 C 71.070928,59.90201 71.296713,45.424283 70.934784,30.955014 71.489747,19.779159 70.447534,10.231565 70.6922,0.24597358"
       id="path1012-9-0"
       sodipodi:nodetypes="ccc" />
    <path
       style="display:inline;fill:none;stroke:#cccccc;stroke-width:0.0904054;stroke-dasharray:none"
       d="M 0.27196793,4.8324214 C 12.607965,5.1669608 24.983711,4.8582484 37.291876,4.8244214 46.830294,4.9966549 55.750982,4.5426988 64.064988,4.926872 67.53763,4.872273 70.349612,4.996565 73.58632,5.029051"
       id="path1008"
       sodipodi:nodetypes="cccc" />
    <path
       style="display:inline;fill:none;stroke:#cccccc;stroke-width:0.0904054;stroke-dasharray:none"
       d="M 0.42569588,15.144827 C 17.59648,15.098567 34.73702,15.25431 51.972799,15.257643 c 7.407794,-0.04267 14.752323,0.05599 22.225315,-0.123776"
       id="path1010"
       sodipodi:nodetypes="ccc" />
    <path
       style="display:inline;fill:none;stroke:#cccccc;stroke-width:0.096424;stroke-dasharray:none"
       d="M 0.22213512,10.178122 C 14.63173,10.212582 29.045961,10.43837 43.451771,10.076437 54.578613,10.631412 64.084331,9.5891872 74.026124,9.8338532"
       id="path1012"
       sodipodi:nodetypes="ccc" />
    <path
       style="display:inline;fill:none;stroke:#cccccc;stroke-width:0.096424;stroke-dasharray:none"
       d="M 0.18539087,20.467849 C 10.922528,20.264927 21.66739,20.599938 32.400321,20.224187 c 14.958902,0.03029 29.972828,-0.08513 41.753099,0.02617"
       id="path1014"
       sodipodi:nodetypes="ccc" />
    <path
       style="display:inline;fill:none;stroke:#cccccc;stroke-width:0.096424;stroke-dasharray:none"
       d="M 0.33790043,25.337001 C 9.6112322,25.437866 18.877483,24.887238 28.06342,25.335701 c 7.331974,0.03493 14.440201,-0.121638 21.761488,-0.05719 8.825954,0.03534 16.185498,-0.410595 24.137651,-0.217286"
       id="path1016"
       sodipodi:nodetypes="cccc" />
  </g>
  <g
     inkscape:groupmode="layer"
     id="layer7"
     inkscape:label="dekorace"
     style="display:inline">
    <path
       style="fill:none;fill-rule:evenodd;stroke:#bfbfbf;stroke-width:0.265;stroke-linecap:butt;stroke-linejoin:miter;stroke-dasharray:none;stroke-opacity:1"
       d="M 31.080417,55.114561 C 30.586098,54.189387 27.559452,51.26712 27.043162,50.168784 m 3.566264,3.946153"
       id="path1686"
       sodipodi:nodetypes="cc" />
    <path
       style="display:inline;fill:none;fill-rule:evenodd;stroke:#bfbfbf;stroke-width:0.265;stroke-linecap:butt;stroke-linejoin:miter;stroke-dasharray:none;stroke-opacity:1"
       d="m 32.850012,55.2223 c -0.494319,-0.925174 -3.520965,-3.847441 -4.037255,-4.945777 m 3.566264,3.946153"
       id="path1686-3"
       sodipodi:nodetypes="cc" />
    <path
       style="display:inline;fill:none;fill-rule:evenodd;stroke:#bfbfbf;stroke-width:0.265;stroke-linecap:butt;stroke-linejoin:miter;stroke-dasharray:none;stroke-opacity:1"
       d="m 34.553872,55.123608 c -0.494319,-0.925174 -3.520965,-3.847441 -4.037255,-4.945777 m 3.566264,3.946153"
       id="path1686-5"
       sodipodi:nodetypes="cc" />
    <path
       style="display:inline;fill:none;fill-rule:evenodd;stroke:#bfbfbf;stroke-width:0.265;stroke-linecap:butt;stroke-linejoin:miter;stroke-dasharray:none;stroke-opacity:1"
       d="M 36.235536,54.925062 C 35.824135,54.142469 33.116556,51.47 32.68687,50.540931"
       id="path1686-5-6"
       sodipodi:nodetypes="cc" />
    <path
       style="display:inline;fill:none;fill-rule:evenodd;stroke:#bfbfbf;stroke-width:0.265;stroke-linecap:butt;stroke-linejoin:miter;stroke-dasharray:none;stroke-opacity:1"
       d="M 38.018412,54.877155 C 37.587889,54.040004 34.951853,51.39577 34.502194,50.401932 m 3.106012,3.570706"
       id="path1686-5-2"
       sodipodi:nodetypes="cc" />
    <path
       style="display:inline;fill:none;fill-rule:evenodd;stroke:#bfbfbf;stroke-width:0.265;stroke-linecap:butt;stroke-linejoin:miter;stroke-dasharray:none;stroke-opacity:1"
       d="m 39.875008,54.950105 c -0.443536,-0.846892 -3.159244,-3.521897 -3.622494,-4.5273 m 3.199889,3.612258"
       id="path1686-5-9"
       sodipodi:nodetypes="cc" />
    <path
       style="display:inline;fill:none;fill-rule:evenodd;stroke:#bfbfbf;stroke-width:0.265;stroke-linecap:butt;stroke-linejoin:miter;stroke-dasharray:none;stroke-opacity:1"
       d="m 40.69153,53.708478 c -0.335029,-0.644956 -2.386366,-2.68212 -2.736286,-3.447789 m 2.417067,2.750933"
       id="path1686-5-1"
       sodipodi:nodetypes="cc" />
    <path
       style="display:inline;fill:none;fill-rule:evenodd;stroke:#bfbfbf;stroke-width:0.265;stroke-linecap:butt;stroke-linejoin:miter;stroke-dasharray:none;stroke-opacity:1"
       d="m 29.379531,55.202166 c -0.379051,-0.69665 -2.699927,-2.897098 -3.095826,-3.724138 m 2.734663,2.971428"
       id="path1686-5-27"
       sodipodi:nodetypes="cc" />
    <path
       style="display:inline;fill:none;fill-rule:evenodd;stroke:#bfbfbf;stroke-width:0.265;stroke-linecap:butt;stroke-linejoin:miter;stroke-dasharray:none;stroke-opacity:1"
       d="m 27.471565,55.087471 c -0.15082,-0.279867 -1.074271,-1.163859 -1.231795,-1.496108 m 1.088092,1.19372"
       id="path1686-5-0"
       sodipodi:nodetypes="cc" />
    <path
       style="display:inline;fill:none;fill-rule:evenodd;stroke:#bfbfbf;stroke-width:0.265;stroke-linecap:butt;stroke-linejoin:miter;stroke-dasharray:none;stroke-opacity:1"
       d="m 26.36028,54.975752 c 0.494319,-0.925174 3.520965,-3.847441 4.037255,-4.945777 m -3.566264,3.946153"
       id="path1686-5-93"
       sodipodi:nodetypes="cc" />
    <path
       style="display:inline;fill:none;fill-rule:evenodd;stroke:#bfbfbf;stroke-width:0.265;stroke-linecap:butt;stroke-linejoin:miter;stroke-dasharray:none;stroke-opacity:1"
       d="m 28.059418,55.109575 c 0.464437,-0.882752 3.308117,-3.671021 3.793196,-4.718994 m -3.350677,3.765206"
       id="path1686-5-93-6"
       sodipodi:nodetypes="cc" />
    <path
       style="display:inline;fill:none;fill-rule:evenodd;stroke:#bfbfbf;stroke-width:0.265;stroke-linecap:butt;stroke-linejoin:miter;stroke-dasharray:none;stroke-opacity:1"
       d="m 29.895868,55.239265 c 0.469319,-0.893368 3.342897,-3.71517 3.833076,-4.775746 m -3.385905,3.810488"
       id="path1686-5-93-2"
       sodipodi:nodetypes="cc" />
    <path
       style="display:inline;fill:none;fill-rule:evenodd;stroke:#bfbfbf;stroke-width:0.265;stroke-linecap:butt;stroke-linejoin:miter;stroke-dasharray:none;stroke-opacity:1"
       d="m 31.634018,55.267987 c 0.494319,-0.925174 3.520965,-3.847441 4.037255,-4.945777 m -3.566264,3.946153"
       id="path1686-5-93-61"
       sodipodi:nodetypes="cc" />
    <path
       style="display:inline;fill:none;fill-rule:evenodd;stroke:#bfbfbf;stroke-width:0.265;stroke-linecap:butt;stroke-linejoin:miter;stroke-dasharray:none;stroke-opacity:1"
       d="m 33.458942,55.237352 c 0.494319,-0.925174 3.520965,-3.847441 4.037255,-4.945777 m -3.566264,3.946153"
       id="path1686-5-93-8"
       sodipodi:nodetypes="cc" />
    <path
       style="display:inline;fill:none;fill-rule:evenodd;stroke:#bfbfbf;stroke-width:0.265;stroke-linecap:butt;stroke-linejoin:miter;stroke-dasharray:none;stroke-opacity:1"
       d="m 35.276782,55.13783 c 0.494319,-0.925174 3.520965,-3.847441 4.037255,-4.945777 m -3.566264,3.946153"
       id="path1686-5-93-7"
       sodipodi:nodetypes="cc" />
    <path
       style="display:inline;fill:none;fill-rule:evenodd;stroke:#bfbfbf;stroke-width:0.265;stroke-linecap:butt;stroke-linejoin:miter;stroke-dasharray:none;stroke-opacity:1"
       d="m 37.268002,54.808531 c 0.367679,-0.709363 2.618925,-2.949968 3.002946,-3.792101 m -2.652619,3.025654"
       id="path1686-5-93-9"
       sodipodi:nodetypes="cc" />
    <path
       style="display:inline;fill:none;fill-rule:evenodd;stroke:#bfbfbf;stroke-width:0.265;stroke-linecap:butt;stroke-linejoin:miter;stroke-dasharray:none;stroke-opacity:1"
       d="m 39.056262,54.771464 c 0.178066,-0.361877 1.268342,-1.504906 1.454322,-1.934514 m -1.284659,1.543516"
       id="path1686-5-93-20"
       sodipodi:nodetypes="cc" />
    <path
       style="display:inline;fill:none;fill-rule:evenodd;stroke:#bfbfbf;stroke-width:0.265;stroke-linecap:butt;stroke-linejoin:miter;stroke-dasharray:none;stroke-opacity:1"
       d="m 26.213578,52.982376 c 0.289354,-0.514595 2.061028,-2.140003 2.363243,-2.750914 m -2.087544,2.194908"
       id="path1686-5-93-23"
       sodipodi:nodetypes="cc" />
    <path
       style="fill:#ffffff;fill-opacity:1;stroke:#bfbfbf;stroke-width:0.065;stroke-dasharray:none;stroke-opacity:1"
       d="m 26.377101,50.739296 c 0.246594,-0.415588 0.244692,-0.235785 0.07457,0.121057 0.376139,-0.633555 0.07588,0.140706 0.09234,0.16414 0.113163,-0.3002 0.392857,-0.567864 0.137816,-0.09697 -0.347796,0.619188 0.08761,0.05795 0.222717,-0.0905 -0.113366,0.224701 -0.35839,0.856663 -0.03957,0.271263 0.460801,-0.728692 -0.252448,0.87031 0.144614,0.200411 0.248724,-0.584668 0.271818,-0.134881 0.168966,0.186238"
       id="path2309" />
    <path
       style="fill:#ffffff;fill-opacity:1;stroke:#bfbfbf;stroke-width:0.0649999;stroke-dasharray:none;stroke-opacity:1"
       d="m 28.251235,51.150387 c 0.140464,-0.308091 0.553683,-0.69482 0.219564,-0.10024 -0.379826,0.567453 0.483081,-0.509937 0.118757,0.06138 -0.484495,0.692298 0.599016,-0.689614 0.112874,0.04021 -0.450429,0.486067 0.449978,-0.469218 0.03798,0.129619 -0.471674,0.625772 0.490761,-0.436161 0.0153,0.166018 -0.459324,0.588574 0.66534,-0.583027 0.107802,-0.01345 l -0.09126,0.100012 -0.08901,0.102035"
       id="path2311" />
    <path
       style="fill:#ffffff;fill-opacity:1;stroke:#bfbfbf;stroke-width:0.0649999;stroke-dasharray:none;stroke-opacity:1"
       d="m 26.471068,53.209766 c 0.195493,-0.383484 0.462101,-0.553099 0.109886,-0.06857 -0.393033,0.637719 0.638465,-0.72227 0.137898,0.09448 -0.349893,0.514631 0.551421,-0.768347 0.06171,0.02088 -0.3528,0.670516 0.473649,-0.703374 0.110888,0.120831 -0.383849,0.664298 0.478777,-0.759615 0.06614,0.04569 -0.359254,0.778216 0.274668,-0.641083 0.06774,0.165803 -0.277274,0.387066 0.525691,-0.897346 0.0953,-0.097 -0.213844,0.506491 0.35964,-0.515733 0.02391,0.02725"
       id="path2313" />
    <path
       style="fill:#ffffff;fill-opacity:1;stroke:#bfbfbf;stroke-width:0.0649999;stroke-dasharray:none;stroke-opacity:1"
       d="m 28.196419,53.17192 c 0.200717,-0.318049 0.554377,-0.71818 0.212053,-0.135931 -0.281709,0.561041 0.533141,-0.703368 0.11187,0.01534 -0.442309,0.721408 0.188144,-0.187448 0.236869,-0.13061 -0.14843,0.221043 -0.453704,0.720163 -0.125323,0.194217 0.34821,-0.411463 -0.481041,0.991003 0.0072,0.167999 0.543403,-0.623338 -0.342072,0.786438 0.08806,0.133557 0.515637,-0.605661 -0.360283,0.753758 0.273575,-0.0027 l -0.06168,0.09309 -0.05485,0.09717"
       id="path2315" />
    <path
       style="fill:#ffffff;fill-opacity:1;stroke:#bfbfbf;stroke-width:0.0649999;stroke-dasharray:none;stroke-opacity:1"
       d="m 28.458748,54.899813 c 0.167704,-0.301118 0.2666,-0.300913 0.102997,0.0503 0.270809,-0.53985 -0.01421,0.174818 0.150863,-0.0666 0.08825,-0.123044 0.07481,0.198543 0.289564,-0.0096 -0.251602,0.06352 0.05358,0.298996 8.31e-4,0.07163"
       id="path2317" />
    <path
       style="fill:#ffffff;fill-opacity:1;stroke:#bfbfbf;stroke-width:0.0649999;stroke-dasharray:none;stroke-opacity:1"
       d="m 26.734699,54.924607 c 0.06249,-0.440943 0.358646,0.238137 0.360331,-0.03464 0.0024,-0.0078 -0.120818,0.30408 0.0011,0.133772"
       id="path2319" />
    <path
       style="fill:#ffffff;fill-opacity:1;stroke:#bfbfbf;stroke-width:0.0649999;stroke-dasharray:none;stroke-opacity:1"
       d="m 29.997467,51.090356 c 0.312344,-0.244018 0.462382,-0.527241 0.119591,-0.02718 -0.457234,0.79622 0.59574,-0.860748 0.213445,-0.02273 -0.365464,0.612413 -0.08756,0.149697 0.154006,-0.157786 -0.182199,0.295318 -0.519166,1.032529 -0.08571,0.356801 0.57122,-0.695748 -0.456837,0.961688 0.05211,0.190423 0.238084,-0.408602 0.366438,-0.33075 0.07605,0.04593 -0.357485,0.719858 0.507351,-0.768667 0.208908,0.06884 0.01614,0.06274 -0.413523,0.46452 -0.221646,0.373158"
       id="path2321" />
    <path
       style="fill:#ffffff;fill-opacity:1;stroke:#bfbfbf;stroke-width:0.0649999;stroke-dasharray:none;stroke-opacity:1"
       d="m 29.946569,53.230647 c 0.311481,-0.217372 0.741865,-0.909987 0.353364,-0.174778 -0.393173,0.636202 -0.06626,0.114907 0.203019,-0.198378 -0.03482,0.209097 -0.51062,0.984854 -0.07672,0.385643 0.525161,-0.892109 -0.458777,0.959872 0.127437,0.01183 0.336109,-0.38659 -0.318436,0.755025 0.05973,0.156913 0.389615,-0.484143 -0.520498,1.074498 0.0067,0.218111 0.495454,-0.678401 -0.323946,0.706521 0.10593,1.04e-4 0.307307,-0.399498 0.269328,-0.186598 0.05979,0.08864"
       id="path2323" />
    <path
       style="fill:#ffffff;fill-opacity:1;stroke:#bfbfbf;stroke-width:0.0649999;stroke-dasharray:none;stroke-opacity:1"
       d="m 30.31983,55.078606 c 0.171587,-0.405295 0.257698,-0.234192 0.177559,-0.08938 0.28018,-0.497822 0.02377,0.03462 0.11012,-0.01144 0.100763,-0.100933 -0.08698,0.363375 0.195786,-0.05137 -0.288651,0.551555 0.330828,-0.24321 0.02861,0.261761 l 0.03548,-0.02083 0.066,-0.08223"
       id="path2325" />
    <path
       style="fill:#ffffff;fill-opacity:1;stroke:#bfbfbf;stroke-width:0.0649999;stroke-dasharray:none;stroke-opacity:1"
       d="m 31.591004,51.134726 c 0.261688,-0.0099 0.801646,-0.897818 0.371993,-0.165633 -0.3409,0.570622 0.565621,-0.657409 0.126408,0.06571 -0.190925,0.311366 -0.405239,0.520856 -0.0504,0.129518 0.280369,-0.38337 0.346245,-0.509034 0.121314,0.0031 -0.433454,0.622463 -0.04806,-0.0147 0.228674,-0.11552 -0.13891,0.22396 -0.523078,0.786509 -0.143424,0.215509 0.454057,-0.515097 0.342798,0.02788 0.01305,0.274617 0.167122,-0.160796 0.529519,-0.651933 0.212935,-0.06288 -0.382942,0.518448 0.593411,-0.695311 0.07496,0.06993 -0.297222,0.472331 -0.170311,0.24744 0.108213,-0.02294"
       id="path2327" />
    <path
       style="fill:#ffffff;fill-opacity:1;stroke:#bfbfbf;stroke-width:0.0649999;stroke-dasharray:none;stroke-opacity:1"
       d="m 31.799821,53.38595 c 0.235577,-0.19432 0.79924,-1.037403 0.379222,-0.337607 -0.403182,0.653145 0.438457,-0.53899 0.03507,0.190699 -0.53594,0.805492 0.423444,-0.648057 0.07981,0.02264 -0.257444,0.392393 -0.225466,0.363153 0.04755,0.019 0.453671,-0.365781 -0.527637,0.94425 0.05215,0.18759 0.343063,-0.391531 -0.331875,0.72666 0.0334,0.185541 0.552121,-0.779011 -0.179788,0.381764 -0.163344,0.371206 0.1286,-0.08547 0.300993,-0.363772 0.379266,-0.402785"
       id="path2329" />
    <path
       style="fill:#ffffff;fill-opacity:1;stroke:#bfbfbf;stroke-width:0.0649999;stroke-dasharray:none;stroke-opacity:1"
       d="m 32.033435,55.094266 c 0.224662,-0.285002 0.41402,-0.362475 0.151778,0.05023 0.385375,-0.4666 -0.07294,0.262106 0.267373,-0.102753 -0.169939,0.455201 0.353245,-0.258651 0.05691,0.228429 -0.07847,0.117777 0.189692,-0.283079 0.125572,-0.121112"
       id="path2331" />
    <path
       style="fill:#ffffff;fill-opacity:1;stroke:#bfbfbf;stroke-width:0.0649999;stroke-dasharray:none;stroke-opacity:1"
       d="m 33.613918,51.196065 c 0.125748,-0.448735 0.697752,-0.694486 0.239187,-0.111947 -0.453185,0.605109 0.725007,-0.802918 0.225669,0.03267 -0.443201,0.703593 -0.03746,-0.08452 0.279912,-0.208432 -0.125707,0.385444 -0.665975,0.847344 -0.08959,0.276823 0.661466,-0.591911 -0.664643,1.136293 -1.1e-4,0.315904 0.423063,-0.604292 0.160834,-0.03894 -0.09181,0.239575 0.234351,-0.195242 0.547376,-0.677565 0.181303,-0.117913 l -0.06856,0.122748"
       id="path2333" />
    <path
       style="fill:#ffffff;fill-opacity:1;stroke:#bfbfbf;stroke-width:0.0649999;stroke-dasharray:none;stroke-opacity:1"
       d="m 33.553884,53.365069 c 0.340873,-0.273022 0.580418,-0.672885 0.258446,-0.06399 -0.352846,0.443347 0.620831,-0.747326 0.238494,-0.0499 -0.420313,0.62935 -0.07625,0.07483 0.203515,-0.169235 -0.01753,0.301846 -0.597915,0.917667 -0.08679,0.295392 0.583624,-0.612463 -0.470077,0.893254 0.09782,0.07407 0.693002,-0.669278 -0.4976,0.986113 0.113741,0.183344 0.297065,-0.478582 0.113772,0.08148 -0.08869,0.190566 l -0.02912,0.05917"
       id="path2335" />
    <path
       style="fill:#ffffff;fill-opacity:1;stroke:#bfbfbf;stroke-width:0.0649999;stroke-dasharray:none;stroke-opacity:1"
       d="m 33.826651,55.014658 c 0.008,0.0087 0.473271,-0.505042 0.08592,0.04216 0.05479,0.03948 0.354672,-0.336299 0.07176,0.134278 0.07293,0.06738 0.332834,-0.437394 0.154955,0.06004 0.108003,-0.126097 0.257655,-0.341426 0.07624,-0.02504"
       id="path2337" />
    <path
       style="fill:#ffffff;fill-opacity:1;stroke:#bfbfbf;stroke-width:0.0649999;stroke-dasharray:none;stroke-opacity:1"
       d="m 35.549393,51.022493 c 0.168748,-0.280887 0.633115,-0.53712 0.277309,-0.04281 -0.419503,0.628448 -0.08551,0.105216 0.184801,-0.171119 0.02598,0.345994 -0.6465,1.030288 -0.07578,0.413046 0.6664,-0.727154 -0.629241,0.874057 0.0407,0.139503 0.768336,-0.718333 -0.537215,0.857604 0.110712,0.157746 0.4539,-0.526224 0.241409,-0.121367 -0.05454,0.189329 0.259335,-0.248149 0.455483,-0.404717 0.13109,-0.02229 l -0.06097,0.07921"
       id="path2339" />
    <path
       style="fill:#ffffff;fill-opacity:1;stroke:#bfbfbf;stroke-width:0.0649999;stroke-dasharray:none;stroke-opacity:1"
       d="m 35.358848,53.310255 c 0.244775,-0.191324 0.763377,-0.858218 0.30947,-0.196662 -0.450975,0.69315 0.681449,-0.863485 0.177443,-0.03667 -0.609201,0.751192 0.555831,-0.597724 0.217886,0.123005 -0.228683,0.410933 -0.430341,0.526311 -0.04673,0.07098 0.694077,-0.640664 -0.562766,0.768415 -0.0341,0.173688 0.4035,-0.451271 -0.412266,0.724952 0.141477,-0.0055 0.428474,-0.449147 -0.349815,0.816121 0.08436,0.122237 l 0.02633,-0.0275 -0.01479,0.05179"
       id="path2341" />
    <path
       style="fill:#ffffff;fill-opacity:1;stroke:#bfbfbf;stroke-width:0.0649999;stroke-dasharray:none;stroke-opacity:1"
       d="m 35.748823,54.879549 c 0.247406,-0.426124 -0.145227,0.259599 0.161629,-0.09336 -0.19441,0.42501 0.257049,-0.329463 0.0054,0.175603"
       id="path2343" />
    <path
       style="fill:#ffffff;fill-opacity:1;stroke:#bfbfbf;stroke-width:0.0649999;stroke-dasharray:none;stroke-opacity:1"
       d="m 37.21185,51.164055 c 0.10864,-0.294028 0.54288,-0.819746 0.249164,-0.225388 -0.526245,0.99292 0.553382,-0.920056 0.201903,0.05378 -0.289853,0.433075 -0.302599,0.429933 0.0041,0.02888 0.709644,-0.76253 -0.608067,0.989125 0.03083,0.23207 0.385472,-0.571896 0.292646,-0.028 -0.01164,0.223009 0.152235,-0.184886 0.603859,-0.693748 0.259801,-0.141264 -0.309995,0.38652 -0.272802,0.527714 0.03121,0.09029 0.401757,-0.516768 0.02751,0.190058 -0.09902,0.369663 l -0.02931,0.02276"
       id="path2345" />
    <path
       style="fill:#ffffff;fill-opacity:1;stroke:#bfbfbf;stroke-width:0.0649999;stroke-dasharray:none;stroke-opacity:1"
       d="m 37.202714,53.278246 c 0.159511,-0.333467 0.5732,-0.744146 0.180584,-0.176547 -0.412137,0.637763 0.463095,-0.580557 0.147759,0.07752 -0.381008,0.629402 0.0108,-0.08109 0.229632,-0.200541 -0.13801,0.328704 -0.537706,0.860573 -0.09513,0.262723 0.470853,-0.533044 -0.487895,0.927358 0.04001,0.154054 0.647016,-0.770327 -0.426402,0.901997 0.09773,0.1548 0.288318,-0.393999 0.392012,-0.277294 0.07576,0.07391 -0.439687,0.657638 0.387298,-0.497848 0.08978,-0.01458"
       id="path2347" />
    <path
       style="fill:#ffffff;fill-opacity:1;stroke:#bfbfbf;stroke-width:0.0649999;stroke-dasharray:none;stroke-opacity:1"
       d="m 37.589024,54.626366 c 0.231107,-0.151515 -0.136451,0.285886 0.15658,-0.01171"
       id="path2349" />
    <path
       style="fill:#ffffff;fill-opacity:1;stroke:#bfbfbf;stroke-width:0.0649999;stroke-dasharray:none;stroke-opacity:1"
       d="m 39.383547,54.644639 c -0.127798,-0.101177 0.251642,0.09594 0.126583,0.10179"
       id="path2351" />
    <path
       style="fill:#ffffff;fill-opacity:1;stroke:#bfbfbf;stroke-width:0.0649999;stroke-dasharray:none;stroke-opacity:1"
       d="m 38.964608,53.176452 c 0.207428,-0.38822 0.709285,-0.772502 0.25024,-0.152413 -0.456564,0.78112 0.706166,-0.86575 0.193658,0.03659 -0.491745,0.772826 0.485978,-0.730456 0.116573,0.07518 -0.197799,0.408045 -0.329513,0.511715 -0.01596,0.06286 0.598342,-0.647929 -0.583267,1.089901 0.0189,0.239738 0.281987,-0.433718 0.386078,-0.252188 0.06267,0.08454 -0.276024,0.460656 0.06748,-0.148407 0.228695,-0.227717"
       id="path2353" />
    <path
       style="fill:#ffffff;fill-opacity:1;stroke:#bfbfbf;stroke-width:0.0649999;stroke-dasharray:none;stroke-opacity:1"
       d="m 38.982878,51.122294 c 0.03274,-0.03857 0.933365,-1.002311 0.319498,-0.21554 -0.54785,0.916642 0.651672,-0.856322 0.219376,0.03016 -0.216519,0.364441 -0.482296,0.688531 -0.04882,0.17836 0.18405,-0.389908 0.660572,-0.614976 0.224951,-0.0618 -0.226296,0.271861 -0.545683,0.760602 -0.114464,0.221817 0.165026,-0.272891 0.58298,-0.56862 0.213234,-0.09753 -0.227035,0.253953 -0.394631,0.589799 -0.02156,0.138982"
       id="path2355" />
  </g>
  <g
     inkscape:label="pudorys"
     inkscape:groupmode="layer"
     id="layer1"
     transform="translate(-24.363027,-23.905548)"
     style="display:inline">
    <path
       style="fill:none;fill-rule:evenodd;stroke:#000000;stroke-width:0.365;stroke-linecap:butt;stroke-linejoin:miter;stroke-dasharray:none;stroke-opacity:1"
       d="m 29.700477,28.909231 c -0.6963,2.840511 0.257585,5.713526 -0.206734,8.563711 -0.374362,2.754245 0.0092,5.576924 1.2e-5,8.34223 -0.06664,2.649982 -0.423288,4.287955 -0.20673,6.40802 0.441392,3.161309 0.69869,5.31473 0.782577,8.416062 -0.18126,3.503631 0.06994,7.100248 -0.339608,10.630813 0.226535,3.596783 -0.05955,7.195996 0.0886,10.807994 -0.209393,3.177961 -0.385875,6.379923 -0.428211,9.597262 0.212732,1.609452 0.02311,3.245105 2.022871,2.214742 2.262122,1.526377 4.75388,-0.192877 7.117021,0.620125 1.980319,-0.277676 3.916769,-0.894804 6.02436,-0.295282 3.625252,0.198707 7.259918,0.238756 10.882248,0.05906 2.87279,0.521628 5.696217,0.01819 8.608346,0.383881 2.762276,-0.229575 5.502971,-0.535522 8.268734,-0.383899 2.618545,-0.397354 5.155836,0.57776 7.78147,0.04428 3.348603,0.12872 6.629051,-0.695025 9.966783,-0.575848 1.625666,-1.234311 5.556163,2.177654 5.033489,-1.063491 -0.801132,-3.589729 0.9319,-7.183689 -0.146077,-10.748539 -0.0446,-2.775181 -0.186197,-4.942589 -0.310082,-7.781163 -0.108873,-4.037226 0.703945,-8.132662 -0.221498,-12.136848 0.582425,-3.233438 0.34189,-6.465865 0.324852,-9.700614 0.449263,-2.698575 0.24764,-5.260669 -0.103359,-7.352976 -0.04907,-2.914355 0.977062,-5.759998 0.575856,-8.696597 -0.435523,-2.447618 0.451643,-5.293569 -0.502006,-7.471096 -3.96976,-0.453723 -8.025493,0.04327 -11.974904,-0.738245 -3.037719,0.254635 -6.110294,0.23036 -9.109705,0.71036 -4.942143,1.01356 -9.921029,-0.248041 -14.884399,-0.326498 -3.113923,1.034565 -6.380608,-0.186117 -9.568106,0.310076 -4.467299,0.108216 -8.931089,0.152243 -13.392875,0.120999 -2.01439,0.24681 -4.08817,0.15427 -6.082925,0.04148 z"
       id="path504" />
    <path
       style="fill:none;fill-rule:evenodd;stroke:#000000;stroke-width:0.365;stroke-linecap:butt;stroke-linejoin:miter;stroke-dasharray:none;stroke-opacity:1"
       d="m 54.536094,89.12726 c 3.878431,0.713487 14.916073,-0.570006 17.984638,-0.05057 2.814934,-0.04079 5.5505,-0.961375 8.38272,-0.778244 2.7512,0.869638 5.591433,0.174353 8.405764,0.497718 0.449814,-0.43057 -0.05374,-3.998338 0.118132,-4.739577 -2.564441,-0.107186 -5.221164,-1.105469 -7.808489,-0.269261 -3.089125,1.480003 -2.019127,-2.566972 -2.350258,-4.366956 1.751845,-0.816846 4.918756,-0.335433 7.220794,-0.997973 1.971187,-0.01399 4.155897,1.142613 3.277545,-1.836927 0.03048,-1.197637 -0.167464,-2.150197 -0.01342,-3.453373 0.125077,-2.835334 -0.304619,-5.793376 -0.117396,-8.808732 -0.404913,-2.707411 -0.520981,-5.571702 0.09233,-8.288951 1.062049,-3.114364 -1.290374,-5.937097 -0.354719,-9.229391 0.377481,-3.088914 -0.701278,-6.392497 -0.286036,-9.907919 0.835273,-2.114112 1.027517,-3.352564 -1.231889,-2.698095 -3.200763,-0.274337 -6.627038,-0.324567 -9.703579,-0.567561 -2.326275,-0.07169 -5.278892,0.753881 -8.268385,0.06291 -3.140719,0.187995 -6.176022,0.183054 -9.16086,0.294028 -2.971043,-0.005 -5.927018,0.490825 -8.933188,0.221471 -2.616242,-0.100303 -4.689557,-0.471402 -7.094795,-0.403378 -2.723385,-0.0702 -5.381268,0.57369 -8.069479,0.06379 -2.98431,-1.450877 -2.125783,2.914618 -1.949046,4.591922 0.282944,4.733195 -0.560466,9.480882 -0.236253,14.218717 -0.525245,3.621195 0.780943,7.272412 0.162424,10.837519 -0.791461,3.109672 -0.115311,6.297346 -0.191949,9.464375 0.884016,1.871921 -1.393051,5.816735 0.989304,6.260372 2.882455,-0.0034 4.729559,-0.221501 8.224438,-0.346981 3.746697,0.414263 8.20812,0.05977 12.314516,0.472482 2.672457,0.242874 5.163895,-0.755272 7.692878,-0.568457 2.313165,1.062821 1.267919,-3.540792 1.107425,-4.665727 -2.506938,-0.311217 -5.385235,0.226783 -8.533768,0.07639 -2.029316,-1.052412 -6.391673,1.14647 -6.703929,-1.71438 -0.316184,-2.818276 0.446745,-5.451372 0.353958,-8.225044 -0.758043,-3.879468 -0.2167,-7.860559 0.01474,-11.752952 1.166709,-1.569724 -2.271016,-4.466503 1.432262,-3.809376 2.938781,0.434152 6.048102,0.945584 8.992252,0.2067 2.747497,-0.142888 5.562068,-0.109853 8.335312,0.0015 2.085329,0.424259 6.872686,-2.135842 6.061137,1.652127 0.0964,3.296222 -0.139146,6.600627 -0.04428,9.892566 -0.798179,1.727551 0.540372,4.916643 -2.49541,3.381189 -2.942081,0.330972 -5.866913,-0.268471 -8.756001,-0.398671 -0.689112,-0.466258 -4.826879,1.227321 -3.218892,-2.3e-5 1.186866,-2.029742 -2.149314,-6.196857 2.052424,-4.754319 0.684671,-0.108713 2.273733,0.407 2.43632,0.25101"
       id="path507"
       sodipodi:nodetypes="cccccccccccccccccccccccccccccccccccccccccccc" />
    <path
       style="fill:none;fill-rule:evenodd;stroke:#000000;stroke-width:0.365;stroke-linecap:butt;stroke-linejoin:miter;stroke-dasharray:none;stroke-opacity:1"
       d="m 54.284363,83.83016 c 2.86633,0.02468 8.496552,-0.226117 11.296528,-0.305137 2.416202,0.38857 4.43969,0.440721 6.880764,0.457699 1.972483,0.300894 2.740457,0.195124 1.934285,-1.919472 -0.146162,-2.521927 -0.31729,-4.982286 -0.376459,-7.486129 -0.425344,-1.697647 2.077746,-6.321359 -1.1444,-5.876201 -2.501947,0.647361 -5.081329,0.324872 -7.633817,-0.04429 -2.504502,-0.479689 -5.18291,0.222577 -7.648585,0.428168 -1.687806,0.297994 -4.555457,0.83522 -3.292726,-1.919432 1.100356,-3.159763 -0.443993,-6.213638 -0.251013,-9.420082 -0.469511,-2.311435 0.13107,-5.38899 3.130315,-3.691246 2.55561,0.745844 5.091806,-0.191474 7.692871,1.6e-5 l -0.11812,-0.08859"
       id="path509"
       sodipodi:nodetypes="ccccccccccccc" />
    <path
       style="fill:none;fill-rule:evenodd;stroke:#000000;stroke-width:0.365;stroke-linecap:butt;stroke-linejoin:miter;stroke-dasharray:none;stroke-opacity:1"
       d="m 89.650131,63.6955 c 1.78019,-2.072632 4.18289,-1.262588 4.930395,-0.147529"
       id="path517"
       sodipodi:nodetypes="cc" />
    <path
       style="fill:none;fill-rule:evenodd;stroke:#000000;stroke-width:0.365;stroke-linecap:butt;stroke-linejoin:miter;stroke-dasharray:none;stroke-opacity:1"
       d="m 89.370681,58.604762 c 2.529928,2.052279 3.79938,1.752678 5.28367,0.04122"
       id="path519"
       sodipodi:nodetypes="cc" />
    <path
       style="fill:none;fill-rule:evenodd;stroke:#000000;stroke-width:0.365;stroke-linecap:butt;stroke-linejoin:miter;stroke-dasharray:none;stroke-opacity:1"
       d="m 90.169622,53.950702 c 2.523862,-1.739734 3.661558,-0.960934 4.796088,-0.05417"
       id="path521"
       sodipodi:nodetypes="cc" />
    <path
       style="fill:none;fill-rule:evenodd;stroke:#000000;stroke-width:0.365;stroke-linecap:butt;stroke-linejoin:miter;stroke-dasharray:none;stroke-opacity:1"
       d="m 88.99763,48.817022 c 1.153208,2.084898 4.594196,1.315604 6.099689,0.128349 l -0.147662,0.07382"
       id="path523"
       sodipodi:nodetypes="ccc" />
    <path
       style="fill:none;fill-rule:evenodd;stroke:#000000;stroke-width:0.365;stroke-linecap:butt;stroke-linejoin:miter;stroke-dasharray:none;stroke-opacity:1"
       d="m 54.846292,28.835407 c 1.689476,0.722834 2.940511,2.994807 1.358439,4.414744 -0.262332,0.601707 -0.950521,0.650286 -1.387967,1.063085"
       id="path527" />
    <path
       style="fill:none;fill-rule:evenodd;stroke:#000000;stroke-width:0.365;stroke-linecap:butt;stroke-linejoin:miter;stroke-dasharray:none;stroke-opacity:1"
       d="m 74.785231,28.634203 c -1.689476,0.632047 -2.96738,2.765217 -1.385308,4.006811 0.262332,0.526134 0.950521,0.568611 1.387967,0.929563"
       id="path527-5"
       sodipodi:nodetypes="ccc" />
  </g>
  <g
     inkscape:groupmode="layer"
     id="layer3"
     inkscape:label="nabytek"
     transform="translate(-24.363027,-23.905548)"
     style="display:inline">
    <path
       style="fill:none;fill-rule:evenodd;stroke:#000000;stroke-width:0.264583px;stroke-linecap:butt;stroke-linejoin:miter;stroke-opacity:1"
       d="m 75.665543,34.02347 c 3.232001,0.0029 6.377491,0.821238 9.598622,0.931947 0.69638,0.345153 0.533606,2.388415 -0.576486,2.390328 -2.443265,-0.06368 -4.973266,-0.323846 -7.290116,-0.966831 -1.789998,-0.489059 -2.517528,-0.470146 -1.73202,-2.355444 z"
       id="path506" />
    <path
       style="fill:none;fill-rule:evenodd;stroke:#000000;stroke-width:0.264583px;stroke-linecap:butt;stroke-linejoin:miter;stroke-opacity:1"
       d="m 85.983423,37.173347 c -0.150032,2.252745 -0.297471,4.53043 -0.04179,6.767051 0.02322,1.209746 -0.86435,4.138003 1.821338,3.216495 1.724101,-0.536932 0.747087,-4.256171 0.810366,-5.973393 -0.603655,-1.145858 0.576499,-3.596692 -0.442803,-4.051921 -0.687657,0.127513 -1.590949,-0.522371 -2.147111,0.04177 z"
       id="path508" />
    <path
       style="fill:none;fill-rule:evenodd;stroke:#000000;stroke-width:0.264583px;stroke-linecap:butt;stroke-linejoin:miter;stroke-opacity:1"
       d="m 64.532736,39.32879 c -1.362738,1.381545 -1.73553,2.650563 0.328633,3.457413 1.047214,1.797957 2.360361,-0.240509 3.152107,-1.135918 -1.004212,-1.031153 -1.983782,2.533919 -2.715432,0.62846 -1.869052,-0.764369 -0.469896,-1.755408 -0.373172,-2.862469 l -0.392176,-0.08743 z"
       id="path583" />
    <path
       style="fill:none;fill-rule:evenodd;stroke:#000000;stroke-width:0.264583px;stroke-linecap:butt;stroke-linejoin:miter;stroke-opacity:1"
       d="m 65.080802,39.573557 c 0.770349,-0.558277 3.246841,0.447197 2.600435,1.66797"
       id="path585" />
    <path
       style="fill:none;fill-rule:evenodd;stroke:#000000;stroke-width:0.264583px;stroke-linecap:butt;stroke-linejoin:miter;stroke-opacity:1"
       d="m 77.491477,61.889379 c -3.048322,1.102326 -2.741538,-2.37688 -2.286458,-4.353827 0.688529,-2.345074 -0.111024,-4.758546 0.04177,-7.110222 1.204769,-0.491692 3.192522,-0.305529 2.829375,1.440861 0.126989,1.94047 -0.334871,3.898624 -0.39672,5.857324 -0.03965,1.657163 -0.04392,2.992817 -0.187967,4.165864 z"
       id="path591"
       sodipodi:nodetypes="cccccc" />
    <path
       style="display:inline;fill:#ffffff;fill-opacity:1;fill-rule:evenodd;stroke:#000000;stroke-width:0.265;stroke-linecap:butt;stroke-linejoin:miter;stroke-dasharray:none;stroke-opacity:1"
       d="m 62.951013,75.763058 c 0.58711,-0.16547 0.657305,-0.29568 0.946028,-0.264771 0.359216,0.812746 0.845944,2.185139 0.567912,1.990537 -0.398609,-0.01107 -0.715635,0.290186 -1.079146,0.260299 -0.123396,-0.447146 -1.18622,-2.556655 -0.434796,-1.98607 z"
       id="path591-36"
       sodipodi:nodetypes="ccccc" />
    <path
       style="display:inline;fill:none;fill-rule:evenodd;stroke:#000000;stroke-width:0.265;stroke-linecap:butt;stroke-linejoin:miter;stroke-dasharray:none;stroke-opacity:1"
       d="m 36.543923,35.555735 c 1.047226,0.07841 1.237755,-0.08777 1.686329,0.129298 0.100053,1.501007 0.07522,3.965889 -0.259231,3.49481 -0.637993,-0.249431 -1.328825,0.04511 -1.898933,-0.21383 0.065,-0.78263 -0.405659,-4.754423 0.471835,-3.410285 z"
       id="path591-36-7"
       sodipodi:nodetypes="ccccc" />
    <path
       style="display:inline;fill:#ffffff;fill-opacity:1;fill-rule:evenodd;stroke:#000000;stroke-width:0.265;stroke-linecap:butt;stroke-linejoin:miter;stroke-dasharray:none;stroke-opacity:1"
       d="m 69.7843,39.718423 c -7.762112,0.05105 -9.169385,0.324559 -12.49927,0.07775 -0.782486,-2.182169 -0.665952,-5.795582 1.825232,-5.158723 4.734368,0.264214 9.845381,-0.276518 14.076983,0.01237 -0.460226,1.156345 3.136098,6.897947 -3.402946,5.068618 z"
       id="path591-36-7-5"
       sodipodi:nodetypes="ccccc" />
    <path
       style="fill:none;fill-rule:evenodd;stroke:#000000;stroke-width:0.264583px;stroke-linecap:butt;stroke-linejoin:miter;stroke-opacity:1"
       d="m 86.878161,64.241373 c -0.434746,3.130514 0.465569,6.469268 0.138535,9.697278 -0.24078,2.551242 -0.123083,4.846153 2.148873,3.925944 0.312501,-4.131634 -0.364742,-8.349083 -0.158644,-12.494794 0.240152,-1.79561 -1.333313,-1.76063 -2.128764,-1.128428 z"
       id="path593" />
    <path
       style="fill:none;fill-rule:evenodd;stroke:#000000;stroke-width:0.264583px;stroke-linecap:butt;stroke-linejoin:miter;stroke-opacity:1"
       d="m 75.844784,50.934349 c -0.397201,-0.423703 0.646493,3.992219 0.741602,5.164465 0.09075,2.15007 0.393305,3.598814 0.971155,5.547963 l -0.02953,-0.05906"
       id="path707"
       sodipodi:nodetypes="cccc" />
    <path
       style="fill:none;fill-rule:evenodd;stroke:#000000;stroke-width:0.264583px;stroke-linecap:butt;stroke-linejoin:miter;stroke-opacity:1"
       d="m 77.775941,50.784292 c -0.63381,2.323058 -0.963472,4.960998 -1.38056,7.153937 -0.294086,1.271453 -0.436124,2.662876 -0.738288,3.536352"
       id="path709"
       sodipodi:nodetypes="ccc" />
    <path
       style="display:inline;fill:none;fill-rule:evenodd;stroke:#000000;stroke-width:0.265;stroke-linecap:butt;stroke-linejoin:miter;stroke-dasharray:none;stroke-opacity:1"
       d="m 37.342962,79.154689 c 0,-1.481072 0.131714,-2.029872 0.165929,-3.067189 1.842885,0.553492 6.487514,-0.301257 8.281792,-0.331177 0.315346,1.600547 0.153735,2.154647 -0.0229,3.191964 -1.455217,0.300016 -3.766729,-0.03266 -5.25463,0.06343 -1.089472,-0.385508 -2.23165,0.09679 -3.170192,0.142975 z"
       id="path591-3"
       sodipodi:nodetypes="sccccss" />
    <path
       style="fill:none;fill-rule:evenodd;stroke:#000000;stroke-width:0.264583px;stroke-linecap:butt;stroke-linejoin:miter;stroke-opacity:1"
       d="m 88.709338,64.46978 c -0.936011,2.566383 -0.273382,5.662124 -0.716854,8.404558 -0.267038,1.32835 -0.571243,3.586004 -0.941825,4.332812"
       id="path711"
       sodipodi:nodetypes="ccc" />
    <path
       style="fill:none;fill-rule:evenodd;stroke:#000000;stroke-width:0.264583px;stroke-linecap:butt;stroke-linejoin:miter;stroke-opacity:1"
       d="m 87.025339,64.783825 c 0.625758,3.617294 1.192357,6.315912 1.338154,9.531123 -0.01013,0.358949 0.619865,3.979504 0.585061,3.138049"
       id="path713"
       sodipodi:nodetypes="ccc" />
    <path
       style="fill:none;fill-rule:evenodd;stroke:#000000;stroke-width:0.264583px;stroke-linecap:butt;stroke-linejoin:miter;stroke-opacity:1"
       d="m 86.343693,37.462732 c 1.299089,2.964913 1.168527,6.835145 1.971267,8.909969"
       id="path715"
       sodipodi:nodetypes="cc" />
    <path
       style="fill:none;fill-rule:evenodd;stroke:#000000;stroke-width:0.264583px;stroke-linecap:butt;stroke-linejoin:miter;stroke-opacity:1"
       d="m 85.893343,46.617043 c 1.056814,-2.386347 1.756962,-4.959709 2.207447,-7.522776 -0.04201,-0.535217 0.11902,-1.050047 0.11078,-1.579857"
       id="path717" />
    <path
       style="fill:none;fill-rule:evenodd;stroke:#000000;stroke-width:0.264583px;stroke-linecap:butt;stroke-linejoin:miter;stroke-opacity:1"
       d="m 75.427427,35.780328 c 2.940734,-0.321372 5.905164,-0.206629 8.847086,-0.314752 0.162982,-0.103527 1.019124,-0.102202 0.866831,-0.195599"
       id="path723" />
    <path
       style="fill:none;fill-rule:evenodd;stroke:#000000;stroke-width:0.264583px;stroke-linecap:butt;stroke-linejoin:miter;stroke-opacity:1"
       d="m 76.312217,34.151091 c -0.652497,-0.09498 3.162625,1.01571 3.942534,1.39454 1.754283,0.400038 2.946528,1.267377 4.526849,1.511293"
       id="path725"
       sodipodi:nodetypes="ccc" />
    <path
       style="fill:none;fill-rule:evenodd;stroke:#000000;stroke-width:0.264583px;stroke-linecap:butt;stroke-linejoin:miter;stroke-opacity:1"
       d="m 35.050745,58.809831 c -0.156642,0.700571 0.06638,1.428989 -0.04812,2.127827 0.05081,0.472229 -0.01325,0.914712 -0.127531,1.37138 -0.150944,0.489703 -0.115278,1.009953 -0.140812,1.51725 -0.0085,0.602479 -0.198553,1.225111 -0.0084,1.819744 -0.0015,0.49641 0.159222,0.997998 0.04427,1.498649 -0.04162,0.443327 -0.07207,0.890383 -0.15507,1.328851 -0.1326,0.384605 0.504957,0.24948 0.708082,0.213305 0.60868,-0.108136 1.230213,-0.08527 1.845499,-0.131183 0.268667,-0.0063 0.774148,-0.004 0.633064,0.02393 0.48139,-0.01454 0.944704,0.106696 1.423903,0.122552 0.544222,-0.0054 1.02634,0.291109 1.579678,0.216877 0.460927,0.09564 0.943979,0.106406 1.404349,-0.01386 0.449737,-0.166825 0.920108,-0.19918 1.376337,0.01203 0.376473,-0.05209 0.829788,-0.0851 1.168076,-0.141947 0.01647,-0.624923 -0.251233,-1.208806 -0.17224,-1.842738 -0.02336,-0.463485 0.013,-0.921815 0.0299,-1.380726 -0.0093,-0.50355 -0.0067,-1.008935 -0.0045,-1.512095 -0.03678,-0.553587 -0.02208,-1.106406 -0.01136,-1.65924 0.02054,-0.528369 0.130732,-1.044497 0.179624,-1.567601 0.05316,-0.53561 0.06082,-1.088645 0.07171,-1.632753 0.01214,-0.560017 -0.680452,-0.36095 -1.037353,-0.341214 -0.678079,0.01183 -1.355356,0.02369 -2.032687,0.04388 -0.45961,-0.04118 -0.911342,0.08512 -1.368939,0.09589 -0.566874,0.05551 -1.142807,-0.0058 -1.713514,0.02695 -0.61426,-0.03298 -1.226344,-0.04578 -1.844257,-0.05491 -0.577102,-0.02331 -1.148549,-0.172484 -1.724737,-0.154345 l -0.07495,0.01344 z"
       id="path1240" />
    <path
       style="fill:none;fill-rule:evenodd;stroke:#000000;stroke-width:0.264583px;stroke-linecap:butt;stroke-linejoin:miter;stroke-opacity:1"
       d="m 35.323458,61.709621 c -0.11695,0.589306 -0.04243,1.499661 -0.03553,2.099815 0.05119,0.508819 -0.1935,0.974347 -0.258162,1.458625 0.770606,-0.242317 1.456371,-0.324995 2.026978,-0.09219 -0.122486,-0.614075 -0.05416,-1.566042 -0.06525,-2.189881 0.01714,-0.476129 0.0111,-0.708004 0.09657,-1.302439 -0.630294,0.130968 -1.035364,0.172068 -1.764606,0.02607 z"
       id="path1242"
       sodipodi:nodetypes="ccccccc" />
    <path
       style="fill:none;fill-rule:evenodd;stroke:#ffffff;stroke-width:0.565;stroke-linecap:round;stroke-linejoin:miter;stroke-dasharray:none;stroke-opacity:1"
       d="m 38.715895,58.9707 c 0.05988,0.01696 0.109216,0.03895 0.161833,0.06525 0.02011,0.01005 2.44e-4,-0.0051 0.02349,0.0026 0.0067,0.0021 0.012,0.0073 0.01827,0.01045 0.02795,0.01397 0.06836,0.02225 0.09919,0.02609 0.04869,0.0061 0.09979,-0.0031 0.148782,0 0.01664,0.0011 0.03,0.0052 0.04698,0.0052 0.04422,0 0.03391,-0.0026 0.06787,-0.0052 0.04962,-0.0038 0.09656,-0.0048 0.146172,-0.01304 0.02876,-0.0048 0.0588,-0.01064 0.08614,-0.02087 2.9e-5,-1.1e-5 0.01563,-0.01043 0.01566,-0.01045 0.01182,-0.0039 0.02456,-0.0044 0.03654,-0.0078 0.06771,-0.01934 0.13419,-0.03658 0.203597,-0.04959 0.03271,-0.0061 0.06623,-0.0068 0.09919,-0.01045 0.02275,-0.0026 0.04509,-0.0082 0.06787,-0.01045 0.01472,-0.0016 0.02959,5.29e-4 0.04437,0 0.02527,-0.0011 0.05042,-0.0043 0.0757,-0.0052 0.0361,-0.0013 0.06855,0.0044 0.104409,0.0052 0.0261,5.29e-4 0.05221,-7.94e-4 0.07831,0 0.01816,5.29e-4 0.03267,0.01323 0.04959,0.01566 0.03482,0.005 0.06132,0.0066 0.09658,0.0078 0.0078,2.65e-4 0.01578,-0.0013 0.02349,0 0.0073,0.0013 0.01364,0.0061 0.02088,0.0078 0.04997,0.01175 0.103833,-0.0053 0.154002,0.0026 0.102024,0.01611 0.207858,0.01257 0.310615,0.0052 0.02636,-0.0019 0.05605,-0.01368 0.08353,-0.01828 0.02032,-0.0034 0.04233,0.0034 0.06264,0 0.01939,-0.0032 0.03807,-0.01243 0.05743,-0.01566 0.01096,-0.0019 0.02279,5.29e-4 0.03393,0 0.01361,-5.29e-4 0.06901,-0.0092 0.08875,-0.0026 0.01794,0.006 -0.0043,0.0075 0.02088,0.0052 0.04445,-0.004 -0.02285,-0.0026 0.04176,-0.0026 0.0035,0 0.01246,-0.0028 0.01044,0 -0.0058,0.0081 -0.01566,0.01217 -0.02349,0.01828"
       id="path1252" />
    <path
       style="fill:none;fill-rule:evenodd;stroke:#000000;stroke-width:0.264583px;stroke-linecap:butt;stroke-linejoin:miter;stroke-opacity:1"
       d="m 37.617835,68.577083 c -0.145344,-0.686522 -0.0496,-1.39019 -0.02609,-2.081348 -0.03207,-0.867531 -0.02443,-1.738162 -0.02137,-2.606628 0.0763,-0.590954 -0.03028,-1.188362 0.04751,-1.778284 -0.01985,-0.595365 0.09145,-1.183042 0.171149,-1.772428 0.136199,-0.468203 0.427165,-0.862866 0.668803,-1.2686 -0.01037,-0.05091 0.128996,-0.08098 0.120568,-0.156853 0.02843,-0.04369 0.0545,-0.08913 0.08529,-0.131063 0.0036,-0.005 0.03357,-0.01996 0.03915,-0.02439 0.02589,-0.02055 0.05439,-0.0537 0.0757,-0.07859 0.0044,-0.0054 0.0087,-0.01084 0.01305,-0.01626 8.7e-4,-0.0027 10e-4,-0.0058 0.0026,-0.0081 0.01071,-0.01589 0.02986,-0.03269 0.04176,-0.04607 0.006,-0.0067 0.0089,-0.01862 0.01566,-0.02439 0.02356,-0.02002 0.0216,-0.0098 0.03915,-0.03252 0.0024,-0.0031 0.0025,-0.008 0.0052,-0.01084 4e-6,-4e-6 0.01566,-0.0054 0.01566,-0.0054 0.0133,-0.0092 0.01778,-0.02039 0.03393,-0.0271 0.02573,-0.01068 0.08349,-0.02131 0.109628,-0.01355 0.01018,0.003 0.01967,0.01007 0.03132,0.01084 0.02499,0.0018 0.05493,-0.0054 0.07831,0.0081 0.0032,0.0019 0.0048,0.0059 0.0078,0.0081 0.01314,0.0094 0.03498,0.01735 0.04698,0.02981 0.0022,0.0023 0.0025,0.0064 0.0052,0.0081 0.0077,0.0048 0.0084,-0.0059 0.01566,0.0027 0.0344,0.04082 0.05865,0.103977 0.07047,0.157185 0.003,0.01339 -0.0011,0.02966 0,0.04336 0.0023,0.0287 -1.44e-4,0.05811 0.0026,0.08672 10e-7,1.3e-5 0.0052,0.02167 0.0052,0.02168 0.0022,0.01594 -0.0019,0.03281 0,0.04878 3.41e-4,0.0028 6.65e-4,0.0061 0.0026,0.0081 0.0019,0.002 0.0062,4.25e-4 0.0078,0.0027 0.0037,0.0051 -8.61e-4,0.01271 0,0.01897 3e-6,2.5e-5 0.0052,0.01624 0.0052,0.01626 0.0073,0.06786 -0.0014,0.01967 0.0052,0.0542 0.108767,-0.136213 0.07231,-0.108568 0.156827,-0.178769 0.0068,-0.0056 0.01473,-0.0099 0.02088,-0.01626 0.01266,-0.01315 0.02064,-0.03352 0.03393,-0.04607 0.02878,-0.02716 0.06471,-0.04028 0.09658,-0.06233 0.01468,-0.01018 0.02549,-0.02137 0.04176,-0.02981 0.02758,-0.01432 0.03454,-0.01205 0.06787,-0.01897 0.01681,-0.0035 0.03084,-0.0093 0.04698,-0.01355 0.03238,-0.0084 0.06651,-0.01143 0.09919,-0.01897 0.02507,-0.0058 0.05047,-0.0077 0.0757,-0.01355 0.0068,-0.0016 0.0335,-0.01647 0.03654,-0.01626 0.01056,7.31e-4 0.02076,0.0048 0.03132,0.0054 0.01219,7.92e-4 0.02623,-0.0055 0.03915,-0.0027 0.0039,8.52e-4 0.05743,0.0122 0.06786,0.01897 0.0023,0.0016 0.0017,0.0054 0.0026,0.0081 0.0026,0.0081 0.0037,0.01694 0.0078,0.02439 0.0083,0.01515 0.0318,0.01528 0.03654,0.03252 0.0064,0.02326 -0.0037,0.05836 -0.0052,0.0813 -0.0028,0.04289 0,0.08705 0,0.130084 0,0.0271 0,0.0542 0,0.0813 0,0.01116 0.0018,0.02653 0,0.03794 -8.7e-4,0.0054 -0.0073,0.01872 -0.0026,0.01626 0.0035,-0.0018 0.0026,-0.0078 0.0052,-0.01084 0.0098,-0.0115 0.02402,-0.01838 0.03393,-0.02981 0.0062,-0.0072 0.01714,-0.06028 0.02088,-0.06775 0.01493,-0.02981 0.04148,-0.05015 0.05482,-0.0813 0.01853,-0.04328 0.0068,-0.08037 0.03393,-0.124665 0.0036,-0.0059 0.05981,-0.06216 0.06003,-0.06233 0.0162,-0.01193 0.0346,-0.02028 0.0522,-0.02981 0.0087,-0.0048 0.0093,-3.86e-4 0.01827,-0.0081 0.0024,-0.0021 0.0025,-0.0064 0.0052,-0.0081 0.009,-0.0057 0.01954,-0.0082 0.02871,-0.01355 0.0107,-0.0062 0.05816,-0.04002 0.07048,-0.04607 0.0048,-0.0024 0.01056,-0.0012 0.01566,-0.0027 0.03217,-0.0091 0.06376,-0.02571 0.09658,-0.03252 0.02225,-0.0047 0.04553,-0.0012 0.06787,-0.0054 0.02929,-0.0055 0.05763,-0.01551 0.08614,-0.02439 0.0093,-0.0029 0.0139,-0.0073 0.02349,-0.0081 0.0377,-0.0035 -0.0031,0.0042 0.04698,0.0081 0.06101,0.0049 0.12178,-0.0055 0.182715,0 0.02835,0.0026 0.058,8.08e-4 0.08614,0.0054 0.0437,0.0072 0.08544,0.01626 0.130511,0.01626 0.02699,0 0.05417,-0.0064 0.08092,-0.0027 0.0055,7.55e-4 0.01044,0.0036 0.01566,0.0054 0.01479,0.0018 0.02951,0.0045 0.04437,0.0054 0.01131,7.58e-4 0.05512,-0.0017 0.06787,0.0027 0.0025,8.57e-4 -0.0018,0.0062 0,0.0081 0.0018,0.0019 0.0052,-2.25e-4 0.0078,0 0.0079,6.79e-4 0.01583,8.15e-4 0.02349,0.0027 0.02652,0.0065 0.06063,0.01938 0.08353,0.03523 0.0097,0.0067 0.01521,0.0185 0.02349,0.0271 0.01454,0.0151 0.04954,0.04057 0.06003,0.05691 0.0059,0.0091 0.0011,0.02242 0.0052,0.03252 6.02e-4,0.0015 0.02912,0.03732 0.03132,0.04878 0.0018,0.0093 -0.001,0.02023 0,0.02981 0.0011,0.01047 0.01641,0.02942 0.01566,0.03252 -6.26e-4,0.0026 -0.01892,0.0359 -0.02349,0.04065 -0.0028,0.0029 -0.008,0.0023 -0.01044,0.0054 -0.01151,0.01434 0.0034,0.0064 -0.0026,0.01897 -0.005,0.01044 -0.01816,0.01603 -0.02349,0.0271 -0.0068,0.01418 -0.01143,0.03503 -0.01044,0.03523 0.0044,9.04e-4 0.0017,-0.009 0.0026,-0.01355"
       id="path1244" />
    <path
       style="fill:none;fill-rule:evenodd;stroke:#000000;stroke-width:0.264583px;stroke-linecap:butt;stroke-linejoin:miter;stroke-opacity:1"
       d="m 37.937664,61.737548 c 0.101304,-0.556057 0.377104,-1.057956 0.612551,-1.5565 0.127538,-0.485045 0.459167,-0.896875 0.816936,-1.207571 l 0.09114,-0.06235"
       id="path1246" />
    <path
       style="fill:none;fill-rule:evenodd;stroke:#000000;stroke-width:0.264583px;stroke-linecap:butt;stroke-linejoin:miter;stroke-opacity:1"
       d="m 38.689726,61.043366 c 0.0529,-0.583064 0.715279,-0.805375 0.968206,-1.284235 0.08273,-0.268571 0.605524,-0.845479 0.611367,-0.837445"
       id="path1248" />
    <path
       style="fill:none;fill-rule:evenodd;stroke:#000000;stroke-width:0.264583px;stroke-linecap:butt;stroke-linejoin:miter;stroke-opacity:1"
       d="m 39.857399,60.365414 c 0.273376,-0.429271 0.653128,-0.789687 1.078946,-1.075802 0.254732,-0.177823 0.576676,-0.165808 0.826502,-0.354494 0.03902,0.0099 0.04804,-0.01591 0.01044,-0.03131"
       id="path1250" />
    <path
       style="fill:none;stroke:#000000;stroke-width:0.264999;stroke-dasharray:none;stroke-opacity:1"
       d="m 49.111734,48.827485 c -1.261037,0.765827 0.04557,2.147533 0.04067,3.168758 -0.431927,0.922095 -1.274789,1.933462 -0.545444,2.961912 0.580062,0.869392 0.670796,2.064159 -0.03335,2.888998 -0.949684,1.156763 0.413153,2.111804 0.377316,3.282525 0.02326,0.958764 -0.391756,1.841518 -0.664057,2.728396 -0.02555,1.201973 0.960201,2.18128 0.857588,3.411486 -7.49e-4,1.22415 -1.19633,1.944975 -0.955038,3.264657 -0.175031,1.198238 0.990235,2.141267 0.563074,3.344156 -0.454066,0.959187 -0.485373,2.053501 -0.329423,3.098392 0.0275,0.600377 0.740328,1.029556 0.487683,1.671159"
       id="path1553"
       sodipodi:nodetypes="cccccccccccc" />
    <path
       style="fill:#ffffff;fill-opacity:1;stroke:#000000;stroke-width:0.264999;stroke-dasharray:none;stroke-opacity:1"
       d="m 41.688784,77.362554 c -0.165957,-0.01329 -0.40368,-0.07585 -0.509092,0.09331 -0.04922,0.150699 -0.102014,0.301304 -0.139293,0.455664 -0.04774,0.177667 0.05775,0.354427 0.215744,0.433349 0.194655,0.126028 0.431155,0.06579 0.643295,0.03376 0.185605,0.02887 0.422146,-0.04121 0.47473,-0.242787 0.05563,-0.176934 0.03236,-0.37292 -0.02634,-0.545056 -0.116205,-0.180843 -0.344717,-0.219053 -0.534926,-0.278175 -0.04608,-0.0077 -0.100804,0.0057 -0.124113,0.04993 z"
       id="path1914" />
  </g>
  <g
     inkscape:groupmode="layer"
     id="layer6"
     inkscape:label="popisky"
     transform="translate(-24.363027,-23.905548)"
     style="display:inline">
    <path
       style="fill:none;fill-rule:evenodd;stroke:#808080;stroke-width:0.265;stroke-linecap:butt;stroke-linejoin:miter;stroke-dasharray:none;stroke-dashoffset:0;stroke-opacity:1"
       d="m 70.249825,42.633581 c 1.698012,-1.668644 0.732654,0.184317 0.751731,0.866554"
       id="path728" />
    <path
       style="fill:none;fill-rule:evenodd;stroke:#808080;stroke-width:0.265;stroke-linecap:butt;stroke-linejoin:miter;stroke-dasharray:none;stroke-dashoffset:0;stroke-opacity:1"
       d="m 71.836835,41.568657 c -1.382248,-1.383956 -3.623587,1.131916 -2.11949,2.349098 1.589923,1.124628 3.930148,-1.035486 2.119504,-2.349094 z"
       id="path730" />
    <path
       style="fill:none;fill-rule:evenodd;stroke:#808080;stroke-width:0.265;stroke-linecap:butt;stroke-linejoin:miter;stroke-dasharray:none;stroke-dashoffset:0;stroke-opacity:1"
       d="m 41.801521,72.043983 c 1.395602,-0.859477 0.513677,0.783522 0.58272,0.685164 1.350464,0.910811 -0.718931,1.25418 -1.134791,0.382629"
       id="path732" />
    <path
       style="fill:none;fill-rule:evenodd;stroke:#808080;stroke-width:0.265;stroke-linecap:butt;stroke-linejoin:miter;stroke-dasharray:none;stroke-dashoffset:0;stroke-opacity:1"
       d="m 42.874962,71.234247 c -2.389602,-1.122454 -3.559069,3.001878 -1.22678,3.230051 1.624491,0.186559 2.807383,-1.809817 1.656187,-2.794037 l -0.08179,-0.151268 -0.34759,-0.284745 z"
       id="path734" />
    <path
       style="fill:#ffffff;fill-opacity:1;fill-rule:evenodd;stroke:#808080;stroke-width:0.265;stroke-linecap:butt;stroke-linejoin:miter;stroke-dasharray:none;stroke-dashoffset:0;stroke-opacity:1"
       d="m 41.805991,38.125218 c -1.953336,-1.983746 -4.610887,2.451355 -1.90025,2.933758 1.466155,0.246177 2.704036,-1.725462 1.90025,-2.933758 z"
       id="path1296" />
    <path
       style="fill:none;fill-rule:evenodd;stroke:#808080;stroke-width:0.265;stroke-linecap:butt;stroke-linejoin:miter;stroke-dasharray:none;stroke-dashoffset:0;stroke-opacity:1"
       d="m 39.759581,39.043976 c 1.483399,-1.490673 1.236251,1.082188 0.01044,1.127562 0.06327,-0.105008 1.564972,0.275913 1.096296,1e-5"
       id="path1294" />
    <path
       style="fill:#ffffff;fill-opacity:1;fill-rule:evenodd;stroke:#808080;stroke-width:0.265;stroke-linecap:butt;stroke-linejoin:miter;stroke-dasharray:none;stroke-dashoffset:0;stroke-opacity:1"
       d="m 59.242834,75.197378 c -2.528948,-0.946965 -2.609582,4.195183 0.146179,2.50572 0.99122,-0.496956 0.71548,-2.021076 -0.146179,-2.50572 z"
       id="path1302" />
    <path
       style="fill:none;fill-rule:evenodd;stroke:#808080;stroke-width:0.265;stroke-linecap:butt;stroke-linejoin:miter;stroke-dasharray:none;stroke-dashoffset:0;stroke-opacity:1"
       d="m 58.866959,75.562794 c -0.921468,1.047076 -1.083572,1.746694 0.302791,1.49299"
       id="path1298" />
    <path
       style="fill:none;fill-rule:evenodd;stroke:#808080;stroke-width:0.265;stroke-linecap:butt;stroke-linejoin:miter;stroke-dasharray:none;stroke-dashoffset:0;stroke-opacity:1"
       d="m 58.856516,76.199662 c -0.185283,0.386798 -0.193765,1.162164 -0.417638,1.419899"
       id="path1300" />
  </g>
  <g
     inkscape:groupmode="layer"
     id="layer4"
     inkscape:label="schody"
     transform="translate(-24.363027,-23.905548)"
     style="display:inline">
    <path
       style="fill:none;fill-rule:evenodd;stroke:#000000;stroke-width:0.264583px;stroke-linecap:butt;stroke-linejoin:miter;stroke-opacity:1"
       d="m 73.476605,84.531079 c -2.496604,-0.526374 -1.219281,1.875518 -1.433937,2.852537 -0.1646,1.042991 0.295338,0.522138 1.044067,0.874841"
       id="path640" />
    <path
       style="fill:none;fill-rule:evenodd;stroke:#000000;stroke-width:0.264583px;stroke-linecap:butt;stroke-linejoin:miter;stroke-opacity:1"
       d="m 70.615372,84.861471 c -2.307198,-0.636029 -1.048952,1.464493 -1.275359,2.322055 -0.193035,0.830673 -0.01253,0.882512 1.024264,0.749186"
       id="path642" />
    <path
       style="fill:none;fill-rule:evenodd;stroke:#000000;stroke-width:0.264583px;stroke-linecap:butt;stroke-linejoin:miter;stroke-opacity:1"
       d="m 67.635194,84.963843 c -2.296045,-0.37319 -0.479943,1.772185 -0.852417,2.596602 -0.25681,0.440035 0.61232,0.141862 0.898728,0.269913"
       id="path644" />
    <path
       style="fill:none;fill-rule:evenodd;stroke:#000000;stroke-width:0.264583px;stroke-linecap:butt;stroke-linejoin:miter;stroke-opacity:1"
       d="m 65.223299,85.243051 c -1.857178,-0.435887 -0.392756,1.865236 -0.640977,2.559369 0.218905,-0.137308 0.756646,0.136763 0.878842,-0.0046"
       id="path646" />
    <path
       style="fill:none;fill-rule:evenodd;stroke:#000000;stroke-width:0.264583px;stroke-linecap:butt;stroke-linejoin:miter;stroke-opacity:1"
       d="m 63.062504,85.336117 c -1.729023,-0.545277 -0.344828,1.530299 -0.6012,2.191754 0.125731,-0.120168 0.587858,0.02032 0.640973,-0.05118"
       id="path648" />
    <path
       style="fill:none;fill-rule:evenodd;stroke:#000000;stroke-width:0.264583px;stroke-linecap:butt;stroke-linejoin:miter;stroke-opacity:1"
       d="m 60.696864,85.350076 c -1.567546,-0.445925 -0.302749,1.407103 -0.574967,2.014902 0.132417,-0.147255 0.695287,-0.06433 0.640979,-0.04187"
       id="path650" />
    <path
       style="fill:none;fill-rule:evenodd;stroke:#000000;stroke-width:0.264583px;stroke-linecap:butt;stroke-linejoin:miter;stroke-opacity:1"
       d="m 58.853249,85.480372 c -1.428646,-0.374273 -0.457812,1.232373 -0.561718,1.535606 0.196559,-0.173458 0.361322,0.0045 0.555063,-0.02325"
       id="path652" />
    <path
       style="fill:none;fill-rule:evenodd;stroke:#000000;stroke-width:0.264583px;stroke-linecap:butt;stroke-linejoin:miter;stroke-opacity:1"
       d="m 56.613159,85.564134 c -0.570126,-0.351895 -0.731937,1.671052 0.185046,1.284357"
       id="path654" />
    <path
       style="fill:none;fill-rule:evenodd;stroke:#000000;stroke-width:0.264583px;stroke-linecap:butt;stroke-linejoin:miter;stroke-opacity:1"
       d="m 54.710075,85.666509 c -0.847082,-0.480033 -0.590031,1.41198 -0.04629,1.065652"
       id="path656" />
    <path
       style="fill:none;fill-rule:evenodd;stroke:#000000;stroke-width:0.264583px;stroke-linecap:butt;stroke-linejoin:miter;stroke-opacity:1"
       d="m 63.912372,54.792305 c -0.477495,-0.0477 -0.965578,-0.152206 -1.432259,-0.07383 -0.08701,0.590085 -0.09454,1.203367 -0.191949,1.801337 0.192418,0.164748 0.01913,0.978176 0.06658,1.660046 0.468327,-0.101107 0.894146,-0.0082 1.351519,0.162761 0,0 0.718335,0.1307 0.46922,-0.05412"
       id="path529"
       sodipodi:nodetypes="cccccc" />
    <path
       style="fill:none;fill-rule:evenodd;stroke:#000000;stroke-width:0.264583px;stroke-linecap:butt;stroke-linejoin:miter;stroke-opacity:1"
       d="m 60.590111,55.043313 c -0.529682,0.04518 -1.069426,-0.07667 -1.586257,0.07037 -0.254864,0.441897 -0.04401,0.677229 0.07122,1.387461 0.208303,0.821602 0.187826,1.409364 0.809545,1.170355 0.350309,-0.03179 0.974682,0.225695 1.167734,0.0187"
       id="path531"
       sodipodi:nodetypes="ccccc" />
    <path
       style="fill:none;fill-rule:evenodd;stroke:#000000;stroke-width:0.264583px;stroke-linecap:butt;stroke-linejoin:miter;stroke-opacity:1"
       d="m 56.550147,54.990496 c -0.446069,0.05951 -0.959459,0.310916 -1.174854,0.764747 -0.226331,0.313198 -0.538436,1.015915 -0.04195,1.160306 0.372013,0.297264 0.727107,0.461735 1.062141,0.871678 0.298592,0.282588 0.560478,0.511645 1.09386,0.474855 0.320737,0.130763 0.773413,0.337744 0.977519,-0.01714 0,0 0.102432,-0.142581 0.177186,-0.191947"
       id="path533"
       sodipodi:nodetypes="ccccccc" />
    <path
       style="fill:none;fill-rule:evenodd;stroke:#000000;stroke-width:0.264583px;stroke-linecap:butt;stroke-linejoin:miter;stroke-opacity:1"
       d="m 55.599341,58.557387 c -0.03458,0.510891 -0.131172,1.04993 -0.09673,1.549429 0.140771,0.288955 0.780249,0.265244 1.128933,0.388016 0.471858,0.235388 1.425598,0.359494 1.951211,0.229755 0.219594,-0.589622 0.08149,-0.449681 0.132155,-1.118897"
       id="path535"
       sodipodi:nodetypes="ccccc" />
    <path
       style="fill:none;fill-rule:evenodd;stroke:#000000;stroke-width:0.264583px;stroke-linecap:butt;stroke-linejoin:miter;stroke-opacity:1"
       d="m 55.998011,62.03824 c -0.104814,0.388483 0.03058,0.997784 0.188243,1.210835 0.563723,-0.194078 1.025317,-0.264541 1.605595,-0.241216 0.424745,0.04671 0.969613,0.194803 0.762448,-0.461768 v -0.625968"
       id="path537"
       sodipodi:nodetypes="ccccc" />
    <path
       style="fill:none;fill-rule:evenodd;stroke:#000000;stroke-width:0.264583px;stroke-linecap:butt;stroke-linejoin:miter;stroke-opacity:1"
       d="m 56.602483,65.078664 c 0.05,0.412066 0.06918,0.634485 0.282386,1.070462 0.505682,1.085467 0.625876,0.987454 1.081979,0.608931 0.312357,-0.546693 0.785773,-0.728822 1.145994,-1.214611 0.176235,-0.370241 -0.473718,-0.641499 -0.530837,-0.976702"
       id="path539"
       sodipodi:nodetypes="ccccc" />
    <path
       style="fill:none;fill-rule:evenodd;stroke:#000000;stroke-width:0.264583px;stroke-linecap:butt;stroke-linejoin:miter;stroke-opacity:1"
       d="m 60.782069,65.585537 c 0.380129,0.09556 1.120543,-0.231786 1.151519,0.347384 0.04511,0.493722 -0.04326,0.993678 -0.664257,0.863339 -0.318543,0.0057 -0.515022,0.09719 -0.856401,-0.01846"
       id="path541"
       sodipodi:nodetypes="cccc" />
    <path
       style="fill:none;fill-rule:evenodd;stroke:#000000;stroke-width:0.264583px;stroke-linecap:butt;stroke-linejoin:miter;stroke-opacity:1"
       d="m 63.604139,65.897446 c 0.331173,-0.04129 0.934862,0.0505 0.72273,0.641703 -0.0664,0.317543 -0.822906,0.207445 -0.916522,0.138992"
       id="path543"
       sodipodi:nodetypes="ccc" />
  </g>
  <g
     inkscape:groupmode="layer"
     id="layer5"
     inkscape:label="dvere"
     transform="translate(-24.363027,-23.905548)"
     style="display:inline">
    <path
       style="fill:none;fill-rule:evenodd;stroke:#000000;stroke-width:0.264583px;stroke-linecap:butt;stroke-linejoin:miter;stroke-opacity:1"
       d="m 73.34412,64.443096 c -0.254773,1.272946 0.538965,3.871614 -0.789912,4.312974 -0.731661,-0.876873 0.286382,-3.005693 0.125535,-4.34689 0.21379,-0.05789 0.508701,-0.249283 0.664377,0.03391 z"
       id="path689" />
    <path
       style="fill:none;fill-rule:evenodd;stroke:#000000;stroke-width:0.264583px;stroke-linecap:butt;stroke-linejoin:miter;stroke-opacity:1"
       d="m 73.349579,67.150277 c 0.698254,0.330445 0.743088,-1.446727 0.41342,-1.203394"
       id="path691" />
    <path
       style="fill:none;fill-rule:evenodd;stroke:#000000;stroke-width:0.264583px;stroke-linecap:butt;stroke-linejoin:miter;stroke-opacity:1"
       d="m 72.224408,67.254009 c -1.325463,0.433391 -0.39137,-1.09953 -0.634905,-1.675924"
       id="path693" />
    <path
       style="fill:none;fill-rule:evenodd;stroke:#000000;stroke-width:0.264583px;stroke-linecap:butt;stroke-linejoin:miter;stroke-opacity:1"
       d="m 74.282528,81.306448 c 1.398469,0.254328 4.715783,-0.887492 4.904248,0.568416 -0.895546,0.318406 -4.80357,0.595705 -4.848165,-0.369143 l -0.05609,-0.199326 z"
       id="path695" />
    <path
       style="fill:none;fill-rule:evenodd;stroke:#000000;stroke-width:0.264583px;stroke-linecap:butt;stroke-linejoin:miter;stroke-opacity:1"
       d="m 78.596916,81.04068 c 0.05558,-0.604171 -0.460747,-0.60786 -0.863776,-0.369088"
       id="path697" />
    <path
       style="fill:none;fill-rule:evenodd;stroke:#000000;stroke-width:0.264583px;stroke-linecap:butt;stroke-linejoin:miter;stroke-opacity:1"
       d="m 78.633831,82.10376 c 0.121751,1.130356 -0.95353,0.0632 -1.321524,0.420795"
       id="path699" />
    <path
       style="fill:none;fill-rule:evenodd;stroke:#000000;stroke-width:0.264583px;stroke-linecap:butt;stroke-linejoin:miter;stroke-dasharray:1.05833, 0.264583;stroke-dashoffset:0;stroke-opacity:1"
       d="m 49.592241,73.09401 c -0.100191,0.291951 -0.0444,0.60191 -0.06834,0.903701 -0.0356,0.401147 0.04885,0.799579 0.02405,1.200313 0.04198,0.281677 0.02088,0.561775 -0.0021,0.843143 0.01483,0.263305 -0.01134,0.527423 -0.01088,0.791505 -0.02512,0.342982 -0.07156,0.686448 -0.02919,1.030149 0.01844,0.217201 -0.0555,0.426708 -0.05934,0.640733 0.02953,0.126726 -0.03796,0.366523 -0.01662,0.415255"
       id="path1202" />
    <path
       style="fill:none;fill-rule:evenodd;stroke:#000000;stroke-width:0.264583px;stroke-linecap:butt;stroke-linejoin:miter;stroke-dasharray:1.05833, 0.264583;stroke-dashoffset:0;stroke-opacity:1"
       d="m 50.544625,73.957764 c -0.07955,0.268083 -0.0958,0.540298 -0.0629,0.81855 -0.01757,0.362722 0.0486,0.722325 0.0239,1.084853 0.008,0.224673 0.05335,0.446686 0.03162,0.673091 0.01991,0.217647 -0.03225,0.428509 -0.01704,0.645939 0.01096,0.306232 0.02358,0.613648 0.02701,0.919097 -0.01699,0.216497 0.02118,0.497076 -0.02941,0.656176 l -0.0028,-0.01385"
       id="path1204" />
  </g>
  <metadata
     id="metadata393">
    <rdf:RDF>
      <cc:Work
         rdf:about="">
        <cc:license
           rdf:resource="http://creativecommons.org/licenses/by/4.0/" />
      </cc:Work>
      <cc:License
         rdf:about="http://creativecommons.org/licenses/by/4.0/">
        <cc:permits
           rdf:resource="http://creativecommons.org/ns#Reproduction" />
        <cc:permits
           rdf:resource="http://creativecommons.org/ns#Distribution" />
        <cc:requires
           rdf:resource="http://creativecommons.org/ns#Notice" />
        <cc:requires
           rdf:resource="http://creativecommons.org/ns#Attribution" />
        <cc:permits
           rdf:resource="http://creativecommons.org/ns#DerivativeWorks" />
      </cc:License>
    </rdf:RDF>
  </metadata>
</svg>
