<?xml version="1.0" encoding="UTF-8" standalone="no"?>
<!-- Created with Inkscape (http://www.inkscape.org/) -->

<svg
   id="svg5"
   version="1.1"
   viewBox="0 0 80 80"
   height="80mm"
   width="80mm"
   inkscape:version="1.2.2 (b0a8486541, 2022-12-01)"
   sodipodi:docname="2023-05-27-Opustena_magova_vez_0.svg"
   inkscape:export-filename="2023-05-27-Opustena_magova_vez_0.png"
   inkscape:export-xdpi="300"
   inkscape:export-ydpi="300"
   xmlns:inkscape="http://www.inkscape.org/namespaces/inkscape"
   xmlns:sodipodi="http://sodipodi.sourceforge.net/DTD/sodipodi-0.dtd"
   xmlns="http://www.w3.org/2000/svg"
   xmlns:svg="http://www.w3.org/2000/svg"
   xmlns:rdf="http://www.w3.org/1999/02/22-rdf-syntax-ns#"
   xmlns:cc="http://creativecommons.org/ns#">
  <sodipodi:namedview
     id="namedview7"
     pagecolor="#ffffff"
     bordercolor="#666666"
     borderopacity="1.0"
     inkscape:showpageshadow="2"
     inkscape:pageopacity="0.0"
     inkscape:pagecheckerboard="0"
     inkscape:deskcolor="#d1d1d1"
     inkscape:document-units="mm"
     showgrid="true"
     showguides="true"
     inkscape:zoom="2.2588802"
     inkscape:cx="135.90805"
     inkscape:cy="169.55304"
     inkscape:window-width="1920"
     inkscape:window-height="1151"
     inkscape:window-x="0"
     inkscape:window-y="27"
     inkscape:window-maximized="1"
     inkscape:current-layer="layer2">
    <inkscape:grid
       type="xygrid"
       id="grid261"
       visible="true"
       units="mm"
       spacingx="5"
       spacingy="5"
       dotted="true"
       originx="-24.363026"
       originy="-23.905547" />
  </sodipodi:namedview>
  <defs
     id="defs2" />
  <g
     inkscape:groupmode="layer"
     id="layer2"
     inkscape:label="mrizka">
    <path
       style="fill:none;stroke:#cccccc;stroke-width:0.1;stroke-dasharray:none"
       d="M 0.41910429,2.8426222 C 13.687161,3.2231862 26.997969,2.8720001 40.236092,2.8335453 c 10.259102,0.195929 19.853803,-0.3204815 28.795984,0.1165461 3.735014,-0.062109 6.75947,0.079281 10.240726,0.1162354"
       id="path1008"
       sodipodi:nodetypes="cccc" />
    <path
       style="fill:none;stroke:#cccccc;stroke-width:0.1;stroke-dasharray:none"
       d="M 0.24279337,12.647316 C 18.710934,12.594682 37.146546,12.77186 55.684591,12.775652 c 7.967499,-0.04854 15.86695,0.06369 23.904573,-0.140804"
       id="path1010"
       sodipodi:nodetypes="ccc" />
    <path
       style="fill:none;stroke:#cccccc;stroke-width:0.1;stroke-dasharray:none"
       d="M 0.37655441,8.010903 C 15.874897,8.0453638 31.378225,8.2711497 46.872496,7.909219 58.84005,8.4641912 69.063993,7.4219697 79.756968,7.6666353"
       id="path1012"
       sodipodi:nodetypes="ccc" />
    <path
       style="fill:none;stroke:#cccccc;stroke-width:0.1;stroke-dasharray:none"
       d="M 0.65707563,18.002242 C 12.205481,17.799321 23.762192,18.134331 35.306073,17.758581 c 16.089154,0.03029 32.237488,-0.08513 44.907841,0.02617"
       id="path1014"
       sodipodi:nodetypes="ccc" />
    <path
       style="fill:none;stroke:#cccccc;stroke-width:0.1;stroke-dasharray:none"
       d="m 0.47215668,22.805694 c 9.97399732,0.100864 19.94038032,-0.449762 29.82037932,-0.0013 7.885957,0.03493 15.531262,-0.121638 23.405724,-0.05719 9.492818,0.03534 17.408418,-0.410595 25.961427,-0.217287"
       id="path1016"
       sodipodi:nodetypes="cccc" />
    <path
       style="fill:none;stroke:#cccccc;stroke-width:0.1;stroke-dasharray:none"
       d="m 0.30118148,27.466623 c 9.97399752,0.100864 19.94038152,-0.449762 29.82038052,-0.0013 7.885956,0.03493 15.531261,-0.121638 23.405723,-0.05719 9.492819,0.03534 17.408418,-0.410595 25.961427,-0.217287"
       id="path1016-7"
       sodipodi:nodetypes="cccc" />
    <path
       style="fill:none;stroke:#cccccc;stroke-width:0.1;stroke-dasharray:none"
       d="M 0.53242723,32.18823 C 13.800484,32.568794 27.111291,32.21761 40.349415,32.17913 c 10.259102,0.195929 19.853802,-0.32048 28.795987,0.116546 3.735007,-0.06211 6.759468,0.07928 10.240721,0.116235"
       id="path1008-3"
       sodipodi:nodetypes="cccc" />
    <path
       style="fill:none;stroke:#cccccc;stroke-width:0.1;stroke-dasharray:none"
       d="M 0.60680171,37.246516 C 19.074942,37.193876 37.510554,37.37106 56.048599,37.374852 c 7.967499,-0.04854 15.866954,0.06369 23.904571,-0.140804"
       id="path1010-6"
       sodipodi:nodetypes="ccc" />
    <path
       style="fill:none;stroke:#cccccc;stroke-width:0.1;stroke-dasharray:none"
       d="M 0.65174138,42.063686 C 16.150084,42.098146 31.653412,42.323932 47.147683,41.962003 c 11.967554,0.554971 22.191495,-0.48725 32.884473,-0.242584"
       id="path1012-7"
       sodipodi:nodetypes="ccc" />
    <path
       style="fill:none;stroke:#cccccc;stroke-width:0.1;stroke-dasharray:none"
       d="M 0.71485118,47.36921 C 12.263257,47.16629 23.819966,47.5013 35.363848,47.12555 c 16.089155,0.03029 32.237491,-0.08513 44.907844,0.02617"
       id="path1014-5"
       sodipodi:nodetypes="ccc" />
    <path
       style="fill:none;stroke:#cccccc;stroke-width:0.1;stroke-dasharray:none"
       d="M 0.52254451,52.64373 C 10.496542,52.744594 20.462925,52.193969 30.342924,52.64243 c 7.885957,0.03493 15.531261,-0.121638 23.405724,-0.05719 9.492817,0.03534 17.408412,-0.410595 25.961432,-0.217287"
       id="path1016-3"
       sodipodi:nodetypes="cccc" />
    <path
       style="fill:none;stroke:#cccccc;stroke-width:0.1;stroke-dasharray:none"
       d="m 0.57791469,57.538021 c 13.26805631,0.380565 26.57886331,0.02938 39.81698731,-0.0091 10.259102,0.195929 19.853802,-0.320481 28.795983,0.116546 3.735015,-0.06211 6.759468,0.07928 10.240731,0.116235"
       id="path1008-5"
       sodipodi:nodetypes="cccc" />
    <path
       style="fill:none;stroke:#cccccc;stroke-width:0.1;stroke-dasharray:none"
       d="M 0.52793192,62.70017 C 18.996072,62.64754 37.431685,62.824714 55.969729,62.828506 c 7.967499,-0.04854 15.86695,0.06369 23.904576,-0.140804"
       id="path1010-62"
       sodipodi:nodetypes="ccc" />
    <path
       style="fill:none;stroke:#cccccc;stroke-width:0.1;stroke-dasharray:none"
       d="M 0.52019764,68.046594 C 16.01854,68.081054 31.521868,68.30684 47.01614,67.94491 58.983693,68.499882 69.207636,67.45766 79.900607,67.702326"
       id="path1012-9"
       sodipodi:nodetypes="ccc" />
    <path
       style="fill:none;stroke:#cccccc;stroke-width:0.1;stroke-dasharray:none"
       d="m 0.24980789,72.914492 c 11.54840511,-0.20292 23.10511411,0.13209 34.64899611,-0.24366 16.089155,0.03029 32.237487,-0.08513 44.907839,0.02617"
       id="path1014-1"
       sodipodi:nodetypes="ccc" />
    <path
       style="fill:none;stroke:#cccccc;stroke-width:0.1;stroke-dasharray:none"
       d="m 0.34168861,77.839278 c 9.97399739,0.100863 19.94038039,-0.449762 29.82037939,-0.0013 7.885957,0.03493 15.531261,-0.121638 23.405723,-0.05719 9.492818,0.03534 17.408418,-0.410596 25.961427,-0.217288"
       id="path1016-2"
       sodipodi:nodetypes="cccc" />
    <path
       style="fill:none;stroke:#cccccc;stroke-width:0.1;stroke-dasharray:none"
       d="M 2.7453935,79.63996 C 3.1259575,66.371903 2.7747735,53.061095 2.7362935,39.822972 2.9322225,29.56387 2.4158125,19.969169 2.8528395,11.02699 2.7907295,7.2919697 2.9321195,4.2675197 2.9690755,0.78625974"
       id="path1008-0"
       sodipodi:nodetypes="cccc" />
    <path
       style="fill:none;stroke:#cccccc;stroke-width:0.1;stroke-dasharray:none"
       d="M 12.550087,79.816271 C 12.497457,61.34813 12.674631,42.912518 12.678423,24.374473 12.629883,16.406974 12.742113,8.5075197 12.537619,0.46989976"
       id="path1010-9"
       sodipodi:nodetypes="ccc" />
    <path
       style="fill:none;stroke:#cccccc;stroke-width:0.1;stroke-dasharray:none"
       d="M 7.7622608,79.68251 C 7.7967208,64.184167 8.0225076,48.680839 7.6605768,33.186568 8.2155486,21.219014 7.1733278,10.99507 7.4179928,0.30209976"
       id="path1012-3"
       sodipodi:nodetypes="ccc" />
    <path
       style="fill:none;stroke:#cccccc;stroke-width:0.1;stroke-dasharray:none"
       d="M 17.905013,79.401988 C 17.702092,67.853583 18.037102,56.296872 17.661352,44.752991 17.691642,28.663837 17.576222,12.515503 17.687522,-0.15485024"
       id="path1014-6"
       sodipodi:nodetypes="ccc" />
    <path
       style="fill:none;stroke:#cccccc;stroke-width:0.1;stroke-dasharray:none"
       d="M 22.708465,79.586907 C 22.809329,69.61291 22.258703,59.646527 22.707165,49.766528 22.742095,41.880571 22.585527,34.235266 22.649975,26.360804 22.685315,16.867986 22.23938,8.9523897 22.432688,0.39937976"
       id="path1016-0"
       sodipodi:nodetypes="cccc" />
    <path
       style="fill:none;stroke:#cccccc;stroke-width:0.1;stroke-dasharray:none"
       d="M 27.369394,79.757883 C 27.470258,69.783885 26.919632,59.817501 27.368094,49.937502 27.403024,42.051546 27.246456,34.406241 27.310904,26.531779 27.346244,17.03896 26.900309,9.1233597 27.093617,0.57034976"
       id="path1016-7-6"
       sodipodi:nodetypes="cccc" />
    <path
       style="fill:none;stroke:#cccccc;stroke-width:0.1;stroke-dasharray:none"
       d="M 32.091001,79.526637 C 32.471565,66.25858 32.120381,52.947773 32.081901,39.709649 32.27783,29.450547 31.761421,19.855847 32.198447,10.91366 32.136337,7.1786497 32.277727,4.1541897 32.314682,0.67293974"
       id="path1008-3-2"
       sodipodi:nodetypes="cccc" />
    <path
       style="fill:none;stroke:#cccccc;stroke-width:0.1;stroke-dasharray:none"
       d="M 37.149287,79.452262 C 37.096647,60.984122 37.273831,42.54851 37.277623,24.010465 37.229083,16.042966 37.341313,8.1435097 37.136819,0.10588976"
       id="path1010-6-6"
       sodipodi:nodetypes="ccc" />
    <path
       style="fill:none;stroke:#cccccc;stroke-width:0.1;stroke-dasharray:none"
       d="M 42.243998,79.630581 C 42.278458,64.132238 42.504244,48.62891 42.142315,33.134639 42.697286,21.167085 41.655065,10.943148 41.899731,0.25016796"
       id="path1012-7-1"
       sodipodi:nodetypes="ccc" />
    <path
       style="fill:none;stroke:#cccccc;stroke-width:0.1;stroke-dasharray:none"
       d="m 47.271981,79.344213 c -0.20292,-11.548406 0.13209,-23.105115 -0.24366,-34.648997 0.03029,-16.089155 -0.08513,-32.237491 0.02617,-44.90784624"
       id="path1014-5-8"
       sodipodi:nodetypes="ccc" />
    <path
       style="fill:none;stroke:#cccccc;stroke-width:0.1;stroke-dasharray:none"
       d="M 52.546501,79.536519 C 52.647365,69.562522 52.09674,59.596139 52.545201,49.71614 52.580131,41.830183 52.423563,34.184879 52.488011,26.310416 52.523351,16.817599 52.077416,8.9019997 52.270724,0.34897976"
       id="path1016-3-7"
       sodipodi:nodetypes="cccc" />
    <path
       style="fill:none;stroke:#cccccc;stroke-width:0.1;stroke-dasharray:none"
       d="M 57.525794,79.481149 C 57.906359,66.213093 57.555174,52.902286 57.516694,39.664162 57.712623,29.40506 57.196213,19.81036 57.63324,10.86818 57.57113,7.1331597 57.71252,4.1087097 57.749475,0.62744976"
       id="path1008-5-9"
       sodipodi:nodetypes="cccc" />
    <path
       style="fill:none;stroke:#cccccc;stroke-width:0.1;stroke-dasharray:none"
       d="M 62.602941,79.531132 C 62.550311,61.062992 62.727485,42.627379 62.731277,24.089335 62.682737,16.121836 62.794967,8.2223797 62.590473,0.18475976"
       id="path1010-62-2"
       sodipodi:nodetypes="ccc" />
    <path
       style="fill:none;stroke:#cccccc;stroke-width:0.1;stroke-dasharray:none"
       d="M 67.793022,79.518141 C 67.827482,64.019799 68.053268,48.516471 67.691338,33.022199 68.246307,21.054646 67.204088,10.8307 67.448754,0.13772988"
       id="path1012-9-0"
       sodipodi:nodetypes="ccc" />
    <path
       style="fill:none;stroke:#cccccc;stroke-width:0.1;stroke-dasharray:none"
       d="m 72.817264,79.809256 c -0.20292,-11.548405 0.13209,-23.105114 -0.24366,-34.648996 0.0303,-16.089155 -0.0851,-32.237487 0.0262,-44.90784024"
       id="path1014-1-2"
       sodipodi:nodetypes="ccc" />
    <path
       style="fill:none;stroke:#cccccc;stroke-width:0.1;stroke-dasharray:none"
       d="m 77.742044,79.717375 c 0.10087,-9.973997 -0.44976,-19.94038 -0.001,-29.820379 0.0349,-7.885957 -0.12163,-15.531261 -0.0572,-23.405723 0.0353,-9.492818 -0.41059,-17.4084233 -0.21728,-25.96142324"
       id="path1016-2-3"
       sodipodi:nodetypes="cccc" />
  </g>
  <g
     inkscape:label="pudorys"
     inkscape:groupmode="layer"
     id="layer1"
     transform="translate(-24.363027,-23.905548)">
    <path
       style="fill:none;fill-rule:evenodd;stroke:#000000;stroke-width:0.365;stroke-linecap:butt;stroke-linejoin:miter;stroke-dasharray:none;stroke-opacity:1"
       d="m 66.92285,86.663349 c -2.014428,0.01711 -4.069247,-0.660918 -6.067176,-8e-6 -2.125257,-0.218969 -4.401584,0.489975 -6.374386,-0.460789 -1.644913,0.408437 -3.329963,0.813846 -5.084355,0.540405 -1.873601,-0.190856 -3.736016,0.07291 -5.579805,-0.41655 -0.46336,-0.305488 -2.017543,0.951224 -1.95966,0.132077 0.416617,-1.521575 -0.15174,-3.348079 0.03892,-4.757894 1.126626,-0.24563 2.255206,0.02273 3.365646,-0.158542 2.336458,0.381554 4.432395,1.443829 6.817449,0.284046 3.748129,-0.924016 7.792026,0.06507 11.574934,-0.89236 4.209715,0.02475 8.342807,1.063436 12.570189,0.775408 1.985388,-1.201519 4.477883,-1.240514 6.332874,0.03342 2.222795,-0.09141 5.522591,-1.068682 4.728773,2.556457 1.067319,3.792725 -3.408054,1.385656 -5.480682,2.205561 0.161307,1.484344 -1.792784,6.835208 2.122081,5.096165 2.768883,-1.573108 8.733092,2.763061 7.903563,-2.18885 -0.779847,-2.197883 0.01112,-4.150706 0.250641,-6.182241 -0.03204,-2.903652 0.165649,-5.937255 -0.467858,-8.772107 -0.119502,-3.203139 0.428511,-6.320089 0.174063,-9.54073 -0.207866,-1.892355 1.244414,-3.855039 -1.410549,-3.30832 -3.05682,-0.355592 -6.108984,0.209239 -9.206895,-0.317471 -2.892136,-0.175866 -6.272514,0.820669 -8.856,0.56809 -2.519785,-0.316022 -6.62407,1.336365 -5.578299,-2.831184 0.375471,-3.576471 0.244506,-7.141172 -0.05278,-10.736334 1.432643,-2.276903 -2.112478,-7.868353 2.138807,-6.967566 4.981846,-1.612365 2.599973,4.424172 2.954061,7.358811 0.312955,2.593721 0.150686,5.643681 0.115723,7.909601 3.463829,0.134024 7.41537,-0.706911 10.799043,0.187189 3.073153,-0.227313 6.128932,-0.615523 9.206891,-0.217202 0.02896,-2.992864 -0.429575,-6.060098 0.1337,-9.03945 -0.978816,-2.377511 -0.168006,-5.156355 -0.568119,-7.702747 0.158867,-1.982412 1.491529,-3.515693 -1.186372,-2.857195 -2.788744,-1.06806 -5.72416,0.570005 -8.722328,-0.06684 -3.093905,-0.409361 -6.251875,-0.917053 -9.323857,-0.05013 -2.817789,-0.13619 -6.926057,0.575108 -4.912565,-3.425297 -0.27972,-1.78532 -0.914215,-2.97275 -0.284055,-4.962505 -1.096179,-3.690475 4.397993,-0.871949 6.583509,-1.754416 4.089119,0.301447 8.021793,-1.031569 12.080917,-0.985813 3.299953,0.697536 6.690124,0.178225 10.008949,0.718465 1.64063,0.73376 5.673148,-0.06089 5.915128,0.685087 -0.26303,3.431678 0.76591,6.826747 0.63456,10.200635 -0.86849,3.687373 -0.16265,7.375814 -0.28356,11.086337 0.42526,3.423162 -0.57254,6.749037 -0.2507,10.142218 0.81705,3.427187 -0.54502,6.788507 -0.18384,10.242475 0.0202,3.291461 1.08218,6.539318 0.31756,9.77463 -0.34311,3.600964 0.25703,7.174888 0.26728,10.727026 -0.34958,3.080123 -0.37254,6.234042 -0.49686,9.335678 1.92023,4.147451 -3.086482,2.856401 -5.911156,3.075001 -8.656329,0.23761 -17.305713,-0.32002 -25.974842,-0.34695 -3.913276,-0.17382 -7.694156,-0.80276 -11.646467,0.0167 -3.269681,0.62253 -6.49483,0.19623 -9.741597,0.11696 -2.682787,-0.40538 -5.595204,-0.56821 -8.404842,-0.40102 -3.286103,0.20731 -6.592688,0.89869 -9.858862,0.23649 -2.223038,0.14216 -3.9943,0.70635 -3.071556,-2.295105 0.228087,-3.448128 -0.783298,-6.79874 -0.503962,-10.188907 1.589892,-3.541918 -0.327315,-7.188952 0.350901,-10.843984 0.06699,-2.014899 0.469824,-1.579597 0.367611,-4.294155 0.05057,-4.068636 -0.483067,-8.092921 -0.229672,-12.168393 -0.09447,-3.886741 0.721814,-7.747523 0.196257,-11.608188 -0.121133,-3.66716 -0.260606,-7.344108 0.217219,-10.994366 -0.287443,-2.952595 -0.412509,-5.844026 -0.200516,-8.800013 0.406639,-2.089075 -1.469689,-4.252966 1.813305,-3.349935 3.034383,-0.02564 6.083839,-0.502771 9.12145,-0.06495 3.666988,-0.02885 7.311732,-0.175245 10.97646,-0.30126 4.003839,0.441224 8.000923,-0.0045 11.986672,0.4253 1.935743,-0.385788 0.303412,2.944853 0.832946,4.17657 -0.182541,1.925693 -0.470643,4.259071 -0.09449,5.954695 -0.632545,4.05142 0.110223,8.124936 -0.324942,12.175237 0.528898,2.217374 0.09196,4.490899 0.283569,6.70495 0.574726,1.819674 0.619942,4.37699 -0.170916,5.846164 -1.597902,-0.457868 -3.343246,0.413768 -4.986068,-0.0591 -3.140675,-0.175464 -6.297317,0.233785 -9.442608,-0.05936 -0.849963,0.0023 -3.325939,0.719597 -4.794883,0.319287 -0.512074,-1.469344 -0.20145,-3.607877 -0.189095,-5.20445 2.088005,-0.452732 4.551337,-0.499866 5.429159,0.129996 2.906929,-0.393887 5.851867,-0.427569 8.778805,-0.289447 1.354335,0.225588 0.532148,-2.687474 0.714822,-3.644903 -0.173888,-4.173052 -0.0224,-8.372135 -0.2127,-12.535584 -0.192606,-0.529294 0.663446,-3.044848 -0.3783,-3.801832 -2.607753,0.06122 -5.191891,-0.231764 -7.82176,-0.21269 -2.704819,-0.13965 -5.446542,0.190116 -8.176222,0.05318 -1.012221,0.863904 -3.609229,-0.318818 -3.84194,0.803233 -0.313045,3.263369 0.154758,6.496502 -0.08612,9.758091 0.427825,4.383279 0.617523,8.787728 0.383905,13.196555 -0.847595,3.466899 0.35578,6.965045 -0.106289,10.408911 -0.298221,2.905143 0.607661,5.782912 -0.124926,8.629576 0.541149,2.424365 -0.492786,4.912314 0.265841,7.313412 0.419251,2.255498 -1.606377,6.817399 2.457608,5.28714 2.789766,0.07416 5.618691,0.103362 8.400712,-0.04724 2.539185,-0.8087 5.239922,0.19431 7.839485,0.141759 3.229285,-0.04214 6.452419,-0.485297 9.664955,-0.112233 0.372429,-0.167129 1.378937,0.06848 1.559623,-0.2363"
       id="path263"
       sodipodi:nodetypes="csccsssscssssscsccsssssscsscccscssccsssssssccssccsccssssssssccssssscssscsscscssssssssssssssc" />
    <path
       style="fill:none;fill-rule:evenodd;stroke:#000000;stroke-width:0.317531;stroke-linecap:butt;stroke-linejoin:miter;stroke-dasharray:none;stroke-opacity:1"
       d="m 46.646588,51.568418 c 1.850595,0.703357 3.675307,-0.201941 5.533678,-0.03617 1.519409,-0.11198 3.03684,-0.12222 4.542397,0.03624 -0.182611,-0.160545 0.454611,0.04443 0.285723,-0.09969"
       id="path502" />
    <path
       style="fill:none;fill-rule:evenodd;stroke:#000000;stroke-width:0.365;stroke-linecap:butt;stroke-linejoin:miter;stroke-dasharray:none;stroke-opacity:1"
       d="m 56.4236,81.302426 c 0.517076,-3.460121 0.471422,-5.222975 3.662183,-7.561026 2.47681,-0.821806 5.389696,-1.853652 7.84108,-0.334108 1.420276,0.699126 2.062147,2.250596 2.954765,3.47667 0.546282,0.541063 0.963052,4.685425 0.749531,4.586981"
       id="path595"
       sodipodi:nodetypes="ccccc" />
    <path
       style="fill:none;fill-rule:evenodd;stroke:#000000;stroke-width:0.365;stroke-linecap:butt;stroke-linejoin:miter;stroke-dasharray:none;stroke-opacity:1"
       d="m 57.423365,81.060154 c 0.23194,-2.451397 0.808494,-5.450756 3.153117,-6.754966 1.789254,-0.778919 3.862038,-0.621664 5.794674,-0.668148 1.844543,0.613655 3.02943,2.547486 3.570772,4.322353 0.145164,0.745439 0.728034,2.923404 0.698585,3.5472"
       id="path597"
       sodipodi:nodetypes="ccccc" />
    <path
       style="fill:none;fill-rule:evenodd;stroke:#000000;stroke-width:0.365;stroke-linecap:butt;stroke-linejoin:miter;stroke-dasharray:none;stroke-opacity:1"
       d="m 58.519656,81.446448 c 0.60942,-1.965708 0.02851,-4.713299 2.067264,-5.951059 1.91561,-0.567676 4.21332,-1.823204 6.066143,-0.438489 1.974095,0.999325 2.076928,3.458006 2.547609,5.355932 l 0.07712,0.905489"
       id="path599"
       sodipodi:nodetypes="ccccc" />
    <path
       style="fill:none;fill-rule:evenodd;stroke:#000000;stroke-width:0.365;stroke-linecap:butt;stroke-linejoin:miter;stroke-dasharray:none;stroke-opacity:1"
       d="m 36.870837,69.002783 c -1.34123,0.767815 -3.157763,0.73766 -4.729704,1.148468 -1.74132,-0.01884 -3.308414,-1.074413 -5.032491,-1.294597 l 0.104408,0.114845"
       id="path601" />
    <path
       style="fill:none;fill-rule:evenodd;stroke:#000000;stroke-width:0.365;stroke-linecap:butt;stroke-linejoin:miter;stroke-dasharray:none;stroke-opacity:1"
       d="m 27.317453,74.671946 c 2.0647,-0.344663 4.403188,-1.532021 6.431566,-0.417614 1.026421,0.135063 2.287512,0.51779 3.215796,0.490703"
       id="path603" />
    <path
       style="fill:none;fill-rule:evenodd;stroke:#000000;stroke-width:0.365;stroke-linecap:butt;stroke-linejoin:miter;stroke-dasharray:none;stroke-opacity:1"
       d="m 31.808827,73.48 c 0.414271,-0.962435 1.283716,-2.496746 1.846229,-3.234795"
       id="path605"
       sodipodi:nodetypes="cc" />
    <path
       style="fill:none;fill-rule:evenodd;stroke:#000000;stroke-width:0.365;stroke-linecap:butt;stroke-linejoin:miter;stroke-dasharray:none;stroke-opacity:1"
       d="m 32.400508,73.475585 c 0.600905,-0.826668 1.701427,-2.587032 2.040535,-3.352686"
       id="path607"
       sodipodi:nodetypes="cc" />
    <path
       style="fill:none;fill-rule:evenodd;stroke:#000000;stroke-width:0.365;stroke-linecap:butt;stroke-linejoin:miter;stroke-dasharray:none;stroke-opacity:1"
       d="m 32.329066,70.328718 c 0.07662,0.421134 0.220254,0.813887 0.354988,1.211096"
       id="path609" />
    <path
       style="fill:none;fill-rule:evenodd;stroke:#000000;stroke-width:0.365;stroke-linecap:butt;stroke-linejoin:miter;stroke-dasharray:none;stroke-opacity:1"
       d="m 31.639116,70.432574 c 0.207463,0.44974 0.630489,1.215247 0.846566,1.650137"
       id="path611"
       sodipodi:nodetypes="cc" />
    <path
       style="fill:none;fill-rule:evenodd;stroke:#000000;stroke-width:0.365;stroke-linecap:butt;stroke-linejoin:miter;stroke-dasharray:none;stroke-opacity:1"
       d="m 33.206096,72.2602 c 0.492628,0.257597 0.662522,1.427683 1.145458,1.701541"
       id="path613"
       sodipodi:nodetypes="cc" />
    <path
       style="fill:none;fill-rule:evenodd;stroke:#000000;stroke-width:0.365;stroke-linecap:butt;stroke-linejoin:miter;stroke-dasharray:none;stroke-opacity:1"
       d="m 32.976398,72.615178 c -0.119277,0.598747 0.586969,0.766811 0.553362,1.305052"
       id="path615" />
    <path
       style="fill:none;fill-rule:evenodd;stroke:#000000;stroke-width:0.365;stroke-linecap:butt;stroke-linejoin:miter;stroke-dasharray:none;stroke-opacity:1"
       d="m 76.68326,26.615834 c -0.0025,2.09138 1.99274,3.887166 1.169381,5.91973 -0.251145,1.266535 -0.898751,2.598915 -1.211152,3.727239"
       id="path617" />
    <path
       style="fill:none;fill-rule:evenodd;stroke:#000000;stroke-width:0.365;stroke-linecap:butt;stroke-linejoin:miter;stroke-dasharray:none;stroke-opacity:1"
       d="m 81.747078,36.513376 c -0.815662,-2.418915 -1.183813,-5.368622 0.302783,-7.600646 0.36699,-0.913743 1.237662,-2.313294 1.451267,-2.923314"
       id="path619" />
    <path
       style="fill:none;fill-rule:evenodd;stroke:#000000;stroke-width:0.365;stroke-linecap:butt;stroke-linejoin:miter;stroke-dasharray:none;stroke-opacity:1"
       d="m 78.092775,29.852371 c 0.980052,0.964613 1.787978,2.119791 2.819026,2.975521"
       id="path621" />
    <path
       style="fill:none;fill-rule:evenodd;stroke:#000000;stroke-width:0.365;stroke-linecap:butt;stroke-linejoin:miter;stroke-dasharray:none;stroke-opacity:1"
       d="m 78.186744,30.635406 c 0.741874,1.219133 1.498519,2.668387 2.683323,3.445337"
       id="path623" />
    <path
       style="fill:none;fill-rule:evenodd;stroke:#000000;stroke-width:0.365;stroke-linecap:butt;stroke-linejoin:miter;stroke-dasharray:none;stroke-opacity:1"
       d="m 77.76911,32.713054 c 0.246955,-0.202722 1.16438,-0.488652 1.138058,-0.657742"
       id="path625" />
    <path
       style="fill:none;fill-rule:evenodd;stroke:#000000;stroke-width:0.365;stroke-linecap:butt;stroke-linejoin:miter;stroke-dasharray:none;stroke-opacity:1"
       d="m 77.602055,33.704898 c 0.312025,-0.636804 1.152456,-0.669578 1.670539,-1.044045"
       id="path627" />
    <path
       style="fill:none;fill-rule:evenodd;stroke:#000000;stroke-width:0.365;stroke-linecap:butt;stroke-linejoin:miter;stroke-dasharray:none;stroke-opacity:1"
       d="m 79.815514,31.439318 c 0.105284,0.06558 1.740884,-0.600771 1.200704,-0.511575"
       id="path629" />
    <path
       style="fill:none;fill-rule:evenodd;stroke:#000000;stroke-width:0.365;stroke-linecap:butt;stroke-linejoin:miter;stroke-dasharray:none;stroke-opacity:1"
       d="m 80.264475,32.076186 c -0.206272,-0.620845 0.420216,-0.209649 0.636885,-0.386294"
       id="path631" />
    <path
       style="fill:none;fill-rule:evenodd;stroke:#000000;stroke-width:0.365;stroke-linecap:butt;stroke-linejoin:miter;stroke-dasharray:none;stroke-opacity:1"
       d="m 87.048444,91.27273 c 1.381548,1.809569 1.417739,4.1494 0.974578,6.267747 -0.647288,1.266942 -1.050454,2.766183 -1.506101,4.023463"
       id="path635" />
    <path
       style="fill:none;fill-rule:evenodd;stroke:#000000;stroke-width:0.365;stroke-linecap:butt;stroke-linejoin:miter;stroke-dasharray:none;stroke-opacity:1"
       d="m 92.053982,101.45321 c -0.117848,-2.348671 -1.891537,-4.425724 -1.343655,-6.80668 0.200349,-0.889617 0.477187,-2.144324 0.62013,-2.901335"
       id="path637" />
  </g>
  <g
     inkscape:groupmode="layer"
     id="layer3"
     inkscape:label="nabytek"
     transform="translate(-24.363027,-23.905548)">
    <path
       style="fill:none;fill-rule:evenodd;stroke:#000000;stroke-width:0.264583px;stroke-linecap:butt;stroke-linejoin:miter;stroke-opacity:1"
       d="m 42.904076,36.796517 c -0.442902,3.201512 0.0738,6.449453 -0.242295,9.657667 0.304948,0.745626 2.701873,0.915426 2.857368,-0.183724 0.263344,-2.43018 0.310334,-4.978097 -0.116983,-7.376922 -0.321181,-1.852083 -0.198751,-2.569582 -2.49809,-2.097021 z"
       id="path506" />
    <path
       style="fill:none;fill-rule:evenodd;stroke:#000000;stroke-width:0.264583px;stroke-linecap:butt;stroke-linejoin:miter;stroke-opacity:1"
       d="m 49.404041,36.913479 c -0.150032,2.252745 -0.297471,4.53043 -0.04179,6.767051 0.02322,1.209746 -0.86435,4.138003 1.821338,3.216495 1.724101,-0.536932 0.747087,-4.256171 0.810366,-5.973393 -0.603655,-1.145858 0.576499,-3.596692 -0.442803,-4.051921 -0.687657,0.127513 -1.590949,-0.522371 -2.147111,0.04177 z"
       id="path508" />
    <path
       style="fill:none;fill-rule:evenodd;stroke:#000000;stroke-width:0.264583px;stroke-linecap:butt;stroke-linejoin:miter;stroke-opacity:1"
       d="m 72.435078,47.322518 c -0.103438,-0.498958 0.352226,3.168794 0.3928,4.185546 0.522227,1.433276 -0.876307,3.74866 0.249065,4.644223 1.017734,-0.802105 3.429286,0.688606 3.560725,-0.709333 -0.09598,-2.134856 0.035,-4.291178 -0.0167,-6.424522 0.829127,-2.090909 -0.987831,-2.964907 -2.773799,-2.372693 -0.568002,8.62e-4 -1.459949,-0.148037 -1.412091,0.676779 z"
       id="path510"
       sodipodi:nodetypes="ccccccc" />
    <path
       style="fill:none;fill-rule:evenodd;stroke:#000000;stroke-width:0.264583px;stroke-linecap:butt;stroke-linejoin:miter;stroke-opacity:1"
       d="m 79.561649,46.812901 c 0.243265,2.677132 -0.06196,5.397494 -0.375987,8.053628 0.157316,1.145355 1.876569,1.036817 2.800771,1.117731 1.469476,0.126647 2.321354,-0.545614 1.961415,-2.073258 0.129633,-2.409693 -0.269122,-4.793791 -0.25915,-7.198333 -1.095511,-0.667975 -3.091529,-0.525287 -4.127049,0.100232 z"
       id="path512" />
    <path
       style="fill:none;fill-rule:evenodd;stroke:#000000;stroke-width:0.264583px;stroke-linecap:butt;stroke-linejoin:miter;stroke-opacity:1"
       d="m 87.005701,46.411891 c -0.294648,2.96941 0.08519,5.980754 -0.275821,8.947546 0.523207,1.080718 2.945162,0.721017 4.143938,0.576392 1.050714,-1.185907 0.315456,-4.115246 0.401037,-5.931664 -0.380894,-1.342924 0.836315,-4.237492 -1.629265,-3.767817 -0.878987,0.01571 -1.795519,-0.07325 -2.639889,0.175543 z"
       id="path514" />
    <path
       style="fill:none;fill-rule:evenodd;stroke:#000000;stroke-width:0.264583px;stroke-linecap:butt;stroke-linejoin:miter;stroke-opacity:1"
       d="m 73.487771,53.646787 c 0.154684,1.401707 -0.342748,2.239727 1.370123,1.679186 1.70122,0.80528 1.314702,-1.168753 0.985896,-1.837934 -0.774936,-0.06701 -1.598402,-0.01696 -2.356019,0.158748 z"
       id="path516" />
    <path
       style="fill:none;fill-rule:evenodd;stroke:#000000;stroke-width:0.264583px;stroke-linecap:butt;stroke-linejoin:miter;stroke-opacity:1"
       d="m 80.288507,53.153879 c 0.08357,1.647633 -1.063253,2.181817 1.175485,1.937506 1.693532,0.283264 1.969233,0.04226 1.701396,-1.654073 -0.06448,-0.879337 -2.20653,0.02501 -2.876881,-0.283433 z"
       id="path518" />
    <path
       style="fill:none;fill-rule:evenodd;stroke:#000000;stroke-width:0.264583px;stroke-linecap:butt;stroke-linejoin:miter;stroke-opacity:1"
       d="m 87.489819,53.260082 c -0.511605,2.258332 0.274352,2.249436 2.233094,2.209365 1.756629,0.788573 0.964011,-1.849138 0.909777,-2.215263 -1.077982,0.387034 -2.143247,-0.09396 -3.142871,0.0059 z"
       id="path520" />
    <path
       style="fill:none;fill-rule:evenodd;stroke:#000000;stroke-width:0.264583px;stroke-linecap:butt;stroke-linejoin:miter;stroke-opacity:1"
       d="m 88.901755,52.444856 c 2.263765,1.024081 1.862881,-1.185837 1.795933,-2.717418 0.0021,-1.503411 0.426889,-3.797357 -1.908185,-3.030507 -1.602174,-0.525047 -1.488561,1.036609 -1.311492,2.233029 3.96e-4,1.251912 -0.351092,2.605019 1.081103,3.136867 0.583329,1.182668 0.731965,-1.671358 -0.348561,-1.092845 -0.122837,0.02924 -0.785074,0.152127 -0.708913,0.09451"
       id="path524" />
    <path
       style="fill:none;fill-rule:evenodd;stroke:#000000;stroke-width:0.264583px;stroke-linecap:butt;stroke-linejoin:miter;stroke-opacity:1"
       d="m 80.288364,47.051362 c -0.406803,1.654584 0.379795,3.389654 0.04726,5.033136 0.706771,0.276676 1.676066,0.418757 2.422173,0.218555 0.527995,-1.651652 0.379037,-3.644 0.171315,-5.346237 -0.840421,-0.08116 -1.780782,0.375476 -2.640748,0.09455 z"
       id="path526" />
    <path
       style="fill:none;fill-rule:evenodd;stroke:#000000;stroke-width:0.264583px;stroke-linecap:butt;stroke-linejoin:miter;stroke-opacity:1"
       d="m 75.837679,51.968484 c -0.75567,0.02128 -0.538811,1.356114 -1.422572,1.102898 -1.26833,0.564407 -0.946034,-0.779237 -1.009725,-1.582589 0.05412,-1.323137 -0.116368,-2.809047 -0.20437,-4.021017 0.838656,0.158386 2.178044,-0.353287 2.656301,-0.0069 -0.05996,1.23531 0.600356,3.924463 -0.300138,4.395023 -0.833088,-0.06396 -1.491362,0.166102 -0.700579,0.969285 0.06951,0.01268 0.134166,0.240285 0.12537,0.20391"
       id="path559" />
    <path
       style="fill:none;fill-rule:evenodd;stroke:#000000;stroke-width:0.264583px;stroke-linecap:butt;stroke-linejoin:miter;stroke-opacity:1"
       d="m 91.059582,38.174218 c 0,0.198921 -0.0995,3.726042 0.07904,3.705878 -0.742234,-0.158856 -1.234882,0.07821 -2.878763,0.01487 -0.151699,-1.143296 -0.258421,-3.251185 0.09134,-3.750696 1.024684,0.254973 2.708393,-0.09008 2.708393,0.02996 v -2e-6 z"
       id="path563"
       sodipodi:nodetypes="scccscs" />
    <path
       style="fill:none;fill-rule:evenodd;stroke:#000000;stroke-width:0.264583px;stroke-linecap:butt;stroke-linejoin:miter;stroke-opacity:1"
       d="m 90.11591,39.394731 c -0.74634,0.07218 -0.522401,1.169489 0.171342,1.190684 0.507194,-0.03088 0.457887,-1.174571 -0.171342,-1.190684 z"
       id="path565"
       sodipodi:nodetypes="ccc" />
    <path
       style="fill:none;fill-rule:evenodd;stroke:#000000;stroke-width:0.264583px;stroke-linecap:butt;stroke-linejoin:miter;stroke-opacity:1"
       d="m 76.970873,36.889021 c 0.175209,1.576213 -1.104198,4.902432 1.735994,3.244837 1.136761,-0.370394 3.935692,0.962604 3.411374,-1.188065 0.658114,-2.117527 -1.379974,-2.061212 -2.819026,-1.910596 -0.826898,0.145024 -1.53471,-0.06099 -2.328342,-0.146176 z"
       id="path567" />
    <path
       style="fill:none;fill-rule:evenodd;stroke:#000000;stroke-width:0.264583px;stroke-linecap:butt;stroke-linejoin:miter;stroke-opacity:1"
       d="m 74.746968,37.912183 c -1.251748,2.536338 2.734476,2.052757 1.639202,-0.135726 -0.485097,-0.110509 -1.267328,-0.30194 -1.639202,0.135726 z"
       id="path577" />
    <path
       style="fill:none;fill-rule:evenodd;stroke:#000000;stroke-width:0.264583px;stroke-linecap:butt;stroke-linejoin:miter;stroke-opacity:1"
       d="m 78.798024,40.845952 c -1.541452,2.222228 3.380961,2.183124 2.088188,0.156623 -0.17677,-0.597405 -1.659463,-0.52625 -2.088188,-0.156623 z"
       id="path579" />
    <path
       style="fill:none;fill-rule:evenodd;stroke:#000000;stroke-width:0.264583px;stroke-linecap:butt;stroke-linejoin:miter;stroke-opacity:1"
       d="m 82.953485,38.068795 c -0.759448,2.53021 3.005394,0.8052 1.252921,-0.428038 -0.354038,0.112128 -1.830074,-0.38906 -1.252921,0.428038 z"
       id="path581" />
    <path
       style="fill:none;fill-rule:evenodd;stroke:#000000;stroke-width:0.264583px;stroke-linecap:butt;stroke-linejoin:miter;stroke-opacity:1"
       d="m 62.08935,77.384779 c -0.252377,1.924065 0.216518,3.160802 2.349196,2.557925 1.920267,0.801175 1.736534,-1.616663 1.82718,-2.80847 -1.423073,-0.215823 -0.05181,3.217678 -1.785401,2.140298 -1.951486,0.518957 -1.434331,-1.115774 -2.025542,-2.056736 l -0.365432,0.16705 z"
       id="path583" />
    <path
       style="fill:none;fill-rule:evenodd;stroke:#000000;stroke-width:0.264583px;stroke-linecap:butt;stroke-linejoin:miter;stroke-opacity:1"
       d="m 62.674042,77.24905 c 0.277112,-0.910121 2.858414,-1.603569 3.080054,-0.240116"
       id="path585" />
    <path
       style="fill:none;fill-rule:evenodd;stroke:#000000;stroke-width:0.264583px;stroke-linecap:butt;stroke-linejoin:miter;stroke-opacity:1"
       d="m 82.675998,87.614627 c 1.431638,-0.22125 3.808544,-0.268545 3.027825,1.952367 -0.115747,1.485198 -2.164294,0.815126 -3.1949,0.772583 -0.403655,-0.603127 -0.388576,-2.135151 0.167075,-2.72495 z"
       id="path587" />
    <path
       style="fill:none;fill-rule:evenodd;stroke:#000000;stroke-width:0.264583px;stroke-linecap:butt;stroke-linejoin:miter;stroke-opacity:1"
       d="M 84.576241,88.199293 C 81.906146,87.530708 83.22169,91.2991 84.952114,89.3895 85.156148,89.042022 85.167415,88.148401 84.576241,88.199293 Z"
       id="path589" />
    <path
       style="fill:none;fill-rule:evenodd;stroke:#000000;stroke-width:0.264583px;stroke-linecap:butt;stroke-linejoin:miter;stroke-opacity:1"
       d="m 88.386069,62.236096 c 1.102326,3.048322 -2.37688,2.741538 -4.353827,2.286458 -2.345074,-0.688529 -4.758546,0.111024 -7.110222,-0.04177 -0.491692,-1.204769 -0.305529,-3.192522 1.440861,-2.829375 1.94047,-0.126989 3.898624,0.334871 5.857324,0.39672 1.379339,0.460087 2.932089,0.135821 4.165864,0.187967 z"
       id="path591" />
    <path
       style="fill:none;fill-rule:evenodd;stroke:#000000;stroke-width:0.264583px;stroke-linecap:butt;stroke-linejoin:miter;stroke-opacity:1"
       d="m 89.409276,64.762686 c -0.596795,2.330483 0.12885,4.869196 -0.365444,7.276989 -0.372996,1.903677 -0.374683,3.629126 1.942012,3.027727 0.526725,-3.08595 0.0695,-6.274857 0.490697,-9.375514 0.333113,-1.337085 -1.240044,-1.372234 -2.067265,-0.929202 z"
       id="path593" />
    <path
       style="fill:none;fill-rule:evenodd;stroke:#000000;stroke-width:0.264583px;stroke-linecap:butt;stroke-linejoin:miter;stroke-opacity:1"
       d="m 77.442429,64.156404 c -0.423703,0.397201 3.938355,-0.820621 5.110601,-0.91573 2.025082,-0.03965 3.652471,-0.219093 5.601827,-0.797027 l -0.05906,0.02953"
       id="path707"
       sodipodi:nodetypes="cccc" />
    <path
       style="fill:none;fill-rule:evenodd;stroke:#000000;stroke-width:0.264583px;stroke-linecap:butt;stroke-linejoin:miter;stroke-opacity:1"
       d="m 77.494107,62.133596 c 2.323057,0.63381 4.960997,0.963472 7.153937,1.38056 1.175121,-0.0393 2.652532,0.400326 3.536352,0.738288"
       id="path709"
       sodipodi:nodetypes="ccc" />
    <path
       style="fill:none;fill-rule:evenodd;stroke:#000000;stroke-width:0.264583px;stroke-linecap:butt;stroke-linejoin:miter;stroke-opacity:1"
       d="m 91.226114,65.005391 c -1.068076,1.887911 -0.567171,4.235127 -1.152518,6.274264 -0.335688,0.985658 -0.756771,2.666711 -1.165651,3.212255"
       id="path711"
       sodipodi:nodetypes="ccc" />
    <path
       style="fill:none;fill-rule:evenodd;stroke:#000000;stroke-width:0.264583px;stroke-linecap:butt;stroke-linejoin:miter;stroke-opacity:1"
       d="m 89.528074,65.17519 c 0.436988,2.736868 0.862623,4.782552 0.841187,7.199191 -0.02876,0.268766 0.412286,3.008245 0.421244,2.375916"
       id="path713"
       sodipodi:nodetypes="ccc" />
    <path
       style="fill:none;fill-rule:evenodd;stroke:#000000;stroke-width:0.264583px;stroke-linecap:butt;stroke-linejoin:miter;stroke-opacity:1"
       d="m 49.764311,37.202864 c 1.299089,2.964913 1.168527,6.835145 1.971267,8.909969"
       id="path715"
       sodipodi:nodetypes="cc" />
    <path
       style="fill:none;fill-rule:evenodd;stroke:#000000;stroke-width:0.264583px;stroke-linecap:butt;stroke-linejoin:miter;stroke-opacity:1"
       d="m 49.313961,46.357175 c 1.056814,-2.386347 1.756962,-4.959709 2.207447,-7.522776 -0.04201,-0.535217 0.11902,-1.050047 0.11078,-1.579857"
       id="path717" />
    <path
       style="fill:none;fill-rule:evenodd;stroke:#000000;stroke-width:0.264583px;stroke-linecap:butt;stroke-linejoin:miter;stroke-opacity:1"
       d="m 44.928577,37.254542 c -0.779495,2.860504 -1.055457,5.81513 -1.587302,8.711359 -0.142812,0.14465 -0.25948,0.992806 -0.346989,0.826841"
       id="path723" />
    <path
       style="fill:none;fill-rule:evenodd;stroke:#000000;stroke-width:0.264583px;stroke-linecap:butt;stroke-linejoin:miter;stroke-opacity:1"
       d="m 43.082876,37.586753 c -0.02028,-0.661635 0.743675,3.296882 1.076226,4.130693 0.222663,1.802288 1.065971,3.123626 1.131225,4.728326"
       id="path725"
       sodipodi:nodetypes="ccc" />
  </g>
  <g
     inkscape:groupmode="layer"
     id="layer7"
     inkscape:label="dekorace">
    <path
       style="fill:none;fill-rule:evenodd;stroke:#808080;stroke-width:0.165;stroke-linecap:butt;stroke-linejoin:miter;stroke-dasharray:none;stroke-opacity:1"
       d="m 44.06283,1.3843444 c -0.754326,-0.2664516 -1.273017,-1.34237074 -0.490861,-0.064327 0.631049,0.6014563 -1.557035,-0.087463 -0.03858,0.3493703 0.23505,0.2404725 -0.942558,1.4061879 0.237958,0.2340805 0.550878,0.8984947 0.115816,-0.6663155 0.96313,0.3137223 1.259496,0.46893 -1.286834,-1.0834386 0.564454,-0.6415068 1.111084,-0.3212719 -1.936684,0.060216 0.04226,-0.5643866 1.203871,-0.39183391 -0.953669,-0.0502068 -0.95949,0.2217315 0.06589,-0.57447688 -0.281689,-0.1538673 -0.318879,0.1513149 z"
       id="path1305" />
    <path
       style="fill:none;fill-rule:evenodd;stroke:#808080;stroke-width:0.165;stroke-linecap:butt;stroke-linejoin:miter;stroke-dasharray:none;stroke-opacity:1"
       d="M 3.586682,1.4021069 C 3.1215098,0.94624656 3.109883,-0.04276583 3.2463244,1.1879978 3.5047681,1.8558269 2.1264407,0.59705926 3.0971982,1.4393832 3.1877835,1.7005775 1.9154545,2.1858573 3.1921385,1.6967204 3.2888024,2.5623145 3.5077529,1.2315174 3.7952191,2.2587239 4.5636161,3.038062 3.2188091,1.0051418 4.433648,1.9634946 5.365267,2.0948288 2.9823488,1.356363 4.6597362,1.5506364 5.6842543,1.6598434 3.9726557,1.1912372 3.8744602,1.395065 4.1214909,0.98253696 3.7195219,1.183691 3.5866776,1.4021044 Z"
       id="path1305-3"
       inkscape:transform-center-x="-0.25198805"
       inkscape:transform-center-y="-0.089901577" />
    <path
       style="fill:none;fill-rule:evenodd;stroke:#808080;stroke-width:0.165;stroke-linecap:butt;stroke-linejoin:miter;stroke-dasharray:none;stroke-opacity:1"
       d="M 1.3602217,1.1382855 C 0.63717946,0.79179406 0.13999971,-0.60732224 0.88971787,1.0546357 1.4945952,1.8367645 -0.60274224,0.94089935 0.85274116,1.5089539 1.0780429,1.8216623 -0.05072669,3.3375489 1.0808303,1.8133503 1.6088618,2.9817452 1.1918431,0.94687914 2.0040167,2.2213121 3.211278,2.8311047 0.77055062,0.81241769 2.5450609,1.3871021 3.6100657,0.96932281 0.68869655,1.4654068 2.5855676,0.6531785 3.7395102,0.14364088 1.6714495,0.58789015 1.6658699,0.94151624 1.7290325,0.19447135 1.3958632,0.74142845 1.3602158,1.1382849 Z"
       id="path1305-6" />
    <path
       style="fill:none;fill-rule:evenodd;stroke:#808080;stroke-width:0.165;stroke-linecap:butt;stroke-linejoin:miter;stroke-dasharray:none;stroke-opacity:1"
       d="M 2.0691418,3.3311236 C 2.321037,2.7305052 3.2358725,2.3545307 2.1424529,2.9357612 1.6172371,3.4225222 2.2781451,1.676818 1.8537692,2.8899904 1.6444774,3.0706147 0.72371053,2.067367 1.6496699,3.0732378 0.88092996,3.4826704 2.1985346,3.1947856 1.3500511,3.8412109 0.90949357,4.8430646 2.3022288,2.8426749 1.860144,4.3255217 2.082068,5.2398042 1.8885177,2.7526031 2.3273071,4.3831964 2.6040956,5.3756436 2.4076229,3.6119658 2.1819412,3.5959673 2.6565302,3.6732266 2.3211723,3.3739322 2.0691424,3.3311187 Z"
       id="path1305-7" />
    <path
       style="fill:none;fill-rule:evenodd;stroke:#808080;stroke-width:0.165;stroke-linecap:butt;stroke-linejoin:miter;stroke-dasharray:none;stroke-opacity:1"
       d="M 2.2014544,51.520009 C 2.5051084,50.943825 3.4494197,50.64962 2.3091963,51.13261 1.7432737,51.57138 2.5548916,49.890441 2.0256455,51.061671 1.8013044,51.223223 0.97217329,50.14301 1.8062468,51.226292 c -0.8017184,0.34036 0.5360735,0.169266 -0.3658865,0.738702 -0.52681449,0.959307 1.0361676,-0.911083 0.4656027,0.527225 0.140798,0.930236 0.1663567,-1.564354 0.4602959,0.09847 0.1885876,1.012916 0.1477139,-0.761201 -0.07569,-0.796951 0.4659735,0.118627 0.1581869,-0.208954 -0.089111,-0.27373 z"
       id="path1305-5" />
    <path
       style="fill:none;fill-rule:evenodd;stroke:#808080;stroke-width:0.165;stroke-linecap:butt;stroke-linejoin:miter;stroke-dasharray:none;stroke-opacity:1"
       d="m 1.4622173,77.453799 c -0.61243102,-0.221635 -1.03355202,-1.116586 -0.398526,-0.05351 0.512343,0.500292 -1.26414302,-0.07275 -0.03132,0.290607 0.190835,0.200025 -0.76525502,1.169669 0.193196,0.194708 0.447253,0.74737 0.09403,-0.554242 0.781957,0.260955 1.022574,0.390057 -1.04477002,-0.901206 0.458275,-0.533606 0.90208,-0.267235 -1.57237702,0.05009 0.03431,-0.469458 0.977412,-0.325928 -0.774276,-0.04176 -0.779002,0.184437 0.0535,-0.477851 -0.228701,-0.127987 -0.258895,0.125864 z"
       id="path1305-35"
       inkscape:transform-center-x="1.1651883"
       inkscape:transform-center-y="-0.38693407" />
    <path
       style="fill:none;fill-rule:evenodd;stroke:#808080;stroke-width:0.165;stroke-linecap:butt;stroke-linejoin:miter;stroke-dasharray:none;stroke-opacity:1"
       d="m 48.076001,78.317684 c -0.575044,0.03576 -1.228336,-0.605361 -0.342693,0.104601 0.59042,0.252379 -1.053354,0.418748 0.07545,0.272528 0.224668,0.106272 -0.216143,1.341615 0.224741,0.100603 0.623292,0.498811 -0.11601,-0.532893 0.726569,-0.06541 0.967093,-0.04179 -1.162659,-0.407972 0.187386,-0.653841 0.640825,-0.58494 -1.261371,0.646883 -0.135136,-0.434017 0.681709,-0.666401 -0.644198,0.258988 -0.569485,0.463588 -0.122443,-0.448888 -0.230445,-0.02719 -0.16684,0.211958 z"
       id="path1305-62" />
    <path
       style="fill:none;fill-rule:evenodd;stroke:#808080;stroke-width:0.165;stroke-linecap:butt;stroke-linejoin:miter;stroke-dasharray:none;stroke-opacity:1"
       d="m 50.158429,78.433112 c 0.343107,-0.553599 1.30564,-0.781216 0.134503,-0.37894 -0.595151,0.398225 0.331745,-1.222005 -0.277911,-0.09055 -0.235064,0.14551 -0.986825,-0.989908 -0.230348,0.148916 -0.823508,0.283606 0.52296,0.206248 -0.416524,0.71138 -0.592448,0.920222 1.097197,-0.836585 0.427692,0.558419 0.07557,0.937791 0.275074,-1.548939 0.452306,0.130335 0.117471,1.023603 0.200452,-0.749043 -0.01991,-0.80029 0.456563,0.150843 0.172378,-0.19741 -0.0698,-0.279279 z"
       id="path1305-9" />
    <path
       style="fill:none;fill-rule:evenodd;stroke:#808080;stroke-width:0.165;stroke-linecap:butt;stroke-linejoin:miter;stroke-dasharray:none;stroke-opacity:1"
       d="m 51.739315,78.735821 c -0.697651,-0.264125 -1.177371,-1.330647 -0.453981,-0.06377 0.583635,0.596203 -1.440049,-0.0867 -0.03568,0.346319 0.217389,0.238372 -0.871741,1.393907 0.220079,0.232036 0.509488,0.890648 0.107114,-0.660496 0.890766,0.310982 1.164865,0.464835 -1.19015,-1.073976 0.522044,-0.635903 1.027605,-0.318467 -1.791173,0.05969 0.03908,-0.559458 1.113419,-0.388412 -0.882016,-0.04977 -0.8874,0.219795 0.06094,-0.56946 -0.260525,-0.152525 -0.29492,0.149994 z"
       id="path1305-1" />
    <path
       style="fill:none;fill-rule:evenodd;stroke:#808080;stroke-width:0.165;stroke-linecap:butt;stroke-linejoin:miter;stroke-dasharray:none;stroke-opacity:1"
       d="m 53.76728,78.801765 c -0.386994,-0.52386 -0.241634,-1.502201 -0.302095,-0.265377 0.149266,0.700362 -1.012002,-0.761053 -0.187105,0.224556 0.04802,0.272254 -1.285167,0.549623 0.05293,0.269136 -0.04183,0.86997 0.385394,-0.409265 0.506325,0.65053 0.635084,0.891331 -0.37032,-1.329128 0.677168,-0.190249 0.899003,0.27741 -1.336655,-0.829598 0.2887,-0.371781 0.994235,0.270296 -0.621393,-0.463808 -0.750669,-0.278133 0.309325,-0.368133 -0.119456,-0.233271 -0.285257,-0.03869 z"
       id="path1305-2" />
    <path
       style="fill:none;fill-rule:evenodd;stroke:#808080;stroke-width:0.165;stroke-linecap:butt;stroke-linejoin:miter;stroke-opacity:1;stroke-dasharray:none"
       d="M 76.390912,2.1487901 C 75.576671,1.7737861 74.976838,3.1765457 74.150238,2.5474428 73.497624,1.8856223 72.435441,1.8725623 71.676999,2.3370397 70.764593,2.7313594 70.315749,0.94181067 69.233286,1.6209351 68.421685,2.334535 67.375081,2.0196774 66.595224,1.3931715 65.338911,0.99550861 64.279559,2.505729 63.046496,1.7907383 62.455283,1.5079063 61.924704,0.99424925 61.197091,1.1263168 60.406091,1.3402681 59.709136,1.9097489 58.802092,1.3365145 57.774781,0.81894657 57.401931,2.0792792 56.494174,2.0675894 55.430103,2.0495275 54.404454,1.6288452 53.326936,1.8018164 52.173747,1.449605 51.817324,3.5065766 50.691292,2.6471158 49.974326,2.1737533 48.98663,2.7316899 48.395236,2.3296689 48.328803,2.2323623 48.04343,1.8229712 48.229096,1.8424213"
       id="path1307" />
    <path
       style="fill:none;fill-rule:evenodd;stroke:#808080;stroke-width:0.165;stroke-linecap:butt;stroke-linejoin:miter;stroke-opacity:1;stroke-dasharray:none"
       d="m 74.312655,1.3219494 c -0.664315,0.058357 -0.644631,1.3061724 0.0028,0.7000329 -0.101017,-0.2432254 -0.0096,-0.465017 -0.0028,-0.7000329 z"
       id="path1309" />
    <path
       style="fill:none;fill-rule:evenodd;stroke:#808080;stroke-width:0.165;stroke-linecap:butt;stroke-linejoin:miter;stroke-opacity:1;stroke-dasharray:none"
       d="M 72.63676,0.79779089 C 72.248782,1.1495051 72.517781,2.3314862 72.902516,1.576644 72.744383,1.3377505 72.774232,1.0362501 72.63676,0.79779089 Z"
       id="path1311" />
    <path
       style="fill:none;fill-rule:evenodd;stroke:#808080;stroke-width:0.165;stroke-linecap:butt;stroke-linejoin:miter;stroke-opacity:1;stroke-dasharray:none"
       d="m 71.392758,1.2481239 c -0.724318,0.8690728 0.541805,1.4665345 0.232543,0.3063718 -0.110316,-0.068375 -0.0644,-0.3509978 -0.232543,-0.3063718 z"
       id="path1313" />
    <path
       style="fill:none;fill-rule:evenodd;stroke:#808080;stroke-width:0.165;stroke-linecap:butt;stroke-linejoin:miter;stroke-opacity:1;stroke-dasharray:none"
       d="M 70.480983,0.40282645 C 70.099926,0.29724042 69.581276,1.2910761 70.207787,1.3773173 70.721115,1.4156315 70.562775,0.529601 70.606543,0.35483985 l -0.125505,0.0479864 z"
       id="path1315" />
    <path
       style="fill:none;fill-rule:evenodd;stroke:#808080;stroke-width:0.165;stroke-linecap:butt;stroke-linejoin:miter;stroke-opacity:1;stroke-dasharray:none"
       d="M 68.87153,0.28470656 C 68.635321,0.66752696 68.867024,1.6643787 69.376489,1.3107015 69.399099,0.93799093 69.17311,0.49562832 68.87153,0.28470656 Z"
       id="path1317" />
    <path
       style="fill:none;fill-rule:evenodd;stroke:#808080;stroke-width:0.165;stroke-linecap:butt;stroke-linejoin:miter;stroke-opacity:1;stroke-dasharray:none"
       d="M 67.834247,0.30685401 C 67.776398,0.79616997 66.536706,1.1688214 67.291621,1.5951025 68.164689,1.8570427 68.01694,0.78530217 67.834247,0.30685401 Z"
       id="path1319" />
    <path
       style="fill:none;fill-rule:evenodd;stroke:#808080;stroke-width:0.165;stroke-linecap:butt;stroke-linejoin:miter;stroke-opacity:1;stroke-dasharray:none"
       d="M 66.114056,0.30685401 C 65.427536,0.48632825 66.200545,1.698859 66.405663,0.97497164 66.314986,0.75532881 66.270607,0.48931936 66.114056,0.30685401 Z"
       id="path1321" />
    <path
       style="fill:none;fill-rule:evenodd;stroke:#808080;stroke-width:0.165;stroke-linecap:butt;stroke-linejoin:miter;stroke-opacity:1;stroke-dasharray:none"
       d="M 64.822067,0.24410273 C 64.200458,0.57547445 64.911393,1.578167 65.383193,1.2961083 65.242686,1.1323449 65.043506,0.09556426 64.822067,0.24410273 Z"
       id="path1323" />
    <path
       style="fill:none;fill-rule:evenodd;stroke:#808080;stroke-width:0.165;stroke-linecap:butt;stroke-linejoin:miter;stroke-opacity:1;stroke-dasharray:none"
       d="M 64.27943,1.7648994 C 64.059203,1.2904777 63.612372,0.45337067 63.692481,1.5028208 c 0.173203,0.1334586 0.360717,0.2584419 0.586949,0.2620786 z"
       id="path1325" />
    <path
       style="fill:none;fill-rule:evenodd;stroke:#808080;stroke-width:0.165;stroke-linecap:butt;stroke-linejoin:miter;stroke-opacity:1;stroke-dasharray:none"
       d="M 63.160936,0.45450445 C 63.595391,1.2582929 62.21318,2.0238031 62.481687,0.90114729 62.663302,0.74813897 62.917195,0.45967529 63.160936,0.45450445 Z"
       id="path1327" />
    <path
       style="fill:none;fill-rule:evenodd;stroke:#808080;stroke-width:0.165;stroke-linecap:butt;stroke-linejoin:miter;stroke-opacity:1;stroke-dasharray:none"
       d="M 61.440742,0.97497142 C 61.06471,0.77916716 60.085343,-0.28493821 60.407111,0.73503978 c 0.228786,0.2557353 0.722012,0.48336282 1.033631,0.23993164 z"
       id="path1329" />
    <path
       style="fill:none;fill-rule:evenodd;stroke:#808080;stroke-width:0.165;stroke-linecap:butt;stroke-linejoin:miter;stroke-opacity:1;stroke-dasharray:none"
       d="M 59.240668,1.3625528 C 59.229997,0.95920055 59.919983,-0.26404475 59.735415,0.89376386 59.863254,1.5541071 59.275719,1.06377 59.240668,1.3625528 Z"
       id="path1331" />
    <path
       style="fill:none;fill-rule:evenodd;stroke:#808080;stroke-width:0.165;stroke-linecap:butt;stroke-linejoin:miter;stroke-opacity:1;stroke-dasharray:none"
       d="m 58.332584,1.1263121 c -0.419337,-0.1248059 -0.911612,-1.45985371 -0.118131,-0.79361883 0.376251,0.0961563 0.519474,0.61811326 0.118131,0.79361883 z"
       id="path1333" />
    <path
       style="fill:none;fill-rule:evenodd;stroke:#808080;stroke-width:0.165;stroke-linecap:butt;stroke-linejoin:miter;stroke-opacity:1;stroke-dasharray:none"
       d="m 57.524168,1.3957739 c -0.448947,-0.3893425 -0.927782,-1.45911097 -0.609101,-0.2288586 0.13759,0.134085 0.402285,0.4187198 0.609101,0.2288586 z"
       id="path1335" />
    <path
       style="fill:none;fill-rule:evenodd;stroke:#808080;stroke-width:0.165;stroke-linecap:butt;stroke-linejoin:miter;stroke-opacity:1;stroke-dasharray:none"
       d="m 55.626788,1.8276511 c -0.796767,-0.8187674 0.681178,-1.62910263 0.398673,-0.5389233 0.220925,0.2782153 -0.06045,0.6286278 -0.398673,0.5389233 z"
       id="path1337" />
    <path
       style="fill:none;fill-rule:evenodd;stroke:#808080;stroke-width:0.165;stroke-linecap:butt;stroke-linejoin:miter;stroke-opacity:1;stroke-dasharray:none"
       d="M 54.452921,1.6652358 C 53.654081,1.3583664 54.215567,-0.37694029 54.58211,0.94174938 54.848997,1.1869977 54.74463,1.5431621 54.452921,1.6652358 Z"
       id="path1339" />
    <path
       style="fill:none;fill-rule:evenodd;stroke:#808080;stroke-width:0.165;stroke-linecap:butt;stroke-linejoin:miter;stroke-opacity:1;stroke-dasharray:none"
       d="m 53.375033,1.7206045 c -0.49406,-0.3903395 -1.78236,-0.84168836 -0.70503,-0.095972 0.237743,0.069715 0.466658,0.1078824 0.70503,0.095972 z"
       id="path1341" />
    <path
       style="fill:none;fill-rule:evenodd;stroke:#808080;stroke-width:0.165;stroke-linecap:butt;stroke-linejoin:miter;stroke-opacity:1;stroke-dasharray:none"
       d="m 53.958275,1.8645629 c -0.955755,0.6112833 0.352379,0.6273403 0,0 z"
       id="path1343" />
    <path
       style="fill:none;fill-rule:evenodd;stroke:#808080;stroke-width:0.165;stroke-linecap:butt;stroke-linejoin:miter;stroke-opacity:1;stroke-dasharray:none"
       d="m 66.365072,1.4363782 c -0.929655,0.3403349 -0.873705,0.7043142 0.048,0.3137555 V 1.565571 l -0.04799,-0.1291932 z"
       id="path1345" />
    <path
       style="fill:none;fill-rule:evenodd;stroke:#808080;stroke-width:0.165;stroke-linecap:butt;stroke-linejoin:miter;stroke-opacity:1;stroke-dasharray:none"
       d="m 51.983375,2.2373799 c -0.03483,-0.9560013 -1.802453,-1.46440855 -0.770497,-0.217032 0.17003,0.1628882 0.567536,0.3316434 0.770497,0.217032 z"
       id="path1347" />
    <path
       style="fill:none;fill-rule:evenodd;stroke:#808080;stroke-width:0.165;stroke-linecap:butt;stroke-linejoin:miter;stroke-opacity:1;stroke-dasharray:none"
       d="m 50.152442,2.3628824 c 0.05527,-0.6198275 -0.355715,-1.40698378 -0.583295,-0.4503331 0.08452,0.2419329 0.348904,0.2873722 0.490982,0.4724799"
       id="path1349" />
    <path
       style="fill:none;fill-rule:evenodd;stroke:#808080;stroke-width:0.165;stroke-linecap:butt;stroke-linejoin:miter;stroke-opacity:1;stroke-dasharray:none"
       d="m 48.159085,1.8387248 c 0.65496,-0.492993 -0.219243,-1.73021723 -0.313792,-0.5315411 -0.102015,0.2017622 0.04096,0.614018 0.313792,0.5315411 z"
       id="path1351" />
    <path
       style="fill:none;fill-rule:evenodd;stroke:#808080;stroke-width:0.165;stroke-linecap:butt;stroke-linejoin:miter;stroke-opacity:1;stroke-dasharray:none"
       d="m 75.988552,2.0860384 c 0.05832,-0.5141844 -1.097298,-2.11382004 -0.893377,-0.7382508 -0.09739,0.4763342 0.46461,0.8926478 0.893377,0.7382508 z"
       id="path1353" />
    <path
       style="fill:none;fill-rule:evenodd;stroke:#808080;stroke-width:0.165;stroke-linecap:butt;stroke-linejoin:miter;stroke-opacity:1;stroke-dasharray:none"
       d="m 76.376148,2.1598638 c 0.716653,-0.1217668 0.7788,0.8811205 1.395373,0.8711344 l -0.01847,-0.00369"
       id="path1355" />
    <path
       style="fill:none;fill-rule:evenodd;stroke:#808080;stroke-width:0.165;stroke-linecap:butt;stroke-linejoin:miter;stroke-opacity:1;stroke-dasharray:none"
       d="M 77.06275,2.314896 C 77.201728,2.1305852 77.709024,0.68290716 77.823229,1.5655713 78.151477,2.3470842 77.260974,1.9426047 77.06275,2.314896 Z"
       id="path1357" />
    <path
       style="fill:none;fill-rule:evenodd;stroke:#808080;stroke-width:0.165;stroke-linecap:butt;stroke-linejoin:miter;stroke-opacity:1;stroke-dasharray:none"
       d="m 78.159096,2.4846943 c -0.818624,0.4549583 -0.512714,1.6163885 -0.158721,2.3033408 0.449116,1.2303277 -0.841204,2.3744472 -0.16616,3.5842077 0.567163,1.0489336 0.632888,2.2936942 0.47989,3.4476382 -0.803655,2.051971 -0.175212,4.273918 0.177173,6.352651 0.242244,1.080476 -0.831797,1.853587 -0.609103,2.820113 0.169214,0.177861 0.506409,1.211024 0.50209,1.081532"
       id="path1359" />
    <path
       style="fill:none;fill-rule:evenodd;stroke:#808080;stroke-width:0.165;stroke-linecap:butt;stroke-linejoin:miter;stroke-opacity:1;stroke-dasharray:none"
       d="M 78.830928,3.9907257 C 78.249153,3.2643043 77.07917,3.9257477 78.299375,4.4336775 78.47725,4.4799151 79.409515,4.3165187 78.830928,3.9907257 Z"
       id="path1361" />
    <path
       style="fill:none;fill-rule:evenodd;stroke:#808080;stroke-width:0.165;stroke-linecap:butt;stroke-linejoin:miter;stroke-opacity:1;stroke-dasharray:none"
       d="m 78.856768,5.6038038 c -0.473124,-1.1690739 -1.084581,0.04817 -0.214087,0.5647622 0.265307,0.5279426 0.241461,-0.4239182 0.214087,-0.5647622 z"
       id="path1363" />
    <path
       style="fill:none;fill-rule:evenodd;stroke:#808080;stroke-width:0.165;stroke-linecap:butt;stroke-linejoin:miter;stroke-opacity:1;stroke-dasharray:none"
       d="M 78.746029,7.4420486 C 78.58776,6.5153447 77.126927,6.9464329 78.066758,7.6303074 c 0.5736,-0.00884 0.924059,0.8371876 0.679202,-0.1882527 z"
       id="path1365" />
    <path
       style="fill:none;fill-rule:evenodd;stroke:#808080;stroke-width:0.165;stroke-linecap:butt;stroke-linejoin:miter;stroke-opacity:1;stroke-dasharray:none"
       d="m 78.269837,9.1363352 c 0.180135,-0.1208464 0.975975,-1.2443678 0.782608,-0.4171089 0.09424,0.5012835 -0.426379,0.640096 -0.782608,0.4171089 z"
       id="path1367" />
    <path
       style="fill:none;fill-rule:evenodd;stroke:#808080;stroke-width:0.165;stroke-linecap:butt;stroke-linejoin:miter;stroke-opacity:1;stroke-dasharray:none"
       d="m 78.565149,10.335992 c 0.766173,-0.269236 0.503635,1.886059 0.239887,1.147995 -0.181667,-0.391555 -0.158789,-0.770727 -0.239887,-1.147995 z"
       id="path1369" />
    <path
       style="fill:none;fill-rule:evenodd;stroke:#808080;stroke-width:0.165;stroke-linecap:butt;stroke-linejoin:miter;stroke-opacity:1;stroke-dasharray:none"
       d="m 78.22185,12.347727 c 0.646762,0.01416 0.944175,1.101373 0.74571,1.395295 -0.691299,-0.222497 -0.717996,-0.802721 -0.642311,-1.421128"
       id="path1371" />
    <path
       style="fill:none;fill-rule:evenodd;stroke:#808080;stroke-width:0.165;stroke-linecap:butt;stroke-linejoin:miter;stroke-opacity:1;stroke-dasharray:none"
       d="m 78.166478,15.15677 c -0.153729,0.569993 0.48456,-0.650607 0.911777,-0.771478 0.01665,0.277771 -0.06938,1.320533 -0.727173,0.970789 -0.05183,-0.08357 -0.191422,-0.06834 -0.184604,-0.199311 z"
       id="path1373" />
    <path
       style="fill:none;fill-rule:evenodd;stroke:#808080;stroke-width:0.165;stroke-linecap:butt;stroke-linejoin:miter;stroke-opacity:1;stroke-dasharray:none"
       d="m 78.480247,17.2128 c -0.03151,-1.065926 0.763351,-1.457549 0.464652,-0.16138 -0.149023,0.160183 -0.305909,0.224566 -0.464652,0.16138 z"
       id="path1375" />
    <path
       style="fill:none;fill-rule:evenodd;stroke:#808080;stroke-width:0.165;stroke-linecap:butt;stroke-linejoin:miter;stroke-opacity:1;stroke-dasharray:none"
       d="m 78.554074,18.619167 c 0.406134,-0.01253 0.574242,1.043364 0.299013,1.066769 -0.06386,-0.36103 -0.150172,-0.731133 -0.299013,-1.066769 z"
       id="path1377" />
    <path
       style="fill:none;fill-rule:evenodd;stroke:#808080;stroke-width:0.165;stroke-linecap:butt;stroke-linejoin:miter;stroke-opacity:1;stroke-dasharray:none"
       d="m 78.258762,19.86312 c 0.691667,0.204361 0.657594,1.141557 0.634956,1.731213 -0.559522,-0.482217 -0.978696,-0.94728 -0.634956,-1.731213 z"
       id="path1379" />
    <path
       style="fill:none;fill-rule:evenodd;stroke:#808080;stroke-width:0.165;stroke-linecap:butt;stroke-linejoin:miter;stroke-opacity:1;stroke-dasharray:none"
       d="m 78.339975,17.611454 c -0.954386,0.23363 -0.469567,2.340727 -0.254672,0.601671 0.06909,-0.197078 0.05297,-0.483657 0.254672,-0.601671 z"
       id="path1381" />
    <path
       style="fill:none;fill-rule:evenodd;stroke:#808080;stroke-width:0.165;stroke-linecap:butt;stroke-linejoin:miter;stroke-opacity:1;stroke-dasharray:none"
       d="m 78.43595,22.195993 c -0.984776,-0.01598 0.170682,3.067808 0.0074,1.757035 -0.0069,-0.538342 0.893972,-1.512842 -0.0074,-1.757035 z"
       id="path1383" />
  </g>
  <g
     inkscape:groupmode="layer"
     id="layer6"
     inkscape:label="popisky"
     transform="translate(-24.363027,-23.905548)">
    <path
       style="fill:none;fill-rule:evenodd;stroke:#808080;stroke-width:0.265;stroke-linecap:butt;stroke-linejoin:miter;stroke-dasharray:none;stroke-dashoffset:0;stroke-opacity:1"
       d="m 84.241837,43.567408 c 1.698012,-1.668644 0.732654,0.184317 0.751731,0.866554"
       id="path728" />
    <path
       style="fill:none;fill-rule:evenodd;stroke:#808080;stroke-width:0.265;stroke-linecap:butt;stroke-linejoin:miter;stroke-dasharray:none;stroke-dashoffset:0;stroke-opacity:1"
       d="m 85.828847,42.502484 c -1.382248,-1.383956 -3.623587,1.131916 -2.11949,2.349098 1.589923,1.124628 3.930148,-1.035486 2.119504,-2.349094 z"
       id="path730" />
    <path
       style="fill:none;fill-rule:evenodd;stroke:#808080;stroke-width:0.265;stroke-linecap:butt;stroke-linejoin:miter;stroke-dasharray:none;stroke-dashoffset:0;stroke-opacity:1"
       d="m 41.975367,50.579712 c 1.425306,-1.008439 0.52461,0.919319 0.595123,0.803914 1.379207,1.068669 -0.734233,1.471549 -1.158945,0.448944"
       id="path732" />
    <path
       style="fill:none;fill-rule:evenodd;stroke:#808080;stroke-width:0.265;stroke-linecap:butt;stroke-linejoin:miter;stroke-dasharray:none;stroke-dashoffset:0;stroke-opacity:1"
       d="m 43.071655,49.629635 c -2.440463,-1.316993 -3.634821,3.522152 -1.252891,3.789871 1.659067,0.218893 2.867136,-2.123487 1.691438,-3.278289 l -0.08353,-0.177485 -0.354988,-0.334095 z"
       id="path734" />
    <path
       style="fill:#ffffff;fill-opacity:1;fill-rule:evenodd;stroke:#808080;stroke-width:0.265;stroke-linecap:butt;stroke-linejoin:miter;stroke-dasharray:none;stroke-dashoffset:0;stroke-opacity:1"
       d="m 37.414953,69.8233 c -2.043722,-0.410113 -3.206719,1.886292 -2.109044,3.34093 1.61064,1.90771 3.649587,-0.838744 2.76683,-2.526583 -0.07433,-0.339529 -0.271777,-0.757127 -0.657786,-0.814347 z"
       id="path738" />
    <path
       style="fill:none;fill-rule:evenodd;stroke:#808080;stroke-width:0.265;stroke-linecap:butt;stroke-linejoin:miter;stroke-dasharray:none;stroke-dashoffset:0;stroke-opacity:1"
       d="m 36.005437,72.548252 c 0.411342,1.469837 2.567342,-0.695022 0.03916,-0.652519 -0.11257,-1.024407 0.04568,-1.376556 1.318155,-0.986626"
       id="path736"
       sodipodi:nodetypes="ccc" />
    <path
       style="fill:#ffffff;fill-opacity:1;fill-rule:evenodd;stroke:#808080;stroke-width:0.265;stroke-linecap:butt;stroke-linejoin:miter;stroke-dasharray:none;stroke-dashoffset:0;stroke-opacity:1"
       d="m 72.874823,71.599963 c -1.953336,-1.983746 -4.610887,2.451355 -1.90025,2.933758 1.466155,0.246177 2.704036,-1.725462 1.90025,-2.933758 z"
       id="path1296"
       sodipodi:nodetypes="ccc" />
    <path
       style="fill:none;fill-rule:evenodd;stroke:#808080;stroke-width:0.265;stroke-linecap:butt;stroke-linejoin:miter;stroke-dasharray:none;stroke-dashoffset:0;stroke-opacity:1"
       d="m 70.828413,72.518721 c 1.483399,-1.490673 1.236251,1.082188 0.01044,1.127562 0.06327,-0.105008 1.564972,0.275913 1.096296,1e-5"
       id="path1294"
       sodipodi:nodetypes="ccc" />
    <path
       style="fill:none;fill-rule:evenodd;stroke:#808080;stroke-width:0.265;stroke-linecap:butt;stroke-linejoin:miter;stroke-dasharray:none;stroke-dashoffset:0;stroke-opacity:1"
       d="m 88.512503,87.342363 c -0.921468,1.047076 -1.083572,1.746694 0.302791,1.49299"
       id="path1298" />
    <path
       style="fill:none;fill-rule:evenodd;stroke:#808080;stroke-width:0.265;stroke-linecap:butt;stroke-linejoin:miter;stroke-dasharray:none;stroke-dashoffset:0;stroke-opacity:1"
       d="m 88.50206,87.979231 c -0.185283,0.386798 -0.193765,1.162164 -0.417638,1.419899"
       id="path1300" />
    <path
       style="fill:none;fill-rule:evenodd;stroke:#808080;stroke-width:0.265;stroke-linecap:butt;stroke-linejoin:miter;stroke-dasharray:none;stroke-dashoffset:0;stroke-opacity:1"
       d="m 88.888378,86.976947 c -2.528948,-0.946965 -2.609582,4.195183 0.146179,2.50572 0.99122,-0.496956 0.71548,-2.021076 -0.146179,-2.50572 z"
       id="path1302" />
  </g>
  <g
     inkscape:groupmode="layer"
     id="layer4"
     inkscape:label="schody"
     transform="translate(-24.363027,-23.905548)">
    <path
       style="fill:none;fill-rule:evenodd;stroke:#000000;stroke-width:0.264583px;stroke-linecap:butt;stroke-linejoin:miter;stroke-opacity:1"
       d="m 66.787986,87.073446 c -1.972378,-0.590489 -0.963262,2.103969 -1.132845,3.199995 -0.130038,1.170034 0.233324,0.585738 0.824838,0.981402"
       id="path640" />
    <path
       style="fill:none;fill-rule:evenodd;stroke:#000000;stroke-width:0.264583px;stroke-linecap:butt;stroke-linejoin:miter;stroke-opacity:1"
       d="m 64.527542,87.444082 c -1.822742,-0.713501 -0.828697,1.642878 -1.007564,2.604897 -0.152503,0.931854 -0.0099,0.990007 0.809193,0.840441"
       id="path642" />
    <path
       style="fill:none;fill-rule:evenodd;stroke:#000000;stroke-width:0.264583px;stroke-linecap:butt;stroke-linejoin:miter;stroke-opacity:1"
       d="m 62.173129,87.558924 c -1.813931,-0.418647 -0.379166,1.988049 -0.67343,2.912885 -0.202886,0.493634 0.483748,0.159142 0.710017,0.30279"
       id="path644" />
    <path
       style="fill:none;fill-rule:evenodd;stroke:#000000;stroke-width:0.264583px;stroke-linecap:butt;stroke-linejoin:miter;stroke-opacity:1"
       d="m 60.267674,87.872141 c -1.467216,-0.488981 -0.310287,2.092434 -0.506388,2.871117 0.172941,-0.154033 0.597769,0.153421 0.694307,-0.0052"
       id="path646" />
    <path
       style="fill:none;fill-rule:evenodd;stroke:#000000;stroke-width:0.264583px;stroke-linecap:butt;stroke-linejoin:miter;stroke-opacity:1"
       d="m 58.560593,87.976543 c -1.36597,-0.611695 -0.272422,1.7167 -0.474962,2.458724 0.09933,-0.134805 0.464422,0.0228 0.506384,-0.05741"
       id="path648" />
    <path
       style="fill:none;fill-rule:evenodd;stroke:#000000;stroke-width:0.264583px;stroke-linecap:butt;stroke-linejoin:miter;stroke-opacity:1"
       d="m 56.69168,87.992203 c -1.238399,-0.500242 -0.239179,1.578497 -0.454238,2.26033 0.104613,-0.165192 0.549294,-0.07216 0.506389,-0.04697"
       id="path650" />
    <path
       style="fill:none;fill-rule:evenodd;stroke:#000000;stroke-width:0.264583px;stroke-linecap:butt;stroke-linejoin:miter;stroke-opacity:1"
       d="m 55.23518,88.13837 c -1.128665,-0.419862 -0.361683,1.382483 -0.443771,1.722652 0.155286,-0.194586 0.285453,0.005 0.438513,-0.02608"
       id="path652" />
    <path
       style="fill:none;fill-rule:evenodd;stroke:#000000;stroke-width:0.264583px;stroke-linecap:butt;stroke-linejoin:miter;stroke-opacity:1"
       d="m 53.465454,88.232334 c -0.450413,-0.394758 -0.578248,1.874597 0.146191,1.4408"
       id="path654" />
    <path
       style="fill:none;fill-rule:evenodd;stroke:#000000;stroke-width:0.264583px;stroke-linecap:butt;stroke-linejoin:miter;stroke-opacity:1"
       d="m 51.961972,88.347179 c -0.669216,-0.538504 -0.466139,1.583968 -0.03657,1.195456"
       id="path656" />
    <path
       style="fill:none;fill-rule:evenodd;stroke:#000000;stroke-width:0.255494px;stroke-linecap:butt;stroke-linejoin:miter;stroke-opacity:1"
       d="m 47.132987,52.196585 c 0.751758,0.411478 1.893424,-0.375743 1.301639,1.036015 -0.164663,1.220027 0.706717,3.275212 -1.160733,2.767804 0.01275,0.07815 -0.387339,0.01846 -0.165126,0.01047"
       id="path658" />
    <path
       style="fill:none;fill-rule:evenodd;stroke:#000000;stroke-width:0.255494px;stroke-linecap:butt;stroke-linejoin:miter;stroke-opacity:1"
       d="m 49.197111,52.725038 c 1.046374,-0.282099 1.278891,-0.110877 1.044215,0.994111 0.03722,0.902189 0.440238,2.444201 -0.913125,1.972523 h 0.02427"
       id="path660" />
    <path
       style="fill:none;fill-rule:evenodd;stroke:#000000;stroke-width:0.255494px;stroke-linecap:butt;stroke-linejoin:miter;stroke-opacity:1"
       d="m 51.168957,52.929092 c 1.466063,-0.388653 0.525546,1.5227 0.74311,2.406817 0.246679,0.461526 -0.468029,0.08501 -0.689666,0.235457"
       id="path662" />
    <path
       style="fill:none;fill-rule:evenodd;stroke:#000000;stroke-width:0.255494px;stroke-linecap:butt;stroke-linejoin:miter;stroke-opacity:1"
       d="m 52.985385,53.274421 c 1.356244,-0.43462 0.287797,1.198609 0.607117,2.019656 -0.01902,0.139299 -0.596798,-0.07051 -0.694517,0.167413"
       id="path664" />
    <path
       style="fill:none;fill-rule:evenodd;stroke:#000000;stroke-width:0.255494px;stroke-linecap:butt;stroke-linejoin:miter;stroke-opacity:1"
       d="m 54.651255,53.635441 c 0.733352,-0.501784 0.397743,1.930268 -0.06801,1.543485 l -0.08742,0.03662"
       id="path666" />
    <path
       style="fill:none;fill-rule:evenodd;stroke:#000000;stroke-width:0.255494px;stroke-linecap:butt;stroke-linejoin:miter;stroke-opacity:1"
       d="m 55.982005,53.870888 c 0.724274,-0.478872 0.444421,1.566722 -0.213754,1.004576"
       id="path668" />
  </g>
  <g
     inkscape:groupmode="layer"
     id="layer5"
     inkscape:label="dvere"
     transform="translate(-24.363027,-23.905548)">
    <path
       style="fill:none;fill-rule:evenodd;stroke:#000000;stroke-width:0.264583px;stroke-linecap:butt;stroke-linejoin:miter;stroke-opacity:1"
       d="m 62.325627,27.559775 c 1.489731,0.08569 2.935246,-0.09192 4.392768,-0.03691 0.165806,1.556087 -1.86389,0.525365 -2.746423,0.908037 -0.697402,-0.287422 -2.267506,0.518597 -1.646345,-0.871127 z"
       id="path671" />
    <path
       style="fill:none;fill-rule:evenodd;stroke:#000000;stroke-width:0.264583px;stroke-linecap:butt;stroke-linejoin:miter;stroke-opacity:1"
       d="M 65.898902,27.404743 C 66.201424,26.418095 65.1531,27.06617 64.717623,26.939641"
       id="path673" />
    <path
       style="fill:none;fill-rule:evenodd;stroke:#000000;stroke-width:0.264583px;stroke-linecap:butt;stroke-linejoin:miter;stroke-opacity:1"
       d="m 66.002261,28.438292 c 0.443471,1.174226 -0.951088,0.384084 -1.114807,0.686573"
       id="path675" />
    <path
       style="fill:none;fill-rule:evenodd;stroke:#000000;stroke-width:0.264583px;stroke-linecap:butt;stroke-linejoin:miter;stroke-opacity:1"
       d="m 68.106728,36.737782 c 0.449643,1.193333 0.69102,2.468343 1.040966,3.669104 1.479655,-0.03372 0.281604,-1.964221 -0.08858,-2.812748 -0.109356,-0.499516 -0.252433,-1.463427 -0.952386,-0.856356 z"
       id="path677" />
    <path
       style="fill:none;fill-rule:evenodd;stroke:#000000;stroke-width:0.264583px;stroke-linecap:butt;stroke-linejoin:miter;stroke-opacity:1"
       d="M 68.889304,39.831055 C 67.893827,40.40144 68.193229,39.292326 67.90739,39.033736"
       id="path679" />
    <path
       style="fill:none;fill-rule:evenodd;stroke:#000000;stroke-width:0.264583px;stroke-linecap:butt;stroke-linejoin:miter;stroke-opacity:1"
       d="m 69.922897,39.58005 c 1.188367,-0.345479 0.766587,-0.38504 0.265793,-1.018789"
       id="path681" />
    <path
       style="fill:none;fill-rule:evenodd;stroke:#000000;stroke-width:0.264583px;stroke-linecap:butt;stroke-linejoin:miter;stroke-opacity:1"
       d="m 62.336816,59.797492 c 1.152308,0.43761 4.364589,-0.889434 3.979368,0.738182 -1.116614,-0.232572 -3.919815,1.002131 -4.067902,-0.479855 l 0.08859,-0.258389 z"
       id="path683" />
    <path
       style="fill:none;fill-rule:evenodd;stroke:#000000;stroke-width:0.264583px;stroke-linecap:butt;stroke-linejoin:miter;stroke-opacity:1"
       d="m 65.917475,59.635077 c 0.23525,-0.809971 -0.394693,-0.777423 -0.996668,-0.598013"
       id="path685" />
    <path
       style="fill:none;fill-rule:evenodd;stroke:#000000;stroke-width:0.264583px;stroke-linecap:butt;stroke-linejoin:miter;stroke-opacity:1"
       d="m 65.95439,60.498831 c 0.23654,1.117319 -0.629623,0.396627 -0.981909,0.70132"
       id="path687" />
    <path
       style="fill:none;fill-rule:evenodd;stroke:#000000;stroke-width:0.264583px;stroke-linecap:butt;stroke-linejoin:miter;stroke-opacity:1"
       d="m 37.266453,59.711026 c 1.385835,0.254773 4.214962,-0.538965 4.695463,0.789912 -0.954637,0.731661 -3.272248,-0.286382 -4.732387,-0.125535 -0.06302,-0.21379 -0.27139,-0.508701 0.03692,-0.664377 z"
       id="path689" />
    <path
       style="fill:none;fill-rule:evenodd;stroke:#000000;stroke-width:0.264583px;stroke-linecap:butt;stroke-linejoin:miter;stroke-opacity:1"
       d="m 41.253166,59.688878 c 0.330445,-0.698254 -1.446727,-0.743088 -1.203394,-0.41342"
       id="path691" />
    <path
       style="fill:none;fill-rule:evenodd;stroke:#000000;stroke-width:0.264583px;stroke-linecap:butt;stroke-linejoin:miter;stroke-opacity:1"
       d="m 41.282696,60.75196 c 0.433391,1.325463 -1.09953,0.39137 -1.675924,0.634905"
       id="path693" />
    <path
       style="fill:none;fill-rule:evenodd;stroke:#000000;stroke-width:0.264583px;stroke-linecap:butt;stroke-linejoin:miter;stroke-opacity:1"
       d="m 91.885367,82.275351 c -1.288407,0.254328 -4.344642,-0.887492 -4.518274,0.568416 0.825065,0.318406 4.425519,0.595705 4.466605,-0.369143 l 0.05168,-0.199326 z"
       id="path695" />
    <path
       style="fill:none;fill-rule:evenodd;stroke:#000000;stroke-width:0.264583px;stroke-linecap:butt;stroke-linejoin:miter;stroke-opacity:1"
       d="m 87.95772,82.009583 c -0.05558,-0.604171 0.460747,-0.60786 0.863776,-0.369088"
       id="path697" />
    <path
       style="fill:none;fill-rule:evenodd;stroke:#000000;stroke-width:0.264583px;stroke-linecap:butt;stroke-linejoin:miter;stroke-opacity:1"
       d="m 87.920805,83.072663 c -0.121751,1.130356 0.95353,0.0632 1.321524,0.420795"
       id="path699" />
    <path
       style="fill:none;fill-rule:evenodd;stroke:#000000;stroke-width:0.264583px;stroke-linecap:butt;stroke-linejoin:miter;stroke-opacity:1"
       d="m 41.861136,82.945647 c -1.28177,0.156471 -4.512369,-1.119852 -4.776674,0.354358 0.790701,0.466394 3.358097,-0.599737 4.688075,0.25101 l -0.0074,-0.324832 0.09597,-0.280535 z"
       id="path701" />
    <path
       style="fill:none;fill-rule:evenodd;stroke:#000000;stroke-width:0.264583px;stroke-linecap:butt;stroke-linejoin:miter;stroke-opacity:1"
       d="m 38.177122,82.790614 c -0.360136,-1.21465 0.723865,-0.409479 1.387936,-0.657021"
       id="path703" />
    <path
       style="fill:none;fill-rule:evenodd;stroke:#000000;stroke-width:0.264583px;stroke-linecap:butt;stroke-linejoin:miter;stroke-opacity:1"
       d="m 38.095909,83.277858 c -0.287455,1.229285 0.500899,0.693615 1.181245,0.767752"
       id="path705" />
  </g>
  <metadata
     id="metadata393">
    <rdf:RDF>
      <cc:Work
         rdf:about="">
        <cc:license
           rdf:resource="http://creativecommons.org/licenses/by/4.0/" />
      </cc:Work>
      <cc:License
         rdf:about="http://creativecommons.org/licenses/by/4.0/">
        <cc:permits
           rdf:resource="http://creativecommons.org/ns#Reproduction" />
        <cc:permits
           rdf:resource="http://creativecommons.org/ns#Distribution" />
        <cc:requires
           rdf:resource="http://creativecommons.org/ns#Notice" />
        <cc:requires
           rdf:resource="http://creativecommons.org/ns#Attribution" />
        <cc:permits
           rdf:resource="http://creativecommons.org/ns#DerivativeWorks" />
      </cc:License>
    </rdf:RDF>
  </metadata>
</svg>
