<?xml version="1.0" encoding="UTF-8" standalone="no"?>
<!-- Created with Inkscape (http://www.inkscape.org/) -->

<svg
   width="143.30196mm"
   height="161.85141mm"
   viewBox="0 0 143.30196 161.85141"
   version="1.1"
   id="svg1"
   xml:space="preserve"
   inkscape:version="1.3.2 (091e20ef0f, 2023-11-25)"
   sodipodi:docname="poletucha.svg"
   xmlns:inkscape="http://www.inkscape.org/namespaces/inkscape"
   xmlns:sodipodi="http://sodipodi.sourceforge.net/DTD/sodipodi-0.dtd"
   xmlns="http://www.w3.org/2000/svg"
   xmlns:svg="http://www.w3.org/2000/svg"><sodipodi:namedview
     id="namedview1"
     pagecolor="#ffffff"
     bordercolor="#000000"
     borderopacity="0.25"
     inkscape:showpageshadow="2"
     inkscape:pageopacity="0.0"
     inkscape:pagecheckerboard="0"
     inkscape:deskcolor="#d1d1d1"
     inkscape:document-units="mm"
     inkscape:zoom="0.5"
     inkscape:cx="-197"
     inkscape:cy="363"
     inkscape:window-width="1920"
     inkscape:window-height="1151"
     inkscape:window-x="0"
     inkscape:window-y="27"
     inkscape:window-maximized="1"
     inkscape:current-layer="layer1" /><defs
     id="defs1" /><g
     inkscape:groupmode="layer"
     id="layer2"
     inkscape:label="kridla"
     transform="translate(-3.5012254,-3.4795063)"><path
       style="fill:none;fill-opacity:1;stroke:#000000;stroke-width:0.999997;stroke-linecap:round;stroke-dasharray:0.999997, 2;stroke-dashoffset:0;stroke-opacity:1"
       d="M 51.431956,81.77901 C 41.252298,84.41704 20.830806,88.80979 15.676309,98.38346"
       id="path60" /><path
       style="fill:none;fill-opacity:1;stroke:#000000;stroke-width:0.999997;stroke-linecap:round;stroke-dasharray:0.999997, 2;stroke-dashoffset:0;stroke-opacity:1"
       d="M 20.027965,93.10275 C 17.62235,92.99002 15.30553,92.83114 13.472764,91.38409"
       id="path61" /><path
       style="fill:none;fill-opacity:1;stroke:#000000;stroke-width:0.999997;stroke-linecap:round;stroke-dasharray:0.999997, 2;stroke-dashoffset:0;stroke-opacity:1"
       d="m 28.121487,88.23784 c -4.152773,1.8097 -4.736439,-3.6954 -7.677757,-3.90856"
       id="path62" /><path
       style="fill:none;fill-opacity:1;stroke:#000000;stroke-width:0.999997;stroke-linecap:round;stroke-dasharray:0.999997, 2;stroke-dashoffset:0;stroke-opacity:1"
       d="M 37.101979,85.29949 C 33.77855,84.62061 33.118052,80.07237 30.311176,79.27032"
       id="path63" /><path
       style="fill:none;fill-opacity:1;stroke:#000000;stroke-width:0.999997;stroke-linecap:round;stroke-dasharray:0.999997, 2;stroke-dashoffset:0;stroke-opacity:1"
       d="M 47.024864,82.40272 C 42.971471,81.97178 42.455605,77.638546 38.834323,76.304258"
       id="path64" /><path
       style="fill:none;fill-opacity:1;stroke:#000000;stroke-width:0.999997;stroke-linecap:round;stroke-dasharray:0.999997, 2;stroke-dashoffset:0;stroke-opacity:1"
       d="M 49.741183,88.27941 C 42.02032,89.09652 23.848396,102.62096 16.383104,101.12776"
       id="path65" /><path
       style="fill:none;fill-opacity:1;stroke:#000000;stroke-width:0.999997;stroke-linecap:round;stroke-dasharray:0.999997, 2;stroke-dashoffset:0;stroke-opacity:1"
       d="m 23.769834,99.617 c -1.457121,1.37459 -1.935424,3.83222 -2.258982,5.18369"
       id="path66" /><path
       style="fill:none;fill-opacity:1;stroke:#000000;stroke-width:0.999997;stroke-linecap:round;stroke-dasharray:0.999997, 2;stroke-dashoffset:0;stroke-opacity:1"
       d="m 29.327202,97.39938 c -1.807571,2.3157 -2.698949,5.76509 -2.841046,8.03889"
       id="path67" /><path
       style="fill:none;fill-opacity:1;stroke:#000000;stroke-width:0.999997;stroke-linecap:round;stroke-dasharray:0.999997, 2;stroke-dashoffset:0;stroke-opacity:1"
       d="m 36.866382,93.92049 c -2.142031,2.78549 -2.203581,6.61898 -2.799477,9.96544"
       id="path68" /><path
       style="fill:none;fill-opacity:1;stroke:#000000;stroke-width:0.999997;stroke-linecap:round;stroke-dasharray:0.999997, 2;stroke-dashoffset:0;stroke-opacity:1"
       d="m 45.070774,90.17825 c -1.419808,4.35391 -1.553184,8.57226 -4.254641,12.55728"
       id="path69" /><path
       style="fill:none;fill-opacity:1;stroke:#000000;stroke-width:0.999997;stroke-linecap:round;stroke-dasharray:0.999997, 2;stroke-dashoffset:0;stroke-opacity:1"
       d="m 41.772387,84.357 c -0.886578,1.79666 -5.046656,5.33941 -6.097866,6.99937"
       id="path70"
       sodipodi:nodetypes="cc" /><path
       style="fill:none;fill-opacity:1;stroke:#000000;stroke-width:0.999997;stroke-linecap:round;stroke-dasharray:0.999997, 2;stroke-dashoffset:0;stroke-opacity:1"
       d="M 32.667172,95.33423 C 30.681679,93.12295 28.197718,92.58749 25.7655,93.31064"
       id="path71" /><path
       style="fill:none;fill-opacity:1;stroke:#000000;stroke-width:0.999997;stroke-linecap:round;stroke-dasharray:0.999997, 2;stroke-dashoffset:0;stroke-opacity:1"
       d="m 22.952164,91.99393 c 0.191876,2.10424 -0.620837,4.23509 -1.469031,5.79354"
       id="path72" /><path
       style="fill:none;fill-opacity:1;stroke:#000000;stroke-width:0.999997;stroke-linecap:round;stroke-dasharray:0.999997, 2;stroke-dashoffset:0;stroke-opacity:1"
       d="M 49.616459,87.86361 C 47.353637,87.68732 45.995972,85.45272 43.795765,85.57669"
       id="path73" /><path
       style="fill:none;fill-opacity:1;stroke:#000000;stroke-width:0.999997;stroke-linecap:round;stroke-dasharray:0.999997, 2;stroke-dashoffset:0;stroke-opacity:1"
       d="M 58.436786,68.550719 C 55.740381,65.766642 53.184504,62.416878 49.81663,60.37324 46.211202,58.185459 41.618469,57.646259 37.842642,55.716231 29.115734,51.255451 22.895411,41.583278 18.745246,34.343902"
       id="path74" /><path
       style="fill:none;fill-opacity:1;stroke:#000000;stroke-width:0.999997;stroke-linecap:round;stroke-dasharray:0.999997, 2;stroke-dashoffset:0;stroke-opacity:1"
       d="m 21.115098,31.641173 c 2.504623,0.363402 4.762552,1.52564 6.776946,3.063091 4.14924,3.166844 5.880386,7.649233 9.994601,10.721085 5.366405,4.006796 11.149409,6.457944 16.35093,10.193862 2.399266,1.723239 4.104088,5.364318 6.014711,7.553776"
       id="path75"
       sodipodi:nodetypes="csssc" /><path
       style="fill:none;fill-opacity:1;stroke:#000000;stroke-width:0.999997;stroke-linecap:round;stroke-dasharray:0.999997, 2;stroke-dashoffset:0;stroke-opacity:1"
       d="m 24.482783,43.380716 c -3.585127,-0.654477 -7.457345,-2.02747 -8.273692,-3.478903"
       id="path76" /><path
       style="fill:none;fill-opacity:1;stroke:#000000;stroke-width:0.999997;stroke-linecap:round;stroke-dasharray:0.999997, 2;stroke-dashoffset:0;stroke-opacity:1"
       d="m 22.334668,48.633705 c -0.193298,2.482463 6.913745,2.931337 10.324795,3.672938"
       id="path77" /><path
       style="fill:none;fill-opacity:1;stroke:#000000;stroke-width:0.999997;stroke-linecap:round;stroke-dasharray:0.999997, 2;stroke-dashoffset:0;stroke-opacity:1"
       d="m 30.622222,58.682303 c 3.963372,-0.02256 7.43234,-1.496897 11.378054,-1.496897"
       id="path78" /><path
       style="fill:none;fill-opacity:1;stroke:#000000;stroke-width:0.999997;stroke-linecap:round;stroke-dasharray:0.999997, 2;stroke-dashoffset:0;stroke-opacity:1"
       d="m 41.071741,64.254083 c 1.879415,2.526157 8.54154,-0.957067 12.847088,-1.122679"
       id="path79" /><path
       style="fill:none;fill-opacity:1;stroke:#000000;stroke-width:0.999997;stroke-linecap:round;stroke-dasharray:0.999997, 2;stroke-dashoffset:0;stroke-opacity:1"
       d="M 51.970985,70.175353 C 54.080336,69.641421 56.6211,70.014013 58.6232,69.101192"
       id="path80" /><path
       style="fill:none;fill-opacity:1;stroke:#000000;stroke-width:0.999997;stroke-linecap:round;stroke-dasharray:0.999997, 2;stroke-dashoffset:0;stroke-opacity:1"
       d="m 49.427898,55.580631 c 0.554316,1.616563 0.92543,3.197639 0.367261,4.802539"
       id="path81" /><path
       style="fill:none;fill-opacity:1;stroke:#000000;stroke-width:0.999997;stroke-linecap:round;stroke-dasharray:0.999997, 2;stroke-dashoffset:0;stroke-opacity:1"
       d="m 36.587742,49.93955 c 0.309013,1.684122 0.832375,3.396261 0.34647,5.072815"
       id="path82" /><path
       style="fill:none;fill-opacity:1;stroke:#000000;stroke-width:0.999997;stroke-linecap:round;stroke-dasharray:0.999997, 2;stroke-dashoffset:0;stroke-opacity:1"
       d="M 46.350569,51.028592 C 45.016755,51.520057 41.98436,52.8407 40.57907,53.210555"
       id="path83"
       sodipodi:nodetypes="cc" /><path
       style="fill:none;fill-opacity:1;stroke:#000000;stroke-width:0.999997;stroke-linecap:round;stroke-dasharray:0.999997, 2;stroke-dashoffset:0;stroke-opacity:1"
       d="m 35.084064,44.887534 c -2.67221,1.299515 -6.998081,0.913327 -8.03116,-2.106746"
       id="path84" /><path
       style="fill:none;fill-opacity:1;stroke:#000000;stroke-width:0.999997;stroke-linecap:round;stroke-dasharray:0.999997, 2;stroke-dashoffset:0;stroke-opacity:1"
       d="m 22.978423,40.459222 c 0.534615,-1.912318 0.730098,-4.455242 0.505842,-6.174695"
       id="path85" /><path
       style="fill:none;fill-opacity:1;stroke:#000000;stroke-width:0.999997;stroke-linecap:round;stroke-dasharray:0.999997, 2;stroke-dashoffset:0;stroke-opacity:1"
       d="M 30.719082,37.07092 C 29.019325,35.766874 29.596514,31.65954 30.185518,29.808204"
       id="path86" /><path
       style="fill:none;fill-opacity:1;stroke:#000000;stroke-width:0.999997;stroke-linecap:round;stroke-dasharray:0.999997, 2;stroke-dashoffset:0;stroke-opacity:1"
       d="m 38.064233,33.432631 c -2.323059,3.74075 0.995075,6.984177 2.113464,10.339656 0.568421,1.705429 0.889552,2.543494 1.069382,3.902327"
       id="path87"
       sodipodi:nodetypes="csc" /><path
       style="fill:none;fill-opacity:1;stroke:#000000;stroke-width:0.999997;stroke-linecap:round;stroke-dasharray:0.999997, 2;stroke-dashoffset:0;stroke-opacity:1"
       d="m 46.738179,37.238301 c -0.183422,5.413589 6.035495,12.292058 6.619215,17.545873"
       id="path88"
       sodipodi:nodetypes="cc" /><path
       style="fill:none;fill-opacity:1;stroke:#000000;stroke-width:0.999997;stroke-linecap:round;stroke-dasharray:0.999997, 2;stroke-dashoffset:0;stroke-opacity:1"
       d="M 130.52054,38.258043 C 125.61215,56.292775 101.11235,53.854124 91.694393,65.405704"
       id="path89" /><path
       style="fill:none;fill-opacity:1;stroke:#000000;stroke-width:0.999997;stroke-linecap:round;stroke-dasharray:0.999997, 2;stroke-dashoffset:0;stroke-opacity:1"
       d="m 122.42603,38.728468 c -3.31981,3.622723 -1.8512,8.058501 -2.50868,12.113542"
       id="path90" /><path
       style="fill:none;fill-opacity:1;stroke:#000000;stroke-width:0.999997;stroke-linecap:round;stroke-dasharray:0.999997, 2;stroke-dashoffset:0;stroke-opacity:1"
       d="m 112.99879,43.040732 c -1.63354,3.72535 0.30679,7.341022 0.41158,11.113875"
       id="path91" /><path
       style="fill:none;fill-opacity:1;stroke:#000000;stroke-width:0.999997;stroke-linecap:round;stroke-dasharray:0.999997, 2;stroke-dashoffset:0;stroke-opacity:1"
       d="m 90.028448,71.815292 c 2.920872,-1.879261 6.175719,-3.254552 9.407651,-4.547481 3.876581,-1.550824 8.679101,-0.145314 12.504331,-2.058129 9.37114,-4.68605 17.04787,-13.669667 25.96903,-17.895889"
       id="path92" /><path
       style="fill:none;fill-opacity:1;stroke:#000000;stroke-width:0.999997;stroke-linecap:round;stroke-dasharray:0.999997, 2;stroke-dashoffset:0;stroke-opacity:1"
       d="m 131.89249,50.43038 c 0.0389,-3.409297 1.94814,-6.270088 3.42987,-9.153757"
       id="path93" /><path
       style="fill:none;fill-opacity:1;stroke:#000000;stroke-width:0.999997;stroke-linecap:round;stroke-dasharray:0.999997, 2;stroke-dashoffset:0;stroke-opacity:1"
       d="m 123.83719,48.509461 c 2.16283,-0.02049 4.20901,0.336376 6.21296,-0.313614"
       id="path94" /><path
       style="fill:none;fill-opacity:1;stroke:#000000;stroke-width:0.999997;stroke-linecap:round;stroke-dasharray:0.999997, 2;stroke-dashoffset:0;stroke-opacity:1"
       d="m 116.05627,53.429372 c 2.49147,0.93365 4.82243,1.332671 7.56533,0.784039"
       id="path95" /><path
       style="fill:none;fill-opacity:1;stroke:#000000;stroke-width:0.999997;stroke-linecap:round;stroke-dasharray:0.999997, 2;stroke-dashoffset:0;stroke-opacity:1"
       d="m 111.07806,64.758858 c 0.60242,-2.747661 2.45025,-4.969935 4.39024,-6.840818"
       id="path96" /><path
       style="fill:none;fill-opacity:1;stroke:#000000;stroke-width:0.999997;stroke-linecap:round;stroke-dasharray:0.999997, 2;stroke-dashoffset:0;stroke-opacity:1"
       d="m 95.614241,63.229967 c 2.396186,0.833304 5.000809,0.602616 7.467329,0.196005"
       id="path97" /><path
       style="fill:none;fill-opacity:1;stroke:#000000;stroke-width:0.999997;stroke-linecap:round;stroke-dasharray:0.999997, 2;stroke-dashoffset:0;stroke-opacity:1"
       d="m 93.850305,69.83556 c 3.745193,2.088016 7.402985,1.927415 11.485165,1.764108"
       id="path98" /><path
       style="fill:none;fill-opacity:1;stroke:#000000;stroke-width:0.999997;stroke-linecap:round;stroke-dasharray:0.999997, 2;stroke-dashoffset:0;stroke-opacity:1"
       d="m 109.02014,67.032595 c 1.00088,1.470875 5.90396,2.110795 9.58405,1.862115"
       id="path99" /><path
       style="fill:none;fill-opacity:1;stroke:#000000;stroke-width:0.999997;stroke-linecap:round;stroke-dasharray:0.999997, 2;stroke-dashoffset:0;stroke-opacity:1"
       d="m 119.34896,61.034636 c 3.95414,1.11139 8.34727,1.169398 12.21035,-0.29402"
       id="path100" /><path
       style="fill:none;fill-opacity:1;stroke:#000000;stroke-width:0.999997;stroke-linecap:round;stroke-dasharray:0.999997, 2;stroke-dashoffset:0;stroke-opacity:1"
       d="m 127.89424,55.056262 c 3.1762,1.486454 5.85479,0.5538 8.76088,-0.784047"
       id="path101" /><path
       style="fill:none;fill-opacity:1;stroke:#000000;stroke-width:0.999997;stroke-linecap:round;stroke-dasharray:0.999997, 2;stroke-dashoffset:0;stroke-opacity:1"
       d="m 87.598147,93.70982 c 14.199903,5.60023 21.280043,24.73906 37.630593,25.44235"
       id="path102" /><path
       style="fill:none;fill-opacity:1;stroke:#000000;stroke-width:0.999997;stroke-linecap:round;stroke-dasharray:0.999997, 2;stroke-dashoffset:0;stroke-opacity:1"
       d="m 112.842,114.07547 c 1.69252,2.6959 2.22537,5.89229 2.84189,8.85974"
       id="path103" /><path
       style="fill:none;fill-opacity:1;stroke:#000000;stroke-width:0.999997;stroke-linecap:round;stroke-dasharray:0.999997, 2;stroke-dashoffset:0;stroke-opacity:1"
       d="m 102.47399,105.31372 c 1.20424,4.60136 -0.22428,8.93171 1.95993,13.17201"
       id="path104" /><path
       style="fill:none;fill-opacity:1;stroke:#000000;stroke-width:0.999997;stroke-linecap:round;stroke-dasharray:0.999997, 2;stroke-dashoffset:0;stroke-opacity:1"
       d="m 93.340732,96.90481 c -1.443156,4.7505 0.844565,8.77013 1.783523,13.1524"
       id="path105" /><path
       style="fill:none;fill-opacity:1;stroke:#000000;stroke-width:0.999997;stroke-linecap:round;stroke-dasharray:0.999997, 2;stroke-dashoffset:0;stroke-opacity:1"
       d="m 99.749694,90.76964 c 10.711106,3.04278 15.930756,14.10806 25.969026,16.95504"
       id="path106" /><path
       style="fill:none;fill-opacity:1;stroke:#000000;stroke-width:0.999997;stroke-linecap:round;stroke-dasharray:0.999997, 2;stroke-dashoffset:0;stroke-opacity:1"
       d="m 119.74094,105.00011 c 2.42346,3.18266 3.94943,7.00751 6.05619,10.31022"
       id="path107" /><path
       style="fill:none;fill-opacity:1;stroke:#000000;stroke-width:0.999997;stroke-linecap:round;stroke-dasharray:0.999997, 2;stroke-dashoffset:0;stroke-opacity:1"
       d="m 111.90124,98.53171 c -0.35087,3.73218 0.95449,7.05198 2.7635,10.15342"
       id="path108" /><path
       style="fill:none;fill-opacity:1;stroke:#000000;stroke-width:0.999997;stroke-linecap:round;stroke-dasharray:0.999997, 2;stroke-dashoffset:0;stroke-opacity:1"
       d="m 98.769722,100.80545 c 2.886848,-1.8672 7.677598,-0.30187 10.289618,1.72491"
       id="path109" /><path
       style="fill:none;fill-opacity:1;stroke:#000000;stroke-width:0.999997;stroke-linecap:round;stroke-dasharray:0.999997, 2;stroke-dashoffset:0;stroke-opacity:1"
       d="m 97.711363,91.29887 c 0.862179,2.2361 1.49951,4.57188 2.900697,6.5272"
       id="path110" /><path
       style="fill:none;fill-opacity:1;stroke:#000000;stroke-width:0.999997;stroke-linecap:round;stroke-dasharray:0.999997, 2;stroke-dashoffset:0;stroke-opacity:1"
       d="m 104.17912,92.25933 c 4.92689,-1.76568 8.66089,-1.17163 12.87673,0.74485"
       id="path111" /><path
       style="fill:none;fill-opacity:1;stroke:#000000;stroke-width:0.999997;stroke-linecap:round;stroke-dasharray:0.999997, 2;stroke-dashoffset:0;stroke-opacity:1"
       d="m 115.68389,101.07986 c 2.53444,-1.75267 6.12447,-0.27574 8.2121,0.11762"
       id="path112" /><path
       style="fill:none;fill-opacity:1;stroke:#000000;stroke-width:0.999997;stroke-linecap:round;stroke-dasharray:0.999997, 2;stroke-dashoffset:0;stroke-opacity:1"
       d="m 97.946553,81.98831 c -2.347591,1.23136 -3.635964,3.47233 -5.977777,4.62588"
       id="path113" /><path
       style="fill:none;fill-opacity:1;stroke:#000000;stroke-width:0.999997;stroke-linecap:round;stroke-dasharray:0.999997, 2;stroke-dashoffset:0;stroke-opacity:1"
       d="m 50.261524,77.303623 c 2.491404,0.993358 5.397906,2.106457 7.741715,2.038517"
       id="path114" /><path
       style="fill:none;fill-opacity:1;stroke:#000000;stroke-width:0.999997;stroke-linecap:round;stroke-dasharray:0.999997, 2;stroke-dashoffset:0;stroke-opacity:1"
       d="m 104.00273,48.627069 c 0.2743,4.163006 -1.67067,7.127618 -3.84146,10.329836"
       id="path115" /></g><g
     inkscape:label="Layer 1"
     inkscape:groupmode="layer"
     id="layer1"
     transform="translate(-3.5012254,-3.4795063)"><path
       style="fill:none;stroke:#000000;stroke-width:0.999997;stroke-linecap:round;stroke-dasharray:none;stroke-opacity:1"
       d="M 52.624039,38.951408 C 40.990283,24.304363 11.765951,19.723678 14.361453,41.786741 15.962205,55.393932 43.688619,71.494171 54.351431,73.66031"
       id="path3"
       sodipodi:nodetypes="csc" /><path
       style="fill:none;stroke:#000000;stroke-width:0.999997;stroke-linecap:round;stroke-dasharray:none;stroke-opacity:1"
       d="m 13.782372,26.589632 c 1.426127,-4.166952 6.260638,-5.763171 10.302183,-5.560462 6.958814,0.137991 14.106472,0.709206 19.520212,5.880915 1.578306,1.135678 3.108882,2.518186 3.90503,4.328484"
       id="path4"
       sodipodi:nodetypes="cccc" /><path
       style="fill:none;stroke:#000000;stroke-width:0.999997;stroke-linecap:round;stroke-dasharray:none;stroke-opacity:1"
       d="m 18.034743,16.923098 c 7.947788,-5.299472 17.754135,0.85778 22.608315,5.1056"
       id="path5" /><path
       style="fill:none;stroke:#000000;stroke-width:0.999997;stroke-linecap:round;stroke-dasharray:none;stroke-opacity:1"
       d="m 22.161023,8.9808484 c 6.683788,-1.109017 13.393102,3.4900136 16.336328,6.5643506"
       id="path6" /><path
       style="fill:none;stroke:#000000;stroke-width:0.999997;stroke-linecap:round;stroke-dasharray:none;stroke-opacity:1"
       d="m 27.530926,4.1676964 c 3.413032,-0.985165 6.686117,2.192637 7.222183,2.910722"
       id="path7"
       sodipodi:nodetypes="cc" /><path
       style="fill:none;stroke:#000000;stroke-width:0.999997;stroke-linecap:round;stroke-dasharray:none;stroke-opacity:1"
       d="m 100.44183,49.154598 c 42.39636,-40.0124266 55.16652,12.457039 17.32892,22.44731 -12.51682,4.00298 -23.929505,4.584037 -24.223181,4.715017"
       id="path8"
       sodipodi:nodetypes="ccc" /><path
       style="fill:none;stroke:#000000;stroke-width:0.999997;stroke-linecap:round;stroke-dasharray:none;stroke-opacity:1"
       d="m 110.05139,34.851862 c 12.08101,-9.970846 24.78224,-9.594998 32.98664,1.870786"
       id="path9"
       sodipodi:nodetypes="cc" /><path
       style="fill:none;stroke:#000000;stroke-width:0.999997;stroke-linecap:round;stroke-dasharray:none;stroke-opacity:1"
       d="m 116.04082,25.41828 c 7.89629,-5.744093 17.62703,-4.790282 22.50373,1.59731"
       id="path10" /><path
       style="fill:none;stroke:#000000;stroke-width:0.999997;stroke-linecap:round;stroke-dasharray:none;stroke-opacity:1"
       d="m 121.61059,17.802473 c 2.55992,-3.189537 11.21315,-0.485154 13.20034,0.729369"
       id="path11" /><path
       style="fill:none;stroke:#000000;stroke-width:0.999997;stroke-linecap:round;stroke-dasharray:none;stroke-opacity:1"
       d="m 125.41784,11.62852 c 3.18542,-1.268689 6.22947,0.04153 8.51516,1.364223"
       id="path12" /><path
       style="fill:none;stroke:#000000;stroke-width:0.999997;stroke-linecap:round;stroke-dasharray:none;stroke-opacity:1"
       d="M 49.886976,73.620021 C 36.619149,71.288933 -5.1912175,88.49856 17.842757,104.94684 c 5.577047,3.9825 14.019499,2.16175 20.734075,0.51507 8.350048,-2.04777 16.461728,-6.51025 22.563258,-12.49727"
       id="path13"
       sodipodi:nodetypes="csac" /><path
       style="fill:none;stroke:#000000;stroke-width:0.999997;stroke-linecap:round;stroke-dasharray:none;stroke-opacity:1"
       d="m 83.526479,100.41993 c 6.018829,10.73226 26.103551,28.26792 37.572501,24.3898 15.99453,-5.40838 8.97394,-25.42027 -8.40848,-38.74535 -5.66198,-4.34039 -13.947885,-7.734286 -19.329129,-9.188828"
       id="path14"
       sodipodi:nodetypes="cssc" /><path
       style="fill:none;stroke:#000000;stroke-width:0.999997;stroke-linecap:round;stroke-dasharray:none;stroke-opacity:1"
       d="M 21.860783,77.169946 C 13.486369,78.009953 7.6667524,85.97346 7.2645656,89.52255"
       id="path16"
       sodipodi:nodetypes="cc" /><path
       style="fill:none;stroke:#000000;stroke-width:0.999997;stroke-linecap:round;stroke-dasharray:none;stroke-opacity:1"
       d="M 6.1050831,83.06905 C 6.739309,78.80203 11.938997,76.231336 13.765222,75.305219"
       id="path17"
       sodipodi:nodetypes="cc" /><path
       style="fill:none;stroke:#000000;stroke-width:0.999997;stroke-linecap:round;stroke-dasharray:none;stroke-opacity:1"
       d="M 4.110211,78.144491 C 4.6541432,76.798665 5.3343281,74.876642 8.5945372,73.789549"
       id="path18"
       sodipodi:nodetypes="cc" /><path
       style="fill:none;stroke:#000000;stroke-width:0.999997;stroke-linecap:round;stroke-dasharray:none;stroke-opacity:1"
       d="m 4.0012239,54.474625 c 0.2142079,2.343937 2.219548,4.081759 3.6252064,5.323274"
       id="path19" /><path
       style="fill:none;stroke:#000000;stroke-width:0.999997;stroke-linecap:round;stroke-dasharray:none;stroke-opacity:1"
       d="m 7.2272228,48.72783 c -0.96293,4.565154 3.2377952,8.779336 6.4454642,10.717824"
       id="path20"
       sodipodi:nodetypes="cc" /><path
       style="fill:none;stroke:#000000;stroke-width:0.999997;stroke-linecap:round;stroke-dasharray:none;stroke-opacity:1"
       d="M 9.6785506,41.287308 C 8.8777865,50.484804 15.674146,55.629265 21.24375,59.075808"
       id="path21"
       sodipodi:nodetypes="cc" /><path
       style="fill:none;stroke:#000000;stroke-width:0.999997;stroke-linecap:round;stroke-dasharray:none;stroke-opacity:1"
       d="m 9.3724263,103.93703 c 3.4369597,6.97964 13.1090177,8.1953 20.3231767,7.85291"
       id="path22"
       sodipodi:nodetypes="cc" /><path
       style="fill:none;stroke:#000000;stroke-width:0.999997;stroke-linecap:round;stroke-dasharray:none;stroke-opacity:1"
       d="m 8.3617544,111.5449 c 2.1752446,2.94021 10.6979966,6.83659 17.6247626,5.22717"
       id="path23"
       sodipodi:nodetypes="cc" /><path
       style="fill:none;stroke:#000000;stroke-width:0.999997;stroke-linecap:round;stroke-dasharray:none;stroke-opacity:1"
       d="m 9.6468118,117.60845 c 3.4063202,2.92484 7.1786792,5.26571 11.7174332,4.18174"
       id="path24" /><path
       style="fill:none;stroke:#000000;stroke-width:0.999997;stroke-linecap:round;stroke-dasharray:none;stroke-opacity:1"
       d="m 98.381863,121.45496 c 6.811767,8.13843 17.318057,10.06664 25.744317,6.61299"
       id="path25" /><path
       style="fill:none;stroke:#000000;stroke-width:0.999997;stroke-linecap:round;stroke-dasharray:none;stroke-opacity:1"
       d="m 99.257024,128.23812 c 4.094756,4.4244 11.050666,5.73705 16.336336,5.85929"
       id="path26"
       sodipodi:nodetypes="cc" /><path
       style="fill:none;stroke:#000000;stroke-width:0.999997;stroke-linecap:round;stroke-dasharray:none;stroke-opacity:1"
       d="m 100.27805,133.87861 c 3.40957,2.48256 6.32349,3.9922 10.88617,3.33213"
       id="path27"
       sodipodi:nodetypes="cc" /><path
       style="fill:none;stroke:#000000;stroke-width:0.999997;stroke-linecap:round;stroke-dasharray:none;stroke-opacity:1"
       d="m 124.53945,89.41122 c 6.2224,6.37636 10.72412,17.39458 8.58144,24.72572"
       id="path28" /><path
       style="fill:none;stroke:#000000;stroke-width:0.999997;stroke-linecap:round;stroke-dasharray:none;stroke-opacity:1"
       d="m 132.4645,91.33191 c 3.71787,4.36792 4.61365,10.40395 4.83771,15.63287"
       id="path29" /><path
       style="fill:none;stroke:#000000;stroke-width:0.999997;stroke-linecap:round;stroke-dasharray:none;stroke-opacity:1"
       d="m 137.37513,91.40484 c 2.48057,2.89111 3.52516,6.87207 3.84097,9.89514"
       id="path30" /><path
       style="fill:none;stroke:#000000;stroke-width:0.999997;stroke-linecap:round;stroke-dasharray:none;stroke-opacity:1"
       d="m 127.96371,72.865397 c 7.75275,-2.15573 14.84402,-8.301068 16.24116,-15.280406"
       id="path31" /><path
       style="fill:none;stroke:#000000;stroke-width:0.999997;stroke-linecap:round;stroke-dasharray:none;stroke-opacity:1"
       d="m 137.21799,74.192692 c 2.60734,-1.325495 5.2048,-4.064372 6.74592,-6.254734"
       id="path32" /><path
       style="fill:none;stroke:#000000;stroke-width:0.999997;stroke-linecap:round;stroke-dasharray:none;stroke-opacity:1"
       d="m 141.43371,77.700071 c 2.62333,-0.805871 3.9635,-3.335247 4.86948,-5.722585"
       id="path33" /><path
       style="fill:#f3f3f3;fill-opacity:1;stroke:#000000;stroke-width:0.999997;stroke-linecap:round;stroke-dasharray:none;stroke-dashoffset:0;stroke-opacity:1"
       d="m 66.382735,119.25184 c -2.931294,-0.81696 -19.016727,-0.43153 -17.110162,5.07671 2.3911,6.90812 28.955097,8.81903 33.75975,5.00811 6.119645,-4.85395 -13.056797,-11.3719 -16.649588,-10.08482 z"
       id="path116" /><path
       style="fill:#e5e5e5;fill-opacity:1;stroke:#000000;stroke-width:0.999997;stroke-linecap:round;stroke-dasharray:none;stroke-opacity:1"
       d="m 71.877917,119.55628 c -1.051305,2.43875 -2.571775,6.6927 -4.180253,8.88607 -0.813681,1.52318 -2.048996,3.08453 -1.882486,4.90309 0.436819,1.58527 1.9325,2.66024 2.164515,4.34304 0.334024,2.00311 1.1804,3.83509 2.40174,5.4487 1.692363,2.73726 3.778426,6.29961 4.243461,9.45663 -5.291863,3.7044 -3.274798,5.05298 -9.429402,7.25447 -0.998471,0.55657 -1.99681,2.17778 -0.03657,2.12038 0.774036,-0.20155 2.148507,-1.7826 0.966739,-0.28248 -0.792706,2.20764 3.266554,-0.94472 1.544481,0.58223 -0.972718,2.03177 2.146825,-0.2469 1.628907,0.32859 -0.9522,0.83215 -0.442286,1.9736 0.712295,1.13465 0.848193,-0.86818 -0.34483,0.75033 1.193795,0.58291 1.978987,-2.38473 2.322201,-3.47461 5.714227,-5.32806 1.829835,-1.15579 3.877509,-0.28253 4.761408,-2.6693 0.746508,-2.01578 -1.021422,-2.52941 -1.434799,-4.0703 -1.098181,-4.09355 -1.402662,-8.18568 -2.638631,-12.25751 -0.518674,-1.70875 -2.433606,-3.60156 -2.518304,-5.33795 -0.103327,-2.11836 7.347622,-8.90391 7.832671,-11.72638"
       id="path52"
       sodipodi:nodetypes="ccccccccccccccssssc" /><path
       style="fill:#e5e5e5;fill-opacity:1;stroke:#000000;stroke-width:0.999997;stroke-linecap:round;stroke-dasharray:none;stroke-opacity:1"
       d="m 54.72947,119.90395 c -1.619804,0.61619 -2.929268,3.16396 -4.08849,4.47997 -5.236876,5.94513 -3.649622,12.83691 -1.830712,19.89912 0.386074,1.49899 3.220882,8.75216 3.220882,8.75216 -5.342825,2.47267 -7.378343,2.20399 -10.195584,4.12089 -0.754132,0.65306 -1.531639,1.56995 -0.725279,1.62694 -0.313337,0.25294 -0.745601,1.56408 0.233779,1.36168 -1.593849,2.18578 0.649923,1.02259 0.949653,0.98103 -2.483448,1.59331 -0.318148,2.57054 1.04392,1.58999 -1.664377,2.16735 0.454827,3.25414 2.845567,0.34101 0.57096,-0.57156 3.24206,-2.01236 4.333067,-3.22786 3.59207,-4.00196 6.433773,0.0798 8.113577,-2.99991 0.810476,-1.48592 -1.365921,-3.69017 -1.203284,-5.13166 0.422715,-3.74664 0.564817,-7.20256 -0.880894,-10.84398 -0.401824,-1.01211 -2.745476,-5.87059 -2.131536,-6.89378 0.217644,-0.36273 7.168612,-5.21682 8.28548,-6.36944 1.927083,-1.98879 5.789942,-6.16327 7.525086,-8.30104"
       id="path50"
       sodipodi:nodetypes="csscccccccssssssc" /><path
       style="fill:#f3f3f3;fill-opacity:1;stroke:#000000;stroke-width:0.999997;stroke-linecap:round;stroke-dasharray:none;stroke-opacity:1"
       d="m 79.697978,101.39251 c 3.58829,-2.90329 12.806132,-17.75824 12.96489,-22.52272 0.05573,-1.673075 -1.200325,-4.505431 -3.353821,-4.407532 -1.557437,0.07084 -1.982976,3.137168 -2.432221,4.130332 -1.650545,3.64893 -2.068678,7.54428 -3.333029,11.28908 -1.291325,3.82466 -2.684657,7.67871 -3.845819,11.51084 z"
       id="path58" /><path
       style="fill:#e6e6e6;fill-opacity:1;stroke:#000000;stroke-width:0.999997;stroke-linecap:round;stroke-dasharray:none;stroke-opacity:1"
       d="m 88.67644,75.524914 c 2.51815,0.679347 5.277136,4.139976 6.189153,6.285246 0.597926,1.61089 1.636587,4.07426 3.779961,3.55507 2.004416,-0.57201 3.306786,-2.43516 5.318336,-3.0281 1.65431,-0.37007 2.86113,-0.82953 3.57672,-2.58165 0.35287,-1.679606 -0.0958,-3.742878 0.0206,-5.432074 1.46763,-4.44569 2.47733,1.248168 2.22374,2.779308 -0.2324,0.811953 0.57728,2.297606 1.00637,0.565082 1.56389,-2.368974 3.94381,-6.690071 4.7618,-6.826435 0.86166,1.208691 -1.53608,5.312266 -1.99157,6.144799 0.75812,-1.096658 2.2473,-3.404918 3.69688,-3.634835 0.72841,0.917657 -1.92087,3.233176 -2.24656,4.305388 -0.44408,0.788167 2.88022,-2.411891 3.42783,-2.569665 0.27856,1.188485 -2.59335,3.386322 -2.66825,4.531322 0.90603,-0.72234 3.70911,-3.064412 2.98531,-1.567398 -0.75192,1.801998 -2.36073,3.132398 -3.96985,4.152088 -3.40461,2.41161 -3.75191,1.11622 -4.90627,1.92732 l 0.0139,0.0141 c -2.0612,1.19061 -6.9623,3.94155 -9.60275,5.53509 -4.252618,2.5665 -6.740106,5.28256 -10.193526,0.64467 -1.427994,-1.91777 -3.164573,-4.65119 -4.166412,-6.81297"
       id="path48"
       sodipodi:nodetypes="ccccccccccccccccccssc" /><path
       style="fill:#999999;fill-opacity:1;stroke:#000000;stroke-width:0.999997;stroke-linecap:round;stroke-dasharray:none;stroke-opacity:1"
       d="m 67.065771,68.7847 c -1.79054,1.202959 -7.36314,0.256103 -8.046626,2.990427 -1.397371,5.590245 4.643213,24.751473 4.108399,29.029003 -0.958818,7.66885 -16.698044,19.33007 -13.881752,23.68752 -2.24656,-5.78113 34.074937,-2.70937 35.031475,2.81301 0.695733,-2.11768 0.292247,-15.86215 -1.969117,-21.51648 -0.820848,-2.05243 -0.687779,-1.08107 -1.872766,-3.35075 3.225615,-7.16676 6.756896,-28.759252 9.842195,-27.831102 -1.762076,-1.21395 -3.865099,-2.440774 -5.855615,-3.338556 -5.59911,-2.52536 -8.715642,-3.154173 -14.797714,-2.647291 -0.94447,0.07872 -1.597165,-0.238194 -2.558479,0.164219 z"
       id="path34"
       sodipodi:nodetypes="cssccsccssc" /><path
       style="fill:none;stroke:#000000;stroke-width:0.999997;stroke-linecap:round;stroke-dasharray:none;stroke-opacity:1"
       d="m 80.353029,130.50973 c 2.89638,-0.24874 3.812966,-1.77525 3.938222,-3.40375"
       id="path37" /><path
       style="fill:#f3f3f3;fill-opacity:1;stroke:#000000;stroke-width:0.999997;stroke-linecap:round;stroke-dasharray:none;stroke-opacity:1"
       d="m 76.401532,80.66331 c -1.168697,-0.28503 -2.227673,0.26075 -3.068377,1.05728 -0.855425,0.81048 -1.660481,1.60227 -2.483924,2.46697 -5.716018,6.00244 8.521516,9.92274 7.984654,0.25787 -0.100879,-1.81615 -0.771622,-3.12349 -2.432353,-3.78212 z"
       id="path41" /><path
       style="fill:#f3f3f3;fill-opacity:1;stroke:#000000;stroke-width:0.999997;stroke-linecap:round;stroke-dasharray:none;stroke-opacity:1"
       d="m 75.120087,82.74571 c -0.610471,0.23217 -0.956131,0.87051 -1.101359,1.47435 -0.108576,0.3939 0.11444,0.87926 0.556386,0.90559 0.940894,0.1062 1.69544,-1.07681 1.257302,-1.89786 -0.140525,-0.28357 -0.448763,-0.35941 -0.712329,-0.48208 z"
       id="path59" /><path
       style="fill:none;stroke:#000000;stroke-width:0.999997;stroke-linecap:round;stroke-dasharray:none;stroke-opacity:1"
       d="m 68.061994,67.006772 c -4.08945,4.366796 2.638318,14.880158 7.009191,16.764368"
       id="path39"
       sodipodi:nodetypes="cc" /><path
       style="fill:#f3f3f3;fill-opacity:1;stroke:#000000;stroke-width:0.999997;stroke-linecap:round;stroke-dasharray:none;stroke-opacity:1"
       d="M 85.072834,36.140963 C 73.462226,31.548291 66.321153,46.579267 67.316771,56.177988 65.660503,65.885586 73.950892,88.52954 83.66143,70.155204 90.803631,62.113409 98.601064,49.332321 91.160203,39.081708 89.647684,37.325604 87.397158,36.208719 85.072834,36.140963 Z"
       id="path56"
       sodipodi:nodetypes="ccccc" /><path
       style="fill:none;stroke:#000000;stroke-width:0.999997;stroke-linecap:round;stroke-dasharray:none;stroke-opacity:1"
       d="m 79.067452,83.29359 c 2.808681,-1.61682 9.002423,-11.685801 5.286443,-13.641784"
       id="path40"
       sodipodi:nodetypes="cc" /><path
       style="fill:none;stroke:#000000;stroke-width:0.999997;stroke-linecap:round;stroke-dasharray:none;stroke-opacity:1"
       d="m 74.839128,59.376448 c 0.175144,4.831049 6.8396,4.412809 8.294074,1.358129"
       id="path42" /><path
       style="fill:none;stroke:#000000;stroke-width:0.999997;stroke-linecap:round;stroke-dasharray:none;stroke-opacity:1"
       d="m 77.531738,54.318933 c 1.669555,-1.216181 3.059481,-0.822934 3.988026,0.6189"
       id="path43" /><path
       style="fill:none;stroke:#000000;stroke-width:0.999997;stroke-linecap:round;stroke-dasharray:none;stroke-opacity:1"
       d="m 78.262297,45.473925 c -1.104344,0.0647 -2.339758,-0.229825 -3.412171,0 -5.156298,1.105036 -0.985028,4.96738 2.95664,5.131648 3.298681,0.137476 3.086031,-4.229677 0.455531,-5.131648 z"
       id="path44" /><path
       style="fill:none;stroke:#000000;stroke-width:0.999997;stroke-linecap:round;stroke-dasharray:none;stroke-opacity:1"
       d="m 86.272742,47.459538 c -1.388338,0.06189 -3.72804,-0.09177 -4.005225,1.779314 -0.577833,3.900605 12.007617,4.340819 4.005225,-1.779314 z"
       id="path45" /><path
       style="fill:#e5e5e5;fill-opacity:1;stroke:#000000;stroke-width:0.999997;stroke-linecap:round;stroke-dasharray:none;stroke-opacity:1"
       d="m 58.155495,73.593236 c -4.945571,5.759604 -6.405237,13.413414 -8.800682,20.400294 -1.005854,2.98857 -2.18141,5.96042 -3.971326,8.57592 -2.038192,1.00111 -4.252429,1.96174 -5.633032,3.85303 0.689823,1.93486 3.219988,-0.29437 4.5745,-0.48809 1.647187,-0.0221 -0.900971,1.91212 -1.298328,2.52959 -0.805383,1.3624 -2.903732,2.59348 -2.380541,4.15096 1.261676,0.23016 2.400767,-2.61769 3.710644,-3.2771 1.08747,0.45481 -2.246989,3.4809 -1.754685,4.4136 1.370619,0.82146 2.354566,-3.29141 3.321865,-3.79677 0.296483,1.60554 -1.422671,2.86992 -1.004891,4.45222 1.333389,1.01482 1.982664,-3.22246 2.546275,-4.08527 0.604665,0.88239 -0.994692,3.67213 -0.165911,4.40131 1.601838,-0.50538 1.228265,-3.49034 2.124803,-4.94153 0.256067,-0.99344 0.463152,-2.00766 0.880154,-2.95033 l -0.02177,0.19097 c 3.414338,-6.77795 5.266834,-14.67234 9.918503,-20.43206"
       id="path46"
       sodipodi:nodetypes="ccccccccccccccccc" /><path
       style="fill:#cccccc;fill-opacity:1;stroke:#000000;stroke-width:0.999997;stroke-linecap:round;stroke-dasharray:none;stroke-opacity:1"
       d="m 68.004293,65.99869 c -2.368862,0.789372 -5.906024,0.10923 -8.326039,-0.07035 -3.735723,-0.552696 9.516309,-1.801237 1.925875,-2.703598 -0.972673,-0.561016 2.558223,-0.920917 0.697277,-1.896672 -4.602921,-6.173733 -0.925801,-6.86222 -4.812468,-8.960431 -3.213062,-0.165048 -1.67404,1.702832 -8.253987,1.692845 -3.894237,2.168952 -5.289075,2.791086 -1.735158,-1.379978 0.981732,-0.897068 4.998045,-3.842614 1.659037,-2.787872 -4.024867,-0.507861 4.165435,-2.605699 0.582274,-3.734799 -3.374341,-1.938048 3.748546,-0.451661 0.886532,-2.146265 -1.136678,-0.968016 -1.879745,-3.067007 0.312961,-1.709028 3.478067,1.165631 -0.510714,-1.92861 -0.02418,-3.185288 2.328356,1.536764 4.610959,3.340008 6.583475,5.392795 2.813769,0.934994 5.12175,-2.73594 8.079112,-2.988063 1.455976,-0.611856 4.725906,-0.888242 5.008333,-1.838871 -2.211476,-1.059338 -5.144678,-4.673429 -6.084196,-6.095426 1.690456,0.115156 6.087506,1.721254 7.000491,1.565566 -1.332454,-2.306677 -1.607848,-4.869334 -1.708462,-7.477286 0.21148,-1.186584 -2.255434,-7.609758 1.00227,-1.718571 1.557985,1.611744 3.388832,4.685494 4.638778,5.481262 0.288573,-1.900682 3.177476,-8.13177 4.048013,-7.995577 -0.284923,2.814615 -0.557937,6.549223 -0.13267,7.093348 1.24795,-2.754358 4.181219,-4.9979 6.390024,-6.421209 -0.807727,0.937765 -1.127576,5.325053 -0.567914,4.842001 2.156312,-2.265509 3.779647,-6.571371 4.631685,-9.603942 0.709344,-2.786089 1.026372,4.112095 0.939016,5.12664 0.194059,2.695114 -0.913532,5.800196 -1.742828,7.978118 2.270763,-0.648054 5.918737,-3.949044 7.019473,-4.255066 -0.262934,1.879922 -2.584559,5.216995 -2.793601,6.108733 1.499461,-0.168774 5.232173,-2.100076 5.386513,-1.399543 -0.512121,1.630373 -4.353489,3.546099 -0.695025,3.023609 1.365119,0.331515 4.725056,-0.314944 4.802836,-0.179018 -2.04672,2.616253 -4.830718,3.590051 -7.40501,5.55262 -4.003984,1.313202 9.6039,2.701939 3.158018,3.692867 -1.534939,0.265925 -3.909277,0.944475 -1.396386,1.998429 2.331878,0.918362 2.989238,6.129043 5.062238,6.387137 2.63084,0.300864 6.64488,-3.260471 8.80632,-4.935954 1.32775,-2.209374 -0.48197,2.494195 -1.3457,2.982741 -3.18316,2.274118 3.76009,0.101699 3.87341,0.305759 -0.22519,1.272489 -3.11034,3.247078 -2.72097,3.342165 1.50688,0.06827 2.97212,-0.374724 1.11308,1.1545 -0.6875,1.169082 -4.60048,2.000279 -1.45891,2.071707 1.3526,0.464171 3.39793,-0.06877 1.08034,1.098201 -1.23713,1.39432 -5.55461,0.104983 -2.48487,1.780839 2.70295,2.644106 -3.84348,-1.748147 -1.01447,1.240596 0.41072,1.151454 0.86299,5.971272 -0.43373,2.501229 -0.5117,-1.26971 -2.79258,-3.023781 -1.45556,-0.460462 0.65025,1.330348 0.23013,6.65285 -0.75563,2.839372 -1.14758,-2.260936 -3.61417,-3.750526 -4.02474,-6.36311 0.46179,-3.62084 -3.44899,-0.07274 -4.920101,0.736019 -1.363467,1.640246 -5.774132,1.967198 -6.247907,1.382118 1.341738,0.560775 4.757244,0.949766 4.699506,1.873487 -1.739597,1.130784 -5.420992,-0.6403 -5.977141,-0.33961 1.022562,1.024132 4.081757,6.098197 0.584105,3.735072 -1.23136,-0.613392 -3.403555,-1.828064 -4.039579,-2.288651 0.867202,0.736981 1.5897,2.818685 -0.04919,1.06108 -1.422685,-1.115479 -2.839389,-2.925792 -0.04636,-2.667639 1.830267,0.0086 1.714226,-0.397121 0.207159,-1.192201 1.143177,-0.572895 4.307469,-0.410559 2.136042,-2.022775 0.866373,-0.622441 2.73838,-1.348722 1.100845,-2.404592 1.664568,-0.394549 3.093745,-1.565838 1.669975,-2.966072 3.306268,-0.441757 1.885016,-2.298373 0.880483,-3.184931 1.762315,-0.04935 3.566912,-2.174432 0.706345,-2.303694 0.384363,-1.047965 3.260946,-2.488489 0.388764,-2.796893 -0.440856,-0.862852 1.377721,-3.276518 -0.869542,-1.790006 -0.120746,-1.123451 -0.05942,-4.645165 -1.04058,-1.596688 -1.957409,2.973132 0.338101,-2.705996 -1.423623,-3.55316 -0.24329,2.598764 -1.292885,-0.166575 -1.133698,-1.415265 -0.402458,-3.563322 -1.613364,3.258227 -2.074651,-0.303395 -0.03351,-1.501324 -1.581887,-2.642794 -1.080989,-0.388078 -0.844568,1.558297 -1.031373,1.507945 -0.639209,-0.07391 -0.05748,-4.826278 -2.498423,2.820634 -2.661714,1.222528 -0.367267,-1.140664 1.955274,-4.839547 -0.517147,-2.562336 -0.899007,0.871971 -2.250876,4.454943 -1.860205,1.340114 -0.120362,-1.285413 1.5133,-3.337031 -0.364918,-1.520479 -0.943632,0.802375 -2.328877,5.311751 -2.437238,1.860745 1.079935,-3.328431 -1.949419,1.231711 -1.813978,1.511315 -1.377765,-2.356513 -0.239365,2.495929 -2.213135,1.132642 -1.182706,0.267949 2.080994,1.874317 -0.214806,1.974821 -2.550808,-0.166036 1.724535,5.103768 -1.716059,2.718189 -0.256218,0.27427 2.050613,3.609617 -0.806242,3.09614 1.006674,1.053589 2.15321,5.280367 0.01178,2.382066 -2.478094,-1.558857 3.972479,5.397383 0.151349,3.633839 -0.377045,0.618485 0.342185,2.164697 0.120942,2.189309 0.537417,1.207537 1.762564,4.096473 -0.445428,2.032555 -1.636562,-1.43359 2.192863,5.335053 -0.537666,2.216707 0.216663,0.912439 1.565224,5.251206 -0.569117,2.590717 -0.153132,0.50344 0.986512,2.000221 -0.272035,1.734138 z"
       id="path55"
       sodipodi:nodetypes="ccccccccccccccccccccccccccccccccccccccccccccccccccccccccccccccccccccccccccccccccccccccccc" /><ellipse
       style="fill:#f3f3f3;fill-opacity:1;stroke:#000000;stroke-width:0.999997;stroke-linecap:round;stroke-dasharray:none;stroke-opacity:1"
       id="path57"
       cx="77.894592"
       cy="48.470119"
       rx="0.52428019"
       ry="0.42142627" /><ellipse
       style="fill:#f3f3f3;fill-opacity:1;stroke:#000000;stroke-width:0.999997;stroke-linecap:round;stroke-dasharray:none;stroke-opacity:1"
       id="path57-6"
       cx="84.764374"
       cy="49.837864"
       rx="0.52428019"
       ry="0.42142627" /><path
       style="fill:none;fill-opacity:1;stroke:#000000;stroke-width:2;stroke-linecap:round;stroke-dasharray:none;stroke-dashoffset:0;stroke-opacity:1"
       d="m 62.960844,100.0821 c 1.084355,1.0119 1.934108,2.03455 3.322662,2.7001 2.565696,1.22977 12.429992,1.44234 14.497978,-0.93739"
       id="path117" /><path
       style="fill:none;fill-opacity:1;stroke:#000000;stroke-width:0.999997;stroke-linecap:round;stroke-dasharray:none;stroke-dashoffset:0;stroke-opacity:1"
       d="m 70.002647,101.7139 c -0.15042,0.75017 -0.151896,1.52146 -0.313198,2.27007 -0.06046,0.40318 -0.15674,0.80998 -0.123539,1.21958 0.122718,0.19397 0.465649,0.0545 0.676773,0.0972 0.589993,-0.002 1.180077,-0.0345 1.769679,-0.0348 0.503918,0.0413 1.010358,0.1244 1.516581,0.081 0.236387,-0.0374 0.169239,-0.37125 0.217551,-0.5471 0.05615,-0.70211 -0.07971,-1.40462 -0.02977,-2.10593 0.06751,-0.27302 0.09667,-0.55857 0.05391,-0.83798 -1.250766,0.22946 -2.517441,-0.0151 -3.763115,-0.15679 l -0.0042,0.0128 z"
       id="path118" /><path
       style="fill:none;fill-opacity:1;stroke:#000000;stroke-width:0.999997;stroke-linecap:round;stroke-dasharray:none;stroke-dashoffset:0;stroke-opacity:1"
       d="m 71.774972,102.15225 c -6.55e-4,1.0139 -0.148985,2.28919 -0.148985,3.17744"
       id="path119" /></g></svg>
