<?xml version="1.0" encoding="UTF-8" standalone="no"?>
<!-- Created with Inkscape (http://www.inkscape.org/) -->

<svg
   width="132mm"
   height="132mm"
   viewBox="0 0 132 132"
   version="1.1"
   id="svg1"
   inkscape:version="1.4.2 (ebf0e940d0, 2025-05-08)"
   sodipodi:docname="bazina.svg"
   xmlns:inkscape="http://www.inkscape.org/namespaces/inkscape"
   xmlns:sodipodi="http://sodipodi.sourceforge.net/DTD/sodipodi-0.dtd"
   xmlns="http://www.w3.org/2000/svg"
   xmlns:svg="http://www.w3.org/2000/svg">
  <sodipodi:namedview
     id="namedview1"
     pagecolor="#ffffff"
     bordercolor="#000000"
     borderopacity="0.25"
     inkscape:showpageshadow="2"
     inkscape:pageopacity="0.0"
     inkscape:pagecheckerboard="0"
     inkscape:deskcolor="#d1d1d1"
     inkscape:document-units="mm"
     inkscape:zoom="0.89199255"
     inkscape:cx="99.216075"
     inkscape:cy="326.23591"
     inkscape:window-width="1920"
     inkscape:window-height="1025"
     inkscape:window-x="0"
     inkscape:window-y="33"
     inkscape:window-maximized="1"
     inkscape:current-layer="layer1" />
  <defs
     id="defs1">
    <rect
       x="2.461426"
       y="2.6851921"
       width="18.125046"
       height="18.572578"
       id="rect12" />
    <rect
       x="2.461426"
       y="2.6851921"
       width="18.125046"
       height="18.572578"
       id="rect13" />
    <rect
       x="2.461426"
       y="2.6851921"
       width="18.125046"
       height="18.572578"
       id="rect14" />
    <rect
       x="2.461426"
       y="2.6851921"
       width="18.125046"
       height="18.572578"
       id="rect15" />
    <rect
       x="2.461426"
       y="2.6851921"
       width="18.125046"
       height="18.572578"
       id="rect16" />
    <rect
       x="2.461426"
       y="2.6851921"
       width="18.125046"
       height="18.572578"
       id="rect21" />
    <rect
       x="2.461426"
       y="2.6851921"
       width="18.125046"
       height="18.572578"
       id="rect22" />
    <rect
       x="2.461426"
       y="2.6851921"
       width="18.125046"
       height="18.572578"
       id="rect23" />
    <rect
       x="2.461426"
       y="2.6851921"
       width="18.125046"
       height="18.572578"
       id="rect24" />
    <rect
       x="2.461426"
       y="2.6851921"
       width="18.125046"
       height="18.572578"
       id="rect25" />
    <rect
       x="2.461426"
       y="2.6851921"
       width="18.125046"
       height="18.572578"
       id="rect29" />
    <rect
       x="2.461426"
       y="2.6851921"
       width="18.125046"
       height="18.572578"
       id="rect30" />
    <rect
       x="2.461426"
       y="2.6851921"
       width="18.125046"
       height="18.572578"
       id="rect31" />
    <rect
       x="2.461426"
       y="2.6851921"
       width="18.125046"
       height="18.572578"
       id="rect32" />
    <rect
       x="2.461426"
       y="2.6851921"
       width="18.125046"
       height="18.572578"
       id="rect33" />
    <rect
       x="2.461426"
       y="2.6851921"
       width="18.125046"
       height="18.572578"
       id="rect37" />
    <rect
       x="2.461426"
       y="2.6851921"
       width="18.125046"
       height="18.572578"
       id="rect38" />
    <rect
       x="2.461426"
       y="2.6851921"
       width="18.125046"
       height="18.572578"
       id="rect39" />
    <rect
       x="2.461426"
       y="2.6851921"
       width="18.125046"
       height="18.572578"
       id="rect40" />
    <rect
       x="2.461426"
       y="2.6851921"
       width="18.125046"
       height="18.572578"
       id="rect41" />
    <rect
       x="2.461426"
       y="2.6851921"
       width="18.125046"
       height="18.572578"
       id="rect45" />
    <rect
       x="2.461426"
       y="2.6851921"
       width="18.125046"
       height="18.572578"
       id="rect46" />
    <rect
       x="2.461426"
       y="2.6851921"
       width="18.125046"
       height="18.572578"
       id="rect47" />
    <rect
       x="2.461426"
       y="2.6851921"
       width="18.125046"
       height="18.572578"
       id="rect48" />
    <rect
       x="2.461426"
       y="2.6851921"
       width="18.125046"
       height="18.572578"
       id="rect49" />
  </defs>
  <g
     inkscape:label="Layer 1"
     inkscape:groupmode="layer"
     id="layer1"
     transform="translate(14.589751,16.219809)">
    <path
       style="fill:none;stroke:#000000;stroke-width:0.2;stroke-linecap:round;stroke-linejoin:round"
       d="M 2.5006992,1.4 H 102.99898"
       id="path1" />
    <path
       style="fill:none;stroke:#000000;stroke-width:0.2;stroke-linecap:round;stroke-linejoin:round"
       d="M 2.4999947,21.921912 H 102.98343"
       id="path2" />
    <path
       style="fill:none;stroke:#000000;stroke-width:0.2;stroke-linecap:round;stroke-linejoin:round"
       d="M 2.4999947,42.041434 H 102.98343"
       id="path3" />
    <path
       style="fill:none;stroke:#000000;stroke-width:0.2;stroke-linecap:round;stroke-linejoin:round"
       d="M 2.4999947,62.160956 H 102.98343"
       id="path4" />
    <path
       style="fill:none;stroke:#000000;stroke-width:0.2;stroke-linecap:round;stroke-linejoin:round"
       d="M 2.4999947,82.280478 H 102.98343"
       id="path5" />
    <path
       style="fill:none;stroke:#000000;stroke-width:0.2;stroke-linecap:round;stroke-linejoin:round"
       d="M 2.4999947,102.4 H 102.98343"
       id="path6" />
    <path
       style="fill:none;stroke:#000000;stroke-width:0.2;stroke-linecap:round;stroke-linejoin:round"
       d="M 103.06291,1.6171878 V 102.28983"
       id="path7" />
    <path
       style="fill:none;stroke:#000000;stroke-width:0.2;stroke-linecap:round;stroke-linejoin:round"
       d="M 82.979998,1.5626731 V 102.29002"
       id="path8" />
    <path
       style="fill:none;stroke:#000000;stroke-width:0.2;stroke-linecap:round;stroke-linejoin:round"
       d="M 62.860002,1.5626731 V 102.29002"
       id="path9" />
    <path
       style="fill:none;stroke:#000000;stroke-width:0.2;stroke-linecap:round;stroke-linejoin:round"
       d="M 42.740007,1.5626731 V 102.29002"
       id="path10" />
    <path
       style="fill:none;stroke:#000000;stroke-width:0.2;stroke-linecap:round;stroke-linejoin:round"
       d="M 22.620011,1.5626731 V 102.29002"
       id="path11" />
    <path
       style="fill:none;stroke:#000000;stroke-width:0.2;stroke-linecap:round;stroke-linejoin:round"
       d="M 2.500016,1.4792486 V 102.29002"
       id="path12"
       sodipodi:nodetypes="cc" />
    <text
       xml:space="preserve"
       transform="matrix(1.0646831,0,0,1.064658,0.16443598,-0.5022523)"
       id="text12"
       style="font-size:12.5653px;font-family:Sans;-inkscape-font-specification:'Sans, Normal';font-variant-numeric:oldstyle-nums;text-align:center;writing-mode:lr-tb;direction:ltr;white-space:pre;shape-inside:url(#rect12);display:inline;fill:#000000;fill-opacity:1;stroke:none;stroke-width:0.187852;stroke-linecap:round;stroke-linejoin:round"><tspan
         x="9.1980924"
         y="14.118402"
         id="tspan2"><tspan
           style="font-size:10.6667px;font-family:'TeX Gyre Chorus';-inkscape-font-specification:'TeX Gyre Chorus, Normal'"
           id="tspan1">1</tspan></tspan></text>
    <text
       xml:space="preserve"
       transform="matrix(1.0646831,0,0,1.064658,20.284433,-0.5022523)"
       id="text13"
       style="font-size:12.5653px;font-family:Sans;-inkscape-font-specification:'Sans, Normal';font-variant-numeric:oldstyle-nums;text-align:center;writing-mode:lr-tb;direction:ltr;white-space:pre;shape-inside:url(#rect13);display:inline;fill:#000000;fill-opacity:1;stroke:none;stroke-width:0.187852;stroke-linecap:round;stroke-linejoin:round"><tspan
         x="9.0060956"
         y="14.118402"
         id="tspan4"><tspan
           style="font-size:10.6667px;font-family:'TeX Gyre Chorus';-inkscape-font-specification:'TeX Gyre Chorus, Normal'"
           id="tspan3">2</tspan></tspan></text>
    <text
       xml:space="preserve"
       transform="matrix(1.0646831,0,0,1.064658,40.404428,-0.5022523)"
       id="text14"
       style="font-size:12.5653px;font-family:Sans;-inkscape-font-specification:'Sans, Normal';font-variant-numeric:oldstyle-nums;text-align:center;writing-mode:lr-tb;direction:ltr;white-space:pre;shape-inside:url(#rect14);display:inline;fill:#000000;fill-opacity:1;stroke:none;stroke-width:0.187852;stroke-linecap:round;stroke-linejoin:round"><tspan
         x="9.1980924"
         y="14.118402"
         id="tspan6"><tspan
           style="font-size:10.6667px;font-family:'TeX Gyre Chorus';-inkscape-font-specification:'TeX Gyre Chorus, Normal'"
           id="tspan5">3</tspan></tspan></text>
    <text
       xml:space="preserve"
       transform="matrix(1.0646831,0,0,1.064658,60.524424,-0.5022523)"
       id="text15"
       style="font-size:12.5653px;font-family:Sans;-inkscape-font-specification:'Sans, Normal';font-variant-numeric:oldstyle-nums;text-align:center;writing-mode:lr-tb;direction:ltr;white-space:pre;shape-inside:url(#rect15);display:inline;fill:#000000;fill-opacity:1;stroke:none;stroke-width:0.187852;stroke-linecap:round;stroke-linejoin:round"><tspan
         x="9.1287664"
         y="14.118402"
         id="tspan8"><tspan
           style="font-size:10.6667px;font-family:'TeX Gyre Chorus';-inkscape-font-specification:'TeX Gyre Chorus, Normal'"
           id="tspan7">4</tspan></tspan></text>
    <text
       xml:space="preserve"
       transform="matrix(1.0646831,0,0,1.064658,80.644421,-0.5022523)"
       id="text16"
       style="font-size:12.5653px;font-family:Sans;-inkscape-font-specification:'Sans, Normal';font-variant-numeric:oldstyle-nums;text-align:center;writing-mode:lr-tb;direction:ltr;white-space:pre;shape-inside:url(#rect16);display:inline;fill:#000000;fill-opacity:1;stroke:none;stroke-width:0.187852;stroke-linecap:round;stroke-linejoin:round"><tspan
         x="9.2780996"
         y="14.118402"
         id="tspan10"><tspan
           style="font-size:10.6667px;font-family:'TeX Gyre Chorus';-inkscape-font-specification:'TeX Gyre Chorus, Normal'"
           id="tspan9">5</tspan></tspan></text>
    <text
       xml:space="preserve"
       transform="matrix(1.0646831,0,0,1.064658,0.16443598,19.61727)"
       id="text17"
       style="font-size:12.5653px;font-family:Sans;-inkscape-font-specification:'Sans, Normal';font-variant-numeric:oldstyle-nums;text-align:center;writing-mode:lr-tb;direction:ltr;white-space:pre;shape-inside:url(#rect21);display:inline;fill:#000000;fill-opacity:1;stroke:none;stroke-width:0.187852;stroke-linecap:round;stroke-linejoin:round"><tspan
         x="9.1554287"
         y="14.118402"
         id="tspan12"><tspan
           style="font-size:10.6667px;font-family:'TeX Gyre Chorus';-inkscape-font-specification:'TeX Gyre Chorus, Normal'"
           id="tspan11">6</tspan></tspan></text>
    <text
       xml:space="preserve"
       transform="matrix(1.0646831,0,0,1.064658,20.284433,19.61727)"
       id="text18"
       style="font-size:12.5653px;font-family:Sans;-inkscape-font-specification:'Sans, Normal';font-variant-numeric:oldstyle-nums;text-align:center;writing-mode:lr-tb;direction:ltr;white-space:pre;shape-inside:url(#rect22);display:inline;fill:#000000;fill-opacity:1;stroke:none;stroke-width:0.187852;stroke-linecap:round;stroke-linejoin:round"><tspan
         x="9.3207633"
         y="14.118402"
         id="tspan14"><tspan
           style="font-size:10.6667px;font-family:'TeX Gyre Chorus';-inkscape-font-specification:'TeX Gyre Chorus, Normal'"
           id="tspan13">7</tspan></tspan></text>
    <text
       xml:space="preserve"
       transform="matrix(1.0646831,0,0,1.064658,40.404428,19.61727)"
       id="text19"
       style="font-size:12.5653px;font-family:Sans;-inkscape-font-specification:'Sans, Normal';font-variant-numeric:oldstyle-nums;text-align:center;writing-mode:lr-tb;direction:ltr;white-space:pre;shape-inside:url(#rect23);display:inline;fill:#000000;fill-opacity:1;stroke:none;stroke-width:0.187852;stroke-linecap:round;stroke-linejoin:round"><tspan
         x="9.2460967"
         y="14.118402"
         id="tspan16"><tspan
           style="font-size:10.6667px;font-family:'TeX Gyre Chorus';-inkscape-font-specification:'TeX Gyre Chorus, Normal'"
           id="tspan15">8</tspan></tspan></text>
    <text
       xml:space="preserve"
       transform="matrix(1.0646831,0,0,1.064658,60.524424,19.61727)"
       id="text20"
       style="font-size:12.5653px;font-family:Sans;-inkscape-font-specification:'Sans, Normal';font-variant-numeric:oldstyle-nums;text-align:center;writing-mode:lr-tb;direction:ltr;white-space:pre;shape-inside:url(#rect24);display:inline;fill:#000000;fill-opacity:1;stroke:none;stroke-width:0.187852;stroke-linecap:round;stroke-linejoin:round"><tspan
         x="9.1821012"
         y="14.118402"
         id="tspan18"><tspan
           style="font-size:10.6667px;font-family:'TeX Gyre Chorus';-inkscape-font-specification:'TeX Gyre Chorus, Normal'"
           id="tspan17">9</tspan></tspan></text>
    <text
       xml:space="preserve"
       transform="matrix(1.0646831,0,0,1.064658,80.644421,19.61727)"
       id="text21"
       style="font-size:12.5653px;font-family:Sans;-inkscape-font-specification:'Sans, Normal';font-variant-numeric:oldstyle-nums;text-align:center;writing-mode:lr-tb;direction:ltr;white-space:pre;shape-inside:url(#rect25);display:inline;fill:#000000;fill-opacity:1;stroke:none;stroke-width:0.187852;stroke-linecap:round;stroke-linejoin:round"><tspan
         x="6.7874199"
         y="14.118402"
         id="tspan20"><tspan
           style="font-size:10.6667px;font-family:'TeX Gyre Chorus';-inkscape-font-specification:'TeX Gyre Chorus, Normal'"
           id="tspan19">10</tspan></tspan></text>
    <text
       xml:space="preserve"
       transform="matrix(1.0646831,0,0,1.064658,0.16443598,39.736791)"
       id="text25"
       style="font-size:12.5653px;font-family:Sans;-inkscape-font-specification:'Sans, Normal';font-variant-numeric:oldstyle-nums;text-align:center;writing-mode:lr-tb;direction:ltr;white-space:pre;shape-inside:url(#rect29);display:inline;fill:#000000;fill-opacity:1;stroke:none;stroke-width:0.187852;stroke-linecap:round;stroke-linejoin:round"><tspan
         x="6.8727474"
         y="14.118402"
         id="tspan22"><tspan
           style="font-size:10.6667px;font-family:'TeX Gyre Chorus';-inkscape-font-specification:'TeX Gyre Chorus, Normal'"
           id="tspan21">11</tspan></tspan></text>
    <text
       xml:space="preserve"
       transform="matrix(1.0646831,0,0,1.064658,20.284433,39.736791)"
       id="text26"
       style="font-size:12.5653px;font-family:Sans;-inkscape-font-specification:'Sans, Normal';font-variant-numeric:oldstyle-nums;text-align:center;writing-mode:lr-tb;direction:ltr;white-space:pre;shape-inside:url(#rect30);display:inline;fill:#000000;fill-opacity:1;stroke:none;stroke-width:0.187852;stroke-linecap:round;stroke-linejoin:round"><tspan
         x="6.6807505"
         y="14.118402"
         id="tspan24"><tspan
           style="font-size:10.6667px;font-family:'TeX Gyre Chorus';-inkscape-font-specification:'TeX Gyre Chorus, Normal'"
           id="tspan23">12</tspan></tspan></text>
    <text
       xml:space="preserve"
       transform="matrix(1.0646831,0,0,1.064658,40.404428,39.736791)"
       id="text27"
       style="font-size:12.5653px;font-family:Sans;-inkscape-font-specification:'Sans, Normal';font-variant-numeric:oldstyle-nums;text-align:center;writing-mode:lr-tb;direction:ltr;white-space:pre;shape-inside:url(#rect31);display:inline;fill:#000000;fill-opacity:1;stroke:none;stroke-width:0.187852;stroke-linecap:round;stroke-linejoin:round"><tspan
         x="6.8727474"
         y="14.118402"
         id="tspan26"><tspan
           style="font-size:10.6667px;font-family:'TeX Gyre Chorus';-inkscape-font-specification:'TeX Gyre Chorus, Normal'"
           id="tspan25">13</tspan></tspan></text>
    <text
       xml:space="preserve"
       transform="matrix(1.0646831,0,0,1.064658,60.524424,39.736791)"
       id="text28"
       style="font-size:12.5653px;font-family:Sans;-inkscape-font-specification:'Sans, Normal';font-variant-numeric:oldstyle-nums;text-align:center;writing-mode:lr-tb;direction:ltr;white-space:pre;shape-inside:url(#rect32);display:inline;fill:#000000;fill-opacity:1;stroke:none;stroke-width:0.187852;stroke-linecap:round;stroke-linejoin:round"><tspan
         x="6.8034214"
         y="14.118402"
         id="tspan28"><tspan
           style="font-size:10.6667px;font-family:'TeX Gyre Chorus';-inkscape-font-specification:'TeX Gyre Chorus, Normal'"
           id="tspan27">14</tspan></tspan></text>
    <text
       xml:space="preserve"
       transform="matrix(1.0646831,0,0,1.064658,80.644421,39.736791)"
       id="text29"
       style="font-size:12.5653px;font-family:Sans;-inkscape-font-specification:'Sans, Normal';font-variant-numeric:oldstyle-nums;text-align:center;writing-mode:lr-tb;direction:ltr;white-space:pre;shape-inside:url(#rect33);display:inline;fill:#000000;fill-opacity:1;stroke:none;stroke-width:0.187852;stroke-linecap:round;stroke-linejoin:round"><tspan
         x="6.9527545"
         y="14.118402"
         id="tspan30"><tspan
           style="font-size:10.6667px;font-family:'TeX Gyre Chorus';-inkscape-font-specification:'TeX Gyre Chorus, Normal'"
           id="tspan29">15</tspan></tspan></text>
    <text
       xml:space="preserve"
       transform="matrix(1.0646831,0,0,1.064658,0.16443598,59.856313)"
       id="text33"
       style="font-size:12.5653px;font-family:Sans;-inkscape-font-specification:'Sans, Normal';font-variant-numeric:oldstyle-nums;text-align:center;writing-mode:lr-tb;direction:ltr;white-space:pre;shape-inside:url(#rect37);display:inline;fill:#000000;fill-opacity:1;stroke:none;stroke-width:0.187852;stroke-linecap:round;stroke-linejoin:round"><tspan
         x="6.8300836"
         y="14.118402"
         id="tspan32"><tspan
           style="font-size:10.6667px;font-family:'TeX Gyre Chorus';-inkscape-font-specification:'TeX Gyre Chorus, Normal'"
           id="tspan31">16</tspan></tspan></text>
    <text
       xml:space="preserve"
       transform="matrix(1.0646831,0,0,1.064658,20.284433,59.856313)"
       id="text34"
       style="font-size:12.5653px;font-family:Sans;-inkscape-font-specification:'Sans, Normal';font-variant-numeric:oldstyle-nums;text-align:center;writing-mode:lr-tb;direction:ltr;white-space:pre;shape-inside:url(#rect38);display:inline;fill:#000000;fill-opacity:1;stroke:none;stroke-width:0.187852;stroke-linecap:round;stroke-linejoin:round"><tspan
         x="6.9954182"
         y="14.118402"
         id="tspan34"><tspan
           style="font-size:10.6667px;font-family:'TeX Gyre Chorus';-inkscape-font-specification:'TeX Gyre Chorus, Normal'"
           id="tspan33">17</tspan></tspan></text>
    <text
       xml:space="preserve"
       transform="matrix(1.0646831,0,0,1.064658,40.404428,59.856313)"
       id="text35"
       style="font-size:12.5653px;font-family:Sans;-inkscape-font-specification:'Sans, Normal';font-variant-numeric:oldstyle-nums;text-align:center;writing-mode:lr-tb;direction:ltr;white-space:pre;shape-inside:url(#rect39);display:inline;fill:#000000;fill-opacity:1;stroke:none;stroke-width:0.187852;stroke-linecap:round;stroke-linejoin:round"><tspan
         x="6.9207517"
         y="14.118402"
         id="tspan36"><tspan
           style="font-size:10.6667px;font-family:'TeX Gyre Chorus';-inkscape-font-specification:'TeX Gyre Chorus, Normal'"
           id="tspan35">18</tspan></tspan></text>
    <text
       xml:space="preserve"
       transform="matrix(1.0646831,0,0,1.064658,60.524424,59.856313)"
       id="text36"
       style="font-size:12.5653px;font-family:Sans;-inkscape-font-specification:'Sans, Normal';font-variant-numeric:oldstyle-nums;text-align:center;writing-mode:lr-tb;direction:ltr;white-space:pre;shape-inside:url(#rect40);display:inline;fill:#000000;fill-opacity:1;stroke:none;stroke-width:0.187852;stroke-linecap:round;stroke-linejoin:round"><tspan
         x="6.8567561"
         y="14.118402"
         id="tspan38"><tspan
           style="font-size:10.6667px;font-family:'TeX Gyre Chorus';-inkscape-font-specification:'TeX Gyre Chorus, Normal'"
           id="tspan37">19</tspan></tspan></text>
    <text
       xml:space="preserve"
       transform="matrix(1.0646831,0,0,1.064658,80.644421,59.856313)"
       id="text37"
       style="font-size:12.5653px;font-family:Sans;-inkscape-font-specification:'Sans, Normal';font-variant-numeric:oldstyle-nums;text-align:center;writing-mode:lr-tb;direction:ltr;white-space:pre;shape-inside:url(#rect41);display:inline;fill:#000000;fill-opacity:1;stroke:none;stroke-width:0.187852;stroke-linecap:round;stroke-linejoin:round"><tspan
         x="6.5954231"
         y="14.118402"
         id="tspan40"><tspan
           style="font-size:10.6667px;font-family:'TeX Gyre Chorus';-inkscape-font-specification:'TeX Gyre Chorus, Normal'"
           id="tspan39">20</tspan></tspan></text>
    <text
       xml:space="preserve"
       transform="matrix(1.0646831,0,0,1.064658,0.16443598,79.975835)"
       id="text41"
       style="font-size:12.5653px;font-family:Sans;-inkscape-font-specification:'Sans, Normal';font-variant-numeric:oldstyle-nums;text-align:center;writing-mode:lr-tb;direction:ltr;white-space:pre;shape-inside:url(#rect45);display:inline;fill:#000000;fill-opacity:1;stroke:none;stroke-width:0.187852;stroke-linecap:round;stroke-linejoin:round"><tspan
         x="6.6807505"
         y="14.118402"
         id="tspan42"><tspan
           style="font-size:10.6667px;font-family:'TeX Gyre Chorus';-inkscape-font-specification:'TeX Gyre Chorus, Normal'"
           id="tspan41">21</tspan></tspan></text>
    <text
       xml:space="preserve"
       transform="matrix(1.0646831,0,0,1.064658,20.284433,79.975835)"
       id="text42"
       style="font-size:12.5653px;font-family:Sans;-inkscape-font-specification:'Sans, Normal';font-variant-numeric:oldstyle-nums;text-align:center;writing-mode:lr-tb;direction:ltr;white-space:pre;shape-inside:url(#rect46);display:inline;fill:#000000;fill-opacity:1;stroke:none;stroke-width:0.187852;stroke-linecap:round;stroke-linejoin:round"><tspan
         x="6.4887536"
         y="14.118402"
         id="tspan44"><tspan
           style="font-size:10.6667px;font-family:'TeX Gyre Chorus';-inkscape-font-specification:'TeX Gyre Chorus, Normal'"
           id="tspan43">22</tspan></tspan></text>
    <text
       xml:space="preserve"
       transform="matrix(1.0646831,0,0,1.064658,40.404428,79.975835)"
       id="text43"
       style="font-size:12.5653px;font-family:Sans;-inkscape-font-specification:'Sans, Normal';font-variant-numeric:oldstyle-nums;text-align:center;writing-mode:lr-tb;direction:ltr;white-space:pre;shape-inside:url(#rect47);display:inline;fill:#000000;fill-opacity:1;stroke:none;stroke-width:0.187852;stroke-linecap:round;stroke-linejoin:round"><tspan
         x="6.6807505"
         y="14.118402"
         id="tspan46"><tspan
           style="font-size:10.6667px;font-family:'TeX Gyre Chorus';-inkscape-font-specification:'TeX Gyre Chorus, Normal'"
           id="tspan45">23</tspan></tspan></text>
    <text
       xml:space="preserve"
       transform="matrix(1.0646831,0,0,1.064658,60.524424,79.975835)"
       id="text44"
       style="font-size:12.5653px;font-family:Sans;-inkscape-font-specification:'Sans, Normal';font-variant-numeric:oldstyle-nums;text-align:center;writing-mode:lr-tb;direction:ltr;white-space:pre;shape-inside:url(#rect48);display:inline;fill:#000000;fill-opacity:1;stroke:none;stroke-width:0.187852;stroke-linecap:round;stroke-linejoin:round"><tspan
         x="6.6114245"
         y="14.118402"
         id="tspan48"><tspan
           style="font-size:10.6667px;font-family:'TeX Gyre Chorus';-inkscape-font-specification:'TeX Gyre Chorus, Normal'"
           id="tspan47">24</tspan></tspan></text>
    <text
       xml:space="preserve"
       transform="matrix(1.0646831,0,0,1.064658,80.644421,79.975835)"
       id="text45"
       style="font-size:12.5653px;font-family:Sans;-inkscape-font-specification:'Sans, Normal';font-variant-numeric:oldstyle-nums;text-align:center;writing-mode:lr-tb;direction:ltr;white-space:pre;shape-inside:url(#rect49);display:inline;fill:#000000;fill-opacity:1;stroke:none;stroke-width:0.187852;stroke-linecap:round;stroke-linejoin:round"><tspan
         x="6.7607577"
         y="14.118402"
         id="tspan50"><tspan
           style="font-size:10.6667px;font-family:'TeX Gyre Chorus';-inkscape-font-specification:'TeX Gyre Chorus, Normal'"
           id="tspan49">25</tspan></tspan></text>
    <path
       style="fill:#868686;fill-opacity:1;stroke:#ffffff;stroke-width:0.2;stroke-linecap:round;stroke-linejoin:round;stroke-dasharray:none;stroke-opacity:1;paint-order:stroke markers fill"
       d="m 21.584737,9.8875744 c -0.376153,0.5472876 -0.384744,0.5660746 -0.523312,0.9721376 0.903768,-0.460104 2.408436,-0.446425 3.400258,0.260133 -0.433274,-0.988024 -0.334422,-0.631491 -0.758113,-1.2697206 0.365576,0.2029936 1.373422,0.6248246 2.542385,1.7992976 -0.74138,0.187071 -1.833312,0.819112 -2.657308,0.966525 0.298305,-0.447505 0.611132,-0.508401 0.696467,-0.841303 -0.179849,-0.198439 -1.74417,-0.536027 -3.158663,-0.126089 0.05222,0.293238 0.328972,0.575747 0.702652,0.869612 -0.95086,-0.229697 -1.779997,-0.949091 -2.424083,-1.001568 0.703798,-0.584633 1.312961,-1.238398 2.179717,-1.6290246 z"
       id="path49"
       sodipodi:nodetypes="ccccccccccc" />
    <path
       style="fill:#868686;fill-opacity:1;stroke:#ffffff;stroke-width:0.2;stroke-linecap:round;stroke-linejoin:round;stroke-dasharray:none;stroke-opacity:1;paint-order:stroke markers fill"
       d="m 41.704487,9.8875744 c -0.376164,0.5472876 -0.384735,0.5660746 -0.523313,0.9721376 0.90377,-0.460104 2.408436,-0.446425 3.40026,0.260133 -0.433272,-0.988026 -0.334435,-0.631493 -0.758114,-1.2697227 0.36558,0.2029937 1.373423,0.6248247 2.542387,1.7992977 -0.741381,0.187071 -1.833314,0.819112 -2.657308,0.966525 0.298299,-0.447505 0.611133,-0.508401 0.696466,-0.841303 -0.179833,-0.198439 -1.744171,-0.536027 -3.158663,-0.126089 0.05223,0.293238 0.328962,0.575747 0.70265,0.869612 -0.950859,-0.229697 -1.779996,-0.949092 -2.424081,-1.001569 0.703797,-0.584633 1.312958,-1.238398 2.179716,-1.6290216 z"
       id="path68"
       sodipodi:nodetypes="ccccccccccc" />
    <path
       style="fill:#868686;fill-opacity:1;stroke:#ffffff;stroke-width:0.2;stroke-linecap:round;stroke-linejoin:round;stroke-dasharray:none;stroke-opacity:1;paint-order:stroke markers fill"
       d="m 61.824482,9.8875744 c -0.376163,0.5472876 -0.384734,0.5660746 -0.523313,0.9721376 0.903771,-0.460104 2.408437,-0.446425 3.40026,0.260133 -0.433272,-0.988026 -0.334435,-0.631493 -0.758113,-1.2697227 0.36558,0.2029937 1.373423,0.6248247 2.542387,1.7992977 -0.741382,0.187071 -1.833314,0.819112 -2.657309,0.966525 0.298299,-0.447505 0.611133,-0.508401 0.696466,-0.841303 -0.179833,-0.198439 -1.744171,-0.536027 -3.158663,-0.126089 0.05223,0.293238 0.328962,0.575747 0.702651,0.869612 -0.950859,-0.229697 -1.779996,-0.949091 -2.424082,-1.001568 0.703798,-0.584633 1.312959,-1.238398 2.179716,-1.6290226 z"
       id="path69"
       sodipodi:nodetypes="ccccccccccc" />
    <path
       style="fill:#868686;fill-opacity:1;stroke:#ffffff;stroke-width:0.2;stroke-linecap:round;stroke-linejoin:round;stroke-dasharray:none;stroke-opacity:1;paint-order:stroke markers fill"
       d="m 81.944478,9.8875744 c -0.376164,0.5472876 -0.384735,0.5660746 -0.523313,0.9721376 0.90377,-0.460104 2.408436,-0.446425 3.40026,0.260133 -0.433273,-0.988026 -0.334435,-0.631493 -0.758114,-1.2697227 0.36558,0.2029937 1.373423,0.6248247 2.542387,1.7992977 -0.741381,0.187071 -1.833314,0.819112 -2.657308,0.966525 0.298299,-0.447505 0.611133,-0.508401 0.696465,-0.841303 -0.179832,-0.198439 -1.74417,-0.536027 -3.158662,-0.126089 0.05223,0.293238 0.328962,0.575747 0.70265,0.869612 -0.950859,-0.229697 -1.779996,-0.949091 -2.424081,-1.001568 0.703797,-0.584633 1.312958,-1.238398 2.179716,-1.6290226 z"
       id="path70"
       sodipodi:nodetypes="ccccccccccc" />
    <path
       style="fill:#868686;fill-opacity:1;stroke:#ffffff;stroke-width:0.2;stroke-linecap:round;stroke-linejoin:round;stroke-dasharray:none;stroke-opacity:1;paint-order:stroke markers fill"
       d="m 21.584737,30.007098 c -0.376153,0.547288 -0.384744,0.566075 -0.523312,0.972138 0.903768,-0.460104 2.408436,-0.446425 3.400258,0.260133 -0.433274,-0.988024 -0.334422,-0.631491 -0.758113,-1.269721 0.365576,0.202995 1.373422,0.624825 2.542385,1.799298 -0.74138,0.187071 -1.833312,0.819112 -2.657308,0.966525 0.298305,-0.447505 0.611132,-0.508401 0.696467,-0.841303 -0.179849,-0.198438 -1.74417,-0.536027 -3.158663,-0.12609 0.05222,0.293239 0.328972,0.575747 0.702652,0.869612 -0.95086,-0.229696 -1.779997,-0.949091 -2.424083,-1.001568 0.703798,-0.584633 1.312961,-1.238398 2.179717,-1.629024 z"
       id="path71"
       sodipodi:nodetypes="ccccccccccc" />
    <path
       style="fill:#868686;fill-opacity:1;stroke:#ffffff;stroke-width:0.2;stroke-linecap:round;stroke-linejoin:round;stroke-dasharray:none;stroke-opacity:1;paint-order:stroke markers fill"
       d="m 41.704487,30.007098 c -0.376164,0.547288 -0.384735,0.566075 -0.523313,0.972138 0.90377,-0.460104 2.408436,-0.446425 3.40026,0.260137 -0.433272,-0.988026 -0.334435,-0.631493 -0.758114,-1.269723 0.36558,0.202994 1.373423,0.624825 2.542387,1.799298 -0.741381,0.187071 -1.833314,0.819112 -2.657308,0.966525 0.298299,-0.447505 0.611133,-0.508401 0.696466,-0.841303 -0.179833,-0.198439 -1.744171,-0.536027 -3.158663,-0.126089 0.05223,0.293238 0.328962,0.575747 0.70265,0.869612 -0.950859,-0.229697 -1.779996,-0.949092 -2.424081,-1.001569 0.703797,-0.584633 1.312958,-1.238398 2.179716,-1.629026 z"
       id="path72"
       sodipodi:nodetypes="ccccccccccc" />
    <path
       style="fill:#868686;fill-opacity:1;stroke:#ffffff;stroke-width:0.2;stroke-linecap:round;stroke-linejoin:round;stroke-dasharray:none;stroke-opacity:1;paint-order:stroke markers fill"
       d="m 81.944478,30.007098 c -0.376164,0.547288 -0.384735,0.566075 -0.523313,0.972138 0.90377,-0.460104 2.408436,-0.446425 3.40026,0.260133 -0.433273,-0.988026 -0.334435,-0.631493 -0.758114,-1.269723 0.36558,0.202994 1.373423,0.624825 2.542387,1.799298 -0.741381,0.187071 -1.833314,0.819112 -2.657308,0.966525 0.298299,-0.447505 0.611133,-0.508401 0.696465,-0.841303 -0.179832,-0.198439 -1.74417,-0.536027 -3.158662,-0.126089 0.05223,0.293238 0.328962,0.575747 0.70265,0.869612 -0.950859,-0.229697 -1.779996,-0.949091 -2.424081,-1.001568 0.703797,-0.584633 1.312958,-1.238398 2.179716,-1.629023 z"
       id="path73"
       sodipodi:nodetypes="ccccccccccc" />
    <path
       style="fill:#868686;fill-opacity:1;stroke:#ffffff;stroke-width:0.2;stroke-linecap:round;stroke-linejoin:round;stroke-dasharray:none;stroke-opacity:1;paint-order:stroke markers fill"
       d="m 81.944478,9.8875744 c -0.376164,0.5472876 -0.384735,0.5660746 -0.523313,0.9721376 0.90377,-0.460104 2.408436,-0.446425 3.40026,0.260133 -0.433273,-0.988026 -0.334435,-0.631493 -0.758114,-1.2697227 0.36558,0.2029937 1.373423,0.6248247 2.542387,1.7992977 -0.741381,0.187071 -1.833314,0.819112 -2.657308,0.966525 0.298299,-0.447505 0.611133,-0.508401 0.696465,-0.841303 -0.179832,-0.198439 -1.74417,-0.536027 -3.158662,-0.126089 0.05223,0.293238 0.328962,0.575747 0.70265,0.869612 -0.950859,-0.229697 -1.779996,-0.949091 -2.424081,-1.001568 0.703797,-0.584633 1.312958,-1.238398 2.179716,-1.6290226 z"
       id="path74"
       sodipodi:nodetypes="ccccccccccc" />
    <path
       style="fill:#868686;fill-opacity:1;stroke:#ffffff;stroke-width:0.2;stroke-linecap:round;stroke-linejoin:round;stroke-dasharray:none;stroke-opacity:1;paint-order:stroke markers fill"
       d="m 41.704487,50.126621 c -0.376164,0.547287 -0.384735,0.566075 -0.523313,0.972135 0.90377,-0.460101 2.408436,-0.446424 3.40026,0.260146 -0.433272,-0.988026 -0.334435,-0.631496 -0.758114,-1.269723 0.36558,0.203006 1.373423,0.624824 2.542387,1.799297 -0.741381,0.187071 -1.833314,0.81911 -2.657308,0.966525 0.298299,-0.447506 0.611133,-0.5084 0.696466,-0.841301 -0.179833,-0.198419 -1.744171,-0.536029 -3.158663,-0.126069 0.05223,0.293222 0.328962,0.575744 0.70265,0.86961 -0.950859,-0.229685 -1.779996,-0.94909 -2.424081,-1.00157 0.703797,-0.584633 1.312958,-1.238397 2.179716,-1.629022 z"
       id="path75"
       sodipodi:nodetypes="ccccccccccc" />
    <path
       style="fill:#868686;fill-opacity:1;stroke:#ffffff;stroke-width:0.2;stroke-linecap:round;stroke-linejoin:round;stroke-dasharray:none;stroke-opacity:1;paint-order:stroke markers fill"
       d="m 81.944478,50.126621 c -0.376164,0.547287 -0.384735,0.566075 -0.523313,0.972135 0.90377,-0.460101 2.408436,-0.446424 3.40026,0.260146 -0.433273,-0.988026 -0.334435,-0.631492 -0.758114,-1.269723 0.36558,0.203006 1.373423,0.624824 2.542387,1.799297 -0.741381,0.187071 -1.833314,0.819114 -2.657308,0.966525 0.298299,-0.447502 0.611133,-0.5084 0.696465,-0.841301 -0.179832,-0.198419 -1.74417,-0.536029 -3.158662,-0.12611 0.05223,0.293222 0.328962,0.575749 0.70265,0.86961 -0.950859,-0.229684 -1.779996,-0.94909 -2.424081,-1.001565 0.703797,-0.584634 1.312958,-1.238397 2.179716,-1.629022 z"
       id="path76"
       sodipodi:nodetypes="ccccccccccc" />
    <path
       style="fill:#868686;fill-opacity:1;stroke:#ffffff;stroke-width:0.2;stroke-linecap:round;stroke-linejoin:round;stroke-dasharray:none;stroke-opacity:1;paint-order:stroke markers fill"
       d="m 21.584737,70.246131 c -0.376155,0.547287 -0.384742,0.566075 -0.523312,0.972135 0.903768,-0.460101 2.408436,-0.446424 3.400258,0.260146 -0.433274,-0.988026 -0.334422,-0.631496 -0.758113,-1.269723 0.365577,0.203006 1.373422,0.624824 2.542385,1.799297 -0.74138,0.187071 -1.833312,0.81911 -2.657308,0.966525 0.298307,-0.447506 0.611132,-0.5084 0.696467,-0.841301 -0.179849,-0.198419 -1.74417,-0.536029 -3.158663,-0.12611 0.05222,0.293222 0.32897,0.575749 0.702652,0.869614 -0.95086,-0.229684 -1.779997,-0.94909 -2.424083,-1.00157 0.703798,-0.584633 1.312961,-1.238396 2.179717,-1.629021 z"
       id="path77"
       sodipodi:nodetypes="ccccccccccc" />
    <path
       style="fill:#868686;fill-opacity:1;stroke:#ffffff;stroke-width:0.2;stroke-linecap:round;stroke-linejoin:round;stroke-dasharray:none;stroke-opacity:1;paint-order:stroke markers fill"
       d="m 61.824482,70.246131 c -0.376163,0.547287 -0.384734,0.566075 -0.523313,0.972135 0.903771,-0.460101 2.408437,-0.446424 3.40026,0.260146 -0.433272,-0.988026 -0.334435,-0.631492 -0.758113,-1.269723 0.36558,0.203006 1.373423,0.624824 2.542387,1.799297 -0.741382,0.187071 -1.833314,0.819114 -2.657309,0.966525 0.298299,-0.447502 0.611133,-0.5084 0.696466,-0.841301 -0.179833,-0.198419 -1.744171,-0.536029 -3.158663,-0.126069 0.05223,0.293222 0.328962,0.575748 0.702651,0.86961 -0.950859,-0.229685 -1.779996,-0.949091 -2.424082,-1.001566 0.703798,-0.584633 1.312959,-1.238397 2.179716,-1.629022 z"
       id="path78"
       sodipodi:nodetypes="ccccccccccc" />
    <path
       style="fill:#868686;fill-opacity:1;stroke:#ffffff;stroke-width:0.2;stroke-linecap:round;stroke-linejoin:round;stroke-dasharray:none;stroke-opacity:1;paint-order:stroke markers fill"
       d="m 81.944478,70.246131 c -0.376164,0.547287 -0.384735,0.566075 -0.523313,0.972135 0.90377,-0.460101 2.408436,-0.446424 3.40026,0.260146 -0.433273,-0.988026 -0.334435,-0.631492 -0.758114,-1.269723 0.36558,0.203006 1.373423,0.624824 2.542387,1.799297 -0.741381,0.187071 -1.833314,0.819114 -2.657308,0.966525 0.298299,-0.447502 0.611133,-0.5084 0.696465,-0.841301 -0.179832,-0.198419 -1.74417,-0.536029 -3.158662,-0.126069 0.05223,0.293222 0.328962,0.575748 0.70265,0.86961 -0.950859,-0.229685 -1.779996,-0.949091 -2.424081,-1.001566 0.703797,-0.584633 1.312958,-1.238397 2.179716,-1.629022 z"
       id="path79"
       sodipodi:nodetypes="ccccccccccc" />
    <path
       style="fill:#868686;fill-opacity:1;stroke:#ffffff;stroke-width:0.2;stroke-linecap:round;stroke-linejoin:round;stroke-dasharray:none;stroke-opacity:1;paint-order:stroke markers fill"
       d="m 41.704487,90.365653 c -0.376164,0.547287 -0.384735,0.566075 -0.523313,0.972135 0.90377,-0.460101 2.408436,-0.446424 3.40026,0.260146 -0.433272,-0.988026 -0.334435,-0.631496 -0.758114,-1.269723 0.36558,0.203006 1.373423,0.624824 2.542387,1.799297 -0.741381,0.187071 -1.833314,0.81911 -2.657308,0.966525 0.298299,-0.447506 0.611133,-0.5084 0.696466,-0.841301 -0.179833,-0.198419 -1.744171,-0.536029 -3.158663,-0.12611 0.05223,0.293222 0.328962,0.575745 0.70265,0.86961 -0.950859,-0.229684 -1.779996,-0.94909 -2.424081,-1.00157 0.703797,-0.584633 1.312958,-1.238396 2.179716,-1.629021 z"
       id="path80"
       sodipodi:nodetypes="ccccccccccc" />
    <path
       style="fill:#868686;fill-opacity:1;stroke:#ffffff;stroke-width:0.2;stroke-linecap:round;stroke-linejoin:round;stroke-dasharray:none;stroke-opacity:1;paint-order:stroke markers fill"
       d="m 61.824482,90.365653 c -0.376163,0.547287 -0.384734,0.566075 -0.523313,0.972135 0.903771,-0.460101 2.408437,-0.446424 3.40026,0.260146 -0.433272,-0.988026 -0.334435,-0.631492 -0.758113,-1.269723 0.36558,0.203006 1.373423,0.624824 2.542387,1.799297 -0.741382,0.187071 -1.833314,0.819114 -2.657309,0.966525 0.298299,-0.447502 0.611133,-0.5084 0.696466,-0.841301 -0.179833,-0.198419 -1.744171,-0.536029 -3.158663,-0.126069 0.05223,0.293222 0.328962,0.575748 0.702651,0.86961 -0.950859,-0.229685 -1.779996,-0.949091 -2.424082,-1.001566 0.703798,-0.584633 1.312959,-1.238397 2.179716,-1.629022 z"
       id="path81"
       sodipodi:nodetypes="ccccccccccc" />
    <path
       style="fill:#868686;fill-opacity:1;stroke:#ffffff;stroke-width:0.2;stroke-linecap:round;stroke-linejoin:round;stroke-dasharray:none;stroke-opacity:1;paint-order:stroke markers fill"
       d="m 34.201229,20.882382 c -0.547299,-0.376143 -0.566088,-0.384734 -0.972159,-0.523297 0.460113,0.903742 0.446434,2.408366 -0.260142,3.400159 0.988049,-0.433261 0.631508,-0.33441 1.269753,-0.758091 -0.203,0.365564 -0.62484,1.373382 -1.79934,2.542312 -0.187076,-0.741359 -0.819131,-1.833259 -0.966548,-2.657232 0.447515,0.298297 0.508412,0.611115 0.841322,0.696448 0.198444,-0.179845 0.53604,-1.74412 0.126092,-3.158572 -0.293245,0.05221 -0.57576,0.328962 -0.869631,0.702631 0.229702,-0.950832 0.949113,-1.779945 1.001591,-2.424012 0.584647,0.703777 1.238427,1.312922 1.629062,2.179654 z"
       id="path82"
       sodipodi:nodetypes="ccccccccccc" />
    <path
       style="fill:#868686;fill-opacity:1;stroke:#ffffff;stroke-width:0.2;stroke-linecap:round;stroke-linejoin:round;stroke-dasharray:none;stroke-opacity:1;paint-order:stroke markers fill"
       d="m 94.561215,20.882382 c -0.547301,-0.376143 -0.566089,-0.384734 -0.972159,-0.523297 0.460113,0.903742 0.446435,2.408366 -0.260151,3.400159 0.988049,-0.433261 0.631506,-0.33441 1.269753,-0.758091 -0.203011,0.365564 -0.624839,1.373382 -1.79934,2.542312 -0.187076,-0.741359 -0.819133,-1.833259 -0.966548,-2.657232 0.447517,0.298297 0.508412,0.611115 0.841321,0.696448 0.198424,-0.179845 0.536041,-1.74412 0.126072,-3.158572 -0.293229,0.05221 -0.575758,0.328962 -0.86963,0.702631 0.22969,-0.950832 0.949112,-1.779945 1.001589,-2.424012 0.584647,0.703777 1.238431,1.312922 1.629064,2.179654 z"
       id="path83"
       sodipodi:nodetypes="ccccccccccc" />
    <path
       style="fill:#868686;fill-opacity:1;stroke:#ffffff;stroke-width:0.2;stroke-linecap:round;stroke-linejoin:round;stroke-dasharray:none;stroke-opacity:1;paint-order:stroke markers fill"
       d="m 94.561215,41.001903 c -0.547301,-0.376155 -0.566089,-0.384726 -0.972159,-0.523297 0.460113,0.903741 0.446435,2.408367 -0.260151,3.400159 0.988049,-0.433262 0.631506,-0.334426 1.269753,-0.758091 -0.203011,0.365571 -0.624839,1.373382 -1.79934,2.542311 -0.187076,-0.741357 -0.819133,-1.833259 -0.966548,-2.65723 0.447517,0.298292 0.508412,0.611114 0.841321,0.696449 0.198424,-0.179828 0.536041,-1.744121 0.126072,-3.158571 -0.293229,0.05223 -0.575758,0.328954 -0.86963,0.70263 0.22969,-0.950833 0.949112,-1.779946 1.001589,-2.424012 0.584647,0.703776 1.238431,1.312923 1.629064,2.179652 z"
       id="path84"
       sodipodi:nodetypes="ccccccccccc" />
    <path
       style="fill:#868686;fill-opacity:1;stroke:#ffffff;stroke-width:0.2;stroke-linecap:round;stroke-linejoin:round;stroke-dasharray:none;stroke-opacity:1;paint-order:stroke markers fill"
       d="m 74.441227,41.001903 c -0.5473,-0.376155 -0.566088,-0.384726 -0.972158,-0.523297 0.460112,0.903741 0.446435,2.408367 -0.260152,3.400159 0.988049,-0.433262 0.631507,-0.334426 1.269753,-0.758091 -0.20301,0.365571 -0.624838,1.373382 -1.799339,2.542311 -0.187076,-0.741357 -0.819134,-1.833259 -0.966549,-2.65723 0.447517,0.298292 0.508412,0.611114 0.841322,0.696449 0.198423,-0.179828 0.536041,-1.744121 0.126072,-3.158571 -0.293229,0.05223 -0.575758,0.328954 -0.869631,0.70263 0.22969,-0.950833 0.949113,-1.779946 1.00159,-2.424012 0.584647,0.703776 1.23843,1.312923 1.629064,2.179652 z"
       id="path85"
       sodipodi:nodetypes="ccccccccccc" />
    <path
       style="fill:#868686;fill-opacity:1;stroke:#ffffff;stroke-width:0.2;stroke-linecap:round;stroke-linejoin:round;stroke-dasharray:none;stroke-opacity:1;paint-order:stroke markers fill"
       d="m 14.081242,41.001903 c -0.5473,-0.376155 -0.566088,-0.384726 -0.972158,-0.523297 0.460112,0.903741 0.446435,2.408367 -0.260151,3.400159 0.988048,-0.433262 0.631506,-0.334426 1.269753,-0.758091 -0.203011,0.365571 -0.624839,1.373382 -1.79934,2.542311 -0.187075,-0.741357 -0.819133,-1.833259 -0.966548,-2.65723 0.447517,0.298292 0.508412,0.611114 0.841322,0.696449 0.198423,-0.179828 0.536041,-1.744121 0.126071,-3.158571 -0.293228,0.05223 -0.575757,0.328954 -0.86963,0.70263 0.22969,-0.950833 0.949112,-1.779946 1.001589,-2.424012 0.584647,0.703776 1.23843,1.312923 1.629064,2.179652 z"
       id="path86"
       sodipodi:nodetypes="ccccccccccc" />
    <path
       style="fill:#868686;fill-opacity:1;stroke:#ffffff;stroke-width:0.2;stroke-linecap:round;stroke-linejoin:round;stroke-dasharray:none;stroke-opacity:1;paint-order:stroke markers fill"
       d="m 14.081242,61.121425 c -0.5473,-0.376155 -0.566088,-0.384726 -0.972158,-0.523297 0.460112,0.903741 0.446435,2.408367 -0.260151,3.400159 0.988048,-0.433262 0.631506,-0.334426 1.269753,-0.758091 -0.203011,0.365571 -0.624839,1.373382 -1.79934,2.542311 -0.187075,-0.741357 -0.819133,-1.833259 -0.966548,-2.65723 0.447517,0.298292 0.508412,0.611114 0.841322,0.696449 0.198423,-0.179828 0.536041,-1.744121 0.126071,-3.158571 -0.293228,0.05223 -0.575757,0.328954 -0.86963,0.70263 0.22969,-0.950833 0.949112,-1.779946 1.001589,-2.424012 0.584647,0.703776 1.23843,1.312919 1.629064,2.179652 z"
       id="path87"
       sodipodi:nodetypes="ccccccccccc" />
    <path
       style="fill:#868686;fill-opacity:1;stroke:#ffffff;stroke-width:0.2;stroke-linecap:round;stroke-linejoin:round;stroke-dasharray:none;stroke-opacity:1;paint-order:stroke markers fill"
       d="m 34.201237,61.121425 c -0.5473,-0.376155 -0.566088,-0.384726 -0.972157,-0.523297 0.460111,0.903741 0.446434,2.408367 -0.260152,3.400159 0.988049,-0.433262 0.631506,-0.334426 1.269753,-0.758091 -0.203011,0.365571 -0.624839,1.373382 -1.79934,2.542311 -0.187075,-0.741357 -0.819133,-1.833259 -0.966548,-2.65723 0.447517,0.298292 0.508412,0.611114 0.841322,0.696449 0.198423,-0.179828 0.536041,-1.744121 0.126072,-3.158571 -0.293229,0.05223 -0.575758,0.328954 -0.869631,0.70263 0.22969,-0.950833 0.949113,-1.779946 1.00159,-2.424012 0.584646,0.703776 1.238429,1.312919 1.629063,2.179652 z"
       id="path88"
       sodipodi:nodetypes="ccccccccccc" />
    <path
       style="fill:#868686;fill-opacity:1;stroke:#ffffff;stroke-width:0.2;stroke-linecap:round;stroke-linejoin:round;stroke-dasharray:none;stroke-opacity:1;paint-order:stroke markers fill"
       d="m 74.441227,61.121425 c -0.5473,-0.376155 -0.566088,-0.384726 -0.972158,-0.523297 0.460112,0.903741 0.446435,2.408367 -0.260152,3.400159 0.988049,-0.433262 0.631507,-0.334426 1.269753,-0.758091 -0.20301,0.365571 -0.624838,1.373382 -1.799339,2.542311 -0.187076,-0.741357 -0.819134,-1.833259 -0.966549,-2.65723 0.447517,0.298292 0.508412,0.611114 0.841322,0.696449 0.198423,-0.179828 0.536041,-1.744121 0.126072,-3.158571 -0.293229,0.05223 -0.575758,0.328954 -0.869631,0.70263 0.22969,-0.950833 0.949113,-1.779946 1.00159,-2.424012 0.584647,0.703776 1.23843,1.312919 1.629064,2.179652 z"
       id="path89"
       sodipodi:nodetypes="ccccccccccc" />
    <path
       style="fill:#868686;fill-opacity:1;stroke:#ffffff;stroke-width:0.2;stroke-linecap:round;stroke-linejoin:round;stroke-dasharray:none;stroke-opacity:1;paint-order:stroke markers fill"
       d="m 14.081242,81.240947 c -0.5473,-0.376155 -0.566088,-0.384726 -0.972158,-0.523297 0.460112,0.903741 0.446435,2.408367 -0.260151,3.400159 0.988048,-0.433262 0.631506,-0.334426 1.269753,-0.758091 -0.203011,0.365571 -0.624839,1.373382 -1.79934,2.542311 -0.187075,-0.741357 -0.819133,-1.833259 -0.966548,-2.65723 0.447517,0.298292 0.508412,0.611114 0.841322,0.696449 0.198423,-0.179828 0.536041,-1.744121 0.126071,-3.158571 -0.293228,0.05223 -0.575757,0.328954 -0.86963,0.70263 0.22969,-0.950833 0.949112,-1.779946 1.001589,-2.424012 0.584647,0.703776 1.23843,1.312919 1.629064,2.179652 z"
       id="path90"
       sodipodi:nodetypes="ccccccccccc" />
    <path
       style="fill:#868686;fill-opacity:1;stroke:#ffffff;stroke-width:0.2;stroke-linecap:round;stroke-linejoin:round;stroke-dasharray:none;stroke-opacity:1;paint-order:stroke markers fill"
       d="m 34.201237,81.240947 c -0.5473,-0.376155 -0.566088,-0.384726 -0.972157,-0.523297 0.460111,0.903741 0.446434,2.408367 -0.260152,3.400159 0.988049,-0.433262 0.631506,-0.334426 1.269753,-0.758091 -0.203011,0.365571 -0.624839,1.373382 -1.79934,2.542311 -0.187075,-0.741357 -0.819133,-1.833259 -0.966548,-2.65723 0.447517,0.298292 0.508412,0.611114 0.841322,0.696449 0.198423,-0.179828 0.536041,-1.744121 0.126072,-3.158571 -0.293229,0.05223 -0.575758,0.328954 -0.869631,0.70263 0.22969,-0.950833 0.949113,-1.779946 1.00159,-2.424012 0.584646,0.703776 1.238429,1.312919 1.629063,2.179652 z"
       id="path91"
       sodipodi:nodetypes="ccccccccccc" />
    <path
       style="fill:#868686;fill-opacity:1;stroke:#ffffff;stroke-width:0.2;stroke-linecap:round;stroke-linejoin:round;stroke-dasharray:none;stroke-opacity:1;paint-order:stroke markers fill"
       d="m 74.441227,81.240947 c -0.5473,-0.376155 -0.566088,-0.384726 -0.972158,-0.523297 0.460112,0.903741 0.446435,2.408367 -0.260152,3.400159 0.988049,-0.433262 0.631507,-0.334426 1.269753,-0.758091 -0.20301,0.365571 -0.624838,1.373382 -1.799339,2.542311 -0.187076,-0.741357 -0.819134,-1.833259 -0.966549,-2.65723 0.447517,0.298292 0.508412,0.611114 0.841322,0.696449 0.198423,-0.179828 0.536041,-1.744121 0.126072,-3.158571 -0.293229,0.05223 -0.575758,0.328954 -0.869631,0.70263 0.22969,-0.950833 0.949113,-1.779946 1.00159,-2.424012 0.584647,0.703776 1.23843,1.312919 1.629064,2.179652 z"
       id="path92"
       sodipodi:nodetypes="ccccccccccc" />
    <path
       style="fill:#868686;fill-opacity:1;stroke:#ffffff;stroke-width:0.2;stroke-linecap:round;stroke-linejoin:round;stroke-dasharray:none;stroke-opacity:1;paint-order:stroke markers fill"
       d="m 94.561223,81.240947 c -0.547301,-0.376155 -0.566089,-0.384726 -0.972159,-0.523297 0.460113,0.903741 0.446435,2.408367 -0.260151,3.400159 0.988049,-0.433262 0.631506,-0.334426 1.269753,-0.758091 -0.203011,0.365571 -0.624839,1.373382 -1.79934,2.542311 -0.187075,-0.741357 -0.819133,-1.833259 -0.966548,-2.65723 0.447517,0.298292 0.508412,0.611114 0.841321,0.696449 0.198424,-0.179828 0.536041,-1.744121 0.126072,-3.158571 -0.293229,0.05223 -0.575758,0.328954 -0.86963,0.70263 0.22969,-0.950833 0.949112,-1.779946 1.001589,-2.424012 0.584647,0.703776 1.238431,1.312919 1.629064,2.179652 z"
       id="path93"
       sodipodi:nodetypes="ccccccccccc" />
    <path
       style="fill:none;stroke:#000000;stroke-width:0.2;stroke-linecap:round;stroke-linejoin:round;stroke-dasharray:none;stroke-opacity:1;paint-order:stroke markers fill"
       d="M 22.552748,1.3937883 C 5.6259718,-1.9432928 20.692552,-17.163425 35.043496,-7.0079744 47.258557,1.6360171 62.183821,-16.069488 77.83507,-10.845863 c 11.754477,3.9230716 22.9647,-2.213942 29.82373,10.54792081 5.58337,10.38837519 6.95863,11.92093719 3.74031,21.43824919 -4.01047,11.859883 3.58188,15.801408 4.66922,29.032776 1.07849,13.123547 -18.424544,18.203677 -2.59016,32.626218 7.7717,7.078758 -7.11428,30.120959 -18.467935,27.892489 -11.066195,-2.17205 -15.488132,-5.70748 -26.620969,1.07012 -11.952848,7.27681 -21.868401,-8.8388 -34.931242,-1.82794 -12.195701,6.54547 -27.7855181,7.10299 -35.1563047,-5.41209 C -7.4899815,94.687979 1.9921787,84.856751 -6.5342755,74.970074 -15.414385,64.673323 1.4307469,52.965033 -4.6972553,42.689204 -12.493138,29.616564 -11.206478,7.4148599 2.4752082,21.879146"
       id="path13"
       sodipodi:nodetypes="cssssssssssssc" />
    <path
       style="fill:none;stroke:#000000;stroke-width:0.2;stroke-linecap:round;stroke-linejoin:round;stroke-opacity:1;paint-order:stroke markers fill"
       d="m 20.235398,-4.4542248 c 2.443216,-3.5570365 2.036351,3.0317282 5.042554,-1.1781866"
       id="path14" />
    <path
       style="fill:none;stroke:#000000;stroke-width:0.2;stroke-linecap:round;stroke-linejoin:round;stroke-opacity:1;paint-order:stroke markers fill"
       d="m 30.913738,-1.0430883 c 2.443216,-3.5570365 2.036351,3.0317282 5.042554,-1.1781866"
       id="path15" />
    <path
       style="fill:none;stroke:#000000;stroke-width:0.2;stroke-linecap:round;stroke-linejoin:round;stroke-opacity:1;paint-order:stroke markers fill"
       d="m 50.986518,-2.5156511 c 2.443216,-3.5570365 2.036351,3.03172828 5.042554,-1.1781866"
       id="path16" />
    <path
       style="fill:none;stroke:#000000;stroke-width:0.2;stroke-linecap:round;stroke-linejoin:round;stroke-opacity:1;paint-order:stroke markers fill"
       d="m 66.656516,-1.93295 c 2.443216,-3.5570365 2.036351,3.0317282 5.042554,-1.1781866"
       id="path17" />
    <path
       style="fill:none;stroke:#000000;stroke-width:0.2;stroke-linecap:round;stroke-linejoin:round;stroke-opacity:1;paint-order:stroke markers fill"
       d="m 85.046991,-5.9373276 c 2.443216,-3.5570365 2.036351,3.0317282 5.042554,-1.1781866"
       id="path18" />
    <path
       style="fill:none;stroke:#000000;stroke-width:0.2;stroke-linecap:round;stroke-linejoin:round;stroke-opacity:1;paint-order:stroke markers fill"
       d="m 90.237851,-2.0812603 c 2.443216,-3.5570365 2.036351,3.03172819 5.042554,-1.1781866"
       id="path19" />
    <path
       style="fill:none;stroke:#000000;stroke-width:0.2;stroke-linecap:round;stroke-linejoin:round;stroke-opacity:1;paint-order:stroke markers fill"
       d="m 105.81043,11.563285 c 2.44322,-3.557036 2.03635,3.031729 5.04255,-1.178186"
       id="path20" />
    <path
       style="fill:none;stroke:#000000;stroke-width:0.2;stroke-linecap:round;stroke-linejoin:round;stroke-opacity:1;paint-order:stroke markers fill"
       d="m 108.18339,44.933098 c 2.44322,-3.557036 2.03635,3.031729 5.04255,-1.178186"
       id="path21" />
    <path
       style="fill:none;stroke:#000000;stroke-width:0.2;stroke-linecap:round;stroke-linejoin:round;stroke-opacity:1;paint-order:stroke markers fill"
       d="m 104.92056,47.157752 c 2.44322,-3.557036 2.03635,3.031729 5.04255,-1.178186"
       id="path22" />
    <path
       style="fill:none;stroke:#000000;stroke-width:0.2;stroke-linecap:round;stroke-linejoin:round;stroke-opacity:1;paint-order:stroke markers fill"
       d="m 107.88677,53.980025 c 2.44322,-3.557036 2.03635,3.031729 5.04255,-1.178186"
       id="path23" />
    <path
       style="fill:none;stroke:#000000;stroke-width:0.2;stroke-linecap:round;stroke-linejoin:round;stroke-opacity:1;paint-order:stroke markers fill"
       d="m 70.215959,-4.3059152 c 2.44322,-3.557036 2.03635,3.031729 5.04255,-1.178186"
       id="path24" />
    <path
       style="fill:none;stroke:#000000;stroke-width:0.2;stroke-linecap:round;stroke-linejoin:round;stroke-opacity:1;paint-order:stroke markers fill"
       d="m 106.40367,86.015046 c 2.44322,-3.557036 2.03635,3.031729 5.04255,-1.178186"
       id="path25" />
    <path
       style="fill:none;stroke:#000000;stroke-width:0.2;stroke-linecap:round;stroke-linejoin:round;stroke-opacity:1;paint-order:stroke markers fill"
       d="m 95.428709,106.48186 c 2.44322,-3.55703 2.03635,3.03173 5.042551,-1.17818"
       id="path26" />
    <path
       style="fill:none;stroke:#000000;stroke-width:0.2;stroke-linecap:round;stroke-linejoin:round;stroke-opacity:1;paint-order:stroke markers fill"
       d="m 71.254133,106.33355 c 2.44322,-3.55703 2.03635,3.03173 5.04255,-1.17818"
       id="path27" />
    <path
       style="fill:none;stroke:#000000;stroke-width:0.2;stroke-linecap:round;stroke-linejoin:round;stroke-opacity:1;paint-order:stroke markers fill"
       d="m 67.694686,108.85482 c 2.44322,-3.55703 2.03635,3.03173 5.04255,-1.17818"
       id="path28" />
    <path
       style="fill:none;stroke:#000000;stroke-width:0.2;stroke-linecap:round;stroke-linejoin:round;stroke-opacity:1;paint-order:stroke markers fill"
       d="m 54.19845,110.63454 c 2.44322,-3.55703 2.03635,3.03173 5.04255,-1.17818"
       id="path29" />
    <path
       style="fill:none;stroke:#000000;stroke-width:0.2;stroke-linecap:round;stroke-linejoin:round;stroke-opacity:1;paint-order:stroke markers fill"
       d="m 33.2867,106.63016 c 2.44322,-3.55703 2.03635,3.03173 5.04255,-1.17818"
       id="path30" />
    <path
       style="fill:none;stroke:#000000;stroke-width:0.2;stroke-linecap:round;stroke-linejoin:round;stroke-opacity:1;paint-order:stroke markers fill"
       d="m 15.637777,110.18961 c 2.44322,-3.55703 2.03635,3.03173 5.04255,-1.17818"
       id="path31" />
    <path
       style="fill:none;stroke:#000000;stroke-width:0.2;stroke-linecap:round;stroke-linejoin:round;stroke-opacity:1;paint-order:stroke markers fill"
       d="m -4.8290417,72.518799 c 2.44322,-3.55703 2.03635,3.03173 5.04254999,-1.17818"
       id="path32" />
    <path
       style="fill:none;stroke:#000000;stroke-width:0.2;stroke-linecap:round;stroke-linejoin:round;stroke-opacity:1;paint-order:stroke markers fill"
       d="m -6.9053856,68.811042 c 2.44322,-3.55703 2.03635,3.03173 5.04255,-1.17818"
       id="path33" />
    <path
       style="fill:none;stroke:#000000;stroke-width:0.2;stroke-linecap:round;stroke-linejoin:round;stroke-opacity:1;paint-order:stroke markers fill"
       d="m -5.2739726,37.220952 c 2.44322,-3.55703 2.03635,3.03173 5.04255008,-1.17818"
       id="path34" />
    <path
       style="fill:none;stroke:#000000;stroke-width:0.2;stroke-linecap:round;stroke-linejoin:round;stroke-opacity:1;paint-order:stroke markers fill"
       d="m -7.4986268,24.317958 c 2.44322,-3.55703 2.03635,3.03173 5.0425501,-1.17818"
       id="path35" />
    <path
       style="fill:#ffffff;fill-opacity:1;stroke:#000000;stroke-width:0.2;stroke-linecap:round;stroke-linejoin:round;stroke-opacity:1;paint-order:normal"
       d="m -10.073633,13.295671 c 0.272287,-0.737396 0.922545,-1.315721 1.5764521,-1.227291 0.445757,0.07931 0.596618,0.636481 0.457623,1.11512 0.279525,0.174234 0.601599,-0.66981 1.002779,-0.336526 0.497766,0.210347 0.716485,1.118716 0.334172,1.609568 0.557848,-0.629153 1.46487,-0.01565 1.645583,0.807135 0.178123,0.415859 -0.19034,0.618581 -0.226444,0.927399 0.302081,0.278916 0.862478,0.235879 0.950025,0.80893 0.116232,0.582716 -0.288403,0.893846 -0.697455,0.883771 -0.631763,0.119324 0.106304,0.564952 0.291139,0.786426 0.307877,0.475228 0.250769,1.458541 -0.300045,1.588719 -0.199143,0.149852 -0.689633,-0.31292 -0.582311,-0.317127 0.390995,0.448449 0.359351,1.324806 -0.09244,1.690334 -0.414775,0.419528 -0.957047,0.124214 -1.261918,-0.326932 -0.296681,-0.267221 -0.3727,-1.022903 -0.724421,-1.059736 -0.05566,0.714715 -0.540801,1.281908 -1.118321,1.26464 -0.5653841,0.188428 -1.1812341,-0.713256 -1.2253021,-0.991619 -0.153425,0.805213 -0.93259,0.97943 -1.480011,0.81492 -0.409546,-0.07868 -0.94673,-0.467583 -0.779712,-1.093177 0.149603,-0.399406 0.306652,-1.17339 -0.269792,-0.977853 -0.745081,-0.07349 -1.094323,-1.240921 -0.824152,-2.042498 0.03525,-0.575739 1.16059,-0.14979 0.708317,-0.808538 -0.411923,-0.273799 -0.585992,-0.92989 -0.475073,-1.491164 0.06093,-0.622356 0.579221,-0.574676 0.913851,-0.442628 0.03408,-0.425522 -0.323116,-0.884782 -0.09828,-1.303391 0.360093,-0.503452 0.924563,-0.36017 1.2893,0.08215 0.07897,0.03965 -0.05031,-0.619974 0.247609,-0.679459 0.269841,-0.196159 0.927097,-0.07122 0.738823,0.718834 z"
       id="path36"
       sodipodi:nodetypes="cccccccccccccccccccccccccccc" />
    <path
       style="fill:#ffffff;fill-opacity:1;stroke:#000000;stroke-width:0.2;stroke-linecap:round;stroke-linejoin:round;stroke-opacity:1;paint-order:normal"
       d="m 54.788851,-12.171933 c 0.272287,-0.579167 0.922545,-1.033396 1.576452,-0.963941 0.445757,0.06229 0.596618,0.499906 0.457623,0.87584 0.279525,0.136847 0.601599,-0.526084 1.002779,-0.264315 0.497766,0.165211 0.716485,0.878664 0.334172,1.26419 0.557848,-0.494151 1.46487,-0.01229 1.645583,0.633941 0.178123,0.326625 -0.19034,0.485847 -0.226444,0.7284 0.302081,0.219066 0.862478,0.185264 0.950025,0.635351 0.116232,0.4576784 -0.288403,0.7020464 -0.697455,0.6941334 -0.631763,0.09372 0.106304,0.443726 0.291139,0.617676 0.307877,0.373255 0.250769,1.14557 -0.300045,1.247815 -0.199143,0.117697 -0.689633,-0.245774 -0.582311,-0.249079 0.390995,0.352222 0.359351,1.040532 -0.09244,1.327626 -0.414775,0.329506 -0.957047,0.09756 -1.261918,-0.25678 -0.296681,-0.209881 -0.3727,-0.80341 -0.724421,-0.83234 -0.05566,0.561353 -0.540801,1.006839 -1.118321,0.993276 -0.565384,0.147996 -1.181234,-0.560207 -1.225302,-0.778839 -0.153425,0.632432 -0.93259,0.769266 -1.480011,0.640056 -0.409546,-0.0618 -0.94673,-0.36725 -0.779712,-0.858605 0.149603,-0.313702 0.306652,-0.921606 -0.269792,-0.768027 -0.745081,-0.05772 -1.094323,-0.974647 -0.824152,-1.6042234 0.03525,-0.452198 1.16059,-0.117648 0.708317,-0.635043 -0.411923,-0.215048 -0.585992,-0.730356 -0.475073,-1.171193 0.06093,-0.488812 0.579221,-0.451363 0.913851,-0.34765 0.03408,-0.334214 -0.323116,-0.694927 -0.09828,-1.023712 0.360093,-0.395422 0.924563,-0.282885 1.2893,0.06452 0.07897,0.03114 -0.05031,-0.486941 0.247609,-0.533662 0.269841,-0.154067 0.927097,-0.05594 0.738823,0.564588 z"
       id="path37"
       sodipodi:nodetypes="cccccccccccccccccccccccccccc" />
    <path
       style="fill:#ffffff;fill-opacity:1;stroke:#000000;stroke-width:0.2;stroke-linecap:round;stroke-linejoin:round;stroke-opacity:1;paint-order:normal"
       d="m 63.361051,-8.3656062 c -0.272287,0.579167 -0.922545,1.033396 -1.576452,0.963941 -0.445757,-0.06229 -0.596618,-0.499906 -0.457623,-0.87584 -0.279525,-0.136847 -0.601599,0.526084 -1.002779,0.264315 -0.497766,-0.165211 -0.716485,-0.878664 -0.334172,-1.2641898 -0.557848,0.4941508 -1.46487,0.01229 -1.645583,-0.633941 -0.178123,-0.326625 0.19034,-0.485847 0.226444,-0.7284 -0.302081,-0.219066 -0.862478,-0.185264 -0.950025,-0.635351 -0.116232,-0.457678 0.288403,-0.702046 0.697455,-0.694133 0.631763,-0.09372 -0.106304,-0.443726 -0.291139,-0.617676 -0.307877,-0.373255 -0.250769,-1.14557 0.300045,-1.247815 0.199143,-0.117697 0.689633,0.245774 0.582311,0.249079 -0.390995,-0.352222 -0.359351,-1.040532 0.09244,-1.327626 0.414775,-0.329506 0.957047,-0.09756 1.261918,0.25678 0.296681,0.209881 0.3727,0.80341 0.724421,0.83234 0.05566,-0.561353 0.540801,-1.006839 1.118321,-0.993276 0.565384,-0.147996 1.181234,0.560207 1.225302,0.778839 0.153425,-0.632432 0.932589,-0.769266 1.48001,-0.640056 0.409546,0.0618 0.94673,0.36725 0.779712,0.858605 -0.149603,0.313702 -0.306652,0.921606 0.269792,0.768027 0.745081,0.05772 1.094323,0.974647 0.824152,1.604223 -0.03525,0.452198 -1.16059,0.117648 -0.708317,0.635043 0.411923,0.215048 0.585992,0.730356 0.475073,1.171193 -0.06093,0.488812 -0.579221,0.451363 -0.913851,0.34765 -0.03408,0.334214 0.323116,0.6949268 0.09828,1.0237118 -0.360093,0.395422 -0.924563,0.282885 -1.2893,-0.06452 -0.07897,-0.03114 0.05031,0.486941 -0.247609,0.533662 -0.269841,0.154067 -0.927096,0.05594 -0.738822,-0.564588 z"
       id="path38"
       sodipodi:nodetypes="cccccccccccccccccccccccccccc" />
    <path
       style="fill:#ffffff;fill-opacity:1;stroke:#000000;stroke-width:0.2;stroke-linecap:round;stroke-linejoin:round;stroke-opacity:1;paint-order:normal"
       d="m 112.95623,29.304331 c -0.26348,1.015518 -0.89272,1.811968 -1.52549,1.690185 -0.43134,-0.10922 -0.57734,-0.87654 -0.44283,-1.535707 -0.27049,-0.239949 -0.58215,0.922441 -0.97036,0.463453 -0.48168,-0.289683 -0.69332,-1.54066 -0.32337,-2.216644 -0.53982,0.866449 -1.41752,0.02155 -1.59239,-1.111559 -0.17237,-0.572708 0.18419,-0.851889 0.21912,-1.277185 -0.29231,-0.384112 -0.83459,-0.324844 -0.91931,-1.114031 -0.11248,-0.802498 0.27908,-1.230975 0.67491,-1.217101 0.61134,-0.164329 -0.10286,-0.778034 -0.28173,-1.08304 -0.29793,-0.654469 -0.24266,-2.008655 0.29035,-2.187933 0.1927,-0.206371 0.66734,0.430943 0.56349,0.436738 -0.37836,-0.61759 -0.34774,-1.82448 0.0894,-2.327874 0.40136,-0.577759 0.9261,-0.171063 1.22112,0.450241 0.2871,0.368008 0.36065,1.408708 0.70101,1.459434 0.0539,-0.984282 0.52332,-1.765403 1.08217,-1.741621 0.5471,-0.259498 1.14304,0.982273 1.18569,1.365625 0.14846,-1.108913 0.90244,-1.34884 1.43217,-1.122281 0.3963,0.10836 0.91612,0.64394 0.7545,1.505487 -0.14476,0.550049 -0.29674,1.615955 0.26107,1.346667 0.72099,0.101207 1.05895,1.708957 0.79751,2.812863 -0.0342,0.792889 -1.12308,0.206285 -0.68542,1.113492 0.39861,0.377067 0.56705,1.280614 0.45972,2.053582 -0.0589,0.857089 -0.5605,0.791425 -0.88431,0.609574 -0.033,0.586014 0.31267,1.218491 0.0951,1.794986 -0.34845,0.693338 -0.89467,0.496014 -1.24762,-0.11313 -0.0764,-0.0546 0.0487,0.853808 -0.23961,0.935729 -0.26111,0.270143 -0.89713,0.09809 -0.71493,-0.989955 z"
       id="path39"
       sodipodi:nodetypes="cccccccccccccccccccccccccccc" />
    <path
       style="fill:#ffffff;fill-opacity:1;stroke:#000000;stroke-width:0.2;stroke-linecap:round;stroke-linejoin:round;stroke-opacity:1;paint-order:normal"
       d="m -6.0107115,54.047478 c 0.4480136,-0.25514 1.2701688,-0.312192 1.4616867,0.280096 0.045908,0.314462 -0.6659143,0.735564 -0.062583,0.699387 0.6259779,0.05527 0.3261002,0.887564 -0.049131,1.09093 -0.5626441,0.122966 0.4551495,0.126044 0.3288238,0.602258 0.016291,0.367498 -0.098963,0.904722 -0.5361532,0.955041 -0.4009323,0.271905 0.3164808,0.978654 -0.3547203,1.201721 -0.3167621,0.228843 -0.84783,-0.473621 -0.8058019,0.214978 0.1182248,0.463857 -0.3181993,0.892688 -0.7329475,1.001802 -0.3949826,0.02186 -0.2675564,-0.795608 -0.393109,-0.197411 -0.1747802,0.52409 -1.1587625,0.803135 -1.2581016,0.09627 -0.1538641,-0.400577 0.3624796,-0.865519 0.1161592,-1.174782 -0.2941105,0.255011 -0.8002897,0.402615 -1.1190777,0.09724 -0.411762,-0.203687 -0.154303,-0.831807 -0.202937,-1.041745 -0.621104,0.45198 -1.492261,-0.470197 -1.073818,-1.085124 0.254309,-0.24118 0.952105,-0.524639 0.45219,-0.895795 -0.190543,-0.493708 0.188436,-1.011501 0.567347,-1.297462 0.274636,-0.299158 0.9228768,0.370021 0.8296085,-0.287957 0.036464,-0.440544 0.4298542,-1.012368 0.8989246,-0.969389 0.1943141,0.317333 0.4331754,0.312932 0.5091209,-0.05897 0.1864474,-0.549822 1.0475006,-0.441137 0.9518625,0.190348 0.1075451,0.05769 0.6200445,-0.385216 0.7286841,0.09325 0.061418,0.202755 -0.098924,0.382546 -0.2560241,0.485316 z"
       id="path40" />
    <path
       style="fill:#ffffff;fill-opacity:1;stroke:#000000;stroke-width:0.2;stroke-linecap:round;stroke-linejoin:round;stroke-opacity:1;paint-order:normal"
       d="m 41.192351,110.83281 c 0.469177,0.21374 0.996886,0.84676 0.628937,1.34886 -0.228013,0.22136 -0.986207,-0.10904 -0.603559,0.35884 0.321756,0.53979 -0.528487,0.7841 -0.913069,0.59903 -0.42917,-0.38406 0.164367,0.44276 -0.295622,0.61924 -0.288353,0.22841 -0.79131,0.4496 -1.088125,0.12468 -0.455199,-0.16576 -0.607958,0.82965 -1.181832,0.41621 -0.371004,-0.12275 -0.112589,-0.9646 -0.646149,-0.52728 -0.306767,0.36747 -0.909948,0.26484 -1.241273,-0.007 -0.24906,-0.30735 0.488221,-0.6828 -0.07019,-0.43426 -0.527176,0.16524 -1.329604,-0.46895 -0.814821,-0.96341 0.234594,-0.3593 0.913856,-0.21304 1.02029,-0.59381 -0.378943,-0.0891 -0.795019,-0.41293 -0.734135,-0.85019 -0.07602,-0.45306 0.583895,-0.6122 0.725582,-0.77456 -0.730098,-0.23877 -0.492748,-1.48497 0.250754,-1.50589 0.344425,0.0649 0.982834,0.46453 0.990927,-0.15805 0.288613,-0.44357 0.930263,-0.4396 1.383955,-0.29992 0.403327,0.0474 0.240514,0.96476 0.719247,0.50384 0.378457,-0.22844 1.072346,-0.24442 1.312201,0.16097 -0.143432,0.34334 1.5e-5,0.53439 0.345973,0.37814 0.554865,-0.17085 0.971014,0.59076 0.403127,0.88304 0.01621,0.12097 0.675362,0.27701 0.35118,0.64525 -0.128379,0.16851 -0.368012,0.14383 -0.543319,0.0767 z"
       id="path42" />
    <path
       style="fill:#ffffff;fill-opacity:1;stroke:#000000;stroke-width:0.2;stroke-linecap:round;stroke-linejoin:round;stroke-dasharray:none;stroke-opacity:1;paint-order:normal"
       d="m 50.35844,111.97067 c 0.717631,0.7653 1.054665,1.72274 0.613642,2.19255 -0.322785,0.30626 -1.049407,0.0197 -1.534734,-0.4462 -0.347351,0.10044 0.468692,0.98495 -0.126696,1.06787 -0.502236,0.25238 -1.67276,-0.2371 -2.046509,-0.911 0.443984,0.91925 -0.739117,1.20977 -1.790406,0.75214 -0.576199,-0.16028 -0.62166,-0.61089 -0.962551,-0.86758 -0.480866,0.0419 -0.720515,0.53192 -1.432871,0.18188 -0.738448,-0.3337 -0.891437,-0.89361 -0.66821,-1.2208 0.187727,-0.60456 -0.712638,-0.32875 -1.066023,-0.34051 -0.712404,-0.0978 -1.827568,-0.8681 -1.694405,-1.41434 -0.07148,-0.27316 0.72084,-0.33385 0.67025,-0.24298 -0.724206,-0.0101 -1.728026,-0.68087 -1.919981,-1.31933 -0.273933,-0.64797 0.350208,-0.87424 1.033024,-0.79165 0.464478,-0.0461 0.641923,-0.0342 0.86665,-0.29481 -0.803206,-0.57146 -0.471129,-0.9036 -0.152436,-1.36329 0.07296,-0.60111 1.441029,-0.44138 1.787869,-0.27261 -0.858279,-0.7177 -0.657997,-1.48351 -0.183455,-1.81024 0.303336,-0.27709 1.033798,-0.43034 1.675702,0.1666 0.387602,0.41626 1.207393,1.11426 1.277828,0.49883 0.470785,-0.55536 2.010372,0.018 2.803812,0.82876 0.651927,0.45259 -0.42568,1.05956 0.575013,1.17432 0.531711,-0.13547 1.385476,0.20491 1.981521,0.70863 0.693001,0.50775 0.369514,0.89664 0.04278,1.07319 0.477712,0.34101 1.197048,0.38674 1.568114,0.87867 0.399893,0.66499 -0.05874,1.02128 -0.762225,0.99417 -0.08698,0.0354 0.747736,0.41501 0.66295,0.7025 0.08884,0.36504 -0.396413,0.81076 -1.218798,0.0754 z"
       id="path41"
       sodipodi:nodetypes="ccccccccccccccccccccccccccccc" />
    <g
       id="g47"
       transform="matrix(0.82142856,0,0,1,3.2002052,2.9662056)"
       style="stroke-width:1.10335">
      <path
         style="fill:#ffffff;fill-opacity:1;stroke:#000000;stroke-width:0.220671;stroke-linecap:round;stroke-linejoin:round;stroke-dasharray:none;stroke-opacity:1;paint-order:normal"
         d="m -6.8405389,7.6210683 c 0.050213,-0.9741175 0.1385977,-1.4721078 1.0752494,-1.5572578"
         id="path43" />
      <path
         style="fill:#ffffff;fill-opacity:1;stroke:#000000;stroke-width:0.220671;stroke-linecap:round;stroke-linejoin:round;stroke-dasharray:none;stroke-opacity:1;paint-order:normal"
         d="M -7.2854697,7.4356803 C -7.4824504,6.5989845 -8.1131686,5.9465815 -8.8427278,5.5818018"
         id="path44" />
      <path
         style="fill:#ffffff;fill-opacity:1;stroke:#000000;stroke-width:0.220671;stroke-linecap:round;stroke-linejoin:round;stroke-dasharray:none;stroke-opacity:1;paint-order:normal"
         d="m -7.2483923,6.4345862 c 0.073604,-0.7421319 0.026605,-1.1766703 -0.519086,-1.6314132"
         id="path45" />
      <path
         style="fill:#ffffff;fill-opacity:1;stroke:#000000;stroke-width:0.220671;stroke-linecap:round;stroke-linejoin:round;stroke-dasharray:none;stroke-opacity:1;paint-order:normal"
         d="M -7.8416333,7.3244477 C -8.2011074,6.9516429 -8.5986369,6.6095446 -9.0651931,6.4345862"
         id="path46" />
      <path
         style="fill:#ffffff;fill-opacity:1;stroke:#000000;stroke-width:0.220671;stroke-linecap:round;stroke-linejoin:round;stroke-dasharray:none;stroke-opacity:1;paint-order:normal"
         d="M -6.0989875,7.4356803 C -5.8014183,7.10596 -5.3212975,6.9703595 -4.9125054,6.8795169"
         id="path47" />
    </g>
    <g
       id="g53"
       transform="matrix(1.3571429,0,0,1,21.738182,-7.1188935)"
       style="stroke-width:0.858395">
      <path
         style="fill:#ffffff;fill-opacity:1;stroke:#000000;stroke-width:0.171679;stroke-linecap:round;stroke-linejoin:round;stroke-dasharray:none;stroke-opacity:1;paint-order:normal"
         d="m -6.8405389,7.6210683 c 0.050213,-0.9741175 0.1385977,-1.4721078 1.0752494,-1.5572578"
         id="path48" />
      <path
         style="fill:#ffffff;fill-opacity:1;stroke:#000000;stroke-width:0.171679;stroke-linecap:round;stroke-linejoin:round;stroke-dasharray:none;stroke-opacity:1;paint-order:normal"
         d="M -7.2854697,7.4356803 C -7.4824504,6.5989845 -8.1131686,5.9465815 -8.8427278,5.5818018"
         id="path50" />
      <path
         style="fill:#ffffff;fill-opacity:1;stroke:#000000;stroke-width:0.171679;stroke-linecap:round;stroke-linejoin:round;stroke-dasharray:none;stroke-opacity:1;paint-order:normal"
         d="m -7.2483923,6.4345862 c 0.073604,-0.7421319 0.026605,-1.1766703 -0.519086,-1.6314132"
         id="path51" />
      <path
         style="fill:#ffffff;fill-opacity:1;stroke:#000000;stroke-width:0.171679;stroke-linecap:round;stroke-linejoin:round;stroke-dasharray:none;stroke-opacity:1;paint-order:normal"
         d="M -7.8416333,7.3244477 C -8.2011074,6.9516429 -8.5986369,6.6095446 -9.0651931,6.4345862"
         id="path52" />
      <path
         style="fill:#ffffff;fill-opacity:1;stroke:#000000;stroke-width:0.171679;stroke-linecap:round;stroke-linejoin:round;stroke-dasharray:none;stroke-opacity:1;paint-order:normal"
         d="M -6.0989875,7.4356803 C -5.8014183,7.10596 -5.3212975,6.9703595 -4.9125054,6.8795169"
         id="path53" />
    </g>
    <g
       id="g58"
       transform="matrix(-1,0,0,1,-10.901354,-16.462441)">
      <path
         style="fill:#ffffff;fill-opacity:1;stroke:#000000;stroke-width:0.2;stroke-linecap:round;stroke-linejoin:round;stroke-dasharray:none;stroke-opacity:1;paint-order:normal"
         d="m -6.8405389,7.6210683 c 0.050213,-0.9741175 0.1385977,-1.4721078 1.0752494,-1.5572578"
         id="path54" />
      <path
         style="fill:#ffffff;fill-opacity:1;stroke:#000000;stroke-width:0.2;stroke-linecap:round;stroke-linejoin:round;stroke-dasharray:none;stroke-opacity:1;paint-order:normal"
         d="M -7.2854697,7.4356803 C -7.4824504,6.5989845 -8.1131686,5.9465815 -8.8427278,5.5818018"
         id="path55" />
      <path
         style="fill:#ffffff;fill-opacity:1;stroke:#000000;stroke-width:0.2;stroke-linecap:round;stroke-linejoin:round;stroke-dasharray:none;stroke-opacity:1;paint-order:normal"
         d="m -7.2483923,6.4345862 c 0.073604,-0.7421319 0.026605,-1.1766703 -0.519086,-1.6314132"
         id="path56" />
      <path
         style="fill:#ffffff;fill-opacity:1;stroke:#000000;stroke-width:0.2;stroke-linecap:round;stroke-linejoin:round;stroke-dasharray:none;stroke-opacity:1;paint-order:normal"
         d="M -7.8416333,7.3244477 C -8.2011074,6.9516429 -8.5986369,6.6095446 -9.0651931,6.4345862"
         id="path57" />
      <path
         style="fill:#ffffff;fill-opacity:1;stroke:#000000;stroke-width:0.2;stroke-linecap:round;stroke-linejoin:round;stroke-dasharray:none;stroke-opacity:1;paint-order:normal"
         d="M -6.0989875,7.4356803 C -5.8014183,7.10596 -5.3212975,6.9703595 -4.9125054,6.8795169"
         id="path58" />
    </g>
    <g
       id="g63"
       transform="translate(48.45929,-14.682718)">
      <path
         style="fill:#ffffff;fill-opacity:1;stroke:#000000;stroke-width:0.2;stroke-linecap:round;stroke-linejoin:round;stroke-dasharray:none;stroke-opacity:1;paint-order:normal"
         d="m -6.8405389,7.6210683 c 0.050213,-0.9741175 0.1385977,-1.4721078 1.0752494,-1.5572578"
         id="path59" />
      <path
         style="fill:#ffffff;fill-opacity:1;stroke:#000000;stroke-width:0.2;stroke-linecap:round;stroke-linejoin:round;stroke-dasharray:none;stroke-opacity:1;paint-order:normal"
         d="M -7.2854697,7.4356803 C -7.4824504,6.5989845 -8.1131686,5.9465815 -8.8427278,5.5818018"
         id="path60" />
      <path
         style="fill:#ffffff;fill-opacity:1;stroke:#000000;stroke-width:0.2;stroke-linecap:round;stroke-linejoin:round;stroke-dasharray:none;stroke-opacity:1;paint-order:normal"
         d="m -7.2483923,6.4345862 c 0.073604,-0.7421319 0.026605,-1.1766703 -0.519086,-1.6314132"
         id="path61" />
      <path
         style="fill:#ffffff;fill-opacity:1;stroke:#000000;stroke-width:0.2;stroke-linecap:round;stroke-linejoin:round;stroke-dasharray:none;stroke-opacity:1;paint-order:normal"
         d="M -7.8416333,7.3244477 C -8.2011074,6.9516429 -8.5986369,6.6095446 -9.0651931,6.4345862"
         id="path62" />
      <path
         style="fill:#ffffff;fill-opacity:1;stroke:#000000;stroke-width:0.2;stroke-linecap:round;stroke-linejoin:round;stroke-dasharray:none;stroke-opacity:1;paint-order:normal"
         d="M -6.0989875,7.4356803 C -5.8014183,7.10596 -5.3212975,6.9703595 -4.9125054,6.8795169"
         id="path63" />
    </g>
    <g
       id="g94"
       transform="matrix(-1,0,0,1,106.7087,-4.449309)">
      <path
         style="fill:#ffffff;fill-opacity:1;stroke:#000000;stroke-width:0.2;stroke-linecap:round;stroke-linejoin:round;stroke-dasharray:none;stroke-opacity:1;paint-order:normal"
         d="m -6.8405389,7.6210683 c 0.050213,-0.9741175 0.1385977,-1.4721078 1.0752494,-1.5572578"
         id="path64" />
      <path
         style="fill:#ffffff;fill-opacity:1;stroke:#000000;stroke-width:0.2;stroke-linecap:round;stroke-linejoin:round;stroke-dasharray:none;stroke-opacity:1;paint-order:normal"
         d="M -7.2854697,7.4356803 C -7.4824504,6.5989845 -8.1131686,5.9465815 -8.8427278,5.5818018"
         id="path65" />
      <path
         style="fill:#ffffff;fill-opacity:1;stroke:#000000;stroke-width:0.2;stroke-linecap:round;stroke-linejoin:round;stroke-dasharray:none;stroke-opacity:1;paint-order:normal"
         d="m -7.2483923,6.4345862 c 0.073604,-0.7421319 0.026605,-1.1766703 -0.519086,-1.6314132"
         id="path66" />
      <path
         style="fill:#ffffff;fill-opacity:1;stroke:#000000;stroke-width:0.2;stroke-linecap:round;stroke-linejoin:round;stroke-dasharray:none;stroke-opacity:1;paint-order:normal"
         d="M -7.8416333,7.3244477 C -8.2011074,6.9516429 -8.5986369,6.6095446 -9.0651931,6.4345862"
         id="path67" />
      <path
         style="fill:#ffffff;fill-opacity:1;stroke:#000000;stroke-width:0.2;stroke-linecap:round;stroke-linejoin:round;stroke-dasharray:none;stroke-opacity:1;paint-order:normal"
         d="M -6.0989875,7.4356803 C -5.8014183,7.10596 -5.3212975,6.9703595 -4.9125054,6.8795169"
         id="path94" />
    </g>
    <g
       id="g99"
       transform="translate(119.79654,60.955525)">
      <path
         style="fill:#ffffff;fill-opacity:1;stroke:#000000;stroke-width:0.2;stroke-linecap:round;stroke-linejoin:round;stroke-dasharray:none;stroke-opacity:1;paint-order:normal"
         d="m -6.8405389,7.6210683 c 0.050213,-0.9741175 0.1385977,-1.4721078 1.0752494,-1.5572578"
         id="path95" />
      <path
         style="fill:#ffffff;fill-opacity:1;stroke:#000000;stroke-width:0.2;stroke-linecap:round;stroke-linejoin:round;stroke-dasharray:none;stroke-opacity:1;paint-order:normal"
         d="M -7.2854697,7.4356803 C -7.4824504,6.5989845 -8.1131686,5.9465815 -8.8427278,5.5818018"
         id="path96" />
      <path
         style="fill:#ffffff;fill-opacity:1;stroke:#000000;stroke-width:0.2;stroke-linecap:round;stroke-linejoin:round;stroke-dasharray:none;stroke-opacity:1;paint-order:normal"
         d="m -7.2483923,6.4345862 c 0.073604,-0.7421319 0.026605,-1.1766703 -0.519086,-1.6314132"
         id="path97" />
      <path
         style="fill:#ffffff;fill-opacity:1;stroke:#000000;stroke-width:0.2;stroke-linecap:round;stroke-linejoin:round;stroke-dasharray:none;stroke-opacity:1;paint-order:normal"
         d="M -7.8416333,7.3244477 C -8.2011074,6.9516429 -8.5986369,6.6095446 -9.0651931,6.4345862"
         id="path98" />
      <path
         style="fill:#ffffff;fill-opacity:1;stroke:#000000;stroke-width:0.2;stroke-linecap:round;stroke-linejoin:round;stroke-dasharray:none;stroke-opacity:1;paint-order:normal"
         d="M -6.0989875,7.4356803 C -5.8014183,7.10596 -5.3212975,6.9703595 -4.9125054,6.8795169"
         id="path99" />
    </g>
    <g
       id="g104"
       transform="translate(114.75399,-17.500614)">
      <path
         style="fill:#ffffff;fill-opacity:1;stroke:#000000;stroke-width:0.2;stroke-linecap:round;stroke-linejoin:round;stroke-dasharray:none;stroke-opacity:1;paint-order:normal"
         d="m -6.8405389,7.6210683 c 0.050213,-0.9741175 0.1385977,-1.4721078 1.0752494,-1.5572578"
         id="path100" />
      <path
         style="fill:#ffffff;fill-opacity:1;stroke:#000000;stroke-width:0.2;stroke-linecap:round;stroke-linejoin:round;stroke-dasharray:none;stroke-opacity:1;paint-order:normal"
         d="M -7.2854697,7.4356803 C -7.4824504,6.5989845 -8.1131686,5.9465815 -8.8427278,5.5818018"
         id="path101" />
      <path
         style="fill:#ffffff;fill-opacity:1;stroke:#000000;stroke-width:0.2;stroke-linecap:round;stroke-linejoin:round;stroke-dasharray:none;stroke-opacity:1;paint-order:normal"
         d="m -7.2483923,6.4345862 c 0.073604,-0.7421319 0.026605,-1.1766703 -0.519086,-1.6314132"
         id="path102" />
      <path
         style="fill:#ffffff;fill-opacity:1;stroke:#000000;stroke-width:0.2;stroke-linecap:round;stroke-linejoin:round;stroke-dasharray:none;stroke-opacity:1;paint-order:normal"
         d="M -7.8416333,7.3244477 C -8.2011074,6.9516429 -8.5986369,6.6095446 -9.0651931,6.4345862"
         id="path103" />
      <path
         style="fill:#ffffff;fill-opacity:1;stroke:#000000;stroke-width:0.2;stroke-linecap:round;stroke-linejoin:round;stroke-dasharray:none;stroke-opacity:1;paint-order:normal"
         d="M -6.0989875,7.4356803 C -5.8014183,7.10596 -5.3212975,6.9703595 -4.9125054,6.8795169"
         id="path104" />
    </g>
    <g
       id="g109"
       transform="matrix(-1,0,0,1,105.81884,102.18578)">
      <path
         style="fill:#ffffff;fill-opacity:1;stroke:#000000;stroke-width:0.2;stroke-linecap:round;stroke-linejoin:round;stroke-dasharray:none;stroke-opacity:1;paint-order:normal"
         d="m -6.8405389,7.6210683 c 0.050213,-0.9741175 0.1385977,-1.4721078 1.0752494,-1.5572578"
         id="path105" />
      <path
         style="fill:#ffffff;fill-opacity:1;stroke:#000000;stroke-width:0.2;stroke-linecap:round;stroke-linejoin:round;stroke-dasharray:none;stroke-opacity:1;paint-order:normal"
         d="M -7.2854697,7.4356803 C -7.4824504,6.5989845 -8.1131686,5.9465815 -8.8427278,5.5818018"
         id="path106" />
      <path
         style="fill:#ffffff;fill-opacity:1;stroke:#000000;stroke-width:0.2;stroke-linecap:round;stroke-linejoin:round;stroke-dasharray:none;stroke-opacity:1;paint-order:normal"
         d="m -7.2483923,6.4345862 c 0.073604,-0.7421319 0.026605,-1.1766703 -0.519086,-1.6314132"
         id="path107" />
      <path
         style="fill:#ffffff;fill-opacity:1;stroke:#000000;stroke-width:0.2;stroke-linecap:round;stroke-linejoin:round;stroke-dasharray:none;stroke-opacity:1;paint-order:normal"
         d="M -7.8416333,7.3244477 C -8.2011074,6.9516429 -8.5986369,6.6095446 -9.0651931,6.4345862"
         id="path108" />
      <path
         style="fill:#ffffff;fill-opacity:1;stroke:#000000;stroke-width:0.2;stroke-linecap:round;stroke-linejoin:round;stroke-dasharray:none;stroke-opacity:1;paint-order:normal"
         d="M -6.0989875,7.4356803 C -5.8014183,7.10596 -5.3212975,6.9703595 -4.9125054,6.8795169"
         id="path109" />
    </g>
    <g
       id="g114"
       transform="translate(91.320966,104.55874)">
      <path
         style="fill:#ffffff;fill-opacity:1;stroke:#000000;stroke-width:0.2;stroke-linecap:round;stroke-linejoin:round;stroke-dasharray:none;stroke-opacity:1;paint-order:normal"
         d="m -6.8405389,7.6210683 c 0.050213,-0.9741175 0.1385977,-1.4721078 1.0752494,-1.5572578"
         id="path110" />
      <path
         style="fill:#ffffff;fill-opacity:1;stroke:#000000;stroke-width:0.2;stroke-linecap:round;stroke-linejoin:round;stroke-dasharray:none;stroke-opacity:1;paint-order:normal"
         d="M -7.2854697,7.4356803 C -7.4824504,6.5989845 -8.1131686,5.9465815 -8.8427278,5.5818018"
         id="path111" />
      <path
         style="fill:#ffffff;fill-opacity:1;stroke:#000000;stroke-width:0.2;stroke-linecap:round;stroke-linejoin:round;stroke-dasharray:none;stroke-opacity:1;paint-order:normal"
         d="m -7.2483923,6.4345862 c 0.073604,-0.7421319 0.026605,-1.1766703 -0.519086,-1.6314132"
         id="path112" />
      <path
         style="fill:#ffffff;fill-opacity:1;stroke:#000000;stroke-width:0.2;stroke-linecap:round;stroke-linejoin:round;stroke-dasharray:none;stroke-opacity:1;paint-order:normal"
         d="M -7.8416333,7.3244477 C -8.2011074,6.9516429 -8.5986369,6.6095446 -9.0651931,6.4345862"
         id="path113" />
      <path
         style="fill:#ffffff;fill-opacity:1;stroke:#000000;stroke-width:0.2;stroke-linecap:round;stroke-linejoin:round;stroke-dasharray:none;stroke-opacity:1;paint-order:normal"
         d="M -6.0989875,7.4356803 C -5.8014183,7.10596 -5.3212975,6.9703595 -4.9125054,6.8795169"
         id="path114" />
    </g>
    <g
       id="g119"
       transform="translate(-1.5212695,105.30029)">
      <path
         style="fill:#ffffff;fill-opacity:1;stroke:#000000;stroke-width:0.2;stroke-linecap:round;stroke-linejoin:round;stroke-dasharray:none;stroke-opacity:1;paint-order:normal"
         d="m -6.8405389,7.6210683 c 0.050213,-0.9741175 0.1385977,-1.4721078 1.0752494,-1.5572578"
         id="path115" />
      <path
         style="fill:#ffffff;fill-opacity:1;stroke:#000000;stroke-width:0.2;stroke-linecap:round;stroke-linejoin:round;stroke-dasharray:none;stroke-opacity:1;paint-order:normal"
         d="M -7.2854697,7.4356803 C -7.4824504,6.5989845 -8.1131686,5.9465815 -8.8427278,5.5818018"
         id="path116" />
      <path
         style="fill:#ffffff;fill-opacity:1;stroke:#000000;stroke-width:0.2;stroke-linecap:round;stroke-linejoin:round;stroke-dasharray:none;stroke-opacity:1;paint-order:normal"
         d="m -7.2483923,6.4345862 c 0.073604,-0.7421319 0.026605,-1.1766703 -0.519086,-1.6314132"
         id="path117" />
      <path
         style="fill:#ffffff;fill-opacity:1;stroke:#000000;stroke-width:0.2;stroke-linecap:round;stroke-linejoin:round;stroke-dasharray:none;stroke-opacity:1;paint-order:normal"
         d="M -7.8416333,7.3244477 C -8.2011074,6.9516429 -8.5986369,6.6095446 -9.0651931,6.4345862"
         id="path118" />
      <path
         style="fill:#ffffff;fill-opacity:1;stroke:#000000;stroke-width:0.2;stroke-linecap:round;stroke-linejoin:round;stroke-dasharray:none;stroke-opacity:1;paint-order:normal"
         d="M -6.0989875,7.4356803 C -5.8014183,7.10596 -5.3212975,6.9703595 -4.9125054,6.8795169"
         id="path119" />
    </g>
    <g
       id="g124"
       transform="translate(-0.33478732,75.489924)">
      <path
         style="fill:#ffffff;fill-opacity:1;stroke:#000000;stroke-width:0.2;stroke-linecap:round;stroke-linejoin:round;stroke-dasharray:none;stroke-opacity:1;paint-order:normal"
         d="m -6.8405389,7.6210683 c 0.050213,-0.9741175 0.1385977,-1.4721078 1.0752494,-1.5572578"
         id="path120" />
      <path
         style="fill:#ffffff;fill-opacity:1;stroke:#000000;stroke-width:0.2;stroke-linecap:round;stroke-linejoin:round;stroke-dasharray:none;stroke-opacity:1;paint-order:normal"
         d="M -7.2854697,7.4356803 C -7.4824504,6.5989845 -8.1131686,5.9465815 -8.8427278,5.5818018"
         id="path121" />
      <path
         style="fill:#ffffff;fill-opacity:1;stroke:#000000;stroke-width:0.2;stroke-linecap:round;stroke-linejoin:round;stroke-dasharray:none;stroke-opacity:1;paint-order:normal"
         d="m -7.2483923,6.4345862 c 0.073604,-0.7421319 0.026605,-1.1766703 -0.519086,-1.6314132"
         id="path122" />
      <path
         style="fill:#ffffff;fill-opacity:1;stroke:#000000;stroke-width:0.2;stroke-linecap:round;stroke-linejoin:round;stroke-dasharray:none;stroke-opacity:1;paint-order:normal"
         d="M -7.8416333,7.3244477 C -8.2011074,6.9516429 -8.5986369,6.6095446 -9.0651931,6.4345862"
         id="path123" />
      <path
         style="fill:#ffffff;fill-opacity:1;stroke:#000000;stroke-width:0.2;stroke-linecap:round;stroke-linejoin:round;stroke-dasharray:none;stroke-opacity:1;paint-order:normal"
         d="M -6.0989875,7.4356803 C -5.8014183,7.10596 -5.3212975,6.9703595 -4.9125054,6.8795169"
         id="path124" />
    </g>
    <g
       id="g129"
       transform="translate(-0.77971812,41.971801)">
      <path
         style="fill:#ffffff;fill-opacity:1;stroke:#000000;stroke-width:0.2;stroke-linecap:round;stroke-linejoin:round;stroke-dasharray:none;stroke-opacity:1;paint-order:normal"
         d="m -6.8405389,7.6210683 c 0.050213,-0.9741175 0.1385977,-1.4721078 1.0752494,-1.5572578"
         id="path125" />
      <path
         style="fill:#ffffff;fill-opacity:1;stroke:#000000;stroke-width:0.2;stroke-linecap:round;stroke-linejoin:round;stroke-dasharray:none;stroke-opacity:1;paint-order:normal"
         d="M -7.2854697,7.4356803 C -7.4824504,6.5989845 -8.1131686,5.9465815 -8.8427278,5.5818018"
         id="path126" />
      <path
         style="fill:#ffffff;fill-opacity:1;stroke:#000000;stroke-width:0.2;stroke-linecap:round;stroke-linejoin:round;stroke-dasharray:none;stroke-opacity:1;paint-order:normal"
         d="m -7.2483923,6.4345862 c 0.073604,-0.7421319 0.026605,-1.1766703 -0.519086,-1.6314132"
         id="path127" />
      <path
         style="fill:#ffffff;fill-opacity:1;stroke:#000000;stroke-width:0.2;stroke-linecap:round;stroke-linejoin:round;stroke-dasharray:none;stroke-opacity:1;paint-order:normal"
         d="M -7.8416333,7.3244477 C -8.2011074,6.9516429 -8.5986369,6.6095446 -9.0651931,6.4345862"
         id="path128" />
      <path
         style="fill:#ffffff;fill-opacity:1;stroke:#000000;stroke-width:0.2;stroke-linecap:round;stroke-linejoin:round;stroke-dasharray:none;stroke-opacity:1;paint-order:normal"
         d="M -6.0989875,7.4356803 C -5.8014183,7.10596 -5.3212975,6.9703595 -4.9125054,6.8795169"
         id="path129" />
    </g>
    <g
       id="g134"
       transform="matrix(-1,0,0,1,-16.83376,81.422336)">
      <path
         style="fill:#ffffff;fill-opacity:1;stroke:#000000;stroke-width:0.2;stroke-linecap:round;stroke-linejoin:round;stroke-dasharray:none;stroke-opacity:1;paint-order:normal"
         d="m -6.8405389,7.6210683 c 0.050213,-0.9741175 0.1385977,-1.4721078 1.0752494,-1.5572578"
         id="path130" />
      <path
         style="fill:#ffffff;fill-opacity:1;stroke:#000000;stroke-width:0.2;stroke-linecap:round;stroke-linejoin:round;stroke-dasharray:none;stroke-opacity:1;paint-order:normal"
         d="M -7.2854697,7.4356803 C -7.4824504,6.5989845 -8.1131686,5.9465815 -8.8427278,5.5818018"
         id="path131" />
      <path
         style="fill:#ffffff;fill-opacity:1;stroke:#000000;stroke-width:0.2;stroke-linecap:round;stroke-linejoin:round;stroke-dasharray:none;stroke-opacity:1;paint-order:normal"
         d="m -7.2483923,6.4345862 c 0.073604,-0.7421319 0.026605,-1.1766703 -0.519086,-1.6314132"
         id="path132" />
      <path
         style="fill:#ffffff;fill-opacity:1;stroke:#000000;stroke-width:0.2;stroke-linecap:round;stroke-linejoin:round;stroke-dasharray:none;stroke-opacity:1;paint-order:normal"
         d="M -7.8416333,7.3244477 C -8.2011074,6.9516429 -8.5986369,6.6095446 -9.0651931,6.4345862"
         id="path133" />
      <path
         style="fill:#ffffff;fill-opacity:1;stroke:#000000;stroke-width:0.2;stroke-linecap:round;stroke-linejoin:round;stroke-dasharray:none;stroke-opacity:1;paint-order:normal"
         d="M -6.0989875,7.4356803 C -5.8014183,7.10596 -5.3212975,6.9703595 -4.9125054,6.8795169"
         id="path134" />
    </g>
  </g>
</svg>
