<?xml version="1.0" encoding="UTF-8" standalone="no"?>
<!-- Created with Inkscape (http://www.inkscape.org/) -->

<svg
   width="26mm"
   height="26mm"
   viewBox="0 0 26 26"
   version="1.1"
   id="svg1"
   inkscape:version="1.4.2 (ebf0e940d0, 2025-05-08)"
   sodipodi:docname="bazina.svg"
   xmlns:inkscape="http://www.inkscape.org/namespaces/inkscape"
   xmlns:sodipodi="http://sodipodi.sourceforge.net/DTD/sodipodi-0.dtd"
   xmlns="http://www.w3.org/2000/svg"
   xmlns:svg="http://www.w3.org/2000/svg">
  <sodipodi:namedview
     id="namedview1"
     pagecolor="#ffffff"
     bordercolor="#000000"
     borderopacity="0.25"
     inkscape:showpageshadow="2"
     inkscape:pageopacity="0.0"
     inkscape:pagecheckerboard="0"
     inkscape:deskcolor="#d1d1d1"
     inkscape:document-units="mm"
     inkscape:zoom="5.0458719"
     inkscape:cx="58.562723"
     inkscape:cy="25.367271"
     inkscape:window-width="1920"
     inkscape:window-height="1025"
     inkscape:window-x="0"
     inkscape:window-y="33"
     inkscape:window-maximized="1"
     inkscape:current-layer="layer1" />
  <defs
     id="defs1">
    <rect
       x="2.461426"
       y="2.6851921"
       width="18.125046"
       height="18.572578"
       id="rect12" />
    <rect
       x="2.461426"
       y="2.6851921"
       width="18.125046"
       height="18.572578"
       id="rect13" />
    <rect
       x="2.461426"
       y="2.6851921"
       width="18.125046"
       height="18.572578"
       id="rect14" />
    <rect
       x="2.461426"
       y="2.6851921"
       width="18.125046"
       height="18.572578"
       id="rect15" />
    <rect
       x="2.461426"
       y="2.6851921"
       width="18.125046"
       height="18.572578"
       id="rect16" />
    <rect
       x="2.461426"
       y="2.6851921"
       width="18.125046"
       height="18.572578"
       id="rect21" />
    <rect
       x="2.461426"
       y="2.6851921"
       width="18.125046"
       height="18.572578"
       id="rect22" />
    <rect
       x="2.461426"
       y="2.6851921"
       width="18.125046"
       height="18.572578"
       id="rect23" />
    <rect
       x="2.461426"
       y="2.6851921"
       width="18.125046"
       height="18.572578"
       id="rect24" />
    <rect
       x="2.461426"
       y="2.6851921"
       width="18.125046"
       height="18.572578"
       id="rect25" />
    <rect
       x="2.461426"
       y="2.6851921"
       width="18.125046"
       height="18.572578"
       id="rect29" />
    <rect
       x="2.461426"
       y="2.6851921"
       width="18.125046"
       height="18.572578"
       id="rect30" />
    <rect
       x="2.461426"
       y="2.6851921"
       width="18.125046"
       height="18.572578"
       id="rect31" />
    <rect
       x="2.461426"
       y="2.6851921"
       width="18.125046"
       height="18.572578"
       id="rect32" />
    <rect
       x="2.461426"
       y="2.6851921"
       width="18.125046"
       height="18.572578"
       id="rect33" />
    <rect
       x="2.461426"
       y="2.6851921"
       width="18.125046"
       height="18.572578"
       id="rect37" />
    <rect
       x="2.461426"
       y="2.6851921"
       width="18.125046"
       height="18.572578"
       id="rect38" />
    <rect
       x="2.461426"
       y="2.6851921"
       width="18.125046"
       height="18.572578"
       id="rect39" />
    <rect
       x="2.461426"
       y="2.6851921"
       width="18.125046"
       height="18.572578"
       id="rect40" />
    <rect
       x="2.461426"
       y="2.6851921"
       width="18.125046"
       height="18.572578"
       id="rect41" />
    <rect
       x="2.461426"
       y="2.6851921"
       width="18.125046"
       height="18.572578"
       id="rect45" />
    <rect
       x="2.461426"
       y="2.6851921"
       width="18.125046"
       height="18.572578"
       id="rect46" />
    <rect
       x="2.461426"
       y="2.6851921"
       width="18.125046"
       height="18.572578"
       id="rect47" />
    <rect
       x="2.461426"
       y="2.6851921"
       width="18.125046"
       height="18.572578"
       id="rect48" />
    <rect
       x="2.461426"
       y="2.6851921"
       width="18.125046"
       height="18.572578"
       id="rect49" />
  </defs>
  <g
     inkscape:label="Layer 1"
     inkscape:groupmode="layer"
     id="layer1"
     transform="translate(5.3114901e-6,0.1)">
    <path
       style="fill:none;stroke:#000000;stroke-width:0.2;stroke-linecap:round;stroke-linejoin:round"
       d="M 0.49999469,0.4 H 25.299998"
       id="path1" />
    <path
       style="fill:none;stroke:#000000;stroke-width:0.2;stroke-linecap:round;stroke-linejoin:round"
       d="M 0.49999469,5.5 H 25.299998"
       id="path2" />
    <path
       style="fill:none;stroke:#000000;stroke-width:0.2;stroke-linecap:round;stroke-linejoin:round"
       d="M 0.49999469,10.5 H 25.299998"
       id="path3" />
    <path
       style="fill:none;stroke:#000000;stroke-width:0.2;stroke-linecap:round;stroke-linejoin:round"
       d="M 0.49999469,15.5 H 25.299998"
       id="path4" />
    <path
       style="fill:none;stroke:#000000;stroke-width:0.2;stroke-linecap:round;stroke-linejoin:round"
       d="M 0.49999469,20.5 H 25.299998"
       id="path5" />
    <path
       style="fill:none;stroke:#000000;stroke-width:0.2;stroke-linecap:round;stroke-linejoin:round"
       d="M 0.49999469,25.5 H 25.299998"
       id="path6" />
    <path
       style="fill:none;stroke:#000000;stroke-width:0.2;stroke-linecap:round;stroke-linejoin:round"
       d="M 25.499995,0.5 V 25.300008"
       id="path7" />
    <path
       style="fill:none;stroke:#000000;stroke-width:0.2;stroke-linecap:round;stroke-linejoin:round"
       d="M 20.499996,0.5 V 25.300008"
       id="path8" />
    <path
       style="fill:none;stroke:#000000;stroke-width:0.2;stroke-linecap:round;stroke-linejoin:round"
       d="M 15.499997,0.5 V 25.300008"
       id="path9" />
    <path
       style="fill:none;stroke:#000000;stroke-width:0.2;stroke-linecap:round;stroke-linejoin:round"
       d="M 10.499998,0.5 V 25.300008"
       id="path10" />
    <path
       style="fill:none;stroke:#000000;stroke-width:0.2;stroke-linecap:round;stroke-linejoin:round"
       d="M 5.4999989,0.5 V 25.300008"
       id="path11" />
    <path
       style="fill:none;stroke:#000000;stroke-width:0.2;stroke-linecap:round;stroke-linejoin:round"
       d="M 0.49999999,0.5 V 25.300008"
       id="path12" />
    <text
       xml:space="preserve"
       transform="matrix(0.26458327,0,0,0.26458333,-0.08041252,-0.07273794)"
       id="text12"
       style="font-size:12.5653px;font-family:Sans;-inkscape-font-specification:'Sans, Normal';font-variant-numeric:oldstyle-nums;text-align:center;writing-mode:lr-tb;direction:ltr;white-space:pre;shape-inside:url(#rect12);display:inline;fill:#000000;fill-opacity:1;stroke:none;stroke-width:0.755906;stroke-linecap:round;stroke-linejoin:round"><tspan
         x="9.1980924"
         y="14.118402"
         id="tspan2"><tspan
           style="font-size:10.6667px;font-family:'TeX Gyre Chorus';-inkscape-font-specification:'TeX Gyre Chorus, Normal'"
           id="tspan1">1</tspan></tspan></text>
    <text
       xml:space="preserve"
       transform="matrix(0.26458327,0,0,0.26458333,4.9195865,-0.07273794)"
       id="text13"
       style="font-size:12.5653px;font-family:Sans;-inkscape-font-specification:'Sans, Normal';font-variant-numeric:oldstyle-nums;text-align:center;writing-mode:lr-tb;direction:ltr;white-space:pre;shape-inside:url(#rect13);display:inline;fill:#000000;fill-opacity:1;stroke:none;stroke-width:0.755906;stroke-linecap:round;stroke-linejoin:round"><tspan
         x="9.0060956"
         y="14.118402"
         id="tspan4"><tspan
           style="font-size:10.6667px;font-family:'TeX Gyre Chorus';-inkscape-font-specification:'TeX Gyre Chorus, Normal'"
           id="tspan3">2</tspan></tspan></text>
    <text
       xml:space="preserve"
       transform="matrix(0.26458327,0,0,0.26458333,9.919585,-0.07273794)"
       id="text14"
       style="font-size:12.5653px;font-family:Sans;-inkscape-font-specification:'Sans, Normal';font-variant-numeric:oldstyle-nums;text-align:center;writing-mode:lr-tb;direction:ltr;white-space:pre;shape-inside:url(#rect14);display:inline;fill:#000000;fill-opacity:1;stroke:none;stroke-width:0.755906;stroke-linecap:round;stroke-linejoin:round"><tspan
         x="9.1980924"
         y="14.118402"
         id="tspan6"><tspan
           style="font-size:10.6667px;font-family:'TeX Gyre Chorus';-inkscape-font-specification:'TeX Gyre Chorus, Normal'"
           id="tspan5">3</tspan></tspan></text>
    <text
       xml:space="preserve"
       transform="matrix(0.26458327,0,0,0.26458333,14.919584,-0.07273794)"
       id="text15"
       style="font-size:12.5653px;font-family:Sans;-inkscape-font-specification:'Sans, Normal';font-variant-numeric:oldstyle-nums;text-align:center;writing-mode:lr-tb;direction:ltr;white-space:pre;shape-inside:url(#rect15);display:inline;fill:#000000;fill-opacity:1;stroke:none;stroke-width:0.755906;stroke-linecap:round;stroke-linejoin:round"><tspan
         x="9.1287664"
         y="14.118402"
         id="tspan8"><tspan
           style="font-size:10.6667px;font-family:'TeX Gyre Chorus';-inkscape-font-specification:'TeX Gyre Chorus, Normal'"
           id="tspan7">4</tspan></tspan></text>
    <text
       xml:space="preserve"
       transform="matrix(0.26458327,0,0,0.26458333,19.919583,-0.07273794)"
       id="text16"
       style="font-size:12.5653px;font-family:Sans;-inkscape-font-specification:'Sans, Normal';font-variant-numeric:oldstyle-nums;text-align:center;writing-mode:lr-tb;direction:ltr;white-space:pre;shape-inside:url(#rect16);display:inline;fill:#000000;fill-opacity:1;stroke:none;stroke-width:0.755906;stroke-linecap:round;stroke-linejoin:round"><tspan
         x="9.2780996"
         y="14.118402"
         id="tspan10"><tspan
           style="font-size:10.6667px;font-family:'TeX Gyre Chorus';-inkscape-font-specification:'TeX Gyre Chorus, Normal'"
           id="tspan9">5</tspan></tspan></text>
    <text
       xml:space="preserve"
       transform="matrix(0.26458327,0,0,0.26458333,-0.08041252,4.9272621)"
       id="text17"
       style="font-size:12.5653px;font-family:Sans;-inkscape-font-specification:'Sans, Normal';font-variant-numeric:oldstyle-nums;text-align:center;writing-mode:lr-tb;direction:ltr;white-space:pre;shape-inside:url(#rect21);display:inline;fill:#000000;fill-opacity:1;stroke:none;stroke-width:0.755906;stroke-linecap:round;stroke-linejoin:round"><tspan
         x="9.1554287"
         y="14.118402"
         id="tspan12"><tspan
           style="font-size:10.6667px;font-family:'TeX Gyre Chorus';-inkscape-font-specification:'TeX Gyre Chorus, Normal'"
           id="tspan11">6</tspan></tspan></text>
    <text
       xml:space="preserve"
       transform="matrix(0.26458327,0,0,0.26458333,4.9195865,4.9272621)"
       id="text18"
       style="font-size:12.5653px;font-family:Sans;-inkscape-font-specification:'Sans, Normal';font-variant-numeric:oldstyle-nums;text-align:center;writing-mode:lr-tb;direction:ltr;white-space:pre;shape-inside:url(#rect22);display:inline;fill:#000000;fill-opacity:1;stroke:none;stroke-width:0.755906;stroke-linecap:round;stroke-linejoin:round"><tspan
         x="9.3207633"
         y="14.118402"
         id="tspan14"><tspan
           style="font-size:10.6667px;font-family:'TeX Gyre Chorus';-inkscape-font-specification:'TeX Gyre Chorus, Normal'"
           id="tspan13">7</tspan></tspan></text>
    <text
       xml:space="preserve"
       transform="matrix(0.26458327,0,0,0.26458333,9.919585,4.9272621)"
       id="text19"
       style="font-size:12.5653px;font-family:Sans;-inkscape-font-specification:'Sans, Normal';font-variant-numeric:oldstyle-nums;text-align:center;writing-mode:lr-tb;direction:ltr;white-space:pre;shape-inside:url(#rect23);display:inline;fill:#000000;fill-opacity:1;stroke:none;stroke-width:0.755906;stroke-linecap:round;stroke-linejoin:round"><tspan
         x="9.2460967"
         y="14.118402"
         id="tspan16"><tspan
           style="font-size:10.6667px;font-family:'TeX Gyre Chorus';-inkscape-font-specification:'TeX Gyre Chorus, Normal'"
           id="tspan15">8</tspan></tspan></text>
    <text
       xml:space="preserve"
       transform="matrix(0.26458327,0,0,0.26458333,14.919584,4.9272621)"
       id="text20"
       style="font-size:12.5653px;font-family:Sans;-inkscape-font-specification:'Sans, Normal';font-variant-numeric:oldstyle-nums;text-align:center;writing-mode:lr-tb;direction:ltr;white-space:pre;shape-inside:url(#rect24);display:inline;fill:#000000;fill-opacity:1;stroke:none;stroke-width:0.755906;stroke-linecap:round;stroke-linejoin:round"><tspan
         x="9.1821012"
         y="14.118402"
         id="tspan18"><tspan
           style="font-size:10.6667px;font-family:'TeX Gyre Chorus';-inkscape-font-specification:'TeX Gyre Chorus, Normal'"
           id="tspan17">9</tspan></tspan></text>
    <text
       xml:space="preserve"
       transform="matrix(0.26458327,0,0,0.26458333,19.919583,4.9272621)"
       id="text21"
       style="font-size:12.5653px;font-family:Sans;-inkscape-font-specification:'Sans, Normal';font-variant-numeric:oldstyle-nums;text-align:center;writing-mode:lr-tb;direction:ltr;white-space:pre;shape-inside:url(#rect25);display:inline;fill:#000000;fill-opacity:1;stroke:none;stroke-width:0.755906;stroke-linecap:round;stroke-linejoin:round"><tspan
         x="6.7874199"
         y="14.118402"
         id="tspan20"><tspan
           style="font-size:10.6667px;font-family:'TeX Gyre Chorus';-inkscape-font-specification:'TeX Gyre Chorus, Normal'"
           id="tspan19">10</tspan></tspan></text>
    <text
       xml:space="preserve"
       transform="matrix(0.26458327,0,0,0.26458333,-0.08041252,9.927262)"
       id="text25"
       style="font-size:12.5653px;font-family:Sans;-inkscape-font-specification:'Sans, Normal';font-variant-numeric:oldstyle-nums;text-align:center;writing-mode:lr-tb;direction:ltr;white-space:pre;shape-inside:url(#rect29);display:inline;fill:#000000;fill-opacity:1;stroke:none;stroke-width:0.755906;stroke-linecap:round;stroke-linejoin:round"><tspan
         x="6.8727474"
         y="14.118402"
         id="tspan22"><tspan
           style="font-size:10.6667px;font-family:'TeX Gyre Chorus';-inkscape-font-specification:'TeX Gyre Chorus, Normal'"
           id="tspan21">11</tspan></tspan></text>
    <text
       xml:space="preserve"
       transform="matrix(0.26458327,0,0,0.26458333,4.9195865,9.927262)"
       id="text26"
       style="font-size:12.5653px;font-family:Sans;-inkscape-font-specification:'Sans, Normal';font-variant-numeric:oldstyle-nums;text-align:center;writing-mode:lr-tb;direction:ltr;white-space:pre;shape-inside:url(#rect30);display:inline;fill:#000000;fill-opacity:1;stroke:none;stroke-width:0.755906;stroke-linecap:round;stroke-linejoin:round"><tspan
         x="6.6807505"
         y="14.118402"
         id="tspan24"><tspan
           style="font-size:10.6667px;font-family:'TeX Gyre Chorus';-inkscape-font-specification:'TeX Gyre Chorus, Normal'"
           id="tspan23">12</tspan></tspan></text>
    <text
       xml:space="preserve"
       transform="matrix(0.26458327,0,0,0.26458333,9.919585,9.927262)"
       id="text27"
       style="font-size:12.5653px;font-family:Sans;-inkscape-font-specification:'Sans, Normal';font-variant-numeric:oldstyle-nums;text-align:center;writing-mode:lr-tb;direction:ltr;white-space:pre;shape-inside:url(#rect31);display:inline;fill:#000000;fill-opacity:1;stroke:none;stroke-width:0.755906;stroke-linecap:round;stroke-linejoin:round"><tspan
         x="6.8727474"
         y="14.118402"
         id="tspan26"><tspan
           style="font-size:10.6667px;font-family:'TeX Gyre Chorus';-inkscape-font-specification:'TeX Gyre Chorus, Normal'"
           id="tspan25">13</tspan></tspan></text>
    <text
       xml:space="preserve"
       transform="matrix(0.26458327,0,0,0.26458333,14.919584,9.927262)"
       id="text28"
       style="font-size:12.5653px;font-family:Sans;-inkscape-font-specification:'Sans, Normal';font-variant-numeric:oldstyle-nums;text-align:center;writing-mode:lr-tb;direction:ltr;white-space:pre;shape-inside:url(#rect32);display:inline;fill:#000000;fill-opacity:1;stroke:none;stroke-width:0.755906;stroke-linecap:round;stroke-linejoin:round"><tspan
         x="6.8034214"
         y="14.118402"
         id="tspan30"><tspan
           style="font-size:10.6667px;font-family:'TeX Gyre Chorus';-inkscape-font-specification:'TeX Gyre Chorus, Normal'"
           id="tspan27">14</tspan></tspan></text>
    <text
       xml:space="preserve"
       transform="matrix(0.26458327,0,0,0.26458333,19.919583,9.927262)"
       id="text29"
       style="font-size:12.5653px;font-family:Sans;-inkscape-font-specification:'Sans, Normal';font-variant-numeric:oldstyle-nums;text-align:center;writing-mode:lr-tb;direction:ltr;white-space:pre;shape-inside:url(#rect33);display:inline;fill:#000000;fill-opacity:1;stroke:none;stroke-width:0.755906;stroke-linecap:round;stroke-linejoin:round"><tspan
         x="6.9527545"
         y="14.118402"
         id="tspan32"><tspan
           style="font-size:10.6667px;font-family:'TeX Gyre Chorus';-inkscape-font-specification:'TeX Gyre Chorus, Normal'"
           id="tspan31">15</tspan></tspan></text>
    <text
       xml:space="preserve"
       transform="matrix(0.26458327,0,0,0.26458333,-0.08041252,14.927262)"
       id="text33"
       style="font-size:12.5653px;font-family:Sans;-inkscape-font-specification:'Sans, Normal';font-variant-numeric:oldstyle-nums;text-align:center;writing-mode:lr-tb;direction:ltr;white-space:pre;shape-inside:url(#rect37);display:inline;fill:#000000;fill-opacity:1;stroke:none;stroke-width:0.755906;stroke-linecap:round;stroke-linejoin:round"><tspan
         x="6.8300836"
         y="14.118402"
         id="tspan39"><tspan
           style="font-size:10.6667px;font-family:'TeX Gyre Chorus';-inkscape-font-specification:'TeX Gyre Chorus, Normal'"
           id="tspan38">16</tspan></tspan></text>
    <text
       xml:space="preserve"
       transform="matrix(0.26458327,0,0,0.26458333,4.9195865,14.927262)"
       id="text34"
       style="font-size:12.5653px;font-family:Sans;-inkscape-font-specification:'Sans, Normal';font-variant-numeric:oldstyle-nums;text-align:center;writing-mode:lr-tb;direction:ltr;white-space:pre;shape-inside:url(#rect38);display:inline;fill:#000000;fill-opacity:1;stroke:none;stroke-width:0.755906;stroke-linecap:round;stroke-linejoin:round"><tspan
         x="6.9954182"
         y="14.118402"
         id="tspan46"><tspan
           style="font-size:10.6667px;font-family:'TeX Gyre Chorus';-inkscape-font-specification:'TeX Gyre Chorus, Normal'"
           id="tspan40">17</tspan></tspan></text>
    <text
       xml:space="preserve"
       transform="matrix(0.26458327,0,0,0.26458333,9.919585,14.927262)"
       id="text35"
       style="font-size:12.5653px;font-family:Sans;-inkscape-font-specification:'Sans, Normal';font-variant-numeric:oldstyle-nums;text-align:center;writing-mode:lr-tb;direction:ltr;white-space:pre;shape-inside:url(#rect39);display:inline;fill:#000000;fill-opacity:1;stroke:none;stroke-width:0.755906;stroke-linecap:round;stroke-linejoin:round"><tspan
         x="6.9207517"
         y="14.118402"
         id="tspan48"><tspan
           style="font-size:10.6667px;font-family:'TeX Gyre Chorus';-inkscape-font-specification:'TeX Gyre Chorus, Normal'"
           id="tspan47">18</tspan></tspan></text>
    <text
       xml:space="preserve"
       transform="matrix(0.26458327,0,0,0.26458333,14.919584,14.927262)"
       id="text36"
       style="font-size:12.5653px;font-family:Sans;-inkscape-font-specification:'Sans, Normal';font-variant-numeric:oldstyle-nums;text-align:center;writing-mode:lr-tb;direction:ltr;white-space:pre;shape-inside:url(#rect40);display:inline;fill:#000000;fill-opacity:1;stroke:none;stroke-width:0.755906;stroke-linecap:round;stroke-linejoin:round"><tspan
         x="6.8567561"
         y="14.118402"
         id="tspan50"><tspan
           style="font-size:10.6667px;font-family:'TeX Gyre Chorus';-inkscape-font-specification:'TeX Gyre Chorus, Normal'"
           id="tspan49">19</tspan></tspan></text>
    <text
       xml:space="preserve"
       transform="matrix(0.26458327,0,0,0.26458333,19.919583,14.927262)"
       id="text37"
       style="font-size:12.5653px;font-family:Sans;-inkscape-font-specification:'Sans, Normal';font-variant-numeric:oldstyle-nums;text-align:center;writing-mode:lr-tb;direction:ltr;white-space:pre;shape-inside:url(#rect41);display:inline;fill:#000000;fill-opacity:1;stroke:none;stroke-width:0.755906;stroke-linecap:round;stroke-linejoin:round"><tspan
         x="6.5954231"
         y="14.118402"
         id="tspan52"><tspan
           style="font-size:10.6667px;font-family:'TeX Gyre Chorus';-inkscape-font-specification:'TeX Gyre Chorus, Normal'"
           id="tspan51">20</tspan></tspan></text>
    <text
       xml:space="preserve"
       transform="matrix(0.26458327,0,0,0.26458333,-0.08041252,19.927262)"
       id="text41"
       style="font-size:12.5653px;font-family:Sans;-inkscape-font-specification:'Sans, Normal';font-variant-numeric:oldstyle-nums;text-align:center;writing-mode:lr-tb;direction:ltr;white-space:pre;shape-inside:url(#rect45);display:inline;fill:#000000;fill-opacity:1;stroke:none;stroke-width:0.755906;stroke-linecap:round;stroke-linejoin:round"><tspan
         x="6.6807505"
         y="14.118402"
         id="tspan54"><tspan
           style="font-size:10.6667px;font-family:'TeX Gyre Chorus';-inkscape-font-specification:'TeX Gyre Chorus, Normal'"
           id="tspan53">21</tspan></tspan></text>
    <text
       xml:space="preserve"
       transform="matrix(0.26458327,0,0,0.26458333,4.9195865,19.927262)"
       id="text42"
       style="font-size:12.5653px;font-family:Sans;-inkscape-font-specification:'Sans, Normal';font-variant-numeric:oldstyle-nums;text-align:center;writing-mode:lr-tb;direction:ltr;white-space:pre;shape-inside:url(#rect46);display:inline;fill:#000000;fill-opacity:1;stroke:none;stroke-width:0.755906;stroke-linecap:round;stroke-linejoin:round"><tspan
         x="6.4887536"
         y="14.118402"
         id="tspan56"><tspan
           style="font-size:10.6667px;font-family:'TeX Gyre Chorus';-inkscape-font-specification:'TeX Gyre Chorus, Normal'"
           id="tspan55">22</tspan></tspan></text>
    <text
       xml:space="preserve"
       transform="matrix(0.26458327,0,0,0.26458333,9.919585,19.927262)"
       id="text43"
       style="font-size:12.5653px;font-family:Sans;-inkscape-font-specification:'Sans, Normal';font-variant-numeric:oldstyle-nums;text-align:center;writing-mode:lr-tb;direction:ltr;white-space:pre;shape-inside:url(#rect47);display:inline;fill:#000000;fill-opacity:1;stroke:none;stroke-width:0.755906;stroke-linecap:round;stroke-linejoin:round"><tspan
         x="6.6807505"
         y="14.118402"
         id="tspan58"><tspan
           style="font-size:10.6667px;font-family:'TeX Gyre Chorus';-inkscape-font-specification:'TeX Gyre Chorus, Normal'"
           id="tspan57">23</tspan></tspan></text>
    <text
       xml:space="preserve"
       transform="matrix(0.26458327,0,0,0.26458333,14.919584,19.927262)"
       id="text44"
       style="font-size:12.5653px;font-family:Sans;-inkscape-font-specification:'Sans, Normal';font-variant-numeric:oldstyle-nums;text-align:center;writing-mode:lr-tb;direction:ltr;white-space:pre;shape-inside:url(#rect48);display:inline;fill:#000000;fill-opacity:1;stroke:none;stroke-width:0.755906;stroke-linecap:round;stroke-linejoin:round"><tspan
         x="6.6114245"
         y="14.118402"
         id="tspan60"><tspan
           style="font-size:10.6667px;font-family:'TeX Gyre Chorus';-inkscape-font-specification:'TeX Gyre Chorus, Normal'"
           id="tspan59">24</tspan></tspan></text>
    <text
       xml:space="preserve"
       transform="matrix(0.26458327,0,0,0.26458333,19.919583,19.927262)"
       id="text45"
       style="font-size:12.5653px;font-family:Sans;-inkscape-font-specification:'Sans, Normal';font-variant-numeric:oldstyle-nums;text-align:center;writing-mode:lr-tb;direction:ltr;white-space:pre;shape-inside:url(#rect49);display:inline;fill:#000000;fill-opacity:1;stroke:none;stroke-width:0.755906;stroke-linecap:round;stroke-linejoin:round"><tspan
         x="6.7607577"
         y="14.118402"
         id="tspan62"><tspan
           style="font-size:10.6667px;font-family:'TeX Gyre Chorus';-inkscape-font-specification:'TeX Gyre Chorus, Normal'"
           id="tspan61">25</tspan></tspan></text>
    <path
       style="fill:#868686;fill-opacity:1;stroke:#ffffff;stroke-width:0.2;stroke-linecap:round;stroke-linejoin:round;stroke-dasharray:none;stroke-opacity:1;paint-order:stroke markers fill"
       d="M 5.2427241,2.5092883 C 5.1492465,2.6452973 5.1471117,2.6499662 5.1126764,2.7508788 5.3372708,2.6365363 5.7111943,2.6399357 5.9576709,2.8155263 5.8499985,2.5699871 5.874564,2.658591 5.7692731,2.4999814 5.860122,2.5504287 6.1105806,2.6552595 6.4010784,2.9471335 6.2168389,2.9936235 5.9454839,3.150695 5.7407136,3.1873294 5.8148451,3.0761178 5.8925854,3.0609843 5.9137919,2.9782531 5.8690977,2.9289382 5.48035,2.8450425 5.1288359,2.9469179 5.1418124,3.0197921 5.2105884,3.0899995 5.3034511,3.1630293 5.0671539,3.1059466 4.861106,2.9271661 4.7010449,2.9141248 4.875945,2.7688348 5.0273273,2.6063645 5.2427241,2.5092883 Z"
       id="path49"
       sodipodi:nodetypes="ccccccccccc" />
    <path
       style="fill:#868686;fill-opacity:1;stroke:#ffffff;stroke-width:0.2;stroke-linecap:round;stroke-linejoin:round;stroke-dasharray:none;stroke-opacity:1;paint-order:stroke markers fill"
       d="m 10.242662,2.5092883 c -0.09348,0.136009 -0.09561,0.1406779 -0.130048,0.2415905 0.224595,-0.1143425 0.598518,-0.1109431 0.844995,0.064647 -0.107672,-0.2455392 -0.08311,-0.1569353 -0.188398,-0.3155449 0.09085,0.050447 0.341308,0.1552781 0.631806,0.4471521 -0.18424,0.04649 -0.455595,0.2035615 -0.660365,0.2401959 0.07413,-0.1112116 0.151872,-0.1263451 0.173078,-0.2090763 -0.04469,-0.049315 -0.433442,-0.1332106 -0.784956,-0.031335 0.01298,0.072874 0.08175,0.1430816 0.174615,0.2161114 C 10.067092,3.105946 9.861044,2.9271656 9.700983,2.9141243 c 0.1749,-0.14529 0.326282,-0.3077603 0.541679,-0.404836 z"
       id="path68"
       sodipodi:nodetypes="ccccccccccc" />
    <path
       style="fill:#868686;fill-opacity:1;stroke:#ffffff;stroke-width:0.2;stroke-linecap:round;stroke-linejoin:round;stroke-dasharray:none;stroke-opacity:1;paint-order:stroke markers fill"
       d="m 15.242661,2.5092883 c -0.09348,0.136009 -0.09561,0.1406779 -0.130048,0.2415905 0.224595,-0.1143425 0.598518,-0.1109431 0.844995,0.064647 -0.107672,-0.2455392 -0.08311,-0.1569353 -0.188398,-0.3155449 0.09085,0.050447 0.341308,0.1552781 0.631806,0.4471521 -0.18424,0.04649 -0.455595,0.2035615 -0.660365,0.2401959 0.07413,-0.1112116 0.151872,-0.1263451 0.173078,-0.2090763 -0.04469,-0.049315 -0.433442,-0.1332106 -0.784956,-0.031335 0.01298,0.072874 0.08175,0.1430816 0.174615,0.2161114 -0.236297,-0.057083 -0.442345,-0.2358632 -0.602406,-0.2489045 0.1749,-0.14529 0.326282,-0.3077603 0.541679,-0.4048362 z"
       id="path69"
       sodipodi:nodetypes="ccccccccccc" />
    <path
       style="fill:#868686;fill-opacity:1;stroke:#ffffff;stroke-width:0.2;stroke-linecap:round;stroke-linejoin:round;stroke-dasharray:none;stroke-opacity:1;paint-order:stroke markers fill"
       d="m 20.24266,2.5092883 c -0.09348,0.136009 -0.09561,0.1406779 -0.130048,0.2415905 0.224595,-0.1143425 0.598518,-0.1109431 0.844995,0.064647 -0.107672,-0.2455392 -0.08311,-0.1569353 -0.188398,-0.3155449 0.09085,0.050447 0.341308,0.1552781 0.631806,0.4471521 -0.18424,0.04649 -0.455595,0.2035615 -0.660365,0.2401959 0.07413,-0.1112116 0.151872,-0.1263451 0.173078,-0.2090763 -0.04469,-0.049315 -0.433442,-0.1332106 -0.784956,-0.031335 0.01298,0.072874 0.08175,0.1430816 0.174615,0.2161114 -0.236297,-0.057083 -0.442345,-0.2358632 -0.602406,-0.2489045 0.1749,-0.14529 0.326282,-0.3077603 0.541679,-0.4048362 z"
       id="path70"
       sodipodi:nodetypes="ccccccccccc" />
    <path
       style="fill:#868686;fill-opacity:1;stroke:#ffffff;stroke-width:0.2;stroke-linecap:round;stroke-linejoin:round;stroke-dasharray:none;stroke-opacity:1;paint-order:stroke markers fill"
       d="M 5.2427241,7.5092888 C 5.1492465,7.6452978 5.1471117,7.6499667 5.1126764,7.7508793 5.3372708,7.6365368 5.7111943,7.6399362 5.9576709,7.8155268 5.8499985,7.5699876 5.874564,7.6585915 5.7692731,7.4999819 5.860122,7.5504292 6.1105806,7.65526 6.4010784,7.947134 6.2168389,7.993624 5.9454839,8.1506955 5.7407136,8.1873299 5.8148451,8.0761183 5.8925854,8.0609848 5.9137919,7.9782536 5.8690977,7.9289387 5.48035,7.845043 5.1288359,7.9469184 5.1418124,8.0197926 5.2105884,8.09 5.3034511,8.1630298 5.0671539,8.1059471 4.861106,7.9271666 4.7010449,7.9141253 4.875945,7.7688353 5.0273273,7.606365 5.2427241,7.5092888 Z"
       id="path71"
       sodipodi:nodetypes="ccccccccccc" />
    <path
       style="fill:#868686;fill-opacity:1;stroke:#ffffff;stroke-width:0.2;stroke-linecap:round;stroke-linejoin:round;stroke-dasharray:none;stroke-opacity:1;paint-order:stroke markers fill"
       d="m 10.242662,7.5092888 c -0.09348,0.136009 -0.09561,0.1406779 -0.130048,0.2415905 0.224595,-0.1143425 0.598518,-0.1109431 0.844995,0.064648 -0.107672,-0.2455392 -0.08311,-0.1569353 -0.188398,-0.3155449 0.09085,0.050447 0.341308,0.1552781 0.631806,0.4471521 -0.18424,0.04649 -0.455595,0.2035615 -0.660365,0.2401959 0.07413,-0.1112116 0.151872,-0.1263451 0.173078,-0.2090763 -0.04469,-0.049315 -0.433442,-0.1332106 -0.784956,-0.031335 0.01298,0.072874 0.08175,0.1430816 0.174615,0.2161114 -0.236297,-0.057083 -0.442345,-0.2358634 -0.602406,-0.2489047 0.1749,-0.14529 0.326282,-0.3077603 0.541679,-0.404837 z"
       id="path72"
       sodipodi:nodetypes="ccccccccccc" />
    <path
       style="fill:#868686;fill-opacity:1;stroke:#ffffff;stroke-width:0.2;stroke-linecap:round;stroke-linejoin:round;stroke-dasharray:none;stroke-opacity:1;paint-order:stroke markers fill"
       d="m 20.24266,7.5092888 c -0.09348,0.136009 -0.09561,0.1406779 -0.130048,0.2415905 0.224595,-0.1143425 0.598518,-0.1109431 0.844995,0.064647 -0.107672,-0.2455392 -0.08311,-0.1569353 -0.188398,-0.3155449 0.09085,0.050447 0.341308,0.1552781 0.631806,0.4471521 -0.18424,0.04649 -0.455595,0.2035615 -0.660365,0.2401959 0.07413,-0.1112116 0.151872,-0.1263451 0.173078,-0.2090763 -0.04469,-0.049315 -0.433442,-0.1332106 -0.784956,-0.031335 0.01298,0.072874 0.08175,0.1430816 0.174615,0.2161114 -0.236297,-0.057083 -0.442345,-0.2358632 -0.602406,-0.2489045 0.1749,-0.14529 0.326282,-0.3077603 0.541679,-0.4048362 z"
       id="path73"
       sodipodi:nodetypes="ccccccccccc" />
    <path
       style="fill:#868686;fill-opacity:1;stroke:#ffffff;stroke-width:0.2;stroke-linecap:round;stroke-linejoin:round;stroke-dasharray:none;stroke-opacity:1;paint-order:stroke markers fill"
       d="m 20.24266,2.5092883 c -0.09348,0.136009 -0.09561,0.1406779 -0.130048,0.2415905 0.224595,-0.1143425 0.598518,-0.1109431 0.844995,0.064647 -0.107672,-0.2455392 -0.08311,-0.1569353 -0.188398,-0.3155449 0.09085,0.050447 0.341308,0.1552781 0.631806,0.4471521 -0.18424,0.04649 -0.455595,0.2035615 -0.660365,0.2401959 0.07413,-0.1112116 0.151872,-0.1263451 0.173078,-0.2090763 -0.04469,-0.049315 -0.433442,-0.1332106 -0.784956,-0.031335 0.01298,0.072874 0.08175,0.1430816 0.174615,0.2161114 -0.236297,-0.057083 -0.442345,-0.2358632 -0.602406,-0.2489045 0.1749,-0.14529 0.326282,-0.3077603 0.541679,-0.4048362 z"
       id="path74"
       sodipodi:nodetypes="ccccccccccc" />
    <path
       style="fill:#868686;fill-opacity:1;stroke:#ffffff;stroke-width:0.2;stroke-linecap:round;stroke-linejoin:round;stroke-dasharray:none;stroke-opacity:1;paint-order:stroke markers fill"
       d="m 10.242662,12.509289 c -0.09348,0.136009 -0.09561,0.140678 -0.130048,0.24159 0.224595,-0.114342 0.598518,-0.110943 0.844995,0.06465 -0.107672,-0.245539 -0.08311,-0.156936 -0.188398,-0.315545 0.09085,0.05045 0.341308,0.155278 0.631806,0.447152 -0.18424,0.04649 -0.455595,0.203561 -0.660365,0.240196 0.07413,-0.111212 0.151872,-0.126345 0.173078,-0.209076 -0.04469,-0.04931 -0.433442,-0.133211 -0.784956,-0.03133 0.01298,0.07287 0.08175,0.143081 0.174615,0.216111 -0.236297,-0.05708 -0.442345,-0.235863 -0.602406,-0.248905 0.1749,-0.14529 0.326282,-0.30776 0.541679,-0.404836 z"
       id="path75"
       sodipodi:nodetypes="ccccccccccc" />
    <path
       style="fill:#868686;fill-opacity:1;stroke:#ffffff;stroke-width:0.2;stroke-linecap:round;stroke-linejoin:round;stroke-dasharray:none;stroke-opacity:1;paint-order:stroke markers fill"
       d="m 20.24266,12.509289 c -0.09348,0.136009 -0.09561,0.140678 -0.130048,0.24159 0.224595,-0.114342 0.598518,-0.110943 0.844995,0.06465 -0.107672,-0.245539 -0.08311,-0.156935 -0.188398,-0.315545 0.09085,0.05045 0.341308,0.155278 0.631806,0.447152 -0.18424,0.04649 -0.455595,0.203562 -0.660365,0.240196 0.07413,-0.111211 0.151872,-0.126345 0.173078,-0.209076 -0.04469,-0.04931 -0.433442,-0.133211 -0.784956,-0.03134 0.01298,0.07287 0.08175,0.143082 0.174615,0.216111 -0.236297,-0.05708 -0.442345,-0.235863 -0.602406,-0.248904 0.1749,-0.14529 0.326282,-0.30776 0.541679,-0.404836 z"
       id="path76"
       sodipodi:nodetypes="ccccccccccc" />
    <path
       style="fill:#868686;fill-opacity:1;stroke:#ffffff;stroke-width:0.2;stroke-linecap:round;stroke-linejoin:round;stroke-dasharray:none;stroke-opacity:1;paint-order:stroke markers fill"
       d="m 5.2427241,17.509286 c -0.093478,0.136009 -0.095612,0.140678 -0.1300477,0.24159 0.2245944,-0.114342 0.5985179,-0.110943 0.8449945,0.06465 -0.1076724,-0.245539 -0.083107,-0.156936 -0.1883978,-0.315545 0.090849,0.05045 0.3413075,0.155278 0.6318053,0.447152 -0.1842395,0.04649 -0.4555945,0.203561 -0.6603648,0.240196 0.074132,-0.111212 0.1518718,-0.126345 0.1730783,-0.209076 -0.044694,-0.04931 -0.4334419,-0.133211 -0.784956,-0.03134 0.012976,0.07287 0.081752,0.143082 0.1746152,0.216112 C 5.0671539,18.105945 4.861106,17.927162 4.7010449,17.91412 4.875945,17.76883 5.0273273,17.60636 5.2427241,17.509284 Z"
       id="path77"
       sodipodi:nodetypes="ccccccccccc" />
    <path
       style="fill:#868686;fill-opacity:1;stroke:#ffffff;stroke-width:0.2;stroke-linecap:round;stroke-linejoin:round;stroke-dasharray:none;stroke-opacity:1;paint-order:stroke markers fill"
       d="m 15.242661,17.509286 c -0.09348,0.136009 -0.09561,0.140678 -0.130048,0.24159 0.224595,-0.114342 0.598518,-0.110943 0.844995,0.06465 -0.107672,-0.245539 -0.08311,-0.156935 -0.188398,-0.315545 0.09085,0.05045 0.341308,0.155278 0.631806,0.447152 -0.18424,0.04649 -0.455595,0.203562 -0.660365,0.240196 0.07413,-0.111211 0.151872,-0.126345 0.173078,-0.209076 -0.04469,-0.04931 -0.433442,-0.133211 -0.784956,-0.03133 0.01298,0.07287 0.08175,0.143082 0.174615,0.216111 -0.236297,-0.05708 -0.442345,-0.235863 -0.602406,-0.248904 0.1749,-0.14529 0.326282,-0.30776 0.541679,-0.404836 z"
       id="path78"
       sodipodi:nodetypes="ccccccccccc" />
    <path
       style="fill:#868686;fill-opacity:1;stroke:#ffffff;stroke-width:0.2;stroke-linecap:round;stroke-linejoin:round;stroke-dasharray:none;stroke-opacity:1;paint-order:stroke markers fill"
       d="m 20.24266,17.509286 c -0.09348,0.136009 -0.09561,0.140678 -0.130048,0.24159 0.224595,-0.114342 0.598518,-0.110943 0.844995,0.06465 -0.107672,-0.245539 -0.08311,-0.156935 -0.188398,-0.315545 0.09085,0.05045 0.341308,0.155278 0.631806,0.447152 -0.18424,0.04649 -0.455595,0.203562 -0.660365,0.240196 0.07413,-0.111211 0.151872,-0.126345 0.173078,-0.209076 -0.04469,-0.04931 -0.433442,-0.133211 -0.784956,-0.03133 0.01298,0.07287 0.08175,0.143082 0.174615,0.216111 -0.236297,-0.05708 -0.442345,-0.235863 -0.602406,-0.248904 0.1749,-0.14529 0.326282,-0.30776 0.541679,-0.404836 z"
       id="path79"
       sodipodi:nodetypes="ccccccccccc" />
    <path
       style="fill:#868686;fill-opacity:1;stroke:#ffffff;stroke-width:0.2;stroke-linecap:round;stroke-linejoin:round;stroke-dasharray:none;stroke-opacity:1;paint-order:stroke markers fill"
       d="m 10.242662,22.509286 c -0.09348,0.136009 -0.09561,0.140678 -0.130048,0.24159 0.224595,-0.114342 0.598518,-0.110943 0.844995,0.06465 -0.107672,-0.245539 -0.08311,-0.156936 -0.188398,-0.315545 0.09085,0.05045 0.341308,0.155278 0.631806,0.447152 -0.18424,0.04649 -0.455595,0.203561 -0.660365,0.240196 0.07413,-0.111212 0.151872,-0.126345 0.173078,-0.209076 -0.04469,-0.04931 -0.433442,-0.133211 -0.784956,-0.03134 0.01298,0.07287 0.08175,0.143081 0.174615,0.216111 -0.236297,-0.05708 -0.442345,-0.235863 -0.602406,-0.248905 0.1749,-0.14529 0.326282,-0.30776 0.541679,-0.404836 z"
       id="path80"
       sodipodi:nodetypes="ccccccccccc" />
    <path
       style="fill:#868686;fill-opacity:1;stroke:#ffffff;stroke-width:0.2;stroke-linecap:round;stroke-linejoin:round;stroke-dasharray:none;stroke-opacity:1;paint-order:stroke markers fill"
       d="m 15.242661,22.509286 c -0.09348,0.136009 -0.09561,0.140678 -0.130048,0.24159 0.224595,-0.114342 0.598518,-0.110943 0.844995,0.06465 -0.107672,-0.245539 -0.08311,-0.156935 -0.188398,-0.315545 0.09085,0.05045 0.341308,0.155278 0.631806,0.447152 -0.18424,0.04649 -0.455595,0.203562 -0.660365,0.240196 0.07413,-0.111211 0.151872,-0.126345 0.173078,-0.209076 -0.04469,-0.04931 -0.433442,-0.133211 -0.784956,-0.03133 0.01298,0.07287 0.08175,0.143082 0.174615,0.216111 -0.236297,-0.05708 -0.442345,-0.235863 -0.602406,-0.248904 0.1749,-0.14529 0.326282,-0.30776 0.541679,-0.404836 z"
       id="path81"
       sodipodi:nodetypes="ccccccccccc" />
    <path
       style="fill:#868686;fill-opacity:1;stroke:#ffffff;stroke-width:0.2;stroke-linecap:round;stroke-linejoin:round;stroke-dasharray:none;stroke-opacity:1;paint-order:stroke markers fill"
       d="M 8.3780353,5.2416612 C 8.2420264,5.1481841 8.2373574,5.1460493 8.1364449,5.1116142 8.2507873,5.3362074 8.2473879,5.7101289 8.0717975,5.9566043 8.3173365,5.8489324 8.2287327,5.8734979 8.3873423,5.7682074 8.336895,5.8590558 8.2320641,6.1095132 7.9401902,6.4000095 7.8937003,6.2157709 7.7366288,5.9444174 7.6999945,5.7396481 c 0.1112114,0.074131 0.126345,0.1518711 0.2090761,0.1730775 0.049315,-0.044694 0.1332107,-0.4334397 0.031335,-0.784952 -0.072874,0.012976 -0.1430815,0.081752 -0.2161113,0.1746143 0.057083,-0.236296 0.2358632,-0.4423429 0.2489044,-0.6024031 0.14529,0.1748992 0.3077602,0.3262807 0.4048366,0.5416764 z"
       id="path82"
       sodipodi:nodetypes="ccccccccccc" />
    <path
       style="fill:#868686;fill-opacity:1;stroke:#ffffff;stroke-width:0.2;stroke-linecap:round;stroke-linejoin:round;stroke-dasharray:none;stroke-opacity:1;paint-order:stroke markers fill"
       d="m 23.378032,5.2416612 c -0.136009,-0.093477 -0.140678,-0.095612 -0.24159,-0.130047 0.114342,0.2245932 0.110943,0.5985147 -0.06465,0.8449901 0.245539,-0.1076719 0.156935,-0.083106 0.315545,-0.1883969 -0.05045,0.090848 -0.155278,0.3413058 -0.447152,0.6318021 -0.04649,-0.1842386 -0.203562,-0.4555921 -0.240196,-0.6603614 0.111212,0.074131 0.126345,0.1518711 0.209076,0.1730775 0.04931,-0.044694 0.133211,-0.4334397 0.03133,-0.784952 -0.07287,0.012976 -0.143081,0.081752 -0.216111,0.1746143 0.05708,-0.236296 0.235863,-0.4423429 0.248904,-0.6024031 0.14529,0.1748992 0.307761,0.3262807 0.404837,0.5416764 z"
       id="path83"
       sodipodi:nodetypes="ccccccccccc" />
    <path
       style="fill:#868686;fill-opacity:1;stroke:#ffffff;stroke-width:0.2;stroke-linecap:round;stroke-linejoin:round;stroke-dasharray:none;stroke-opacity:1;paint-order:stroke markers fill"
       d="m 23.378032,10.241661 c -0.136009,-0.09348 -0.140678,-0.09561 -0.24159,-0.130047 0.114342,0.224593 0.110943,0.598515 -0.06465,0.84499 0.245539,-0.107672 0.156935,-0.08311 0.315545,-0.188397 -0.05045,0.09085 -0.155278,0.341306 -0.447152,0.631802 -0.04649,-0.184238 -0.203562,-0.455592 -0.240196,-0.660361 0.111212,0.07413 0.126345,0.151871 0.209076,0.173078 0.04931,-0.04469 0.133211,-0.43344 0.03133,-0.784952 -0.07287,0.01298 -0.143081,0.08175 -0.216111,0.174614 0.05708,-0.236296 0.235863,-0.442343 0.248904,-0.602403 0.14529,0.174899 0.307761,0.326281 0.404837,0.541676 z"
       id="path84"
       sodipodi:nodetypes="ccccccccccc" />
    <path
       style="fill:#868686;fill-opacity:1;stroke:#ffffff;stroke-width:0.2;stroke-linecap:round;stroke-linejoin:round;stroke-dasharray:none;stroke-opacity:1;paint-order:stroke markers fill"
       d="m 18.378035,10.241661 c -0.136009,-0.09348 -0.140678,-0.09561 -0.24159,-0.130047 0.114342,0.224593 0.110943,0.598515 -0.06465,0.84499 0.245539,-0.107672 0.156935,-0.08311 0.315545,-0.188397 -0.05045,0.09085 -0.155278,0.341306 -0.447152,0.631802 -0.04649,-0.184238 -0.203562,-0.455592 -0.240196,-0.660361 0.111212,0.07413 0.126345,0.151871 0.209076,0.173078 0.04931,-0.04469 0.133211,-0.43344 0.03133,-0.784952 -0.07287,0.01298 -0.143081,0.08175 -0.216111,0.174614 0.05708,-0.236296 0.235863,-0.442343 0.248904,-0.602403 0.14529,0.174899 0.307761,0.326281 0.404837,0.541676 z"
       id="path85"
       sodipodi:nodetypes="ccccccccccc" />
    <path
       style="fill:#868686;fill-opacity:1;stroke:#ffffff;stroke-width:0.2;stroke-linecap:round;stroke-linejoin:round;stroke-dasharray:none;stroke-opacity:1;paint-order:stroke markers fill"
       d="m 3.3780384,10.241661 c -0.136009,-0.09348 -0.140678,-0.09561 -0.24159,-0.130047 0.114342,0.224593 0.110943,0.598515 -0.06465,0.84499 0.245539,-0.107672 0.156935,-0.08311 0.315545,-0.188397 -0.05045,0.09085 -0.155278,0.341306 -0.4471519,0.631802 -0.04649,-0.184238 -0.203562,-0.455592 -0.240196,-0.660361 0.111212,0.07413 0.126345,0.151871 0.209076,0.173078 0.04931,-0.04469 0.133211,-0.43344 0.03133,-0.784952 -0.07287,0.01298 -0.143081,0.08175 -0.216111,0.174614 0.05708,-0.236296 0.235863,-0.442343 0.248904,-0.602403 0.1452899,0.174899 0.3077609,0.326281 0.4048369,0.541676 z"
       id="path86"
       sodipodi:nodetypes="ccccccccccc" />
    <path
       style="fill:#868686;fill-opacity:1;stroke:#ffffff;stroke-width:0.2;stroke-linecap:round;stroke-linejoin:round;stroke-dasharray:none;stroke-opacity:1;paint-order:stroke markers fill"
       d="m 3.3780384,15.241661 c -0.136009,-0.09348 -0.140678,-0.09561 -0.24159,-0.130047 0.114342,0.224593 0.110943,0.598515 -0.06465,0.84499 0.245539,-0.107672 0.156935,-0.08311 0.315545,-0.188397 -0.05045,0.09085 -0.155278,0.341306 -0.4471519,0.631802 -0.04649,-0.184238 -0.203562,-0.455592 -0.240196,-0.660361 0.111212,0.07413 0.126345,0.151871 0.209076,0.173078 0.04931,-0.04469 0.133211,-0.43344 0.03133,-0.784952 -0.07287,0.01298 -0.143081,0.08175 -0.216111,0.174614 0.05708,-0.236296 0.235863,-0.442343 0.248904,-0.602403 0.1452899,0.174899 0.3077609,0.32628 0.4048369,0.541676 z"
       id="path87"
       sodipodi:nodetypes="ccccccccccc" />
    <path
       style="fill:#868686;fill-opacity:1;stroke:#ffffff;stroke-width:0.2;stroke-linecap:round;stroke-linejoin:round;stroke-dasharray:none;stroke-opacity:1;paint-order:stroke markers fill"
       d="m 8.3780373,15.241661 c -0.136009,-0.09348 -0.140678,-0.09561 -0.2415899,-0.130047 0.1143419,0.224593 0.1109429,0.598515 -0.06465,0.84499 0.2455389,-0.107672 0.156935,-0.08311 0.3155449,-0.188397 -0.05045,0.09085 -0.155278,0.341306 -0.4471519,0.631802 -0.04649,-0.184238 -0.2035619,-0.455592 -0.2401959,-0.660361 0.1112119,0.07413 0.1263449,0.151871 0.2090759,0.173078 0.04931,-0.04469 0.133211,-0.43344 0.03133,-0.784952 -0.07287,0.01298 -0.143081,0.08175 -0.2161109,0.174614 0.05708,-0.236296 0.2358629,-0.442343 0.2489039,-0.602403 0.14529,0.174899 0.3077609,0.32628 0.4048369,0.541676 z"
       id="path88"
       sodipodi:nodetypes="ccccccccccc" />
    <path
       style="fill:#868686;fill-opacity:1;stroke:#ffffff;stroke-width:0.2;stroke-linecap:round;stroke-linejoin:round;stroke-dasharray:none;stroke-opacity:1;paint-order:stroke markers fill"
       d="m 18.378035,15.241661 c -0.136009,-0.09348 -0.140678,-0.09561 -0.24159,-0.130047 0.114342,0.224593 0.110943,0.598515 -0.06465,0.84499 0.245539,-0.107672 0.156935,-0.08311 0.315545,-0.188397 -0.05045,0.09085 -0.155278,0.341306 -0.447152,0.631802 -0.04649,-0.184238 -0.203562,-0.455592 -0.240196,-0.660361 0.111212,0.07413 0.126345,0.151871 0.209076,0.173078 0.04931,-0.04469 0.133211,-0.43344 0.03133,-0.784952 -0.07287,0.01298 -0.143081,0.08175 -0.216111,0.174614 0.05708,-0.236296 0.235863,-0.442343 0.248904,-0.602403 0.14529,0.174899 0.307761,0.32628 0.404837,0.541676 z"
       id="path89"
       sodipodi:nodetypes="ccccccccccc" />
    <path
       style="fill:#868686;fill-opacity:1;stroke:#ffffff;stroke-width:0.2;stroke-linecap:round;stroke-linejoin:round;stroke-dasharray:none;stroke-opacity:1;paint-order:stroke markers fill"
       d="m 3.3780384,20.241661 c -0.136009,-0.09348 -0.140678,-0.09561 -0.24159,-0.130047 0.114342,0.224593 0.110943,0.598515 -0.06465,0.84499 0.245539,-0.107672 0.156935,-0.08311 0.315545,-0.188397 -0.05045,0.09085 -0.155278,0.341306 -0.4471519,0.631802 -0.04649,-0.184238 -0.203562,-0.455592 -0.240196,-0.660361 0.111212,0.07413 0.126345,0.151871 0.209076,0.173078 0.04931,-0.04469 0.133211,-0.43344 0.03133,-0.784952 -0.07287,0.01298 -0.143081,0.08175 -0.216111,0.174614 0.05708,-0.236296 0.235863,-0.442343 0.248904,-0.602403 0.1452899,0.174899 0.3077609,0.32628 0.4048369,0.541676 z"
       id="path90"
       sodipodi:nodetypes="ccccccccccc" />
    <path
       style="fill:#868686;fill-opacity:1;stroke:#ffffff;stroke-width:0.2;stroke-linecap:round;stroke-linejoin:round;stroke-dasharray:none;stroke-opacity:1;paint-order:stroke markers fill"
       d="m 8.3780373,20.241661 c -0.136009,-0.09348 -0.140678,-0.09561 -0.2415899,-0.130047 0.1143419,0.224593 0.1109429,0.598515 -0.06465,0.84499 0.2455389,-0.107672 0.156935,-0.08311 0.3155449,-0.188397 -0.05045,0.09085 -0.155278,0.341306 -0.4471519,0.631802 -0.04649,-0.184238 -0.2035619,-0.455592 -0.2401959,-0.660361 0.1112119,0.07413 0.1263449,0.151871 0.2090759,0.173078 0.04931,-0.04469 0.133211,-0.43344 0.03133,-0.784952 -0.07287,0.01298 -0.143081,0.08175 -0.2161109,0.174614 0.05708,-0.236296 0.2358629,-0.442343 0.2489039,-0.602403 0.14529,0.174899 0.3077609,0.32628 0.4048369,0.541676 z"
       id="path91"
       sodipodi:nodetypes="ccccccccccc" />
    <path
       style="fill:#868686;fill-opacity:1;stroke:#ffffff;stroke-width:0.2;stroke-linecap:round;stroke-linejoin:round;stroke-dasharray:none;stroke-opacity:1;paint-order:stroke markers fill"
       d="m 18.378035,20.241661 c -0.136009,-0.09348 -0.140678,-0.09561 -0.24159,-0.130047 0.114342,0.224593 0.110943,0.598515 -0.06465,0.84499 0.245539,-0.107672 0.156935,-0.08311 0.315545,-0.188397 -0.05045,0.09085 -0.155278,0.341306 -0.447152,0.631802 -0.04649,-0.184238 -0.203562,-0.455592 -0.240196,-0.660361 0.111212,0.07413 0.126345,0.151871 0.209076,0.173078 0.04931,-0.04469 0.133211,-0.43344 0.03133,-0.784952 -0.07287,0.01298 -0.143081,0.08175 -0.216111,0.174614 0.05708,-0.236296 0.235863,-0.442343 0.248904,-0.602403 0.14529,0.174899 0.307761,0.32628 0.404837,0.541676 z"
       id="path92"
       sodipodi:nodetypes="ccccccccccc" />
    <path
       style="fill:#868686;fill-opacity:1;stroke:#ffffff;stroke-width:0.2;stroke-linecap:round;stroke-linejoin:round;stroke-dasharray:none;stroke-opacity:1;paint-order:stroke markers fill"
       d="m 23.378034,20.241661 c -0.136009,-0.09348 -0.140678,-0.09561 -0.24159,-0.130047 0.114342,0.224593 0.110943,0.598515 -0.06465,0.84499 0.245539,-0.107672 0.156935,-0.08311 0.315545,-0.188397 -0.05045,0.09085 -0.155278,0.341306 -0.447152,0.631802 -0.04649,-0.184238 -0.203562,-0.455592 -0.240196,-0.660361 0.111212,0.07413 0.126345,0.151871 0.209076,0.173078 0.04931,-0.04469 0.133211,-0.43344 0.03133,-0.784952 -0.07287,0.01298 -0.143081,0.08175 -0.216111,0.174614 0.05708,-0.236296 0.235863,-0.442343 0.248904,-0.602403 0.14529,0.174899 0.307761,0.32628 0.404837,0.541676 z"
       id="path93"
       sodipodi:nodetypes="ccccccccccc" />
  </g>
</svg>
