<?xml version="1.0" encoding="UTF-8"?>
<!-- Created with Inkscape (http://www.inkscape.org/) -->
<svg width="200mm" height="98.124mm" version="1.1" viewBox="0 0 200 98.124" xmlns="http://www.w3.org/2000/svg" xmlns:cc="http://creativecommons.org/ns#" xmlns:dc="http://purl.org/dc/elements/1.1/" xmlns:rdf="http://www.w3.org/1999/02/22-rdf-syntax-ns#">
 <defs>
  <filter id="a" x="-.086882" y="-.089279" width="1.1738" height="1.1786" color-interpolation-filters="sRGB">
   <feFlood flood-color="rgb(0,0,0)" flood-opacity=".70196" in="SourceGraphic" result="flood"/>
   <feGaussianBlur in="SourceGraphic" result="blur" stdDeviation="1.500000"/>
   <feOffset dx="0.000000" dy="0.000000" in="blur" result="offset"/>
   <feComposite in="flood" in2="offset" operator="in" result="comp1"/>
   <feComposite in="SourceGraphic" in2="comp1" result="comp2"/>
  </filter>
 </defs>
 <g transform="translate(-48.208 -102.21)" stroke="#000">
  <path transform="matrix(2.0393 0 0 2.0413 -49.274 -105.85)" d="m100.82 106.44c-6.7392-1.2811-14.434-0.37017-19.643 4.5653-4.1491 4.3162-5.5898 10.584-5.783 16.461-0.03555 6.7214 2.9676 13.934 9.0365 17.109 5.9714 3.2134 13.152 3.3948 19.592 1.7286 7.4261-2.3047 13.069-9.444 13.771-17.347 1.0004-7.778-2.6232-16.263-9.5642-19.954-2.263-1.3588-4.7912-2.2925-7.4094-2.5628z" fill="#fff" filter="url(#a)" stroke-miterlimit="4.3" stroke-width=".19605"/>
  <g fill="none" stroke-miterlimit="4.3" stroke-width=".4">
   <path d="m193.25 128.61c-4.5394-11.739-16.234-19.101-28.054-21.917-12.794-3.1546-26.505-3.8068-39.263-0.14841-9.9373 3.0462-19.069 9.5621-23.795 19.009"/>
   <path d="m200.28 132.51c4.1106-2.1799-2.1422-5.8162-3.7056-2.2045-1.4906 3.4434 1.596 6.8372 4.898 6.9361 3.5445 0.10615 6.1226-3.7535 4.6625-7.4424-1.2051-3.0447-3.9504-5.4058-6.9777-5.1868-3.249 0.23508-4.7856 1.0104-6.0666 4.2418-1.6889 4.2604 6.0485 24.459 12.603 33.985 5.5624 8.0837 11.426 15.87 20.031 20.322 4.0444 2.0924 8.7139 3.2321 11.112 1.0424 2.1983-2.0075 3.3047-6.0608 0.58031-8.3922-2.655-2.2721-9.0971-1.2263-9.1377 2.4984-0.0685 6.272 9.0672 4.146 5.0739 0.0274"/>
   <path d="m95.058 130.61c-4.1445-2.1799 2.1599-5.8162 3.7363-2.2045 1.5029 3.4434-1.6092 6.8372-4.9385 6.9361-3.5738 0.10615-6.1732-3.7535-4.7011-7.4424 1.2151-3.0447 3.9831-5.4058 7.0354-5.1868 3.2758 0.23509 4.8252 1.0104 6.1168 4.2418 1.7028 4.2604-6.0755 25.575-12.684 35.101-5.6084 8.0837-11.543 14.754-20.219 19.206-4.0778 2.0924-8.786 3.2321-11.203 1.0424-2.2165-2.0075-3.332-6.0608-0.58511-8.3922 2.6769-2.2721 9.1723-1.2263 9.2133 2.4984 0.06913 6.272-9.1422 4.146-5.1159 0.0274"/>
   <path d="m61.125 183.77c-6.0662-7e-3 -12.241 10.643-11.869 14.408 36.729 0.40299 75.36 0.3437 112.1 0.19651 29.43-0.11798 73.63-0.37057 84.876-0.39586-0.43759-5.1958-4.6427-12.522-11.898-12.918"/>
   <path d="m147.49 148.28c-5.8254-2.1722-8.2697 8.2537-1.7194 8.7428 6.4316 1.9542 8.2991-8.1867 1.7194-8.7428z"/>
   <path d="m146.07 114.7c-1.3299 2.1253-0.51526 10.582 1.7026 5.1942 1.1877-1.4285 1.5444-9.1309-1.7026-5.1942z"/>
   <path d="m146.34 186.08c-1.8705 2.6844 1.8491 8.6009 2.6662 3.0384 0.56429-1.7025-1.4336-7.6904-2.6662-3.0384z"/>
   <path d="m185.3 151.11c-2.1231-1.3312-10.571-0.51581-5.189 1.7042 1.427 1.1889 9.1217 1.546 5.189-1.7042z"/>
   <path d="m114.16 152.06c-2.6817-1.8724-8.5922 1.851-3.0354 2.6689 1.7008 0.56484 7.6827-1.4351 3.0354-2.6689z"/>
   <path d="m165.9 119.99c-2.2459 1.1111-5.984 8.7388-1.2724 5.3162 1.7597-0.59254 6.0997-6.963 1.2724-5.3162z"/>
   <path d="m129.4 181.11c-2.9992 1.3033-2.9328 8.2935 0.67776 3.9868 1.3726-1.1532 2.8094-7.3002-0.67776-3.9868z"/>
   <path d="m180.22 171.59c-1.11-2.2482-8.73-5.9901-5.3108-1.2737 0.59194 1.7615 6.9559 6.1059 5.3108 1.2737z"/>
   <path d="m119.16 135.05c-1.302-3.0022-8.2851-2.9358-3.9828 0.6784 1.1521 1.3741 7.2929 2.8121 3.9828-0.6784z"/>
   <path d="m178.95 132.43c-2.5046-0.0551-9.3441 4.9758-3.5852 4.1237 1.8339 0.28969 8.6258-3.3479 3.5852-4.1237z"/>
   <path d="m118.33 169.71c-3.2613-0.23371-6.4333 5.9942-1.2419 3.8484 1.7499-0.38665 5.8648-5.1707 1.2419-3.8484z"/>
   <path d="m167.79 184.81c0.0551-2.5071-4.9708-9.3535-4.1195-3.5888-0.2894 1.8358 3.3445 8.6346 4.1195 3.5888z"/>
   <path d="m130.55 124.13c0.23339-3.2645-5.9881-6.4398-3.8445-1.2431 0.38626 1.7517 5.1655 5.8708 3.8445 1.2431z"/>
  </g>
  <path d="m147.67 157.39c0.21475 5.9357 0.40646 13.73 2.6569 17.338-2.7102 1.9911-3.0221 4.0972-3.538 6.1645-0.81589-1.8806-0.50405-3.8069-3.2134-6.5535 2.6986-3.7018 2.1481-11.139 2.4885-17.187 0.56785 4e-3 1.0899 0.0143 1.606 0.23817z" fill-opacity=".5" stroke-miterlimit="4.3" stroke-width=".4"/>
  <g fill="#fff" stroke-opacity=".7">
   <g stroke-linecap="round" stroke-linejoin="round">
    <g stroke-width=".4">
     <path d="m95.726 176.65s-0.07184-0.0133-0.07422-0.0133c-0.02295-0.0114 0.07053 5e-3 0.07053 5e-3 0.0616 5e-3 -0.05155-9e-3 -0.09273-9e-3 -0.01934-9e-3 -0.02017-6e-3 -0.02272-6e-3 -0.0203-6e-3 -0.01157-4.8e-4 -0.01704-4.7e-4 -0.01248-4.7e-4 -0.0044 4e-3 -0.0174 4e-3 -1.65e-4 4e-3 -0.06239-0.0122-0.08516-0.012-0.03136-0.0124 0.01763 5e-3 0.0081 5e-3 0.0077 5e-3 -0.0587 8e-4 -0.09178 1e-3 -0.01966 3.9e-4 -0.02148 4e-3 -0.04309 5e-3 -0.0084 4e-3 -0.05396 1e-3 -0.08427 2e-3 -0.02184 8.9e-4 -0.04645 1e-3 -0.07262 2e-3 -0.02318 8.1e-4 -0.07957-0.0232-0.10781-0.0224-0.04502-0.0241-0.06038-0.0135-0.08052-0.0129-0.04368-0.014-0.01272 2e-3 -0.03606 3e-3 -0.0083 2e-3 -0.08132 4e-3 -0.12508 6e-3 -0.03099 2e-3 -0.06393 4e-3 -0.09846 5e-3 -0.03201 2e-3 -0.06441 5e-3 -0.10077 6e-3 -0.03136 3e-3 0.02827 6e-3 -0.01067 8e-3 0.03435 6e-3 -0.15427-0.0206-0.22902-0.016-0.04756-0.0263-0.06215 6e-3 -0.09817 8e-3 -0.03417 4e-3 -0.08217 7e-3 -0.12609 0.01-0.03876 4e-3 -0.02356 0.0148-0.06712 0.0181-2.46e-4 0.0133-0.12656 7e-3 -0.19116 0.0118-0.04468 4.7e-4 -0.08733 5e-3 -0.13176 9e-3 -0.04503 2e-3 -0.09788 2e-3 -0.14384 6e-3 -0.05135-2e-3 -0.10069 2e-3 -0.14537 6e-3 -0.05595-2e-3 -0.09211-7e-3 -0.13613-2e-3 -0.05228-0.0101-0.1014 7e-3 -0.14928 0.0115-0.05404 2e-3 -0.09675 9e-3 -0.14463 0.0143-0.0517 5e-3 -0.11194-0.01-0.16225-4e-3 -0.06038-0.0152-0.02934 0.0184-0.07787 0.0243-0.0063 0.0161-0.13151 0.0227-0.20636 0.0324-0.04185 0.012-0.0863 0.0225-0.14475 0.0304-0.03322 0.0158-0.06155 0.0195-0.12506 0.0284-0.01037 0.0128-0.17255 8e-3 -0.2486 0.0189-0.07109-6e-3 -0.07339 0.0179-0.12175 0.0252-0.03977 0.0132-0.14502-0.0108-0.20827-9.7e-4 -0.07102-0.0219-0.09539 0.0184-0.14687 0.0268-0.05165 0.0118-0.07072 0.0199-0.12981 0.03-0.02488 0.0128-0.16059 0.0179-0.23333 0.031-0.0691 2e-3 -0.07301 0.0266-0.12563 0.0364-0.03537 0.0201-0.1465 0.0206-0.21443 0.0336-0.06628 6e-3 -0.11343 0.0195-0.16812 0.0304-0.06139 0.01-0.14088-3e-3 -0.19794 9e-3 -0.07881-0.0148-0.12114 0.0108-0.17271 0.0221-0.07185 1e-3 -0.13023 3e-3 -0.18389 0.0161-0.07611-8e-3 -0.1164 0.0107-0.16951 0.0248-0.06676-3.6e-4 -0.12056 1e-3 -0.17737 0.0182-0.06572-0.0124-0.12264 0.024-0.18199 0.045-0.0607 7e-3 -0.11495 0.0441-0.17275 0.0674-0.05416 0.0235-0.01669 0.053-0.07276 0.0764 0.02422 0.0367-0.12175 0.0611-0.21339 0.0879-0.02529 0.0213-0.15142-9.8e-4 -0.22364 0.0151-0.06654 0.0148-0.12158 0.0643-0.16848 0.0776-0.0508 0.0144-0.0797 0.0349-0.12998 0.0498-0.03473 0.0226-0.11577 0.0325-0.1715 0.0498-0.05216 0.0139-0.04775 0.0357-0.09607 0.0513-0.01405 0.0257-0.12612 0.0417-0.18902 0.0629-0.04798 0.0167-0.04463 0.0374-0.09298 0.0543-0.01053 0.0263-0.1284 0.0437-0.19099 0.0664-0.04912 0.0162-0.11142 0.0243-0.15799 0.0417-0.06068 6e-3 -0.05693 0.0369-0.09958 0.0532-0.02562 0.0255-0.10018 0.0445-0.15415 0.0658-0.03973 0.0216-0.07827 0.0432-0.12617 0.0625-0.03216 0.0253-0.07068 0.0482-0.12053 0.0687-0.0231 0.0292-0.04239 0.0509-0.09472 0.0728 0.0012 0.0332-0.14401 0.0318-0.20519 0.058-0.06173-3e-3 -0.07486 0.037-0.11549 0.0546-0.03884 0.0217-0.10755 0.0291-0.15286 0.049-0.05672 7e-3 -0.01345 0.0388-0.05345 0.0565 0.0055 0.0307-0.05754 0.0635-0.11853 0.0908 0.0053 0.0358-0.11949 0.0407-0.17896 0.0675-0.04409 7e-3 -0.09499 0.0367-0.13889 0.0566-0.04752 0.0154-0.04271 0.0379-0.08313 0.0563-0.01392 0.025-0.10901 0.0445-0.1611 0.0682-0.0451 0.0156-0.08393 8e-3 -0.12442 0.0265-0.04674-9e-3 -0.08396 0.0409-0.1278 0.0608-0.03784 0.02-0.06179 0.042-0.10346 0.0608-0.02429 0.025-0.09984 0.0324-0.14577 0.0531-0.04695 8e-3 -0.09044 0.0279-0.12954 0.0454-0.0495 9e-3 -8e-3 0.0428-0.04536 0.0594 0.0096 0.0348-0.12272 0.0454-0.17977 0.0704-0.04604 0.0111-0.08698 0.028-0.12459 0.0444-0.04801 0.0108-0.07345 0.0313-0.10974 0.0469-0.03929 0.0163-0.07402 0.0332-0.11248 0.0495-0.03624 0.0168-0.05792 0.0345-0.09711 0.0509-0.02327 0.0196-0.11205 0.0175-0.15588 0.0356-0.05732-6e-3 -0.06772 0.016-0.10076 0.0294-0.03984 4e-3 -0.0075 0.0393-0.04565 0.0546 0.0129 0.0308-0.11602 0.0179-0.17228 0.0396-0.04229-0.0118-0.07898 0.0259-0.11786 0.0406-0.03783 0.01-0.07368 0.0275-0.1103 0.041-0.03651 0.0133-0.0047 0.0361-0.04078 0.0491 0.01263 0.0294-0.12013 0.035-0.17542 0.0539-0.04311 7e-3 -0.01666 0.0317-0.04995 0.0427 1.95e-4 0.0256-0.10645 0.0298-0.1565 0.0452-0.0403 8e-3 -0.07694-0.012-0.11052-2e-3 -0.04471-0.0222-0.09281 8e-3 -0.12761 0.018-0.05169-4e-3 0.01927 0.019-0.0091 0.0269 0.01886 0.0188-0.06782 0.0376-0.12578 0.0524-7.67e-4 0.0186-0.08527 0.0271-0.13415 0.0384-0.02571 0.0116-0.0524 0.0199-0.08992 0.0278-0.01822 0.0115-0.06853 0.0204-0.10936 0.0281-0.02466 0.0107-0.07183 0.0145-0.1093 0.0207-0.03136 6e-3 -0.0067 0.0161-0.04078 0.0211 0.0093 0.0128-0.04662 0.02-0.10039 0.0259 0.0078 0.0112-0.03727 0.0106-0.0906 0.0145 0.01335 4e-3 -0.01543 0.0111-0.07177 0.0132 0.03295 7e-3 -0.09918 0.01-0.16541 0.01-0.01506 6e-3 -0.0652 4e-3 -0.10627 3e-3 -0.02173 3e-3 -0.07833-4e-3 -0.11558-5e-3 -0.0351-3e-3 -0.0674-9e-3 -0.09738-0.0107-0.03669-8e-3 -0.03069 4e-3 -0.05936 2e-3 -0.01262 5e-3 -0.07452-3e-3 -0.11519-6e-3 -0.02656-6.4e-4 -0.08747-0.0242-0.12073-0.0278-0.04685-0.0212-0.05603-6e-3 -0.07841-6e-3 -0.03693-1.4e-4 -0.06526 3e-3 -0.09239-2e-3 -0.05783-0.0106-0.12756-0.0343-0.18107-0.0492-0.0619-0.0241-0.09393-0.0283-0.13838-0.0449-0.04942-0.0184-0.08895-0.0367-0.13434-0.0589-0.04004-0.0213-0.10435-0.0529-0.14792-0.08-0.04904-0.0281-0.05411-0.0438-0.08914-0.0704-0.02239-0.0274-0.06218-0.0615-0.10068-0.0981-0.01661-0.0304-0.036-0.0662-0.07-0.10605 0.0026-0.0335-0.07002-0.0862-0.10142-0.13166-0.02599-0.037 0.03804-0.071 0.01543-0.10979 0.05816-0.0465-0.04319-0.0987-0.06839-0.15189-0.0066-0.0385-0.04734-0.0885-0.06484-0.13198-0.02449-0.0428-0.03289-0.0797-0.04674-0.11985-0.01679-0.0427-0.02847-0.0845-0.04091-0.12721-0.01321-0.0436-0.01575-0.0843-0.02638-0.12828-0.0026-0.043-0.02426-0.0933-0.03331-0.13945-0.01186-0.0459-0.01965-0.0937-0.02656-0.13813-0.01-0.0487-0.02723-0.10165-0.03237-0.1453-0.01927-0.0548-0.0057-0.0807-9e-3 -0.12104-6.66e-4 -0.0455-0.01019-0.0928-0.01227-0.13811-0.0055-0.0462-0.0132-0.098-0.01364-0.14215-0.01033-0.0505-0.0065-0.086-0.0054-0.12705-0.0053-0.0458 0.0704-0.0828 0.07311-0.12481 0.07008-0.0391 0.0024-0.0891 0.0059-0.12997-5.8e-5 -0.0446 0.04276-0.0701 0.04679-0.10809 0.04015-0.0329-0.01376-0.0984-0.0092-0.13767-0.01878-0.0494 0.08421-0.0554 0.08862-0.0862 0.08153-0.0274 0.01257-0.0716 0.01656-0.1055 0.0069-0.0336 0.0074-0.0665 0.0107-0.0974 0.0032-0.0303 0.01106-0.0586 0.01417-0.0857 8e-3 -0.0264 0.0056-0.0522 9e-3 -0.0756 0.0028-0.0234 0.01833-0.0409 0.02258-0.0603 0.01598-0.0171 0.01036-0.0389 0.01506-0.0557 0.0065-0.0159 0.0072-0.0697 0.01392-0.0819 0.0071-0.0128 0.01923 0.0158 0.03228 9e-3 0 0-0.02089-9e-3 -0.02419-9e-3 -0.0192-0.01 0.01088 3e-3 0.01088 3e-3 0.0052 4e-3 0.01867 8e-3 0.0037 0.01 0.01833 9e-3 -0.04605 3e-3 -0.07319 7e-3 -0.01795-9.3e-4 -0.02828-4e-3 -0.0404-1e-3 -0.02003-5e-3 -0.03468-7e-3 -0.05028-4e-3 -0.02288-9e-3 -0.049 7.8e-4 -0.06766 5e-3 -0.03094-3e-3 6e-3 0.0112-0.01173 0.0158 0.0066 0.0116-0.06301 0.0191-0.10054 0.0304-0.02036 8e-3 -0.03332 0.0214-0.06086 0.0306-0.01179 0.0154 0.01244 0.028-0.02051 0.0402 0.02846 0.0237-0.11081 0.0289-0.16195 0.0504-0.04088 3e-3 -0.05341 0.021-0.08 0.0329-0.03166 0.0123-0.04356 0.029-0.07465 0.044-0.01864 0.0185-0.04256 0.0391-0.07954 0.0584-0.0097 0.0241 0.0058 0.0444-0.03483 0.0674 0.0325 0.0319-0.04925 0.0699-0.10454 0.10415 0.01201 0.0362-0.06549 0.0632-0.11268 0.0943-0.01313 0.0315-0.02827 0.0614-0.06872 0.0895 0.0064 0.0395-0.10694 0.0559-0.15305 0.0896-0.05052 0.0172-0.01511 0.0519-0.04913 0.078 0.0058 0.0378-0.11606 0.0546-0.16372 0.0932-0.05805 0.0109-0.08733 0.0505-0.12315 0.0812-0.05199 0.0229-0.05757 0.0628-0.09343 0.0958-0.02598 0.0372-0.02263 0.0771-0.06278 0.11685 0.01121 0.0481-0.09868 0.0914-0.14612 0.14138-0.04246 0.037-0.0684 0.0836-0.10623 0.12604-0.03148 0.0462-0.10006 0.0602-0.13871 0.10662-0.06199 0.0193-0.07988 0.0978-0.11816 0.14963-0.03804 0.0504-0.0584 0.10753-0.09381 0.16147-0.02151 0.0609-0.05875 0.11846-0.09419 0.17789-0.02129 0.0645-0.08688 0.11498-0.12173 0.1779-0.04995 0.056-0.05865 0.13015-0.08864 0.19669-0.02282 0.0719-0.06347 0.13962-0.09199 0.21162-0.02935 0.0741-0.03053 0.1556-0.05302 0.23264-0.0084 0.0288 0.02724 0.0584 0.02054 0.0883 0.03603 0.0323-0.03225 0.0505-0.03754 0.0837-0.02428 0.02-0.0024 0.0703-0.0058 0.10535 0.0044 0.0328 0.02022 0.0691 0.01872 0.10093 0.02411 0.0367 0.01819 0.0615 0.0181 0.0922 0.02027 0.033 0.0496 0.0734 0.05094 0.10606 0.05026 0.0381-0.0015 0.0532 7.13e-4 0.0827-0.0018 0.0298 0.0033 0.0593 0.0075 0.0947 0.0016 0.0265 0.0081 0.0568 0.01419 0.0946 0.0049 0.0219 0.0099 0.0786 0.01814 0.11897 0.0033 0.034 0.03979 0.0744 0.04852 0.11011 0.03235 0.0355 0.02844 0.0666 0.03741 0.0987 0.0215 0.0358 0.01625 0.0407 0.02674 0.0741 0.01055 0.0169 0.04447 0.0892 0.05994 0.13231 0.02822 0.0358 0.02356 0.0647 0.03639 0.0973 0.01352 0.0349 0.0041 0.0518 0.01941 0.0871-0.0057 0.0241 0.03318 0.0749 0.05395 0.11783 0.01344 0.0272 0.0398 0.0777 0.06019 0.11605 0.01986 0.0349 0.0343 0.0676 0.05395 0.10162 0.01729 0.034 0.0287 0.065 0.05043 0.0996 0.01066 0.032 0.04945 0.0742 0.0744 0.11063 0.02479 0.0335 0.05074 0.0664 0.0748 0.0989 0.02847 0.0326 0.05274 0.0641 0.07782 0.0954 0.02972 0.0318 0.05938 0.0635 0.08585 0.0942 0.03427 0.031 0.09375 0.0682 0.12081 0.0973 0.06229 0.0312 0.04007 0.0334 0.06149 0.0552 0.02965 0.021 0.06125 0.0628 0.09412 0.0937 0.02894 0.0286 0.06977 0.0602 0.10249 0.0885 0.03715 0.0284 0.04609 0.0457 0.07809 0.0713 0.02178 0.0231 0.07623 0.0596 0.1161 0.0882 0.03487 0.0253 0.07776 0.052 0.11486 0.076 0.04127 0.0246 0.06047 0.0359 0.09724 0.0573 0.03133 0.0155 0.09225 0.0497 0.13669 0.0725 0.04481 0.0209 0.0778 0.0386 0.11759 0.0566 0.04196 0.0189 0.07213 0.0311 0.11533 0.048 0.03511 0.0128 0.09463 0.0355 0.14405 0.0517 0.04432 0.0145 0.09864 0.0309 0.1456 0.0436 0.05171 0.0143 0.0884 0.0225 0.13375 0.0322 0.04772 0.0101 0.1163 0.0201 0.16607 0.0278 0.06376 8e-3 0.15799 0.0148 0.20165 0.0195 0.10429 6e-3 0.11501 9e-3 0.13948 0.0113 0.04622 4e-3 0.07877 0.0105 0.15283 9e-3 0.04416-7.6e-4 0.09311-7.7e-4 0.13613-3e-3 0.04661-5.6e-4 0.07932-0.0162 0.11956-0.0193 0.03979-0.015 0.15419 1e-3 0.19558-3e-3 0.08773 6e-3 0.02508-0.0293 0.04276-0.0314 0.0318-0.0305 0.11913-3e-3 0.16042-9e-3 0.06291 4e-3 0.13109-8e-3 0.15858-0.0127 0.08919-1e-3 0.03833-2e-3 0.05202-5e-3 0.04541-4e-3 0.08998-0.0124 0.1238-0.0199 0.05173-6e-3 0.06159-0.0136 0.09155-0.021 0.03735-9e-3 0.07127-0.0373 0.107-0.0474 0.03333-0.0285 0.18403-0.0191 0.21809-0.0299 0.11492 1e-3 -0.0152-9e-3 -0.01495-9e-3 0.02406-0.0213 0.11434-0.0186 0.15289-0.0324 0.06076-2e-3 0.04384-0.0213 0.06861-0.0308 0.03017-0.017 0.07136-0.0293 0.10698-0.0446 0.03348-0.0154 0.08243-0.0275 0.11641-0.0434 0.04392-0.0116 0.06808-0.0284 0.09817-0.0436 0.03885-0.0153 0.14863-0.0321 0.1799-0.0491 0.09584-5e-3 0.0067-0.0217 0.01736-0.0277 0.02125-0.0301 0.0703-0.0415 0.10544-0.0626 0.03186-0.0208 0.06415-0.0486 0.09666-0.0695 0.02963-0.0284 0.05548-0.0492 0.08649-0.0704 0.02483-0.0301 0.0608-0.0485 0.09252-0.0713 0.028-0.0267 0.07225-0.0449 0.10326-0.0682 0.03866-0.0212 0.05528-0.0448 0.084-0.0672 0.0285-0.0251 0.09625-0.0474 0.12711-0.0723 0.05806-0.0179 0.11976-0.032 0.14344-0.0515 0.08959-8e-3 0.03095-0.0337 0.04821-0.0483 0.02697-0.0308 0.05248-0.0575 0.08292-0.084 0.02239-0.0325 0.13235-0.0496 0.16343-0.0773 0.08834-0.0113 0.08618-0.0281 0.10435-0.0445 0.07219-0.0158 0.0811-0.0344 0.10336-0.055 0.06184-0.0172 0.13418-0.0442 0.15945-0.0684 0.10023-0.0128 0.02432-0.037 0.04115-0.0536 0.02234-0.0357 0.09313-0.056 0.12456-0.0879 0.05638-0.0202 0.05537-0.0546 0.08197-0.0824 0.03148-0.0307 0.12021-0.0605 0.14992-0.0921 0.08179-0.0203 0.05168-0.0447 0.07255-0.0673 0.0382-0.0307 0.12018-0.0541 0.14859-0.0854 0.08551-0.0164 0.02518-0.0602 0.04711-0.085 0.01107-0.0451 0.05273-0.0713 0.08332-0.10559 0.02199-0.0362 0.11652-0.0584 0.14747-0.0916 0.08041-0.0174 0.06116-0.0484 0.08512-0.074 0.04323-0.029 0.0566-0.0831 0.08694-0.11492 0.02591-0.0497 0.04764-0.0685 0.07801-0.098 0.02313-0.0411 0.06764-0.0745 0.10491-0.10593 0.03426-0.0399 0.07403-0.0583 0.11364-0.0866 0.0412-0.0281 0.13158-0.0523 0.17635-0.0801 0.08428-0.0173 0.05719-0.0482 0.08939-0.0702 0.03316-0.0341 0.06962-0.083 0.12136-0.11146 0.04381-0.0241 0.09266-0.0486 0.14691-0.0741 0.02951-0.0139 0.08428-0.0269 0.11356-0.0406 0.04777-0.01 0.04272-0.0219 0.06498-0.0323 0.0275-0.0147 0.10794-0.0175 0.13722-0.0312 0.06571 2e-3 0.02839-0.0396 0.04497-0.0473 0.02208-0.0366 0.0758-0.0199 0.10258-0.0323 0.04511-6e-3 0.11258-0.0157 0.13559-0.0264 0.0772 6.9e-4 0.06948-7.8e-4 0.08025-6e-3 0.0641 2e-3 0.02587-0.0176 0.04201-0.025 0.0231-0.0163 0.11331-0.0209 0.14271-0.0343 0.06808-4e-5 -0.0011-0.031 0.01272-0.0373 0.0048-0.0337 0.07615-0.0302 0.10954-0.0454 0.03449-0.0111 0.04643-0.0249 0.07178-0.0364 0.02444-0.0148 0.07147-0.0219 0.10021-0.0348 0.03833-7e-3 0.04996-0.0218 0.0744-0.0327 0.02856-0.0121 0.05186-0.0269 0.07937-0.0391 0.0252-0.015 0.07075-0.022 0.09916-0.0344 0.03825-8e-3 0.06363-0.0203 0.08802-0.0309 0.03875-9e-3 0.10283-0.0149 0.12675-0.0252 0.06829 1.2e-4 0.05326-0.01 0.06656-0.0154 0.04747-7e-3 0.03555-0.0219 0.05637-0.0307 0.02332-0.0165 0.03904-0.0364 0.06847-0.0488 0.01275-0.0251 0.0489-0.0387 0.08151-0.0522 0.01554-0.0245 0.07367-0.0252 0.10553-0.0383 0.03605-0.01 0.05162-0.0213 0.07766-0.0318 0.02865-0.0118 0.0506-0.0334 0.0797-0.0449 0.02271-0.022 0.04664-0.0314 0.07693-0.0433 0.01882-0.0203 0.11286-0.0178 0.14559-0.0303 0.06445 1e-3 0.02052-0.0194 0.03728-0.0257 0.02005-0.0191 0.07535-0.0242 0.10859-0.0365 0.03693-0.01 0.03494-0.0347 0.06279-0.0448 0.01465-0.0271 0.12875-0.0198 0.16424-0.0323 0.07276 4.5e-4 0.0041-0.0336 0.01863-0.0387 0.01156-0.0361 0.11083-0.0183 0.14753-0.0307 0.05927-3.1e-4 0.04348-0.0139 0.06482-0.021 0.03295-0.0103 0.04065-0.0473 0.07293-0.0577 0.0138-0.0382 0.07137-0.0263 0.10908-0.0381 0.03073-0.013 0.06699-0.0326 0.10144-0.043 0.03188-0.0214 0.07072-0.0196 0.10426-0.0294 0.03731-9e-3 0.0563-0.0233 0.08977-0.0327 0.02759-0.0147 0.05667-0.0292 0.09483-0.0396 0.02182-0.0191 0.09814-0.0191 0.13942-0.0298 0.04784-5e-3 0.06598-0.0151 0.09748-0.023 0.0392-8e-3 0.07031-0.0182 0.10643-0.0269 0.03645-9e-3 0.12764-0.0104 0.1658-0.0193 0.07433 3e-3 0.01462-0.0277 0.03678-0.0328 0.01696-0.0281 0.1074-0.0198 0.1548-0.0301 0.04891-6e-3 0.05804-0.0458 0.09336-0.0533 0.0298-0.0395 0.09618-0.0137 0.13856-0.0222 0.04947-4e-3 0.11548-0.0127 0.15292-0.0199 0.06974-3e-3 0.05339-0.0119 0.08189-0.0173 0.0398-9e-3 0.0807-0.0183 0.12441-0.0261 0.03884-0.0102 0.07033-0.0433 0.11558-0.051 0.02928-0.0357 0.09611-0.0165 0.14534-0.0244 0.04392-7e-3 0.097-0.0122 0.14253-0.0191 0.05027-5e-3 0.08742-0.0127 0.13118-0.019 0.0468-6e-3 0.11771-0.0106 0.16427-0.017 0.06458-3e-3 0.06212-0.0214 0.10124-0.0266 0.03689-0.0178 0.12037-0.0106 0.17368-0.0172 0.05921-2e-3 0.18714-0.0101 0.23155-0.0154 0.11662-1e-3 0.03114-5e-3 0.04829-7e-3 0.04835-7e-3 0.1052-0.0115 0.15726-0.0174 0.05277-5e-3 0.08963-0.0318 0.14104-0.0375 0.0434-0.0265 0.12704-8e-3 0.18358-0.0138 0.06387-8.9e-4 0.11193-7e-3 0.16099-0.0116 0.06439-2e-3 0.09383-0.0125 0.14403-0.0172 0.05139-8e-3 0.12887-8e-3 0.18684-0.0137 0.06616-2e-3 0.16779-3e-3 0.22013-7e-3 0.10098 3e-3 0.08396-4e-3 0.12058-8e-3 0.06597-3e-3 0.15206-9e-3 0.20747-0.0144 0.08789-4e-3 0.0831-0.0128 0.12912-0.017 0.05449-0.0103 0.19705-6e-3 0.26124-0.0114 0.1093 2e-3 0.07613-8e-3 0.11507-0.0118 0.06168-7e-3 0.16903-4e-3 0.2331-0.01 0.09272 4e-3 0.08682-0.0303 0.13761-0.0357 0.0533-0.0274 0.13725-0.0145 0.20875-0.0209 0.06413-6e-3 0.11494-0.0237 0.18436-0.0292 0.05197-0.0178 0.14674-8e-3 0.22466-0.0113 0.06984-2e-3 0.19953 3e-3 0.26981-1e-3 0.06831-4e-3 0.07407-0.0166 0.14706-0.0225l-0.04643-0.1288-0.01968-0.0949-0.0053-0.10327 0.05053-0.11102-0.0483-0.13642-0.01323-0.0937-0.03169-0.14736-0.02062-0.0738z"/>
     <path d="m86.84 181.06s-0.44855-0.79145 0.17124-1.799c0 0 0.40802 1.2665 1.3656 2.0136-3.3e-5 -1.2e-4 -1.126 0.73374-1.5368-0.2147z"/>
     <path d="m88.643 181.22 0.23674-1.7171s0.7929 1.232 1.2228 1.3933z"/>
    </g>
    <path d="m90.423 178.95 1.3258 1.5473-1.4569 0.43009z" stroke-width=".4"/>
    <g stroke-width=".4">
     <path d="m91.936 180.03s-0.22192-0.75538 0.11994-1.0557c0.34186-0.30029 0.4743-0.71428 0.4743-0.71428s0.86891 0.75169 0.85612 1.2173l-1.3891 0.53191"/>
     <path d="m84.662 177.11s0.14421 0.89805 1.2579 1.2978c0 0-0.47279-1.2438-0.19188-2.4251 3.2e-5 1.3e-4 -1.3377 0.12994-1.066 1.1272z"/>
     <path d="m86.139 175.77 1.2295 1.4395s0.09122-1.6318 0.35774-2.0057z"/>
     <path d="m90.776 174.64s0.23806 0.75059 0.68927 0.80879c0.45121 0.0582 0.79258 0.32775 0.79258 0.32775s0.30083-1.1087 0.03008-1.4879l-1.4495 0.33432"/>
    </g>
    <path d="m88.948 176.77 0.30668-1.8243-1.5731 0.49524z" stroke-width=".4"/>
    <path d="m90.527 176.31 0.30665-1.8244-1.573 0.49537z" stroke-width=".4"/>
   </g>
   <path d="m97.525 165.24c-0.17355 0.10894-0.39596 0.16348-0.55053 0.28992-0.19491 0.0724-0.19527 0.29292-0.33307 0.43871-0.03387 0.17725-0.31106 0.26796-0.44307 0.43011-0.14864 0.10473-0.26006 0.27381-0.36598 0.42999-0.12768 0.12171-0.19871 0.30775-0.28302 0.46351-0.08361 0.14838-0.12471 0.31912-0.19088 0.46178-0.06763 0.14582-0.19336 0.20308-0.24909 0.32704-0.10871-0.0341-0.13673 0.02-0.27716-5e-3 0.04654-0.40418 0.05129-0.75516 0.02844-1.0586-0.02246-0.30326-0.04268-0.54085-0.10497-0.75358-0.0351-0.20489-0.14377-0.3999-0.22341-0.53725-0.07115-0.1282-0.14378-0.22294-0.19806-0.28367-0.05229-0.0585-0.13224-0.21097-0.13224-0.21097 0 0-0.04481-0.0322-0.07432 0.0527-0.06448 0.0152-0.02127 0.24867-0.09155 0.45404-0.06384 0.18655-0.19947 0.41358-0.32363 0.66588-0.09781 0.19877-0.2072 0.40965-0.32291 0.60898-0.1112 0.20266-0.22417 0.39686-0.33015 0.56268-0.09661 0.17288-0.0387 0.31487-0.10857 0.41265-0.06987 0.0978-0.29688 1e-3 -0.29688 1e-3 -0.11451 0.0224-0.21352 0.0889-0.32944 0.15128-0.11592 0.0624-0.24324 0.12652-0.37306 0.16166-0.28508 0.0776-0.4489 0.21279-0.6886 0.31528-0.16231 0.15472-0.49741 0.21917-0.71238 0.35177-0.19983 0.10667-0.37802 0.243-0.5431 0.37814-0.1649 0.12604-0.32629 0.24498-0.46347 0.38794-0.15168 0.11559-0.28622 0.26375-0.40215 0.41337-0.13623 0.11903-0.22941 0.22706-0.32612 0.37658-0.11277 0.0874-0.20982 0.3106-0.29799 0.46944-0.08918 0.12697-0.15423 0.27506-0.22424 0.40665-0.07129 0.12324-0.1526 0.14495-0.21785 0.25609-0.09181 0.0187-0.03328 0.30035-0.1046 0.41999-0.05957 0.0999-0.20326 0.17133-0.27561 0.21827-0.11469 0.0744-0.20071 0.17774-0.34618 0.23747-0.1086 0.10031-0.22484 0.1303-0.4073 0.17861-0.0961 0.0639-0.44723 0.0287-0.67091 0.0667-0.21509-0.0369-0.32609 0.0786-0.51104 0.10648-0.16767 0.05-0.44219-0.0911-0.64866-0.0645-0.22795-0.12457-0.3775 0.0767-0.56263 0.12203-0.17529 0.0567-0.29448 0.0959-0.46703 0.13864-0.17448 0.0432-0.43956 0.0435-0.58958 0.0687-0.24779 0.0416-0.40268 0.16339-0.56727 0.2723-0.11335 0.14637-0.30881 0.21532-0.39994 0.35361-0.11114 0.11675-0.15311 0.28281-0.17056 0.42639-0.02453 0.1362-0.03907 0.15539 0.01588 0.26969 0.05376 0.11182 0.15502 0.27324 0.27 0.31882-0.03269 0.044-0.12053 0.0311-0.17114 0.15747-0.08928 0.0314-0.10965 0.2649-0.11869 0.49026-0.0076 0.19045 0.01369 0.3188 0.06383 0.50283 0.0538 0.19747 0.17359 0.29637 0.336 0.44016 0.16594 0.0777 0.38414 0.27826 0.6073 0.37768 0.21274 0.0968 0.57905 0.19705 0.78115 0.2425 0.31276 0.0702 0.35063 0.0644 0.44976 0.0625 0.15584-3e-3 0.16244-0.24768 0.1951-0.32412 0.02228-0.0521 0.06553-0.11339 0.1351-0.1697 0.06555-0.0631 0.19576-0.085 0.30714-0.14423 0.14086-0.0273 0.22583-0.12108 0.3654-0.17952 0.14149-0.0679 0.38866-0.0979 0.56614-0.15986 0.23626-0.0295 0.32785-0.10963 0.50498-0.16441 0.20116-0.0611 0.49386-0.1021 0.71266-0.16212 0.27977-0.0329 0.39545-0.11164 0.60165-0.16332 0.22912-0.0629 0.44209-0.165 0.68172-0.21886 0.21673-0.10526 0.53753-0.083 0.78447-0.13031 0.27406-0.0203 0.4693-0.0713 0.69318-0.10824 0.24749-0.0254 0.49243-0.0483 0.71579-0.0788 0.24821-5e-3 0.47868-0.0186 0.68169-0.0406 0.24553 0.0164 0.48526-4e-3 0.66054-0.0191 0.26112 0.0229 0.27256-0.1281 0.40212-0.13725 0.14452-0.11365 0.3486 0.0219 0.49229 0.0597 0.12284 0.0323 0.19672 0.0121 0.29501 0.0496 0.20624 0.12518 0.48933 0.26972 0.64002 0.39823 0.23222 0.12543 0.33688 0.26222 0.42648 0.37188 0.19033 0.15244 0.15774 0.14986 0.21184 0.25795 0.08751 0.10987 0.12192 0.33596 0.12987 0.51247-0.0038 0.14234 0.04515 0.32137-0.0036 0.47871 0.01477 0.15406-0.1222 0.28083-0.21216 0.42729-0.08955 0.11987-0.18665 0.1239-0.30157 0.25625-0.13223 3e-3 -0.26825 0.2996-0.43044 0.44527-0.1272 0.12519-0.24322 0.25964-0.39621 0.37726-0.12324 0.14192-0.3372 0.19456-0.51235 0.31196-0.18726 0.0712-0.37683 0.19601-0.56533 0.30942-0.2042 0.0744-0.27031 0.26757-0.46442 0.37483-0.10876 0.16484-0.44794 0.20538-0.67179 0.31551-0.21529 0.0718-0.42506 0.17056-0.63006 0.26319-0.22129 0.0665-0.40699 0.17907-0.60794 0.26398-0.20438 0.0845-0.39964 0.16818-0.59696 0.24544-0.19476 0.0785-0.36294 0.15711-0.55304 0.2246-0.16458 0.0757-0.43015 0.0368-0.61748 0.0925-0.21668-0.0433-0.34334 0.0667-0.49465 0.12951-0.15462 0.0641-0.18604 0.21878-0.32254 0.2428-0.36694 0.0724-0.54305-0.14452-0.62216-0.24478-0.07911-0.10025-0.06297-0.10396-0.06297-0.10396s-0.30153-0.0608-0.30627 0.327c-0.0042 0.33807 0.16084 0.67138 0.26069 0.91238 0.1924 0.25438 0.18313 0.35755 0.31172 0.50158 0.14198 0.15492 0.41803 0.35766 0.6017 0.46105 0.23446 0.13384 0.2955 0.13561 0.43096 0.17812 0.15917 0.0402 0.30323-0.0826 0.40888-0.0684 0.10302 0.0138 0.14394 0.11693 0.14394 0.11693-0.10122-0.10126-0.01353-0.19204 0.0069-0.29965 0.13804-0.0784 0.14632-0.15642 0.22758-0.25192 0.16636-0.0759 0.23197-0.20248 0.37427-0.31157 0.17269-0.10336 0.36577-0.22272 0.55134-0.33746 0.21823-0.0983 0.38672-0.20748 0.5677-0.31087 0.18136-0.1036 0.34439-0.2122 0.51701-0.28819 0.14089-0.062 0.38406-0.0773 0.53598-0.10448 0.22049 4e-3 0.34181-7e-3 0.46978-0.015 0.22912 0.0198 0.3775-0.01 0.51578-0.0112 0.25076 9e-5 0.43587 0.0201 0.58027 0.0166 0.29725 0.0184 0.33057 0.0194 0.47134 7.9e-4 0.22774 7e-3 0.39123-0.0577 0.59816-0.13738 0.17773-0.0684 0.34552-0.18576 0.58972-0.29559 0.10384-5e-3 0.20241-0.0449 0.30428-0.0545-0.02125 0.15951 0.0027 0.35638-0.01897 0.51723 0.0241 0.18881-0.03097 0.31481-0.05735 0.46514-0.01526 0.17028-0.08911 0.22571-0.12652 0.38147-0.07106 0.0852-0.0908 0.35354-0.14164 0.54179-0.04608 0.14721-0.08952 0.31464-0.14163 0.47055-0.05272 0.15776-0.13278 0.2595-0.20176 0.4003-0.09178 0.14589-0.18475 0.29251-0.27915 0.43928-0.09439 0.14677-0.17784 0.30379-0.2753 0.45028-0.08488 0.15629-0.21337 0.27073-0.31448 0.41523-0.11967 0.12564-0.17427 0.31968-0.28066 0.46429-0.0719 0.16925-0.17787 0.31275-0.28822 0.45043-0.07661 0.16873-0.16537 0.31603-0.28421 0.44704-0.06152 0.17774-0.2533 0.26186-0.38868 0.38474-0.13084 0.117-0.12664 0.25026-0.26367 0.36024-0.01095 0.13853-0.32076 0.24698-0.50961 0.35521-0.15713 0.09-0.34632 0.14298-0.47032 0.23516 0.13392 0.01 0.28964 8e-3 0.46554 3e-3 0.173-9e-3 0.36931-0.0181 0.57045-0.0364 0.199-0.0197 0.42083-0.0295 0.62678-0.06 0.21735-0.017 0.39815-0.0782 0.58678-0.12343 0.19211-0.0461 0.3733-0.1148 0.53758-0.16909-0.13051 0.15575-0.27574 0.23856-0.392 0.3913-0.14846 0.0935-0.23885 0.33117-0.35228 0.49368-0.09999 0.15254-0.21133 0.29327-0.3103 0.44073-0.10398 0.14063-0.21068 0.24939-0.3072 0.39281-0.11593 0.10629-0.21036 0.28501-0.31239 0.43119-0.10685 0.12662-0.08881 0.29292-0.19086 0.4283-0.0045 0.16385-0.23611 0.26608-0.36614 0.40619-0.12398 0.10333-0.18881 0.29709-0.32395 0.42078-0.07827 0.16618-0.31988 0.15568-0.48063 0.266-0.19383 0.0252-0.19797 0.2793-0.36543 0.40009-0.16857 0.12159-0.46036 0.19507-0.64915 0.29114 0.16288 0.028 0.32783 0.0484 0.49406 0.0608 0.1662 0.0122 0.34139 0.0182 0.50928 0.0133 0.1733-3e-3 0.33072-0.02 0.49599-0.0431 0.16747-0.0252 0.35392-0.0394 0.52024-0.0835 0.18173-0.0258 0.32782-0.0951 0.48647-0.16141 0.16553-0.065 0.3185-0.34272 0.47495-0.43584 0.14015-0.27973 0.28688-0.13899 0.42626-0.20115 0.16213-0.0723 0.28931-0.2042 0.44353-0.3573-0.0084 0.0736-0.01627 0.18842-0.05544 0.30784-0.02137 0.13367-0.03578 0.28707-0.09948 0.44036-0.0094 0.18733-0.15274 0.31261-0.23897 0.49545-0.09956 0.17286-0.19568 0.34804-0.30049 0.55485-0.11702 0.1739-0.23123 0.36817-0.34979 0.59227-0.13063 0.16496-0.26894 0.42908-0.39514 0.66274-0.14312 0.18903-0.17833 0.46115-0.29678 0.67968-0.05526 0.23249-0.22741 0.43186-0.34276 0.63347-0.1042 0.19992-0.19298 0.40925-0.29776 0.58184-0.07379 0.19654-0.08671 0.35703-0.18054 0.49183 0.01441 0.18176-0.25786 0.22726-0.36778 0.31761-0.0912 0.075-0.14719 0.16467-0.18461 0.20837 0.20571-0.0559 0.44116-0.1044 0.6513-0.15955 0.22934-0.0464 0.45277-0.088 0.65661-0.14154 0.24564-0.0341 0.53211-0.0945 0.72973-0.14842 0.30469-0.0359 0.42998-0.0524 0.59665-0.10086 0.27512-0.0123 0.40724-0.0806 0.5843-0.13795 0.23521-0.0344 0.46282-0.0852 0.64502-0.15392 0.25731-0.0235 0.3203-0.1738 0.4828-0.24785 0.15819-0.12097 0.44323-0.16153 0.60893-0.25448 0.23-0.0717 0.24987-0.25967 0.37749-0.35062 0.10166-0.18784 0.23871-0.23699 0.35474-0.33928 0.09499-0.14617 0.25314-0.21231 0.35185-0.32324 0.12198-0.11101 0.27596-0.2186 0.34706-0.34173 0.16342-0.11566 0.09796-0.27376 0.11793-0.41877 0.01874-0.13605 0.04491-0.2545 0.06142-0.41029 0.04091 0.31018 0.04475 0.44495 0.07967 0.69873 8e-3 0.16544 0.08009 0.58522 0.11167 0.83403 0.02493 0.2033 0.07172 0.41365 0.0871 0.58525 0.03855 0.18097 0.04541 0.32381 0.04684 0.45876 0.02452 0.15491-0.02895 0.22225-0.04346 0.33817-0.04006 0.095-0.02607 0.26634-0.05857 0.38907-0.01617 0.12377-0.07201 0.21611-0.12169 0.3231-0.05259 0.11325-0.07505 0.25681-0.14687 0.37554 0.1734-0.0538 0.41121-0.1153 0.57676-0.18674 0.21599-0.0623 0.26214-0.20468 0.40216-0.28158 0.12501-0.15527 0.31679-0.16801 0.46216-0.2663 0.15941-0.091 0.33028-0.17287 0.46724-0.28566 0.17824-0.0802 0.30168-0.22925 0.42686-0.35618 0.15649-0.1211 0.31896-0.21314 0.42917-0.3512 0.19174-0.0978 0.21091-0.32026 0.30536-0.47775 0.08458-0.17861 0.17068-0.36421 0.24714-0.525 0.0684-0.20739 0.13722-0.39445 0.19898-0.54623 0.0602-0.24438 0.11438-0.29629 0.16787-0.43387 0.0615-0.15822 0.16206-0.29489 0.21236-0.49145 0.0607 0.20173 0.13909 0.40393 0.19603 0.5856 0.0745 0.18829 0.10318 0.21268 0.15268 0.37549 0.0579 0.0744 0.14652 0.42716 0.19856 0.63463 0.0648 0.17062 0.0722 0.30685 0.10175 0.46349 0.0301 0.16024 0.0182 0.23242 0.0395 0.40123-0.0154 0.0872 0.0436 0.34011 0.0665 0.55898 0.0199 0.19091 0.0461 0.44544 0.0495 0.62439 0.10394-0.089 0.20132-0.19969 0.30077-0.31893 0.0944-0.12421 0.17574-0.27675 0.26888-0.4211 0.0715-0.16683 0.18295-0.29204 0.26743-0.45359 0.0899-0.1635 0.17649-0.33773 0.25416-0.52011 0.0853-0.1799 0.15784-0.37109 0.2249-0.56649 0.0744-0.19394 0.14165-0.3914 0.19619-0.59553 0.0681-0.20002 0.16794-0.36977 0.20789-0.57944 0.10736-0.17622 0.0694-0.49981 0.0889-0.72296 0.0139-0.24934 0.0217-0.38787 0.0226-0.57381-3e-3 -0.20904 3e-3 -0.39531-0.0141-0.58811-7e-3 -0.1882-0.0721-0.42457-0.11053-0.60928-0.0374-0.17958-0.059-0.31735-0.11146-0.48048 0.0914 0.11855 0.19807 0.2454 0.30144 0.36354 0.11001 0.12349 0.18967 0.18345 0.30119 0.29703 0.10657 0.0798 0.26498 0.25838 0.40211 0.38268 0.13238 0.11704 0.24987 0.22079 0.38155 0.32831 0.13503 0.1103 0.25504 0.18916 0.39887 0.29415 0.13254 0.082 0.30751 0.21779 0.46989 0.32326 0.15146 0.0977 0.32181 0.20763 0.48312 0.30013 0.16912 0.10221 0.31628 0.17421 0.47902 0.25413 0.16876 0.0822 0.37266 0.1644 0.54906 0.23627 0.17663 0.072 0.43628 0.14487 0.61961 0.20404-0.0923-0.13253-0.10096-0.25956-0.19419-0.40857-0.0174-0.14842-0.13071-0.28929-0.23393-0.46817-0.0299-0.13518-0.20178-0.36283-0.3072-0.55696-0.0851-0.16527-0.1911-0.40785-0.28303-0.58688-0.0865-0.2193-0.0531-0.28036-0.13196-0.44095 0.0113-0.1607-0.21656-0.53194-0.31533-0.73384-0.0857-0.26843-0.0811-0.23627-0.14537-0.36701-0.0363-0.14579-0.0649-0.3617-0.15009-0.53891 0.0373-0.16407-0.17305-0.32258-0.26543-0.48538-0.0818-0.14418-0.13472-0.29364-0.16162-0.42935 0.0871 0.0424 0.19289 0.0859 0.31251 0.12745 0.12038 0.0425 0.25097-0.0117 0.39744 0.0271 0.15053-0.0531 0.50036 0.0859 0.6774 0.12389 0.29617 0.0302 0.20892 5e-3 0.32994 0.0277 0.16926-7e-3 0.4512 0.10704 0.65709 0.13734 0.23384 0.0628 0.34773 0.0341 0.52874 0.052 0.19708 6e-3 0.41404 0.033 0.62259 0.0412 0.2039 6e-3 0.4327 0.0236 0.63625 0.0169 0.21812 8e-3 0.4012-0.0184 0.58935-0.0437 0.20289-0.022 0.51049-0.0601 0.68936-0.10743 0.17589-0.0466 0.18891-0.15621 0.35661-0.2225-0.151-0.0605-0.30357-0.13685-0.45243-0.22043-0.15002-0.0866-0.29724-0.21697-0.44125-0.31987-0.14096-0.13882-0.28522-0.24582-0.41807-0.35936-0.14297-0.15295-0.26499-0.25155-0.38978-0.37543-0.13524-0.14973-0.24056-0.26015-0.36182-0.39892-0.11344-0.14411-0.25648-0.30417-0.37434-0.46013-0.11872-0.15638-0.16964-0.30021-0.2721-0.45752-0.0553-0.16122-0.0997-0.30523-0.19694-0.47714 0.0114-0.14806-0.21224-0.39129-0.30971-0.5774-0.0846-0.17496-0.16661-0.3255-0.23233-0.47168-0.0814-0.17693-0.0125-0.26664-0.0554-0.4056-0.0469-0.15203-0.11063-0.30291-0.12589-0.4559 0.1634 0.14181 0.36646 0.2945 0.50161 0.39735 0.17396 0.12203 0.3541 0.18165 0.4549 0.24666 0.22068 0.0756 0.15167 0.0853 0.22478 0.12884 0.1063 0.0511 0.28206 0.17273 0.41895 0.23718 0.11655 0.0549 0.20588 0.0765 0.37441 0.13805-0.1047-0.13516-0.11582-0.26798-0.22351-0.41826-0.0231-0.1547-0.22527-0.33774-0.34766-0.51652-0.0958-0.16024-0.12304-0.2872-0.23409-0.45522-0.0242-0.14649-0.28066-0.4336-0.40605-0.62489-0.12693-0.20242-0.20393-0.30794-0.29599-0.45087-0.1128-0.17087-0.10761-0.2669-0.19826-0.41367-0.0174-0.13152-0.1963-0.32973-0.30036-0.49361-0.0682-0.12696-0.18393-0.37838-0.26136-0.50855-0.0759-0.12749-0.15178-0.19129-0.1918-0.29445 0.18984 0.15064 0.36102 0.23749 0.5228 0.3635 0.16844 0.0819 0.33023 0.2566 0.48234 0.36884 0.14381 0.10655 0.35652 0.22159 0.49327 0.30961 0.1974 0.0978 0.21677 0.12084 0.33054 0.18347 0.13061 0.0555 0.26742 0.0276 0.43563 0.0967 0.15623 0.0642 0.32809 0.12092 0.52206 0.16904-0.1386-0.15638-0.23153-0.30773-0.35959-0.4613-0.094-0.15706-0.2663-0.32475-0.39135-0.48253-0.12101-0.15359-0.15463-0.24582-0.26571-0.39189-0.0514-0.11912-0.26319-0.45952-0.38812-0.62778-0.0948-0.23849-0.13856-0.20633-0.22379-0.31893-0.0795-0.12506-0.12353-0.27046-0.23728-0.41667-0.0157-0.12629-0.17349-0.26358-0.30489-0.41818-0.0452-0.0959-0.26435-0.30336-0.39865-0.45233-0.11919-0.13412-0.13067-0.20752-0.23223-0.32382-0.11358-0.13007-0.35096-0.38104-0.44456-0.5058 0.10391 0.0196 0.24704 0.0609 0.38854 0.11195 0.15281 0.0525 0.28072 0.10245 0.42984 0.16881 0.14895 0.0604 0.3354 0.16737 0.48092 0.24242 0.14167 0.0731 0.25154 0.12432 0.35728 0.18455-0.10608-0.12578-0.2177-0.2679-0.32466-0.40196-0.1096-0.14283-0.18752-0.24955-0.29298-0.38728-0.0913-0.1318-0.20361-0.29357-0.31826-0.44799-0.0895-0.14638-0.1398-0.2774-0.25444-0.43462-0.0384-0.14214-0.20968-0.3368-0.33776-0.51331-0.0771-0.15488-0.24936-0.35017-0.37146-0.51728-0.12097-0.17237-0.25513-0.36272-0.36898-0.51635-0.13687-0.19964-0.23787-0.34187-0.3456-0.48438-0.13456-0.20076-0.20301-0.28236-0.31407-0.42535-0.11087-0.15771-0.25558-0.32608-0.38544-0.48684-0.1275-0.15777-0.26715-0.36337-0.39723-0.51716-0.13243-0.19318-0.26436-0.32171-0.3878-0.46018-0.14625-0.17805-0.17529-0.23989-0.30263-0.3742-0.0808-0.12747-0.33554-0.35896-0.49747-0.51485-0.15416-0.16243-0.2547-0.25112-0.39211-0.37245-0.13567-0.12984-0.3353-0.33322-0.49041-0.45621-0.16629-0.17866-0.17736-0.18005-0.31426-0.27677-0.0894-0.10046-0.40704-0.36703-0.59822-0.47937-0.17766-0.19981-0.21885-0.1217-0.36067-0.19012-0.1285-0.0565-0.38138-0.17095-0.58026-0.24377-0.17063-0.0614-0.38479-0.25116-0.56296-0.30143-0.20019-0.17763-0.33026-0.0862-0.49211-0.10444-0.1858-0.0323-0.36195-0.0829-0.54341-0.0869-0.18049-4e-3 -0.35431 0.0521-0.5422 0.0365 0.03339-0.29701 0.02241-0.60522 0.0059-0.88019-0.03171-0.28763-0.08113-0.56243-0.1296-0.80151-0.07615-0.2712-0.07782-0.43084-0.14065-0.62758-0.04376-0.20575-0.14297-0.41345-0.22092-0.58711-0.07082-0.16563-0.15498-0.31977-0.22301-0.43993-0.06805-0.11916-0.04156-0.16954-0.08275-0.23135-0.04142-0.0622-0.19512-0.22154-0.19512-0.22154z" fill-rule="evenodd" stroke-width=".4"/>
  </g>
  <g fill="none" stroke-linecap="round" stroke-linejoin="round" stroke-opacity=".7" stroke-width=".4">
   <path d="m92.678 168.13c0.92432-0.18086 1.6073-0.16685 2.0935-0.0804"/>
   <path d="m83.798 174.06s-0.54485 1.0118-1.1259 0.78145"/>
   <path d="m97.315 167.4s0.37233 1.3665-0.13965 2.4989"/>
   <path d="m94.745 169.22s0.11723-0.45653 0.39945-1.084"/>
   <path d="m94.593 181.02c1.711-0.70298 3.5728-1.6918 4.3133-3.83"/>
   <path d="m98.437 168.93c-0.0563 0.50189-0.19444 1.0309-0.45051 1.5707"/>
  </g>
  <g fill="#fff" stroke-opacity=".7">
   <g transform="matrix(.14856 0 0 .1485 55.215 141.45)" stroke-width="2.693">
    <g transform="translate(2,2)" stroke="#000" stroke-opacity=".7" stroke-width="2.693">
     <path d="m230.09 198.51c9.0967 8.5095 14.272-14.432 23.679-3.1888-5.7268 1.7503-8.5588 10.41-14.579 11.138-3.6243-0.56859-6.6673-4.6573-9.0995-7.9495z" color="#000000" fill="#fff" fill-rule="evenodd"/>
     <path d="m246.86 199.97c4e-5 1.7189-1.9658 3.1151-4.3998 3.1248-2.434 0.01-4.422-1.3708-4.4494-3.0896-0.0274-1.7188 1.9161-3.1305 4.3498-3.1596 2.4337-0.029 4.4436 1.3356 4.4983 3.0541l-4.4236 0.0703h4.4247z" fill="#000"/>
    </g>
   </g>
   <g stroke-linecap="round" stroke-linejoin="round">
    <g stroke-width=".4">
     <path transform="matrix(-1 0 0 1 293.62 0)" d="m95.726 176.65s-0.07184-0.0133-0.07422-0.0133c-0.02295-0.0114 0.07053 5e-3 0.07053 5e-3 0.0616 5e-3 -0.05155-9e-3 -0.09273-9e-3 -0.01934-9e-3 -0.02017-6e-3 -0.02272-6e-3 -0.0203-6e-3 -0.01157-4.8e-4 -0.01704-4.7e-4 -0.01248-4.7e-4 -0.0044 4e-3 -0.0174 4e-3 -1.65e-4 4e-3 -0.06239-0.0122-0.08516-0.012-0.03136-0.0124 0.01763 5e-3 0.0081 5e-3 0.0077 5e-3 -0.0587 8e-4 -0.09178 1e-3 -0.01966 3.9e-4 -0.02148 4e-3 -0.04309 5e-3 -0.0084 4e-3 -0.05396 1e-3 -0.08427 2e-3 -0.02184 8.9e-4 -0.04645 1e-3 -0.07262 2e-3 -0.02318 8.1e-4 -0.07957-0.0232-0.10781-0.0224-0.04502-0.0241-0.06038-0.0135-0.08052-0.0129-0.04368-0.014-0.01272 2e-3 -0.03606 3e-3 -0.0083 2e-3 -0.08132 4e-3 -0.12508 6e-3 -0.03099 2e-3 -0.06393 4e-3 -0.09846 5e-3 -0.03201 2e-3 -0.06441 5e-3 -0.10077 6e-3 -0.03136 3e-3 0.02827 6e-3 -0.01067 8e-3 0.03435 6e-3 -0.15427-0.0206-0.22902-0.016-0.04756-0.0263-0.06215 6e-3 -0.09817 8e-3 -0.03417 4e-3 -0.08217 7e-3 -0.12609 0.01-0.03876 4e-3 -0.02356 0.0148-0.06712 0.0181-2.46e-4 0.0133-0.12656 7e-3 -0.19116 0.0118-0.04468 4.7e-4 -0.08733 5e-3 -0.13176 9e-3 -0.04503 2e-3 -0.09788 2e-3 -0.14384 6e-3 -0.05135-2e-3 -0.10069 2e-3 -0.14537 6e-3 -0.05595-2e-3 -0.09211-7e-3 -0.13613-2e-3 -0.05228-0.0101-0.1014 7e-3 -0.14928 0.0115-0.05404 2e-3 -0.09675 9e-3 -0.14463 0.0143-0.0517 5e-3 -0.11194-0.01-0.16225-4e-3 -0.06038-0.0152-0.02934 0.0184-0.07787 0.0243-0.0063 0.0161-0.13151 0.0227-0.20636 0.0324-0.04185 0.012-0.0863 0.0225-0.14475 0.0304-0.03322 0.0158-0.06155 0.0195-0.12506 0.0284-0.01037 0.0128-0.17255 8e-3 -0.2486 0.0189-0.07109-6e-3 -0.07339 0.0179-0.12175 0.0252-0.03977 0.0132-0.14502-0.0108-0.20827-9.7e-4 -0.07102-0.0219-0.09539 0.0184-0.14687 0.0268-0.05165 0.0118-0.07072 0.0199-0.12981 0.03-0.02488 0.0128-0.16059 0.0179-0.23333 0.031-0.0691 2e-3 -0.07301 0.0266-0.12563 0.0364-0.03537 0.0201-0.1465 0.0206-0.21443 0.0336-0.06628 6e-3 -0.11343 0.0195-0.16812 0.0304-0.06139 0.01-0.14088-3e-3 -0.19794 9e-3 -0.07881-0.0148-0.12114 0.0108-0.17271 0.0221-0.07185 1e-3 -0.13023 3e-3 -0.18389 0.0161-0.07611-8e-3 -0.1164 0.0107-0.16951 0.0248-0.06676-3.6e-4 -0.12056 1e-3 -0.17737 0.0182-0.06572-0.0124-0.12264 0.024-0.18199 0.045-0.0607 7e-3 -0.11495 0.0441-0.17275 0.0674-0.05416 0.0235-0.01669 0.053-0.07276 0.0764 0.02422 0.0367-0.12175 0.0611-0.21339 0.0879-0.02529 0.0213-0.15142-9.8e-4 -0.22364 0.0151-0.06654 0.0148-0.12158 0.0643-0.16848 0.0776-0.0508 0.0144-0.0797 0.0349-0.12998 0.0498-0.03473 0.0226-0.11577 0.0325-0.1715 0.0498-0.05216 0.0139-0.04775 0.0357-0.09607 0.0513-0.01405 0.0257-0.12612 0.0417-0.18902 0.0629-0.04798 0.0167-0.04463 0.0374-0.09298 0.0543-0.01053 0.0263-0.1284 0.0437-0.19099 0.0664-0.04912 0.0162-0.11142 0.0243-0.15799 0.0417-0.06068 6e-3 -0.05693 0.0369-0.09958 0.0532-0.02562 0.0255-0.10018 0.0445-0.15415 0.0658-0.03973 0.0216-0.07827 0.0432-0.12617 0.0625-0.03216 0.0253-0.07068 0.0482-0.12053 0.0687-0.0231 0.0292-0.04239 0.0509-0.09472 0.0728 0.0012 0.0332-0.14401 0.0318-0.20519 0.058-0.06173-3e-3 -0.07486 0.037-0.11549 0.0546-0.03884 0.0217-0.10755 0.0291-0.15286 0.049-0.05672 7e-3 -0.01345 0.0388-0.05345 0.0565 0.0055 0.0307-0.05754 0.0635-0.11853 0.0908 0.0053 0.0358-0.11949 0.0407-0.17896 0.0675-0.04409 7e-3 -0.09499 0.0367-0.13889 0.0566-0.04752 0.0154-0.04271 0.0379-0.08313 0.0563-0.01392 0.025-0.10901 0.0445-0.1611 0.0682-0.0451 0.0156-0.08393 8e-3 -0.12442 0.0265-0.04674-9e-3 -0.08396 0.0409-0.1278 0.0608-0.03784 0.02-0.06179 0.042-0.10346 0.0608-0.02429 0.025-0.09984 0.0324-0.14577 0.0531-0.04695 8e-3 -0.09044 0.0279-0.12954 0.0454-0.0495 9e-3 -8e-3 0.0428-0.04536 0.0594 0.0096 0.0348-0.12272 0.0454-0.17977 0.0704-0.04604 0.0111-0.08698 0.028-0.12459 0.0444-0.04801 0.0108-0.07345 0.0313-0.10974 0.0469-0.03929 0.0163-0.07402 0.0332-0.11248 0.0495-0.03624 0.0168-0.05792 0.0345-0.09711 0.0509-0.02327 0.0196-0.11205 0.0175-0.15588 0.0356-0.05732-6e-3 -0.06772 0.016-0.10076 0.0294-0.03984 4e-3 -0.0075 0.0393-0.04565 0.0546 0.0129 0.0308-0.11602 0.0179-0.17228 0.0396-0.04229-0.0118-0.07898 0.0259-0.11786 0.0406-0.03783 0.01-0.07368 0.0275-0.1103 0.041-0.03651 0.0133-0.0047 0.0361-0.04078 0.0491 0.01263 0.0294-0.12013 0.035-0.17542 0.0539-0.04311 7e-3 -0.01666 0.0317-0.04995 0.0427 1.95e-4 0.0256-0.10645 0.0298-0.1565 0.0452-0.0403 8e-3 -0.07694-0.012-0.11052-2e-3 -0.04471-0.0222-0.09281 8e-3 -0.12761 0.018-0.05169-4e-3 0.01927 0.019-0.0091 0.0269 0.01886 0.0188-0.06782 0.0376-0.12578 0.0524-7.67e-4 0.0186-0.08527 0.0271-0.13415 0.0384-0.02571 0.0116-0.0524 0.0199-0.08992 0.0278-0.01822 0.0115-0.06853 0.0204-0.10936 0.0281-0.02466 0.0107-0.07183 0.0145-0.1093 0.0207-0.03136 6e-3 -0.0067 0.0161-0.04078 0.0211 0.0093 0.0128-0.04662 0.02-0.10039 0.0259 0.0078 0.0112-0.03727 0.0106-0.0906 0.0145 0.01335 4e-3 -0.01543 0.0111-0.07177 0.0132 0.03295 7e-3 -0.09918 0.01-0.16541 0.01-0.01506 6e-3 -0.0652 4e-3 -0.10627 3e-3 -0.02173 3e-3 -0.07833-4e-3 -0.11558-5e-3 -0.0351-3e-3 -0.0674-9e-3 -0.09738-0.0107-0.03669-8e-3 -0.03069 4e-3 -0.05936 2e-3 -0.01262 5e-3 -0.07452-3e-3 -0.11519-6e-3 -0.02656-6.4e-4 -0.08747-0.0242-0.12073-0.0278-0.04685-0.0212-0.05603-6e-3 -0.07841-6e-3 -0.03693-1.4e-4 -0.06526 3e-3 -0.09239-2e-3 -0.05783-0.0106-0.12756-0.0343-0.18107-0.0492-0.0619-0.0241-0.09393-0.0283-0.13838-0.0449-0.04942-0.0184-0.08895-0.0367-0.13434-0.0589-0.04004-0.0213-0.10435-0.0529-0.14792-0.08-0.04904-0.0281-0.05411-0.0438-0.08914-0.0704-0.02239-0.0274-0.06218-0.0615-0.10068-0.0981-0.01661-0.0304-0.036-0.0662-0.07-0.10605 0.0026-0.0335-0.07002-0.0862-0.10142-0.13166-0.02599-0.037 0.03804-0.071 0.01543-0.10979 0.05816-0.0465-0.04319-0.0987-0.06839-0.15189-0.0066-0.0385-0.04734-0.0885-0.06484-0.13198-0.02449-0.0428-0.03289-0.0797-0.04674-0.11985-0.01679-0.0427-0.02847-0.0845-0.04091-0.12721-0.01321-0.0436-0.01575-0.0843-0.02638-0.12828-0.0026-0.043-0.02426-0.0933-0.03331-0.13945-0.01186-0.0459-0.01965-0.0937-0.02656-0.13813-0.01-0.0487-0.02723-0.10165-0.03237-0.1453-0.01927-0.0548-0.0057-0.0807-9e-3 -0.12104-6.66e-4 -0.0455-0.01019-0.0928-0.01227-0.13811-0.0055-0.0462-0.0132-0.098-0.01364-0.14215-0.01033-0.0505-0.0065-0.086-0.0054-0.12705-0.0053-0.0458 0.0704-0.0828 0.07311-0.12481 0.07008-0.0391 0.0024-0.0891 0.0059-0.12997-5.8e-5 -0.0446 0.04276-0.0701 0.04679-0.10809 0.04015-0.0329-0.01376-0.0984-0.0092-0.13767-0.01878-0.0494 0.08421-0.0554 0.08862-0.0862 0.08153-0.0274 0.01257-0.0716 0.01656-0.1055 0.0069-0.0336 0.0074-0.0665 0.0107-0.0974 0.0032-0.0303 0.01106-0.0586 0.01417-0.0857 8e-3 -0.0264 0.0056-0.0522 9e-3 -0.0756 0.0028-0.0234 0.01833-0.0409 0.02258-0.0603 0.01598-0.0171 0.01036-0.0389 0.01506-0.0557 0.0065-0.0159 0.0072-0.0697 0.01392-0.0819 0.0071-0.0128 0.01923 0.0158 0.03228 9e-3 0 0-0.02089-9e-3 -0.02419-9e-3 -0.0192-0.01 0.01088 3e-3 0.01088 3e-3 0.0052 4e-3 0.01867 8e-3 0.0037 0.01 0.01833 9e-3 -0.04605 3e-3 -0.07319 7e-3 -0.01795-9.3e-4 -0.02828-4e-3 -0.0404-1e-3 -0.02003-5e-3 -0.03468-7e-3 -0.05028-4e-3 -0.02288-9e-3 -0.049 7.8e-4 -0.06766 5e-3 -0.03094-3e-3 6e-3 0.0112-0.01173 0.0158 0.0066 0.0116-0.06301 0.0191-0.10054 0.0304-0.02036 8e-3 -0.03332 0.0214-0.06086 0.0306-0.01179 0.0154 0.01244 0.028-0.02051 0.0402 0.02846 0.0237-0.11081 0.0289-0.16195 0.0504-0.04088 3e-3 -0.05341 0.021-0.08 0.0329-0.03166 0.0123-0.04356 0.029-0.07465 0.044-0.01864 0.0185-0.04256 0.0391-0.07954 0.0584-0.0097 0.0241 0.0058 0.0444-0.03483 0.0674 0.0325 0.0319-0.04925 0.0699-0.10454 0.10415 0.01201 0.0362-0.06549 0.0632-0.11268 0.0943-0.01313 0.0315-0.02827 0.0614-0.06872 0.0895 0.0064 0.0395-0.10694 0.0559-0.15305 0.0896-0.05052 0.0172-0.01511 0.0519-0.04913 0.078 0.0058 0.0378-0.11606 0.0546-0.16372 0.0932-0.05805 0.0109-0.08733 0.0505-0.12315 0.0812-0.05199 0.0229-0.05757 0.0628-0.09343 0.0958-0.02598 0.0372-0.02263 0.0771-0.06278 0.11685 0.01121 0.0481-0.09868 0.0914-0.14612 0.14138-0.04246 0.037-0.0684 0.0836-0.10623 0.12604-0.03148 0.0462-0.10006 0.0602-0.13871 0.10662-0.06199 0.0193-0.07988 0.0978-0.11816 0.14963-0.03804 0.0504-0.0584 0.10753-0.09381 0.16147-0.02151 0.0609-0.05875 0.11846-0.09419 0.17789-0.02129 0.0645-0.08688 0.11498-0.12173 0.1779-0.04995 0.056-0.05865 0.13015-0.08864 0.19669-0.02282 0.0719-0.06347 0.13962-0.09199 0.21162-0.02935 0.0741-0.03053 0.1556-0.05302 0.23264-0.0084 0.0288 0.02724 0.0584 0.02054 0.0883 0.03603 0.0323-0.03225 0.0505-0.03754 0.0837-0.02428 0.02-0.0024 0.0703-0.0058 0.10535 0.0044 0.0328 0.02022 0.0691 0.01872 0.10093 0.02411 0.0367 0.01819 0.0615 0.0181 0.0922 0.02027 0.033 0.0496 0.0734 0.05094 0.10606 0.05026 0.0381-0.0015 0.0532 7.13e-4 0.0827-0.0018 0.0298 0.0033 0.0593 0.0075 0.0947 0.0016 0.0265 0.0081 0.0568 0.01419 0.0946 0.0049 0.0219 0.0099 0.0786 0.01814 0.11897 0.0033 0.034 0.03979 0.0744 0.04852 0.11011 0.03235 0.0355 0.02844 0.0666 0.03741 0.0987 0.0215 0.0358 0.01625 0.0407 0.02674 0.0741 0.01055 0.0169 0.04447 0.0892 0.05994 0.13231 0.02822 0.0358 0.02356 0.0647 0.03639 0.0973 0.01352 0.0349 0.0041 0.0518 0.01941 0.0871-0.0057 0.0241 0.03318 0.0749 0.05395 0.11783 0.01344 0.0272 0.0398 0.0777 0.06019 0.11605 0.01986 0.0349 0.0343 0.0676 0.05395 0.10162 0.01729 0.034 0.0287 0.065 0.05043 0.0996 0.01066 0.032 0.04945 0.0742 0.0744 0.11063 0.02479 0.0335 0.05074 0.0664 0.0748 0.0989 0.02847 0.0326 0.05274 0.0641 0.07782 0.0954 0.02972 0.0318 0.05938 0.0635 0.08585 0.0942 0.03427 0.031 0.09375 0.0682 0.12081 0.0973 0.06229 0.0312 0.04007 0.0334 0.06149 0.0552 0.02965 0.021 0.06125 0.0628 0.09412 0.0937 0.02894 0.0286 0.06977 0.0602 0.10249 0.0885 0.03715 0.0284 0.04609 0.0457 0.07809 0.0713 0.02178 0.0231 0.07623 0.0596 0.1161 0.0882 0.03487 0.0253 0.07776 0.052 0.11486 0.076 0.04127 0.0246 0.06047 0.0359 0.09724 0.0573 0.03133 0.0155 0.09225 0.0497 0.13669 0.0725 0.04481 0.0209 0.0778 0.0386 0.11759 0.0566 0.04196 0.0189 0.07213 0.0311 0.11533 0.048 0.03511 0.0128 0.09463 0.0355 0.14405 0.0517 0.04432 0.0145 0.09864 0.0309 0.1456 0.0436 0.05171 0.0143 0.0884 0.0225 0.13375 0.0322 0.04772 0.0101 0.1163 0.0201 0.16607 0.0278 0.06376 8e-3 0.15799 0.0148 0.20165 0.0195 0.10429 6e-3 0.11501 9e-3 0.13948 0.0113 0.04622 4e-3 0.07877 0.0105 0.15283 9e-3 0.04416-7.6e-4 0.09311-7.7e-4 0.13613-3e-3 0.04661-5.6e-4 0.07932-0.0162 0.11956-0.0193 0.03979-0.015 0.15419 1e-3 0.19558-3e-3 0.08773 6e-3 0.02508-0.0293 0.04276-0.0314 0.0318-0.0305 0.11913-3e-3 0.16042-9e-3 0.06291 4e-3 0.13109-8e-3 0.15858-0.0127 0.08919-1e-3 0.03833-2e-3 0.05202-5e-3 0.04541-4e-3 0.08998-0.0124 0.1238-0.0199 0.05173-6e-3 0.06159-0.0136 0.09155-0.021 0.03735-9e-3 0.07127-0.0373 0.107-0.0474 0.03333-0.0285 0.18403-0.0191 0.21809-0.0299 0.11492 1e-3 -0.0152-9e-3 -0.01495-9e-3 0.02406-0.0213 0.11434-0.0186 0.15289-0.0324 0.06076-2e-3 0.04384-0.0213 0.06861-0.0308 0.03017-0.017 0.07136-0.0293 0.10698-0.0446 0.03348-0.0154 0.08243-0.0275 0.11641-0.0434 0.04392-0.0116 0.06808-0.0284 0.09817-0.0436 0.03885-0.0153 0.14863-0.0321 0.1799-0.0491 0.09584-5e-3 0.0067-0.0217 0.01736-0.0277 0.02125-0.0301 0.0703-0.0415 0.10544-0.0626 0.03186-0.0208 0.06415-0.0486 0.09666-0.0695 0.02963-0.0284 0.05548-0.0492 0.08649-0.0704 0.02483-0.0301 0.0608-0.0485 0.09252-0.0713 0.028-0.0267 0.07225-0.0449 0.10326-0.0682 0.03866-0.0212 0.05528-0.0448 0.084-0.0672 0.0285-0.0251 0.09625-0.0474 0.12711-0.0723 0.05806-0.0179 0.11976-0.032 0.14344-0.0515 0.08959-8e-3 0.03095-0.0337 0.04821-0.0483 0.02697-0.0308 0.05248-0.0575 0.08292-0.084 0.02239-0.0325 0.13235-0.0496 0.16343-0.0773 0.08834-0.0113 0.08618-0.0281 0.10435-0.0445 0.07219-0.0158 0.0811-0.0344 0.10336-0.055 0.06184-0.0172 0.13418-0.0442 0.15945-0.0684 0.10023-0.0128 0.02432-0.037 0.04115-0.0536 0.02234-0.0357 0.09313-0.056 0.12456-0.0879 0.05638-0.0202 0.05537-0.0546 0.08197-0.0824 0.03148-0.0307 0.12021-0.0605 0.14992-0.0921 0.08179-0.0203 0.05168-0.0447 0.07255-0.0673 0.0382-0.0307 0.12018-0.0541 0.14859-0.0854 0.08551-0.0164 0.02518-0.0602 0.04711-0.085 0.01107-0.0451 0.05273-0.0713 0.08332-0.10559 0.02199-0.0362 0.11652-0.0584 0.14747-0.0916 0.08041-0.0174 0.06116-0.0484 0.08512-0.074 0.04323-0.029 0.0566-0.0831 0.08694-0.11492 0.02591-0.0497 0.04764-0.0685 0.07801-0.098 0.02313-0.0411 0.06764-0.0745 0.10491-0.10593 0.03426-0.0399 0.07403-0.0583 0.11364-0.0866 0.0412-0.0281 0.13158-0.0523 0.17635-0.0801 0.08428-0.0173 0.05719-0.0482 0.08939-0.0702 0.03316-0.0341 0.06962-0.083 0.12136-0.11146 0.04381-0.0241 0.09266-0.0486 0.14691-0.0741 0.02951-0.0139 0.08428-0.0269 0.11356-0.0406 0.04777-0.01 0.04272-0.0219 0.06498-0.0323 0.0275-0.0147 0.10794-0.0175 0.13722-0.0312 0.06571 2e-3 0.02839-0.0396 0.04497-0.0473 0.02208-0.0366 0.0758-0.0199 0.10258-0.0323 0.04511-6e-3 0.11258-0.0157 0.13559-0.0264 0.0772 6.9e-4 0.06948-7.8e-4 0.08025-6e-3 0.0641 2e-3 0.02587-0.0176 0.04201-0.025 0.0231-0.0163 0.11331-0.0209 0.14271-0.0343 0.06808-4e-5 -0.0011-0.031 0.01272-0.0373 0.0048-0.0337 0.07615-0.0302 0.10954-0.0454 0.03449-0.0111 0.04643-0.0249 0.07178-0.0364 0.02444-0.0148 0.07147-0.0219 0.10021-0.0348 0.03833-7e-3 0.04996-0.0218 0.0744-0.0327 0.02856-0.0121 0.05186-0.0269 0.07937-0.0391 0.0252-0.015 0.07075-0.022 0.09916-0.0344 0.03825-8e-3 0.06363-0.0203 0.08802-0.0309 0.03875-9e-3 0.10283-0.0149 0.12675-0.0252 0.06829 1.2e-4 0.05326-0.01 0.06656-0.0154 0.04747-7e-3 0.03555-0.0219 0.05637-0.0307 0.02332-0.0165 0.03904-0.0364 0.06847-0.0488 0.01275-0.0251 0.0489-0.0387 0.08151-0.0522 0.01554-0.0245 0.07367-0.0252 0.10553-0.0383 0.03605-0.01 0.05162-0.0213 0.07766-0.0318 0.02865-0.0118 0.0506-0.0334 0.0797-0.0449 0.02271-0.022 0.04664-0.0314 0.07693-0.0433 0.01882-0.0203 0.11286-0.0178 0.14559-0.0303 0.06445 1e-3 0.02052-0.0194 0.03728-0.0257 0.02005-0.0191 0.07535-0.0242 0.10859-0.0365 0.03693-0.01 0.03494-0.0347 0.06279-0.0448 0.01465-0.0271 0.12875-0.0198 0.16424-0.0323 0.07276 4.5e-4 0.0041-0.0336 0.01863-0.0387 0.01156-0.0361 0.11083-0.0183 0.14753-0.0307 0.05927-3.1e-4 0.04348-0.0139 0.06482-0.021 0.03295-0.0103 0.04065-0.0473 0.07293-0.0577 0.0138-0.0382 0.07137-0.0263 0.10908-0.0381 0.03073-0.013 0.06699-0.0326 0.10144-0.043 0.03188-0.0214 0.07072-0.0196 0.10426-0.0294 0.03731-9e-3 0.0563-0.0233 0.08977-0.0327 0.02759-0.0147 0.05667-0.0292 0.09483-0.0396 0.02182-0.0191 0.09814-0.0191 0.13942-0.0298 0.04784-5e-3 0.06598-0.0151 0.09748-0.023 0.0392-8e-3 0.07031-0.0182 0.10643-0.0269 0.03645-9e-3 0.12764-0.0104 0.1658-0.0193 0.07433 3e-3 0.01462-0.0277 0.03678-0.0328 0.01696-0.0281 0.1074-0.0198 0.1548-0.0301 0.04891-6e-3 0.05804-0.0458 0.09336-0.0533 0.0298-0.0395 0.09618-0.0137 0.13856-0.0222 0.04947-4e-3 0.11548-0.0127 0.15292-0.0199 0.06974-3e-3 0.05339-0.0119 0.08189-0.0173 0.0398-9e-3 0.0807-0.0183 0.12441-0.0261 0.03884-0.0102 0.07033-0.0433 0.11558-0.051 0.02928-0.0357 0.09611-0.0165 0.14534-0.0244 0.04392-7e-3 0.097-0.0122 0.14253-0.0191 0.05027-5e-3 0.08742-0.0127 0.13118-0.019 0.0468-6e-3 0.11771-0.0106 0.16427-0.017 0.06458-3e-3 0.06212-0.0214 0.10124-0.0266 0.03689-0.0178 0.12037-0.0106 0.17368-0.0172 0.05921-2e-3 0.18714-0.0101 0.23155-0.0154 0.11662-1e-3 0.03114-5e-3 0.04829-7e-3 0.04835-7e-3 0.1052-0.0115 0.15726-0.0174 0.05277-5e-3 0.08963-0.0318 0.14104-0.0375 0.0434-0.0265 0.12704-8e-3 0.18358-0.0138 0.06387-8.9e-4 0.11193-7e-3 0.16099-0.0116 0.06439-2e-3 0.09383-0.0125 0.14403-0.0172 0.05139-8e-3 0.12887-8e-3 0.18684-0.0137 0.06616-2e-3 0.16779-3e-3 0.22013-7e-3 0.10098 3e-3 0.08396-4e-3 0.12058-8e-3 0.06597-3e-3 0.15206-9e-3 0.20747-0.0144 0.08789-4e-3 0.0831-0.0128 0.12912-0.017 0.05449-0.0103 0.19705-6e-3 0.26124-0.0114 0.1093 2e-3 0.07613-8e-3 0.11507-0.0118 0.06168-7e-3 0.16903-4e-3 0.2331-0.01 0.09272 4e-3 0.08682-0.0303 0.13761-0.0357 0.0533-0.0274 0.13725-0.0145 0.20875-0.0209 0.06413-6e-3 0.11494-0.0237 0.18436-0.0292 0.05197-0.0178 0.14674-8e-3 0.22466-0.0113 0.06984-2e-3 0.19953 3e-3 0.26981-1e-3 0.06831-4e-3 0.07407-0.0166 0.14706-0.0225l-0.04643-0.1288-0.01968-0.0949-0.0053-0.10327 0.05053-0.11102-0.0483-0.13642-0.01323-0.0937-0.03169-0.14736-0.02062-0.0738z"/>
     <path d="m206.78 181.06s0.44856-0.79145-0.17124-1.799c0 0-0.40802 1.2665-1.3656 2.0136 3e-5 -1.2e-4 1.126 0.73374 1.5368-0.2147z"/>
     <path d="m204.98 181.22-0.23673-1.7171s-0.7929 1.232-1.2228 1.3933z"/>
    </g>
    <path d="m203.2 178.95-1.3258 1.5473 1.4569 0.43009z" stroke-width=".4"/>
    <g stroke-width=".4">
     <path d="m201.69 180.03s0.22192-0.75538-0.11994-1.0557-0.4743-0.71428-0.4743-0.71428-0.86892 0.75169-0.85613 1.2173l1.3891 0.53191"/>
     <path d="m208.96 177.11s-0.14421 0.89805-1.2579 1.2978c0 0 0.47279-1.2438 0.19189-2.4251-4e-5 1.3e-4 1.3377 0.12994 1.066 1.1272z"/>
     <path d="m207.49 175.77-1.2295 1.4395s-0.0912-1.6318-0.35774-2.0057z"/>
     <path d="m202.85 174.64s-0.23806 0.75059-0.68927 0.80879-0.79257 0.32775-0.79257 0.32775-0.30084-1.1087-0.0301-1.4879l1.4495 0.33432"/>
    </g>
    <path d="m204.68 176.77-0.30669-1.8243 1.5731 0.49524z" stroke-width=".4"/>
    <path d="m203.1 176.31-0.30665-1.8244 1.573 0.49537z" stroke-width=".4"/>
   </g>
   <path transform="matrix(-1 0 0 1 293.62 0)" d="m97.525 165.24c-0.17355 0.10894-0.39596 0.16348-0.55053 0.28992-0.19491 0.0724-0.19527 0.29292-0.33307 0.43871-0.03387 0.17725-0.31106 0.26796-0.44307 0.43011-0.14864 0.10473-0.26006 0.27381-0.36598 0.42999-0.12768 0.12171-0.19871 0.30775-0.28302 0.46351-0.08361 0.14838-0.12471 0.31912-0.19088 0.46178-0.06763 0.14582-0.19336 0.20308-0.24909 0.32704-0.10871-0.0341-0.13673 0.02-0.27716-5e-3 0.04654-0.40418 0.05129-0.75516 0.02844-1.0586-0.02246-0.30326-0.04268-0.54085-0.10497-0.75358-0.0351-0.20489-0.14377-0.3999-0.22341-0.53725-0.07115-0.1282-0.14378-0.22294-0.19806-0.28367-0.05229-0.0585-0.13224-0.21097-0.13224-0.21097 0 0-0.04481-0.0322-0.07432 0.0527-0.06448 0.0152-0.02127 0.24867-0.09155 0.45404-0.06384 0.18655-0.19947 0.41358-0.32363 0.66588-0.09781 0.19877-0.2072 0.40965-0.32291 0.60898-0.1112 0.20266-0.22417 0.39686-0.33015 0.56268-0.09661 0.17288-0.0387 0.31487-0.10857 0.41265-0.06987 0.0978-0.29688 1e-3 -0.29688 1e-3 -0.11451 0.0224-0.21352 0.0889-0.32944 0.15128-0.11592 0.0624-0.24324 0.12652-0.37306 0.16166-0.28508 0.0776-0.4489 0.21279-0.6886 0.31528-0.16231 0.15472-0.49741 0.21917-0.71238 0.35177-0.19983 0.10667-0.37802 0.243-0.5431 0.37814-0.1649 0.12604-0.32629 0.24498-0.46347 0.38794-0.15168 0.11559-0.28622 0.26375-0.40215 0.41337-0.13623 0.11903-0.22941 0.22706-0.32612 0.37658-0.11277 0.0874-0.20982 0.3106-0.29799 0.46944-0.08918 0.12697-0.15423 0.27506-0.22424 0.40665-0.07129 0.12324-0.1526 0.14495-0.21785 0.25609-0.09181 0.0187-0.03328 0.30035-0.1046 0.41999-0.05957 0.0999-0.20326 0.17133-0.27561 0.21827-0.11469 0.0744-0.20071 0.17774-0.34618 0.23747-0.1086 0.10031-0.22484 0.1303-0.4073 0.17861-0.0961 0.0639-0.44723 0.0287-0.67091 0.0667-0.21509-0.0369-0.32609 0.0786-0.51104 0.10648-0.16767 0.05-0.44219-0.0911-0.64866-0.0645-0.22795-0.12457-0.3775 0.0767-0.56263 0.12203-0.17529 0.0567-0.29448 0.0959-0.46703 0.13864-0.17448 0.0432-0.43956 0.0435-0.58958 0.0687-0.24779 0.0416-0.40268 0.16339-0.56727 0.2723-0.11335 0.14637-0.30881 0.21532-0.39994 0.35361-0.11114 0.11675-0.15311 0.28281-0.17056 0.42639-0.02453 0.1362-0.03907 0.15539 0.01588 0.26969 0.05376 0.11182 0.15502 0.27324 0.27 0.31882-0.03269 0.044-0.12053 0.0311-0.17114 0.15747-0.08928 0.0314-0.10965 0.2649-0.11869 0.49026-0.0076 0.19045 0.01369 0.3188 0.06383 0.50283 0.0538 0.19747 0.17359 0.29637 0.336 0.44016 0.16594 0.0777 0.38414 0.27826 0.6073 0.37768 0.21274 0.0968 0.57905 0.19705 0.78115 0.2425 0.31276 0.0702 0.35063 0.0644 0.44976 0.0625 0.15584-3e-3 0.16244-0.24768 0.1951-0.32412 0.02228-0.0521 0.06553-0.11339 0.1351-0.1697 0.06555-0.0631 0.19576-0.085 0.30714-0.14423 0.14086-0.0273 0.22583-0.12108 0.3654-0.17952 0.14149-0.0679 0.38866-0.0979 0.56614-0.15986 0.23626-0.0295 0.32785-0.10963 0.50498-0.16441 0.20116-0.0611 0.49386-0.1021 0.71266-0.16212 0.27977-0.0329 0.39545-0.11164 0.60165-0.16332 0.22912-0.0629 0.44209-0.165 0.68172-0.21886 0.21673-0.10526 0.53753-0.083 0.78447-0.13031 0.27406-0.0203 0.4693-0.0713 0.69318-0.10824 0.24749-0.0254 0.49243-0.0483 0.71579-0.0788 0.24821-5e-3 0.47868-0.0186 0.68169-0.0406 0.24553 0.0164 0.48526-4e-3 0.66054-0.0191 0.26112 0.0229 0.27256-0.1281 0.40212-0.13725 0.14452-0.11365 0.3486 0.0219 0.49229 0.0597 0.12284 0.0323 0.19672 0.0121 0.29501 0.0496 0.20624 0.12518 0.48933 0.26972 0.64002 0.39823 0.23222 0.12543 0.33688 0.26222 0.42648 0.37188 0.19033 0.15244 0.15774 0.14986 0.21184 0.25795 0.08751 0.10987 0.12192 0.33596 0.12987 0.51247-0.0038 0.14234 0.04515 0.32137-0.0036 0.47871 0.01477 0.15406-0.1222 0.28083-0.21216 0.42729-0.08955 0.11987-0.18665 0.1239-0.30157 0.25625-0.13223 3e-3 -0.26825 0.2996-0.43044 0.44527-0.1272 0.12519-0.24322 0.25964-0.39621 0.37726-0.12324 0.14192-0.3372 0.19456-0.51235 0.31196-0.18726 0.0712-0.37683 0.19601-0.56533 0.30942-0.2042 0.0744-0.27031 0.26757-0.46442 0.37483-0.10876 0.16484-0.44794 0.20538-0.67179 0.31551-0.21529 0.0718-0.42506 0.17056-0.63006 0.26319-0.22129 0.0665-0.40699 0.17907-0.60794 0.26398-0.20438 0.0845-0.39964 0.16818-0.59696 0.24544-0.19476 0.0785-0.36294 0.15711-0.55304 0.2246-0.16458 0.0757-0.43015 0.0368-0.61748 0.0925-0.21668-0.0433-0.34334 0.0667-0.49465 0.12951-0.15462 0.0641-0.18604 0.21878-0.32254 0.2428-0.36694 0.0724-0.54305-0.14452-0.62216-0.24478-0.07911-0.10025-0.06297-0.10396-0.06297-0.10396s-0.30153-0.0608-0.30627 0.327c-0.0042 0.33807 0.16084 0.67138 0.26069 0.91238 0.1924 0.25438 0.18313 0.35755 0.31172 0.50158 0.14198 0.15492 0.41803 0.35766 0.6017 0.46105 0.23446 0.13384 0.2955 0.13561 0.43096 0.17812 0.15917 0.0402 0.30323-0.0826 0.40888-0.0684 0.10302 0.0138 0.14394 0.11693 0.14394 0.11693-0.10122-0.10126-0.01353-0.19204 0.0069-0.29965 0.13804-0.0784 0.14632-0.15642 0.22758-0.25192 0.16636-0.0759 0.23197-0.20248 0.37427-0.31157 0.17269-0.10336 0.36577-0.22272 0.55134-0.33746 0.21823-0.0983 0.38672-0.20748 0.5677-0.31087 0.18136-0.1036 0.34439-0.2122 0.51701-0.28819 0.14089-0.062 0.38406-0.0773 0.53598-0.10448 0.22049 4e-3 0.34181-7e-3 0.46978-0.015 0.22912 0.0198 0.3775-0.01 0.51578-0.0112 0.25076 9e-5 0.43587 0.0201 0.58027 0.0166 0.29725 0.0184 0.33057 0.0194 0.47134 7.9e-4 0.22774 7e-3 0.39123-0.0577 0.59816-0.13738 0.17773-0.0684 0.34552-0.18576 0.58972-0.29559 0.10384-5e-3 0.20241-0.0449 0.30428-0.0545-0.02125 0.15951 0.0027 0.35638-0.01897 0.51723 0.0241 0.18881-0.03097 0.31481-0.05735 0.46514-0.01526 0.17028-0.08911 0.22571-0.12652 0.38147-0.07106 0.0852-0.0908 0.35354-0.14164 0.54179-0.04608 0.14721-0.08952 0.31464-0.14163 0.47055-0.05272 0.15776-0.13278 0.2595-0.20176 0.4003-0.09178 0.14589-0.18475 0.29251-0.27915 0.43928-0.09439 0.14677-0.17784 0.30379-0.2753 0.45028-0.08488 0.15629-0.21337 0.27073-0.31448 0.41523-0.11967 0.12564-0.17427 0.31968-0.28066 0.46429-0.0719 0.16925-0.17787 0.31275-0.28822 0.45043-0.07661 0.16873-0.16537 0.31603-0.28421 0.44704-0.06152 0.17774-0.2533 0.26186-0.38868 0.38474-0.13084 0.117-0.12664 0.25026-0.26367 0.36024-0.01095 0.13853-0.32076 0.24698-0.50961 0.35521-0.15713 0.09-0.34632 0.14298-0.47032 0.23516 0.13392 0.01 0.28964 8e-3 0.46554 3e-3 0.173-9e-3 0.36931-0.0181 0.57045-0.0364 0.199-0.0197 0.42083-0.0295 0.62678-0.06 0.21735-0.017 0.39815-0.0782 0.58678-0.12343 0.19211-0.0461 0.3733-0.1148 0.53758-0.16909-0.13051 0.15575-0.27574 0.23856-0.392 0.3913-0.14846 0.0935-0.23885 0.33117-0.35228 0.49368-0.09999 0.15254-0.21133 0.29327-0.3103 0.44073-0.10398 0.14063-0.21068 0.24939-0.3072 0.39281-0.11593 0.10629-0.21036 0.28501-0.31239 0.43119-0.10685 0.12662-0.08881 0.29292-0.19086 0.4283-0.0045 0.16385-0.23611 0.26608-0.36614 0.40619-0.12398 0.10333-0.18881 0.29709-0.32395 0.42078-0.07827 0.16618-0.31988 0.15568-0.48063 0.266-0.19383 0.0252-0.19797 0.2793-0.36543 0.40009-0.16857 0.12159-0.46036 0.19507-0.64915 0.29114 0.16288 0.028 0.32783 0.0484 0.49406 0.0608 0.1662 0.0122 0.34139 0.0182 0.50928 0.0133 0.1733-3e-3 0.33072-0.02 0.49599-0.0431 0.16747-0.0252 0.35392-0.0394 0.52024-0.0835 0.18173-0.0258 0.32782-0.0951 0.48647-0.16141 0.16553-0.065 0.3185-0.34272 0.47495-0.43584 0.14015-0.27973 0.28688-0.13899 0.42626-0.20115 0.16213-0.0723 0.28931-0.2042 0.44353-0.3573-0.0084 0.0736-0.01627 0.18842-0.05544 0.30784-0.02137 0.13367-0.03578 0.28707-0.09948 0.44036-0.0094 0.18733-0.15274 0.31261-0.23897 0.49545-0.09956 0.17286-0.19568 0.34804-0.30049 0.55485-0.11702 0.1739-0.23123 0.36817-0.34979 0.59227-0.13063 0.16496-0.26894 0.42908-0.39514 0.66274-0.14312 0.18903-0.17833 0.46115-0.29678 0.67968-0.05526 0.23249-0.22741 0.43186-0.34276 0.63347-0.1042 0.19992-0.19298 0.40925-0.29776 0.58184-0.07379 0.19654-0.08671 0.35703-0.18054 0.49183 0.01441 0.18176-0.25786 0.22726-0.36778 0.31761-0.0912 0.075-0.14719 0.16467-0.18461 0.20837 0.20571-0.0559 0.44116-0.1044 0.6513-0.15955 0.22934-0.0464 0.45277-0.088 0.65661-0.14154 0.24564-0.0341 0.53211-0.0945 0.72973-0.14842 0.30469-0.0359 0.42998-0.0524 0.59665-0.10086 0.27512-0.0123 0.40724-0.0806 0.5843-0.13795 0.23521-0.0344 0.46282-0.0852 0.64502-0.15392 0.25731-0.0235 0.3203-0.1738 0.4828-0.24785 0.15819-0.12097 0.44323-0.16153 0.60893-0.25448 0.23-0.0717 0.24987-0.25967 0.37749-0.35062 0.10166-0.18784 0.23871-0.23699 0.35474-0.33928 0.09499-0.14617 0.25314-0.21231 0.35185-0.32324 0.12198-0.11101 0.27596-0.2186 0.34706-0.34173 0.16342-0.11566 0.09796-0.27376 0.11793-0.41877 0.01874-0.13605 0.04491-0.2545 0.06142-0.41029 0.04091 0.31018 0.04475 0.44495 0.07967 0.69873 8e-3 0.16544 0.08009 0.58522 0.11167 0.83403 0.02493 0.2033 0.07172 0.41365 0.0871 0.58525 0.03855 0.18097 0.04541 0.32381 0.04684 0.45876 0.02452 0.15491-0.02895 0.22225-0.04346 0.33817-0.04006 0.095-0.02607 0.26634-0.05857 0.38907-0.01617 0.12377-0.07201 0.21611-0.12169 0.3231-0.05259 0.11325-0.07505 0.25681-0.14687 0.37554 0.1734-0.0538 0.41121-0.1153 0.57676-0.18674 0.21599-0.0623 0.26214-0.20468 0.40216-0.28158 0.12501-0.15527 0.31679-0.16801 0.46216-0.2663 0.15941-0.091 0.33028-0.17287 0.46724-0.28566 0.17824-0.0802 0.30168-0.22925 0.42686-0.35618 0.15649-0.1211 0.31896-0.21314 0.42917-0.3512 0.19174-0.0978 0.21091-0.32026 0.30536-0.47775 0.08458-0.17861 0.17068-0.36421 0.24714-0.525 0.0684-0.20739 0.13722-0.39445 0.19898-0.54623 0.0602-0.24438 0.11438-0.29629 0.16787-0.43387 0.0615-0.15822 0.16206-0.29489 0.21236-0.49145 0.0607 0.20173 0.13909 0.40393 0.19603 0.5856 0.0745 0.18829 0.10318 0.21268 0.15268 0.37549 0.0579 0.0744 0.14652 0.42716 0.19856 0.63463 0.0648 0.17062 0.0722 0.30685 0.10175 0.46349 0.0301 0.16024 0.0182 0.23242 0.0395 0.40123-0.0154 0.0872 0.0436 0.34011 0.0665 0.55898 0.0199 0.19091 0.0461 0.44544 0.0495 0.62439 0.10394-0.089 0.20132-0.19969 0.30077-0.31893 0.0944-0.12421 0.17574-0.27675 0.26888-0.4211 0.0715-0.16683 0.18295-0.29204 0.26743-0.45359 0.0899-0.1635 0.17649-0.33773 0.25416-0.52011 0.0853-0.1799 0.15784-0.37109 0.2249-0.56649 0.0744-0.19394 0.14165-0.3914 0.19619-0.59553 0.0681-0.20002 0.16794-0.36977 0.20789-0.57944 0.10736-0.17622 0.0694-0.49981 0.0889-0.72296 0.0139-0.24934 0.0217-0.38787 0.0226-0.57381-3e-3 -0.20904 3e-3 -0.39531-0.0141-0.58811-7e-3 -0.1882-0.0721-0.42457-0.11053-0.60928-0.0374-0.17958-0.059-0.31735-0.11146-0.48048 0.0914 0.11855 0.19807 0.2454 0.30144 0.36354 0.11001 0.12349 0.18967 0.18345 0.30119 0.29703 0.10657 0.0798 0.26498 0.25838 0.40211 0.38268 0.13238 0.11704 0.24987 0.22079 0.38155 0.32831 0.13503 0.1103 0.25504 0.18916 0.39887 0.29415 0.13254 0.082 0.30751 0.21779 0.46989 0.32326 0.15146 0.0977 0.32181 0.20763 0.48312 0.30013 0.16912 0.10221 0.31628 0.17421 0.47902 0.25413 0.16876 0.0822 0.37266 0.1644 0.54906 0.23627 0.17663 0.072 0.43628 0.14487 0.61961 0.20404-0.0923-0.13253-0.10096-0.25956-0.19419-0.40857-0.0174-0.14842-0.13071-0.28929-0.23393-0.46817-0.0299-0.13518-0.20178-0.36283-0.3072-0.55696-0.0851-0.16527-0.1911-0.40785-0.28303-0.58688-0.0865-0.2193-0.0531-0.28036-0.13196-0.44095 0.0113-0.1607-0.21656-0.53194-0.31533-0.73384-0.0857-0.26843-0.0811-0.23627-0.14537-0.36701-0.0363-0.14579-0.0649-0.3617-0.15009-0.53891 0.0373-0.16407-0.17305-0.32258-0.26543-0.48538-0.0818-0.14418-0.13472-0.29364-0.16162-0.42935 0.0871 0.0424 0.19289 0.0859 0.31251 0.12745 0.12038 0.0425 0.25097-0.0117 0.39744 0.0271 0.15053-0.0531 0.50036 0.0859 0.6774 0.12389 0.29617 0.0302 0.20892 5e-3 0.32994 0.0277 0.16926-7e-3 0.4512 0.10704 0.65709 0.13734 0.23384 0.0628 0.34773 0.0341 0.52874 0.052 0.19708 6e-3 0.41404 0.033 0.62259 0.0412 0.2039 6e-3 0.4327 0.0236 0.63625 0.0169 0.21812 8e-3 0.4012-0.0184 0.58935-0.0437 0.20289-0.022 0.51049-0.0601 0.68936-0.10743 0.17589-0.0466 0.18891-0.15621 0.35661-0.2225-0.151-0.0605-0.30357-0.13685-0.45243-0.22043-0.15002-0.0866-0.29724-0.21697-0.44125-0.31987-0.14096-0.13882-0.28522-0.24582-0.41807-0.35936-0.14297-0.15295-0.26499-0.25155-0.38978-0.37543-0.13524-0.14973-0.24056-0.26015-0.36182-0.39892-0.11344-0.14411-0.25648-0.30417-0.37434-0.46013-0.11872-0.15638-0.16964-0.30021-0.2721-0.45752-0.0553-0.16122-0.0997-0.30523-0.19694-0.47714 0.0114-0.14806-0.21224-0.39129-0.30971-0.5774-0.0846-0.17496-0.16661-0.3255-0.23233-0.47168-0.0814-0.17693-0.0125-0.26664-0.0554-0.4056-0.0469-0.15203-0.11063-0.30291-0.12589-0.4559 0.1634 0.14181 0.36646 0.2945 0.50161 0.39735 0.17396 0.12203 0.3541 0.18165 0.4549 0.24666 0.22068 0.0756 0.15167 0.0853 0.22478 0.12884 0.1063 0.0511 0.28206 0.17273 0.41895 0.23718 0.11655 0.0549 0.20588 0.0765 0.37441 0.13805-0.1047-0.13516-0.11582-0.26798-0.22351-0.41826-0.0231-0.1547-0.22527-0.33774-0.34766-0.51652-0.0958-0.16024-0.12304-0.2872-0.23409-0.45522-0.0242-0.14649-0.28066-0.4336-0.40605-0.62489-0.12693-0.20242-0.20393-0.30794-0.29599-0.45087-0.1128-0.17087-0.10761-0.2669-0.19826-0.41367-0.0174-0.13152-0.1963-0.32973-0.30036-0.49361-0.0682-0.12696-0.18393-0.37838-0.26136-0.50855-0.0759-0.12749-0.15178-0.19129-0.1918-0.29445 0.18984 0.15064 0.36102 0.23749 0.5228 0.3635 0.16844 0.0819 0.33023 0.2566 0.48234 0.36884 0.14381 0.10655 0.35652 0.22159 0.49327 0.30961 0.1974 0.0978 0.21677 0.12084 0.33054 0.18347 0.13061 0.0555 0.26742 0.0276 0.43563 0.0967 0.15623 0.0642 0.32809 0.12092 0.52206 0.16904-0.1386-0.15638-0.23153-0.30773-0.35959-0.4613-0.094-0.15706-0.2663-0.32475-0.39135-0.48253-0.12101-0.15359-0.15463-0.24582-0.26571-0.39189-0.0514-0.11912-0.26319-0.45952-0.38812-0.62778-0.0948-0.23849-0.13856-0.20633-0.22379-0.31893-0.0795-0.12506-0.12353-0.27046-0.23728-0.41667-0.0157-0.12629-0.17349-0.26358-0.30489-0.41818-0.0452-0.0959-0.26435-0.30336-0.39865-0.45233-0.11919-0.13412-0.13067-0.20752-0.23223-0.32382-0.11358-0.13007-0.35096-0.38104-0.44456-0.5058 0.10391 0.0196 0.24704 0.0609 0.38854 0.11195 0.15281 0.0525 0.28072 0.10245 0.42984 0.16881 0.14895 0.0604 0.3354 0.16737 0.48092 0.24242 0.14167 0.0731 0.25154 0.12432 0.35728 0.18455-0.10608-0.12578-0.2177-0.2679-0.32466-0.40196-0.1096-0.14283-0.18752-0.24955-0.29298-0.38728-0.0913-0.1318-0.20361-0.29357-0.31826-0.44799-0.0895-0.14638-0.1398-0.2774-0.25444-0.43462-0.0384-0.14214-0.20968-0.3368-0.33776-0.51331-0.0771-0.15488-0.24936-0.35017-0.37146-0.51728-0.12097-0.17237-0.25513-0.36272-0.36898-0.51635-0.13687-0.19964-0.23787-0.34187-0.3456-0.48438-0.13456-0.20076-0.20301-0.28236-0.31407-0.42535-0.11087-0.15771-0.25558-0.32608-0.38544-0.48684-0.1275-0.15777-0.26715-0.36337-0.39723-0.51716-0.13243-0.19318-0.26436-0.32171-0.3878-0.46018-0.14625-0.17805-0.17529-0.23989-0.30263-0.3742-0.0808-0.12747-0.33554-0.35896-0.49747-0.51485-0.15416-0.16243-0.2547-0.25112-0.39211-0.37245-0.13567-0.12984-0.3353-0.33322-0.49041-0.45621-0.16629-0.17866-0.17736-0.18005-0.31426-0.27677-0.0894-0.10046-0.40704-0.36703-0.59822-0.47937-0.17766-0.19981-0.21885-0.1217-0.36067-0.19012-0.1285-0.0565-0.38138-0.17095-0.58026-0.24377-0.17063-0.0614-0.38479-0.25116-0.56296-0.30143-0.20019-0.17763-0.33026-0.0862-0.49211-0.10444-0.1858-0.0323-0.36195-0.0829-0.54341-0.0869-0.18049-4e-3 -0.35431 0.0521-0.5422 0.0365 0.03339-0.29701 0.02241-0.60522 0.0059-0.88019-0.03171-0.28763-0.08113-0.56243-0.1296-0.80151-0.07615-0.2712-0.07782-0.43084-0.14065-0.62758-0.04376-0.20575-0.14297-0.41345-0.22092-0.58711-0.07082-0.16563-0.15498-0.31977-0.22301-0.43993-0.06805-0.11916-0.04156-0.16954-0.08275-0.23135-0.04142-0.0622-0.19512-0.22154-0.19512-0.22154z" fill-rule="evenodd" stroke-width=".4"/>
  </g>
  <g fill="none" stroke-linecap="round" stroke-linejoin="round" stroke-opacity=".7" stroke-width=".4">
   <path d="m200.95 168.13c-0.92432-0.18086-1.6073-0.16685-2.0935-0.0804"/>
   <path d="m209.83 174.06s0.54485 1.0118 1.1259 0.78145"/>
   <path d="m196.31 167.4s-0.37233 1.3665 0.13966 2.4989"/>
   <path d="m198.88 169.22s-0.11724-0.45653-0.39945-1.084"/>
   <path d="m199.03 181.02c-1.711-0.70298-3.5728-1.6918-4.3133-3.83"/>
   <path d="m195.19 168.93c0.0563 0.50189 0.19444 1.0309 0.45051 1.5707"/>
  </g>
  <g transform="matrix(-.14856 0 0 .1485 238.41 141.45)" fill="#fff" stroke-opacity=".7" stroke-width="2.693">
   <g transform="translate(2,2)" stroke="#000" stroke-opacity=".7" stroke-width="2.693">
    <path d="m230.09 198.51c9.0967 8.5095 14.272-14.432 23.679-3.1888-5.7268 1.7503-8.5588 10.41-14.579 11.138-3.6243-0.56859-6.6673-4.6573-9.0995-7.9495z" color="#000000" fill="#fff" fill-rule="evenodd"/>
    <path d="m246.86 199.97c4e-5 1.7189-1.9658 3.1151-4.3998 3.1248-2.434 0.01-4.422-1.3708-4.4494-3.0896-0.0274-1.7188 1.9161-3.1305 4.3498-3.1596 2.4337-0.029 4.4436 1.3356 4.4983 3.0541l-4.4236 0.0703h4.4247z" fill="#000"/>
   </g>
  </g>
  <path d="m96.576 134.44c1.2475 3.4766-6.1195 20.231-12.028 27.596-5.0137 6.2499-10.242 11.356-17.669 14.579" fill="none" stroke-miterlimit="4.3" stroke-width=".4"/>
  <path d="m198.48 136.21c-1.2475 3.4766 6.1195 20.231 12.028 27.596 5.0137 6.2499 10.242 11.356 17.669 14.579" fill="none" stroke-miterlimit="4.3" stroke-width=".4"/>
 </g>
 <metadata>
  <rdf:RDF>
   <cc:Work rdf:about="">
    <dc:description>Wolf heads from https://commons.wikimedia.org/wiki/File:Blason_ville_fr_Guignen_%28Ille-et-Vilaine%29.svg by Zozoens

Table top clocks are mine, by jhutar</dc:description>
   </cc:Work>
  </rdf:RDF>
 </metadata>
</svg>
