<?xml version="1.0" encoding="UTF-8" standalone="no"?>
<!-- Created with Inkscape (http://www.inkscape.org/) -->

<svg
   width="63mm"
   height="88mm"
   viewBox="0 0 63 88"
   version="1.1"
   id="svg1"
   inkscape:version="1.4.2 (ebf0e940d0, 2025-05-08)"
   sodipodi:docname="skill.svg"
   xmlns:inkscape="http://www.inkscape.org/namespaces/inkscape"
   xmlns:sodipodi="http://sodipodi.sourceforge.net/DTD/sodipodi-0.dtd"
   xmlns="http://www.w3.org/2000/svg"
   xmlns:svg="http://www.w3.org/2000/svg">
  <sodipodi:namedview
     id="namedview2"
     pagecolor="#ffffff"
     bordercolor="#000000"
     borderopacity="0.25"
     inkscape:showpageshadow="2"
     inkscape:pageopacity="0.0"
     inkscape:pagecheckerboard="0"
     inkscape:deskcolor="#d1d1d1"
     inkscape:document-units="mm"
     inkscape:zoom="7.8492201"
     inkscape:cx="195.36973"
     inkscape:cy="49.304262"
     inkscape:window-width="1871"
     inkscape:window-height="1072"
     inkscape:window-x="0"
     inkscape:window-y="27"
     inkscape:window-maximized="0"
     inkscape:current-layer="texts" />
  <g
     inkscape:label="background"
     inkscape:groupmode="layer"
     id="layer1">
    <path
       id="rect7"
       style="fill:#808080;fill-opacity:1;stroke:#000000;stroke-width:0;stroke-linecap:round;stroke-linejoin:round;stroke-dasharray:none"
       d="M -2.7502197 -2.7502197 L -2.7502197 90.750016 L 65.749992 90.750016 L 65.749992 -2.7502197 L -2.7502197 -2.7502197 z M 16.082739 0.8314738 C 16.92765 0.82206153 17.822137 1.0129776 18.786967 1.5296224 C 24.788594 5.4199136 31.157582 -1.6060054 37.165173 2.8530558 C 42.759782 -0.61368329 47.170318 4.2706775 52.516174 1.2335164 C 56.120473 4.2597345 61.139017 -1.5406816 61.324939 4.3795776 C 58.241434 9.3565104 62.986908 14.085155 61.093945 19.124931 C 58.843848 23.681798 60.359685 28.695772 61.94919 32.990751 C 62.129037 38.387648 56.858452 42.96149 60.664514 48.486963 C 62.603704 53.81754 58.305076 58.647183 61.138904 64.071541 C 64.229115 68.64713 59.633722 72.37641 60.325517 76.73175 C 65.677766 84.299942 56.901917 89.357678 50.890951 86.080534 C 45.712341 82.881412 40.583976 88.583128 35.195268 86.82054 C 29.801622 84.127914 24.009161 86.667552 18.212325 86.740442 C 13.120238 87.532101 10.72075 82.06929 3.8509277 86.285689 C -3.1272133 82.118843 4.4174727 74.542346 2.146639 69.250553 C -0.95068821 64.444315 2.8793404 59.99048 3.2525146 55.393518 C 2.8277868 51.054604 0.1907645 46.828138 1.8619019 42.478027 C 6.551186 37.388098 -0.91276766 33.67344 1.1580688 28.956372 C 6.1032035 24.855875 -0.27472138 20.327511 1.3983643 15.106055 C 5.3050906 8.905347 -2.7340541 -2.6683025 6.205306 1.9864421 C 9.6911762 4.6703634 12.421459 0.87226026 16.082739 0.8314738 z "
       inkscape:label="border" />
  </g>
  <g
     inkscape:groupmode="layer"
     id="texts"
     inkscape:label="texts">
    <text
       xml:space="preserve"
       id="text7"
       style="font-size:10px;font-family:'TeX Gyre Chorus';fill:#000000"
       inkscape:label="heading">{% for row in entity.name | split_string(10) %}<tspan
   x="5"
   y="{{ 7 + loop.index * 8 }}"
   id="tspan1">{{ row }}</tspan>{% endfor %}</text>
    <text
       xml:space="preserve"
       id="text9"
       style="font-size:4px;font-family:'TeX Gyre Bonum';fill:#000000"
       inkscape:label="description2">{% for row in entity.description | split_string(25) %}<tspan
   x="5"
   y="{{ 30 + loop.index * 5 }}"
   id="tspan2">{{ row }}</tspan>{% endfor %}</text>
    <text
       xml:space="preserve"
       id="text10"
       x="5"
       y="80"
       style="font-size:3px;font-family:'TeX Gyre Bonum';text-align:start"
       inkscape:label="requires">Vyžaduje: {{ entity.requires | join(', ') }}</text>
  </g>
  <g
     inkscape:groupmode="layer"
     id="bonus"
     style="display:{% if entity.bonus == 'Bonus:zvirata' %}inline{% else %}none{% endif %}"
     inkscape:label="bonus-zvirata">
    <path
       style="fill:#bfbfbf;fill-opacity:1;stroke:#404040;stroke-width:0.5;stroke-linecap:round;stroke-linejoin:round;stroke-dasharray:none;stroke-opacity:1"
       d="m 52.584439,9.2457742 c -0.904114,0.577153 -1.950761,1.2361498 -2.191857,2.3339078 -0.234324,1.031956 0.393812,2.141904 1.400434,2.536718 0.707995,0.315377 1.531081,0.245207 2.233438,-0.04612 1.835214,-0.475073 3.690824,0.576858 5.527463,0.108304 1.347393,-0.396815 2.115078,-2.524901 1.374922,-3.710971 C 60.618912,9.9415013 59.994751,9.7760035 59.463906,9.5446979 58.596475,9.1263782 58.2713,8.2625976 57.92031,7.4528045 57.594967,6.6465622 56.871738,6.2684137 55.955712,6.1341137 55.205518,5.9786793 53.958789,6.4431558 53.836295,7.1297682 c -0.204669,1.1472239 -0.208022,1.433924 -1.251856,2.116006 z"
       id="path10"
       sodipodi:nodetypes="cccccccccsc" />
    <path
       style="fill:#bfbfbf;fill-opacity:1;stroke:#404040;stroke-width:0.5;stroke-linecap:round;stroke-linejoin:round;stroke-dasharray:none;stroke-opacity:1"
       d="m 53.362381,6.4401146 c 1.19595,0.460217 2.189025,-0.751686 2.121623,-1.880129 0.02114,-1.142052 0.132163,-2.499498 -0.928683,-3.248764 -0.938751,-0.49958804 -4.53776,3.788764 -1.19294,5.128893 z"
       id="path11"
       sodipodi:nodetypes="cccc" />
    <path
       style="fill:#bfbfbf;fill-opacity:1;stroke:#404040;stroke-width:0.5;stroke-linecap:round;stroke-linejoin:round;stroke-dasharray:none;stroke-opacity:1"
       d="m 56.341419,6.0755196 c -0.70861,-1.237155 -0.77408,-4.31205 0.331876,-4.842281 1.458166,-0.30413604 3.309194,2.487531 2.166526,4.01339 -0.474411,0.829732 -1.579884,1.265395 -2.498402,0.828891 z"
       id="path12"
       sodipodi:nodetypes="cccc" />
    <path
       style="fill:#bfbfbf;fill-opacity:1;stroke:#404040;stroke-width:0.5;stroke-linecap:round;stroke-linejoin:round;stroke-dasharray:none;stroke-opacity:1"
       d="m 60.595002,4.4063144 c -1.250181,0.503615 -2.267694,1.708861 -2.325605,3.086168 -0.04089,0.608402 0.392485,1.180831 0.967886,1.356227 0.501656,0.181044 1.077223,0.03366 1.456446,-0.333293 0.97211,-0.884215 1.331832,-2.443188 0.689323,-3.618782 -0.148814,-0.284429 -0.452251,-0.524835 -0.78805,-0.49032 z"
       id="path13" />
    <path
       style="fill:#bfbfbf;fill-opacity:1;stroke:#404040;stroke-width:0.5;stroke-linecap:round;stroke-linejoin:round;stroke-dasharray:none;stroke-opacity:1"
       d="m 52.663422,6.3532871 c -0.593909,-1.488782 -2.931291,-2.092545 -3.163605,0.179953 -0.417601,1.913502 1.034068,3.350601 2.458627,2.989222 1.285637,-0.250115 1.276771,-2.150672 0.704978,-3.169175 z"
       id="path14" />
    <path
       style="fill:none;stroke:#404040;stroke-width:0.499999;stroke-linecap:round;stroke-linejoin:round;stroke-opacity:1"
       d="m 52.771397,10.892741 c 0.768045,0.02163 1.517525,0.07151 2.28819,0.07151"
       id="path2" />
    <path
       style="fill:none;stroke:#404040;stroke-width:0.499999;stroke-linecap:round;stroke-linejoin:round;stroke-opacity:1"
       d="m 53.963162,9.9869989 c -0.01683,0.6447351 -0.06591,1.2829831 -0.190683,1.9068251"
       id="path3" />
    <path
       style="fill:none;stroke:#404040;stroke-width:0.499999;stroke-linecap:round;stroke-linejoin:round;stroke-opacity:1"
       d="m 55.774648,9.7486456 c 0.26952,-0.4653185 0.694904,-0.7955836 1.024919,-1.2156012 0.03035,-0.038629 0.02687,-0.1348949 0.07151,-0.1906825 0.185489,-0.2318626 0.182605,-0.6754649 0.262189,-0.5958832 0.05456,0.054564 -0.06947,0.7621069 -0.07151,0.7865657 -0.124407,1.4928676 -0.548214,2.9763926 -0.548214,4.4810396"
       id="path4" />
  </g>
  <g
     inkscape:groupmode="layer"
     id="layer2"
     style="display:{% if entity.bonus == 'Bonus:alchymie' %}inline{% else %}none{% endif %}"
     inkscape:label="bonus-alchymie">
    <path
       style="fill:#7f7f7f;fill-opacity:1;stroke:#404040;stroke-width:1.05653;stroke-linecap:round;stroke-linejoin:round;stroke-dasharray:none;stroke-opacity:1"
       d="m 52.871951,79.116874 c 0.07249,0.246935 -0.04128,-0.341132 0.05851,0.07641 0.116211,0.486238 0.284141,0.948946 0.413864,1.42976 0.154274,0.571808 0.16175,1.168653 0.418123,1.720773 0.404904,0.871997 0.312118,1.882644 0.719374,2.749805 0.195899,0.417124 -0.07592,0.78834 0.511763,1.055593 0.568829,0.258678 1.222317,0.213218 1.837704,0.08656 0.514336,-0.10586 1.211735,-0.0751 1.335772,-0.820345 0.09239,-0.555116 0.161568,-1.128745 0.356108,-1.661444 0.213017,-0.583294 0.562628,-1.115337 0.685821,-1.726306 0.08617,-0.427383 0.276439,-0.818253 0.435613,-1.226824 0.247336,-0.634863 0.844835,-1.323843 0.585275,-1.971971 -0.211886,-0.529083 -0.900294,-0.586676 -1.38884,-0.605815 -0.604047,-0.02366 -1.198599,-0.170172 -1.806619,-0.194341 -1.049793,-0.04173 -2.139777,-0.04775 -3.139353,0.302021 -0.404268,0.14146 -1.552222,0.631471 -0.841074,1.000182 0.539667,0.279802 1.176997,0.316143 1.768445,0.289824 0.534088,-0.02377 1.064577,0.08058 1.602793,0.05961 0.606779,-0.02364 1.204271,0.08394 1.825523,-0.05265 0.606527,-0.133351 1.590934,0.22352 1.835803,-0.35758 0.0042,-0.01005 0.153735,-0.106927 0.06559,-0.113022"
       id="path12-7"
       inkscape:path-effect="#path-effect13"
       inkscape:original-d="m 52.871951,79.116874 c 0.126625,0.407839 -0.156167,-0.569066 0.100555,0.20111 0.06032,0.180956 0.08506,0.385088 0.120669,0.56311 0.02297,0.114816 0.08091,0.262221 0.140777,0.361998 0.05534,0.09224 0.128574,0.474075 0.160888,0.603332 0.09519,0.380769 0.07162,0.772334 0.22122,1.146331 0.09446,0.236154 0.202055,0.465386 0.281557,0.703887 0.16528,0.495837 0.236172,1.014822 0.321775,1.528439 0.0521,0.312627 0.181205,0.62406 0.281557,0.925108 0.06571,0.197141 0.08044,0.48419 0.08044,0.683776 0,0.06046 -0.03201,0.116991 0,0.180999 0.07155,0.143102 0.253301,0.01196 0.321775,0.08044 0.03679,0.03678 0.137295,0.0732 0.20111,0.100555 0.438433,0.187899 0.955622,0.22284 1.447996,0.140776 0.06697,-0.01116 0.11762,-0.0646 0.181001,-0.08044 0.258472,-0.06462 0.543108,-0.04027 0.784331,-0.160887 0.06161,-0.0308 0.157006,0.0013 0.221221,-0.02011 0.108199,-0.03607 0.276714,-0.110984 0.321775,-0.201109 0.13157,-0.263137 0.08511,-0.450308 0.14078,-0.784331 0.0093,-0.05587 0.04963,-0.1074 0.06033,-0.160888 0.05313,-0.265666 0.08971,-0.529029 0.140777,-0.784331 0.03362,-0.168114 0.194352,-0.618884 0.281553,-0.76422 0.06665,-0.111088 0.03251,-0.28004 0.100555,-0.382111 0.157922,-0.236879 0.211096,-0.532823 0.362001,-0.784331 0.06084,-0.101407 0.07203,-0.268012 0.100555,-0.382111 0.03866,-0.154654 0.137437,-0.293875 0.201109,-0.442442 0.06802,-0.158707 0.09793,-0.345376 0.160888,-0.502777 0.156176,-0.390437 0.872697,-1.902629 0.542999,-2.232326 -0.32168,-0.321681 -0.740071,-0.344567 -1.206661,-0.422331 -0.136329,-0.02273 -0.286811,0.007 -0.422333,-0.02011 -1.328203,-0.265642 -3.094752,-0.287171 -4.404321,0.04022 -0.140829,0.03521 -1.04359,0.400036 -1.126217,0.482663 -0.08575,0.08575 -0.167526,0.241536 -0.120669,0.382111 0.153774,0.46132 1.32656,0.460233 1.709442,0.502775 0.210187,0.02336 0.435186,-0.03473 0.643554,0 0.434271,0.07238 0.927615,0.06034 1.367549,0.06034 0.08189,0 0.220326,-0.06078 0.301667,-0.02011 0.221335,0.11067 0.54129,0.06723 0.784331,0.04023 0.611804,-0.06798 1.217956,-0.173318 1.830104,-0.241335 0.09937,-0.01103 0.488757,-0.106645 0.542999,-0.160887 0.01365,-0.01365 0.196522,-0.140777 0.100555,-0.140777"
       transform="matrix(0.47304579,0,0,0.47344339,28.916734,-36.314724)" />
    <path
       style="fill:none;stroke:#404040;stroke-width:0.499999;stroke-linecap:round;stroke-linejoin:round;stroke-opacity:1"
       d="m 54.298612,3.2183125 c -0.918948,-0.271268 -0.595094,-1.62147 0.395317,-1.128704 1.001211,0.128726 2.12845,-0.407374 3.023084,0.225196 0.383032,0.710911 -1.273584,0.725218 -1.012549,1.659526 -0.160409,0.954052 -0.06452,2.040748 1.029317,2.375795 0.728339,0.437389 1.605762,0.754265 2.129035,1.444839 0.452587,1.001172 1.008529,2.121709 0.604914,3.2347785 -0.329568,0.912808 -0.758095,1.867157 -1.522163,2.494526 -1.665985,1.178391 -3.815788,0.834941 -5.727067,0.752756 -0.928996,-0.07834 -1.871079,-0.584295 -2.356005,-1.396497 -0.579031,-1.230896 -0.381848,-2.667243 -0.236998,-3.9755475 0.224996,-1.04423 0.922405,-1.983975 1.789049,-2.58742 0.830844,-0.302286 2.165625,-0.460522 2.123615,-1.631494 0.008,-0.499782 -0.132412,-0.984255 -0.239549,-1.467754 z"
       id="path1" />
    <path
       style="fill:#bfbfbf;fill-opacity:1;stroke:#404040;stroke-width:0.499999;stroke-linecap:round;stroke-linejoin:round;stroke-opacity:1"
       d="m 60.091707,8.1237725 c 0.113038,0.396344 0.660193,2.2005935 0.409164,2.8928715 -0.329568,0.912807 -0.758096,1.867155 -1.522164,2.494525 -1.665985,1.178391 -3.815787,0.834941 -5.727067,0.752756 -0.928995,-0.07834 -1.871079,-0.584296 -2.356004,-1.396497 -0.579031,-1.230896 -0.381848,-2.667242 -0.236998,-3.9755445 0.04617,-0.112163 2.979597,-2.192864 4.838862,-0.789199 1.830684,1.382085 4.564141,-0.08433 4.594207,0.02109 z"
       id="path1-3"
       sodipodi:nodetypes="scccccss" />
    <path
       style="fill:none;fill-opacity:1;stroke:#404040;stroke-width:0.5;stroke-linecap:round;stroke-linejoin:round;stroke-dasharray:none;stroke-opacity:1"
       d="m 52.631671,11.181434 c 0.625998,-0.130864 1.534989,0.06883 2.068413,0.06883"
       id="path28-0" />
    <path
       style="fill:none;fill-opacity:1;stroke:#404040;stroke-width:0.5;stroke-linecap:round;stroke-linejoin:round;stroke-dasharray:none;stroke-opacity:1"
       d="m 53.858695,10.080124 c -0.334636,0.651698 -0.12709,1.488502 -0.455755,2.133786"
       id="path29-6" />
    <path
       style="fill:none;fill-opacity:1;stroke:#404040;stroke-width:0.5;stroke-linecap:round;stroke-linejoin:round;stroke-dasharray:none;stroke-opacity:1"
       d="m 55.085727,10.527533 c 0.142482,-0.0027 0.210719,-0.07336 0.315513,-0.137664 0.452887,-0.277869 0.974318,-0.371407 1.367266,-0.7571525 0.04785,-0.04699 0.19245,-0.275326 0.2454,-0.275326 0.221729,0 -0.14806,0.410586 -0.210345,0.619487 -0.247964,0.8316935 -0.421327,1.7061175 -0.631044,2.5467785 -0.05613,0.224876 -0.153098,0.564543 -0.175289,0.825988 -0.01177,0.139074 -0.07008,0.552551 -0.07008,0.412985 0,-0.09537 -8.56e-4,-0.067 0.03504,-0.137663"
       id="path30-3" />
  </g>
  <g
     inkscape:groupmode="layer"
     id="layer3"
     style="display:{% if entity.bonus == 'Bonus:leceni' %}inline{% else %}none{% endif %}"
     inkscape:label="bonus-leceni">
    <path
       style="fill:none;stroke:#404040;stroke-width:0.919048;stroke-linecap:round;stroke-linejoin:round;stroke-opacity:1"
       d="m 80.488937,82.878008 c 0.227635,1.684726 1.664857,4.708299 0,5.062556 -1.591861,0.338725 -3.851487,-0.797005 -4.838483,0.536156 -0.686757,0.92762 -0.342213,2.476442 -0.154816,3.623463 0.165127,1.010705 -0.343436,3.639951 0.160568,3.300964 1.124145,-0.756087 2.599129,-0.437909 3.758328,-0.02021 0.581024,0.209362 1.208629,-0.19903 1.202917,0.771062 -0.0092,1.567786 -1.694006,4.782132 -0.128512,4.700912 1.838514,-0.0954 3.863359,-0.918284 5.517616,1e-5 0.826268,0.45867 1.902147,0.0474 2.025277,-0.97263 0.133918,-1.109443 0.504221,-2.364702 -0.01128,-3.364176 -0.468282,-0.907928 0.08967,-0.765859 0.995819,-1.046585 1.14906,-0.355979 2.891163,0.296656 3.520748,-0.756025 0.426691,-0.713436 -0.20299,-1.791013 -0.170399,-2.747871 0.04295,-1.260884 -0.258882,-2.565874 0.06665,-3.78551 0.371454,-1.391679 -1.197957,-0.865678 -1.939729,-0.528949 -0.892751,0.405266 -2.088536,0.817591 -2.809042,0.224491 -0.808969,-0.66592 0.01603,-1.888949 -0.234236,-2.749546 -0.242355,-0.833384 0.359442,-2.340662 -0.493037,-2.456298 -0.898784,-0.121918 -1.900556,0.142522 -2.900074,0.08158 -1.188289,-0.07245 -2.400247,-0.1674 -3.56832,0.126607 z"
       id="path5"
       inkscape:path-effect="#path-effect6"
       inkscape:original-d="m 80.488937,82.878008 c 0.226093,1.672503 -0.257027,3.462122 0,5.062556 -1.603594,0.333406 -4.285092,-0.126941 -5.119437,0.749048 -0.07562,2.275105 0.355107,4.547637 0.170647,6.816342 1.185059,-1.197804 4.101166,0.204055 5.075668,-0.02602 0.02146,1.744993 -0.104303,3.91475 -0.126876,5.372976 1.844024,-0.0961 3.701468,0.55267 5.517616,1e-5 2.519556,0.92982 2.063262,-1.938797 2.161542,-3.526716 -0.08462,-0.971373 -0.877492,-2.644269 0.739474,-1.820249 1.124505,-0.405978 3.434847,-0.237737 3.876948,-1.056157 -0.867209,-2.024302 -0.06961,-4.088041 -0.368837,-6.15424 0.42547,-2.543667 -2.245751,0.143583 -3.621877,-0.411875 -2.844072,0.608788 -0.485637,-2.43299 -1.74053,-3.882507 -0.01789,-1.144104 0.262936,-1.784731 -1.120129,-1.239717 -1.85149,0.145898 -3.578403,-0.34212 -5.444209,0.116553 z"
       transform="matrix(0.54326977,0,0,0.54481292,9.948552,-41.810194)" />
    <path
       style="fill:#bfbfbf;fill-opacity:1;stroke:#404040;stroke-width:0.919048;stroke-linecap:round;stroke-linejoin:round;stroke-opacity:1"
       d="m 80.631143,96.032118 c -0.844473,0.07425 -1.546063,0.708225 -1.931705,1.433574 -0.234461,0.440996 -0.327729,1.078633 0.09845,1.444233 0.354921,0.304472 0.843889,0.225122 1.267182,0.324013 1.101299,0.25729 1.841899,1.394472 1.837357,2.495462 -0.0022,0.54528 -1.21881,1.58924 -0.694742,1.41869 0.559259,-0.18201 0.936596,-0.69797 1.202312,-1.19455 0.353584,-0.6608 0.573013,-1.59414 0.034,-2.194658 -0.495335,-0.551854 -1.236224,-0.818585 -1.761165,-1.332791 -0.147007,-0.144001 -0.785223,-0.682533 -0.435599,-0.621448 0.243199,0.04249 0.273047,-0.05401 0.287609,-0.279715 0.0321,-0.497603 0.06421,-0.995207 0.09631,-1.49281 z"
       id="path6"
       inkscape:path-effect="#path-effect7"
       inkscape:original-d="m 80.631143,96.032118 c -1.707427,0.105527 -3.301101,3.045471 -0.951968,3.157395 1.883755,0.02296 3.040158,2.818487 1.528507,3.958577 0.924613,-0.22036 2.41329,-2.66299 0.882412,-3.720073 -0.49374,-0.501371 -2.859501,-1.715777 -1.572716,-1.632516 z"
       sodipodi:nodetypes="cccccc"
       transform="matrix(0.54326977,0,0,0.54481292,9.948552,-41.810194)" />
    <path
       style="fill:#bfbfbf;fill-opacity:1;stroke:#404040;stroke-width:0.91905;stroke-linecap:round;stroke-linejoin:round;stroke-dasharray:none;stroke-opacity:1"
       d="m 92.448513,92.690264 c 0.780362,-0.08365 1.523177,-0.59624 1.75925,-1.366624 0.345353,-1.126998 0.0476,-2.353036 -0.456611,-3.37849 -0.2933,-0.596503 -0.54659,-1.403892 -1.194456,-1.592281 -1.076702,-0.313088 -1.994486,-0.974102 -2.935183,-1.558983 -0.706231,-0.4391 -2.428214,-1.456821 -2.368475,-0.629837 0.06825,0.944848 -0.443766,2.200799 0.269822,2.830637 0.298226,0.263225 0.884176,0.207096 1.279268,0.480328 1.094083,0.75663 2.360339,1.24944 3.370828,2.134321 0.298604,0.261486 0.428366,0.711142 0.166854,1.078801 -0.09737,0.136896 -0.02483,0.339087 -0.01155,0.504384 0.04009,0.499248 0.08017,0.998496 0.120257,1.497744 z"
       id="path7"
       inkscape:path-effect="#path-effect8"
       inkscape:original-d="m 92.448513,92.690264 c 3.313599,-0.491322 1.599728,-5.295442 0.108183,-6.337395 -2.481731,-0.785912 -2.864675,-2.204692 -5.303658,-2.18882 0.01589,0.489389 0.370258,2.390726 0.260904,2.880613 0.540385,0.199089 0.760102,0.08534 1.222978,0.383957 1.36166,0.986799 4.640966,2.164054 3.555166,3.313413 z"
       transform="matrix(0.54326977,0,0,0.54481292,9.886746,-41.810194)"
       sodipodi:nodetypes="ccccccc" />
    <path
       style="fill:#bfbfbf;fill-opacity:1;stroke:#404040;stroke-width:0.919048;stroke-linecap:round;stroke-linejoin:round;stroke-opacity:1"
       d="m 81.000881,86.234085 c -1.272081,-0.323969 -2.496879,-1.192929 -2.908667,-2.494237 -0.29626,-0.936223 0.07383,-1.989167 0.827033,-2.612541 0.452122,-0.374189 1.105993,-0.39825 1.569691,-0.752134 1.268559,-0.968139 3.016187,-1.766329 4.532835,-1.158987 0.339591,0.135989 1.157311,0.384501 0.861917,0.802623 -0.32272,0.456801 -0.884494,0.651076 -1.38178,0.854034 -0.180029,0.07348 -0.441519,0.08631 -0.102454,0.150811 0.402423,0.07655 1.278727,0.05583 1.152823,0.466529 -0.124425,0.405876 -0.778182,0.278323 -1.130284,0.307828 -1.125483,0.09431 -2.286995,0.294861 -3.270386,0.865887 -0.321606,0.186747 -0.755338,0.528595 -0.548906,0.953581"
       id="path9"
       inkscape:path-effect="#path-effect10"
       inkscape:original-d="m 81.000881,86.234085 c -3.668367,-0.975597 -4.156017,-4.948828 -0.511943,-5.858912 1.307003,-0.985386 2.935774,-1.530481 4.532835,-1.158987 1.974122,0.664032 0.237219,1.35269 -0.835463,1.784694 1.143294,0.08554 2.243458,0.772233 0.36531,0.792111 -1.328502,0.03115 -4.446745,0.783607 -3.948917,1.824488"
       sodipodi:nodetypes="cccccc"
       transform="matrix(0.54326977,0,0,0.54481292,9.948552,-41.810194)" />
    <path
       style="fill:none;stroke:#404040;stroke-width:0.919048;stroke-linecap:round;stroke-linejoin:round;stroke-opacity:1"
       d="m 84.897341,80.759129 c 0.872025,-0.08645 1.76639,0.05219 2.622861,-0.168149 0.149043,-0.03834 0.561518,-0.244987 0.431607,-0.161976 -0.214394,0.136993 -0.470023,0.193627 -0.683256,0.329872 -0.18203,0.116308 0.04109,0.293538 0.140289,0.3788 0.09084,0.07808 0.354802,0.259594 0.314065,0.235843 -0.522144,-0.304427 -1.140885,-0.344696 -1.727907,-0.410728 -0.369558,-0.04157 -0.744863,-0.07906 -1.097659,-0.203662 z"
       id="path10-6"
       inkscape:path-effect="#path-effect11"
       inkscape:original-d="m 84.897341,80.759129 c 0.885646,-0.09863 2.26444,0.09115 3.054468,-0.330125 -0.665352,0.397474 -1.205372,0.262433 -0.210334,0.955838 -0.788728,-0.488149 -2.028849,-0.331585 -2.844134,-0.625713 z"
       sodipodi:nodetypes="cccc"
       transform="matrix(0.54326977,0,0,0.54481292,9.948552,-41.810194)" />
    <path
       style="fill:none;stroke:#404040;stroke-width:0.919048;stroke-linecap:round;stroke-linejoin:round;stroke-opacity:1"
       d="m 83.78813,80.033876 c -0.20386,-0.04398 -0.400554,0.05705 -0.578792,0.14294 -0.108111,0.05209 -0.215253,0.10888 -0.33133,0.141473"
       id="path11-0"
       inkscape:path-effect="#path-effect12"
       inkscape:original-d="m 83.78813,80.033876 c -0.295161,-0.07015 -0.634353,0.209351 -0.910122,0.284413"
       sodipodi:nodetypes="cc"
       transform="matrix(0.54326977,0,0,0.54481292,9.948552,-41.810194)" />
    <path
       style="fill:none;fill-opacity:1;stroke:#404040;stroke-width:0.499998;stroke-linecap:round;stroke-linejoin:round;stroke-dasharray:none;stroke-opacity:1"
       d="m 52.545086,8.0933175 c 0.614466,-0.131159 1.506713,0.06899 2.030311,0.06899"
       id="path28-78" />
    <path
       style="fill:none;fill-opacity:1;stroke:#404040;stroke-width:0.499998;stroke-linecap:round;stroke-linejoin:round;stroke-dasharray:none;stroke-opacity:1"
       d="m 53.749507,6.9895125 c -0.328473,0.653174 -0.124749,1.491872 -0.44736,2.138621"
       id="path29-4" />
    <path
       style="fill:none;fill-opacity:1;stroke:#404040;stroke-width:0.499998;stroke-linecap:round;stroke-linejoin:round;stroke-dasharray:none;stroke-opacity:1"
       d="m 54.953936,7.4379335 c 0.139857,-0.0027 0.206838,-0.07353 0.309701,-0.137975 0.444545,-0.278499 0.956371,-0.372247 1.342079,-0.758867 0.04697,-0.0471 0.188906,-0.275951 0.240881,-0.275951 0.217643,0 -0.145332,0.411516 -0.206471,0.62089 -0.243396,0.833578 -0.413565,1.709983 -0.61942,2.552549 -0.0551,0.225385 -0.150277,0.5658235 -0.17206,0.8278535 -0.01155,0.139395 -0.06879,0.553807 -0.06879,0.413927 0,-0.09559 -8.56e-4,-0.06716 0.0344,-0.137975"
       id="path30-5" />
  </g>
  <g
     inkscape:groupmode="layer"
     id="layer4"
     style="display:{% if entity.bonus == 'Bonus:magie-ohne' %}inline{% else %}none{% endif %}"
     inkscape:label="bonus-magie-ohne">
    <path
       style="fill:#c0c0c0;fill-opacity:1;stroke:#404040;stroke-width:0.919048;stroke-linecap:round;stroke-linejoin:round;stroke-dasharray:none;stroke-opacity:1"
       d="m 110.27603,78.214489 c -1.51269,0.99323 -2.55844,2.626264 -2.95757,4.450038 -0.48849,2.232051 1.82316,8.280187 0.10846,6.798216 -1.8536,-1.602014 -2.4393,-8.727581 -3.034,-6.430087 -0.61462,2.374475 2.28631,7.763295 -0.0909,7.287866 -1.39416,-0.278823 -2.06226,-1.649512 -2.40588,-2.907597 -0.1767,-0.646974 -0.1632,-1.231191 -0.42927,-0.243664 -0.42569,1.57988 -1.23504,3.026896 -1.53716,4.651961 -0.330991,1.780328 -0.626564,3.700042 -0.06339,5.422961 0.808818,2.474398 2.396708,4.959767 4.806398,5.991557 2.06186,0.88286 4.42338,0.9139 6.53876,0.41301 2.14434,-0.50775 4.73574,-1.03089 5.89632,-3.03779 1.80022,-3.112977 1.62589,-7.32039 -0.65655,-10.179668 -0.82527,-1.033834 -0.95323,-2.367205 -1.39435,-3.616163 -0.29904,-0.846676 0.44006,-2.999096 0.0357,-2.824979 -1.69666,0.730532 -3.25988,2.257182 -3.27771,4.147503 -0.0153,1.62404 -0.54657,-0.528104 -0.72079,-1.119036 -0.45535,-1.544412 -0.71716,-3.127759 -0.79132,-4.745819 -0.0619,-1.351289 -0.12838,-2.707299 -0.0267,-4.058309 z"
       id="path13-1"
       inkscape:path-effect="#path-effect14"
       inkscape:original-d="m 110.27603,78.214489 c -1.29891,0.770168 -2.95534,2.751852 -2.90751,4.282606 -0.55899,1.731108 -0.31164,5.254278 0.0584,6.965648 -1.74754,-1.366049 -2.73737,-4.438001 -3.034,-6.430087 -0.57731,1.707939 -0.37969,5.382976 -0.0909,7.287866 -2.17779,-0.591162 -2.1451,-2.51349 -2.73139,-3.847301 -0.085,1.476526 -1.13262,3.015133 -1.41694,4.450932 -0.553138,1.850536 -0.615443,4.147203 -0.356428,6.091666 0.707238,2.443725 2.360368,4.642261 4.482908,6.028001 2.07237,1.11236 4.49552,0.76919 6.73081,0.65036 2.13254,-0.47949 4.47262,-1.11275 5.94435,-2.83098 1.67275,-2.661418 1.86197,-6.27209 0.42202,-9.068529 -0.9732,-1.614129 -2.11547,-2.524054 -2.25359,-4.579288 -0.22413,-1.049008 -0.0701,-2.256593 0.1874,-3.337219 -1.09421,0.569704 -3.4032,1.535768 -3.57384,5.034051 -0.59727,-1.478949 -1.16985,-3.701583 -1.37132,-5.075738 -0.0504,-1.816396 -0.23025,-3.792561 -0.0899,-5.621988 z"
       sodipodi:nodetypes="ccccccccccccccccc"
       transform="matrix(0.54326977,0,0,0.54481292,-3.2213899,-42.092244)" />
    <path
       style="fill:#808080;fill-opacity:1;stroke:#404040;stroke-width:0.919048;stroke-linecap:round;stroke-linejoin:round;stroke-dasharray:none;stroke-opacity:1"
       d="m 108.30455,87.969004 c 0.12,1.134414 1.07562,3.5082 -0.0854,3.416533 -0.92464,-0.073 -1.30764,-1.181842 -1.89705,-1.770918 -0.37748,-0.377258 -0.88135,-1.752558 -1.07915,-1.341041 -0.5277,1.097823 -0.56605,2.285427 -1.17383,3.434293 -0.40013,0.756357 -0.78648,0.418944 -1.28859,-0.274834 -0.25983,-0.359009 -0.56484,-1.848036 -0.72121,-1.397801 -0.69433,1.99914 -0.50789,4.157194 -0.44289,6.234463 0.0254,0.812945 0.40893,1.538998 0.93703,2.178244 1.05059,1.271728 2.48529,2.162857 3.95159,2.843527 1.5799,0.7334 3.52761,0.67655 5.02669,-0.10594 1.57948,-0.82445 2.57202,-2.322464 3.82528,-3.686873 0.82992,-0.903526 0.59086,-2.247037 0.28363,-3.297604 -0.44263,-1.51358 -1.1852,-2.925348 -1.43711,-4.504138 -0.14775,-0.926055 0.18837,-3.535838 -0.37829,-2.787063 -0.68218,0.901425 -1.43498,1.97769 -1.21906,3.117563 0.12226,0.645429 -0.0757,1.075286 -0.78523,0.434972 -1.04276,-0.941099 -1.97736,-2.132448 -2.20595,-3.485156 -0.15063,-0.891378 -0.20001,-3.525191 -0.49987,-2.670039 -0.20373,0.58104 -0.40103,1.37278 -0.57244,2.045077 -0.13439,0.527108 -0.27658,1.067889 -0.23815,1.616735 z"
       id="path14-8"
       inkscape:path-effect="#path-effect15"
       inkscape:original-d="m 108.30455,87.969004 c 0.12836,1.413464 0.27369,2.094611 -0.0854,3.416533 -0.77189,0.241013 -2.16449,-2.280842 -2.67559,-2.880206 -0.45559,-1.217439 -0.66177,1.725058 -0.9823,2.513143 -0.44356,0.770772 -1.52695,2.001923 -1.72413,0.538369 -0.29967,-0.591322 -0.63743,-2.372189 -0.86952,-1.218464 -0.47561,1.267661 -0.40722,3.549027 -0.37917,4.884631 0.0159,1.085523 -0.0294,2.33629 0.88037,3.116603 0.8896,1.171889 2.21032,1.813057 3.41519,2.580257 1.59203,1.15912 3.73603,0.92968 5.49461,0.3451 1.63213,-0.83805 3.31724,-1.970783 3.97841,-3.766313 0.79538,-0.855468 0.50561,-2.014134 0.34614,-3.043287 -0.30497,-1.36375 -1.08497,-2.603601 -1.34722,-3.988196 -0.28232,-1.132586 -0.30102,-2.491016 -0.53069,-3.557322 -0.71459,0.997268 -0.99332,1.547832 -1.16395,2.415169 -0.0739,0.814305 -0.0768,2.425512 -0.84034,1.137366 -1.04349,-0.95854 -1.42365,-2.113868 -2.20595,-3.485156 -0.0742,-0.493468 -0.48313,-3.482907 -0.5856,-2.487833 -0.15962,0.969704 -0.81166,2.523638 -0.72485,3.479606 z"
       transform="matrix(0.54326977,0,0,0.54481292,-3.2213899,-41.410455)"
       sodipodi:nodetypes="scccccccccccccccccs" />
    <path
       style="fill:none;fill-opacity:1;stroke:#404040;stroke-width:0.499998;stroke-linecap:round;stroke-linejoin:round;stroke-dasharray:none;stroke-opacity:1"
       d="m 53.498542,10.540786 c 0.538777,-0.115016 1.321118,0.06049 1.780224,0.06049"
       id="path28-1" />
    <path
       style="fill:none;fill-opacity:1;stroke:#404040;stroke-width:0.499998;stroke-linecap:round;stroke-linejoin:round;stroke-dasharray:none;stroke-opacity:1"
       d="M 54.554604,9.5728349 C 54.266595,10.145618 54.445222,10.881091 54.162353,11.448238"
       id="path29-2" />
    <path
       style="fill:none;fill-opacity:1;stroke:#404040;stroke-width:0.499998;stroke-linecap:round;stroke-linejoin:round;stroke-dasharray:none;stroke-opacity:1"
       d="m 55.610677,9.9660659 c 0.122632,-0.0024 0.181359,-0.06448 0.271553,-0.120994 0.389785,-0.244221 0.83857,-0.326432 1.176766,-0.665467 0.04118,-0.04131 0.165638,-0.241987 0.211207,-0.241987 0.190835,0 -0.127429,0.360867 -0.181034,0.544472 -0.213418,0.7309821 -0.362627,1.4995221 -0.543122,2.2383851 -0.0483,0.197646 -0.131771,0.496184 -0.150867,0.725964 -0.0101,0.122239 -0.06031,0.485646 -0.06031,0.362981 0,-0.08382 -5.03e-4,-0.05889 0.03015,-0.120992"
       id="path30-9" />
  </g>
  <g
     inkscape:groupmode="layer"
     id="layer5"
     style="display:{% if entity.bonus == 'Bonus:magie-vody' %}inline{% else %}none{% endif %}"
     inkscape:label="bonus-magie-vody">
    <path
       style="fill:#bfbfbf;fill-opacity:1;stroke:#404040;stroke-width:0.919048;stroke-linecap:round;stroke-linejoin:round;stroke-dasharray:none;stroke-opacity:1"
       d="m 123.16007,94.682827 c -0.23177,-1.381992 -0.0262,-2.813772 0.43536,-4.101171 0.96671,-2.696305 2.89336,-4.911604 4.87946,-6.910015 1.5473,-1.556893 3.65829,-2.671801 5.93359,-2.514601 1.52928,0.105658 5.35467,2.90307 4.08959,1.944665 -0.47296,-0.358307 -2.55113,-0.826243 -2.08444,-0.565437 1.09495,0.611907 1.75569,1.724279 2.82076,2.363521 0.48156,0.289026 1.15339,1.095537 0.17339,0.623927 -0.98497,-0.474009 -4.30495,-1.067732 -3.18928,-0.785677 1.54578,0.390792 2.84618,1.584748 3.42723,2.9647 0.40396,0.959376 -1.13618,-0.122526 -1.6316,0.140161 -0.81871,0.43411 -1.07994,1.520477 -1.1966,2.397757 -0.1424,1.070887 0.69335,1.958018 1.73768,2.124866 1.03246,0.164951 2.05278,0.265059 3.10816,0.389255 1.01811,0.119812 1.30106,1.292142 1.18943,2.117221 -0.12153,0.898308 0.7906,1.76584 0.238,2.586965 -0.64002,0.951014 -1.8729,0.570861 -2.81497,0.454388 -2.37908,-0.294138 -4.80005,-0.239812 -7.17377,0.03623 -2.06659,0.240322 -4.12466,0.840105 -6.21517,0.546772 -1.29864,-0.18222 -3.60026,1.088259 -3.94671,-0.07985 -0.31394,-1.058517 0.12353,-2.091269 0.17758,-3.259692 0.007,-0.158492 0.0202,-0.316841 0.0423,-0.473986 z"
       id="path15"
       inkscape:path-effect="#path-effect16"
       inkscape:original-d="m 123.16007,94.682827 c -0.24472,-1.322055 0.25468,-2.682347 0.397,-3.988789 0.80454,-2.404066 2.49778,-4.385283 4.16028,-6.241167 1.55138,-1.693459 3.51472,-3.292292 5.93069,-3.315944 1.59862,-0.02839 3.39387,0.382275 4.51735,1.563312 1.06557,1.131721 -0.67519,-0.506906 -1.40223,-0.300518 -1.42204,-0.287826 0.82827,0.743653 1.08082,1.269627 0.55724,0.720696 2.00694,1.497676 2.11809,2.110916 -1.17216,-0.511965 -2.40855,-1.322439 -3.74357,-1.042225 1.50421,0.354463 2.38959,1.78964 3.34945,2.840752 0.93188,1.426111 -1.4605,-0.543831 -2.03464,0.641052 -0.66768,0.914178 -1.03515,2.411148 -0.35705,3.421082 1.14043,1.262217 2.9943,0.514569 4.32995,1.090922 1.74962,0.193096 1.1184,2.058718 1.51002,3.258372 0.82969,1.629884 -0.68044,2.448223 -2.09788,2.028269 -2.2781,-0.428193 -4.62894,-0.255039 -6.90919,-0.162683 -1.38503,0.115007 -2.75455,0.371704 -4.14694,0.575139 -2.25666,0.386318 -4.54729,-0.319808 -6.79976,0.09878 -0.77692,-0.552653 0.52292,-1.951291 0.0465,-2.896971 -5.6e-4,-0.317158 0.007,-0.635374 0.0511,-0.949927 z"
       transform="matrix(0.54326977,0,0,0.54481292,-16.812521,-41.656496)" />
    <path
       style="fill:#bfbfbf;fill-opacity:1;stroke:#404040;stroke-width:0.919048;stroke-linecap:round;stroke-linejoin:round;stroke-dasharray:none;stroke-opacity:1"
       d="m 141.13935,85.914409 c 0.10204,0.504503 0.25008,1.009234 0.51081,1.453843 0.12178,0.207672 0.25825,0.444524 0.4948,0.530851 0.24736,0.09027 0.52283,-0.148136 0.5,-0.405548 -0.0269,-0.303196 -0.21705,-0.563506 -0.41619,-0.77954 -0.29834,-0.323664 -0.61271,-0.776632 -1.05619,-0.787422 -0.0117,-2.85e-4 -0.0214,-0.0122 -0.0332,-0.01218 z"
       id="path16"
       inkscape:path-effect="#path-effect17"
       inkscape:original-d="m 141.13935,85.914409 c 0.11302,0.630302 0.68506,2.376612 1.32954,1.933438 0.64448,-0.443169 -0.63036,-1.689021 -1.32949,-1.933438 z"
       sodipodi:nodetypes="cacc"
       transform="matrix(0.49111211,-0.23293318,0.2322734,0.49250711,-30.233773,-5.7242893)" />
    <path
       style="fill:#bfbfbf;fill-opacity:1;stroke:#404040;stroke-width:0.919048;stroke-linecap:round;stroke-linejoin:round;stroke-dasharray:none;stroke-opacity:1"
       d="m 141.1816,88.911965 c 0.36281,-0.06695 0.76059,-0.04083 1.08452,0.149175 0.15643,0.09175 0.29497,0.269537 0.2429,0.458947 -0.0458,0.166684 -0.16991,0.343557 -0.34919,0.365061 -0.20929,0.0251 -0.38842,-0.120667 -0.52175,-0.263706 -0.19272,-0.206764 -0.34104,-0.45241 -0.45648,-0.709477 z"
       id="path18"
       inkscape:path-effect="#path-effect19"
       inkscape:original-d="m 141.1816,88.911965 c 0.81906,-0.159553 1.63053,0.270782 1.23251,0.80147 -0.38396,0.511944 -0.96694,-0.19943 -1.23251,-0.80147 z"
       sodipodi:nodetypes="csc"
       transform="matrix(0.538018,0.07557084,-0.07535679,0.53954629,-9.6384227,-53.396595)" />
    <path
       style="fill:#bfbfbf;fill-opacity:1;stroke:#404040;stroke-width:0.688322;stroke-linecap:round;stroke-linejoin:round;stroke-dasharray:none;stroke-opacity:1"
       d="m 141.1816,88.911965 c 0.3318,-0.06249 0.68976,-0.04706 0.99691,0.100914 0.15525,0.07479 0.31668,0.200814 0.33731,0.38272 0.0188,0.165379 -0.0807,0.322682 -0.20478,0.423564 -0.10511,0.08544 -0.25588,0.08658 -0.37482,0.02938 -0.2146,-0.103213 -0.37248,-0.292457 -0.504,-0.485369 -0.097,-0.142341 -0.18084,-0.29372 -0.25062,-0.451207 z"
       id="path18-2"
       inkscape:path-effect="#path-effect19-2"
       inkscape:original-d="m 141.1816,88.911965 c 0.81906,-0.159553 1.63053,0.270782 1.23251,0.80147 -0.38396,0.511944 -0.96694,-0.19943 -1.23251,-0.80147 z"
       sodipodi:nodetypes="csc"
       transform="matrix(0.67120177,0.20125831,-0.18486881,0.73070707,-18.804851,-86.742053)" />
    <path
       style="fill:none;fill-opacity:1;stroke:#404040;stroke-width:0.499999;stroke-linecap:round;stroke-linejoin:round;stroke-dasharray:none;stroke-opacity:1"
       d="m 51.950531,7.7444707 c 0.602173,-0.128538 1.476576,0.06761 1.989705,0.06761"
       id="path28-5" />
    <path
       style="fill:none;fill-opacity:1;stroke:#404040;stroke-width:0.499999;stroke-linecap:round;stroke-linejoin:round;stroke-dasharray:none;stroke-opacity:1"
       d="m 53.130861,6.6627247 c -0.321907,0.64012 -0.122252,1.462058 -0.438414,2.095881"
       id="path29-92" />
    <path
       style="fill:none;fill-opacity:1;stroke:#404040;stroke-width:0.499999;stroke-linecap:round;stroke-linejoin:round;stroke-dasharray:none;stroke-opacity:1"
       d="m 54.311202,7.1021837 c 0.137059,-0.0027 0.202701,-0.07206 0.30351,-0.135218 0.435651,-0.272932 0.937236,-0.364809 1.315235,-0.743702 0.04602,-0.04615 0.18513,-0.270435 0.236066,-0.270435 0.213289,0 -0.142426,0.403292 -0.202349,0.608481 -0.238523,0.81692 -0.405287,1.675811 -0.607026,2.501538 -0.054,0.220881 -0.147275,0.554516 -0.168617,0.811309 -0.01133,0.1366103 -0.06741,0.5427393 -0.06741,0.4056553 0,-0.09368 -10e-4,-0.06581 0.03368,-0.135217"
       id="path30-28" />
  </g>
  <g
     inkscape:groupmode="layer"
     id="layer6"
     style="display:{% if entity.bonus == 'Bonus:magie-zeme' %}inline{% else %}none{% endif %}"
     inkscape:label="bonus-magie-zeme">
    <path
       style="fill:#bfbfbf;fill-opacity:1;stroke:#404040;stroke-width:0.685533;stroke-linecap:round;stroke-linejoin:round;stroke-dasharray:none;stroke-opacity:1"
       d="m 158.43486,88.046181 c -2.02921,-0.552387 -4.19622,-0.614392 -6.26991,0.02035 -1.50727,0.461363 -3.0557,1.297073 -3.778,2.768753 -0.28909,0.589012 -0.36304,1.244756 -0.45004,1.884183 -0.22758,1.672814 0.43999,3.581349 1.989,4.402958 0.67675,0.358955 1.45877,0.429524 2.20376,0.550663 1.81281,0.294771 3.68035,0.238512 5.46461,-0.212451 1.53747,-0.388586 3.1519,-0.91295 4.26995,-2.044449 0.78949,-0.798988 0.79837,-2.016005 0.64722,-3.051968 -0.079,-0.541697 -0.0551,-1.108303 -0.21824,-1.628817 -0.4139,-1.32029 -1.71758,-2.016737 -2.82722,-2.727035 -0.31156,-0.199438 -0.73869,-0.202728 -1.03113,0.03781 z"
       id="path19"
       inkscape:path-effect="#path-effect20"
       inkscape:original-d="m 158.43486,88.046181 c -2.04559,-0.550727 -4.26662,-0.852002 -6.26991,0.02035 -1.87684,0.561712 -3.93298,1.81926 -4.09264,3.9709 -0.55763,2.038722 0.20957,4.520183 2.32465,5.297319 2.01822,0.473672 4.18667,0.730891 6.24426,0.324097 1.8597,-0.312682 3.66828,-1.042917 5.1667,-2.186412 1.22941,-1.188732 0.64504,-3.100266 0.52341,-4.600722 -0.37364,-1.471481 -1.81513,-2.380078 -3.10945,-2.979405 -0.26657,-0.06724 -0.57058,-0.02622 -0.78702,0.153876 z"
       transform="matrix(0.72686765,0,0,0.73185399,-56.941207,-58.584164)" />
    <path
       style="fill:#bfbfbf;fill-opacity:1;stroke:#404040;stroke-width:0.860949;stroke-linecap:round;stroke-linejoin:round;stroke-dasharray:none;stroke-opacity:1"
       d="m 155.29753,83.661971 c -1.3068,-0.0097 -2.5193,0.517135 -3.68103,1.220325 -0.83199,0.503598 -1.56683,1.422485 -1.46147,2.434418 0.0839,0.805572 0.74396,1.422955 1.4191,1.780475 1.33539,0.707161 2.89059,0.790042 4.35342,0.707014 1.09174,-0.06197 2.32057,-0.11683 3.16352,-0.886184 0.33396,-0.304801 0.6275,-0.720985 0.55572,-1.207942 -0.12458,-0.845046 -0.8436,-1.413588 -1.48296,-1.883275 -0.72681,-0.533926 -1.1389,-1.38544 -1.8661,-1.91282 -0.28599,-0.207407 -0.64883,-0.309331 -1.0002,-0.252011 z"
       id="path20"
       inkscape:path-effect="#path-effect21"
       inkscape:original-d="m 155.29753,83.661971 c -1.32177,-0.0029 -2.71326,0.241337 -3.68103,1.220325 -1.14519,0.674679 -2.05666,2.261385 -1.00892,3.428048 1.29346,1.539732 3.50217,1.377405 5.31997,1.493859 1.33407,-0.06429 3.10581,-0.242966 3.71173,-1.63925 0.22915,-1.471346 -1.53802,-2.122088 -2.27343,-3.130057 -0.56665,-0.622898 -1.09063,-1.513803 -2.06832,-1.372925 z"
       transform="matrix(0.63549221,0,0,0.53072861,-42.699197,-41.169756)" />
    <path
       style="fill:#bfbfbf;fill-opacity:1;stroke:#404040;stroke-width:0.875631;stroke-linecap:round;stroke-linejoin:round;stroke-dasharray:none;stroke-opacity:1"
       d="m 154.05065,81.851975 c -0.48002,-0.163001 -1.08973,-0.103991 -1.40907,0.331727 -0.5016,0.684394 -0.34426,1.730539 0.26998,2.278155 0.91173,0.812848 2.2114,1.133108 3.40568,0.944751 0.55878,-0.08813 1.21721,-0.191229 1.55125,-0.651138 0.29084,-0.400443 0.37134,-0.958133 0.13093,-1.403841 -0.34954,-0.648044 -1.01001,-1.059933 -1.6687,-1.33659 -0.44654,-0.187554 -0.91837,-0.335204 -1.41337,-0.308521 -0.2932,0.01581 -0.58359,0.06867 -0.8667,0.145457 z"
       id="path21"
       inkscape:path-effect="#path-effect22"
       inkscape:original-d="m 154.05065,81.851975 c -1.83497,-0.553744 -2.22372,1.809112 -0.97415,2.751294 1.29931,1.02827 3.47718,1.187125 4.79199,0.152201 1.05525,-1.57435 -1.16287,-2.751298 -2.42372,-3.034067 -0.46766,-0.05428 -0.94205,0.0079 -1.39412,0.130572 z"
       transform="matrix(0.59870854,-0.15204783,0.12826838,0.51202728,-48.526068,-16.223168)" />
    <path
       style="fill:none;fill-opacity:1;stroke:#404040;stroke-width:0.499999;stroke-linecap:round;stroke-linejoin:round;stroke-dasharray:none;stroke-opacity:1"
       d="m 53.054953,9.1049475 c 0.682365,-0.146259 1.67319,0.07693 2.25465,0.07693"
       id="path28-7" />
    <path
       style="fill:none;fill-opacity:1;stroke:#404040;stroke-width:0.499999;stroke-linecap:round;stroke-linejoin:round;stroke-dasharray:none;stroke-opacity:1"
       d="m 54.392456,7.8740625 c -0.364773,0.728373 -0.138535,1.66363 -0.496792,2.3848375"
       id="path29-9" />
    <path
       style="fill:none;fill-opacity:1;stroke:#404040;stroke-width:0.499999;stroke-linecap:round;stroke-linejoin:round;stroke-dasharray:none;stroke-opacity:1"
       d="m 55.729963,8.3741095 c 0.15531,-0.003 0.229693,-0.08199 0.343929,-0.15386 0.493656,-0.310561 1.062036,-0.415104 1.490366,-0.846234 0.05222,-0.05252 0.20977,-0.307721 0.267493,-0.307721 0.241689,0 -0.161392,0.458893 -0.229285,0.692373 -0.270291,0.929546 -0.459258,1.906852 -0.687858,2.8464205 -0.0612,0.251334 -0.166879,0.630966 -0.191071,0.923163 -0.01279,0.155444 -0.07639,0.617565 -0.07639,0.461581 0,-0.106596 -4.73e-4,-0.07489 0.03816,-0.153859"
       id="path30-2" />
  </g>
  <g
     inkscape:groupmode="layer"
     id="layer7"
     style="display:{% if entity.bonus == 'Bonus:mechanismy' %}inline{% else %}none{% endif %}"
     inkscape:label="bonus-mechanismy">
    <path
       style="fill:#bfbfbf;fill-opacity:1;stroke:#404040;stroke-width:0.685533;stroke-linecap:round;stroke-linejoin:round;stroke-dasharray:none;stroke-opacity:1"
       d="m 174.28237,84.466413 c 0.0447,-0.309631 -0.026,0.210457 0,0 0.0481,-0.38984 -0.10425,-0.892237 0.47393,-1.105064 0.44691,-0.16451 1.13584,-0.585176 1.4165,-0.182046 0.27853,0.400057 -0.29209,1.246337 0.27159,1.286971 0.52183,0.03762 1.06686,0.894158 1.37757,0.523025 0.27955,-0.333907 0.47524,-1.497161 0.85324,-1.128759 0.34238,0.333686 1.37598,0.245358 1.15599,0.729959 -0.19906,0.438515 -0.56782,0.701723 -0.94469,1.041025 -0.34517,0.310762 0.27859,0.534832 0.47033,0.851659 0.18589,0.307148 0.38581,0.751499 0.77096,0.254042 0.2604,-0.336336 1.03977,-0.977264 1.07283,-0.581487 0.0341,0.408604 0.4074,0.744471 0.41592,1.152304 0.005,0.247006 0.41769,0.422038 -0.009,0.576217 -0.35322,0.127624 -1.309,-0.02433 -1.16884,0.458711 0.12621,0.434976 -0.13169,0.8401 -0.0945,1.307751 0.0308,0.387448 0.57998,0.201837 0.92429,0.257908 0.29806,0.04854 0.87129,-0.172207 0.51274,0.371753 -0.25558,0.38775 0.0482,1.564868 -0.25517,1.36064 -0.29117,-0.196012 -1.15669,-0.61263 -1.19139,-0.286504 -0.0501,0.471019 -0.73519,1.107182 -0.34058,1.357417 0.34259,0.217251 1.28644,0.468553 1.00556,0.764219 -0.36978,0.389244 -0.63049,1.60101 -1.03474,1.235874 -0.30995,-0.279965 -0.8688,-1.29839 -1.10034,-0.856407 -0.1503,0.286914 -0.58172,0.649678 -0.95718,0.81215 -0.59976,0.259536 0.44966,1.27183 0.10995,1.322267 -0.53222,0.07902 -1.10516,0.267879 -1.59667,0.522674 -0.44488,0.230627 -0.30174,-0.33509 -0.36601,-0.694468 -0.1275,-0.71296 -0.86131,-0.131558 -1.29537,-0.397951 -0.32864,-0.201689 -0.61507,-0.329107 -0.72542,0.201037 -0.0731,0.351436 -0.27595,0.953007 -0.71195,0.538971 -0.3169,-0.300942 -1.40692,-0.419689 -1.1558,-0.651896 0.25371,-0.234613 0.87013,-1.008989 0.47365,-1.107657 -0.38665,-0.09622 -0.51625,-0.867017 -0.75838,-0.796186 -0.37163,0.108717 -1.12681,0.87152 -1.1112,0.543264 0.0228,-0.479449 -0.36206,-0.920764 -0.5135,-1.356399 -0.10267,-0.295342 1.10306,-0.506033 0.65956,-0.708406 -0.46221,-0.210917 -0.27151,-1.199098 -1.00489,-0.772786 -0.66891,0.388828 -0.39286,-0.685248 -0.59454,-1.02104 -0.38392,-0.639207 0.89745,-0.272259 0.97783,-0.662667 0.0876,-0.425729 0.90025,-1.254224 0.44265,-1.310804 -0.44293,-0.05477 -1.33242,-0.335678 -1.10903,-0.700094 0.23401,-0.381726 0.33595,-1.463004 0.67238,-1.13811 0.14053,0.135716 0.085,0.154128 0.43082,0.172565 0.35498,0.01893 0.51708,0.671396 0.82221,0.105614 0.16396,-0.304025 0.81985,-0.35948 0.3558,-0.801069 -0.321,-0.305459 -0.60158,-0.639933 -0.0777,-0.94903 0.21663,-0.127798 0.50842,-0.662108 0.54694,-0.630393 0.30992,0.255186 0.61059,0.773408 0.92363,1.156665 0.21417,0.262198 0.18601,-0.102107 0.46317,-0.256063 0.30582,-0.169881 1.12369,-0.306495 0.57302,-0.733103 0,0 -0.056,-0.0763 -0.056,-0.0763 z"
       id="path23"
       inkscape:path-effect="#path-effect24"
       inkscape:original-d="m 174.28237,84.466413 c -0.0134,-0.06704 0.0268,-0.214519 -0.0402,-0.20111 -0.067,0.01341 0.0402,0.269473 0.0402,0.20111 0,-0.18828 0.005,-1.008163 0.16088,-1.085998 0.0629,-0.03146 0.17208,0.0173 0.24134,0 0.39701,-0.09925 0.54936,-0.241332 1.00555,-0.241332 0.11378,0 0.41455,-0.0279 0.48266,0.04022 0.026,0.02596 0.10076,0.642742 0.0805,0.723998 -0.009,0.03676 -0.0974,0.287853 -0.0805,0.321778 0.0118,0.02363 0.051,0.20111 0.0805,0.20111 0.0749,0 1.01351,0.249296 1.08599,0.321776 0.12997,0.12996 0.25982,0.241334 0.48267,0.241334 0.0758,0 0.43091,-1.166442 0.76422,-1.166442 0.0995,0 0.28539,0.236683 0.44244,0.281554 0.0912,0.02604 0.19162,0.01024 0.28156,0.04022 0.0829,0.02764 0.58276,0.422789 0.52289,0.482664 -0.0786,0.07863 -0.13864,0.156604 -0.20112,0.281556 -0.0536,0.107257 -0.0761,0.23698 -0.16088,0.321776 -0.14146,0.141457 -0.724,0.397981 -0.724,0.603332 0,0.0048 0.32026,0.218951 0.362,0.281554 0.11371,0.170576 0.60535,0.925107 0.724,0.925107 0.0678,0 0.36182,-0.422246 0.48266,-0.482663 0.18749,-0.09374 0.62046,-0.178022 0.76422,-0.321779 0.0342,-0.03418 0.099,-0.123679 0.12067,-0.08044 0.0393,0.0786 -0.007,0.18788 0.0402,0.281556 0.1445,0.288996 0.25918,0.639019 0.40222,0.925108 0.094,0.188087 0.0582,0.295187 0.12067,0.482666 0.009,0.02844 0.10164,0.06142 0.0804,0.04022 -0.0582,-0.05817 -1.34704,0.140377 -1.448,0.241331 -0.006,0.0056 0.0557,0.287849 0.0805,0.361998 0.051,0.1529 -0.091,0.41457 -0.12067,0.56311 -0.0197,0.09862 -0.0472,0.717029 0.0402,0.804442 0.0391,0.03909 0.10561,-0.04022 0.16089,-0.04022 0.36054,0 0.67463,0.120666 1.04578,0.120666 0.0531,0 0.3836,-0.02461 0.362,0.04022 -0.0563,0.168994 -0.22773,0.321193 -0.28156,0.482666 -0.032,0.09609 -0.0804,0.667904 -0.0804,0.76422 0,0.103574 -0.0402,0.236125 -0.0402,0.362 0,0.01744 -0.0496,0.08044 -0.0402,0.08044 0.0309,0 -0.0497,-0.160891 -0.16088,-0.160891 -0.25048,0 -0.95006,-0.256608 -1.00556,-0.201109 -0.0596,0.05956 -0.0975,0.76677 -0.16089,0.925107 -0.008,0.0199 -0.25319,0.482667 -0.20111,0.482667 0.24458,0 0.34667,0.394554 0.60334,0.522888 0.0648,0.03241 0.45697,0.186581 0.40222,0.241331 -0.27224,0.272238 -0.8308,1.246886 -1.086,1.246886 -0.0823,0 -0.27762,-0.398282 -0.32178,-0.442444 -0.0377,-0.03768 -0.74461,-0.442441 -0.76422,-0.442441 -0.0553,0 -0.007,0.116662 -0.0402,0.160887 -0.058,0.07733 -0.16993,0.169934 -0.24133,0.241332 -0.19982,0.199816 -0.81962,0.4728 -0.92511,0.683776 -0.0328,0.06565 0.13649,0.409475 0.16089,0.482666 0.0231,0.06937 0.20642,0.603332 0.24133,0.603332 0.019,0 -0.0213,-0.04022 -0.0402,-0.04022 -0.1423,0 -0.34576,0.106129 -0.48267,0.16089 -0.24221,0.09688 -0.59915,0.144698 -0.80444,0.281554 -0.0368,0.02453 -0.52289,0.189415 -0.52289,0.160888 0,-0.09366 0.0652,-0.237091 0.0402,-0.361998 -0.0317,-0.158496 -0.3459,-0.804442 -0.40223,-0.804442 -0.31902,0 -0.57507,0.137785 -0.96532,0.04022 -0.22817,-0.05704 -0.47659,-0.241334 -0.68378,-0.241334 -0.04,0 -0.2198,0.994786 -0.48267,1.12622 -0.0785,0.03926 -0.98295,-0.587626 -1.20666,-0.643554 -0.0391,-0.0098 -0.32178,-0.042 -0.32178,-0.120666 0,-0.154765 0.35449,-0.339476 0.40223,-0.482666 0.023,-0.06888 0.25117,-0.59349 0.20111,-0.643554 -0.0377,-0.03772 -0.18682,-0.0441 -0.24134,-0.08044 -0.14565,-0.0971 -0.42696,-0.386741 -0.52288,-0.482663 -0.0415,-0.04146 10e-4,-0.240099 -0.0402,-0.281557 -0.0721,-0.07207 -1.1054,0.664372 -1.16644,0.603332 -0.034,-0.034 0.009,-0.238855 0,-0.281553 -0.037,-0.185182 -0.11661,-0.434346 -0.20111,-0.603332 -0.0603,-0.12064 -0.15246,-0.393798 -0.24133,-0.482667 -0.006,-0.0064 -0.17814,-0.06319 -0.12067,-0.120665 0.11915,-0.119148 0.80445,-0.378831 0.80445,-0.522889 0,-0.08028 -0.2085,-0.135432 -0.24134,-0.201109 -0.0622,-0.124487 -0.11148,-0.202274 -0.20111,-0.321776 -0.21828,-0.291039 0.0293,-0.698423 -0.56311,-0.402222 -0.0753,0.03765 -0.48181,0.202813 -0.52288,0.120666 -0.0841,-0.168199 -0.14339,-0.975755 -0.20112,-1.206662 -0.0205,-0.08226 -0.10725,-0.16089 -0.0804,-0.241334 0.053,-0.158877 1.12622,-0.212672 1.12622,-0.361998 0,-0.444838 0.16153,-0.885857 0.40222,-1.246886 0.0219,-0.03283 -0.2791,-0.05911 -0.32178,-0.08044 -0.2883,-0.14415 -0.58693,-0.385823 -0.76422,-0.56311 -0.15573,-0.155728 0.36835,-0.552513 0.40222,-0.603332 0.12869,-0.193032 0.0716,-0.433567 0.24134,-0.603329 0.0246,-0.02466 0.18924,0.143526 0.24133,0.160888 0.81954,0.273179 -0.2079,-0.0922 0.32178,0.04022 0.10887,0.02722 0.24302,0.201956 0.32177,0.241331 0.009,0.0047 0.20111,0.175713 0.20111,0.120666 0,-0.153492 0.29795,-0.418608 0.44245,-0.563107 0.0351,-0.03514 0.362,-0.346401 0.362,-0.362 0,-0.02682 -0.0581,0.01487 -0.0805,0 -0.0611,-0.04074 -0.1478,-0.10758 -0.20111,-0.160888 -0.1802,-0.1802 -0.32813,-0.448797 -0.44244,-0.56311 -0.0499,-0.04991 0.39867,-0.415473 0.48266,-0.482664 0.16793,-0.134345 0.25529,-0.282368 0.362,-0.442444 0.0137,-0.0205 0.13869,-0.120666 0.12067,-0.120666 -0.007,0 -0.10914,0.05175 -0.0804,0.08044 0.0687,0.06873 0.28477,0.130329 0.32177,0.241332 0.0963,0.288822 0.56687,0.866656 0.76422,0.965332 0.036,0.01799 0,-0.08045 0,-0.120668 0,-0.08585 0.12968,-0.113269 0.20111,-0.160888 0.33435,-0.222896 0.69959,-0.257149 0.92511,-0.482666 0.0243,-0.02432 -0.13225,-0.193196 -0.28155,-0.40222 z"
       transform="matrix(0.72686765,0,0,0.73185399,-72.145275,-58.250118)" />
    <path
       style="fill:none;fill-opacity:1;stroke:#404040;stroke-width:0.499999;stroke-linecap:round;stroke-linejoin:round;stroke-dasharray:none;stroke-opacity:1"
       d="m 52.871703,7.5112382 c 0.630689,-0.135195 1.546488,0.07111 2.083914,0.07111"
       id="path28-6" />
    <path
       style="fill:none;fill-opacity:1;stroke:#404040;stroke-width:0.499999;stroke-linecap:round;stroke-linejoin:round;stroke-dasharray:none;stroke-opacity:1"
       d="m 54.107918,6.3734722 c -0.337142,0.67327 -0.128037,1.537773 -0.459167,2.20442"
       id="path29-0" />
    <path
       style="fill:none;fill-opacity:1;stroke:#404040;stroke-width:0.499999;stroke-linecap:round;stroke-linejoin:round;stroke-dasharray:none;stroke-opacity:1"
       d="m 55.344149,6.8356892 c 0.143553,-0.0028 0.212302,-0.07579 0.317879,-0.142219 0.456278,-0.287067 0.981622,-0.383702 1.377508,-0.782216 0.04818,-0.04855 0.193891,-0.284441 0.247249,-0.284441 0.223378,0 -0.149183,0.424177 -0.21192,0.639993 -0.249826,0.859225 -0.424494,1.762595 -0.635785,2.631083 -0.05652,0.23232 -0.154237,0.583233 -0.176601,0.853324 -0.01183,0.143684 -0.07058,0.5708448 -0.07058,0.4266618 0,-0.09853 -4.73e-4,-0.06923 0.03524,-0.142219"
       id="path30-6" />
  </g>
  <g
     inkscape:groupmode="layer"
     id="layer8"
     style="display:{% if entity.bonus == 'Bonus:strelba' %}inline{% else %}none{% endif %}"
     inkscape:label="bonus-strelba">
    <path
       style="fill:#808080;fill-opacity:1;stroke:#404040;stroke-width:0.499999;stroke-linecap:round;stroke-linejoin:round;stroke-dasharray:none;stroke-opacity:1"
       d="m 55.91459,1.6535743 c 0.141394,0.753599 0.67298,1.382896 1.249592,1.855671 1.32329,1.025468 2.371037,2.581979 2.421897,4.303773 0.0092,0.642339 -0.133227,1.321255 -0.592511,1.79525 -0.353022,0.4008777 -0.711143,0.8088757 -1.125548,1.1446027 -0.437513,0.180035 -0.72087,0.570389 -1.0686,0.869305 -0.429302,0.215666 -0.934255,0.308063 -1.232812,0.726336 -0.45081,0.247068 -0.645748,0.774849 -0.870355,1.193943 -0.01702,-0.968068 0.696266,-1.73044 1.412192,-2.279939 0.616215,-0.469857 1.259647,-0.910444 1.776975,-1.4964087 0.295591,-0.355035 0.436703,-0.826141 0.676324,-1.228377 0.113809,-0.487935 0.211169,-1.000133 0.22802,-1.509979 -0.122463,-0.382521 -0.259986,-0.767371 -0.34845,-1.163992 -0.150486,-0.693158 -0.766293,-1.102093 -1.192801,-1.616012 -0.337978,-0.390037 -0.72079,-0.743292 -1.045738,-1.142089 -0.210787,-0.442556 -0.351552,-0.960359 -0.288185,-1.452084 z"
       id="path24" />
    <path
       style="fill:none;fill-opacity:1;stroke:#404040;stroke-width:0.499999;stroke-linecap:round;stroke-linejoin:round;stroke-dasharray:none;stroke-opacity:1"
       d="m 55.758399,1.8108333 c -0.14086,0.03796 -5.073426,3.925391 -5.529432,4.843618 -0.250717,0.504834 4.560996,5.9056467 4.560996,6.3847697"
       id="path25"
       sodipodi:nodetypes="csc" />
    <path
       style="fill:#808080;fill-opacity:1;stroke:#404040;stroke-width:0.499999;stroke-linecap:round;stroke-linejoin:round;stroke-dasharray:none;stroke-opacity:1"
       d="m 60.694273,6.6229993 c 0.269657,0.04241 0.902954,1.103835 0.87471,1.132274 -0.02256,0.02267 -1.402405,0.59759 -1.124632,0.59759"
       id="path27" />
    <path
       style="fill:#808080;fill-opacity:1;stroke:#404040;stroke-width:0.499999;stroke-linecap:round;stroke-linejoin:round;stroke-dasharray:none;stroke-opacity:1"
       d="m 57.507824,7.3463993 c 0.797368,-0.05983 2.657314,0.220164 3.842482,0.220164"
       id="path26" />
    <path
       style="fill:none;fill-opacity:1;stroke:#404040;stroke-width:0.499999;stroke-linecap:round;stroke-linejoin:round;stroke-dasharray:none;stroke-opacity:1"
       d="m 51.572295,7.0259453 c 0.713897,-0.153014 1.750528,0.08048 2.358848,0.08048"
       id="path28" />
    <path
       style="fill:none;fill-opacity:1;stroke:#404040;stroke-width:0.499999;stroke-linecap:round;stroke-linejoin:round;stroke-dasharray:none;stroke-opacity:1"
       d="m 52.971614,5.7382263 c -0.381619,0.762004 -0.144939,1.740444 -0.519745,2.494951"
       id="path29" />
    <path
       style="fill:none;fill-opacity:1;stroke:#404040;stroke-width:0.499999;stroke-linecap:round;stroke-linejoin:round;stroke-dasharray:none;stroke-opacity:1"
       d="m 54.370942,6.2613613 c 0.162495,-0.0032 0.240305,-0.08578 0.359809,-0.160964 0.516487,-0.324901 1.111133,-0.434272 1.55926,-0.885308 0.05458,-0.05495 0.219467,-0.321929 0.279853,-0.321929 0.252861,0 -0.168849,0.480082 -0.239878,0.724343 -0.282783,0.972465 -0.480489,1.994896 -0.719652,2.977847 -0.06398,0.262939 -0.174592,0.6601 -0.199912,0.965789 -0.01344,0.162621 -0.0799,0.6460787 -0.0799,0.4828937 0,-0.1115187 -4.73e-4,-0.07835 0.03997,-0.1609637"
       id="path30" />
  </g>
  <g
     inkscape:groupmode="layer"
     id="layer9"
     style="display:{% if entity.bonus == 'Bonus:boj' %}inline{% else %}none{% endif %}"
     inkscape:label="bonus-boj">
    <path
       style="fill:#bfbfbf;fill-opacity:1;stroke:#404040;stroke-width:0.499999;stroke-linecap:round;stroke-linejoin:round;stroke-dasharray:none;stroke-opacity:1"
       d="m 52.698714,9.8657832 c 0.108201,0.3248728 0.107634,-0.903628 0.107634,-1.131088 0,-0.692761 -0.205071,-1.364101 -0.107634,-2.046736 0.117317,-0.821904 0.205232,-1.653274 0.322898,-2.477627 0.03288,-0.230363 0.234986,-0.534097 0.322897,-0.754057 0.596898,-1.493501 1.571441,-2.87391196 2.583177,-3.07010096 1.951244,0.65855196 2.018386,1.67137796 2.314097,3.44713196 0.09378,0.563139 0.371928,1.107146 0.484345,1.6697 0.113885,0.569904 0.07645,1.167862 0.215265,1.723566 0.205711,0.823538 -0.215265,2.059917 -0.215265,2.693071"
       id="path31" />
    <path
       style="fill:#7f7f7f;fill-opacity:1;stroke:#404040;stroke-width:0.499999;stroke-linecap:round;stroke-linejoin:round;stroke-dasharray:none;stroke-opacity:1"
       d="m 54.04412,10.92246 c -0.01822,0.732337 -0.571821,4.437998 -0.107633,4.694267 0.56356,0.311129 1.659968,-0.02414 2.26028,-0.118845 0.279676,-0.0441 1.141472,0.165756 1.345405,-0.05942 0.514197,-0.567746 -0.374032,-3.927711 0.05382,-4.872528"
       id="path33" />
    <path
       style="fill:none;fill-opacity:1;stroke:#404040;stroke-width:0.499999;stroke-linecap:round;stroke-linejoin:round;stroke-dasharray:none;stroke-opacity:1"
       d="m 54.04412,12.397271 c 1.118118,-0.367 2.416698,-0.859268 3.390419,-1.346535"
       id="path34" />
    <path
       style="fill:#ffffff;fill-opacity:1;stroke:#404040;stroke-width:0.499999;stroke-linecap:round;stroke-linejoin:round;stroke-dasharray:none;stroke-opacity:1"
       d="m 50.438435,9.7580612 c 0.681662,-0.209854 2.936593,-0.127475 4.305295,-0.32317 0.939975,-0.134395 1.82922,0.215448 2.744626,0.215448 0.846118,0 2.574391,0.04506 3.121338,0.5924738 0.06312,0.06318 0.292508,-0.04214 0.376714,0 0.128802,0.06446 0.298642,0.08345 0.376713,0.161583 0.02102,0.02102 -0.11211,0.729369 -0.161449,0.754061 -0.418351,0.20935 -3.815139,-0.347081 -4.735824,-0.215448 -0.913374,0.130594 -4.794681,0.752383 -5.596884,0.484757 -0.52257,-0.174339 -0.483246,-1.247614 -0.430529,-1.6697048 z"
       id="path32" />
    <path
       style="fill:none;fill-opacity:1;stroke:#404040;stroke-width:0.499999;stroke-linecap:round;stroke-linejoin:round;stroke-dasharray:none;stroke-opacity:1"
       d="m 53.775039,13.851528 c 1.133228,-0.823693 2.50357,-1.495215 3.605684,-2.046731"
       id="path35" />
    <path
       style="fill:none;fill-opacity:1;stroke:#404040;stroke-width:0.5;stroke-linecap:round;stroke-linejoin:round;stroke-dasharray:none;stroke-opacity:1"
       d="m 53.214213,6.0675472 c 0.674948,-0.143584 1.655018,0.07552 2.230154,0.07552"
       id="path28-0-5" />
    <path
       style="fill:none;fill-opacity:1;stroke:#404040;stroke-width:0.5;stroke-linecap:round;stroke-linejoin:round;stroke-dasharray:none;stroke-opacity:1"
       d="m 54.537185,4.8592072 c -0.360803,0.715034 -0.137028,1.633163 -0.491393,2.341156"
       id="path29-6-5" />
    <path
       style="fill:none;fill-opacity:1;stroke:#404040;stroke-width:0.5;stroke-linecap:round;stroke-linejoin:round;stroke-dasharray:none;stroke-opacity:1"
       d="m 55.512019,4.9364242 c 0.153624,-0.003 0.227197,-0.08049 0.340185,-0.151043 0.488301,-0.304873 1.050505,-0.407504 1.47418,-0.83074 0.05159,-0.05156 0.207499,-0.302081 0.26459,-0.302081 0.239066,0 -0.159638,0.450488 -0.226793,0.679692 -0.267354,0.912524 -0.454273,1.871928 -0.680389,2.79429 -0.06052,0.246729 -0.16507,0.61941 -0.188996,0.906264 -0.01268,0.152591 -0.07556,0.606249 -0.07556,0.45312 0,-0.104637 -9.06e-4,-0.07351 0.03777,-0.151044"
       id="path30-3-4" />
    <path
       style="fill:none;fill-opacity:1;stroke:#404040;stroke-width:0.499999;stroke-linecap:round;stroke-linejoin:round;stroke-dasharray:none;stroke-opacity:1"
       d="m 53.721222,14.874899 c 0.518985,-0.360932 3.573044,-1.765956 3.713317,-2.046736"
       id="path36" />
    <path
       style="fill:none;fill-opacity:1;stroke:#404040;stroke-width:0.499999;stroke-linecap:round;stroke-linejoin:round;stroke-dasharray:none;stroke-opacity:1"
       d="m 54.636098,15.413512 c 1.147952,-0.354944 2.076981,-1.335603 3.067523,-1.831288"
       id="path37" />
    <path
       style="fill:none;fill-opacity:1;stroke:#404040;stroke-width:0.499999;stroke-linecap:round;stroke-linejoin:round;stroke-dasharray:none;stroke-opacity:1"
       d="m 56.358216,15.413512 c 0.357463,-0.317545 1.112451,-0.664793 1.237772,-0.915644"
       id="path38" />
  </g>
  <g
     inkscape:groupmode="layer"
     id="layer10"
     style="display:{% if entity.bonus == 'Bonus:magie-ducha' %}inline{% else %}none{% endif %}"
     inkscape:label="bonus-magie-ducha">
    <path
       style="fill:#bebebe;fill-opacity:1;stroke:#404040;stroke-width:0.499999;stroke-linecap:round;stroke-linejoin:round;stroke-dasharray:none;stroke-opacity:1"
       d="m 59.756149,15.046422 c -1.208411,-0.266779 -5.5563,-0.663996 -6.834655,-2.369901 -0.263812,-0.352046 -0.536646,-0.716128 -0.807244,-1.077232 -0.748861,-0.999318 -1.071846,-4.36268 -0.96869,-5.601585 0.0584,-0.70137 0.64157,-1.933727 1.076323,-2.477627 0.343808,-0.430121 0.861618,-0.646753 1.291589,-0.969505 0.959552,-0.720271 2.014826,-1.158678 3.228971,-0.915644 0.613636,0.122833 1.332565,-0.242132 1.937382,0 1.502915,0.601673 1.668855,3.391608 1.237773,4.685941 -0.230007,0.690604 -0.840719,1.157388 -1.022508,1.885154 -0.26539,1.062448 -0.420077,2.220335 -0.69961,3.339406 -0.214589,0.859076 0.946419,2.974048 1.560669,3.500993 z"
       id="path39" />
    <path
       style="fill:#3f3f3f;fill-opacity:1;stroke:#404040;stroke-width:0.499999;stroke-linecap:round;stroke-linejoin:round;stroke-dasharray:none;stroke-opacity:1"
       d="m 54.37453,3.573938 c -0.82574,-0.06515 0.976575,0.02031 -0.430529,-0.107722 -0.96306,-0.08763 -0.967737,1.292675 0.05382,1.292675 0.692002,0 1.249725,-1.06013 0.376713,-1.184953 z"
       id="path40" />
    <path
       style="fill:#3f3f3f;fill-opacity:1;stroke:#404040;stroke-width:0.499999;stroke-linecap:round;stroke-linejoin:round;stroke-dasharray:none;stroke-opacity:1"
       d="m 57.76495,3.789386 c -0.849503,-0.158906 1.099498,0.180488 -0.484345,-0.107722 -0.416259,-0.07575 -1.5144,0.533578 -0.86106,0.969505 0.697515,0.465397 2.026723,0.09286 1.345405,-0.861783 z"
       id="path41" />
    <path
       style="fill:#7f7f7f;fill-opacity:1;stroke:#404040;stroke-width:0.499999;stroke-linecap:round;stroke-linejoin:round;stroke-dasharray:none;stroke-opacity:1"
       d="m 52.383332,9.01394 c 0.730647,-0.105161 2.173707,-0.09679 2.52936,-0.215443"
       id="path42" />
    <path
       style="fill:#7f7f7f;fill-opacity:1;stroke:#404040;stroke-width:0.499999;stroke-linecap:round;stroke-linejoin:round;stroke-dasharray:none;stroke-opacity:1"
       d="m 53.621104,7.775131 c -0.203782,0.693165 0.158023,1.676561 -0.161448,2.316041"
       id="path43" />
    <path
       style="fill:none;fill-opacity:1;stroke:#404040;stroke-width:0.499998;stroke-linecap:round;stroke-linejoin:round;stroke-dasharray:none;stroke-opacity:1"
       d="m 55.722026,7.788392 c 0.226478,-0.305962 0.752054,-0.450165 1.020097,-0.708864 0.284591,-0.274667 0.320881,-0.737157 0.680066,-0.945155 0.07576,-0.04385 0.34509,-0.35443 0.340031,-0.35443 -0.09067,0 0.01414,0.158487 0,0.236285 -0.546363,3.005701 0.04811,-0.433694 -0.340031,1.476807 -0.214847,1.057514 -0.54768,2.145501 -0.748072,3.189895 -0.135692,0.707191 -0.08357,1.267554 -0.408039,1.831237"
       id="path44" />
    <path
       style="fill:none;fill-opacity:1;stroke:#404040;stroke-width:0.499999;stroke-linecap:round;stroke-linejoin:round;stroke-dasharray:none;stroke-opacity:1"
       d="m 54.482163,5.728395 c 0.261272,0.195439 1.015331,0.415332 1.775934,0.161588"
       id="path45" />
  </g>
  <g
     inkscape:groupmode="layer"
     id="layer11"
     style="display:{% if entity.bonus == 'Bonus:magie-smrti' %}inline{% else %}none{% endif %}"
     inkscape:label="bonus-magie-smrti">
    <path
       style="fill:none;fill-opacity:1;stroke:#404040;stroke-width:0.5;stroke-linecap:round;stroke-linejoin:round;stroke-dasharray:none;stroke-opacity:1"
       d="m 53.880842,8.7439812 c 0.674948,-0.143583 1.655018,0.07552 2.230153,0.07552"
       id="path28-0-5-9" />
    <path
       style="fill:none;fill-opacity:1;stroke:#404040;stroke-width:0.5;stroke-linecap:round;stroke-linejoin:round;stroke-dasharray:none;stroke-opacity:1"
       d="m 55.203814,7.5356362 c -0.360804,0.715034 -0.137028,1.633163 -0.491394,2.341161"
       id="path29-6-5-3" />
    <path
       style="fill:none;fill-opacity:1;stroke:#404040;stroke-width:0.5;stroke-linecap:round;stroke-linejoin:round;stroke-dasharray:none;stroke-opacity:1"
       d="m 56.232463,7.6667202 c 0.153624,-0.003 0.227198,-0.08049 0.340185,-0.151044 0.488302,-0.304873 1.050506,-0.407504 1.47418,-0.830739 0.05159,-0.05156 0.2075,-0.302082 0.26459,-0.302082 0.239067,0 -0.159637,0.450489 -0.226792,0.679692 -0.267354,0.912524 -0.454273,1.871928 -0.68039,2.794291 -0.06052,0.2467278 -0.165069,0.6194088 -0.188996,0.9062628 -0.01268,0.152586 -0.07556,0.60625 -0.07556,0.45312 0,-0.104642 -9.06e-4,-0.07351 0.03778,-0.151043"
       id="path30-3-4-7" />
    <path
       style="fill:#808080;fill-opacity:1;stroke:#404040;stroke-width:0.499999;stroke-linecap:round;stroke-linejoin:round;stroke-dasharray:none;stroke-opacity:1"
       d="m 53.64121,4.5779032 c -0.825741,-0.06516 0.976575,0.02031 -0.43053,-0.107721 -0.963059,-0.08763 -0.967737,1.292674 0.05382,1.292674 0.692001,0 1.249724,-1.060134 0.376713,-1.184953 z"
       id="path40-4" />
    <path
       style="fill:#808080;fill-opacity:1;stroke:#404040;stroke-width:0.499999;stroke-linecap:round;stroke-linejoin:round;stroke-dasharray:none;stroke-opacity:1"
       d="m 58.753748,4.6856252 c -0.849504,-0.158901 1.099497,0.180494 -0.484346,-0.107722 -0.416258,-0.07575 -1.5144,0.533578 -0.861059,0.969505 0.697515,0.465403 2.026722,0.09286 1.345405,-0.861783 z"
       id="path41-7" />
    <path
       style="fill:none;fill-opacity:1;stroke:#404040;stroke-width:0.499999;stroke-linecap:round;stroke-linejoin:round;stroke-dasharray:none;stroke-opacity:1"
       d="m 56.425654,2.0231992 c -1.638548,-1.458854 -5.031368,-1.078118 -5.973596,0.807922 -0.276558,0.553578 -0.663411,1.075775 -0.807244,1.723567 -0.236845,1.066702 -0.307177,3.439662 0.753427,4.147328 0.723468,0.482716 2.346564,1.142221 2.744626,1.9390138 0.211262,0.422878 0.376713,1.090498 0.376713,1.561979 0,0.0495 -0.100333,0.754061 -0.05382,0.754061 0.08023,0 0.06636,-0.146597 0.107633,-0.215448 0.0944,-0.15747 0.84596,-0.961949 1.076323,-1.077226 0.0695,-0.03478 0.433825,1.345436 0.753428,1.238808 0.226399,-0.07553 1.169307,-1.273072 1.345403,-1.184948 0.182937,0.09154 0.59783,0.993507 0.753427,0.915644 0.07525,-0.03765 0.749027,-1.081631 0.914876,-0.915644 0.0096,0.0096 0.257548,1.088774 0.376713,0.969505 0.538376,-0.53883 0.314299,-2.307436 1.183957,-3.1778228 1.462165,-1.4634 3.48806,-3.143958 2.367909,-5.386142 -0.25549,-0.511411 -0.743305,-1.099091 -1.372308,-1.346535 -0.901498,-1.599192 -3.268631,-1.781324 -4.924183,-0.538614 -0.30315,0.22755 -0.699611,0.530292 -0.699611,0.807918"
       id="path47"
       sodipodi:nodetypes="cssssssssssssssscsc" />
    <path
       style="fill:none;fill-opacity:1;stroke:#404040;stroke-width:0.499999;stroke-linecap:round;stroke-linejoin:round;stroke-dasharray:none;stroke-opacity:1"
       d="m 53.901654,14.139221 c 0.01399,-0.277732 0.247054,-0.476698 0.400939,-0.63075 0.05519,-0.05525 0.242433,-0.458735 0.343664,-0.458735 0.08538,0 0.06719,0.158246 0.114553,0.22937 0.09213,0.138342 0.774637,0.63075 0.973713,0.63075 0.08159,0 0.483241,-0.770488 0.572772,-0.86012 0.403352,-0.403799 0.551676,0.476845 0.859157,0.630756 0.224741,0.112494 0.502937,-0.86012 0.80188,-0.86012 0.06267,0 0.712954,0.771093 0.801881,0.86012 0.036,0.03604 0,0.352429 0,0.40139 0,0.968401 -2.104238,1.845497 -2.978412,2.064287 -1.25343,0.313709 -2.604783,-0.862247 -1.890147,-2.006948 z"
       id="path74" />
  </g>
  <g
     inkscape:groupmode="layer"
     id="layer12"
     style="display:{% if entity.bonus == 'Bonus:magie-vzduchu' %}inline{% else %}none{% endif %}"
     inkscape:label="bonus-magie-vzduchu">
    <path
       style="fill:#bfbfbf;fill-opacity:1;stroke:#404040;stroke-width:0.499999;stroke-linecap:round;stroke-linejoin:round;stroke-dasharray:none;stroke-opacity:1"
       d="M 54.773579,2.739865 C 54.643342,2.568071 54.063564,2.635611 53.428177,2.847586 52.336155,3.2119 50.605107,5.495924 50.898815,6.671744 c 0.118697,0.475196 0.316268,0.848522 0.538162,1.292675 0.06935,0.138815 0.276897,0.56946 0.43053,0.64634 0.882443,0.441592 3.330909,1.544882 3.659497,2.531483 0.289353,0.868784 0.03101,1.84649 -0.753425,2.369906 -0.608859,0.40625 -1.272384,0.763669 -1.183955,0.807923 0.854521,0.42762 2.104828,-0.57005 2.636994,-0.96951 0.67879,-0.509521 1.555509,-0.802756 2.152647,-1.400396 0.418765,-0.419113 0.791588,-1.115422 1.237771,-1.561979 0.404507,-0.404848 0.242813,-1.132373 0.430531,-1.508123 0.09714,-0.19444 0.101549,-0.766229 0,-0.969505 C 59.498354,6.81121 58.30226,6.017955 59.025059,4.571152 59.273143,4.07457 60.914206,2.436508 59.724668,2.039664 58.633633,1.675683 55.401892,1.617522 54.343049,2.147391 c -0.243648,0.121925 -1.347562,0.480432 -1.13014,0.915644 0.264049,0.528532 4.723461,0.524782 5.327804,0.323164 0.254019,-0.08474 1.098838,-0.224238 0.861061,-0.700195 -0.284324,-0.569117 -1.920418,-0.32317 -2.475547,-0.32317 -0.545034,0 -1.511909,0.293704 -1.237771,0.430891 0.295571,0.147909 1.667128,0.05621 1.614481,0.161583"
       id="path48" />
    <path
       style="fill:#808080;fill-opacity:1;stroke:#404040;stroke-width:0.499999;stroke-linecap:round;stroke-linejoin:round;stroke-dasharray:none;stroke-opacity:1"
       d="m 52.459485,7.048775 c 0.143508,-0.01794 0.286327,-0.04274 0.430525,-0.05386 0.611522,-0.04708 1.190495,0.107727 1.775938,0.107727 0.140981,0 0.689081,-0.237112 0.43053,-0.107727"
       id="path49" />
    <path
       style="fill:#808080;fill-opacity:1;stroke:#404040;stroke-width:0.499999;stroke-linecap:round;stroke-linejoin:round;stroke-dasharray:none;stroke-opacity:1"
       d="M 54.02015,5.809966 C 53.677661,6.543861 53.751076,7.429843 53.751076,8.233728"
       id="path50" />
    <path
       style="fill:none;fill-opacity:1;stroke:#404040;stroke-width:0.499999;stroke-linecap:round;stroke-linejoin:round;stroke-dasharray:none;stroke-opacity:1"
       d="m 55.580825,6.240858 c 0.536294,-0.40256 -0.138444,0.09237 0.484346,-0.32317 0.470355,-0.313835 0.957782,-0.616058 1.399218,-0.969505 0.219084,-0.175418 0.472877,-0.430891 0.430535,-0.430891 -0.02789,0 -0.151312,0.683008 -0.161452,0.754056 -0.129789,0.909283 -0.379061,1.790749 -0.538162,2.693071 -0.180211,1.022055 -0.161452,2.194674 -0.161452,3.231689"
       id="path51" />
    <path
       style="fill:none;fill-opacity:1;stroke:#404040;stroke-width:0.499999;stroke-linecap:round;stroke-linejoin:round;stroke-dasharray:none;stroke-opacity:1"
       d="m 51.544608,3.870952 c -0.207253,9.6e-5 -0.449234,-0.01169 -0.645793,0.05386 -0.186711,0.06229 -0.371303,0.26389 -0.484346,0.37703 -0.465935,0.466325 -1.415213,0.874404 0.161452,1.400397 0.587169,0.195892 1.741686,-0.126084 2.314089,-0.269304"
       id="path52" />
    <path
       style="fill:none;fill-opacity:1;stroke:#404040;stroke-width:0.499999;stroke-linecap:round;stroke-linejoin:round;stroke-dasharray:none;stroke-opacity:1"
       d="m 51.275525,7.856697 c -0.67277,0.120555 -1.36969,1.189923 0,1.777427 0.145351,0.06234 0.188624,0.121059 0.322904,0.05386"
       id="path53" />
    <path
       style="fill:none;fill-opacity:1;stroke:#404040;stroke-width:0.499999;stroke-linecap:round;stroke-linejoin:round;stroke-dasharray:none;stroke-opacity:1"
       d="m 53.266725,9.472542 c -0.751839,0.421048 1.072251,-0.828094 -0.538157,0.32317 -1.222395,0.87387 -0.0698,1.126878 0.861056,1.023365 0.744237,-0.08276 1.528494,-0.603305 2.152648,-0.915644"
       id="path54" />
    <path
       style="fill:none;fill-opacity:1;stroke:#404040;stroke-width:0.499999;stroke-linecap:round;stroke-linejoin:round;stroke-dasharray:none;stroke-opacity:1"
       d="M 58.75598,9.849573 C 59.054522,9.782233 59.336141,9.692713 59.617036,9.580264 60.064443,9.401151 60.7572,9.354785 61.123891,8.98779 61.864009,8.247045 60.996357,7.910558 60.370466,7.910558"
       id="path55" />
    <path
       style="fill:none;fill-opacity:1;stroke:#404040;stroke-width:0.499999;stroke-linecap:round;stroke-linejoin:round;stroke-dasharray:none;stroke-opacity:1"
       d="m 60.047567,5.809966 c 0.343591,-0.152615 0.80724,-0.156814 0.80724,0.269304 0,0.894414 -2.012754,0.953366 -2.583173,1.238814"
       id="path56" />
    <path
       style="fill:none;fill-opacity:1;stroke:#404040;stroke-width:0.499999;stroke-linecap:round;stroke-linejoin:round;stroke-dasharray:none;stroke-opacity:1"
       d="M 60.155198,4.409565 C 61.871349,4.206944 61.515463,2.274603 60.047567,3.009169"
       id="path57" />
  </g>
  <g
     inkscape:groupmode="layer"
     id="layer13"
     style="display:{% if entity.bonus == 'Bonus:magie-zivota' %}inline{% else %}none{% endif %}"
     inkscape:label="bonus-magie-zivota">
    <path
       style="fill:#808080;fill-opacity:1;stroke:#404040;stroke-width:0.499999;stroke-linecap:round;stroke-linejoin:round;stroke-dasharray:none;stroke-opacity:1"
       d="m 59.067208,8.6152814 c -0.214317,0.214501 -0.390787,0.97538 -0.968688,1.23881 -0.523949,1.0487796 -0.728936,2.0664096 -0.322894,3.2855496 0.14156,0.42505 0.807235,1.00412 0.807235,1.45426 0,0.1867 -1.001347,-0.15192 -1.18395,-0.7002 -0.08785,-0.26375 -0.668676,0.84631 -0.699614,0.86178 -0.02482,0.0124 -0.627532,-0.82521 -0.645793,-0.86178 -0.03454,-0.0691 -0.01682,-0.39386 -0.05382,-0.43089 -0.196856,-0.19702 -1.193777,1.16293 -1.345407,1.23881 -0.07809,0.0391 -0.411983,-0.60743 -0.430525,-0.7002 -0.0091,-0.0457 0.04395,-0.26437 -0.05382,-0.21545 -0.123259,0.0617 -1.399223,0.77208 -1.399223,0.53862 0,-0.11833 1.118882,-0.78538 1.291592,-1.13109 0.219879,-0.44013 0.171748,-0.96718 0.269083,-1.45426 0.187235,-0.93697 -0.424333,-1.61451 -0.645798,-1.6697 0.0643,0.5204 -1.411493,-2.0712996 -1.13014,-1.5081206"
       id="path59" />
    <path
       style="fill:#ffffff;fill-opacity:1;stroke:#404040;stroke-width:0.499999;stroke-linecap:round;stroke-linejoin:round;stroke-dasharray:none;stroke-opacity:1"
       d="m 54.761918,3.0136914 c -0.04028,-0.107021 -1.001458,-0.545634 -1.829754,-0.269304 -0.861625,0.287449 -0.161452,0.933658 -0.161452,0.807922 0,-0.342913 -2.152642,0.28377 -2.152642,0.969505 0,0.07402 0.106116,0.267787 0.05382,0.215443 -0.264497,-0.264717 -0.966578,0.22627 -1.13014,0.430892 -0.4413,0.552086 0.05382,1.289106 0.05382,1.131092 0,-0.02314 -0.484341,0.220327 -0.484341,0.861783 0,1.087942 0.554011,0.662202 0.807235,0.915644 0.331312,0.331587 -0.172725,0.921899 0.75343,1.292673 0.119911,0.048 0.959278,-0.23429 0.968688,-0.21545 0.321358,0.64325 1.203671,0.9768396 1.937384,0.9156496 0.286388,-0.0239 0.484367,-0.0931 0.75343,-0.2154496 0.161664,-0.0735 0.37671,-0.55476 0.37671,-0.37703 0,0.6355996 1.021415,0.6159796 1.506854,0.6463396 0.22929,0.0144 0.548644,0.0153 0.753425,-0.10772 0.08054,-0.0483 0.282455,-0.3972696 0.322899,-0.3770296 0.335143,0.16771 0.947285,0.3985396 1.399218,0.2693 0.352931,-0.10092 0.912556,-0.75173 1.130144,-0.9695 0.05487,-0.05492 0.372456,-0.01815 0.484341,-0.107727 0.226073,-0.181003 0.450614,-0.457645 0.591983,-0.700195 0.300686,-0.515892 -0.161452,-0.38382 -0.161452,-0.592479 0,-0.138821 0.790696,-0.613135 0.591978,-1.508118 -0.104425,-0.470322 -0.510597,-0.537303 -0.699604,-0.915644 -0.07435,-0.148821 0.186585,-0.394919 0.107626,-0.592474 -0.03252,-0.08139 -0.873225,-0.712378 -0.968687,-0.807922 -0.15087,-0.150998 -0.0098,-0.656119 -0.269084,-0.915644 -0.189782,-0.189945 -1.23774,-0.781007 -1.506854,-0.64634 -0.135252,0.06769 -0.238629,0.254072 -0.37671,0.32317 -0.05846,0.02923 -0.0622,-0.256951 -0.161452,-0.32317 -0.178535,-0.119123 -0.473748,-0.119199 -0.645793,-0.107722 -0.353133,0.02359 -1.131016,0.64634 -0.914872,0.64634 0.170182,0 -0.318222,-0.198533 -0.484351,-0.161588 -0.334766,0.07446 -0.383114,0.221855 -0.645789,0.484753 z"
       id="path58" />
    <path
       style="fill:#ffffff;fill-opacity:1;stroke:#404040;stroke-width:0.499999;stroke-linecap:round;stroke-linejoin:round;stroke-dasharray:none;stroke-opacity:1"
       d="m 52.716901,6.0299324 c 0.758007,-0.225595 2.363515,-0.0883 2.744626,-0.215444"
       id="path60" />
    <path
       style="fill:#ffffff;fill-opacity:1;stroke:#404040;stroke-width:0.499999;stroke-linecap:round;stroke-linejoin:round;stroke-dasharray:none;stroke-opacity:1"
       d="m 54.062304,4.5756754 c -0.311939,0.758678 0.08514,1.930183 -0.215263,2.531483"
       id="path61" />
    <path
       style="fill:#ffffff;fill-opacity:1;stroke:#404040;stroke-width:0.499999;stroke-linecap:round;stroke-linejoin:round;stroke-dasharray:none;stroke-opacity:1"
       d="m 56.161135,5.1681494 c 0.645164,-0.645705 -0.151337,0.165241 0.591983,-0.646335 0.551831,-0.602504 -0.02804,0.13883 0.699604,-0.807922 0.09783,-0.127284 0.101811,-0.54444 0.215263,-0.430892 0.0223,0.02233 -0.05357,0.641128 -0.05381,0.646335 -0.04325,0.951475 -0.279158,1.807649 -0.43053,2.746937 -0.102743,0.637544 -0.0721,1.455295 -0.269084,2.046731"
       id="path62" />
  </g>
  <g
     inkscape:groupmode="layer"
     id="layer14"
     style="display:{% if entity.bonus == 'Bonus:pohyb' %}inline{% else %}none{% endif %}"
     inkscape:label="bonus-pohyb">
    <path
       style="fill:#ffffff;fill-opacity:1;stroke:#404040;stroke-width:0.499999;stroke-linecap:round;stroke-linejoin:round;stroke-dasharray:none;stroke-opacity:1"
       d="m 56.550462,7.3565311 c 0.594515,-0.225594 1.853739,-0.0883 2.152647,-0.215443"
       id="path60-7" />
    <path
       style="fill:#ffffff;fill-opacity:1;stroke:#404040;stroke-width:0.499999;stroke-linecap:round;stroke-linejoin:round;stroke-dasharray:none;stroke-opacity:1"
       d="m 57.895864,5.9022741 c -0.311939,0.758678 0.08514,1.930179 -0.215263,2.531484"
       id="path61-8" />
    <path
       style="fill:none;fill-opacity:1;stroke:#404040;stroke-width:0.499999;stroke-linecap:round;stroke-linejoin:round;stroke-dasharray:none;stroke-opacity:1"
       d="m 58.703109,6.0638571 c 0.645164,-0.645705 -0.151342,0.165241 0.591978,-0.646335 0.551831,-0.60251 -0.02804,0.13883 0.699609,-0.807923 0.09783,-0.127283 0.101806,-0.544439 0.215263,-0.430891 0.0223,0.02233 -0.05358,0.641123 -0.05381,0.646335 -0.04325,0.951475 -0.279163,1.807648 -0.43053,2.746931 -0.102748,0.63755 -0.0721,1.455301 -0.269084,2.046739"
       id="path62-6" />
    <path
       style="fill:#bfbfbf;fill-opacity:1;stroke:#404040;stroke-width:0.499999;stroke-linecap:round;stroke-linejoin:round;stroke-dasharray:none;stroke-opacity:1"
       d="m 54.984833,2.0996581 c 0.0086,-0.207106 -0.399019,0.118886 -0.914877,0.377031 -0.797332,0.399002 -0.973405,2.327285 0.215268,2.208319 1.36112,-0.136225 2.434499,-2.089247 0.699609,-2.58535 z"
       id="path63" />
    <path
       style="fill:#bfbfbf;fill-opacity:1;stroke:#404040;stroke-width:0.499999;stroke-linecap:round;stroke-linejoin:round;stroke-dasharray:none;stroke-opacity:1"
       d="m 53.747062,4.7388681 c -0.554177,0.318488 -0.785491,0.99071 -1.13014,1.508123 -0.266158,0.399571 -0.3863,0.452722 -0.538166,0.969505 -0.336131,1.143809 0.632869,1.92652 1.614485,1.238814 0.428149,-0.299959 0.836552,-0.778099 1.13014,-1.184953 0.592496,-0.821068 0.451359,-2.188712 -0.430526,-2.693071 -0.192652,-0.110181 -0.431724,0.10315 -0.645793,0.161582 z"
       id="path64" />
    <path
       style="fill:none;fill-opacity:1;stroke:#404040;stroke-width:0.499999;stroke-linecap:round;stroke-linejoin:round;stroke-dasharray:none;stroke-opacity:1"
       d="m 53.155084,8.6707531 c -0.109559,1.5625499 3.391657,1.13854 3.551866,2.1005999 0.04979,0.29895 -0.05382,0.62327 -0.05382,0.91564 0,0.46004 0.0687,0.49957 -0.269078,0.86178 -0.394654,0.42319 -0.72006,0.74745 -1.237776,0.96951"
       id="path65" />
    <path
       style="fill:none;fill-opacity:1;stroke:#404040;stroke-width:0.499999;stroke-linecap:round;stroke-linejoin:round;stroke-dasharray:none;stroke-opacity:1"
       d="m 52.563102,8.8861961 c 0.619175,0.452797 0.640542,1.2921469 0.807245,1.9928769 0.474478,1.99448 -0.107959,2.18155 -1.775933,3.01624"
       id="path66" />
    <path
       style="fill:none;fill-opacity:1;stroke:#404040;stroke-width:0.499999;stroke-linecap:round;stroke-linejoin:round;stroke-dasharray:none;stroke-opacity:1"
       d="m 54.01614,5.2236211 c -0.139536,0.53386 -0.224657,1.075059 -0.322899,1.615844 -0.110722,0.609511 -0.189676,0.578346 0.484346,0.915644 0.281474,0.140852 0.595024,0.388205 0.914877,0.430892 0.549757,0.07336 1.049706,-0.04481 1.506854,0.107721"
       id="path67" />
    <path
       style="fill:none;fill-opacity:1;stroke:#404040;stroke-width:0.499999;stroke-linecap:round;stroke-linejoin:round;stroke-dasharray:none;stroke-opacity:1"
       d="m 55.253911,5.6545121 c 0.12914,0.512565 0.840495,0.55131 1.022508,0.915644"
       id="path68" />
  </g>
  <g
     inkscape:groupmode="layer"
     id="layer15"
     style="display:{% if entity.bonus == 'Bonus:vliv' %}inline{% else %}none{% endif %}"
     inkscape:label="bonus-vliv">
    <path
       style="fill:#bfbfbf;fill-opacity:1;stroke:#404040;stroke-width:0.499999;stroke-linecap:round;stroke-linejoin:round;stroke-dasharray:none;stroke-opacity:1"
       d="m 49.84479,7.7884223 c 0.154817,-0.946042 0.700571,-1.657548 1.156788,-2.316045 0.850634,-1.227811 1.639166,-2.169282 2.873297,-2.423762 0.300072,-0.06188 0.803826,-0.09932 1.044836,0.161582 0.01375,0.01482 0.22132,0.204294 0.223893,0.215449 0.02079,0.09017 0.115455,0.484752 0.149263,0.484752 0.003,0 0.171028,-0.408447 0.223892,-0.484752 0.143634,-0.207329 0.371469,-0.286452 0.559735,-0.377031 0.802599,-0.386159 1.868687,-0.321371 2.649405,0.161582 0.179013,0.110741 0.251311,0.350741 0.410472,0.484753 0.07568,0.06372 0.418931,0.281516 0.522418,0.430896 0.490857,0.708507 0.962163,1.678526 1.231418,2.585345 0.108089,0.364051 0.141514,0.785563 0.261204,1.131092 0.06124,0.176774 0.10024,0.198543 0.18658,0.323165 0.0363,0.05235 -0.01395,0.215448 0.03731,0.215448 0.132226,0 -0.180257,-0.291678 -0.298526,-0.377031 -0.261084,-0.188427 -0.531547,-0.464409 -0.783628,-0.646335 -0.464293,-0.335085 -0.85215,-1.007307 -1.306041,-1.400401 -0.332002,-0.287525 -0.73534,-0.396038 -1.082149,-0.646335 -0.200239,-0.144511 -0.385873,-0.09385 -0.597053,-0.161582 -0.728044,-0.233528 -1.614581,-0.625171 -2.388195,-0.377031 -1.802279,0.578094 -3.338888,2.180975 -5.074921,3.016241 z"
       id="path69" />
    <path
       style="fill:#bfbfbf;fill-opacity:1;stroke:#404040;stroke-width:0.499999;stroke-linecap:round;stroke-linejoin:round;stroke-dasharray:none;stroke-opacity:1"
       d="m 49.935928,8.1654483 c 0.419172,0.645861 2.031372,1.669701 3.246457,1.669701 1.200247,0 2.227473,0.6587697 3.433027,0.4847597 0.993191,-0.14336 1.887702,-0.4707097 2.835989,-0.8617867 0.378633,-0.156149 0.735864,-0.400191 1.119461,-0.538613 0.365533,-0.1319 0.671681,-0.391577 0.671681,-0.377031 0,0.0052 -0.96261,1.6290807 -1.044836,1.7774307 -0.852039,1.53729 -1.946171,2.82268 -3.358398,2.53148 -0.184728,-0.0381 -0.750792,0.0474 -0.858257,-0.10772 -0.191539,-0.27646 -0.602017,-0.48833 -0.895579,-0.7002 -0.04602,-0.0332 -0.320281,0.25023 -0.37315,0.26931 -0.69899,0.25223 -1.339763,0.53861 -2.089674,0.53861 -0.881728,0 -1.577702,-0.9876 -2.126991,-1.939 C 50.30356,10.579649 50.296914,9.9616093 50.15982,9.5658493 50.00077,9.1067113 49.834983,8.6753913 49.935928,8.1654483 Z"
       id="path70" />
    <path
       style="fill:none;fill-opacity:1;stroke:#404040;stroke-width:0.499999;stroke-linecap:round;stroke-linejoin:round;stroke-dasharray:none;stroke-opacity:1"
       d="m 52.481698,7.4113913 c 0.610173,0.05312 1.692252,0.05386 2.098832,0.05386"
       id="path71" />
    <path
       style="fill:none;fill-opacity:1;stroke:#404040;stroke-width:0.499999;stroke-linecap:round;stroke-linejoin:round;stroke-dasharray:none;stroke-opacity:1"
       d="m 53.665659,6.3341603 c 0.106986,0.56572 -0.220182,1.953772 -0.269084,2.100597"
       id="path72" />
    <path
       style="fill:none;fill-opacity:1;stroke:#404040;stroke-width:0.499999;stroke-linecap:round;stroke-linejoin:round;stroke-dasharray:none;stroke-opacity:1"
       d="m 55.172513,6.9266393 c 0.477151,-0.199783 0.74764,-0.650493 1.130139,-0.96951 0.02276,-0.01895 0.704639,-0.479717 0.645788,-0.538613 -0.05004,-0.0501 -0.05445,0.524041 -0.107631,0.807922 -0.172015,0.918194 -0.555018,1.755698 -0.80724,2.63921 -0.03947,0.138196 -0.161447,1.2766407 -0.161447,0.915641"
       id="path73" />
  </g>
</svg>
