<?xml version="1.0" encoding="UTF-8" standalone="no"?>
<!-- Created with Inkscape (http://www.inkscape.org/) -->

<svg
   width="63mm"
   height="88mm"
   viewBox="0 0 63 88"
   version="1.1"
   id="svg1"
   inkscape:version="1.4.2 (ebf0e940d0, 2025-05-08)"
   sodipodi:docname="spell.svg"
   xmlns:inkscape="http://www.inkscape.org/namespaces/inkscape"
   xmlns:sodipodi="http://sodipodi.sourceforge.net/DTD/sodipodi-0.dtd"
   xmlns="http://www.w3.org/2000/svg"
   xmlns:svg="http://www.w3.org/2000/svg">
  <sodipodi:namedview
     id="namedview2"
     pagecolor="#ffffff"
     bordercolor="#000000"
     borderopacity="0.25"
     inkscape:showpageshadow="2"
     inkscape:pageopacity="0.0"
     inkscape:pagecheckerboard="0"
     inkscape:deskcolor="#d1d1d1"
     inkscape:document-units="mm"
     inkscape:zoom="0.98115251"
     inkscape:cx="-29.047472"
     inkscape:cy="358.76176"
     inkscape:window-width="1871"
     inkscape:window-height="1072"
     inkscape:window-x="0"
     inkscape:window-y="27"
     inkscape:window-maximized="0"
     inkscape:current-layer="layer1" />
  <g
     inkscape:label="background"
     inkscape:groupmode="layer"
     id="layer1">
    <path
       id="rect7"
       style="fill:#808080;fill-opacity:1;stroke:#000000;stroke-width:0;stroke-linecap:round;stroke-linejoin:round;stroke-dasharray:none"
       d="M -2.7502197,-2.7502197 V 90.750016 H 65.749992 V -2.7502197 Z"
       inkscape:label="border"
       sodipodi:nodetypes="ccccc" />
    <g
       id="g4"
       transform="matrix(1.6748078,0,0,1.2561866,111.02262,-12.140481)"
       style="stroke-width:0.68943">
      <path
         style="display:inline;fill:none;fill-opacity:1;stroke:#404040;stroke-width:0.344714;stroke-linecap:round;stroke-linejoin:round"
         d="m -31.249136,74.080172 c -0.543836,7.047677 1.80606,6.514151 2.105807,-0.352599 0.378924,-16.73223 -3.897463,-53.475993 -1.063142,-62.206362 1.083503,-3.4565804 1.191509,0.922275 1.038791,4.114758 -0.578446,-0.688052 -1.050756,-0.574299 -1.671793,-0.8104"
         id="path3"
         sodipodi:nodetypes="ccccc" />
      <path
         style="display:inline;fill:none;fill-opacity:1;stroke:#404040;stroke-width:0.344714;stroke-linecap:round;stroke-linejoin:round"
         d="m -29.687631,10.245825 c -12.41217,1.504772 -29.746019,-2.5114316 -33.601594,2.407648 -5.463113,6.970034 0.48582,36.662382 -0.760473,61.699969"
         id="path3-7"
         sodipodi:nodetypes="css" />
      <path
         style="display:inline;fill:none;fill-opacity:1;stroke:#404040;stroke-width:0.344714;stroke-linecap:round;stroke-linejoin:round"
         d="m -30.53112,79.165067 c -10.213003,-0.613393 -22.291463,-1.586934 -32.596025,-0.129782 -2.904729,1.539594 -2.666988,-4.072479 -2.413953,-4.829163 9.368971,0.672403 25.318494,2.678793 34.208702,-0.05576"
         id="path4"
         sodipodi:nodetypes="cccs" />
      <path
         style="fill:#bfbfbf;fill-opacity:1;stroke:none;stroke-width:1.88976;stroke-linecap:round;stroke-linejoin:round;stroke-opacity:1"
         d="m 11.39211,328.65855 c -3.8601077,-1.67874 -5.5578579,-5.9385 -5.5952031,-14.03871 l -0.031387,-6.80789 3.9637949,0.16805 c 2.1800872,0.0924 14.1795752,0.79577 26.6655292,1.56299 58.665497,3.60481 65.309756,3.86132 101.256946,3.90918 23.77215,0.0316 39.7132,-0.2686 46.84484,-0.88232 11.40682,-0.98161 29.38573,-3.37996 33.33192,-4.44641 l 2.34224,-0.63298 0.004,7.32898 c 0.002,4.03094 0.35016,8.57555 0.77322,10.09915 0.42307,1.52359 0.57923,2.96014 0.34704,3.19234 -0.2322,0.2322 -13.14718,-0.13786 -28.69997,-0.82235 -78.97523,-3.47575 -122.287091,-3.49909 -161.245386,-0.0869 -6.540262,0.57284 -13.02433,1.37282 -14.409042,1.77775 -3.041235,0.88934 -2.723876,0.90769 -5.548862,-0.32088 z"
         id="path10"
         transform="matrix(0.15797833,0,0,0.21062423,-66.289768,9.6645522)" />
      <path
         style="fill:#ffffff;fill-opacity:1;stroke:none;stroke-width:1.88976;stroke-linecap:round;stroke-linejoin:round;stroke-opacity:1"
         d="m 224.3828,326.69621 c -0.57303,-1.02584 -1.07587,-5.53833 -1.30984,-11.75469 -0.3163,-8.40375 -0.56039,-10.06692 -1.46079,-9.95357 -0.59457,0.0748 -4.542,0.79006 -8.77207,1.58936 -28.99717,5.47923 -74.08514,6.44672 -137.167653,2.94333 -20.574232,-1.14262 -59.739917,-3.62667 -59.879481,-3.79779 -0.06742,-0.0827 0.20004,-7.12298 0.594352,-15.64513 C 17.557412,264.78874 16.013179,227.31019 11.502547,171.52421 7.6864317,124.32778 6.8859569,113.33911 6.0688995,96.932802 3.5985202,47.328181 9.9753943,19.133863 25.45079,11.238906 39.630589,4.0049119 66.444176,2.1846106 128.4207,4.2485593 c 36.56943,1.2178391 77.81596,1.4395232 91.75009,0.4931212 4.55836,-0.3096029 8.35771,-0.5144805 8.44299,-0.4552837 0.0853,0.059197 -0.66673,2.1421635 -1.67113,4.6288148 -3.87202,9.5861674 -5.2808,20.4264004 -5.81904,44.7761914 -0.61883,27.995822 0.48351,50.238457 6.26839,126.481087 5.48197,72.25042 6.88121,98.7837 6.25193,118.5535 -0.43108,13.54315 -1.5487,20.2429 -4.29572,25.75142 -1.94618,3.90263 -3.60963,4.64594 -4.96541,2.2188 z"
         id="path11"
         transform="matrix(0.15797833,0,0,0.21062423,-66.289768,9.6645522)" />
      <path
         style="fill:#bfbfbf;fill-opacity:1;stroke:none;stroke-width:1.88976;stroke-linecap:round;stroke-linejoin:round;stroke-opacity:1"
         d="m 229.77473,24.584246 c -1.65447,-0.446597 -3.18597,-0.989826 -3.40332,-1.207175 -0.6757,-0.675701 2.34187,-12.052585 4.13003,-15.5711031 1.2718,-2.5024729 1.85784,-3.0887313 2.3306,-2.3314425 0.83733,1.3412867 1.37711,20.1368646 0.57482,20.0158416 -0.3432,-0.05177 -1.97766,-0.459525 -3.63213,-0.906121 z"
         id="path12"
         transform="matrix(0.15797833,0,0,0.21062423,-66.289768,9.6645522)" />
    </g>
    <path
       style="fill:none;fill-opacity:1;stroke:none;stroke-width:1.88976;stroke-linecap:round;stroke-linejoin:round"
       d="m 206.83053,325.88851 c -3.85855,-3.85855 -4.76866,-10.29759 -2.75993,-19.52648 0.44547,-2.04661 0.40104,-2.08343 -1.99193,-1.65134 -15.50874,2.80035 -20.11644,3.52076 -28.94469,4.52547 -13.88676,1.5804 -60.32045,2.17623 -83.891877,1.07648 -9.841584,-0.45916 -27.62311,-1.46706 -39.514495,-2.23979 -11.891384,-0.77271 -21.782854,-1.40852 -21.981044,-1.4129 -0.19819,-0.004 -0.379951,-11.27739 -0.403914,-25.05114 C 27.278666,244.83136 25.492221,228.2822 13.669928,154.94834 5.2823243,102.91992 3.0841896,80.062689 4.5982182,60.616473 5.9377776,43.411143 8.8563103,32.608292 14.934324,22.357726 19.134014,15.27495 23.508428,11.143512 29.233302,8.8529823 43.968808,2.9572862 64.499687,2.3555629 123.23799,6.0978736 c 37.63389,2.3977152 57.61059,3.1183507 75.85262,2.736292 9.6122,-0.2013167 17.47673,-0.2026494 17.47673,-0.00296 0,0.199688 -1.17971,1.6688624 -2.62157,3.2648324 -9.32073,10.316928 -13.73306,33.711701 -11.88995,63.042019 1.74404,27.753693 4.5544,46.052913 17.73591,115.484443 10.03836,52.87554 14.07246,82.64393 14.06379,103.77936 -0.005,12.58068 -2.95062,21.88562 -8.85899,27.9862 -4.06438,4.19662 -7.53073,5.88622 -12.076,5.88622 -3.23208,0 -4.00833,-0.3041 -6.09,-2.38577 z"
       id="path5"
       transform="scale(0.26458333)" />
    <path
       style="fill:none;fill-opacity:1;stroke:none;stroke-width:1.88976;stroke-linecap:round;stroke-linejoin:round"
       d="m 228.65413,25.526528 c -1.47804,-0.348627 -5.96937,-0.94268 -9.98073,-1.320119 -4.01136,-0.377438 -7.45468,-0.847543 -7.65182,-1.044678 -0.82237,-0.822376 4.56061,-9.337787 7.84476,-12.409721 2.98828,-2.7951932 3.85636,-3.2443724 5.48993,-2.8407281 4.53525,1.1206318 8.78694,8.4646411 8.78694,15.1778321 0,3.469387 -0.0345,3.488119 -4.48908,2.437414 z"
       id="path6"
       transform="scale(0.26458333)" />
    <path
       style="fill:none;fill-opacity:1;stroke:none;stroke-width:1.88976;stroke-linecap:round;stroke-linejoin:round"
       d="M 10.264762,328.21372 C 7.6603061,326.697 5.883936,321.74871 5.5457215,315.06826 c -0.1770803,-3.4977 -0.037912,-6.6032 0.309262,-6.9011 0.3471745,-0.2979 9.5497645,0.0354 20.4502005,0.74074 79.274766,5.12943 102.677936,5.72423 136.210406,3.46182 13.1804,-0.88927 27.29991,-2.69591 36.59706,-4.68273 1.61326,-0.34476 1.63485,-0.2659 1.16996,4.27177 -0.54756,5.34441 0.58006,11.07215 2.7138,13.78475 1.34585,1.71096 1.35189,1.81004 0.1103,1.80933 -0.72244,-4.2e-4 -11.69145,-0.48801 -24.3756,-1.08355 -66.44582,-3.1197 -110.868346,-2.69268 -153.427757,1.47486 -12.553084,1.22923 -13.365678,1.2438 -15.038591,0.26957 z"
       id="path7"
       transform="scale(0.26458333)" />
  </g>
  <g
     inkscape:groupmode="layer"
     id="texts"
     inkscape:label="texts"
     style="display:inline">
    <text
       xml:space="preserve"
       id="text7"
       style="font-size:10px;font-family:'TeX Gyre Chorus';fill:#000000"
       inkscape:label="heading">{% for row in entity.name | split_string(10) %}<tspan
   x="5"
   y="{{ 7 + loop.index * 8 }}"
   id="tspan1">{{ row }}</tspan>{% endfor %}</text>
    <text
       xml:space="preserve"
       id="text9"
       style="font-size:4px;font-family:'TeX Gyre Bonum';fill:#000000"
       inkscape:label="description2">{% for row in entity.description | split_string(25) %}<tspan
   x="5"
   y="{{ 30 + loop.index * 5 }}"
   id="tspan2">{{ row }}</tspan>{% endfor %}</text>
    <text
       xml:space="preserve"
       id="text3"
       style="font-size:3px;font-family:'TeX Gyre Bonum';fill:#000000"
       inkscape:label="description2">{% for row in entity.description | split_string(30) %}<tspan
   x="5"
   y="{{ 50 + loop.index * 5 }}"
   id="tspan3">{{ row }}</tspan>{% endfor %}</text>
    <text
       xml:space="preserve"
       id="text10"
       x="5"
       y="80"
       style="font-size:3px;font-family:'TeX Gyre Bonum';text-align:start"
       inkscape:label="requires">Vyžaduje: {{ entity.requires | join(', ') }}</text>
  </g>
  <g
     inkscape:groupmode="layer"
     id="layer4"
     style="display:{% if entity.bonus == 'Bonus:magie-ohne' %}inline{% else %}none{% endif %}"
     inkscape:label="bonus-magie-ohne">
    <path
       style="fill:#c0c0c0;fill-opacity:1;stroke:#404040;stroke-width:0.919048;stroke-linecap:round;stroke-linejoin:round;stroke-dasharray:none;stroke-opacity:1"
       d="m 110.27603,78.214489 c -1.51269,0.99323 -2.55844,2.626264 -2.95757,4.450038 -0.48849,2.232051 1.82316,8.280187 0.10846,6.798216 -1.8536,-1.602014 -2.4393,-8.727581 -3.034,-6.430087 -0.61462,2.374475 2.28631,7.763295 -0.0909,7.287866 -1.39416,-0.278823 -2.06226,-1.649512 -2.40588,-2.907597 -0.1767,-0.646974 -0.1632,-1.231191 -0.42927,-0.243664 -0.42569,1.57988 -1.23504,3.026896 -1.53716,4.651961 -0.330991,1.780328 -0.626564,3.700042 -0.06339,5.422961 0.80882,2.474398 2.39671,4.959767 4.8064,5.991557 2.06186,0.88286 4.42338,0.9139 6.53876,0.41301 2.14434,-0.50775 4.73574,-1.03089 5.89632,-3.03779 1.80022,-3.112977 1.62589,-7.32039 -0.65655,-10.179668 -0.82527,-1.033834 -0.95323,-2.367205 -1.39435,-3.616163 -0.29904,-0.846676 0.44006,-2.999096 0.0357,-2.824979 -1.69666,0.730532 -3.25988,2.257182 -3.27771,4.147503 -0.0153,1.62404 -0.54657,-0.528104 -0.72079,-1.119036 -0.45535,-1.544412 -0.71716,-3.127759 -0.79132,-4.745819 -0.0619,-1.351289 -0.12838,-2.707299 -0.0267,-4.058309 z"
       id="path13-1"
       sodipodi:nodetypes="ccccccccccccccccc"
       transform="matrix(0.54326977,0,0,0.54481292,-3.2213899,-42.092244)" />
    <path
       style="fill:#808080;fill-opacity:1;stroke:#404040;stroke-width:0.919048;stroke-linecap:round;stroke-linejoin:round;stroke-dasharray:none;stroke-opacity:1"
       d="m 108.30455,87.969004 c 0.12,1.134414 1.07562,3.5082 -0.0854,3.416533 -0.92464,-0.073 -1.30764,-1.181842 -1.89705,-1.770918 -0.37748,-0.377258 -0.88135,-1.752558 -1.07915,-1.341041 -0.5277,1.097823 -0.56605,2.285427 -1.17383,3.434293 -0.40013,0.756357 -0.78648,0.418944 -1.28859,-0.274834 -0.25983,-0.359009 -0.56484,-1.848036 -0.72121,-1.397801 -0.69433,1.99914 -0.50789,4.157194 -0.44289,6.234463 0.0254,0.812945 0.40893,1.538998 0.93703,2.178244 1.05059,1.271728 2.48529,2.162857 3.95159,2.843527 1.5799,0.7334 3.52761,0.67655 5.02669,-0.10594 1.57948,-0.82445 2.57202,-2.322464 3.82528,-3.686873 0.82992,-0.903526 0.59086,-2.247037 0.28363,-3.297604 -0.44263,-1.51358 -1.1852,-2.925348 -1.43711,-4.504138 -0.14775,-0.926055 0.18837,-3.535838 -0.37829,-2.787063 -0.68218,0.901425 -1.43498,1.97769 -1.21906,3.117563 0.12226,0.645429 -0.0757,1.075286 -0.78523,0.434972 -1.04276,-0.941099 -1.97736,-2.132448 -2.20595,-3.485156 -0.15063,-0.891378 -0.20001,-3.525191 -0.49987,-2.670039 -0.20373,0.58104 -0.40103,1.37278 -0.57244,2.045077 -0.13439,0.527108 -0.27658,1.067889 -0.23815,1.616735 z"
       id="path14-8"
       transform="matrix(0.54326977,0,0,0.54481292,-3.2213899,-41.410455)"
       sodipodi:nodetypes="scccccccccccccccccs" />
  </g>
  <g
     inkscape:groupmode="layer"
     id="layer5"
     style="display:{% if entity.bonus == 'Bonus:magie-vody' %}inline{% else %}none{% endif %}"
     inkscape:label="bonus-magie-vody">
    <path
       style="fill:#bfbfbf;fill-opacity:1;stroke:#404040;stroke-width:0.919048;stroke-linecap:round;stroke-linejoin:round;stroke-dasharray:none;stroke-opacity:1"
       d="m 123.16007,94.682827 c -0.23177,-1.381992 -0.0262,-2.813772 0.43536,-4.101171 0.96671,-2.696305 2.89336,-4.911604 4.87946,-6.910015 1.5473,-1.556893 3.65829,-2.671801 5.93359,-2.514601 1.52928,0.105658 5.35467,2.90307 4.08959,1.944665 -0.47296,-0.358307 -2.55113,-0.826243 -2.08444,-0.565437 1.09495,0.611907 1.75569,1.724279 2.82076,2.363521 0.48156,0.289026 1.15339,1.095537 0.17339,0.623927 -0.98497,-0.474009 -4.30495,-1.067732 -3.18928,-0.785677 1.54578,0.390792 2.84618,1.584748 3.42723,2.9647 0.40396,0.959376 -1.13618,-0.122526 -1.6316,0.140161 -0.81871,0.43411 -1.07994,1.520477 -1.1966,2.397757 -0.1424,1.070887 0.69335,1.958018 1.73768,2.124866 1.03246,0.164951 2.05278,0.265059 3.10816,0.389255 1.01811,0.119812 1.30106,1.292142 1.18943,2.117221 -0.12153,0.898308 0.7906,1.76584 0.238,2.586965 -0.64002,0.951014 -1.8729,0.570861 -2.81497,0.454388 -2.37908,-0.294138 -4.80005,-0.239812 -7.17377,0.03623 -2.06659,0.240322 -4.12466,0.840105 -6.21517,0.546772 -1.29864,-0.18222 -3.60026,1.088259 -3.94671,-0.07985 -0.31394,-1.058517 0.12353,-2.091269 0.17758,-3.259692 0.007,-0.158492 0.0202,-0.316841 0.0423,-0.473986 z"
       id="path15"
       transform="matrix(0.54326977,0,0,0.54481292,-16.812521,-41.656496)" />
    <path
       style="fill:#bfbfbf;fill-opacity:1;stroke:#404040;stroke-width:0.919048;stroke-linecap:round;stroke-linejoin:round;stroke-dasharray:none;stroke-opacity:1"
       d="m 141.13935,85.914409 c 0.10204,0.504503 0.25008,1.009234 0.51081,1.453843 0.12178,0.207672 0.25825,0.444524 0.4948,0.530851 0.24736,0.09027 0.52283,-0.148136 0.5,-0.405548 -0.0269,-0.303196 -0.21705,-0.563506 -0.41619,-0.77954 -0.29834,-0.323664 -0.61271,-0.776632 -1.05619,-0.787422 -0.0117,-2.85e-4 -0.0214,-0.0122 -0.0332,-0.01218 z"
       id="path16"
       sodipodi:nodetypes="cacc"
       transform="matrix(0.49111211,-0.23293318,0.2322734,0.49250711,-30.233773,-5.7242893)" />
    <path
       style="fill:#bfbfbf;fill-opacity:1;stroke:#404040;stroke-width:0.919048;stroke-linecap:round;stroke-linejoin:round;stroke-dasharray:none;stroke-opacity:1"
       d="m 141.1816,88.911965 c 0.36281,-0.06695 0.76059,-0.04083 1.08452,0.149175 0.15643,0.09175 0.29497,0.269537 0.2429,0.458947 -0.0458,0.166684 -0.16991,0.343557 -0.34919,0.365061 -0.20929,0.0251 -0.38842,-0.120667 -0.52175,-0.263706 -0.19272,-0.206764 -0.34104,-0.45241 -0.45648,-0.709477 z"
       id="path18"
       sodipodi:nodetypes="csc"
       transform="matrix(0.538018,0.07557084,-0.07535679,0.53954629,-9.6384227,-53.396595)" />
    <path
       style="fill:#bfbfbf;fill-opacity:1;stroke:#404040;stroke-width:0.688322;stroke-linecap:round;stroke-linejoin:round;stroke-dasharray:none;stroke-opacity:1"
       d="m 141.1816,88.911965 c 0.3318,-0.06249 0.68976,-0.04706 0.99691,0.100914 0.15525,0.07479 0.31668,0.200814 0.33731,0.38272 0.0188,0.165379 -0.0807,0.322682 -0.20478,0.423564 -0.10511,0.08544 -0.25588,0.08658 -0.37482,0.02938 -0.2146,-0.103213 -0.37248,-0.292457 -0.504,-0.485369 -0.097,-0.142341 -0.18084,-0.29372 -0.25062,-0.451207 z"
       id="path18-2"
       sodipodi:nodetypes="csc"
       transform="matrix(0.67120177,0.20125831,-0.18486881,0.73070707,-18.804851,-86.742053)" />
  </g>
  <g
     inkscape:groupmode="layer"
     id="layer6"
     style="display:{% if entity.bonus == 'Bonus:magie-zeme' %}inline{% else %}none{% endif %}"
     inkscape:label="bonus-magie-zeme">
    <path
       style="fill:#bfbfbf;fill-opacity:1;stroke:#404040;stroke-width:0.685533;stroke-linecap:round;stroke-linejoin:round;stroke-dasharray:none;stroke-opacity:1"
       d="m 158.43486,88.046181 c -2.02921,-0.552387 -4.19622,-0.614392 -6.26991,0.02035 -1.50727,0.461363 -3.0557,1.297073 -3.778,2.768753 -0.28909,0.589012 -0.36304,1.244756 -0.45004,1.884183 -0.22758,1.672814 0.43999,3.581349 1.989,4.402958 0.67675,0.358955 1.45877,0.429524 2.20376,0.550663 1.81281,0.294771 3.68035,0.238512 5.46461,-0.212451 1.53747,-0.388586 3.1519,-0.91295 4.26995,-2.044449 0.78949,-0.798988 0.79837,-2.016005 0.64722,-3.051968 -0.079,-0.541697 -0.0551,-1.108303 -0.21824,-1.628817 -0.4139,-1.32029 -1.71758,-2.016737 -2.82722,-2.727035 -0.31156,-0.199438 -0.73869,-0.202728 -1.03113,0.03781 z"
       id="path19"
       transform="matrix(0.72686765,0,0,0.73185399,-56.941207,-58.584164)" />
    <path
       style="fill:#bfbfbf;fill-opacity:1;stroke:#404040;stroke-width:0.860949;stroke-linecap:round;stroke-linejoin:round;stroke-dasharray:none;stroke-opacity:1"
       d="m 155.29753,83.661971 c -1.3068,-0.0097 -2.5193,0.517135 -3.68103,1.220325 -0.83199,0.503598 -1.56683,1.422485 -1.46147,2.434418 0.0839,0.805572 0.74396,1.422955 1.4191,1.780475 1.33539,0.707161 2.89059,0.790042 4.35342,0.707014 1.09174,-0.06197 2.32057,-0.11683 3.16352,-0.886184 0.33396,-0.304801 0.6275,-0.720985 0.55572,-1.207942 -0.12458,-0.845046 -0.8436,-1.413588 -1.48296,-1.883275 -0.72681,-0.533926 -1.1389,-1.38544 -1.8661,-1.91282 -0.28599,-0.207407 -0.64883,-0.309331 -1.0002,-0.252011 z"
       id="path20"
       transform="matrix(0.63549221,0,0,0.53072861,-42.699197,-41.169756)" />
    <path
       style="fill:#bfbfbf;fill-opacity:1;stroke:#404040;stroke-width:0.875631;stroke-linecap:round;stroke-linejoin:round;stroke-dasharray:none;stroke-opacity:1"
       d="m 154.05065,81.851975 c -0.48002,-0.163001 -1.08973,-0.103991 -1.40907,0.331727 -0.5016,0.684394 -0.34426,1.730539 0.26998,2.278155 0.91173,0.812848 2.2114,1.133108 3.40568,0.944751 0.55878,-0.08813 1.21721,-0.191229 1.55125,-0.651138 0.29084,-0.400443 0.37134,-0.958133 0.13093,-1.403841 -0.34954,-0.648044 -1.01001,-1.059933 -1.6687,-1.33659 -0.44654,-0.187554 -0.91837,-0.335204 -1.41337,-0.308521 -0.2932,0.01581 -0.58359,0.06867 -0.8667,0.145457 z"
       id="path21"
       transform="matrix(0.59870854,-0.15204783,0.12826838,0.51202728,-48.526068,-16.223168)" />
  </g>
  <g
     inkscape:groupmode="layer"
     id="layer10"
     style="display:{% if entity.bonus == 'Bonus:magie-ducha' %}inline{% else %}none{% endif %}"
     inkscape:label="bonus-magie-ducha">
    <path
       style="fill:#bebebe;fill-opacity:1;stroke:#404040;stroke-width:0.499999;stroke-linecap:round;stroke-linejoin:round;stroke-dasharray:none;stroke-opacity:1"
       d="m 59.756149,15.046422 c -1.208411,-0.266779 -5.5563,-0.663996 -6.834655,-2.369901 -0.263812,-0.352046 -0.536646,-0.716128 -0.807244,-1.077232 -0.748861,-0.999318 -1.071846,-4.36268 -0.96869,-5.601585 0.0584,-0.70137 0.64157,-1.933727 1.076323,-2.477627 0.343808,-0.430121 0.861618,-0.646753 1.291589,-0.969505 0.959552,-0.720271 2.014826,-1.158678 3.228971,-0.915644 0.613636,0.122833 1.332565,-0.242132 1.937382,0 1.502915,0.601673 1.668855,3.391608 1.237773,4.685941 -0.230007,0.690604 -0.840719,1.157388 -1.022508,1.885154 -0.26539,1.062448 -0.420077,2.220335 -0.69961,3.339406 -0.214589,0.859076 0.946419,2.974048 1.560669,3.500993 z"
       id="path39" />
    <path
       style="fill:#3f3f3f;fill-opacity:1;stroke:#404040;stroke-width:0.499999;stroke-linecap:round;stroke-linejoin:round;stroke-dasharray:none;stroke-opacity:1"
       d="m 54.37453,3.573938 c -0.82574,-0.06515 0.976575,0.02031 -0.430529,-0.107722 -0.96306,-0.08763 -0.967737,1.292675 0.05382,1.292675 0.692002,0 1.249725,-1.06013 0.376713,-1.184953 z"
       id="path40" />
    <path
       style="fill:#3f3f3f;fill-opacity:1;stroke:#404040;stroke-width:0.499999;stroke-linecap:round;stroke-linejoin:round;stroke-dasharray:none;stroke-opacity:1"
       d="m 57.76495,3.789386 c -0.849503,-0.158906 1.099498,0.180488 -0.484345,-0.107722 -0.416259,-0.07575 -1.5144,0.533578 -0.86106,0.969505 0.697515,0.465397 2.026723,0.09286 1.345405,-0.861783 z"
       id="path41" />
    <path
       style="fill:none;fill-opacity:1;stroke:#404040;stroke-width:0.499999;stroke-linecap:round;stroke-linejoin:round;stroke-dasharray:none;stroke-opacity:1"
       d="m 54.482163,5.728395 c 0.261272,0.195439 1.015331,0.415332 1.775934,0.161588"
       id="path45" />
  </g>
  <g
     inkscape:groupmode="layer"
     id="layer11"
     style="display:{% if entity.bonus == 'Bonus:magie-smrti' %}inline{% else %}none{% endif %}"
     inkscape:label="bonus-magie-smrti">
    <path
       style="display:inline;fill:#ffffff;fill-opacity:1;stroke:#404040;stroke-width:0.499999;stroke-linecap:round;stroke-linejoin:round;stroke-dasharray:none;stroke-opacity:1"
       d="m 56.425654,2.0231992 c -1.638548,-1.458854 -5.031368,-1.078118 -5.973596,0.807922 -0.276558,0.553578 -0.663411,1.075775 -0.807244,1.723567 -0.236845,1.066702 -0.307177,3.439662 0.753427,4.147328 0.723468,0.482716 2.346564,1.142221 2.744626,1.9390138 0.211262,0.422878 0.376713,1.090498 0.376713,1.561979 0,0.0495 -0.100333,0.754061 -0.05382,0.754061 0.08023,0 0.06636,-0.146597 0.107633,-0.215448 0.0944,-0.15747 0.84596,-0.961949 1.076323,-1.077226 0.0695,-0.03478 0.433825,1.345436 0.753428,1.238808 0.226399,-0.07553 1.169307,-1.273072 1.345403,-1.184948 0.182937,0.09154 0.59783,0.993507 0.753427,0.915644 0.07525,-0.03765 0.749027,-1.081631 0.914876,-0.915644 0.0096,0.0096 0.257548,1.088774 0.376713,0.969505 0.538376,-0.53883 0.314299,-2.307436 1.183957,-3.1778228 1.462165,-1.4634 3.48806,-3.143958 2.367909,-5.386142 -0.25549,-0.511411 -0.743305,-1.099091 -1.372308,-1.346535 -0.901498,-1.599192 -3.268631,-1.781324 -4.924183,-0.538614 -0.30315,0.22755 -0.699611,0.530292 -0.699611,0.807918"
       id="path47"
       sodipodi:nodetypes="cssssssssssssssscsc" />
    <path
       style="fill:#808080;fill-opacity:1;stroke:#404040;stroke-width:0.499999;stroke-linecap:round;stroke-linejoin:round;stroke-dasharray:none;stroke-opacity:1"
       d="m 53.64121,4.5779032 c -0.825741,-0.06516 0.976575,0.02031 -0.43053,-0.107721 -0.963059,-0.08763 -0.967737,1.292674 0.05382,1.292674 0.692001,0 1.249724,-1.060134 0.376713,-1.184953 z"
       id="path40-4" />
    <path
       style="fill:#808080;fill-opacity:1;stroke:#404040;stroke-width:0.499999;stroke-linecap:round;stroke-linejoin:round;stroke-dasharray:none;stroke-opacity:1"
       d="m 58.753748,4.6856252 c -0.849504,-0.158901 1.099497,0.180494 -0.484346,-0.107722 -0.416258,-0.07575 -1.5144,0.533578 -0.861059,0.969505 0.697515,0.465403 2.026722,0.09286 1.345405,-0.861783 z"
       id="path41-7" />
    <path
       style="fill:none;fill-opacity:1;stroke:#404040;stroke-width:0.499999;stroke-linecap:round;stroke-linejoin:round;stroke-dasharray:none;stroke-opacity:1"
       d="m 53.901654,14.139221 c 0.01399,-0.277732 0.247054,-0.476698 0.400939,-0.63075 0.05519,-0.05525 0.242433,-0.458735 0.343664,-0.458735 0.08538,0 0.06719,0.158246 0.114553,0.22937 0.09213,0.138342 0.774637,0.63075 0.973713,0.63075 0.08159,0 0.483241,-0.770488 0.572772,-0.86012 0.403352,-0.403799 0.551676,0.476845 0.859157,0.630756 0.224741,0.112494 0.502937,-0.86012 0.80188,-0.86012 0.06267,0 0.712954,0.771093 0.801881,0.86012 0.036,0.03604 0,0.352429 0,0.40139 0,0.968401 -2.104238,1.845497 -2.978412,2.064287 -1.25343,0.313709 -2.604783,-0.862247 -1.890147,-2.006948 z"
       id="path74" />
  </g>
  <g
     inkscape:groupmode="layer"
     id="layer12"
     style="display:{% if entity.bonus == 'Bonus:magie-vzduchu' %}inline{% else %}none{% endif %}"
     inkscape:label="bonus-magie-vzduchu">
    <path
       style="fill:#bfbfbf;fill-opacity:1;stroke:#404040;stroke-width:0.499999;stroke-linecap:round;stroke-linejoin:round;stroke-dasharray:none;stroke-opacity:1"
       d="M 54.773579,2.739865 C 54.643342,2.568071 54.063564,2.635611 53.428177,2.847586 52.336155,3.2119 50.605107,5.495924 50.898815,6.671744 c 0.118697,0.475196 0.316268,0.848522 0.538162,1.292675 0.06935,0.138815 0.276897,0.56946 0.43053,0.64634 0.882443,0.441592 3.330909,1.544882 3.659497,2.531483 0.289353,0.868784 0.03101,1.84649 -0.753425,2.369906 -0.608859,0.40625 -1.272384,0.763669 -1.183955,0.807923 0.854521,0.42762 2.104828,-0.57005 2.636994,-0.96951 0.67879,-0.509521 1.555509,-0.802756 2.152647,-1.400396 0.418765,-0.419113 0.791588,-1.115422 1.237771,-1.561979 0.404507,-0.404848 0.242813,-1.132373 0.430531,-1.508123 0.09714,-0.19444 0.101549,-0.766229 0,-0.969505 C 59.498354,6.81121 58.30226,6.017955 59.025059,4.571152 59.273143,4.07457 60.914206,2.436508 59.724668,2.039664 58.633633,1.675683 55.401892,1.617522 54.343049,2.147391 c -0.243648,0.121925 -1.347562,0.480432 -1.13014,0.915644 0.264049,0.528532 4.723461,0.524782 5.327804,0.323164 0.254019,-0.08474 1.098838,-0.224238 0.861061,-0.700195 -0.284324,-0.569117 -1.920418,-0.32317 -2.475547,-0.32317 -0.545034,0 -1.511909,0.293704 -1.237771,0.430891 0.295571,0.147909 1.667128,0.05621 1.614481,0.161583"
       id="path48" />
    <path
       style="fill:none;fill-opacity:1;stroke:#404040;stroke-width:0.499999;stroke-linecap:round;stroke-linejoin:round;stroke-dasharray:none;stroke-opacity:1"
       d="m 51.544608,3.870952 c -0.207253,9.6e-5 -0.449234,-0.01169 -0.645793,0.05386 -0.186711,0.06229 -0.371303,0.26389 -0.484346,0.37703 -0.465935,0.466325 -1.415213,0.874404 0.161452,1.400397 0.587169,0.195892 1.741686,-0.126084 2.314089,-0.269304"
       id="path52" />
    <path
       style="fill:none;fill-opacity:1;stroke:#404040;stroke-width:0.499999;stroke-linecap:round;stroke-linejoin:round;stroke-dasharray:none;stroke-opacity:1"
       d="m 51.275525,7.856697 c -0.67277,0.120555 -1.36969,1.189923 0,1.777427 0.145351,0.06234 0.188624,0.121059 0.322904,0.05386"
       id="path53" />
    <path
       style="fill:none;fill-opacity:1;stroke:#404040;stroke-width:0.499999;stroke-linecap:round;stroke-linejoin:round;stroke-dasharray:none;stroke-opacity:1"
       d="m 53.266725,9.472542 c -0.751839,0.421048 1.072251,-0.828094 -0.538157,0.32317 -1.222395,0.87387 -0.0698,1.126878 0.861056,1.023365 0.744237,-0.08276 1.528494,-0.603305 2.152648,-0.915644"
       id="path54" />
    <path
       style="fill:none;fill-opacity:1;stroke:#404040;stroke-width:0.499999;stroke-linecap:round;stroke-linejoin:round;stroke-dasharray:none;stroke-opacity:1"
       d="M 58.75598,9.849573 C 59.054522,9.782233 59.336141,9.692713 59.617036,9.580264 60.064443,9.401151 60.7572,9.354785 61.123891,8.98779 61.864009,8.247045 60.996357,7.910558 60.370466,7.910558"
       id="path55" />
    <path
       style="fill:none;fill-opacity:1;stroke:#404040;stroke-width:0.499999;stroke-linecap:round;stroke-linejoin:round;stroke-dasharray:none;stroke-opacity:1"
       d="m 60.047567,5.809966 c 0.343591,-0.152615 0.80724,-0.156814 0.80724,0.269304 0,0.894414 -2.012754,0.953366 -2.583173,1.238814"
       id="path56" />
    <path
       style="fill:none;fill-opacity:1;stroke:#404040;stroke-width:0.499999;stroke-linecap:round;stroke-linejoin:round;stroke-dasharray:none;stroke-opacity:1"
       d="M 60.155198,4.409565 C 61.871349,4.206944 61.515463,2.274603 60.047567,3.009169"
       id="path57" />
  </g>
  <g
     inkscape:groupmode="layer"
     id="layer13"
     style="display:{% if entity.bonus == 'Bonus:magie-zivota' %}inline{% else %}none{% endif %}"
     inkscape:label="bonus-magie-zivota">
    <path
       style="fill:#808080;fill-opacity:1;stroke:#404040;stroke-width:0.499999;stroke-linecap:round;stroke-linejoin:round;stroke-dasharray:none;stroke-opacity:1"
       d="m 59.067208,8.6152814 c -0.214317,0.214501 -0.390787,0.97538 -0.968688,1.23881 -0.523949,1.0487796 -0.728936,2.0664096 -0.322894,3.2855496 0.14156,0.42505 0.807235,1.00412 0.807235,1.45426 0,0.1867 -1.001347,-0.15192 -1.18395,-0.7002 -0.08785,-0.26375 -0.668676,0.84631 -0.699614,0.86178 -0.02482,0.0124 -0.627532,-0.82521 -0.645793,-0.86178 -0.03454,-0.0691 -0.01682,-0.39386 -0.05382,-0.43089 -0.196856,-0.19702 -1.193777,1.16293 -1.345407,1.23881 -0.07809,0.0391 -0.411983,-0.60743 -0.430525,-0.7002 -0.0091,-0.0457 0.04395,-0.26437 -0.05382,-0.21545 -0.123259,0.0617 -1.399223,0.77208 -1.399223,0.53862 0,-0.11833 1.118882,-0.78538 1.291592,-1.13109 0.219879,-0.44013 0.171748,-0.96718 0.269083,-1.45426 0.187235,-0.93697 -0.424333,-1.61451 -0.645798,-1.6697 0.0643,0.5204 -1.411493,-2.0712996 -1.13014,-1.5081206"
       id="path59" />
    <path
       style="display:inline;fill:#ffffff;fill-opacity:1;stroke:#404040;stroke-width:0.499999;stroke-linecap:round;stroke-linejoin:round;stroke-dasharray:none;stroke-opacity:1"
       d="m 54.761918,3.0136914 c -0.04028,-0.107021 -1.001458,-0.545634 -1.829754,-0.269304 -0.861625,0.287449 -0.161452,0.933658 -0.161452,0.807922 0,-0.342913 -2.152642,0.28377 -2.152642,0.969505 0,0.07402 0.106116,0.267787 0.05382,0.215443 -0.264497,-0.264717 -0.966578,0.22627 -1.13014,0.430892 -0.4413,0.552086 0.05382,1.289106 0.05382,1.131092 0,-0.02314 -0.484341,0.220327 -0.484341,0.861783 0,1.087942 0.554011,0.662202 0.807235,0.915644 0.331312,0.331587 -0.172725,0.921899 0.75343,1.292673 0.119911,0.048 0.959278,-0.23429 0.968688,-0.21545 0.321358,0.64325 1.203671,0.9768396 1.937384,0.9156496 0.286388,-0.0239 0.484367,-0.0931 0.75343,-0.2154496 0.161664,-0.0735 0.37671,-0.55476 0.37671,-0.37703 0,0.6355996 1.021415,0.6159796 1.506854,0.6463396 0.22929,0.0144 0.548644,0.0153 0.753425,-0.10772 0.08054,-0.0483 0.282455,-0.3972696 0.322899,-0.3770296 0.335143,0.16771 0.947285,0.3985396 1.399218,0.2693 0.352931,-0.10092 0.912556,-0.75173 1.130144,-0.9695 0.05487,-0.05492 0.372456,-0.01815 0.484341,-0.107727 0.226073,-0.181003 0.450614,-0.457645 0.591983,-0.700195 0.300686,-0.515892 -0.161452,-0.38382 -0.161452,-0.592479 0,-0.138821 0.790696,-0.613135 0.591978,-1.508118 -0.104425,-0.470322 -0.510597,-0.537303 -0.699604,-0.915644 -0.07435,-0.148821 0.186585,-0.394919 0.107626,-0.592474 -0.03252,-0.08139 -0.873225,-0.712378 -0.968687,-0.807922 -0.15087,-0.150998 -0.0098,-0.656119 -0.269084,-0.915644 -0.189782,-0.189945 -1.23774,-0.781007 -1.506854,-0.64634 -0.135252,0.06769 -0.238629,0.254072 -0.37671,0.32317 -0.05846,0.02923 -0.0622,-0.256951 -0.161452,-0.32317 -0.178535,-0.119123 -0.473748,-0.119199 -0.645793,-0.107722 -0.353133,0.02359 -1.131016,0.64634 -0.914872,0.64634 0.170182,0 -0.318222,-0.198533 -0.484351,-0.161588 -0.334766,0.07446 -0.383114,0.221855 -0.645789,0.484753 z"
       id="path58" />
  </g>
</svg>
